<svg id="Слой_1" data-name="Слой 1" xmlns="http://www.w3.org/2000/svg" viewBox="0 0 315 323.01"><defs><style>.cls-1{fill:#4da8f2;}.cls-2{fill:#c2bebc;}.cls-3{fill:#78c2ff;}.cls-4{fill:#d6d6d6;}.cls-5{fill:#e8e8e8;}.cls-6{fill:#c2c2c2;}.cls-7{fill:#2878bd;}.cls-8{fill:#2e8cdb;}.cls-9{fill:#3197ed;}.cls-10{fill:#35a2ff;}.cls-11{fill:#1a598c;}.cls-12{fill:#e3f2ff;}.cls-13{fill:#f5f5f5;}.cls-14{fill:#ebebeb;}.cls-15{fill:#dedede;}.cls-16{fill:#292c47;}.cls-17{fill:#eea886;}.cls-18{fill:#ead8cf;}.cls-19{fill:#da9b5b;}.cls-20{fill:#424773;}.cls-21{fill:#3a3f47;}.cls-22{fill:#e2d2ca;}.cls-23{fill:#323657;}.cls-24{fill:#252840;}.cls-25{fill:#5377b3;}.cls-26{fill:#5b83c2;}.cls-27{fill:#2f4563;}.cls-28{fill:#354c70;}.cls-29{fill:#2b3b57;}.cls-30{fill:#e25d73;}.cls-31{fill:#353a3d;}.cls-32{fill:#ff7e55;}.cls-33{fill:#e55353;}.cls-34{fill:#cf8c6c;}.cls-35{fill:#3b3f66;}.cls-36{fill:#555c94;}.cls-37{fill:#d9d0c4;}.cls-38{fill:#eea987;}.cls-39{fill:#494f80;}.cls-40{fill:#e8734d;}.cls-41{fill:#fccca2;}.cls-42{fill:#c48a6f;}.cls-43{fill:#285173;}.cls-44{fill:#db9c7c;}.cls-45{fill:#b0573a;}</style></defs><title>About us</title><path class="cls-1" d="M152.12,274.51h-35V132.78h35ZM117.63,274h34V133.25h-34Z"/><path class="cls-2" d="M290.65,199.52l-.42-.22a8.9,8.9,0,0,1,.91-1.13c.34-.39.76-.87,1.25-1.46l.36.31c-.49.59-.91,1.07-1.25,1.46A8.53,8.53,0,0,0,290.65,199.52Zm4.17-5.12-.38-.28c.65-.87,1.29-1.79,1.9-2.7l.4.26C296.12,192.61,295.48,193.52,294.82,194.4ZM10,191l-.09-.1.35-.32.08.09Zm288.54-2.1-.41-.25c.55-.93,1.09-1.91,1.61-2.88l.42.21C299.61,186.93,299.07,187.91,298.51,188.86ZM7.79,188.25c-.61-.88-1.21-1.83-1.78-2.83l.41-.23A32.29,32.29,0,0,0,8.18,188ZM301.6,183l-.43-.2c.46-1,.9-2,1.32-3l.43.18C302.51,180.93,302.06,182,301.6,183Zm-297.12-.5c-.46-1-.9-2-1.3-3.08l.44-.17c.4,1,.83,2.06,1.29,3Zm299.63-5.67-.45-.15c.37-1,.71-2.09,1-3.14l.45.14C304.83,174.7,304.47,175.76,304.11,176.79Zm-302-.56c-.32-1.06-.61-2.14-.86-3.22l.46-.11c.25,1.07.53,2.14.86,3.19Zm304-5.8-.46-.11c.27-1.06.53-2.14.77-3.22l.46.1C306.59,168.29,306.33,169.37,306.06,170.43ZM.58,169.74c-.18-1.1-.32-2.22-.41-3.31l.47,0c.09,1.08.23,2.18.41,3.28Zm306.89-5.8-.46-.09c.19-1.07.36-2.17.51-3.26l.47.06C307.84,161.75,307.66,162.86,307.47,163.94ZM0,163.1v-.45c0-1,0-1.94.1-2.89l.48,0c-.07.93-.11,1.89-.11,2.85,0,.15,0,.3,0,.44Zm308.39-5.75-.47,0c.11-1.08.2-2.19.27-3.29l.48,0C308.59,155.15,308.5,156.26,308.39,157.35ZM1,156.52l-.46-.07a31.57,31.57,0,0,1,.68-3.27l.46.12C1.36,154.34,1.13,155.43,1,156.52Zm307.89-5.8-.48,0c0-1.09.06-2.2.06-3.31h.48C308.89,148.5,308.87,149.62,308.84,150.72ZM2.61,150.15,2.16,150a32.23,32.23,0,0,1,1.32-3.07l.42.21A32.23,32.23,0,0,0,2.61,150.15Zm2.9-5.89L5.1,144A31.91,31.91,0,0,1,7,141.28l.37.29A31,31,0,0,0,5.51,144.26Zm302.87-.18c0-1.09-.07-2.2-.14-3.31l.48,0c.06,1.11.11,2.23.14,3.32Zm-298.82-5-.34-.33a32.88,32.88,0,0,1,2.43-2.28l.31.36C11.12,137.56,10.31,138.31,9.56,139.09ZM308,137.47c-.09-1.08-.2-2.19-.32-3.29l.47-.06c.12,1.11.23,2.22.32,3.31ZM14.56,134.81l-.28-.38c.89-.63,1.83-1.25,2.8-1.82l.24.41C16.36,133.59,15.43,134.19,14.56,134.81Zm5.65-3.37L20,131c1-.48,2-.95,3-1.38l.18.43C22.18,130.5,21.17,131,20.21,131.44Zm287.07-.55c-.14-1.08-.31-2.18-.48-3.28l.46-.07c.18,1.09.35,2.2.49,3.29Zm-281-2-.16-.45c1-.36,2.09-.7,3.17-1l.13.46C28.36,128.18,27.31,128.52,26.29,128.88ZM32.63,127l-.12-.46c1.06-.26,2.15-.5,3.25-.72l.09.47C34.76,126.52,33.67,126.76,32.63,127Zm6.48-1.29-.07-.47c1.07-.17,2.17-.32,3.29-.46l.06.47C41.28,125.41,40.18,125.56,39.11,125.73Zm6.56-.81,0-.47h0c1.08-.1,2.17-.21,3.24-.34l.06.47c-1.08.13-2.17.24-3.26.34Zm260.56-.57L306,123.2c-.14-.7-.28-1.41-.43-2.1l.46-.1c.15.7.3,1.41.43,2.11.08.39.15.77.22,1.15Zm-254-.22-.07-.47c1.09-.16,2.19-.34,3.27-.54l.08.47C54.47,123.78,53.36,124,52.27,124.13Zm6.54-1.19-.1-.46c1.07-.23,2.16-.48,3.23-.74l.11.46C61,122.46,59.89,122.71,58.81,122.94Zm6.45-1.57-.12-.46c1-.29,2.12-.6,3.17-.93l.14.46C67.4,120.76,66.32,121.07,65.26,121.37Zm6.36-2-.16-.45c1-.35,2.09-.72,3.13-1.1l.16.44C73.71,118.7,72.65,119.07,71.62,119.42Zm233.22-1.54c-.26-1.07-.55-2.15-.85-3.2l.46-.13c.3,1.06.59,2.14.85,3.21Zm-227-.76-.17-.44c1-.4,2-.82,3.06-1.26l.18.44C79.9,116.29,78.87,116.72,77.85,117.12Zm6.11-2.6-.2-.44c1-.45,2-.92,3-1.4l.21.42C86,113.59,85,114.06,84,114.52Zm6-2.89-.21-.42c1-.49,2-1,2.93-1.53l.22.42C91.89,110.62,90.9,111.14,89.93,111.63Zm213.1-.12c-.34-1-.7-2.1-1.07-3.13l.45-.16c.37,1,.73,2.09,1.07,3.15Zm-207.25-3-.23-.41c1-.53,1.91-1.08,2.88-1.64l.23.41C97.7,107.43,96.73,108,95.78,108.51Zm205-3.22c-.41-1-.84-2-1.29-3l.43-.19c.45,1,.89,2,1.3,3.06Zm-199.26-.11-.25-.4,2.83-1.73.25.41C103.4,104.05,102.45,104.63,101.52,105.18Zm5.64-3.49-.25-.4,2.78-1.79.26.4C109,100.51,108.07,101.12,107.16,101.69Zm190.93-2.44c-.49-1-1-2-1.52-2.94l.42-.22c.52,1,1,2,1.52,3ZM112.72,98.07l-.26-.39,2.75-1.85.27.4Zm5.5-3.71L118,94l2.73-1.88.27.39Zm176.72-.93c-.56-.94-1.14-1.89-1.73-2.81l.39-.26c.6.93,1.19,1.88,1.75,2.83ZM123.68,90.59l-.27-.39,2.72-1.89.27.39Zm167.68-2.71c-.64-.9-1.3-1.8-2-2.68l.37-.28c.67.87,1.34,1.78,2,2.68ZM129.12,86.81l-.27-.39,2.72-1.89.27.39C130.93,85.54,130,86.18,129.12,86.81ZM134.56,83l-.26-.39L137,80.77l.27.39Zm152.77-.42c-.7-.84-1.43-1.68-2.17-2.5l.35-.32c.74.82,1.48,1.67,2.18,2.52ZM140,79.31l-.26-.39,2.76-1.84.26.4ZM282.89,77.7c-.77-.78-1.56-1.56-2.36-2.31l.32-.35c.81.76,1.61,1.54,2.38,2.33Zm-137.32-2-.26-.4,2.8-1.78.25.4Zm132.5-2.5c-.83-.72-1.69-1.43-2.54-2.11l.29-.37c.86.69,1.72,1.4,2.56,2.12Zm-126.89-1-.25-.41,2.85-1.7.24.41C153.09,71,152.13,71.59,151.18,72.17Zm121.72-3.1c-.89-.65-1.8-1.28-2.71-1.89l.27-.4c.91.62,1.83,1.26,2.72,1.91Zm-116-.25-.24-.41c1-.55,1.95-1.09,2.91-1.6l.22.42C158.83,67.74,157.86,68.28,156.89,68.82Zm5.82-3.13-.21-.42c1-.51,2-1,3-1.48l.2.43C164.7,64.69,163.7,65.18,162.71,65.69Zm104.71-.29c-.94-.57-1.9-1.14-2.86-1.67l.23-.42c1,.54,1.93,1.11,2.87,1.68Zm-98.75-2.59-.2-.43c1-.46,2-.91,3.05-1.33l.18.43C170.7,61.91,169.68,62.35,168.67,62.81Zm93-.64c-1-.5-2-1-3-1.44l.2-.43c1,.46,2,1,3,1.45Zm-86.87-1.93-.17-.44c1-.41,2.09-.8,3.12-1.17l.16.45C176.85,59.44,175.81,59.83,174.77,60.24Zm80.87-.83c-1-.42-2-.83-3.08-1.21l.16-.45c1,.39,2.08.8,3.1,1.22ZM181,58l-.14-.45c1.05-.34,2.12-.67,3.17-1l.13.45C183.14,57.35,182.07,57.67,181,58Zm68.42-.91c-1-.34-2.11-.67-3.17-1l.14-.46c1.06.31,2.13.64,3.17,1Zm-62.06-.92-.12-.46,1.5-.37c.57-.13,1.16-.27,1.74-.39l.1.46-1.73.4C188.37,55.93,187.87,56.06,187.38,56.18Zm55.7-.92c-1.06-.26-2.14-.51-3.22-.75l.1-.46c1.08.23,2.17.49,3.24.75Zm-49.24-.53-.09-.46c1.08-.22,2.18-.42,3.26-.61l.08.47C196,54.32,194.92,54.52,193.84,54.73Zm42.77-.85c-1.07-.2-2.17-.37-3.27-.53l.07-.47c1.1.16,2.2.34,3.29.53Zm-36.25-.28-.07-.46c1.1-.17,2.21-.32,3.29-.45l.06.47C202.56,53.29,201.45,53.44,200.36,53.6Zm29.7-.67c-1.08-.12-2.19-.23-3.29-.32l0-.47c1.1.09,2.21.19,3.31.32Zm-23.13-.12,0-.48c1.1-.1,2.22-.19,3.31-.26l0,.47C209.14,52.61,208,52.7,206.93,52.81Zm16.54-.41c-1.1,0-2.21-.09-3.31-.11v-.47c1.1,0,2.22,0,3.32.11Zm-9.93,0,0-.47c1.11,0,2.23-.07,3.32-.09v.48C215.75,52.29,214.64,52.32,213.54,52.36Z"/><path class="cls-3" d="M252.51,36.24a23,23,0,0,0-2.46-5.91l2.5-3.76-3.47-3.47-3.46-3.47-3.76,2.5a23,23,0,0,0-5.92-2.45l-.89-4.42h-9.8l-.89,4.42a23,23,0,0,0-5.92,2.45l-3.76-2.5-3.47,3.47-3.46,3.47,2.5,3.76a22.65,22.65,0,0,0-2.46,5.91l-4.42.89v9.81l4.42.89a22.86,22.86,0,0,0,2.46,5.92l-2.5,3.75L211.21,61l3.47,3.47,3.76-2.5a22.69,22.69,0,0,0,5.92,2.45l.89,4.42h9.8l.89-4.42a22.69,22.69,0,0,0,5.92-2.45l3.76,2.5L249.08,61l3.47-3.47-2.5-3.75a23.21,23.21,0,0,0,2.46-5.92l4.42-.89V37.13Zm-22.36,23A17.18,17.18,0,1,1,247.33,42,17.18,17.18,0,0,1,230.15,59.22Z"/><path class="cls-1" d="M37.43,163.66a3.12,3.12,0,0,0,.4.32l-.32.4L29,175.06l-.4-.32,8.5-10.68Z"/><path class="cls-1" d="M77,153.47a3.06,3.06,0,0,0,.1.51l-.51.09-32.06,6.07-.5.09a4.37,4.37,0,0,0-.09-.5l.5-.09,32.06-6.07Z"/><path class="cls-1" d="M100.08,120.79l-.26.45-16.38,28-.26.44a3.83,3.83,0,0,0-.44-.25L83,149l16.38-28,.25-.44A4,4,0,0,0,100.08,120.79Z"/><path class="cls-1" d="M136.68,106.27a2.25,2.25,0,0,0,.08.24l-31,9.78c0-.08,0-.16-.07-.24l-.09-.24L136.61,106A2.33,2.33,0,0,0,136.68,106.27Z"/><path class="cls-1" d="M155.64,73.18l-13,27.95-.21.46-.47-.22.22-.46L155.18,73Z"/><path class="cls-1" d="M38.75,156.44a4.49,4.49,0,0,0-2.93,5.63,4.37,4.37,0,0,0,1.29,2,4,4,0,0,0,.4.32,4.48,4.48,0,0,0,7-4.24,4,4,0,0,0-.09-.5c0-.09-.05-.18-.07-.27A4.5,4.5,0,0,0,38.75,156.44ZM44,160.23A4,4,0,0,1,37.83,164a3.12,3.12,0,0,1-.4-.32,3.87,3.87,0,0,1-1.12-1.75,4,4,0,0,1,7.58-2.39l.06.21A4.37,4.37,0,0,1,44,160.23Z"/><path class="cls-1" d="M83.44,149.25A4.91,4.91,0,0,0,83,149a4.48,4.48,0,0,0-6.49,4.57,4.37,4.37,0,0,0,.09.5c0,.09.05.18.08.27a4.49,4.49,0,0,0,8.56-2.7A4.55,4.55,0,0,0,83.44,149.25Zm-1.29,7.53a4,4,0,0,1-5-2.6l-.06-.2a3.06,3.06,0,0,1-.1-.51,4,4,0,0,1,5.73-4,3.83,3.83,0,0,1,.44.25,4,4,0,0,1-1,7.09Z"/><path class="cls-1" d="M106.05,115.65a4.48,4.48,0,0,0-8.47,2.94,4.45,4.45,0,0,0,1.8,2.39l.44.26a4.48,4.48,0,0,0,6.38-5.1c0-.08,0-.16-.07-.25A2.25,2.25,0,0,0,106.05,115.65Zm-3,5.38a3.9,3.9,0,0,1-3-.24,4,4,0,1,1,5.48-5l.09.24c0,.08,0,.16.07.24A4,4,0,0,1,103.05,121Z"/><path class="cls-1" d="M142.59,101.13a3.88,3.88,0,0,0-.46-.22,4.43,4.43,0,0,0-3-.11,4.48,4.48,0,0,0-3,5.38,2.17,2.17,0,0,0,.07.24c0,.08.05.17.08.24a4.49,4.49,0,1,0,6.32-5.53Zm-.93,7.73a4,4,0,0,1-4.9-2.35,2.25,2.25,0,0,1-.08-.24,2.33,2.33,0,0,1-.07-.25,4,4,0,0,1,5.3-4.65l.47.22a4,4,0,0,1-.72,7.27Z"/><path class="cls-1" d="M180.7,284.19H164.54V108.58H180.7Zm-15.06-1.11h14V109.69h-14Z"/><rect class="cls-1" x="164.11" y="278.96" width="17.03" height="1.4" transform="translate(-110.5 112.77) rotate(-27.8)"/><rect class="cls-1" x="164.11" y="252.13" width="17.03" height="1.4" transform="translate(-97.98 109.67) rotate(-27.8)"/><rect class="cls-1" x="164.11" y="225.29" width="17.03" height="1.4" transform="translate(-85.47 106.57) rotate(-27.8)"/><rect class="cls-1" x="164.11" y="198.45" width="17.03" height="1.4" transform="translate(-72.98 103.56) rotate(-27.82)"/><rect class="cls-1" x="164.11" y="171.62" width="17.03" height="1.4" transform="translate(-60.46 100.46) rotate(-27.82)"/><rect class="cls-1" x="164.11" y="144.78" width="17.03" height="1.4" transform="translate(-47.93 97.32) rotate(-27.81)"/><rect class="cls-1" x="164.11" y="117.94" width="17.03" height="1.4" transform="translate(-35.41 94.22) rotate(-27.81)"/><path class="cls-1" d="M249.57,284.19H233.41V108.58h16.16Zm-15.06-1.11h14V109.69h-14Z"/><rect class="cls-1" x="232.98" y="278.96" width="17.03" height="1.4" transform="translate(-102.56 144.9) rotate(-27.8)"/><rect class="cls-1" x="232.98" y="252.13" width="17.03" height="1.4" transform="translate(-90.04 141.81) rotate(-27.8)"/><rect class="cls-1" x="232.98" y="225.29" width="17.03" height="1.4" transform="translate(-77.53 138.71) rotate(-27.8)"/><rect class="cls-1" x="232.98" y="198.45" width="17.03" height="1.4" transform="translate(-65.03 135.71) rotate(-27.82)"/><rect class="cls-1" x="232.98" y="171.62" width="17.03" height="1.4" transform="translate(-52.51 132.61) rotate(-27.82)"/><rect class="cls-1" x="232.98" y="144.78" width="17.03" height="1.4" transform="translate(-39.98 129.46) rotate(-27.81)"/><rect class="cls-1" x="232.98" y="117.94" width="17.03" height="1.4" transform="translate(-27.46 126.36) rotate(-27.81)"/><polygon class="cls-4" points="19.73 197.69 4.85 190.88 9.72 190.16 19.73 197.69"/><polygon class="cls-5" points="19.73 197.69 14.78 191 11.1 191.2 19.73 197.69"/><polygon class="cls-6" points="8.27 192.45 8.13 194.27 19.73 197.69 8.27 192.45"/><polygon class="cls-3" points="265.46 199.78 287.18 199.78 287.18 215.52 287.18 218.83 283.86 215.52 265.46 215.52 265.46 199.78"/><rect class="cls-7" x="183.96" y="44.59" width="46.19" height="167.6"/><rect class="cls-8" x="124.71" y="143.55" width="34.49" height="141.26"/><rect class="cls-9" x="76.41" y="177" width="34.49" height="107.81"/><path class="cls-9" d="M105.35,278.63h-35V170.35h35Zm-34.49-.47h34V170.82h-34Z"/><rect class="cls-10" x="28.12" y="209.79" width="34.49" height="75.02"/><path class="cls-10" d="M56.32,279.89h-35v-75.5h35Zm-34.49-.48h34V204.87h-34Z"/><polygon class="cls-11" points="96.95 321.98 96.42 321.96 99.06 255.7 53.41 255.7 50.77 321.98 50.24 321.96 52.91 255.17 99.61 255.17 96.95 321.98"/><polygon class="cls-11" points="101.22 321.98 98.58 255.7 52.93 255.7 55.57 321.96 55.05 321.98 52.38 255.17 99.09 255.17 101.75 321.96 101.22 321.98"/><polygon class="cls-11" points="55.31 300.42 101.48 300.42 98.83 233.89 52.66 233.89 55.31 300.42"/><polygon class="cls-12" points="95.38 300.42 49.2 300.42 51.85 233.89 98.03 233.89 95.38 300.42"/><path class="cls-3" d="M71.57,244.2a7.48,7.48,0,1,0-14.09,5,3.66,3.66,0,0,0,.18.46,7.48,7.48,0,0,0,13.91-5.5ZM66.41,252a5.59,5.59,0,0,1-6.16-1.65,5.52,5.52,0,0,1-.87-1.39c-.05-.12-.1-.23-.14-.35a5.62,5.62,0,0,1,5.11-7.5A5.61,5.61,0,0,1,66.41,252Z"/><path class="cls-3" d="M207.05,0C186.73,20.33,184,44.59,184,44.59h46.19S227.38,20.33,207.05,0Z"/><path class="cls-3" d="M86.81,240.61c-.3-.36-.62-.71-.94-1-.33.33-.65.68-1,1l-.36-.31c.36-.43.75-.84,1.14-1.23l.17-.17.16.17a16.6,16.6,0,0,1,1.14,1.23Z"/><path class="cls-3" d="M80.05,290h-.47v-3.17h.47Zm0-6.34h-.47v-3.18h.47Zm0-6.35h-.47v-3.17h.47Zm0-6.34h-.47v-3.18h.47Zm0-6.35h-.47v-3.17h.47Zm0-6.35h-.47v-3.17h.47Zm0-6.34h-.47v-1h0a13.28,13.28,0,0,1,.45-2.19l.46.13a15.75,15.75,0,0,0-.46,2.08Zm1.53-6-.43-.19a22.54,22.54,0,0,1,1.51-2.83l.4.25A22.93,22.93,0,0,0,81.58,245.9Z"/><polygon class="cls-3" points="81.48 295.05 79.58 295.05 79.58 293.15 80.05 293.15 80.05 294.57 81.48 294.57 81.48 295.05"/><rect class="cls-3" x="84.4" y="294.57" width="2.93" height="0.47"/><polygon class="cls-3" points="92.15 295.05 90.26 295.05 90.26 294.57 91.68 294.57 91.68 293.15 92.15 293.15 92.15 295.05"/><path class="cls-3" d="M92.15,290h-.47v-3.12h.47Zm0-6.24h-.47v-3.12h.47Zm0-6.25h-.47v-3.12h.47Zm0-6.24h-.47v-3.12h.47Zm0-6.24h-.47v-3.12h.47Zm0-6.24h-.47v-3.13h.47Z"/><path class="cls-3" d="M92.15,252.57h-.47v-1.64a13,13,0,0,0-.32-1.58l.46-.12a12,12,0,0,1,.33,1.66v1.68Z"/><path class="cls-3" d="M90.29,246.22a22.12,22.12,0,0,0-1.53-2.94l.41-.25a21.8,21.8,0,0,1,1.55,3Z"/><path class="cls-13" d="M235.59,263.87a18.89,18.89,0,0,0-5.45.8A15.59,15.59,0,0,0,201,266.54a11.45,11.45,0,0,0-4-.73A10.62,10.62,0,0,0,186,276.16h64.88C250.92,269.37,244.06,263.87,235.59,263.87Z"/><path class="cls-14" d="M184.76,55.23a12,12,0,0,0-3.87.63,10.73,10.73,0,0,0-20.71,1.48,7.2,7.2,0,0,0-2.86-.58,7.94,7.94,0,0,0-7.72,8.14h46C195.64,59.56,190.77,55.23,184.76,55.23Z"/><path class="cls-14" d="M233.24,43.65a7.61,7.61,0,0,0-2.41.39,6.69,6.69,0,0,0-12.91.92,4.6,4.6,0,0,0-1.78-.36,5,5,0,0,0-4.82,5.08H240C240,46.35,237,43.65,233.24,43.65Z"/><path class="cls-15" d="M257.64,80.2a11.9,11.9,0,0,0-4,.7c-1.66-4.73-5.77-8.07-10.58-8.07-5.35,0-9.84,4.13-11,9.7a7.32,7.32,0,0,0-3-.64c-4.45,0-8.06,4-8.06,9H269C269,85,263.91,80.2,257.64,80.2Z"/><rect class="cls-3" x="70.35" y="259.44" width="4.4" height="35.78"/><rect class="cls-3" x="64.2" y="267.91" width="4.4" height="27.31"/><rect class="cls-3" x="58.04" y="276.22" width="4.4" height="19"/><polygon class="cls-16" points="53.16 238.96 63.45 244.61 73.78 228.35 61.28 224.01 53.16 238.96"/><polygon class="cls-12" points="53.81 238.47 63.43 243.76 73.09 228.55 61.41 224.49 53.81 238.47"/><path class="cls-17" d="M50.28,235.62s1.79-.85,2.58-1.3,2.81-1.06,3-1.21,6-.5,6.35-.81.7.72-.81,1-3.62,1.14-3.73,1.73,1.55.73,1.72,1.21,0,.38-.29.49-2-.87-2.75-.59-1.94-.11-2.53.1l-3.44,1.16Z"/><path class="cls-18" d="M53.52,236.89l.92-.34s-1.15-2.7-1.65-2.64-1.31.27-1.31.27Z"/><path class="cls-19" d="M53.73,237.36c-.12-.09-2-3.63-2-3.63l-3.94.54L50,238.45Z"/><path class="cls-17" d="M64,242.57s1.5-1.35,2.23-1.92,2.09-2.23,2.29-2.33,2.82-5.45,3.24-5.66-.4-.94-1.3.35-2.48,3-3.09,2.85-.08-1.75-.47-2.1-.38-.1-.57.08,0,2.21-.52,2.82-.65,1.87-1.07,2.35-2.44,2.79-2.44,2.79Z"/><path class="cls-20" d="M31.54,315s-.32,2.26-.36,2.6-3.62-.2-3.62-.2l-.29-2.69S31.1,314.63,31.54,315Z"/><path class="cls-16" d="M31.21,317.26a9.61,9.61,0,0,0,2.24,2c1.09.59,2.82.83,3.47,1.44.46.45,1.7,2.35-2.86,2.31s-6.75.27-7.24-.46.71-5.4.71-5.4A9.56,9.56,0,0,0,31.21,317.26Z"/><path class="cls-20" d="M57.19,315s-.32,2.26-.36,2.6-3.62-.2-3.62-.2l-.29-2.69S56.75,314.63,57.19,315Z"/><path class="cls-16" d="M56.87,317.26a9.47,9.47,0,0,0,2.23,2c1.09.59,5.13,1.08,5.78,1.69.47.45,1.25,2.23-5.16,2.06-4.56-.11-6.76.27-7.25-.46s.71-5.4.71-5.4A8.65,8.65,0,0,0,56.87,317.26Z"/><path class="cls-16" d="M34.51,256.9s-3.37,5.35-3.12,10.18-1.22,10.1-1.72,15.15c-.56,5.63-2.87,18.95-3,22s.35,12.62.35,12.62l4.62.1s3.88-23.28,4.88-25.66,6-19.31,6.15-21.21S34.51,256.9,34.51,256.9Z"/><path class="cls-16" d="M52.21,257.63s2.54,13.24,2.87,16.2.56,14.3.73,16.15,1.11,24.18,2,26.93h-5.9S47.39,300.67,47.39,293s-3.5-16.7-5.76-21.77S34.2,266,32.81,256.63C32.81,256.63,50.34,254.65,52.21,257.63Z"/><path class="cls-17" d="M40.12,212s4.52-1.68,6.6,1.75,1.88,10.32-.4,11.17-5.69.4-6.86-1.75a17.29,17.29,0,0,1-2.16-7.34A4.51,4.51,0,0,1,40.12,212Z"/><path class="cls-17" d="M45.83,225a3.81,3.81,0,0,0,.13,1.82c.31.6-5.85.62-5.85.62a40.44,40.44,0,0,0-1.45-6C37.71,218.69,45.83,225,45.83,225Z"/><path class="cls-21" d="M38.66,221.45s.42.7,2.16.43,3.85-2.58,4.58-2.83.73-.68.73-.68l.45.66.77.05s-.7-2.07.36-2.91-1.1-6.68-6.67-4.74c0,0-4.27,1.18-4.12,3.61S37.7,220.24,38.66,221.45Z"/><path class="cls-22" d="M46.32,226.79s0-1.15-.54-1.26-5.74-.61-6.38-.36v1.34S40.63,227.27,46.32,226.79Z"/><path class="cls-17" d="M46,217.48c-.1-.4-1.13-1.57-1.53-.32s.6,2.92,1.16,2.78S46.26,218.52,46,217.48Z"/><path class="cls-23" d="M67,240.35h0S67.07,240.36,67,240.35Z"/><path class="cls-23" d="M30.71,269.64A48.24,48.24,0,0,0,38.2,271c4.72.52,16.52-.19,16.6-.74s-2.54-20.78-2.39-21.82.23-4.75.23-4.75A25.77,25.77,0,0,0,55,251.09c.45.82,2,3.38,2.7,2.8,3.53-2.82,9-13.45,9.35-13.54-.29-.13-2.59-1.19-2.92-1.3s-2.83,2.61-4.37,4.28l-1.18,1.29c-.45-1-2.07-7.33-2.58-9.52-1.14-4.93-1-5.14-1-5.14-3.46-1-8.7-3.17-8.7-3.17l-6.92-.28A67.35,67.35,0,0,0,30.55,229c-.24.1-.24,5.66-.89,7.12l2.08,4.37s1.19,8.67,1.44,12.52C33.3,254.82,30.71,269.64,30.71,269.64Z"/><path class="cls-23" d="M29.38,243.37a2.68,2.68,0,0,0,1.53,1.29,2,2,0,0,0,1.11.12l.27-.05h0l4.74-.88s1-11.94-6.48-14.8C30.35,229.1,27.72,238,29.38,243.37Z"/><path class="cls-24" d="M30.91,244.66h0a2,2,0,0,0,1.11.12l.27-.05h0l-.47-6.1Z"/><path class="cls-24" d="M58.56,244.62l.58,2.45a19.35,19.35,0,0,0,.6-3.74Z"/><path class="cls-21" d="M38.83,212.38s-5.68.57-.1,9.2Z"/><polygon class="cls-16" points="69.02 227.48 69.62 226.44 64.89 224.81 64.28 225.84 69.02 227.48"/><path class="cls-3" d="M218.22,80.05a11.17,11.17,0,1,1-11.17-11.17A11.17,11.17,0,0,1,218.22,80.05Z"/><circle class="cls-3" cx="207.05" cy="113.58" r="11.17"/><path class="cls-13" d="M215.38,113.58a8.33,8.33,0,1,1-8.33-8.32A8.33,8.33,0,0,1,215.38,113.58Z"/><path class="cls-13" d="M215.38,80.05a8.33,8.33,0,1,1-8.33-8.32A8.32,8.32,0,0,1,215.38,80.05Z"/><path class="cls-17" d="M94,108.39s.78-1.37-.47-5.07a3.72,3.72,0,0,0-6.71-1c-1.33,2.29-.88,3.71,1.07,6.3S93.2,109.57,94,108.39Z"/><path class="cls-17" d="M84.31,171.92s-.21,1.51-.24,1.74-2.3-.13-2.3-.13l-.18-1.81A12.46,12.46,0,0,1,84.31,171.92Z"/><path class="cls-25" d="M84.1,173.47a6.29,6.29,0,0,0,1.42,1.31c.69.4,1.79.55,2.2,1s1.09,1.58-1.81,1.55-4.29.18-4.6-.31.45-3.62.45-3.62A8.41,8.41,0,0,0,84.1,173.47Z"/><path class="cls-17" d="M100.06,171.92s-.21,1.51-.23,1.74-2.3-.13-2.3-.13l-.19-1.81A12.46,12.46,0,0,1,100.06,171.92Z"/><path class="cls-26" d="M99.85,173.47a6.29,6.29,0,0,0,1.42,1.31c.7.4,3.26.72,3.67,1.14s.8,1.49-3.28,1.38c-2.89-.08-4.29.18-4.6-.31s.45-3.62.45-3.62A11.91,11.91,0,0,0,99.85,173.47Z"/><path class="cls-27" d="M85.07,134.16a22.71,22.71,0,0,0-1,6.75c.15,3.12-.6,6.54-.91,9.8-.35,3.64-1.76,12.25-1.81,14.2s.22,8.16.22,8.16l2.82.07s2.38-15.06,3-16.6,3.66-12.48,3.77-13.71S85.07,134.16,85.07,134.16Z"/><path class="cls-28" d="M96.79,133.78s1.71,9.59,1.92,11.5.34,9.25.44,10.45.68,15.63,1.23,17.41H97.23S94,162.64,94,157.67s-2.15-10.8-3.53-14.07-4.55-3.36-5.4-9.44C85.07,134.16,95.64,131.85,96.79,133.78Z"/><path class="cls-17" d="M92.87,109.37a2.77,2.77,0,0,0,0,1.77c.36.74-4.54.3-4.54.3a5.27,5.27,0,0,0-.42-2.78C87.28,107.4,92.87,109.37,92.87,109.37Z"/><path class="cls-29" d="M84.85,135s1.76,1.81,12.09-.28l-.15-.89L85,134.23Z"/><path class="cls-17" d="M93.61,111.38s1.81.18,2.33.28,4-.62,4.71-.69a14.72,14.72,0,0,0,3.85-2.41,50.13,50.13,0,0,0,2-5.64c.1-1,1.71-.46,1.57.2-.26,1.23-.59,4.24-.77,5.11a14.13,14.13,0,0,1-1,3.33,21.38,21.38,0,0,1-5.72,3.23,22.5,22.5,0,0,0-4.7,2.19H82.6s-5.14-7.35-5.25-8.46,3.59-8.46,4.33-9.38,1.8.3,1.8.3-2.21,6.48-2.5,7.41,2.57,5,3.36,5,2.8-.24,3.7-.28a6.09,6.09,0,0,0,1.85-.43Z"/><path class="cls-30" d="M99.31,116.29a4.26,4.26,0,0,0-1.77,2.92,36.67,36.67,0,0,1-1,5.75c-.29,1,.26,8.23.33,8.75s-10.22,1.74-11.8.52c0,0-.45-6.76-.63-8.68A50.61,50.61,0,0,0,83,118.36c-.29-.63-3.87-5.65-4-6.31,0,0,1.85-3,3.18-3,0,0,2.11,2.47,2.8,2.58a40.14,40.14,0,0,0,4.9-.66s.46.62,2.91-.12l3.39.39c.57.08,4.56-.5,4.56-.5s1.6,2.71,1.32,4.07Z"/><path class="cls-17" d="M106.36,103.5s.36-1.71-.08-2.2a13.05,13.05,0,0,1-.89-1.13c-.06-.11-.7-.48-.7-.65s.63-.4,1.17.1.88.62,1.1.56a6.73,6.73,0,0,0,.56-2.31c0-.45.2-1.63.48-1.55s.27.6.27.6.32-.9.54-.72.19.61.19.61.41-.5.52-.13a1.25,1.25,0,0,1,0,.69s.42-.23.45.34a8.87,8.87,0,0,1-.43,2.84,24.75,24.75,0,0,0-1.55,2.77C107.86,103.93,106.36,103.5,106.36,103.5Z"/><path class="cls-17" d="M83.12,100.49a11.38,11.38,0,0,1,1.65-2.25,6.85,6.85,0,0,0,1.53-.66c.51-.36,1.19-.67,1.16-.79s-.65-.08-1.3.2-.94.15-1,0a3.79,3.79,0,0,1,.55-1.43c.19-.25,1.59-1.66,1.36-1.87s-1.14.57-1.29.73c0,0,.72-1.53.44-1.6s-.81.47-.81.47.06-1.31-1.34.81c0,0,.29-.7-.14-.47s-.84,1.55-1,2.21a10.28,10.28,0,0,1-1.27,3.3C81.15,99.65,83.12,100.49,83.12,100.49Z"/><path class="cls-31" d="M87.91,108.66a5.82,5.82,0,0,0,2-.42c1.38-.48,1.48-2.89,1.78-2.6a.87.87,0,0,0,1.41-.17s-.67-.88-.36-1.31a3.46,3.46,0,0,1,.82-.74s-1-4.67-5.38-2.54C83,103.37,87.91,108.66,87.91,108.66Z"/><path class="cls-32" d="M92.87,111.14l-.15-.67a35.93,35.93,0,0,0-4.35.16l-.16.81A6,6,0,0,0,92.87,111.14Z"/><path class="cls-17" d="M92.18,105.05c-.26-.43-1.2-.71-1.31.49-.09.93,1.69,1.95,1.7,1.08A2.58,2.58,0,0,0,92.18,105.05Z"/><path class="cls-33" d="M106.42,103.11a2.76,2.76,0,0,1,1.51.47,1,1,0,0,1-.08.5,6.07,6.07,0,0,0-1.56-.48S106.3,103.23,106.42,103.11Z"/><path class="cls-31" d="M107.62,103.36a.44.44,0,0,1-.23.57.43.43,0,0,1-.34-.8A.44.44,0,0,1,107.62,103.36Z"/><rect class="cls-30" x="178.93" y="212.7" width="10.06" height="42.71"/><rect class="cls-30" x="202.02" y="212.7" width="10.06" height="42.71"/><rect class="cls-30" x="225.12" y="212.7" width="10.06" height="42.71"/><path class="cls-7" d="M215.38,217.13H198.73a8.33,8.33,0,1,1,16.65,0Z"/><path class="cls-7" d="M238.47,217.13H221.83a8.32,8.32,0,1,1,16.64,0Z"/><path class="cls-14" d="M246,241.13a25,25,0,0,0-8,1.3,22.54,22.54,0,0,0-20.93-15.06c-10.58,0-19.45,7.72-21.83,18.11a15.18,15.18,0,0,0-5.91-1.19c-8.81,0-16,7.53-16,16.82h95.09C268.48,250.07,258.42,241.13,246,241.13Z"/><path class="cls-13" d="M229.26,256.34a23.71,23.71,0,0,0-8,1.38c-3.27-9.35-11.4-16-20.93-16-10.58,0-19.45,8.18-21.83,19.2a14.54,14.54,0,0,0-5.91-1.26c-8.81,0-16,8-16,17.84h95.09C251.73,265.83,241.67,256.34,229.26,256.34Z"/><path class="cls-15" d="M284.44,267.32a30.85,30.85,0,0,0-9,1.32,25.29,25.29,0,0,0-23.53-15.25c-11.89,0-21.86,7.82-24.54,18.34a18.72,18.72,0,0,0-6.64-1.21c-9.9,0-17.93,7.63-17.93,17H309.7C309.7,276.39,298.39,267.32,284.44,267.32Z"/><path class="cls-14" d="M203.33,271.89a23.85,23.85,0,0,0-7,1,19.55,19.55,0,0,0-18.21-11.81c-9.2,0-16.92,6.05-19,14.19a14.52,14.52,0,0,0-5.14-.93c-7.66,0-13.88,5.91-13.88,13.19h82.74C222.88,278.91,214.13,271.89,203.33,271.89Z"/><path class="cls-17" d="M288.52,234.4l-.58-1.43a3.15,3.15,0,0,0-1.16-.8,3.89,3.89,0,0,0-1.61-.4.62.62,0,0,0-.36.33,1.23,1.23,0,0,0-.09.56.67.67,0,0,0-.24.6.6.6,0,0,0-.13.65s-.27.25-.14.52a4,4,0,0,1,.63.48,10,10,0,0,0,2.3,1.13S288.3,236.06,288.52,234.4Z"/><path class="cls-34" d="M286.74,233.72a3.44,3.44,0,0,0,.08.87c.09.19-1.37.62-1.37.62S285.92,233.73,286.74,233.72Z"/><polygon class="cls-35" points="314.01 299.73 313.37 297.74 310.67 298.18 311.08 299.97 314.01 299.73"/><polygon class="cls-36" points="291.88 299.49 291.73 300.58 288.77 300.09 288.93 298.46 291.88 299.49"/><path class="cls-30" d="M298.28,268.87s.43,2.38.94,5l.27,1.39c.49,2.53,1,5,1.18,5.48.41,1.15,9.47,17.74,9.47,17.74s3.7-.29,3.84-.76c0,0-7.59-18-7.55-18.67s-.93-19.12-.93-19.12S298.48,267.81,298.28,268.87Z"/><path class="cls-30" d="M294.14,258.89S290.6,277,290.3,278.41s-1.64,20-1.64,20,.79,1.64,3.73,1c0,0,4-20,4.35-20.63,1.31-2.59,7.74-15.17,8.37-17a10.88,10.88,0,0,0,.44-3.89S300.77,255.23,294.14,258.89Z"/><path class="cls-16" d="M295.63,235.4s-1.55,3.87-1.94,3.75-4.86-5.35-4.86-5.35-2,2.55-1.77,2.84,5.66,9.17,6.38,9,4-5.51,4-5.51S297.59,236.1,295.63,235.4Z"/><path class="cls-23" d="M302.28,228a64.78,64.78,0,0,0-5.14,4.3c-1.12,1.22-4.18,6.29-4,7.81a109.2,109.2,0,0,1,1.27,14.8c0,3.48-1.08,4.36-.39,4.41s10.93,3.74,12.43,4.18c0,0-1-12.22-1.48-13.63S306.6,233.68,302.28,228Z"/><path class="cls-37" d="M276.33,222.16l-.9,4.55-.91,4.56a24.81,24.81,0,0,1,11.05-.45l.39-2,.41-2A25,25,0,0,1,276.33,222.16Z"/><path class="cls-7" d="M291.73,300.58s-2.23-.43-2.31-.5-.56-.95-.91-.79-.34,1.22-.68,1.41-3,2-3.33,2.3-2.34.14-2.58.71-.25,1.91,2.76,1.6,6.45.17,7.1-.19S291.93,301.45,291.73,300.58Z"/><path class="cls-7" d="M314.05,299.68s-2.27-.07-2.36-.13-.7-.84-1-.64-.15,1.27-.45,1.5-2.65,2.44-2.92,2.81-2.29.51-2.43,1.11.06,1.93,3,1.14,6.39-.86,7-1.32S314.39,300.5,314.05,299.68Z"/><path class="cls-38" d="M296.41,259.73s-.28,1.1-.71,1.34,2,2.6,2,2.6a20.41,20.41,0,0,0,1-2.41A14.73,14.73,0,0,0,296.41,259.73Z"/><path class="cls-39" d="M304.07,232.78s2.89,13.75,3.12,15.16S298.72,262,298.72,262l-2.9-1.71s7-12.77,7-13.35-3.37-11.67-3.37-11.67a2.62,2.62,0,1,1,4.61-2.48Z"/><path class="cls-40" d="M294.71,260.68a46.62,46.62,0,0,0-.88,6.11c.05,1.43,5.39-2.26,5.12-3.68Z"/><path class="cls-17" d="M302.28,228s-7.34,8-6.89,7.13c1.61-3.17,2.74-3.71,2.71-4.3s-.19-1.77-.22-2.21c-.06-.84-.12-1.52-.12-1.52s3.64-5.12,3.48-3.37A10.57,10.57,0,0,0,302.28,228Z"/><path class="cls-17" d="M295.29,218.57a17.93,17.93,0,0,0-1,2.92,14.06,14.06,0,0,1,0,1.62,22.78,22.78,0,0,0-.58,2.43c.08.46,1.06.22,1.19,1s.85,2.2,1.2,2.22c.91.08,4.39-1.34,4.61-2.07s1.48-4.78,1.87-5.55-6.12-5-6.72-3.78Z"/><path class="cls-41" d="M304.16,220.32c.46-2-1.85-2.25-1.85-2.25s-1.51-1.75-5.11-1.55-3.05,4.91-3.05,4.91a13.57,13.57,0,0,1,3.58-.1,16.74,16.74,0,0,1,0,2.5l1.36-.12s-.15-1.78.5-1.86.87,3.77,2.08,4.61a1.21,1.21,0,0,1,.17-.53h0a17.13,17.13,0,0,0,.94-2A22.35,22.35,0,0,0,304.16,220.32Z"/><path class="cls-17" d="M298.69,222.28a1,1,0,0,1,1.7-.48c.87.64,0,2.94-.87,2.92S298.33,223.46,298.69,222.28Z"/><path class="cls-42" d="M300.93,226.05a2.6,2.6,0,0,1-.38.89,7.66,7.66,0,0,1-2.69,1.41l.14,1.42S301.08,228.58,300.93,226.05Z"/><path class="cls-43" d="M284.75,235.8l-.52-.25,2.35-5,1.31.62-2,4.22A.81.81,0,0,1,284.75,235.8Z"/><path class="cls-44" d="M285.33,231.85s1.46.8,1.36,1.06a.42.42,0,0,1-.29.28l.46.61s.07.57-.57.48c0,0,.12.53-.49.37,0,0-.07.38-.37.36a5.61,5.61,0,0,1-1.22-.58s-.14-.2.14-.52a.6.6,0,0,1,.13-.65.64.64,0,0,1,.24-.6s-.13-.72.45-.89Z"/><polygon class="cls-40" points="289.62 231.65 284.45 230.69 285.29 226.44 290.43 227.61 289.62 231.65"/><path class="cls-17" d="M287.89,232.94a5.87,5.87,0,0,0-1.78.22c-.14.06-.27.14-.27.3s.22.35.72.39a4.14,4.14,0,0,1,1.12.32S288.21,234.06,287.89,232.94Z"/><path class="cls-45" d="M299.22,273.88l.27,1.39,2.94-7.78Z"/><path class="cls-7" d="M192.28,217.13H175.64a8.32,8.32,0,1,1,16.64,0Z"/></svg>