<svg xmlns="http://www.w3.org/2000/svg" xmlns:xlink="http://www.w3.org/1999/xlink" viewBox="0 0 403.11 494.07"><defs><style>.cls-1{isolation:isolate;}.cls-2{fill:url(#Degradado_sin_nombre_11);}.cls-3{fill:url(#Degradado_sin_nombre_8);}.cls-4{opacity:0.15;}.cls-5{fill:#bdcefa;}.cls-6{fill:url(#Degradado_sin_nombre_4);}.cls-7{fill:url(#Degradado_sin_nombre_4-2);}.cls-8{fill:url(#Degradado_sin_nombre_4-3);}.cls-9{fill:url(#Degradado_sin_nombre_4-4);}.cls-10{fill:#e8f2fe;}.cls-11{fill:url(#Degradado_sin_nombre_3);}.cls-12{fill:#ddd;}.cls-12,.cls-22{mix-blend-mode:color-dodge;}.cls-13{fill:url(#Degradado_sin_nombre_3-2);}.cls-14{fill:#0084e9;}.cls-15{fill:#52a3f6;}.cls-16,.cls-49{fill:#fff;}.cls-17{fill:url(#Degradado_sin_nombre_3-3);}.cls-18{fill:url(#Degradado_sin_nombre_3-4);}.cls-19{fill:url(#Degradado_sin_nombre_3-5);}.cls-20{fill:url(#Degradado_sin_nombre_3-6);}.cls-21{fill:url(#Degradado_sin_nombre_3-7);}.cls-22{fill:#c9c9c9;}.cls-23{fill:url(#Degradado_sin_nombre_3-8);}.cls-24{fill:url(#Degradado_sin_nombre_3-9);}.cls-25{fill:url(#Degradado_sin_nombre_3-10);}.cls-26{fill:#9ce3f0;}.cls-27{fill:#39c2d1;}.cls-28{fill:#20a8af;}.cls-29{fill:#e25d73;}.cls-30{fill:#2c30d1;}.cls-31{fill:url(#Degradado_sin_nombre_3-11);}.cls-32{fill:#76b5ce;}.cls-33{fill:url(#Degradado_sin_nombre_3-12);}.cls-34{fill:#f9ab83;}.cls-35{fill:#010400;}.cls-36{fill:#484968;}.cls-37{fill:#f1ac85;}.cls-38{fill:#e28c66;}.cls-39{fill:#54a5f8;}.cls-40{fill:#dd936f;}.cls-41{fill:#3f4893;}.cls-42{fill:url(#Degradado_sin_nombre_188);}.cls-43{fill:url(#Degradado_sin_nombre_3-13);}.cls-44{fill:url(#Degradado_sin_nombre_3-14);}.cls-45{fill:url(#Degradado_sin_nombre_3-15);}.cls-46{fill:#b8d0f6;}.cls-47{fill:#99b6e0;}.cls-48{fill:#e4f2ff;}.cls-49,.cls-50{mix-blend-mode:overlay;}.cls-51{fill:#ffec00;}.cls-52{fill:url(#Degradado_sin_nombre_7);}.cls-53{fill:url(#Degradado_sin_nombre_7-2);}.cls-54{fill:url(#Degradado_sin_nombre_7-3);}.cls-55{fill:url(#Degradado_sin_nombre_6);}.cls-56{fill:url(#Degradado_sin_nombre_6-2);}.cls-57{fill:url(#Degradado_sin_nombre_6-3);}.cls-58{fill:url(#Degradado_sin_nombre_6-4);}.cls-59{fill:url(#Degradado_sin_nombre_6-5);}.cls-60{fill:url(#Degradado_sin_nombre_6-6);}.cls-61{fill:url(#Degradado_sin_nombre_5);}.cls-62{fill:url(#Degradado_sin_nombre_5-2);}.cls-63{fill:url(#Degradado_sin_nombre_5-3);}.cls-64{fill:url(#Degradado_sin_nombre_5-4);}.cls-65{fill:url(#Degradado_sin_nombre_5-5);}.cls-66{fill:url(#Degradado_sin_nombre_5-6);}.cls-67{fill:url(#Degradado_sin_nombre_4-5);}.cls-68{fill:url(#Degradado_sin_nombre_3-16);}.cls-69{fill:url(#Degradado_sin_nombre_3-17);}.cls-70{fill:url(#Degradado_sin_nombre_4-6);}.cls-71{fill:url(#Degradado_sin_nombre_3-18);}.cls-72{fill:url(#Degradado_sin_nombre_3-19);}.cls-73{fill:url(#Degradado_sin_nombre_3-20);}.cls-74{fill:url(#Degradado_sin_nombre_3-21);}.cls-75{fill:url(#Degradado_sin_nombre_3-22);}.cls-76{fill:url(#Degradado_sin_nombre_3-23);}.cls-77{fill:url(#Degradado_sin_nombre_3-24);}.cls-78{fill:#007dc9;}.cls-79{fill:#2d0d60;}.cls-80{fill:url(#Degradado_sin_nombre_2);}.cls-81{fill:#a29afb;}.cls-82{fill:#ffffeb;}.cls-83{fill:#5258a6;}.cls-84{fill:#fcc4b7;}.cls-85{fill:#293677;}.cls-86{fill:#55d1ff;}.cls-87{fill:#e58800;fill-rule:evenodd;}.cls-88{fill:#1c1c38;}.cls-89{fill:#fcfdff;}.cls-90{fill:#0382ff;}.cls-91{fill:#bbbeb5;}.cls-92{fill:#eaeef1;}</style><linearGradient id="Degradado_sin_nombre_11" x1="253.18" y1="549.03" x2="253.18" y2="378.94" gradientUnits="userSpaceOnUse"><stop offset="0" stop-color="#deebfe"/><stop offset="0.6" stop-color="#c7d7fb"/><stop offset="1" stop-color="#bdcefa"/></linearGradient><linearGradient id="Degradado_sin_nombre_8" x1="81.58" y1="493.87" x2="82" y2="494.27" gradientUnits="userSpaceOnUse"><stop offset="0" stop-color="#fcfdff"/><stop offset="0.29" stop-color="#e7f2ff"/><stop offset="0.74" stop-color="#cde5fe"/><stop offset="1" stop-color="#c3e0fe"/></linearGradient><linearGradient id="Degradado_sin_nombre_4" x1="59.97" y1="46.49" x2="13.04" y2="146.73" gradientUnits="userSpaceOnUse"><stop offset="0" stop-color="#e4f2ff"/><stop offset="0.2" stop-color="#dceafe" stop-opacity="0.78"/><stop offset="0.6" stop-color="#cbdbfc" stop-opacity="0.37"/><stop offset="0.87" stop-color="#c1d2fb" stop-opacity="0.1"/><stop offset="1" stop-color="#bdcefa" stop-opacity="0"/></linearGradient><linearGradient id="Degradado_sin_nombre_4-2" x1="91.87" y1="45.7" x2="127.53" y2="190.5" xlink:href="#Degradado_sin_nombre_4"/><linearGradient id="Degradado_sin_nombre_4-3" x1="176.92" y1="-25.14" x2="175.33" y2="56.8" xlink:href="#Degradado_sin_nombre_4"/><linearGradient id="Degradado_sin_nombre_4-4" x1="61.01" y1="142.9" x2="46.69" y2="248.71" xlink:href="#Degradado_sin_nombre_4"/><linearGradient id="Degradado_sin_nombre_3" x1="386.23" y1="102.54" x2="315.23" y2="243.54" gradientUnits="userSpaceOnUse"><stop offset="0" stop-color="#e4f2ff"/><stop offset="0.06" stop-color="#e1efff"/><stop offset="0.65" stop-color="#c7d7fb"/><stop offset="1" stop-color="#bdcefa"/></linearGradient><linearGradient id="Degradado_sin_nombre_3-2" x1="401.2" y1="32.57" x2="286.53" y2="203.24" xlink:href="#Degradado_sin_nombre_3"/><linearGradient id="Degradado_sin_nombre_3-3" x1="375.33" y1="311.82" x2="223.94" y2="428.58" xlink:href="#Degradado_sin_nombre_3"/><linearGradient id="Degradado_sin_nombre_3-4" x1="330.5" y1="310.85" x2="276.87" y2="359.45" xlink:href="#Degradado_sin_nombre_3"/><linearGradient id="Degradado_sin_nombre_3-5" x1="399.35" y1="357.81" x2="257.33" y2="458.06" xlink:href="#Degradado_sin_nombre_3"/><linearGradient id="Degradado_sin_nombre_3-6" x1="376.67" y1="352.27" x2="309.84" y2="394.53" xlink:href="#Degradado_sin_nombre_3"/><linearGradient id="Degradado_sin_nombre_3-7" x1="414.15" y1="215.22" x2="160.99" y2="410.14" xlink:href="#Degradado_sin_nombre_3"/><linearGradient id="Degradado_sin_nombre_3-8" x1="268.54" y1="356.53" x2="168.21" y2="342.35" xlink:href="#Degradado_sin_nombre_3"/><linearGradient id="Degradado_sin_nombre_3-9" x1="202.63" y1="317.72" x2="79.13" y2="439.72" xlink:href="#Degradado_sin_nombre_3"/><linearGradient id="Degradado_sin_nombre_3-10" x1="264.89" y1="362.96" x2="78.89" y2="308.96" xlink:href="#Degradado_sin_nombre_3"/><linearGradient id="Degradado_sin_nombre_3-11" x1="402.05" y1="238.65" x2="326.55" y2="241.15" xlink:href="#Degradado_sin_nombre_3"/><linearGradient id="Degradado_sin_nombre_3-12" x1="319.68" y1="205.52" x2="261.18" y2="172.27" xlink:href="#Degradado_sin_nombre_3"/><linearGradient id="Degradado_sin_nombre_188" x1="86.48" y1="316.58" x2="257.33" y2="37.34" gradientUnits="userSpaceOnUse"><stop offset="0" stop-color="#0f123b"/><stop offset="0.07" stop-color="#141754"/><stop offset="0.21" stop-color="#1b1f7a"/><stop offset="0.35" stop-color="#212599"/><stop offset="0.49" stop-color="#262ab2"/><stop offset="0.64" stop-color="#292dc3"/><stop offset="0.81" stop-color="#2b2fce"/><stop offset="1" stop-color="#2c30d1"/></linearGradient><linearGradient id="Degradado_sin_nombre_3-13" x1="221.79" y1="74.79" x2="104.29" y2="214.79" xlink:href="#Degradado_sin_nombre_3"/><linearGradient id="Degradado_sin_nombre_3-14" x1="148.16" y1="217.13" x2="97.51" y2="277.48" xlink:href="#Degradado_sin_nombre_3"/><linearGradient id="Degradado_sin_nombre_3-15" x1="348.32" y1="256.28" x2="167.36" y2="280.02" xlink:href="#Degradado_sin_nombre_3"/><linearGradient id="Degradado_sin_nombre_7" x1="186.85" y1="143.56" x2="219.61" y2="143.56" gradientUnits="userSpaceOnUse"><stop offset="0" stop-color="#fcfdff" stop-opacity="0"/><stop offset="0.12" stop-color="#d5f9ff" stop-opacity="0.16"/><stop offset="0.37" stop-color="#8af2ff" stop-opacity="0.45"/><stop offset="0.59" stop-color="#4fecff" stop-opacity="0.69"/><stop offset="0.77" stop-color="#24e8ff" stop-opacity="0.86"/><stop offset="0.91" stop-color="#0ae6ff" stop-opacity="0.96"/><stop offset="1" stop-color="#00e5ff"/></linearGradient><linearGradient id="Degradado_sin_nombre_7-2" x1="186.85" y1="138.8" x2="219.61" y2="138.8" xlink:href="#Degradado_sin_nombre_7"/><linearGradient id="Degradado_sin_nombre_7-3" x1="186.85" y1="134.04" x2="219.61" y2="134.04" xlink:href="#Degradado_sin_nombre_7"/><linearGradient id="Degradado_sin_nombre_6" x1="197.31" y1="168.81" x2="222.24" y2="153.48" gradientUnits="userSpaceOnUse"><stop offset="0" stop-color="#fcfdff" stop-opacity="0"/><stop offset="0.12" stop-color="#fcdbe7" stop-opacity="0.16"/><stop offset="0.37" stop-color="#fd9cb8" stop-opacity="0.45"/><stop offset="0.59" stop-color="#fe6a94" stop-opacity="0.69"/><stop offset="0.77" stop-color="#ff4679" stop-opacity="0.86"/><stop offset="0.91" stop-color="#ff2f69" stop-opacity="0.96"/><stop offset="1" stop-color="#ff2763"/></linearGradient><linearGradient id="Degradado_sin_nombre_6-2" x1="195.18" y1="165.35" x2="220.12" y2="150.03" xlink:href="#Degradado_sin_nombre_6"/><linearGradient id="Degradado_sin_nombre_6-3" x1="193.06" y1="161.9" x2="217.99" y2="146.57" xlink:href="#Degradado_sin_nombre_6"/><linearGradient id="Degradado_sin_nombre_6-4" x1="197.14" y1="168.54" x2="222.08" y2="153.22" xlink:href="#Degradado_sin_nombre_6"/><linearGradient id="Degradado_sin_nombre_6-5" x1="195.02" y1="165.09" x2="219.95" y2="149.76" xlink:href="#Degradado_sin_nombre_6"/><linearGradient id="Degradado_sin_nombre_6-6" x1="192.9" y1="161.63" x2="217.83" y2="146.31" xlink:href="#Degradado_sin_nombre_6"/><linearGradient id="Degradado_sin_nombre_5" x1="159.93" y1="178.22" x2="131.73" y2="197.34" gradientUnits="userSpaceOnUse"><stop offset="0" stop-color="#fcfdff" stop-opacity="0"/><stop offset="0.12" stop-color="#fcfad7" stop-opacity="0.16"/><stop offset="0.37" stop-color="#fdf58c" stop-opacity="0.45"/><stop offset="0.59" stop-color="#fef150" stop-opacity="0.69"/><stop offset="0.77" stop-color="#ffee24" stop-opacity="0.86"/><stop offset="0.91" stop-color="#ffed0a" stop-opacity="0.96"/><stop offset="1" stop-color="#ffec00"/></linearGradient><linearGradient id="Degradado_sin_nombre_5-2" x1="162.14" y1="181.49" x2="133.94" y2="200.6" xlink:href="#Degradado_sin_nombre_5"/><linearGradient id="Degradado_sin_nombre_5-3" x1="164.35" y1="184.75" x2="136.15" y2="203.87" xlink:href="#Degradado_sin_nombre_5"/><linearGradient id="Degradado_sin_nombre_5-4" x1="160.38" y1="178.9" x2="132.18" y2="198.02" xlink:href="#Degradado_sin_nombre_5"/><linearGradient id="Degradado_sin_nombre_5-5" x1="162.59" y1="182.16" x2="134.39" y2="201.28" xlink:href="#Degradado_sin_nombre_5"/><linearGradient id="Degradado_sin_nombre_5-6" x1="164.81" y1="185.42" x2="136.6" y2="204.54" xlink:href="#Degradado_sin_nombre_5"/><linearGradient id="Degradado_sin_nombre_4-5" x1="146.48" y1="141.01" x2="70.39" y2="274.84" xlink:href="#Degradado_sin_nombre_4"/><linearGradient id="Degradado_sin_nombre_3-16" x1="152.35" y1="159.56" x2="98.49" y2="251.99" xlink:href="#Degradado_sin_nombre_3"/><linearGradient id="Degradado_sin_nombre_3-17" x1="137.77" y1="151.07" x2="83.91" y2="243.49" gradientTransform="translate(231.09 11.08) rotate(60)" xlink:href="#Degradado_sin_nombre_3"/><linearGradient id="Degradado_sin_nombre_4-6" x1="280.05" y1="47.97" x2="218.26" y2="176.54" xlink:href="#Degradado_sin_nombre_4"/><linearGradient id="Degradado_sin_nombre_3-18" x1="292.41" y1="97.28" x2="210.01" y2="170.05" xlink:href="#Degradado_sin_nombre_3"/><linearGradient id="Degradado_sin_nombre_3-19" x1="287.57" y1="91.81" x2="205.17" y2="164.57" xlink:href="#Degradado_sin_nombre_3"/><linearGradient id="Degradado_sin_nombre_3-20" x1="274.9" y1="77.45" x2="192.5" y2="150.22" xlink:href="#Degradado_sin_nombre_3"/><linearGradient id="Degradado_sin_nombre_3-21" x1="278.23" y1="81.22" x2="195.82" y2="153.98" xlink:href="#Degradado_sin_nombre_3"/><linearGradient id="Degradado_sin_nombre_3-22" x1="281.55" y1="84.98" x2="199.14" y2="157.75" xlink:href="#Degradado_sin_nombre_3"/><linearGradient id="Degradado_sin_nombre_3-23" x1="92.19" y1="346.19" x2="8.79" y2="514.32" xlink:href="#Degradado_sin_nombre_3"/><linearGradient id="Degradado_sin_nombre_3-24" x1="82.05" y1="313.65" x2="6.49" y2="420.69" xlink:href="#Degradado_sin_nombre_3"/><linearGradient id="Degradado_sin_nombre_2" x1="350.69" y1="282.77" x2="331.42" y2="275.25" gradientUnits="userSpaceOnUse"><stop offset="0" stop-color="#e8e9ff"/><stop offset="1" stop-color="#c0c0f6"/></linearGradient></defs><title>About us 1</title><g class="cls-1"><g id="OBJECTS"><path class="cls-2" d="M253.24,455.89h-.11l.1,0Z"/><polygon class="cls-3" points="81.79 494.07 81.79 494.07 81.79 494.07 81.79 494.07"/><g class="cls-4"><path class="cls-5" d="M401.13,387.76,334.66,425c-3,1.7-8.14,1.48-11.54-.48L301,411.32c-3.4-2-3.77-5-.83-6.66l66.22-38c3-1.7,8.14-1.48,11.54.48L400.3,381.1C403.7,383.06,404.07,386.06,401.13,387.76Z"/><path class="cls-5" d="M373.46,355.23,307,392.46c-2.94,1.7-8.13,1.48-11.53-.48l-22.11-13.19c-3.4-2-3.77-5-.83-6.66l66.22-38c2.94-1.7,8.13-1.48,11.53.48l22.37,13.94C376,350.53,376.4,353.53,373.46,355.23Z"/><path class="cls-5" d="M389.37,300.29,188.79,412.18c-8.89,5.13-24.55,4.48-34.81-1.44L37.12,343.27c-10.26-5.92-11.38-15-2.5-20.1L235.2,211.29c8.88-5.13,24.55-4.48,34.81,1.44L386.87,280.2C397.13,286.12,398.25,295.16,389.37,300.29Z"/></g><path class="cls-6" d="M2.37,150A2.37,2.37,0,0,1,0,147.62V97.48a2.36,2.36,0,0,1,1.18-2l60.28-34.8a2.29,2.29,0,0,1,1.18-.33A2.38,2.38,0,0,1,65,62.67v50.15a2.37,2.37,0,0,1-1.18,2.05L3.55,149.67A2.28,2.28,0,0,1,2.37,150Z"/><path class="cls-7" d="M47.41,222.8a5.08,5.08,0,0,1-5.07-5.07V110.47a5.07,5.07,0,0,1,2.53-4.38L173.79,31.65a5,5,0,0,1,2.52-.69A5.08,5.08,0,0,1,181.38,36V143.29a5.07,5.07,0,0,1-2.53,4.38L49.93,222.11A5,5,0,0,1,47.41,222.8Z"/><path class="cls-8" d="M149,79.48a2.1,2.1,0,0,1-2.1-2.1V32.94a2.1,2.1,0,0,1,1-1.81L201.32.29A2.08,2.08,0,0,1,202.37,0a2.1,2.1,0,0,1,2.1,2.1V46.54a2.11,2.11,0,0,1-1.05,1.82L150,79.2A2.06,2.06,0,0,1,149,79.48Z"/><path class="cls-9" d="M24.36,256.11a2.11,2.11,0,0,1-2.1-2.1V209.56a2.09,2.09,0,0,1,1-1.81l53.41-30.84a2.08,2.08,0,0,1,1-.29,2.11,2.11,0,0,1,2.1,2.1v44.44A2.1,2.1,0,0,1,78.82,225L25.4,255.82A2.07,2.07,0,0,1,24.36,256.11Z"/><ellipse class="cls-5" cx="169.35" cy="88.42" rx="4.79" ry="2.77" transform="translate(6.25 187.91) rotate(-58.95)"/><path class="cls-5" d="M184.81,79.49a7.5,7.5,0,0,1-3.43,5.85c-1.89,1.1-3.42.25-3.42-1.89a7.49,7.49,0,0,1,3.42-5.85C183.27,76.51,184.81,77.36,184.81,79.49Z"/><path class="cls-5" d="M196.84,72.55a7.48,7.48,0,0,1-3.42,5.84c-1.89,1.1-3.42.25-3.42-1.89a7.49,7.49,0,0,1,3.42-5.85C195.31,69.56,196.84,70.41,196.84,72.55Z"/><path class="cls-5" d="M85,144a30,30,0,0,1-7.75,6.23c-7,4-13.2,1.8-13.2-7.77,0-10,6.26-22.23,15.83-27.76,7.44-4.29,12.77-1.46,12.77,6.75,0,7.13-3.47,13.63-8,16.27-2,1.15-3.42.8-3.63-1.66l-.09.05a13.61,13.61,0,0,1-5.46,6.91c-2.75,1.59-4.74.39-4.74-3.62,0-6,3.81-13.58,9.9-17.1a11.15,11.15,0,0,1,5-1.68l-1.27,9.77c-.42,3.13-.13,4.27,1.06,3.64,1.82-1,4.1-5,4.1-10.63,0-6.35-3.55-9.23-10.11-5.45S67.27,130.87,67.27,140.2c0,8.16,4.52,10.19,10.83,6.55a24.16,24.16,0,0,0,6.13-5.11Zm-3.77-18a6,6,0,0,0-1.31.56c-2.8,1.62-5,6.06-5,9.82,0,1.86.72,2.62,2.12,1.81,1.57-.9,3.22-4.15,3.6-7.2Z"/><path class="cls-5" d="M103.33,82.52l14.78,4.09c.46.13,1.17-.28,1.62-.93l14.79-21.12Z"/><path class="cls-5" d="M113.83,86.88l-10.29,17a1.58,1.58,0,0,1-.28-.93V84Z"/><path class="cls-5" d="M123.06,82.34l10.36,5.19a3.67,3.67,0,0,1-1,.81L105.4,104a2,2,0,0,1-.89.3l10.35-17.13,4.07,1.13Z"/><path class="cls-5" d="M134.59,65.88v19a3.29,3.29,0,0,1-.26,1.15L124.1,80.89Z"/><path class="cls-5" d="M238.11,91.47a.25.25,0,0,1-.25-.25V17.74L137.8,75.59a.25.25,0,1,1-.25-.43L238.36,16.87V91.22A.25.25,0,0,1,238.11,91.47Z"/><path class="cls-5" d="M244.8,91.78a.48.48,0,0,1-.5-.47v-.06a.51.51,0,0,1,.5-.5.5.5,0,0,1,.5.5A.52.52,0,0,1,244.8,91.78Z"/><path class="cls-5" d="M244.8,87.93a.47.47,0,0,1-.5-.46v-.09a.5.5,0,0,1,.5-.5.5.5,0,0,1,.5.5A.54.54,0,0,1,244.8,87.93Zm0-3.88a.46.46,0,0,1-.5-.45v-.09a.5.5,0,0,1,.5-.5.5.5,0,0,1,.5.5A.54.54,0,0,1,244.8,84.05Zm0-3.87a.47.47,0,0,1-.5-.45v-.1a.5.5,0,0,1,.5-.5.5.5,0,0,1,.5.5A.54.54,0,0,1,244.8,80.18Zm0-3.88a.46.46,0,0,1-.5-.45v-.09a.5.5,0,0,1,.5-.5.5.5,0,0,1,.5.5A.54.54,0,0,1,244.8,76.3Zm0-3.87a.47.47,0,0,1-.5-.45v-.1a.51.51,0,0,1,.5-.5.5.5,0,0,1,.5.5A.54.54,0,0,1,244.8,72.43Zm0-3.87a.47.47,0,0,1-.5-.46V68a.5.5,0,0,1,.5-.5.5.5,0,0,1,.5.5A.55.55,0,0,1,244.8,68.56Zm0-3.88a.47.47,0,0,1-.5-.45v-.1a.51.51,0,0,1,.5-.5.5.5,0,0,1,.5.5A.54.54,0,0,1,244.8,64.68Z"/><path class="cls-5" d="M244.8,60.83a.51.51,0,0,1-.42-.21l0-.06a.49.49,0,0,1,.17-.67.59.59,0,0,1,.52,0,.5.5,0,0,1,.27.42A.52.52,0,0,1,244.8,60.83Z"/><path class="cls-5" d="M101.74,140.67a.49.49,0,0,1-.44-.26.5.5,0,0,1,.19-.68l.09,0a.5.5,0,0,1,.68.19.51.51,0,0,1-.19.68l-.09.05A.53.53,0,0,1,101.74,140.67Zm3.57-2a.5.5,0,0,1-.24-.93l.09-.05a.5.5,0,1,1,.48.87l-.08.05A.57.57,0,0,1,105.31,138.67Zm3.58-2a.49.49,0,0,1-.44-.26.51.51,0,0,1,.19-.68.56.56,0,0,1,.73.17.47.47,0,0,1-.15.66l-.09,0A.44.44,0,0,1,108.89,136.68Zm3.57-2a.5.5,0,0,1-.24-.93l.09-.05a.5.5,0,0,1,.68.19.51.51,0,0,1-.2.68l-.08.05A.54.54,0,0,1,112.46,134.68Zm3.58-2a.51.51,0,0,1-.44-.26.5.5,0,0,1,.19-.68l.09-.05a.5.5,0,0,1,.68.19.49.49,0,0,1-.19.68l-.09.05A.44.44,0,0,1,116,132.69Zm3.57-2a.5.5,0,0,1-.43-.25.51.51,0,0,1,.19-.69.55.55,0,0,1,.72.17.46.46,0,0,1-.14.66l-.09,0A.54.54,0,0,1,119.61,130.69Zm3.58-2a.52.52,0,0,1-.44-.25.5.5,0,0,1,.19-.68.55.55,0,0,1,.73.16.47.47,0,0,1-.15.66l-.09,0A.5.5,0,0,1,123.19,128.69Zm3.58-2a.49.49,0,0,1-.44-.26.5.5,0,0,1,.19-.68l.09-.05a.5.5,0,0,1,.68.2.51.51,0,0,1-.19.68l-.09,0A.44.44,0,0,1,126.77,126.7Zm3.57-2a.52.52,0,0,1-.44-.25.5.5,0,0,1,.2-.68l.08,0a.5.5,0,0,1,.49.87l-.09,0A.5.5,0,0,1,130.34,124.7Zm3.58-2a.51.51,0,0,1-.44-.26.49.49,0,0,1,.19-.68.55.55,0,0,1,.73.17.46.46,0,0,1-.15.65l-.09,0A.44.44,0,0,1,133.92,122.71Zm3.57-2a.5.5,0,0,1-.24-.94.55.55,0,0,1,.72.17.46.46,0,0,1-.15.66l-.09.05A.5.5,0,0,1,137.49,120.71Zm3.58-2a.5.5,0,0,1-.25-.93.55.55,0,0,1,.73.17.46.46,0,0,1-.15.65l-.09.05A.53.53,0,0,1,141.07,118.71Zm3.57-2a.51.51,0,0,1-.43-.26.49.49,0,0,1,.19-.68.55.55,0,0,1,.72.17.46.46,0,0,1-.15.66l-.08,0A.45.45,0,0,1,144.64,116.72Zm3.58-2a.49.49,0,0,1-.44-.26.5.5,0,0,1,.2-.68.55.55,0,0,1,.72.17.47.47,0,0,1-.15.66l-.09,0A.53.53,0,0,1,148.22,114.72Zm3.57-2a.51.51,0,0,1-.43-.26.49.49,0,0,1,.19-.68.55.55,0,0,1,.73.17.46.46,0,0,1-.16.65l-.08,0A.45.45,0,0,1,151.79,112.73Zm3.58-2a.49.49,0,0,1-.44-.26.5.5,0,0,1,.2-.68l.08-.05a.51.51,0,0,1,.68.2.5.5,0,0,1-.19.68l-.09,0A.5.5,0,0,1,155.37,110.73Zm3.58-2a.5.5,0,0,1-.44-.25.49.49,0,0,1,.19-.68.53.53,0,0,1,.72.16.46.46,0,0,1-.14.66l-.09,0A.53.53,0,0,1,159,108.73Zm3.57-2a.5.5,0,0,1-.24-.94l.08,0a.5.5,0,0,1,.49.88l-.09,0A.42.42,0,0,1,162.52,106.74Zm3.58-2a.5.5,0,0,1-.44-.25.49.49,0,0,1,.19-.68l.09,0a.49.49,0,0,1,.68.19.51.51,0,0,1-.19.68l-.09.05A.53.53,0,0,1,166.1,104.74Zm3.57-2a.51.51,0,0,1-.43-.26.49.49,0,0,1,.19-.68.54.54,0,0,1,.72.17.45.45,0,0,1-.15.65l-.08.05A.55.55,0,0,1,169.67,102.75Zm3.58-2a.49.49,0,0,1-.44-.26.51.51,0,0,1,.19-.68.56.56,0,0,1,.73.17.47.47,0,0,1-.15.66l-.09,0A.53.53,0,0,1,173.25,100.75Zm3.57-2a.5.5,0,0,1-.24-.93l.09,0a.5.5,0,0,1,.68.19.51.51,0,0,1-.2.68l-.08,0A.54.54,0,0,1,176.82,98.75Zm3.58-2a.5.5,0,0,1-.25-.94l.09,0a.5.5,0,0,1,.68.19.49.49,0,0,1-.19.68l-.09,0A.44.44,0,0,1,180.4,96.76Zm3.57-2a.5.5,0,0,1-.24-.93.53.53,0,0,1,.72.16.46.46,0,0,1-.14.66l-.09,0A.54.54,0,0,1,184,94.76Zm3.58-2a.52.52,0,0,1-.44-.25.5.5,0,0,1,.19-.68A.54.54,0,0,1,188,92a.46.46,0,0,1-.15.65l-.09,0A.5.5,0,0,1,187.55,92.76Zm3.58-2a.49.49,0,0,1-.44-.26.5.5,0,0,1,.19-.68l.09,0a.5.5,0,0,1,.49.88l-.09,0A.53.53,0,0,1,191.13,90.77Zm3.57-2a.52.52,0,0,1-.44-.25.51.51,0,0,1,.2-.68l.08,0a.5.5,0,0,1,.49.87l-.09,0A.5.5,0,0,1,194.7,88.77Zm3.58-2a.51.51,0,0,1-.44-.26.5.5,0,0,1,.19-.68.55.55,0,0,1,.73.17.46.46,0,0,1-.15.65l-.09,0A.44.44,0,0,1,198.28,86.78Zm3.57-2a.5.5,0,0,1-.43-.25.51.51,0,0,1,.19-.69.55.55,0,0,1,.72.17.46.46,0,0,1-.15.66l-.08,0A.57.57,0,0,1,201.85,84.78Zm3.58-2a.5.5,0,0,1-.25-.93.55.55,0,0,1,.73.17.46.46,0,0,1-.15.65l-.09,0A.53.53,0,0,1,205.43,82.78Zm3.57-2a.51.51,0,0,1-.44-.26.51.51,0,0,1,.2-.68l.09,0a.5.5,0,1,1,.48.88l-.09,0A.5.5,0,0,1,209,80.79Zm3.58-2a.49.49,0,0,1-.24-.93.53.53,0,0,1,.72.17.46.46,0,0,1-.15.65l-.09,0A.53.53,0,0,1,212.58,78.79Zm3.57-2a.51.51,0,0,1-.43-.26.49.49,0,0,1,.19-.68.55.55,0,0,1,.72.17.45.45,0,0,1-.15.65l-.08,0A.45.45,0,0,1,216.15,76.8Zm3.58-2a.49.49,0,0,1-.44-.26.51.51,0,0,1,.2-.68.55.55,0,0,1,.72.17.47.47,0,0,1-.15.66l-.09,0A.5.5,0,0,1,219.73,74.8Zm3.57-2a.5.5,0,0,1-.24-.93.55.55,0,0,1,.73.17.45.45,0,0,1-.16.65l-.08,0A.54.54,0,0,1,223.3,72.8Zm3.58-2a.5.5,0,0,1-.44-.26.51.51,0,0,1,.2-.68l.08-.05a.5.5,0,1,1,.49.88l-.09,0A.5.5,0,0,1,226.88,70.81Zm3.58-2a.5.5,0,0,1-.44-.25.49.49,0,0,1,.19-.68.55.55,0,0,1,.73.16.47.47,0,0,1-.15.66l-.09,0A.53.53,0,0,1,230.46,68.81Zm3.57-2a.51.51,0,0,1-.43-.26.5.5,0,0,1,.19-.68.54.54,0,0,1,.72.17.45.45,0,0,1-.15.65l-.08,0A.47.47,0,0,1,234,66.82Zm3.58-2a.49.49,0,0,1-.44-.26.51.51,0,0,1,.19-.68l.09-.05a.51.51,0,0,1,.68.2.5.5,0,0,1-.19.68l-.09.05A.53.53,0,0,1,237.61,64.82Zm3.57-2a.5.5,0,0,1-.24-.93.53.53,0,0,1,.72.16.45.45,0,0,1-.15.66l-.08,0A.54.54,0,0,1,241.18,62.82Z"/><path class="cls-5" d="M98.2,142.67a.48.48,0,0,1-.5-.48.58.58,0,0,1,.26-.48.51.51,0,0,1,.7.18.48.48,0,0,1-.11.63A.49.49,0,0,1,98.2,142.67Z"/><path class="cls-5" d="M98.2,172.43a.5.5,0,0,1-.5-.5v-.1a.5.5,0,0,1,.5-.5.5.5,0,0,1,.5.5v.1A.5.5,0,0,1,98.2,172.43Zm0-4.25a.5.5,0,0,1-.5-.5v-.1a.5.5,0,0,1,.5-.5.5.5,0,0,1,.5.5v.1A.5.5,0,0,1,98.2,168.18Zm0-4.25a.5.5,0,0,1-.5-.5v-.1a.5.5,0,0,1,.5-.5.5.5,0,0,1,.5.5v.1A.5.5,0,0,1,98.2,163.93Zm0-4.24a.51.51,0,0,1-.5-.5v-.11a.51.51,0,0,1,.5-.5.5.5,0,0,1,.5.5v.11A.5.5,0,0,1,98.2,159.69Zm0-4.25a.51.51,0,0,1-.5-.5v-.11a.51.51,0,0,1,.5-.5.5.5,0,0,1,.5.5v.11A.5.5,0,0,1,98.2,155.44Zm0-4.25a.5.5,0,0,1-.5-.5v-.1a.5.5,0,0,1,.5-.5.5.5,0,0,1,.5.5v.1A.5.5,0,0,1,98.2,151.19Zm0-4.25a.5.5,0,0,1-.5-.5v-.1a.5.5,0,0,1,.5-.5.5.5,0,0,1,.5.5v.1A.5.5,0,0,1,98.2,146.94Z"/><path class="cls-5" d="M98.2,176.63a.51.51,0,0,1-.5-.5.53.53,0,0,1,.5-.53.48.48,0,0,1,.5.48v0A.5.5,0,0,1,98.2,176.63Z"/><path class="cls-5" d="M35.56,196.37a.25.25,0,0,1-.25-.25v-40l.13-.07,23.48-12.42a.24.24,0,0,1,.33.1.25.25,0,0,1-.1.34L35.81,156.45v39.67A.25.25,0,0,1,35.56,196.37Z"/><path class="cls-5" d="M52.44,260.66a.46.46,0,0,1-.5-.45v-.1a.5.5,0,0,1,.5-.5.5.5,0,0,1,.5.5A.54.54,0,0,1,52.44,260.66Zm0-4.05a.5.5,0,0,1-.5-.5V256a.5.5,0,0,1,.5-.5.5.5,0,0,1,.5.5v.1A.5.5,0,0,1,52.44,256.61Zm0-4.15a.47.47,0,0,1-.5-.45v-.1a.5.5,0,0,1,.5-.5.5.5,0,0,1,.5.5A.54.54,0,0,1,52.44,252.46Zm0-4.05a.5.5,0,0,1-.5-.5v-.1a.5.5,0,0,1,.5-.5.5.5,0,0,1,.5.5v.1A.5.5,0,0,1,52.44,248.41Zm0-4.15a.47.47,0,0,1-.5-.45v-.1a.5.5,0,0,1,.5-.5.5.5,0,0,1,.5.5A.54.54,0,0,1,52.44,244.26Zm0-4.1a.46.46,0,0,1-.5-.45v-.1a.5.5,0,0,1,.5-.5.5.5,0,0,1,.5.5A.54.54,0,0,1,52.44,240.16Zm0-4a.5.5,0,0,1-.5-.5v-.1a.5.5,0,0,1,.5-.5.5.5,0,0,1,.5.5v.1A.5.5,0,0,1,52.44,236.11Zm0-4.15a.47.47,0,0,1-.5-.45v-.1a.5.5,0,0,1,.5-.5.5.5,0,0,1,.5.5A.54.54,0,0,1,52.44,232Zm0-4.05a.5.5,0,0,1-.5-.5v-.1a.5.5,0,0,1,.5-.5.5.5,0,0,1,.5.5v.1A.5.5,0,0,1,52.44,227.91Zm0-4.15a.47.47,0,0,1-.5-.45v-.1a.5.5,0,0,1,.5-.5.5.5,0,0,1,.5.5A.54.54,0,0,1,52.44,223.76Zm0-4a.5.5,0,0,1-.5-.5v-.1a.5.5,0,0,1,.5-.5.5.5,0,0,1,.5.5v.1A.5.5,0,0,1,52.44,219.71Zm0-4.1a.5.5,0,0,1-.5-.5V215a.5.5,0,0,1,.5-.5.5.5,0,0,1,.5.5v.1A.5.5,0,0,1,52.44,215.61Zm0-4.15a.47.47,0,0,1-.5-.45v-.1a.5.5,0,0,1,.5-.5.5.5,0,0,1,.5.5A.54.54,0,0,1,52.44,211.46Zm0-4.05a.5.5,0,0,1-.5-.5v-.1a.5.5,0,0,1,.5-.5.5.5,0,0,1,.5.5v.1A.5.5,0,0,1,52.44,207.41Zm0-4.1a.5.5,0,0,1-.5-.5v-.1a.5.5,0,0,1,.5-.5.5.5,0,0,1,.5.5v.1A.5.5,0,0,1,52.44,203.31Zm0-4.1a.5.5,0,0,1-.5-.5v-.1a.5.5,0,0,1,.5-.5.5.5,0,0,1,.5.5v.1A.5.5,0,0,1,52.44,199.21Zm0-4.1a.5.5,0,0,1-.5-.5v-.1a.5.5,0,0,1,.5-.5.5.5,0,0,1,.5.5v.1A.5.5,0,0,1,52.44,195.11Zm0-4.15a.47.47,0,0,1-.5-.45v-.1a.5.5,0,0,1,.5-.5.5.5,0,0,1,.5.5A.54.54,0,0,1,52.44,191Zm0-4.05a.5.5,0,0,1-.5-.5v-.1a.5.5,0,0,1,.5-.5.5.5,0,0,1,.5.5v.1A.5.5,0,0,1,52.44,186.91Zm0-4.1a.5.5,0,0,1-.5-.5v-.1a.5.5,0,0,1,.5-.5.5.5,0,0,1,.5.5v.1A.5.5,0,0,1,52.44,182.81Zm0-4.1a.5.5,0,0,1-.5-.5v-.1a.5.5,0,0,1,.5-.5.5.5,0,0,1,.5.5v.1A.5.5,0,0,1,52.44,178.71Zm0-4.1a.5.5,0,0,1-.5-.5V174a.5.5,0,0,1,.5-.5.5.5,0,0,1,.5.5v.1A.5.5,0,0,1,52.44,174.61Zm0-4.15a.47.47,0,0,1-.5-.45v-.1a.5.5,0,0,1,.5-.5.5.5,0,0,1,.5.5A.54.54,0,0,1,52.44,170.46Zm0-4.05a.5.5,0,0,1-.5-.5v-.1a.5.5,0,0,1,.5-.5.5.5,0,0,1,.5.5v.1A.5.5,0,0,1,52.44,166.41Zm0-4.1a.5.5,0,0,1-.5-.5v-.1a.5.5,0,0,1,.5-.5.5.5,0,0,1,.5.5v.1A.5.5,0,0,1,52.44,162.31Zm0-4.1a.5.5,0,0,1-.5-.5v-.1a.5.5,0,0,1,.5-.5.5.5,0,0,1,.5.5v.1A.5.5,0,0,1,52.44,158.21Zm0-4.1a.5.5,0,0,1-.5-.5v-.1a.5.5,0,0,1,.5-.5.5.5,0,0,1,.5.5v.1A.5.5,0,0,1,52.44,154.11Zm0-4.15a.47.47,0,0,1-.5-.45v-.1a.5.5,0,0,1,.5-.5.5.5,0,0,1,.5.5A.54.54,0,0,1,52.44,150Zm0-4.05a.5.5,0,0,1-.5-.5v-.1a.5.5,0,0,1,.5-.5.5.5,0,0,1,.5.5v.1A.5.5,0,0,1,52.44,145.91Zm0-4.1a.5.5,0,0,1-.5-.5v-.1a.5.5,0,0,1,.5-.5.5.5,0,0,1,.5.5v.1A.5.5,0,0,1,52.44,141.81Zm0-4.1a.5.5,0,0,1-.5-.5v-.1a.5.5,0,0,1,.5-.5.5.5,0,0,1,.5.5v.1A.5.5,0,0,1,52.44,137.71Zm0-4.1a.5.5,0,0,1-.5-.5V133a.5.5,0,0,1,.5-.5.5.5,0,0,1,.5.5v.1A.5.5,0,0,1,52.44,133.61Zm0-4.15a.47.47,0,0,1-.5-.45v-.1a.5.5,0,0,1,.5-.5.5.5,0,0,1,.5.5A.54.54,0,0,1,52.44,129.46Zm0-4.05a.5.5,0,0,1-.5-.5v-.1a.5.5,0,0,1,.5-.5.5.5,0,0,1,.5.5v.1A.5.5,0,0,1,52.44,125.41Zm0-4.1a.5.5,0,0,1-.5-.5v-.1a.5.5,0,0,1,.5-.5.5.5,0,0,1,.5.5v.1A.5.5,0,0,1,52.44,121.31Zm0-4.1a.5.5,0,0,1-.5-.5v-.1a.5.5,0,0,1,.5-.5.5.5,0,0,1,.5.5v.1A.5.5,0,0,1,52.44,117.21Zm0-4.1a.5.5,0,0,1-.5-.5v-.1a.5.5,0,0,1,.5-.5.5.5,0,0,1,.5.5v.1A.5.5,0,0,1,52.44,113.11Zm1.93-3a.5.5,0,0,1-.25-.93l.09,0a.5.5,0,0,1,.5.86l-.09,0A.45.45,0,0,1,54.37,110.13ZM58,108.06a.51.51,0,0,1-.45-.24.47.47,0,0,1,.15-.66l.08,0a.5.5,0,0,1,.68.19.49.49,0,0,1-.18.68A.6.6,0,0,1,58,108.06Zm3.56-2a.52.52,0,0,1-.45-.23.47.47,0,0,1,.15-.66l.08,0a.52.52,0,0,1,.69.19.5.5,0,0,1-.19.68A.55.55,0,0,1,61.55,106Zm3.51-2a.49.49,0,0,1-.44-.26.5.5,0,0,1,.19-.68l.08,0a.5.5,0,1,1,.5.87l-.09,0A.51.51,0,0,1,65.06,104ZM68.67,102a.49.49,0,0,1-.44-.23.46.46,0,0,1,.14-.66l.09,0a.5.5,0,0,1,.49.87A.53.53,0,0,1,68.67,102Zm3.56-2a.49.49,0,0,1-.44-.24.45.45,0,0,1,.14-.65L72,99a.5.5,0,0,1,.49.87A.53.53,0,0,1,72.23,99.93Zm3.51-2a.5.5,0,0,1-.25-.93l.09-.05a.49.49,0,0,1,.68.18.51.51,0,0,1-.18.69l-.09,0A.47.47,0,0,1,75.74,97.94Zm3.61-2.07a.5.5,0,0,1-.44-.24.46.46,0,0,1,.14-.66l.09,0a.49.49,0,0,1,.68.18.5.5,0,0,1-.19.69A.64.64,0,0,1,79.35,95.87Zm3.57-2a.51.51,0,0,1-.45-.24.46.46,0,0,1,.15-.66l.08,0a.5.5,0,0,1,.68.19.49.49,0,0,1-.18.68A.6.6,0,0,1,82.92,93.84Zm3.5-2A.5.5,0,0,1,86,91.6a.51.51,0,0,1,.19-.69l.08,0a.5.5,0,0,1,.68.19.49.49,0,0,1-.18.68l-.09,0A.45.45,0,0,1,86.42,91.85ZM90,89.77a.52.52,0,0,1-.45-.23.47.47,0,0,1,.15-.66l.09,0a.5.5,0,0,1,.49.87A.55.55,0,0,1,90,89.77Zm3.56-2a.52.52,0,0,1-.45-.23.47.47,0,0,1,.15-.66l.09,0a.5.5,0,0,1,.68.19.51.51,0,0,1-.19.68A.53.53,0,0,1,93.6,87.74Zm3.51-2a.52.52,0,0,1-.44-.25.51.51,0,0,1,.19-.68l.09,0a.5.5,0,0,1,.68.18.51.51,0,0,1-.19.69l-.08,0A.57.57,0,0,1,97.11,85.75Z"/><path class="cls-5" d="M123.78,115a.51.51,0,0,1-.45-.24.45.45,0,0,1,.14-.65l.09,0a.5.5,0,1,1,.5.86A.6.6,0,0,1,123.78,115Zm-1.64-1.21a.5.5,0,0,1-.5-.5v-.1a.5.5,0,0,1,.5-.5.5.5,0,0,1,.5.5v.1A.5.5,0,0,1,122.14,113.75Zm5.18-.85a.52.52,0,0,1-.44-.23A.46.46,0,0,1,127,112l.09-.05a.5.5,0,0,1,.5.87A.59.59,0,0,1,127.32,112.9Zm3.55-2.05a.52.52,0,0,1-.44-.23.46.46,0,0,1,.14-.66l.09,0a.5.5,0,0,1,.5.87A.59.59,0,0,1,130.87,110.85Zm-8.73-1.2a.5.5,0,0,1-.5-.5v-.1a.5.5,0,0,1,.5-.5.5.5,0,0,1,.5.5v.1A.5.5,0,0,1,122.14,109.65Zm12.28-.85a.5.5,0,0,1-.44-.23.46.46,0,0,1,.14-.66l.09,0a.5.5,0,1,1,.5.86A.6.6,0,0,1,134.42,108.8Zm3.5-2a.5.5,0,0,1-.25-.93l.09,0a.5.5,0,1,1,.5.86l-.09,0A.47.47,0,0,1,137.92,106.79Zm-15.78-1.24a.5.5,0,0,1-.5-.5.54.54,0,0,1,.5-.55.46.46,0,0,1,.5.45v.1A.5.5,0,0,1,122.14,105.55Zm19.38-.86a.5.5,0,0,1-.44-.23.46.46,0,0,1,.14-.66l.08,0a.5.5,0,1,1,.51.87A.59.59,0,0,1,141.52,104.69Zm3.55-2a.5.5,0,0,1-.44-.23.46.46,0,0,1,.14-.66l.08,0a.51.51,0,0,1,.69.18.5.5,0,0,1-.18.68A.51.51,0,0,1,145.07,102.64Zm-22.93-1.19a.5.5,0,0,1-.5-.5v-.1a.5.5,0,0,1,.5-.5.5.5,0,0,1,.5.5v.1A.5.5,0,0,1,122.14,101.45Zm26.43-.82a.51.51,0,0,1-.44-.25.51.51,0,0,1,.19-.68l.08,0a.5.5,0,1,1,.5.86l-.08,0A.47.47,0,0,1,148.57,100.63Zm3.6-2.1a.48.48,0,0,1-.44-.23.45.45,0,0,1,.13-.65l.09-.05a.5.5,0,0,1,.5.86A.53.53,0,0,1,152.17,98.53Zm-30-1.18a.5.5,0,0,1-.5-.5v-.1a.5.5,0,0,1,.5-.5.5.5,0,0,1,.5.5v.1A.5.5,0,0,1,122.14,97.35Zm33.58-.87a.49.49,0,0,1-.44-.23.46.46,0,0,1,.14-.66l.08,0a.5.5,0,0,1,.5.87A.53.53,0,0,1,155.72,96.48Zm3.49-2a.5.5,0,0,1-.24-.93l.08-.05a.49.49,0,0,1,.68.18.51.51,0,0,1-.18.69l-.09,0A.54.54,0,0,1,159.21,94.47Zm3.61-2.09a.51.51,0,0,1-.45-.24.45.45,0,0,1,.14-.65l.09,0a.5.5,0,0,1,.5.86A.6.6,0,0,1,162.82,92.38Z"/><path class="cls-10" d="M373,91.9l-36.29,21c-2.65,1.52-7.31,1.33-10.37-.43l-34.8-20.1c-3.06-1.76-3.4-4.46-.75-6l36.29-21c2.65-1.53,7.32-1.33,10.37.43l34.81,20.1C375.34,87.68,375.68,90.37,373,91.9Z"/><path class="cls-11" d="M374.77,220.69V89.78h0A3.33,3.33,0,0,1,373,91.9l-36.29,21a9.43,9.43,0,0,1-4.82,1V245.72a9.43,9.43,0,0,0,4.82-1L373,223.75A3,3,0,0,0,374.77,220.69Z"/><path class="cls-12" d="M326.37,112.43l-34.8-20.1a4.61,4.61,0,0,1-2.48-2.93V220.31c-.27,1.31.57,2.77,2.48,3.87l34.8,20.09a12,12,0,0,0,5.55,1.45V113.87A12.08,12.08,0,0,1,326.37,112.43Z"/><path class="cls-13" d="M326.37,112.43l-34.8-20.1a4.61,4.61,0,0,1-2.48-2.93V220.31c-.27,1.31.57,2.77,2.48,3.87l34.8,20.09a12,12,0,0,0,5.55,1.45V113.87A12.08,12.08,0,0,1,326.37,112.43Z"/><path class="cls-14" d="M362.08,104.15c0,7.43-3.93,11.54-9.52,11a7,7,0,0,1-4.3-1.11L301.88,87.26a11.53,11.53,0,0,1-1.13-.74C292.93,81.1,286.83,70,286.83,60.7c0-9,5.78-13.13,13.3-10,1.12-6.4,6.47-8.66,12.91-5A23.58,23.58,0,0,1,319,50.82c3.42-2.9,8.63-3,14.48.38,8.79,5.07,16.15,16.34,18.1,26.93A12.31,12.31,0,0,1,356.39,87C359.86,92.29,362.08,98.56,362.08,104.15Z"/><path class="cls-15" d="M366.42,81.27a12.3,12.3,0,0,0-4.81-8.88c-2-10.58-9.32-21.86-18.1-26.93-5.15-3-9.8-3.25-13.17-1.3l-1.42.81a23.46,23.46,0,0,0-5.85-5c-3.64-2.1-6.94-2.28-9.31-.89l-8.45,4.83a8,8,0,0,0-3.75.93l-9.93,5.68c2.28-1.2,5.22-1.22,8.5.14,1.12-6.4,6.47-8.66,12.91-5A23.58,23.58,0,0,1,319,50.82c3.42-2.9,8.63-3,14.48.37,8.79,5.08,16.15,16.35,18.1,26.94A12.31,12.31,0,0,1,356.39,87c3.47,5.28,5.69,11.55,5.69,17.14,0,5.06-1.82,8.57-4.75,10.13l9.93-5.68c3-1.53,4.86-5.07,4.86-10.19C372.12,92.82,369.9,86.56,366.42,81.27Z"/><path class="cls-16" d="M308,80.67c0,1.83-1.29,2.57-2.87,1.66a6.34,6.34,0,0,1-2.87-5c0-1.83,1.28-2.57,2.87-1.66A6.36,6.36,0,0,1,308,80.67Z"/><path class="cls-16" d="M316.9,85.84c0,1.83-1.29,2.57-2.87,1.65a6.33,6.33,0,0,1-2.87-5c0-1.83,1.29-2.57,2.87-1.66A6.36,6.36,0,0,1,316.9,85.84Z"/><path class="cls-16" d="M325.85,91c0,1.83-1.28,2.57-2.87,1.65a6.32,6.32,0,0,1-2.86-5c0-1.83,1.28-2.57,2.86-1.66A6.34,6.34,0,0,1,325.85,91Z"/><path class="cls-16" d="M334.8,96.18c0,1.83-1.28,2.57-2.86,1.65a6.32,6.32,0,0,1-2.87-5c0-1.83,1.28-2.57,2.87-1.66A6.34,6.34,0,0,1,334.8,96.18Z"/><path class="cls-16" d="M343.76,101.35c0,1.82-1.29,2.57-2.87,1.65A6.32,6.32,0,0,1,338,98c0-1.83,1.28-2.57,2.87-1.65A6.35,6.35,0,0,1,343.76,101.35Z"/><path class="cls-10" d="M373.46,318,307,355.2c-2.94,1.7-8.13,1.49-11.53-.47l-22.11-13.19c-3.4-2-3.77-5-.83-6.66l66.22-38c2.94-1.7,8.13-1.49,11.53.47l22.37,13.94C376,313.27,376.4,316.27,373.46,318Z"/><path class="cls-17" d="M375.39,322.13v-6.51h0a3.66,3.66,0,0,1-1.93,2.36L307,355.2a10.39,10.39,0,0,1-5.35,1.13v7.56a10.39,10.39,0,0,0,5.35-1.13l66.48-37.23A3.26,3.26,0,0,0,375.39,322.13Z"/><path class="cls-18" d="M295.45,354.73l-22.11-13.19a5.16,5.16,0,0,1-2.76-3.27v6.52c-.3,1.46.64,3.08,2.76,4.3l22.11,13.19a13.27,13.27,0,0,0,6.18,1.61v-7.56A13.38,13.38,0,0,1,295.45,354.73Z"/><path class="cls-10" d="M401.13,358.93l-66.47,37.23c-3,1.7-8.14,1.49-11.54-.48L301,382.5c-3.4-2-3.77-5-.83-6.66l66.22-38c3-1.7,8.14-1.48,11.54.48l22.36,13.94C403.7,354.23,404.07,357.23,401.13,358.93Z"/><path class="cls-19" d="M403.06,363.09v-6.52h0a3.66,3.66,0,0,1-1.93,2.36l-66.47,37.23a10.46,10.46,0,0,1-5.36,1.13v7.56a10.46,10.46,0,0,0,5.36-1.13l66.47-37.23A3.26,3.26,0,0,0,403.06,363.09Z"/><path class="cls-20" d="M323.12,395.68,301,382.5a5.16,5.16,0,0,1-2.76-3.27v6.52c-.3,1.46.64,3.08,2.76,4.3l22.11,13.19a13.27,13.27,0,0,0,6.18,1.61v-7.56A13.27,13.27,0,0,1,323.12,395.68Z"/><path class="cls-10" d="M389.37,253.55,192.19,367.14c-8.89,5.13-24.55,4.48-34.81-1.45L37.12,296.52c-10.26-5.92-11.38-15-2.5-20.09L235.2,164.54c8.88-5.13,24.55-4.48,34.81,1.45l116.86,67.46C397.13,239.38,398.25,248.42,389.37,253.55Z"/><path class="cls-21" d="M395.19,251.87v-5.43h0c-.54,2.67-2.47,5.17-5.82,7.11L192.19,367.14c-4.27,2.46-10.11,3.56-16.16,3.41v8.58c6.05.14,11.89-.95,16.16-3.42L389.37,262.13C394,259.44,395.89,255.69,395.19,251.87Z"/><path class="cls-22" d="M157.38,365.69,37.12,296.52c-4.89-2.82-7.68-6.36-8.32-9.84v5.43c-.91,4.41,1.94,9.3,8.32,13l120.26,69.17A40.12,40.12,0,0,0,176,379.13v-8.58A40.12,40.12,0,0,1,157.38,365.69Z"/><path class="cls-23" d="M157.38,365.69,37.12,296.52c-4.89-2.82-7.68-6.36-8.32-9.84v5.43c-.91,4.41,1.94,9.3,8.32,13l120.26,69.17A40.12,40.12,0,0,0,176,379.13v-8.58A40.12,40.12,0,0,1,157.38,365.69Z"/><polygon class="cls-16" points="204.16 316.12 162.98 339.89 58.25 279.36 99.42 255.59 204.16 316.12"/><polygon class="cls-24" points="204.16 316.12 204.16 333.21 162.98 356.98 162.98 339.89 204.16 316.12"/><polygon class="cls-25" points="58.25 279.36 58.25 296.45 162.98 356.98 162.98 339.89 58.25 279.36"/><path class="cls-26" d="M118.67,273.92,100.6,284.35a5.75,5.75,0,0,1-5.16-.22l-17.33-10c-1.52-.88-1.68-2.22-.37-3l18.07-10.43a5.75,5.75,0,0,1,5.16.22l17.32,10C119.82,271.82,120,273.16,118.67,273.92Z"/><path class="cls-27" d="M119.53,280.82v-8h0a1.66,1.66,0,0,1-.86,1.06L100.6,284.35a4.65,4.65,0,0,1-2.4.5v8.43a4.76,4.76,0,0,0,2.4-.51l18.07-10.43A1.47,1.47,0,0,0,119.53,280.82Z"/><path class="cls-28" d="M95.44,284.13l-17.33-10a2.29,2.29,0,0,1-1.23-1.46v8c-.13.65.29,1.38,1.23,1.92l17.33,10a6.09,6.09,0,0,0,2.76.72v-8.43A5.84,5.84,0,0,1,95.44,284.13Z"/><path class="cls-29" d="M150.53,292.38l-18.07,10.43a5.75,5.75,0,0,1-5.16-.22l-17.32-10c-1.52-.88-1.69-2.22-.37-3l18.06-10.43a5.78,5.78,0,0,1,5.16.21l17.33,10C151.68,290.27,151.85,291.62,150.53,292.38Z"/><path class="cls-29" d="M151.39,299.28v-8h0a1.63,1.63,0,0,1-.86,1.06l-18.07,10.43a4.74,4.74,0,0,1-2.39.5v8.42a4.64,4.64,0,0,0,2.39-.5l18.07-10.43A1.44,1.44,0,0,0,151.39,299.28Z"/><path class="cls-29" d="M127.3,302.59l-17.32-10a2.31,2.31,0,0,1-1.24-1.46v8c-.13.65.29,1.37,1.24,1.92l17.32,10a5.88,5.88,0,0,0,2.77.72v-8.42A5.88,5.88,0,0,1,127.3,302.59Z"/><path class="cls-30" d="M183.06,311.1,165,321.53a5.75,5.75,0,0,1-5.16-.22l-17.33-10c-1.52-.88-1.68-2.22-.37-3L160.2,297.9a5.78,5.78,0,0,1,5.16.21l17.32,10C184.21,309,184.37,310.34,183.06,311.1Z"/><path class="cls-30" d="M183.92,318v-8h0a1.66,1.66,0,0,1-.86,1.06L165,321.53a4.76,4.76,0,0,1-2.4.5v8.42a4.65,4.65,0,0,0,2.4-.5l18.07-10.43A1.47,1.47,0,0,0,183.92,318Z"/><path class="cls-30" d="M159.83,321.31l-17.33-10a2.29,2.29,0,0,1-1.23-1.46v8c-.13.65.29,1.37,1.23,1.92l17.33,10a5.84,5.84,0,0,0,2.76.72V322A5.84,5.84,0,0,1,159.83,321.31Z"/><ellipse class="cls-16" cx="353.74" cy="223.88" rx="27.86" ry="16.08"/><path class="cls-31" d="M373.44,235.25c-10.88,6.28-28.52,6.28-39.39,0-5.41-3.12-8.12-7.2-8.16-11.29v17.29c0,4.15,2.68,8.3,8.16,11.46,10.87,6.28,28.51,6.28,39.39,0,5.48-3.16,8.19-7.31,8.16-11.46V224C381.56,228.05,378.84,232.13,373.44,235.25Z"/><path class="cls-32" d="M353.74,211.63l17,9.82c-9.34,5.39-24.69,5.39-34,0s-9.33-14.25,0-19.64c5.21-3,12.54-4.47,19.86-4Z"/><path class="cls-28" d="M336.73,221.45c-4.64-2.68-7-6.22-7-9.77v9.89c0,3.58,2.31,7.16,7,9.87,9.34,5.39,24.69,5.39,34,0v-10C361.42,226.84,346.07,226.84,336.73,221.45Z"/><path class="cls-26" d="M353.74,211.63l17,9.82c-9.34,5.39-24.69,5.39-34,0s-9.33-14.25,0-19.64c5.21-3,12.54-4.47,19.86-4Z"/><path class="cls-29" d="M353.74,201.47l2.85-13.8a33.47,33.47,0,0,1,14.17,4c9.33,5.39,9.33,14.26,0,19.65Z"/><polygon class="cls-29" points="353.74 201.47 353.74 211.63 370.76 221.46 370.76 211.29 353.74 201.47"/><path class="cls-29" d="M377.75,221.52v-20c0,3.53-2.37,7.05-7,9.72v20.15C375.47,228.72,377.79,225.11,377.75,221.52Z"/><path class="cls-16" d="M296.45,196.25l-39.6-22.86c-4.68-2.7-4.09-7.42,1.31-10.54h0c5.41-3.12,13.58-3.46,18.26-.76L316,185c4.68,2.7,4.09,7.42-1.31,10.54h0C309.3,198.62,301.13,199,296.45,196.25Z"/><path class="cls-33" d="M314.71,195.5c-5.41,3.12-13.58,3.45-18.26.75l-39.6-22.86c-2-1.17-3.07-2.73-3.15-4.37h0v11.77c0,1.68,1.08,3.28,3.15,4.48l39.6,22.86c4.68,2.7,12.85,2.36,18.26-.76,3.05-1.76,4.56-4,4.46-6.16V189.43C319.22,191.53,317.71,193.76,314.71,195.5Z"/><path class="cls-5" d="M273.73,170a8.13,8.13,0,0,1-7.35,0c-2-1.17-2-3.07,0-4.25a8.13,8.13,0,0,1,7.35,0C275.76,166.88,275.76,168.78,273.73,170Z"/><path class="cls-5" d="M285.21,176.57a8.09,8.09,0,0,1-7.36,0c-2-1.17-2-3.07,0-4.24a8.16,8.16,0,0,1,7.36,0C287.24,173.5,287.24,175.4,285.21,176.57Z"/><path class="cls-5" d="M296.68,183.2a8.13,8.13,0,0,1-7.35,0c-2-1.17-2-3.07,0-4.25a8.13,8.13,0,0,1,7.35,0C298.71,180.13,298.71,182,296.68,183.2Z"/><path class="cls-5" d="M308.16,189.82a8.09,8.09,0,0,1-7.36,0c-2-1.17-2-3.07,0-4.24a8.16,8.16,0,0,1,7.36,0C310.19,186.75,310.19,188.65,308.16,189.82Z"/><path class="cls-34" d="M279.86,175.64h0a2.56,2.56,0,0,0,2.95-2.06l2.49-14.15a2.53,2.53,0,0,0-2.05-2.94h0a2.54,2.54,0,0,0-2.94,2l-2.5,14.15A2.55,2.55,0,0,0,279.86,175.64Z"/><path class="cls-34" d="M268.51,176.54h0a2.54,2.54,0,0,0,3.18,1.66l8.76-2.55a2.55,2.55,0,0,0,2.37-2.7h0a2.55,2.55,0,0,0-2.7-2.37l-9.95,2.78A2.54,2.54,0,0,0,268.51,176.54Z"/><path class="cls-35" d="M294.84,218.49c0,.34-.23.63-.68.92-.13.08,0-1.83-.43-1.51-.13.09-6.24,4.85-9.65,4a.73.73,0,0,1-.51-.74v-.77c-.05-.86,1.24-2.18,3.2-4.09,2.15-2.1,3.52-3.41,6.74-1.55.93.53,1.29.93,1.3,1.27Z"/><path class="cls-36" d="M286.77,216.28c-2.61,2.54-4,4-2.69,4.81s4-.39,6.75-2.46c2.4-1.82,5.91-2,2.68-3.9S288.92,214.18,286.77,216.28Z"/><path class="cls-37" d="M289.38,215.07l.19-23.42,7.75,2.51L296,198a28.2,28.2,0,0,1-1,10.27s-1.1,2.25-.89,7.5C294.12,215.74,291.28,217.36,289.38,215.07Z"/><path class="cls-35" d="M287.37,212.35c0,.34-.24.63-.68.92-.13.08,0-1.83-.43-1.51-.13.09-6.24,4.85-9.65,4a.71.71,0,0,1-.51-.73v-.77c-.05-.86,1.24-2.18,3.19-4.09,2.16-2.1,3.53-3.41,6.75-1.55.92.53,1.29.93,1.3,1.27Z"/><path class="cls-36" d="M279.29,210.14c-2.6,2.54-4,4-2.68,4.81s4-.39,6.75-2.46c2.4-1.82,5.9-2,2.68-3.9S281.45,208,279.29,210.14Z"/><path class="cls-38" d="M281.91,208.93l.19-23.42,7.74,2.51-1.32,3.81a28.21,28.21,0,0,1-1,10.27s-1.11,2.25-.89,7.5C286.65,209.6,283.81,211.22,281.91,208.93Z"/><path class="cls-26" d="M300.05,186.18v8.65s-10.13,3.42-19.66-8.65v-8.37Z"/><path class="cls-39" d="M295.24,189.51a.76.76,0,0,1-.33.11c-1.7.13-7.8-1.2-13.91-8.08a3.18,3.18,0,0,1-.83-2V160a3.21,3.21,0,0,1,1.37-3l4.59-2.68a3.23,3.23,0,0,1,3.28.3l6.26,3.62a10.21,10.21,0,0,1,4.6,8v19.65a1,1,0,0,1-.44.94Z"/><path class="cls-40" d="M293.46,159.48a1.6,1.6,0,0,1-.95,1.35,5.06,5.06,0,0,1-4.58,0,1.6,1.6,0,0,1-.95-1.35v-4.25a1.6,1.6,0,0,1,.95-1.35,5.06,5.06,0,0,1,4.58,0,1.6,1.6,0,0,1,.95,1.35Z"/><path class="cls-34" d="M293.2,153.45c0,1.06.75,1.49,1.67,1a3.7,3.7,0,0,0,1.67-2.89c0-1.06-.75-1.5-1.67-1A3.68,3.68,0,0,0,293.2,153.45Z"/><path class="cls-41" d="M284.51,164.92s-8.63-7.84-3.37-21.8l4.05,14.49Z"/><circle class="cls-37" cx="290.27" cy="148.37" r="8.92" transform="translate(-26.39 70.95) rotate(-13.33)"/><path class="cls-41" d="M287.62,164.92s6.64-7.31,2-20.85l-8.26,2.84s-2.84-7,6.5-9.07c0,0,6.23-1.36,8.4,3.79,0,0,5,.41,3.11,10.7C299.4,152.33,299.13,162.07,287.62,164.92Z"/><path class="cls-34" d="M293.48,181.35h0a2.55,2.55,0,0,0,3.13-1.77L300.53,165a2.55,2.55,0,0,0-1.76-3.13h0a2.56,2.56,0,0,0-3.13,1.77l-3.92,14.62A2.55,2.55,0,0,0,293.48,181.35Z"/><path class="cls-34" d="M279.24,181.86h0a2.55,2.55,0,0,0,3,1.95l11.82-2.4a2.54,2.54,0,0,0,2.61-2.46h0a2.54,2.54,0,0,0-2.46-2.61l-13,2.51A2.54,2.54,0,0,0,279.24,181.86Z"/><path class="cls-16" d="M118.93,241.54V154a6.21,6.21,0,0,1,3.1-5.38L227.28,87.84a6.21,6.21,0,0,1,9.32,5.38v87.56a6.21,6.21,0,0,1-3.1,5.38L128.25,246.92A6.21,6.21,0,0,1,118.93,241.54Z"/><path class="cls-42" d="M125.15,245.68a4.15,4.15,0,0,1-4.14-4.14V154a4.12,4.12,0,0,1,2.07-3.57L228.32,89.64a4.12,4.12,0,0,1,6.2,3.58v87.56a4.12,4.12,0,0,1-2.07,3.57L127.21,245.12A4.12,4.12,0,0,1,125.15,245.68Z"/><path class="cls-43" d="M118.93,241.54V154a6.21,6.21,0,0,1,3.1-5.38L227.28,87.84a6.11,6.11,0,0,1,5.31-.42h0l-2.49-1.32a6.17,6.17,0,0,0-6.83-.41L118,146.44a6.22,6.22,0,0,0-3.11,5.39v87.55a6.12,6.12,0,0,0,2.56,5h0l.06,0a6.64,6.64,0,0,0,1.34.72l2.78,1.5A6.11,6.11,0,0,1,118.93,241.54Z"/><path class="cls-44" d="M122.81,247.3h0Z"/><path class="cls-16" d="M128.25,257.69l75.83,43.78a6.21,6.21,0,0,0,6.21,0L315.54,240.7a6.21,6.21,0,0,0,0-10.76l-75.83-43.78a6.21,6.21,0,0,0-6.21,0L128.25,246.92A6.22,6.22,0,0,0,128.25,257.69Z"/><path class="cls-45" d="M315.54,240.7,210.29,301.47a6.21,6.21,0,0,1-6.21,0l-75.83-43.78a6.17,6.17,0,0,1-3.11-5.38V258a6.16,6.16,0,0,0,3.11,5.38l75.83,43.78a6.21,6.21,0,0,0,6.21,0l105.25-60.76a6.14,6.14,0,0,0,3.09-5.1h0v-.05a3.23,3.23,0,0,0,0-.44v-5.25A6.12,6.12,0,0,1,315.54,240.7Zm3.09-5.66v0Z"/><path class="cls-46" d="M276.3,223.53l-90.37,52.18c-3.53,2-9.69,1.78-13.76-.57L145,259.43c-4.07-2.35-4.52-5.91-1-7.94l90.37-52.18c3.53-2,9.69-1.78,13.76.57l27.21,15.71C279.39,217.94,279.83,221.49,276.3,223.53Z"/><path class="cls-47" d="M144,252.74l90.37-52.18c3.53-2,9.69-1.78,13.76.57l27.21,15.71c1.93,1.12,3,2.51,3.3,3.88.36-1.74-.77-3.67-3.3-5.13l-27.21-15.71c-4.07-2.35-10.23-2.61-13.76-.57L144,251.49c-1.85,1.06-2.6,2.55-2.31,4.06A4.36,4.36,0,0,1,144,252.74Z"/><path class="cls-47" d="M216.92,223.17l-4.79-2.76-4.79,2.76,4.79,2.77Zm-9.42,5.44-4.79-2.77-4.8,2.77,4.8,2.77Zm18.84-10.88L221.55,215l-4.79,2.76,4.79,2.77Zm27.37,2.9,10-5.76-4.79-2.77-10,5.76Zm1.88-10.44-4.79-2.76L246,210.19,250.8,213Zm-19.83,2.1L231,209.53l-4.79,2.76,4.79,2.77Zm-37.68,21.76-4.79-2.77-4.8,2.77,4.8,2.77Zm49.2-15.24-82.59,47.68,4.79,2.77,82.59-47.68Zm-58.62,20.68-4.8-2.77-4.79,2.77,4.79,2.77Zm54.84-27.85-86.91,50.18,4.79,2.77,86.91-50.18ZM267,216.77l-94.21,54.4,4.8,2.76,94.21-54.39Zm-97.17,33.6L165,247.6l-4.79,2.77,4.79,2.77Zm9.42-5.44-4.8-2.77-4.79,2.77,4.79,2.77Z"/><path class="cls-48" d="M216.92,222.34l-4.79-2.77-4.79,2.77,4.79,2.77Zm-9.42,5.44L202.71,225l-4.8,2.77,4.8,2.76Zm18.84-10.88-4.79-2.77-4.79,2.77,4.79,2.77Zm27.37,2.9,10-5.77-4.79-2.76-10,5.76Zm1.88-10.44-4.79-2.77L246,209.36l4.79,2.77Zm-19.83,2.1L231,208.69l-4.79,2.77,4.79,2.77Zm-37.68,21.76-4.79-2.77-4.8,2.77,4.8,2.76ZM247.28,218l-82.59,47.69,4.79,2.77,82.59-47.69Zm-58.62,20.69-4.8-2.77-4.79,2.77,4.79,2.76Zm54.84-27.85L156.59,261l4.79,2.77,86.91-50.18ZM267,215.94l-94.21,54.39,4.8,2.77,94.21-54.39Zm-97.17,33.59-4.8-2.76-4.79,2.76L165,252.3Zm9.42-5.43-4.8-2.77-4.79,2.77,4.79,2.76Z"/><path class="cls-16" d="M221.55,214.55l4.43,2.56.36-.21-4.79-2.77-4.79,2.77.36.21Zm9.42-5.44,4.43,2.56.36-.21L231,208.69l-4.79,2.77.36.21ZM212.13,220l4.43,2.56.36-.21-4.79-2.77-4.79,2.77.36.21Zm37.15-2.75,9.62-5.56,4.43,2.56.36-.21-4.79-2.76-10,5.76Zm-46.57,8.19,4.43,2.56.36-.21L202.71,225l-4.8,2.77.37.21ZM250.8,207l4.43,2.56.36-.21-4.79-2.77L246,209.36l.36.21ZM267,215.94l-94.21,54.39.36.21L267,216.36l4.44,2.56.36-.21Zm-19.06-2.16.36-.21-4.79-2.76L156.59,261l.36.21,86.55-50ZM165,247.18l4.43,2.56.37-.21-4.8-2.76-4.79,2.76.36.21ZM251.71,221l.36-.21L247.28,218l-82.59,47.69.36.21,82.23-47.48Zm-77.27,20.8,4.44,2.55.36-.2-4.8-2.77-4.79,2.77.36.2Zm18.85-10.88,4.43,2.56.36-.21-4.79-2.77-4.8,2.77.36.21Zm-9.43,5.44,4.44,2.55.36-.2-4.8-2.77-4.79,2.77.36.2Z"/><path class="cls-46" d="M268.91,254.17l-28.16,16.26a7.66,7.66,0,0,1-6.85-.28l-6.19-3.57c-2-1.17-2.24-2.95-.49-4l28.16-16.26a7.63,7.63,0,0,1,6.85.29l6.19,3.57C270.44,251.38,270.66,253.16,268.91,254.17Z"/><path class="cls-47" d="M227.22,263.46l28.16-16.26a7.63,7.63,0,0,1,6.85.28l6.19,3.57a3.17,3.17,0,0,1,1.6,1.83c.25-.89-.29-1.91-1.6-2.66l-6.19-3.57a7.63,7.63,0,0,0-6.85-.29l-28.16,16.26a1.9,1.9,0,0,0-1.11,2.13A2.23,2.23,0,0,1,227.22,263.46Z"/><path class="cls-49" d="M219.61,119.72v-3.24c0-2.78-2-3.91-4.37-2.52l-75,43.28a9.64,9.64,0,0,0-4.37,7.56V168Z"/><g class="cls-50"><path class="cls-16" d="M143.64,159.44a3.88,3.88,0,0,1-1.76,3c-1,.57-1.76.11-1.76-1a3.88,3.88,0,0,1,1.76-3C142.85,157.87,143.64,158.32,143.64,159.44Z"/><path class="cls-16" d="M149.81,155.87a3.89,3.89,0,0,1-1.75,3c-1,.56-1.76.1-1.76-1a3.88,3.88,0,0,1,1.76-3C149,154.3,149.81,154.75,149.81,155.87Z"/><path class="cls-16" d="M156,152.31a3.87,3.87,0,0,1-1.75,3c-1,.56-1.76.11-1.76-1a3.87,3.87,0,0,1,1.76-3.05C155.21,150.73,156,151.19,156,152.31Z"/></g><polygon class="cls-51" points="149.18 176.03 135.92 183.69 135.92 171.63 149.18 163.98 149.18 176.03"/><polygon class="cls-29" points="165.73 166.47 152.48 174.13 152.48 162.07 165.73 154.42 165.73 166.47"/><polygon class="cls-26" points="182.29 156.91 169.03 164.57 169.03 152.51 182.29 144.86 182.29 156.91"/><polygon class="cls-52" points="186.85 154.28 219.61 135.37 219.61 132.83 186.85 151.75 186.85 154.28"/><polygon class="cls-53" points="186.85 149.52 219.61 130.61 219.61 128.07 186.85 146.99 186.85 149.52"/><polygon class="cls-54" points="186.85 144.76 219.61 125.85 219.61 123.31 186.85 142.23 186.85 144.76"/><path class="cls-49" d="M216.73,162.92l-77.93,45c-1.59.92-2.88-.06-2.88-2.17V191.27a6.91,6.91,0,0,1,2.88-5.5l77.93-45c1.59-.92,2.88.06,2.88,2.17v14.47A6.91,6.91,0,0,1,216.73,162.92Z"/><polygon class="cls-51" points="170.13 186.58 159.95 192.46 159.95 179.89 170.13 174.01 170.13 186.58"/><polygon class="cls-26" points="182.86 179.23 172.67 185.11 172.67 174.52 182.86 168.64 182.86 179.23"/><polygon class="cls-29" points="195.58 171.88 185.4 177.76 185.4 162.32 195.58 156.44 195.58 171.88"/><polygon class="cls-55" points="213.94 159.8 216.67 158.22 216.67 155.69 213.94 157.27 213.94 159.8"/><polygon class="cls-56" points="213.94 155.04 216.67 153.46 216.67 150.93 213.94 152.51 213.94 155.04"/><polygon class="cls-57" points="213.94 150.28 216.67 148.7 216.67 146.17 213.94 147.75 213.94 150.28"/><polygon class="cls-58" points="198.46 168.74 212.62 160.56 212.62 158.03 198.46 166.2 198.46 168.74"/><polygon class="cls-59" points="198.46 163.98 212.62 155.8 212.62 153.27 198.46 161.44 198.46 163.98"/><polygon class="cls-60" points="198.46 159.22 212.62 151.04 212.62 148.51 198.46 156.68 198.46 159.22"/><polygon class="cls-61" points="141.69 189.46 138.95 191.04 138.95 193.58 141.69 192 141.69 189.46"/><polygon class="cls-62" points="141.69 194.22 138.95 195.8 138.95 198.34 141.69 196.75 141.69 194.22"/><polygon class="cls-63" points="141.69 198.98 138.95 200.56 138.95 203.09 141.69 201.51 141.69 198.98"/><polygon class="cls-64" points="157.16 180.53 143.01 188.7 143.01 191.23 157.16 183.06 157.16 180.53"/><polygon class="cls-65" points="157.16 185.28 143.01 193.46 143.01 195.99 157.16 187.82 157.16 185.28"/><polygon class="cls-66" points="157.16 190.04 143.01 198.22 143.01 200.75 157.16 192.58 157.16 190.04"/><path class="cls-49" d="M214,176.78l-71.27,41.15c-1.48.85-2.69-.06-2.69-2h0a6.48,6.48,0,0,1,2.69-5.14L214,169.61c1.48-.85,2.69.06,2.69,2h0A6.48,6.48,0,0,1,214,176.78Z"/><path class="cls-67" d="M139.76,229.81l-67.62,39c-2.1,1.21-3.81-.08-3.81-2.87V202.05c0-2.79,1.71-6.06,3.81-7.27l67.62-39.05c2.09-1.2,3.81.09,3.81,2.88v63.93C143.57,225.33,141.85,228.6,139.76,229.81Z"/><g class="cls-50"><polygon class="cls-68" points="137.68 223.25 74.22 259.89 74.22 255.13 137.68 218.49 137.68 223.25"/><ellipse class="cls-69" cx="105.95" cy="205.67" rx="27.75" ry="16.02" transform="translate(-125.14 194.59) rotate(-60)"/></g><path class="cls-70" d="M278.61,131.8l-67.62,39c-2.09,1.21-3.81-.08-3.81-2.87V118.1c0-2.79,1.72-6.07,3.81-7.27l67.62-39c2.1-1.2,3.81.09,3.81,2.88v49.87C282.42,127.32,280.71,130.59,278.61,131.8Z"/><g class="cls-50"><polygon class="cls-71" points="276.53 123.38 213.07 160.02 213.07 155.26 276.53 118.62 276.53 123.38"/><polygon class="cls-72" points="276.53 113.63 213.07 150.27 213.07 145.51 276.53 108.87 276.53 113.63"/><polygon class="cls-73" points="231.4 128.31 214.36 138.15 214.36 118.47 231.4 108.63 231.4 128.31"/><polygon class="cls-74" points="253.32 115.65 236.28 125.49 236.28 105.81 253.32 95.97 253.32 115.65"/><polygon class="cls-75" points="275.25 102.99 258.2 112.83 258.2 93.15 275.25 83.31 275.25 102.99"/></g><path class="cls-10" d="M88.4,350,52.11,371c-2.65,1.53-7.31,1.34-10.37-.42l-34.8-20.1c-3.06-1.76-3.39-4.46-.75-6l36.3-21c2.64-1.53,7.31-1.33,10.36.43L87.66,344C90.71,345.78,91.05,348.47,88.4,350Z"/><path class="cls-76" d="M90.14,413.94V347.88h0A3.33,3.33,0,0,1,88.4,350L52.11,371a9.28,9.28,0,0,1-4.82,1v67a9.38,9.38,0,0,0,4.82-1L88.4,417A2.91,2.91,0,0,0,90.14,413.94Z"/><path class="cls-77" d="M41.74,370.53l-34.8-20.1a4.61,4.61,0,0,1-2.48-2.93v66.05c-.27,1.32.58,2.77,2.48,3.87l34.8,20.1A12.08,12.08,0,0,0,47.29,439V372A12.08,12.08,0,0,1,41.74,370.53Z"/><ellipse class="cls-78" cx="37.55" cy="327.46" rx="19.89" ry="34.46" transform="translate(-158.7 62.65) rotate(-30)"/><ellipse class="cls-14" cx="37.55" cy="327.46" rx="17.91" ry="31.02" transform="translate(-158.7 62.65) rotate(-30)"/><path class="cls-15" d="M50.22,292c-6.76-3.9-12.88-4.25-17.29-1.67l-12.54,7.24h0c4.4-2.5,10.47-2.12,17.16,1.74C51,307.09,61.92,326,61.92,341.52c0,7.74-2.71,13.18-7.08,15.74h0L67.38,350c4.45-2.53,7.2-8,7.2-15.81C74.58,318.67,63.68,299.78,50.22,292Z"/><path class="cls-16" d="M31.39,332.22a11.87,11.87,0,0,1,3.24.65L35,333a16.34,16.34,0,0,1,2,.89v-6.12L30.43,324A42.86,42.86,0,0,0,31.39,332.22Z"/><path class="cls-16" d="M44.29,321.71h.39l.28,0a7.41,7.41,0,0,0,2.23-.51A31.5,31.5,0,0,0,41.4,314a27.48,27.48,0,0,1,1.87,4.23Q43.85,319.93,44.29,321.71Z"/><path class="cls-16" d="M35.81,310.31c-1.21,0-2.33.83-3.25,2.41a11.85,11.85,0,0,0-.85,1.86,28.34,28.34,0,0,0,3.1,3l.31.25A20.88,20.88,0,0,0,37,319.21v-8.33l-.11-.06Q36.35,310.53,35.81,310.31Z"/><path class="cls-16" d="M34.81,334.13a11.07,11.07,0,0,0-3.1-.57c.25,1,.53,1.94.85,2.85a19.6,19.6,0,0,0,3.25,6.17c.36.26.72.51,1.08.73l.11.07v-8.33a15.45,15.45,0,0,0-1.88-.81Z"/><path class="cls-16" d="M34.63,318.66a30.53,30.53,0,0,1-3.24-3.12,27.47,27.47,0,0,0-1,7.2l6.57,3.8v-6.15a25,25,0,0,1-2-1.47Z"/><path class="cls-16" d="M30.6,314.63c-.18-.21-.35-.43-.53-.65l-.28-.36a36.55,36.55,0,0,1-2.31-3.34c-2.46,1.49-3.87,4.45-4,8.45l6.09,3.51A28.28,28.28,0,0,1,30.6,314.63Z"/><path class="cls-16" d="M30.92,333.58a2.22,2.22,0,0,0-.37,0l-.26,0a7.25,7.25,0,0,0-2.08.61,31.68,31.68,0,0,0,5.49,6.63,28.07,28.07,0,0,1-1.86-4.24C31.49,335.65,31.19,334.63,30.92,333.58Z"/><path class="cls-16" d="M30.07,332.27l.53,0a43.63,43.63,0,0,1-1-8.76l-6.09-3.52a29,29,0,0,0,4,13,7.85,7.85,0,0,1,2.32-.66Z"/><path class="cls-16" d="M30.55,313.21l.37.45a11.94,11.94,0,0,1,.92-2,6.08,6.08,0,0,1,1.86-2.08,8.33,8.33,0,0,0-5.47.31,33.44,33.44,0,0,0,2.06,3C30.37,313,30.46,313.1,30.55,313.21Z"/><path class="cls-16" d="M44.59,340l.55.66c.1.13.19.24.29.35a37.28,37.28,0,0,1,2.5,3.46c2.19-1.49,3.56-4.25,3.7-8.25l-6.09-3.51A28.73,28.73,0,0,1,44.59,340Z"/><path class="cls-16" d="M40.32,320.92a12,12,0,0,0,3.17.75c-.27-1.09-.59-2.16-.94-3.18a19.49,19.49,0,0,0-3.26-6.17c-.36-.26-.73-.51-1.09-.74l-.15-.09v8.35a16.56,16.56,0,0,0,2,1Z"/><path class="cls-16" d="M44.69,341.44l-.4-.47a12.22,12.22,0,0,1-1,2.27,6.1,6.1,0,0,1-1.87,2.08,8.25,8.25,0,0,0,5.81-.43A33.94,33.94,0,0,0,45,341.77Z"/><path class="cls-16" d="M45.42,323l-.28,0c-.18,0-.37,0-.55,0a44.54,44.54,0,0,1,.95,8.44L51.63,335a28.77,28.77,0,0,0-3.72-12.55A7.82,7.82,0,0,1,45.42,323Z"/><path class="cls-16" d="M43.78,323a13,13,0,0,1-3.32-.81l-.33-.14a18.91,18.91,0,0,1-2.08-1v6.12L44.68,331A41.88,41.88,0,0,0,43.78,323Z"/><path class="cls-16" d="M40.47,336.09a29.69,29.69,0,0,1,3.32,3,28.23,28.23,0,0,0,.89-6.91l-6.63-3.83v6.11a22,22,0,0,1,2.08,1.38Z"/><path class="cls-16" d="M43.48,340.08a27.65,27.65,0,0,0-3.17-2.91l-.31-.23a22.14,22.14,0,0,0-2-1.31V344l.15.08c.36.19.73.36,1.09.52,1.21,0,2.34-.83,3.26-2.41A12.39,12.39,0,0,0,43.48,340.08Z"/><path class="cls-35" d="M312.32,311.87c-.31.14-.43.52-.45,1,0,.16,1.57-.9,1.51-.36,0,.15-1.15,7.79,1.28,10.32a.72.72,0,0,0,.89.08l.67-.37c.77-.39,1.29-2.15,2-4.78.77-2.9,1.23-4.74-2-6.62-.91-.54-1.44-.66-1.74-.5Z"/><path class="cls-36" d="M318.2,317.8c-.92,3.5-1.53,5.47-2.85,4.69s-1.63-3.67-1.18-7.07c.4-3-1.12-6.12,2.07-4.24S319,314.9,318.2,317.8Z"/><path class="cls-38" d="M338.78,295.4l-6.55,2.4-2.66,3a28.14,28.14,0,0,0-8.43,5.88s-1.42,2.07-6.08,4.45c0,0,0,3.26,2.91,3.78l18.68-10.75A4.69,4.69,0,0,0,339,300.6,21.14,21.14,0,0,0,338.78,295.4Z"/><path class="cls-79" d="M325,328.41c0,.34.24.63.68.91.13.09,0-1.81.43-1.49.13.09,6.22,4.83,9.62,3.95a.71.71,0,0,0,.51-.73v-.76c0-.86-1.24-2.18-3.19-4.08-2.15-2.09-3.52-3.4-6.72-1.54-.92.52-1.29.92-1.29,1.26Z"/><path class="cls-36" d="M333.05,326.21c2.6,2.53,4,4,2.68,4.79s-4-.39-6.73-2.45c-2.39-1.81-5.88-2-2.67-3.88S330.9,324.12,333.05,326.21Z"/><path class="cls-37" d="M330.44,325l-.19-23.34-6.33,2-.06,4.26a28.11,28.11,0,0,0,1,10.23s1.11,2.24.89,7.47C325.72,325.67,328.55,327.28,330.44,325Z"/><path class="cls-38" d="M347.71,292.3h0a2.54,2.54,0,0,1-3.35-1.26l-10-22.13a2.54,2.54,0,0,1,1.26-3.35h0a2.53,2.53,0,0,1,3.35,1.26L349,289A2.55,2.55,0,0,1,347.71,292.3Z"/><polygon class="cls-80" points="348.68 289.78 333 280.73 333 268.07 348.68 277.13 348.68 289.78"/><polygon class="cls-81" points="344.82 286.37 344.82 276.77 345.16 276.96 345.16 286.56 344.82 286.37"/><polygon class="cls-81" points="344.06 283.09 344.06 276.33 344.4 276.52 344.4 283.28 344.06 283.09"/><polygon class="cls-81" points="343.3 284.75 343.3 275.89 343.64 276.09 343.64 284.94 343.3 284.75"/><polygon class="cls-81" points="342.55 285.05 342.55 275.45 342.88 275.65 342.88 285.25 342.55 285.05"/><polygon class="cls-81" points="341.79 278.53 341.79 275.02 342.12 275.21 342.12 278.73 341.79 278.53"/><path class="cls-29" d="M319.81,296.21v8.62s10.1,3.41,19.6-8.62v-8.34Z"/><path class="cls-82" d="M324.39,298.88a.68.68,0,0,0,.32.11c1.7.13,7.78-1.19,13.87-8.06a3.18,3.18,0,0,0,.83-2V269.49a3.23,3.23,0,0,0-1.37-3l-4.58-2.67a3.22,3.22,0,0,0-3.26.3L324,267.75a10.16,10.16,0,0,0-4.58,7.94v19.58a1,1,0,0,0,.44.94Z"/><path class="cls-40" d="M326.16,269a1.59,1.59,0,0,0,.94,1.34,5.1,5.1,0,0,0,4.57,0,1.59,1.59,0,0,0,.94-1.34v-4.25a1.59,1.59,0,0,0-.94-1.34,5.1,5.1,0,0,0-4.57,0,1.59,1.59,0,0,0-.94,1.34Z"/><path class="cls-34" d="M308.93,296.82h0a2.54,2.54,0,0,1-1.11-3.4l11-21.82a2.54,2.54,0,0,1,3.4-1.11h0a2.55,2.55,0,0,1,1.12,3.4l-11,21.81A2.54,2.54,0,0,1,308.93,296.82Z"/><path class="cls-83" d="M337.6,255.52l3.19,12.39a1.44,1.44,0,0,1-2,1.7l-7.35-3.06a1.45,1.45,0,0,1-.86-1.61L333,252.75a1.44,1.44,0,0,1,2.65-.47l1.74,2.85A1.49,1.49,0,0,1,337.6,255.52Z"/><path class="cls-34" d="M326.42,262.94c0,1.06-.74,1.49-1.66,1A3.67,3.67,0,0,1,323.1,261c0-1.06.74-1.49,1.66-1A3.67,3.67,0,0,1,326.42,262.94Z"/><circle class="cls-34" cx="329.35" cy="257.88" r="8.89"/><path class="cls-83" d="M320.71,259.07s7.51,4.12,11.17-6.6c0,0,2,4.53,6.84,3.53,0,0,0-7.05-7.27-8.42C331.45,247.58,318.59,246.3,320.71,259.07Z"/><path class="cls-83" d="M324.84,259.42l3.2,12.39a1.45,1.45,0,0,1-2,1.69l-7.34-3.05a1.46,1.46,0,0,1-.87-1.62l2.41-12.18a1.45,1.45,0,0,1,2.65-.48l1.75,2.86A1.34,1.34,0,0,1,324.84,259.42Z"/><path d="M253.88,297.44c-.06,1,1.5,2.49,3.88,3.87,3.17,1.82,4.29,4.14,8.21,1.88,1.12-.65,1.59-1.16,1.61-1.61v-2.43c.11-1.14-2.6-1.84-4.88-3.15-3.17-1.83-6.58-2.83-8.2-1.89a1.05,1.05,0,0,0-.62.9Z"/><path class="cls-79" d="M257.76,298.85c-3.16-1.83-4.89-3.8-3.26-4.74s5,.06,8.2,1.89,7.18,2.47,3.27,4.73S260.93,300.68,257.76,298.85Z"/><path d="M262.68,291.38c-.06,1,1.51,2.49,3.89,3.86,3.16,1.83,4.29,4.15,8.2,1.89,1.12-.65,1.59-1.16,1.62-1.61v-2.44c.11-1.13-2.61-1.83-4.88-3.15-3.17-1.83-6.58-2.82-8.21-1.88a1.06,1.06,0,0,0-.62.89Z"/><path class="cls-79" d="M266.57,292.78c-3.17-1.83-4.89-3.8-3.27-4.73s5,.05,8.21,1.88,7.18,2.48,3.26,4.74S269.73,294.61,266.57,292.78Z"/><path class="cls-84" d="M259.2,218.66h0a2.6,2.6,0,0,1,3.58.81l10.81,17.19a2.62,2.62,0,0,1-.82,3.59h0a2.6,2.6,0,0,1-3.58-.82l-10.81-17.19A2.6,2.6,0,0,1,259.2,218.66Z"/><path class="cls-85" d="M266.28,237.48l3.49,5.54a4,4,0,0,0,5.54,1.27h0a4,4,0,0,0,1.27-5.55l-3.49-5.54S268.72,231.55,266.28,237.48Z"/><path class="cls-86" d="M267.47,298a1.67,1.67,0,0,0,.18-.79V270.09c0-1.72-1.77-3.13-3.93-3.13h0c-2.17,0-3.94,1.41-3.94,3.13v29.53a1,1,0,0,0,.7.95C262,301,265.57,301.68,267.47,298Z"/><path class="cls-86" d="M276.3,291.67a1.67,1.67,0,0,0,.16-.79l-.59-27.16c0-1.72-1.84-3.08-4-3h0c-2.17.05-3.91,1.5-3.87,3.21l.65,29.53a1,1,0,0,0,.72.94C270.89,294.78,274.48,295.36,276.3,291.67Z"/><path class="cls-83" d="M261.08,275a.76.76,0,0,0,.33.11c1.74.13,8-1.23,14.26-8.28a3.31,3.31,0,0,0,.85-2v-20a3.27,3.27,0,0,0-1.41-3.05L270.4,239a3.27,3.27,0,0,0-3.35.31l-6.42,3.7a10.46,10.46,0,0,0-4.71,8.16v20.14a1,1,0,0,0,.45,1Z"/><path class="cls-37" d="M262.9,244.2a1.63,1.63,0,0,0,1,1.38,5.19,5.19,0,0,0,4.7,0,1.65,1.65,0,0,0,1-1.38v-4.36a1.65,1.65,0,0,0-1-1.37,5.19,5.19,0,0,0-4.7,0,1.63,1.63,0,0,0-1,1.37Z"/><circle class="cls-84" cx="266.22" cy="232.89" r="9.14"/><path class="cls-84" d="M250.39,273.3h0a2.62,2.62,0,0,1-1.62-3.3l6.87-18.58a2.61,2.61,0,0,1,3.3-1.63h0a2.61,2.61,0,0,1,1.63,3.3l-6.88,18.58A2.6,2.6,0,0,1,250.39,273.3Z"/><path class="cls-85" d="M260.88,256.58l2.11-6.2a4,4,0,0,0-2.51-5.1h0a4,4,0,0,0-5.1,2.5l-2.11,6.2S254.74,258.42,260.88,256.58Z"/><path class="cls-87" d="M271.37,241.22c-2.88,1.68-5.09.4-5.87-.82-2-3.05-2.3-1-3.47-2.45-1.54-2.53-1.2-6-3.33-7.57-3.07-2.29-2.23-6.85,5.77-8.89,10.74-2.73,15,10.8,8.27,18.62A4.35,4.35,0,0,1,271.37,241.22Z"/><path class="cls-84" d="M263,238.33a1,1,0,0,1-1.91-.51,3.77,3.77,0,0,1,.88-3.3c.78-.78,1.63-.55,1.91.51A3.78,3.78,0,0,1,263,238.33Z"/><path class="cls-84" d="M216.47,346.14h0a2.31,2.31,0,0,1-3.21-.55l-10.39-14.7a2.31,2.31,0,0,1,.56-3.21h0a2.3,2.3,0,0,1,3.21.55L217,342.93A2.31,2.31,0,0,1,216.47,346.14Z"/><path class="cls-5" d="M209.3,329.82,206,325.08a3.56,3.56,0,0,0-5-.86h0a3.57,3.57,0,0,0-.86,5l3.35,4.74S207.43,335.18,209.3,329.82Z"/><path class="cls-83" d="M197.61,348.65a1.44,1.44,0,0,0,.52.49l12.13,6.94c1.32.76,3.18,0,4.14-1.65h0c.95-1.66.65-3.65-.67-4.4l-13.95-8a.89.89,0,0,0-1,.12C197.72,343.12,195.64,345.58,197.61,348.65Z"/><path class="cls-83" d="M189.58,352.77a1.5,1.5,0,0,0,.52.48l12.13,6.94c1.32.76,3.18,0,4.14-1.65h0c.95-1.66.65-3.64-.67-4.4l-13.95-8a.89.89,0,0,0-1,.12C189.69,347.23,187.61,349.7,189.58,352.77Z"/><path class="cls-35" d="M208.54,373.64c-.1,1,2.31,1.63,4.33,2.8,2.81,1.62,5.84,2.5,7.28,1.67a1,1,0,0,0,.55-.79v-1.65c.05-.94-1.34-2.36-3.45-4.41-2.32-2.26-3.8-3.68-7.27-1.67-1,.57-1.39,1-1.4,1.36Z"/><path class="cls-88" d="M217.25,371.26c2.81,2.73,4.34,4.35,2.9,5.18s-4.32-.42-7.28-2.65c-2.58-2-6.36-2.2-2.89-4.2S214.93,369,217.25,371.26Z"/><path class="cls-83" d="M215,369.27a1.49,1.49,0,0,0,.16-.69V352.35c0-1.52-1.57-2.76-3.49-2.76h0c-1.92,0-3.49,1.24-3.49,2.76v18.33a.87.87,0,0,0,.62.84C210.15,371.93,213.32,372.51,215,369.27Z"/><path class="cls-89" d="M190.78,354.18a.63.63,0,0,0,.3.1c1.54.12,7.09-1.09,12.64-7.34a3,3,0,0,0,.75-1.8V327.39a2.91,2.91,0,0,0-1.25-2.7l-4.17-2.44a2.91,2.91,0,0,0-3,.27l-5.69,3.29a9.27,9.27,0,0,0-4.18,7.24v17.84a.91.91,0,0,0,.4.86Z"/><path class="cls-35" d="M200.23,377.32c-.1,1,2.31,1.63,4.33,2.79,2.81,1.62,5.83,2.5,7.27,1.67a.94.94,0,0,0,.55-.79v-1.65c.05-.93-1.34-2.35-3.44-4.41-2.33-2.26-3.81-3.67-7.28-1.67-1,.58-1.39,1-1.39,1.37Z"/><path class="cls-88" d="M208.94,374.93c2.8,2.74,4.33,4.35,2.89,5.18s-4.32-.42-7.27-2.65c-2.59-1.95-6.37-2.19-2.9-4.2S206.61,372.67,208.94,374.93Z"/><path class="cls-83" d="M206.69,373a1.53,1.53,0,0,0,.16-.7V356c0-1.52-1.57-2.77-3.49-2.77h0c-1.92,0-3.49,1.25-3.49,2.77v18.33a.88.88,0,0,0,.62.84C201.83,375.6,205,376.18,206.69,373Z"/><path class="cls-37" d="M191.41,326.91a1.45,1.45,0,0,0,.86,1.22,4.56,4.56,0,0,0,4.16,0,1.43,1.43,0,0,0,.86-1.22v-3.86a1.44,1.44,0,0,0-.86-1.23,4.62,4.62,0,0,0-4.16,0,1.46,1.46,0,0,0-.86,1.23Z"/><circle class="cls-84" cx="194.35" cy="316.88" r="8.1"/><path class="cls-90" d="M190,323.23a6.66,6.66,0,0,0,1.67-2.7,1.36,1.36,0,0,0,0-.2v-3.88a4.19,4.19,0,0,1,.59-2.19,1.8,1.8,0,0,1,1.58-1s6.5,2.83,8.94-2.46a.71.71,0,0,0-.47-1c-.46-.11-1.08-.51-1.76-1.62a.71.71,0,0,0-.76-.33,2.88,2.88,0,0,1-2.92-1.07.66.66,0,0,0-.54-.23c-1.23,0-5.51.23-7.84,1.91l-.05,0c-.5.41-8.54,7.26.57,14.77A.73.73,0,0,0,190,323.23Z"/><path class="cls-84" d="M191.65,321.43c0,1-.68,1.36-1.52.87a3.34,3.34,0,0,1-1.51-2.62c0-1,.68-1.36,1.51-.88A3.36,3.36,0,0,1,191.65,321.43Z"/><polygon class="cls-91" points="214.64 349.12 200.2 357.43 189.12 351.39 203.9 342.94 214.64 349.12"/><polygon class="cls-92" points="214.64 349.12 216.91 334.64 200.88 343.89 200.2 357.43 214.64 349.12"/><path class="cls-84" d="M202,351.59h0a2.3,2.3,0,0,1-3.21-.54l-10.45-14.66a2.31,2.31,0,0,1,.54-3.21h0a2.33,2.33,0,0,1,3.22.54l10.44,14.66A2.3,2.3,0,0,1,202,351.59Z"/><path class="cls-5" d="M194.33,335.94l-2.91-5a3.57,3.57,0,0,0-4.87-1.29h0a3.58,3.58,0,0,0-1.3,4.87l2.91,5S192,341.11,194.33,335.94Z"/></g></g></svg>