<?xml version="1.0" encoding="utf-8"?>
<svg width="501px" height="328px" viewBox="0 0 501 328" version="1.1" xmlns:xlink="http://www.w3.org/1999/xlink" xmlns="http://www.w3.org/2000/svg">
  <desc>Created with Lunacy</desc>
  <defs>
    <path d="M0 0L500 0L500 326.512L0 326.512L0 0Z" id="path_1" />
    <clipPath id="mask_1">
      <use xlink:href="#path_1" />
    </clipPath>
  </defs>
  <g id="vision" transform="translate(0.5 0.5)">
    <path d="M0 0L500 0L500 326.512L0 326.512L0 0Z" id="Background" fill="none" stroke="none" />
    <g clip-path="url(#mask_1)">
      <g id="Group" transform="translate(0.010894775 0)">
        <g id="Objects">
          <path d="M364.963 17.4112C332.273 6.99792 293.594 2.03645 259.304 0.343706C196.58 -2.6012 134.426 13.4324 80.9556 46.3512C52.5269 63.9206 26.3864 86.9069 11.5358 116.827C-25.696 191.927 32.8544 260.745 106.349 275.373C143.406 282.751 181.63 279.669 219.352 277.287C268.387 274.182 317.551 272.291 366.551 275.63C385.231 276.914 404.238 278.922 422.521 274.859C465.322 265.322 495.304 222.489 499.46 178.84C502.748 142.003 490.923 105.411 466.7 77.4625C456.21 65.7055 444.009 55.5952 430.507 47.4719C409.957 34.8353 387.948 24.7412 364.963 17.4112L364.963 17.4112Z" transform="translate(0 46.504303)" id="Shape" fill="#B4A7D7" stroke="none" />
          <path d="M8.90728 16.5071L0 22.5659L13.8571 26.2433L13.8571 37.964L20.628 29.7105L35.9794 33.6213L51.1674 0L8.90728 16.5071L8.90728 16.5071Z" transform="translate(412.53876 106.829315)" id="Polygon" fill="#A7A9AC" stroke="none" />
          <path d="M0 0L0 11.0553L9.47934 1.01565L0 0L0 0Z" transform="translate(424.90155 129.3953)" id="Polygon" fill="#FFFFFF" stroke="none" />
          <path d="M0 30.0724L37.322 0L19.5307 35.0922L0 30.0724L0 30.0724Z" transform="translate(427.28302 100.33853)" id="Polygon" fill="#FFFFFF" stroke="none" />
          <path d="M52.6967 0L0 23.5232L15.3747 30.0724L52.6967 0L52.6967 0Z" transform="translate(411.9084 100.33853)" id="Polygon" fill="#FFFFFF" stroke="none" />
          <path d="M2.38148 30.0724L0 29.0567L39.7035 0L2.38148 30.0724L2.38148 30.0724Z" transform="translate(424.90155 100.33853)" id="Polygon" fill="#19365A" stroke="none" />
          <path d="M115.351 10.4492C104.191 20.4188 88.5711 24.1545 73.6166 23.9094C67.0908 23.8043 60.4599 22.9754 54.5529 20.2087C51.4206 18.8801 48.7202 16.7052 46.7546 13.928C44.7953 11.0905 44.396 7.45725 45.6923 4.26191C47.1165 1.2033 50.8522 -0.792964 54.0626 0.304401C57.4947 1.47181 59.1641 5.69782 58.4287 9.25841C57.6932 12.819 55.1249 15.7258 52.2764 17.9789C45.1319 23.6409 35.851 26.1508 26.7336 26.3025C17.6162 26.4543 8.61546 24.2129 0 21.201" transform="translate(307.0987 137.51956)" id="Shape" fill="none" stroke="#244E80" stroke-width="0.85" stroke-linecap="round" stroke-linejoin="round" stroke-dasharray="2.83 2.83" />
          <path d="M70.2639 29.9484C71.5504 29.9973 72.8344 29.7991 74.0463 29.3647C74.9346 28.9651 75.7298 28.3846 76.3811 27.6603C80.934 22.7455 79.2413 13.6514 73.2408 10.6161C67.2403 7.58088 58.9401 11.8653 57.796 18.4611C57.2932 16.3309 55.5011 14.7497 53.3249 14.516C51.1486 14.2824 49.0618 15.4472 48.1182 17.4221C46.7173 12.1221 44.3475 6.91546 40.1098 3.41324C35.8721 -0.088977 29.4631 -1.25638 24.8168 1.62711C18.9798 5.32779 18.1626 13.5113 18.6295 20.4457C18.326 15.8578 9.22025 20.8193 8.32135 23.084C4.58565 20.3406 -2.50051 23.2825 0.896645 27.8354C3.75679 31.6645 13.6214 30.929 17.6489 30.9173C35.2417 30.8239 52.7528 30.4037 70.2639 29.9484L70.2639 29.9484Z" transform="translate(95.49686 105.52911)" id="Shape" fill="#FFFFFF" stroke="none" />
          <path d="M70.2649 29.9457C71.5518 30.0005 72.8369 29.8022 74.0473 29.362C74.9375 28.9657 75.7334 28.3848 76.3821 27.6576C80.935 22.7428 79.2423 13.5903 73.2418 10.6251C67.2413 7.65992 58.9411 11.8626 57.797 18.4584C57.2876 16.3306 55.4944 14.7535 53.3189 14.5202C51.1434 14.2869 49.0565 15.4479 48.1075 17.4194C46.7183 12.1194 44.3368 6.91278 40.0992 3.41057C35.8615 -0.0916523 29.4524 -1.25906 24.8178 1.63611C18.9808 5.33679 18.1636 13.5086 18.6189 20.443C18.3154 15.8551 9.22129 20.8283 8.31071 23.0814C4.575 20.338 -2.49948 23.2798 0.897678 27.8327C3.74615 31.6618 13.6107 30.9263 17.65 30.9147C35.161 30.8213 52.7188 30.4127 70.2649 29.9457L70.2649 29.9457Z" transform="translate(332.88788 17.602753)" id="Shape" fill="#D7EFF9" stroke="none" />
          <path d="M9.40927 0L27.7958 1.52588e-05C32.9924 3.05176e-05 37.205 4.21269 37.205 9.40924L37.2051 54.3541L3.05176e-05 54.3541L0 9.40924C6.10352e-05 4.21268 4.21271 0 9.4093 3.05176e-05L9.40927 0Z" transform="matrix(0.9940753 0.108693376 -0.108693376 0.9940753 296.95062 264.81186)" id="Shape" fill="#19365A" stroke="none" />
          <path d="M31.0554 34.5981C27.5004 33.5183 24.2837 31.5401 21.7162 28.8545C15.564 22.5972 12.6805 13.0711 13.1591 0.533185L13.1591 0.533185C8.81062 0.0527805 4.43242 -0.103281 0.0607786 0.0662117C-0.744699 21.0095 6.60996 32.7536 13.0307 38.9175C17.2809 43.1285 22.5819 46.1236 28.3821 47.5913C28.8196 47.6841 29.2656 47.731 29.7129 47.7314C32.8621 47.7322 35.5806 45.5252 36.227 42.4431C36.5984 40.7154 36.2597 38.911 35.2871 37.4356C34.3145 35.9603 32.7896 34.9378 31.0554 34.5981L31.0554 34.5981Z" transform="translate(255.91711 230.21634)" id="Shape" fill="#A05E47" stroke="none" />
          <path d="M19.6358 22.9045C20.0892 22.9966 20.5506 23.0435 21.0133 23.0446C24.5267 23.0698 27.4859 20.4252 27.854 16.931C28.2221 13.4369 25.879 10.2336 22.4375 9.52607C18.7519 8.42208 15.4167 6.37836 12.7598 3.59563C11.6731 2.48795 10.6884 1.28455 9.81789 0L0 9.71285C1.15862 11.2132 2.42678 12.6258 3.79405 13.9388C8.18395 18.2822 13.6522 21.377 19.6358 22.9045L19.6358 22.9045Z" transform="translate(264.7918 255.21829)" id="Shape" fill="#E59B39" stroke="none" />
          <path d="M12.8686 2.06211C12.8329 1.49836 12.6475 0.954325 12.3315 0.486105C11.991 0.0123267 11.3529 -0.137215 10.8373 0.135861C10.1251 0.626188 10.5104 1.77024 10.1485 2.55242C9.82568 3.12754 9.23106 3.49752 8.57249 3.53304C7.92177 3.55634 7.27023 3.53293 6.62288 3.463C3.40697 3.4703 0.651394 5.76498 0.0620969 8.92645C-0.0732123 9.50141 0.0143753 10.1063 0.307278 10.6192C0.824307 11.1574 1.534 11.4682 2.28018 11.4831C4.23518 11.8434 6.22431 11.9844 8.21059 11.9033C9.99674 11.7516 12.9503 11.2613 13.2421 9.19495C13.4389 6.81135 13.3133 4.4121 12.8686 2.06211L12.8686 2.06211Z" transform="translate(255.81073 221.62454)" id="Shape" fill="#A05E47" stroke="none" />
          <path d="M0.272079 6.82909C0.184723 6.7285 0.102889 6.62327 0.0268979 6.51387C-0.0296412 6.40326 0.00546865 6.26787 0.108643 6.19868C0.160675 6.1653 0.224268 6.15514 0.284103 6.17066C0.343937 6.18617 0.394598 6.22595 0.423847 6.28041C0.551443 6.55738 0.810768 6.75076 1.11261 6.79407C1.61459 6.79407 2.17496 6.24538 2.35006 6.02357C2.38802 5.97138 2.44898 5.9409 2.5135 5.94185C2.56909 5.91637 2.633 5.91637 2.6886 5.94185C2.93829 6.24617 3.32453 6.40419 3.71592 6.36211C4.15954 6.25705 4.38135 5.67335 4.38135 5.67335C4.41074 5.59208 4.48258 5.53371 4.56814 5.52158C4.65788 5.5169 4.743 5.5617 4.78995 5.63833C4.9129 5.90672 5.14775 6.1074 5.43203 6.18701C5.58631 6.20979 5.74363 6.17668 5.87565 6.09363C7.7435 4.7511 5.46705 0.384997 5.44371 0.338309C5.40404 0.267412 5.40524 0.180733 5.44683 0.110941C5.48841 0.0411663 5.56408 -0.00112223 5.64531 1.78132e-05C5.72655 0.00115786 5.80099 0.0455484 5.84061 0.116481C5.94569 0.314955 8.32721 4.89119 6.14415 6.45551C5.91849 6.61903 5.63715 6.68623 5.36197 6.6423C5.07081 6.582 4.81033 6.42074 4.62653 6.18701C4.44573 6.48754 4.15797 6.70856 3.82098 6.80574C3.36147 6.89227 2.88832 6.75335 2.54853 6.43216C2.18807 6.87613 1.65974 7.15087 1.08928 7.19096C0.779666 7.18352 0.485695 7.05334 0.272079 6.82909L0.272079 6.82909Z" transform="translate(258.50763 225.22787)" id="Shape" fill="#632A1A" stroke="none" />
          <path d="M1.41394 6.03923C1.37912 6.0101 1.35795 5.96781 1.35557 5.92248C1.08128 4.02226 0.63586 2.15069 0.0247069 0.330649C-0.00313512 0.276692 -0.00764186 0.213705 0.012202 0.156346C0.0320638 0.0989879 0.0745661 0.0522639 0.129787 0.0270761C0.182265 -0.00154975 0.244094 -0.00776656 0.301239 0.00981507C0.358366 0.0273967 0.405998 0.0673161 0.433306 0.120488C1.066 1.98523 1.52707 3.90385 1.81084 5.85244C1.81896 5.97586 1.73387 6.086 1.6124 6.10929C1.53849 6.12313 1.4628 6.09641 1.41394 6.03923L1.41394 6.03923Z" transform="translate(261.52173 225.10721)" id="Shape" fill="#632A1A" stroke="none" />
          <path d="M1.48992 5.88823C1.46356 5.85317 1.44377 5.81361 1.43155 5.77148C1.12264 3.92487 0.653919 2.10858 0.030692 0.343082C-0.0319567 0.233228 0.00427515 0.0934659 0.112383 0.0278598C0.225265 -0.0327941 0.36597 0.00887098 0.427604 0.121237C1.08576 1.92812 1.57429 3.79232 1.88684 5.68975C1.90814 5.81519 1.8251 5.93459 1.70007 5.95827C1.62253 5.97407 1.54246 5.94738 1.48991 5.88823L1.48992 5.88823Z" transform="translate(259.37946 225.66678)" id="Shape" fill="#632A1A" stroke="none" />
          <path d="M0.105223 5.62804C0.0676903 5.56303 0.0676903 5.48294 0.105223 5.41792C0.199223 5.09969 0.424204 4.8365 0.723948 4.69413C0.461007 4.11994 0.253821 3.52181 0.105223 2.908C-0.0558445 2.24491 -0.0316185 1.55032 0.175264 0.900065C0.253037 0.629322 0.411949 0.388933 0.630553 0.2113C1.00226 -0.0376571 1.47871 -0.0688302 1.87969 0.129573C2.22853 0.307705 2.53199 0.563271 2.76689 0.876712C3.42262 1.68456 3.89647 2.62426 4.15613 3.63179C4.1699 3.69072 4.159 3.75274 4.12594 3.80344C4.09288 3.85413 4.04052 3.88912 3.98103 3.90029C3.85886 3.93018 3.73499 3.85793 3.70086 3.73687C3.47027 2.79322 3.02704 1.91474 2.40502 1.16856C2.21951 0.909293 1.97556 0.697333 1.69292 0.54984C1.45303 0.402471 1.15063 0.402471 0.910738 0.54984C0.765684 0.676937 0.660301 0.843099 0.6072 1.02848C0.441466 1.60438 0.441466 2.21534 0.6072 2.79124C0.753749 3.39283 0.957016 3.97917 1.21426 4.54237C1.26481 4.64955 1.26483 4.77371 1.21429 4.88089C1.16244 4.9772 1.07412 5.04871 0.969112 5.07936C0.777067 5.15411 0.630482 5.31362 0.572197 5.5113C0.558605 5.57129 0.520734 5.62293 0.467615 5.65393C0.414496 5.6849 0.350903 5.69246 0.291995 5.67475C0.225979 5.69787 0.152553 5.67951 0.105205 5.62804L0.105223 5.62804Z" transform="translate(265.07184 224.8179)" id="Shape" fill="#632A1A" stroke="none" />
          <path d="M0.0079625 14.8652L3.20666 56.2264C10.23 59.5028 18.0393 60.7174 25.726 59.7286C38.9176 58.1876 41.8011 52.3623 41.8011 52.3623C41.8011 52.3623 39.5246 11.7832 39.1394 11.3746C38.7542 10.966 37.2015 -2.35405 18.1261 0.36599C-0.949319 3.08603 0.0079625 14.8652 0.0079625 14.8652L0.0079625 14.8652Z" transform="translate(275.92096 259.5336)" id="Shape" fill="#FBB040" stroke="none" />
          <path d="M0 0C0 0 10.5767 17.838 3.77073 37.6488C3.77073 37.6488 14.6626 21.9823 14.2774 16.8106C13.8922 11.639 0 0 0 0L0 0Z" transform="translate(303.5147 276.0215)" id="Shape" fill="#D38E33" stroke="none" />
          <path d="M27.5341 27.4395L11.9726 2.72553C9.9274 -0.0854499 6.05627 -0.835457 3.10929 1.00832C0.162314 2.85211 -0.85628 6.66137 0.777119 9.72997L14.3891 31.4904L4.80468 52.3636C4.80468 52.3636 9.47431 58.0489 16.8289 57.8855L27.9193 33.7669C28.8793 31.7303 28.734 29.3447 27.5341 27.4395L27.5341 27.4395Z" transform="translate(300.49615 262.69595)" id="Shape" fill="#A05E47" stroke="none" />
          <path d="M14.4642 0L10.3315 10.7051L3.66565 13.2968L0 8.52207L2.48658 2.08965L14.4642 0L14.4642 0Z" transform="translate(288.22168 252.67337)" id="Polygon" fill="#A05E47" stroke="none" />
          <path d="M10.7752 0.455286L1.31918 0L0 3.42048C4.91481 4.61123 10.7752 0.455286 10.7752 0.455286L10.7752 0.455286Z" transform="translate(288.49017 257.0978)" id="Shape" fill="#774031" stroke="none" />
          <path d="M0 13.9271L0 7.36629C0 5.33215 0.719177 3.59589 2.15753 2.15753C3.59592 0.719185 5.33215 7.62939e-06 7.36633 0L12.1176 1.52588e-05C14.1518 7.62939e-06 15.888 0.719177 17.3264 2.15754C18.7647 3.59589 19.4839 5.33215 19.4839 7.36629L19.4839 20.4879C19.4839 22.522 18.7647 24.2583 17.3264 25.6966C15.888 27.135 14.1518 27.8542 12.1176 27.8542L7.36633 27.8542C5.33215 27.8542 3.59592 27.135 2.15756 25.6966C0.719177 24.2583 3.05176e-05 22.522 0 20.4879L0 13.9271Z" transform="matrix(0.93295354 0.3599968 -0.3599968 0.93295354 290.75287 229.43753)" id="Rectangle" fill="#A05E47" stroke="none" />
          <path d="M13.2384 2.20159L8.84896 0.485499C5.58827 -0.755387 1.90361 0.445277 0 3.36899C0.62494 4.41851 1.51991 5.28124 2.59168 5.86722C4.67438 6.82536 6.99943 7.12669 9.25756 6.73113C10.1291 6.54316 11.0285 6.52336 11.9076 6.67274C12.8025 6.84211 13.4753 7.58647 13.5536 8.49391C13.4645 9.22984 13.0312 9.87974 12.3862 10.245C11.982 10.4609 11.6153 10.7409 11.3005 11.0739C10.9673 11.5597 10.7809 12.1311 10.7635 12.7199C10.4079 14.5879 10.6659 16.5208 11.499 18.2301C12.0592 19.09 12.7619 19.848 13.577 20.4715L14.0089 20.81L17.5111 11.7276C18.9575 7.91733 17.0459 3.65538 13.2384 2.20159L13.2384 2.20159Z" transform="translate(288.82867 231.59482)" id="Shape" fill="#171E26" fill-opacity="0.3" stroke="none" />
          <path d="M4.49544 3.22175C4.01082 4.40284 2.66742 4.97568 1.47964 4.50774C0.291851 4.03981 -0.299867 2.70463 0.151234 1.51037C0.602371 0.316096 1.92906 -0.294417 3.12956 0.139816C3.72798 0.356264 4.21214 0.807616 4.46997 1.3894C4.72783 1.97119 4.73703 2.63303 4.49544 3.22175L4.49544 3.22175Z" transform="translate(301.62256 249.35825)" id="Shape" fill="#A05E47" stroke="none" />
          <path d="M11.9725 2.72553C9.9274 -0.0854499 6.05627 -0.835457 3.10929 1.00832C0.162314 2.85211 -0.85628 6.66137 0.777119 9.72996L7.78155 20.867C11.9492 19.3173 15.9095 17.2588 19.5724 14.7381L11.9725 2.72553Z" transform="translate(300.46112 262.69595)" id="Shape" fill="#FBB040" stroke="none" />
          <path d="M13.0116 8.93439C12.7171 9.69256 12.2399 10.3663 11.6224 10.8956C10.981 11.4218 10.0573 11.4218 9.41595 10.8956C9.1241 10.5921 8.96064 10.1368 8.57542 9.98505C8.19019 9.83328 7.58311 10.1952 7.08114 10.3353C6.07779 10.549 5.07366 9.97661 4.74633 9.0044C4.67828 8.68978 4.52006 8.40178 4.29102 8.17555C3.70732 7.77863 2.82008 8.54913 2.23638 8.17555C1.65267 7.80197 1.92119 7.10152 1.48922 6.77465C1.25572 6.59954 0.928851 6.61119 0.660371 6.49448C0.212511 6.25194 -0.0454237 5.76371 0.00662651 5.25703C0.0657307 4.76856 0.220421 4.29651 0.461932 3.86782L1.47757 1.7665C1.65599 1.33645 1.90893 0.94125 2.22473 0.599094C3.05329 0.0400085 4.08132 -0.138409 5.04983 0.108803C6.93329 0.285581 8.76883 0.803803 10.4667 1.63807C11.8936 2.34824 13.0705 3.47618 13.8404 4.8718C14.5175 6.0976 13.5836 7.7553 13.0116 8.93439L13.0116 8.93439Z" transform="translate(303.4146 313.97012)" id="Shape" fill="#A05E47" stroke="none" />
          <path d="M9.45599 0.000124692L27.8426 0.000124692C33.0392 0.000124692 37.2519 4.2128 37.2519 9.40941L37.2519 54.4129L0 54.4129L0 9.39775C0.0032331 6.89554 1.00249 4.49823 2.77696 2.73493C4.55143 0.971639 6.95503 -0.0124514 9.45659 0.000124692L9.45599 0.000124692Z" transform="translate(44.350555 268.50327)" id="Shape" fill="#19365A" stroke="none" />
          <path d="M3.72327 0.659481C7.01471 -0.929066 10.9708 0.450585 12.5605 3.74145L22.8571 25.0232L47.0224 16.0225C48.2948 24.1944 51.692 27.825 51.692 27.825L21.9115 39.5108C18.6967 40.7395 15.0762 39.3045 13.5762 36.207L0.64132 9.45005C-0.915919 6.17051 0.459073 2.24865 3.72327 0.659481L3.72327 0.659481Z" transform="translate(78.22943 267.8439)" id="Shape" fill="#A05E47" stroke="none" />
          <path d="M13.8221 24.2998C15.3267 24.8681 16.987 24.8681 18.4917 24.2998L29.512 19.9453C25.8815 17.001 22.8261 13.4113 20.4996 9.35694L19.4373 9.75387L15.4448 1.51198C11.5456 0.157789 4.5879 -0.0406675 0 0.00603868L10.1564 21.0194C10.9086 22.5454 12.2223 23.721 13.8221 24.2998L13.8221 24.2998Z" transform="translate(81.70755 283.1016)" id="Shape" fill="#7F4637" stroke="none" />
          <path d="M0.303528 19.015L6.22228 26.6498L16.0518 21.1164L7.63484 3.72201C6.30822 0.982131 3.27884 -0.49396 0.303528 0.149756L0 0.313192L0.303528 19.015Z" transform="translate(83.16681 267.80496)" id="Shape" fill="#D3AFA5" stroke="none" />
          <path d="M7.52002 0.171256C8.03383 -0.00648401 8.58519 -0.0467241 9.11936 0.0545084C9.64843 0.190833 10.0122 0.675851 9.99492 1.22192C9.81981 2.0391 8.66409 2.12082 8.10373 2.73955C7.70906 3.23794 7.60285 3.9061 7.82355 4.50233C8.04354 5.08829 8.30492 5.65787 8.60571 6.20677C9.81582 9.05359 8.83653 12.3587 6.2709 14.0868C5.8102 14.4236 5.23737 14.57 4.67154 14.4953C3.97111 14.3436 3.50414 13.6782 3.16559 13.0594C2.10899 11.4597 1.23943 9.7441 0.573941 7.94617C0.0369446 6.31183 -0.593456 3.49837 1.09928 2.47105C3.12877 1.4247 5.28774 0.651412 7.52002 0.171256L7.52002 0.171256Z" transform="translate(124.44437 281.1736)" id="Shape" fill="#A05E47" stroke="none" />
          <path d="M2.03006 7.46447C2.14676 7.50925 2.26817 7.54059 2.39196 7.55786C2.45088 7.56793 2.51138 7.55377 2.55974 7.5186C2.60809 7.48344 2.64019 7.43025 2.64879 7.37108C2.65881 7.31345 2.64436 7.25426 2.60891 7.20773C2.57345 7.1612 2.52022 7.13156 2.462 7.12591C2.16631 7.11343 1.89759 6.95044 1.74988 6.69398C1.63053 6.2253 1.70635 5.72824 1.96 5.31645C1.98271 5.26028 1.98271 5.19749 1.96 5.14135C1.93718 5.0863 1.8959 5.04092 1.84327 5.01295C1.37631 4.79112 1.11948 4.53429 1.07278 4.25413C1.07383 3.93055 1.20912 3.62192 1.44637 3.40191C1.48371 3.3327 1.48371 3.24934 1.44635 3.18013C1.42038 3.09889 1.35406 3.03699 1.27123 3.01668C0.983493 3.0124 0.711432 2.88486 0.524091 2.66645C0.447868 2.53619 0.422894 2.38219 0.454058 2.23452C0.944366 0.0631477 5.68404 0.460061 5.73073 0.460061C5.84908 0.466937 5.95192 0.379528 5.9642 0.261604C5.97072 0.203925 5.9531 0.146139 5.9155 0.101909C5.87792 0.0576791 5.82371 0.0309771 5.76575 0.028127C5.55561 0.028127 0.605818 -0.403807 0.0337916 2.11777C-0.0373543 2.3834 0.00491644 2.66665 0.15053 2.89993C0.322526 3.12954 0.564117 3.29743 0.839295 3.37857C0.632065 3.64743 0.539731 3.98741 0.582465 4.32417C0.680767 4.76004 0.979494 5.12371 1.38798 5.30478C1.13197 5.79532 1.08974 6.36976 1.27124 6.89247C1.43162 7.1821 1.70745 7.39003 2.03006 7.46445L2.03006 7.46447Z" transform="translate(126.37372 285.4844)" id="Shape" fill="#7F4637" stroke="none" />
          <path d="M0.181499 1.35999C0.223547 1.37141 0.267866 1.37141 0.309914 1.35999C2.09978 0.889549 3.92829 0.580902 5.7734 0.437774C5.86252 0.458633 5.95528 0.422597 6.00697 0.34707C6.05865 0.271543 6.05864 0.172039 6.00695 0.0965112C5.95526 0.0210016 5.86249 -0.0150164 5.77338 0.00584269C3.88036 0.133491 2.00392 0.442317 0.169831 0.928079C0.112499 0.941902 0.0630231 0.977991 0.0323488 1.02837C0.00167444 1.07874 -0.00765968 1.13927 0.00639494 1.19656C0.0342281 1.27657 0.099745 1.33773 0.181499 1.35997L0.181499 1.35999Z" transform="translate(127.42847 287.57303)" id="Shape" fill="#7F4637" stroke="none" />
          <path d="M0.144385 1.21411L0.2728 1.21411C2.02769 0.792046 3.81731 0.530245 5.61956 0.43197C5.73825 0.445882 5.84663 0.363282 5.86467 0.245145C5.8712 0.186255 5.8539 0.127186 5.81661 0.0811391C5.77933 0.035092 5.72518 0.00586054 5.66622 0C3.81301 0.0886028 1.97216 0.350474 0.167756 0.782177C0.0521659 0.816111 -0.0186326 0.932396 0.00430189 1.05066C0.02737 1.12163 0.0777902 1.18044 0.144385 1.21411L0.144385 1.21411Z" transform="translate(127.92084 289.6918)" id="Shape" fill="#7F4637" stroke="none" />
          <path d="M0.152722 1.28414C0.200684 1.30719 0.256528 1.30719 0.30449 1.28414C1.67953 0.766025 3.13163 0.481921 4.60054 0.443605C4.72088 0.44421 4.82197 0.35322 4.83401 0.233479C4.82873 0.111191 4.73407 0.011543 4.61221 0C3.08264 0.0333821 1.57021 0.329546 0.141036 0.875577C0.0297392 0.919131 -0.0270404 1.04302 0.0126207 1.15574C0.0436869 1.21296 0.0930028 1.25817 0.152722 1.28414L0.152722 1.28414Z" transform="translate(128.57794 291.73477)" id="Shape" fill="#7F4637" stroke="none" />
          <path d="M0.11958 4.36925C0.189702 4.40283 0.271269 4.40283 0.34139 4.36925C0.589876 4.16533 0.735223 3.86179 0.738305 3.54037C1.34764 3.5569 1.95721 3.51782 2.55946 3.42364C3.21006 3.32271 3.82011 3.04393 4.32224 2.61813C4.53319 2.44554 4.68768 2.21379 4.76585 1.9527C4.86661 1.51973 4.71273 1.06712 4.36895 0.785294C4.07583 0.545333 3.73282 0.373827 3.36497 0.283319C2.40859 -0.00780217 1.39817 -0.0756882 0.411432 0.084862C0.323399 0.0844701 0.243462 0.1362 0.207729 0.216662C0.172004 0.297106 0.187244 0.391088 0.246571 0.456142C0.305889 0.521178 0.398072 0.544994 0.481474 0.516796C1.40629 0.376036 2.35072 0.43979 3.24823 0.703585C3.54855 0.774784 3.82828 0.914635 4.06541 1.11218C4.27816 1.28276 4.38107 1.55571 4.33391 1.8243C4.27586 2.00051 4.16601 2.15511 4.01872 2.26792C3.57886 2.63806 3.04584 2.88034 2.47775 2.96837C1.88747 3.06388 1.28901 3.09908 0.691607 3.07343C0.578867 3.07003 0.469494 3.1121 0.388088 3.19018C0.319142 3.27103 0.285501 3.37617 0.294693 3.48203C0.304009 3.68083 0.217125 3.87198 0.0612151 3.99569C-0.020405 4.0849 -0.020405 4.22167 0.0612151 4.31088L0.11958 4.36925Z" transform="translate(127.11679 282.43906)" id="Shape" fill="#7F4637" stroke="none" />
          <path d="M42.2017 14.9725L38.968 56.7073C31.8807 60.034 23.9948 61.2808 16.2269 60.3029C2.91851 58.7502 0 52.8665 0 52.8665C0 52.8665 2.33481 11.8905 2.68503 11.4936C3.03525 11.0967 4.64628 -2.37516 23.9085 0.368252C43.1707 3.11166 42.2017 14.9725 42.2017 14.9725L42.2017 14.9725Z" transform="translate(50.911377 263.16202)" id="Shape" fill="#EACFC5" stroke="none" />
          <path d="M0 0L0 11.5807L6.92272 17.1375L10.5183 13.2851L10.5183 6.31565L0 0L0 0Z" transform="translate(70.3837 251.5994)" id="Polygon" fill="#A05E47" stroke="none" />
          <path d="M0 0L9.07074 3.01191L9.07074 6.72424C4.03922 6.04715 0 0 0 0L0 0Z" transform="translate(71.8313 257.66983)" id="Shape" fill="#7F4637" stroke="none" />
          <path d="M0 14.0614L0 8.59209C0 6.21942 0.838852 4.19427 2.51656 2.51657C4.19426 0.838867 6.21943 0 8.59206 0L11.0786 0C13.4513 0 15.4764 0.838867 17.1541 2.51657C18.8318 4.19427 19.6707 6.21942 19.6707 8.59209L19.6707 19.5306C19.6707 21.9032 18.8318 23.9284 17.1541 25.6061C15.4764 27.2838 13.4513 28.1227 11.0786 28.1227L8.59206 28.1227C6.21943 28.1227 4.19426 27.2838 2.51656 25.6061C0.838852 23.9284 0 21.9032 0 19.5306L0 14.0614Z" transform="matrix(-1 -8.742278E-08 8.742278E-08 -1 90.04239 262.3848)" id="Rectangle" fill="#A05E47" stroke="none" />
          <path d="M3.5543 18.7167C3.8695 19.4989 4.92017 20.1293 5.53889 19.5456C5.75281 19.321 5.89153 19.0354 5.93582 18.7284C6.34351 17.0824 6.41498 15.3711 6.14595 13.6969C5.83075 11.7356 5.09528 9.54091 6.21599 7.85984C6.98763 6.7628 8.38017 6.29075 9.65985 6.69244C10.3019 6.91425 10.8272 7.34618 11.4927 7.55633C12.7768 7.96492 14.1427 7.41624 15.4735 7.24112C17.9368 6.92592 20.6101 7.87151 22.8165 6.75081C24.0722 6.10831 24.9413 4.90018 25.1513 3.50542C25.2145 3.11444 25.1825 2.71398 25.0579 2.33802C24.6871 1.66072 24.0053 1.21059 23.2368 1.13559C21.5207 0.820369 19.7346 1.63755 18.0418 1.20562C16.9911 0.937117 16.0923 0.201645 15.0182 0.0382093C13.524 -0.195268 12.1114 0.703639 10.6405 1.04218C9.16953 1.38072 7.54684 1.14724 6.04089 1.4858C2.88889 2.17456 0.740864 5.27987 0.203859 8.49024C-0.333147 11.7006 0.285577 14.911 0.962674 18.063C1.19616 19.2304 1.44131 20.3277 1.67479 21.4484C1.75287 22.419 2.21512 23.3183 2.95894 23.9467C3.08204 24.0426 3.23493 24.0922 3.39088 24.0868C3.81114 24.0868 3.92788 23.4914 3.92788 23.0711C3.86254 20.9898 3.58482 18.9205 3.09903 16.8956C3.29748 17.4793 3.30915 18.1213 3.5543 18.7167L3.5543 18.7167Z" transform="translate(67.17963 231.17825)" id="Shape" fill="#171C27" stroke="none" />
          <path d="M0 2.41654C0 3.75116 1.08192 4.83307 2.41653 4.83308C3.75114 4.83308 4.83306 3.75116 4.83306 2.41654C4.83307 1.08194 3.75115 1.78132e-05 2.41654 0C1.08192 0 -4.4533e-06 1.08192 0 2.41654L0 2.41654Z" transform="translate(68.08392 248.08548)" id="Shape" fill="#A05E47" stroke="none" />
          <path d="M7.91988 11.6224C8.07164 11.5523 8.24676 11.4706 8.39853 11.564C8.49732 11.6446 8.56702 11.7553 8.59698 11.8792C8.87994 12.7366 9.61933 13.3633 10.5115 13.5019C10.9524 13.5474 11.3926 13.4091 11.7284 13.1197C12.0641 12.8303 12.2658 12.4154 12.286 11.9726C12.1899 11.3781 11.8933 10.8343 11.4454 10.4316C12.1243 11.4112 13.1442 12.1022 14.3056 12.3695C14.4496 12.3929 14.5972 12.3683 14.7259 12.2995C14.8495 12.201 14.9393 12.0663 14.9827 11.9142C15.2164 11.1643 15.1232 10.3505 14.7259 9.67284C15.0298 10.0098 15.3941 10.2869 15.7999 10.49C16.2217 10.6996 16.7281 10.6351 17.084 10.3266C17.5977 9.8246 17.3408 8.9607 17.084 8.30696C16.8272 7.65321 16.4419 6.87103 16.1267 6.14725C15.7959 5.31933 15.3646 4.53519 14.8426 3.81244C13.8544 2.67202 12.5815 1.81399 11.1536 1.32587C8.1912 0.145908 4.97604 -0.255994 1.81435 0.158431C1.60745 0.175424 1.40553 0.230859 1.21896 0.321885C0.85091 0.602407 0.621271 1.02768 0.588566 1.48929C-0.241111 4.8736 -0.19289 8.41373 0.728649 11.7742C1.09054 13.105 1.58086 13.4902 3.06346 13.3502C4.7752 13.0796 6.42188 12.4938 7.91989 11.6224L7.91988 11.6224Z" transform="translate(92.0809 295.5922)" id="Shape" fill="#A05E47" stroke="none" />
          <path d="M6.01705 0.0282874C7.76664 -0.133937 9.50893 0.406123 10.86 1.52948C12.2111 2.65283 13.0601 4.26728 13.2199 6.01708L15.368 29.552L41.1443 29.3652C40.1813 33.7671 39.5916 38.2425 39.3815 42.7437L9.3675 42.8487C5.92544 42.8693 3.04002 40.2526 2.72496 36.825L0.0282517 7.21951C-0.133884 5.47118 0.406524 3.73019 1.53015 2.38097C2.65379 1.03172 4.26823 0.185204 6.01705 0.0282874L6.01705 0.0282874Z" transform="translate(55.552734 266.19864)" id="Shape" fill="#A05E47" stroke="none" />
          <path d="M4.57624 5.31421C3.90799 3.8288 3.12746 2.39655 2.24144 1.02982C1.70252 0.347428 0.868741 -0.0347357 0 0.00249385" transform="translate(99.19528 300.97812)" id="Shape" fill="none" stroke="#7F4637" stroke-width="0.57" stroke-linecap="round" stroke-linejoin="round" />
          <path d="M4.73967 6.54916L2.67336 1.99628C2.09064 0.995137 1.12542 0.274377 0 0" transform="translate(102.06711 298.71585)" id="Shape" fill="none" stroke="#7F4637" stroke-width="0.57" stroke-linecap="round" stroke-linejoin="round" />
          <path d="M13.684 6.27093C13.3616 2.49919 10.0427 -0.297071 6.27092 0.0252948C2.49919 0.347678 -0.297075 3.6666 0.0252992 7.43833L1.81143 27.0391L15.4351 25.288L13.684 6.27093Z" transform="translate(55.28717 265.73465)" id="Shape" fill="#EACFC5" stroke="none" />
          <path d="M0 3.22203L1.55265 20.2195L15.1763 18.4683L13.4835 0" transform="translate(55.54596 272.58932)" id="Shape" fill="none" stroke="#A5867C" stroke-width="0.28" stroke-linecap="round" stroke-linejoin="round" />
          <path d="M0 0L4.66962 9.23419L9.66612 5.42845L14.4758 8.8723C14.4758 8.8723 16.1919 4.94981 16.1919 2.95354" transform="translate(67.69867 263.71707)" id="Shape" fill="none" stroke="#A5867C" stroke-width="0.28" stroke-linecap="round" stroke-linejoin="round" />
          <path d="M0.280184 0L0 15.0012L3.26874 15.0012" transform="translate(76.36081 269.6708)" id="Polyline" fill="none" stroke="#A5867C" stroke-width="0.28" stroke-linecap="round" stroke-linejoin="round" />
          <path d="M9.40925 3.05176e-05L27.7958 0C32.9924 3.05176e-05 37.2051 4.21268 37.2051 9.40924L37.205 54.4359L7.62939e-06 54.4359L7.62939e-06 9.42093C-0.00321198 6.92389 0.986641 4.52753 2.75144 2.76038C4.51627 0.993164 6.91128 0.00012207 9.40879 3.05176e-05L9.40925 3.05176e-05Z" transform="matrix(0.9904855 -0.13761741 0.13761741 0.9904855 152.67548 270.58878)" id="Shape" fill="#19365A" stroke="none" />
          <path d="M27.6993 1.21066C25.9814 0.511007 24.1489 0.135006 22.2943 0.101642C20.497 -0.0978835 18.6793 -0.00325982 16.9125 0.381808C14.4644 1.28259 12.5045 3.16623 11.5074 5.57676C10.7803 7.25218 10.2703 9.01368 9.98978 10.8184C9.68626 12.5345 9.28933 14.1922 9.09088 15.92C8.63559 19.644 8.60057 23.4031 8.0052 27.1154C6.89617 33.9097 3.93095 40.2487 1.92301 46.8446C-0.0849333 53.4404 -1.06555 60.76 1.73622 67.0524C1.93154 67.6084 2.27457 68.1007 2.72852 68.4766C3.18443 68.7611 3.69971 68.9369 4.23445 68.9903C7.52513 69.5735 10.8622 69.8548 14.2041 69.8308C15.3947 69.8882 16.5849 69.7096 17.7063 69.3055C18.6749 68.8515 19.5288 68.1851 20.2046 67.3559C22.8779 64.3323 23.9753 60.2697 25.0026 56.3706C26.0299 52.4714 26.9638 48.8875 27.9561 45.1518C30.6996 34.7152 33.4546 24.1385 33.7932 13.375C33.8982 9.69769 33.5247 5.60008 30.828 3.10183C29.9036 2.29345 28.8447 1.65337 27.6994 1.21066L27.6993 1.21066Z" transform="translate(168.48401 233.19278)" id="Shape" fill="#503972" stroke="none" />
          <path d="M46.0424 19.7233C18.9353 23.6458 10.8568 4.37191 10.5066 3.48467C9.80996 1.6722 8.19917 0.369143 6.28115 0.0665145C4.36313 -0.236132 2.42938 0.507658 1.20852 2.01759C-0.0123267 3.52751 -0.334728 5.57414 0.362784 7.38628C2.64289 12.6843 6.11884 17.3824 10.5183 21.1125C16.9623 26.7044 28.3212 32.7865 46.0891 30.6735L47.5951 30.4751C47.7316 26.8268 47.2056 23.1839 46.0424 19.7233L46.0424 19.7233Z" transform="translate(189.84442 264.18985)" id="Shape" fill="#DBA38D" stroke="none" />
          <path d="M7.21727 0.413712C7.90267 0.070006 8.67419 -0.0640029 9.43533 0.0284655C10.1708 0.203569 10.8129 1.03244 10.486 1.7212C10.1591 2.40997 9.31858 2.71351 9.55206 3.32054C9.63719 3.50737 9.77006 3.66844 9.93731 3.7875C11.9336 5.34015 14.6069 5.63201 16.9417 6.62429C18.0485 6.95881 18.9343 7.79282 19.3349 8.87738C19.5004 9.74852 19.2402 10.6463 18.6345 11.2939C18.0333 11.9231 17.3104 12.4236 16.5098 12.7648C12.2833 14.7383 7.45279 14.9813 3.0496 13.4419C2.55748 13.2972 2.10317 13.0461 1.71876 12.7065C1.3845 12.3276 1.12681 11.8875 0.959953 11.4107C0.548255 10.5073 0.242687 9.55929 0.0493782 8.58554C-0.197281 6.53938 0.488474 4.49068 1.91723 3.00532C3.48157 1.2776 5.18598 1.19587 7.21727 0.413712L7.21727 0.413712Z" transform="translate(233.73615 281.02457)" id="Shape" fill="#DBA38D" stroke="none" />
          <path d="M15.7141 11.0845C13.5379 8.88318 11.7744 6.30912 10.5075 3.48473C9.43022 0.684098 6.28687 -0.713312 3.48597 0.363247C0.685078 1.43981 -0.713116 4.58282 0.362766 7.38398C2.14266 11.5621 4.69308 15.3679 7.88083 18.6026C10.8401 16.4866 13.4784 13.9545 15.7141 11.0845L15.7141 11.0845Z" transform="translate(189.8435 264.18985)" id="Shape" fill="#F75454" stroke="none" />
          <path d="M7.71775 15.4893C7.66944 15.5108 7.61429 15.5108 7.56598 15.4893C4.36028 12.2329 1.79425 8.40364 0.0012113 4.20053C-0.00847909 4.11565 0.0406497 4.03501 0.120542 4.00471C0.200416 3.97441 0.290694 4.00216 0.339734 4.07213C2.10691 8.14715 4.60776 11.8628 7.71775 15.0341C10.5643 12.9681 13.1137 10.5209 15.2942 7.76112C13.1422 5.5699 11.3988 3.01207 10.146 0.207987C10.1363 0.123089 10.1854 0.0424488 10.2653 0.0121486C10.3452 -0.0181516 10.4355 0.00961913 10.4845 0.0795894C11.7415 2.88645 13.4977 5.44172 15.6678 7.62104C15.7184 7.69062 15.7184 7.78492 15.6678 7.85452C13.4122 10.7362 10.7591 13.2832 7.78778 15.4193L7.71775 15.4893Z" transform="translate(190.02997 267.47818)" id="Shape" fill="#BF4040" stroke="none" />
          <path d="M34.1869 12.1499C34.5627 15.831 34.6174 19.5379 34.3503 23.2285C34.1635 31.4004 34.432 39.7474 37.1288 47.4989C38.051 50.1256 38.9032 52.4721 36.8252 54.7719C32.7043 59.3598 22.9681 60.4104 17.3062 60.6089C13.6872 60.714 1.61626 60.5038 0.0869641 55.449C-0.415012 53.8029 1.40614 50.0906 1.72133 48.3278C2.38676 44.5687 2.01318 40.2377 2.01318 36.3852C2.19489 31.2485 1.77567 26.1082 0.764044 21.0689C-0.451814 16.5955 -0.0805513 11.8391 1.8147 7.60864C2.74126 5.30723 4.37688 3.36084 6.48433 2.0518C9.49821 0.612293 12.8118 -0.0880507 16.1504 0.00883535C19.9562 0.00883535 24.9527 0.183939 28.3732 2.01678C31.5952 3.74453 33.358 8.01724 34.0001 11.356C34.1052 11.6362 34.1402 11.893 34.1869 12.1499L34.1869 12.1499Z" transform="translate(168.67407 262.0505)" id="Shape" fill="#F75454" stroke="none" />
          <path d="M10.7285 6.02382L10.9269 13.0283C10.9269 13.0283 10.9269 16.3787 5.81368 16.3437C3.0086 16.5064 0.580443 14.414 0.326855 11.6157L0 0L10.7285 6.02382Z" transform="translate(180.4701 251.83286)" id="Shape" fill="#EEB399" stroke="none" />
          <path d="M0 0L9.18748 2.75507L9.29254 6.4791C4.16765 5.94208 0 0 0 0L0 0Z" transform="translate(182.10443 257.63486)" id="Shape" fill="#C18B76" stroke="none" />
          <path d="M0 14.108L0 7.3663C-1.52588e-05 5.33215 0.719177 3.59592 2.15755 2.15756C3.59589 0.719177 5.33215 0 7.36629 0L12.3627 3.05176e-05C14.3969 0 16.1332 0.719208 17.5715 2.15756C19.0099 3.59592 19.729 5.33215 19.729 7.3663L19.7291 20.8498C19.729 22.8839 19.0099 24.6202 17.5715 26.0585C16.1332 27.4969 14.3969 28.2161 12.3628 28.2161L7.3663 28.2161C5.33215 28.2161 3.59589 27.4969 2.15753 26.0585C0.719162 24.6202 -1.52588e-05 22.8839 0 20.8498L0 14.108Z" transform="matrix(-0.99960524 0.028096229 -0.028096229 -0.99960524 200.49133 261.8481)" id="Rectangle" fill="#EEB399" stroke="none" />
          <path d="M0.000748154 2.47626C0.0249563 3.4553 0.637659 4.32292 1.55219 4.6732C2.46674 5.02348 3.50227 4.78717 4.17431 4.0748C4.84635 3.36245 5.02199 2.31491 4.61907 1.42231C4.21615 0.529711 3.31434 -0.0314581 2.33556 0.00137162C1.00999 0.0458155 -0.0320281 1.15036 0.000748154 2.47626L0.000748154 2.47626Z" transform="translate(178.13452 248.06076)" id="Shape" fill="#EEB399" stroke="none" />
          <path d="M21.0755 4.87895C21.0755 4.87895 12.7518 16.1794 0.272275 15.3856C0.272275 15.3856 -2.49447 0.466154 9.61152 0.0225337C13.9792 -0.224411 18.2143 1.56965 21.0755 4.87896L21.0755 4.87895Z" transform="translate(179.38062 232.67654)" id="Shape" fill="#503972" stroke="none" />
          <path d="M35.981 35.6514C9.81938 27.5613 10.8 6.67642 10.8701 5.71916C11.0213 2.77156 8.79459 0.240995 5.85167 0.0160675C2.90875 -0.208842 0.32331 1.95393 0.0248672 4.89029C-0.185168 10.6561 0.937384 16.3927 3.30524 21.6542C6.72577 29.4759 14.3606 39.8774 31.323 45.5744L32.7706 46.0297C34.4561 42.7915 35.5437 39.2758 35.981 35.6514L35.981 35.6514Z" transform="translate(171.52625 264.65207)" id="Shape" fill="#EEB399" stroke="none" />
          <path d="M12.3098 14.8362C11.2805 11.9098 10.7939 8.81999 10.8739 5.7188C11.025 2.77131 8.79829 0.240977 5.85552 0.0160675C2.91274 -0.208842 0.327371 1.95373 0.0287505 4.88994C-0.152071 9.43045 0.521125 13.9646 2.01332 18.2567C5.58967 17.608 9.05621 16.4564 12.3099 14.8362L12.3098 14.8362Z" transform="translate(171.5224 264.6525)" id="Shape" fill="#F75454" stroke="none" />
          <path d="M2.13069 13.7291C2.07353 13.7141 2.02889 13.6695 2.01394 13.6123C0.51954 9.29652 -0.153585 4.73906 0.0293562 0.175496C0.0323488 0.125922 0.0549715 0.0795894 0.0922189 0.0467241C0.129449 0.0138765 0.178239 -0.00279667 0.227795 0.000391891C0.323559 0.0175282 0.392763 0.101571 0.391249 0.198831C0.205832 4.66136 0.855123 9.1194 2.30576 13.3438C5.7625 12.7106 9.11409 11.5987 12.2638 10.0401C11.2667 7.13458 10.7924 4.07536 10.8629 1.00434C10.8751 0.905766 10.9623 0.833961 11.0613 0.840908C11.1078 0.843901 11.1512 0.865295 11.1818 0.900351C11.2125 0.935407 11.228 0.981223 11.2248 1.0277C11.1574 4.10523 11.6437 7.16977 12.6607 10.0751C12.6863 10.1587 12.6465 10.2483 12.5673 10.2852C9.30351 11.948 5.81544 13.1278 2.21238 13.7874L2.13069 13.7291Z" transform="translate(171.34662 269.35526)" id="Shape" fill="#BF4040" stroke="none" />
          <path d="M10.4261 0.393244C11.1898 0.380347 11.9406 0.591363 12.5858 1.00028C12.8936 1.22006 13.0944 1.55951 13.1389 1.93508C13.1833 2.31069 13.0673 2.68762 12.8193 2.9732C12.3289 3.39345 11.3717 3.39345 11.29 4.03555C11.2819 4.23712 11.3348 4.43645 11.4417 4.60756C12.6091 6.87233 14.8505 8.28488 16.5316 10.1761C17.3801 10.9602 17.8121 12.0966 17.699 13.2464C17.4708 14.0987 16.8512 14.792 16.0296 15.1142C15.2157 15.4298 14.3451 15.5729 13.473 15.5345C8.81299 15.4974 4.35175 13.6417 1.04015 10.3629C0.653014 10.0216 0.346057 9.59911 0.141259 9.12542C0.00835439 8.63919 -0.0312622 8.13215 0.0244932 7.63118C0.028893 6.63841 0.158324 5.65003 0.409722 4.68943C1.07047 2.7375 2.56915 1.18312 4.49566 0.4516C6.67869 -0.43564 8.26636 0.22979 10.4261 0.393244L10.4261 0.393244Z" transform="translate(202.56793 299.96866)" id="Shape" fill="#EEB399" stroke="none" />
          <path d="M9.40929 0L27.7959 0C32.9925 0 37.2052 4.21268 37.2052 9.40929L37.2052 54.3544L0 54.3544L0 9.40929C0 4.21268 4.21268 0 9.40929 0L9.40929 0Z" transform="translate(419.85834 266.68228)" id="Shape" fill="#19365A" stroke="none" />
          <path d="M53.9108 1.96408C52.6912 0.722022 51.028 0.0155687 49.2873 0.000249385C47.5466 -0.0150878 45.8712 0.661974 44.6299 1.88236L27.9126 18.226L8.2302 2.03412C4.31938 9.20199 0 11.4901 0 11.4901L23.9201 32.1065C26.5034 34.326 30.3543 34.2044 32.7924 31.8263L53.8057 11.2099C56.3693 8.67782 56.4161 4.5538 53.9108 1.96408L53.9108 1.96408Z" transform="translate(361.54645 267.46158)" id="Shape" fill="#EEB399" stroke="none" />
          <path d="M25.0759 1.96408C23.8563 0.722023 22.1931 0.0155687 20.4524 0.000249385C18.7117 -0.0150878 17.0363 0.661975 15.795 1.88236L0 17.3855C1.23745 20.5375 3.68901 25.7675 7.12118 28.7794L24.9825 11.2683C26.2304 10.0478 26.9415 8.38103 26.959 6.63558C26.9765 4.89014 26.299 3.20941 25.0759 1.96408L25.0759 1.96408Z" transform="translate(390.3814 267.46158)" id="Shape" fill="#638DCE" stroke="none" />
          <path d="M4.69681 0.643128C4.27599 0.303394 3.77231 0.0817804 3.23755 0.00106879C2.7048 -0.0216965 2.2243 0.319426 2.07015 0.829917C1.9534 1.6471 3.00406 2.11407 3.33093 2.87288C3.51982 3.47637 3.3926 4.13441 2.99234 4.62399C2.5904 5.09217 2.1575 5.53289 1.69657 5.94314C-0.400691 8.20869 -0.572838 11.6516 1.28793 14.115C1.6064 14.5804 2.09095 14.9063 2.64216 15.0256C3.35462 15.0132 4.03209 14.7144 4.52167 14.1967C6.04096 13.0601 7.42377 11.7517 8.64258 10.2976C9.69328 8.94338 11.2576 6.5502 9.98513 5.0209C8.4289 3.32875 6.64982 1.85601 4.69681 0.643128L4.69681 0.643128Z" transform="translate(359.62805 264.2413)" id="Shape" fill="#EEB399" stroke="none" />
          <path d="M1.41972 8.18187C1.29178 8.19763 1.16239 8.19763 1.03445 8.18187C0.978909 8.17366 0.929424 8.14232 0.898287 8.09558C0.867149 8.04886 0.857245 7.99112 0.871068 7.93669C0.879333 7.87812 0.911896 7.82573 0.960776 7.7924C1.00966 7.75907 1.07033 7.7479 1.12786 7.76162C1.40664 7.84876 1.71064 7.78709 1.93338 7.59816C2.19673 7.19931 2.28925 6.71154 2.19021 6.24397C2.17322 6.19079 2.17322 6.13368 2.19021 6.08051C2.22445 6.02841 2.28003 5.99421 2.34198 5.98713C2.69814 6.07144 3.06915 5.92532 3.27215 5.62081C3.47519 5.31627 3.46739 4.91761 3.25256 4.62127C3.20738 4.55424 3.20738 4.46649 3.25256 4.39946C3.29784 4.32938 3.38031 4.29272 3.46268 4.30608C3.73045 4.39611 4.02401 4.36633 4.2682 4.22434C4.38566 4.12642 4.46429 3.98981 4.49001 3.83909C4.74684 1.66771 0.205601 0.441928 0.15893 0.430261C0.0442125 0.396344 -0.0229078 0.277548 0.00716093 0.16178C0.0205921 0.104795 0.0572518 0.0560226 0.108198 0.0272186C0.159179 -0.00160319 0.219887 -0.00783782 0.275642 0.00999322C0.474153 0.00999322 5.22548 1.34084 4.94531 3.8858C4.90958 4.15291 4.77146 4.39568 4.56009 4.56288C4.33126 4.73089 4.04902 4.80975 3.76626 4.78472C3.86583 5.10607 3.83651 5.45354 3.68453 5.75366C3.44626 6.12912 3.04265 6.36782 2.59885 6.39575C2.68164 6.93654 2.53337 7.48722 2.19028 7.91337C1.9741 8.09266 1.70052 8.18798 1.41975 8.18188L1.41972 8.18187Z" transform="translate(362.53156 268.49338)" id="Shape" fill="#B57359" stroke="none" />
          <path d="M5.10545 3.11608C5.06783 3.13046 5.02629 3.13046 4.98867 3.11608C3.47715 2.08244 1.87516 1.18767 0.202323 0.442763C0.113684 0.434943 0.0382985 0.374913 0.0108305 0.290247C-0.0166376 0.205599 0.00915601 0.112721 0.0763476 0.0543478C0.143539 -0.00400795 0.239125 -0.0165662 0.319106 0.0224802C2.03766 0.780393 3.68282 1.69481 5.23378 2.75416C5.33218 2.82286 5.35805 2.95737 5.29221 3.05771C5.24336 3.10673 5.17354 3.12857 5.10545 3.11608L5.10545 3.11608Z" transform="translate(360.91217 270.12698)" id="Shape" fill="#B57359" stroke="none" />
          <path d="M4.95603 2.94829C4.91801 2.95999 4.87733 2.95999 4.83931 2.94829C3.36153 1.96945 1.79867 1.12549 0.169653 0.42668C0.113185 0.415601 0.0637357 0.381862 0.0328476 0.333321C0.00195945 0.28478 -0.00769531 0.225694 0.006199 0.169849C0.020022 0.112491 0.0561472 0.0630054 0.106523 0.0323488C0.156899 0.00167444 0.217428 -0.00765969 0.274715 0.00639495C1.97032 0.708664 3.59624 1.56854 5.13109 2.57471C5.21361 2.62752 5.25169 2.72822 5.22476 2.82244C5.19786 2.91665 5.11232 2.98204 5.01438 2.98331L4.95603 2.94829Z" transform="translate(359.98755 271.97586)" id="Shape" fill="#B57359" stroke="none" />
          <path d="M4.01899 2.63877C3.97367 2.65478 3.92422 2.65478 3.87891 2.63877C2.7669 1.70123 1.50892 0.95197 0.154868 0.420711C0.0971891 0.404999 0.0489152 0.365436 0.0221597 0.311944C-0.00456019 0.258469 -0.00726781 0.196123 0.014785 0.140528C0.0333108 0.0878188 0.0720368 0.0446753 0.122413 0.0205742C0.172788 -0.003527 0.230717 -0.00657305 0.283338 0.0120951C1.7022 0.557052 3.01414 1.34739 4.15914 2.34693C4.20051 2.38657 4.22388 2.4414 4.22388 2.49868C4.22388 2.55599 4.20047 2.6108 4.15907 2.65043C4.11251 2.66378 4.06267 2.65963 4.01899 2.63878L4.01899 2.63877Z" transform="translate(359.5938 274.03647)" id="Shape" fill="#B57359" stroke="none" />
          <path d="M3.50478 4.91281C3.42861 4.91219 3.35807 4.87254 3.31799 4.80775C3.15304 4.53749 3.11873 4.20723 3.22465 3.90882C2.64454 3.7261 2.08507 3.48355 1.55523 3.18504C0.987775 2.87339 0.515655 2.4134 0.189354 1.85421C0.0509456 1.62203 -0.0141437 1.3535 0.0025651 1.08372C0.0610991 0.658786 0.347998 0.300206 0.74972 0.149791C1.10132 0.025366 1.4755 -0.0223912 1.84708 0.0097082C2.83664 0.0667105 3.80136 0.341782 4.67218 0.815221C4.77628 0.871903 4.81743 1.00046 4.76559 1.10707C4.70442 1.21281 4.57207 1.25353 4.46205 1.20047C3.64835 0.760125 2.74743 0.505004 1.82371 0.453328C1.51704 0.414781 1.20563 0.44672 0.913174 0.546723C0.663041 0.638425 0.480635 0.85637 0.434499 1.11876C0.431363 1.30348 0.479887 1.48541 0.574581 1.64407C0.852182 2.13073 1.25536 2.53391 1.74198 2.81149C2.26145 3.10007 2.8091 3.33476 3.37631 3.51195C3.48411 3.54408 3.57325 3.62045 3.62149 3.72207C3.66442 3.81869 3.66442 3.92899 3.62149 4.02559C3.53898 4.20328 3.53898 4.40827 3.62149 4.58594C3.65145 4.63379 3.66093 4.69168 3.64774 4.74658C3.6346 4.80148 3.59986 4.84877 3.55145 4.87779C3.53752 4.89147 3.5218 4.90325 3.50478 4.91281L3.50478 4.91281Z" transform="translate(363.61017 266.4741)" id="Shape" fill="#B57359" stroke="none" />
          <path d="M0.00798032 14.8063L3.20666 56.1675C10.228 59.4648 18.0416 60.6996 25.7376 59.7281C38.9176 58.1871 41.8011 52.3617 41.8011 52.3617C41.8011 52.3617 39.5247 11.7827 39.1394 11.3858C38.7542 10.9888 37.2015 -2.3546 18.1261 0.365456C-0.949301 3.08551 0.00798032 14.8063 0.00798032 14.8063L0.00798032 14.8063Z" transform="translate(401.10187 263.77182)" id="Shape" fill="#7298E2" stroke="none" />
          <path d="M0 0L432.722 0L432.722 10.2498L0 10.2498L0 0Z" transform="translate(33.63376 315.4448)" id="Rectangle" fill="#5F87DF" stroke="none" />
          <path d="M0 1.16742L0 0.58374C0 0.422546 0.0569916 0.284973 0.170959 0.17099C0.284943 0.0570068 0.422516 3.05176e-05 0.583694 3.05176e-05L57.6929 0C57.8541 0 57.9917 0.0569763 58.1056 0.170959C58.2196 0.284943 58.2766 0.422516 58.2766 0.58371L58.2766 2.25308C58.2766 2.41428 58.2196 2.55185 58.1056 2.66583C57.9917 2.77979 57.8541 2.83679 57.6929 2.83679L0.583694 2.83682C0.422516 2.83682 0.284943 2.77982 0.170959 2.66586C0.0569916 2.55188 0 2.41431 0 2.25311L0 1.16742Z" transform="matrix(-1 -8.742278E-08 8.742278E-08 -1 128.76505 317.4744)" id="Rectangle" fill="#0D2638" stroke="none" />
          <path d="M3.01016 32.9219L50.5703 32.9219C52.5826 32.8567 54.2781 31.3993 54.6445 29.4197L58.7538 3.50323C58.924 2.6275 58.6877 1.72181 58.1112 1.04093C57.5347 0.360041 56.6804 -0.0224446 55.7886 0.00101535L8.22847 0.00101535C6.21957 0.0747798 4.52877 1.52818 4.15422 3.50323L0.0566282 29.4197C-0.117763 30.294 0.115438 31.2002 0.690235 31.8818C1.26504 32.5634 2.11889 32.9462 3.01016 32.9219L3.01016 32.9219Z" transform="translate(98.27478 284.50754)" id="Shape" fill="#224CB3" stroke="none" />
          <path d="M0 4.37778C0 1.96 1.95999 0 4.37777 0C6.79554 0 8.75554 1.96 8.75554 4.37778C8.75554 6.79556 6.79554 8.75555 4.37777 8.75555C1.95999 8.75555 0 6.79556 0 4.37778Z" transform="translate(124.32953 296.50943)" id="Circle" fill="#FFFFFF" stroke="none" />
          <path d="M28.6365 0C28.6365 0 31.555 34.9288 22.9979 35.6059C14.4408 36.283 0 35.6059 0 35.6059C0 35.6059 17.4294 32.2788 19.3322 22.5776C21.2351 12.8765 28.6365 0 28.6365 0L28.6365 0Z" transform="translate(409.50348 281.34488)" id="Shape" fill="#3F649E" stroke="none" />
          <path d="M8.65044 10.4338C15.3163 9.48823 16.2619 3.51112 16.2503 0.14899C13.6755 -0.104759 11.0792 -0.0341657 8.52204 0.359114C5.59487 0.73328 2.72962 1.4908 0 2.6122C0.210089 5.43733 1.48256 11.4378 8.65044 10.4338L8.65044 10.4338Z" transform="translate(410.706 263.77817)" id="Shape" fill="#EEB399" stroke="none" />
          <path d="M10.425 0L10.425 11.4756L5.14826 16.297L0 13.1683L0 6.26897L10.425 0L10.425 0Z" transform="translate(413.20416 252.52164)" id="Polygon" fill="#EEB399" stroke="none" />
          <path d="M8.98904 0L0 2.97689L0 6.68924C5.00818 5.97712 8.98904 0 8.98904 0L8.98904 0Z" transform="translate(413.21582 258.31192)" id="Shape" fill="#CC957F" stroke="none" />
          <path d="M0 13.9272L0 7.36633C0 5.33218 0.719183 3.59591 2.15755 2.15755C3.59591 0.719183 5.33218 0 7.36633 0L12.1177 0C14.1518 0 15.8881 0.719183 17.3265 2.15755C18.7648 3.59591 19.484 5.33218 19.484 7.36633L19.484 20.488C19.484 22.5221 18.7648 24.2584 17.3265 25.6968C15.8881 27.1351 14.1518 27.8543 12.1177 27.8543L7.36633 27.8543C5.33218 27.8543 3.59591 27.1351 2.15755 25.6968C0.719183 24.2584 0 22.5221 0 20.488L0 13.9272Z" transform="translate(404.15674 235.12723)" id="Rectangle" fill="#EEB399" stroke="none" />
          <path d="M0.662224 5.5691C0.0922012 6.09186 -0.133742 6.89169 0.0785206 7.63543C0.268196 7.98067 0.556841 8.26121 0.907369 8.44094C2.12793 9.13138 3.60172 9.20917 4.88819 8.65105C4.52769 9.08391 4.52769 9.71249 4.88823 10.1453C5.24745 10.5624 5.7531 10.8257 6.30078 10.8808C8.04017 11.0533 9.76225 10.4162 10.9704 9.15304C10.9559 10.2678 11.8189 11.1976 12.9316 11.266C13.9006 11.266 14.8345 10.6473 15.7918 10.8458C16.0603 11.3244 15.6283 12.0832 16.072 12.3984C16.1863 12.4629 16.3144 12.499 16.4455 12.5035C17.3444 12.5969 18.4185 12.4335 19.0022 13.1222C19.5859 13.811 19.259 14.7799 19.0022 15.6205C18.7125 16.3787 18.7462 17.2226 19.0956 17.9553C19.5158 18.6324 20.6599 18.8425 21.0802 18.1654C21.1969 17.9786 21.2436 17.7451 21.3603 17.5583C21.477 17.3716 21.7572 17.2315 21.9323 17.3716C22.0588 17.4865 22.1163 17.659 22.0841 17.8269C21.893 18.8115 21.5505 19.7606 21.0685 20.6403C20.6004 21.5617 20.8386 22.6849 21.6405 23.337C21.91 23.4715 22.2037 23.5509 22.5044 23.5705C23.4336 23.7895 24.4115 23.6432 25.2361 23.1619C25.8959 22.5406 26.3345 21.7207 26.4852 20.8271C26.5916 20.4916 26.6351 20.1394 26.6136 19.7881C26.5796 19.4295 26.3294 19.1285 25.9832 19.0293C25.563 17.8619 26.8237 16.4376 26.0766 15.457C25.8937 15.2571 25.6903 15.0771 25.4695 14.92C24.8942 14.3718 24.5375 13.6334 24.4656 12.842C24.4032 12.065 24.4032 11.2842 24.4656 10.5072C24.4913 8.97256 24.3346 7.44029 23.9986 5.94266C23.8867 5.31738 23.6483 4.72151 23.2981 4.19153C22.9278 3.66279 22.3079 3.36614 21.6638 3.40939C21.433 2.24152 20.7649 1.2059 19.796 0.514214C18.791 -0.160034 17.469 -0.122537 16.5039 0.607626C16.3326 0.80676 16.1108 0.955981 15.8618 1.03954C15.6516 1.05226 15.4418 1.00789 15.2548 0.911109C13.4453 0.175656 11.344 -0.443068 9.59284 0.420819C9.34506 0.57517 9.07259 0.685737 8.78733 0.747691C8.4891 0.759145 8.19155 0.711548 7.91177 0.607608C7.22632 0.375342 6.473 0.460934 5.85713 0.841068C5.22672 1.30804 5.50692 1.83339 5.44853 2.46378C5.39014 3.09417 4.99322 3.14088 4.28112 3.38602C2.91545 3.80901 1.67334 4.55831 0.66226 5.5691L0.662224 5.5691Z" transform="translate(402.22205 232.42996)" id="Shape" fill="#171E26" stroke="none" />
          <path d="M4.66962 2.33481C4.66962 3.62429 3.6243 4.66962 2.33481 4.66962C1.04531 4.66962 0 3.62429 0 2.33481C0 1.04533 1.04531 0 2.33481 0C3.61134 0.0307812 4.63884 1.0583 4.66962 2.33481L4.66962 2.33481Z" transform="translate(422.13483 248.86758)" id="Shape" fill="#EEB399" stroke="none" />
          <path d="M36.5532 0.0254016C32.912 -0.291709 29.7009 2.39732 29.3736 6.03754L26.8637 34.4522L0.223485 36.1566C-0.251879 40.5774 0.0323844 45.0468 1.06398 49.3717L33.3895 47.2937C36.649 47.0817 39.2665 44.5236 39.5534 41.2699L42.5653 7.19328C42.8823 3.55441 40.1917 0.346609 36.5532 0.0253838L36.5532 0.0254016Z" transform="translate(395.87817 267.36893)" id="Shape" fill="#EEB399" stroke="none" />
          <path d="M3.5988 13.5231C2.77904 13.5081 1.97616 13.2873 1.26399 12.881C0.549609 12.4508 0.241084 11.5741 0.528518 10.7913C0.715307 10.4178 1.10054 10.1143 1.11222 9.69398C1.12391 9.2737 0.586874 8.83011 0.271687 8.39818C-0.22947 7.5321 -0.0208771 6.42964 0.761978 5.8065C1.00716 5.59641 1.29901 5.40962 1.38074 5.10608C1.56753 4.41732 0.540203 3.83362 0.738678 3.1565C0.937153 2.47938 1.64925 2.49107 1.81271 1.98909C1.84174 1.69407 1.84174 1.39688 1.81271 1.10185C1.8845 0.60059 2.25444 0.19363 2.74662 0.0745304C3.23189 -0.0248672 3.7323 -0.0248672 4.21756 0.0745304L6.55238 0.331361C7.01174 0.352808 7.46306 0.459688 7.88324 0.646548C8.68647 1.23663 9.2002 2.141 9.29579 3.13313C9.76681 4.96554 9.89738 6.86881 9.68105 8.74835C9.498 10.3301 8.83375 11.8174 7.7781 13.0094C6.79749 14.0017 4.91798 13.6748 3.5988 13.5231L3.5988 13.5231Z" transform="translate(389.80615 303.2993)" id="Shape" fill="#EEB399" stroke="none" />
          <path d="M9.43262 0.0270226C5.71615 -0.303662 2.43464 2.43963 2.10135 6.15591L0 30.006C4.19194 31.9187 8.66697 33.137 13.25 33.6133L15.5849 7.34667C15.7434 5.5594 15.1835 3.78258 14.029 2.40904C12.8745 1.03548 11.2205 0.178328 9.43262 0.0270226L9.43262 0.0270226Z" transform="translate(423.03375 267.02878)" id="Shape" fill="#7298E2" stroke="none" />
          <path d="M1.9379 0L0 21.9472C0 21.9472 8.11348 25.4494 13.2501 25.5545L15.4331 2.95353" transform="translate(422.987 275.08755)" id="Shape" fill="none" stroke="#3C62A0" stroke-width="0.28" stroke-linecap="round" stroke-linejoin="round" />
          <path d="M0 1.1674L0 0.583702C0 0.422517 0.0569876 0.284937 0.170963 0.170962C0.284938 0.0569875 0.422518 0 0.583703 0L57.6932 0C57.8544 0 57.992 0.0569875 58.1059 0.170962C58.2199 0.284937 58.2769 0.422517 58.2769 0.583702L58.2769 2.25309C58.2769 2.41427 58.2199 2.55185 58.1059 2.66583C57.992 2.7798 57.8544 2.83679 57.6932 2.83679L0.583703 2.83679C0.422518 2.83679 0.284938 2.7798 0.170963 2.66583C0.0569876 2.55185 0 2.41427 0 2.25309L0 1.1674Z" transform="translate(361.58148 314.6393)" id="Rectangle" fill="#0D2638" stroke="none" />
          <path d="M55.786 32.9219L8.23757 32.9219C6.22529 32.8567 4.52983 31.3993 4.16334 29.4196L0.0540809 3.50323C-0.116178 2.62748 0.120203 1.72181 0.696674 1.04091C1.27315 0.36004 2.12747 -0.0224446 3.0193 0.00101535L50.5678 0.00101535C52.5794 0.0737288 54.2742 1.52636 54.6537 3.50323L58.7513 29.4196C58.9262 30.2961 58.6916 31.2044 58.114 31.8865C57.5365 32.5686 56.6793 32.9499 55.786 32.9219L55.786 32.9219Z" transform="translate(333.27618 284.50754)" id="Shape" fill="#173658" stroke="none" />
          <path d="M0.801667 4.12953C0.537924 4.54651 0.307599 4.98368 0.1129 5.43703C-0.0802664 5.8991 -0.0229791 6.42794 0.264669 6.83793C0.422494 7.00666 0.618725 7.13481 0.836688 7.21151C2.01272 7.60173 3.30813 7.25259 4.12879 6.32427C4.912 5.39093 5.32715 4.20353 5.29619 2.9855C5.38936 2.00445 5.00228 1.0389 4.25722 0.393868C4.00534 0.228615 3.72389 0.113648 3.42833 0.0553279C2.95942 -0.0581246 2.46521 0.0041683 2.03912 0.230414C1.44373 0.592308 1.39706 1.26941 1.33866 1.89982C1.31266 2.67177 1.12993 3.43037 0.801631 4.12953L0.801667 4.12953Z" transform="translate(358.2348 297.4932)" id="Shape" fill="#FFFFFF" stroke="none" />
          <path d="M0.0395813 1.25769C-0.0132175 1.01538 -0.0132175 0.76453 0.0395813 0.522215C0.113756 0.27974 0.300868 0.0882828 0.541562 0.00855039C0.626816 -0.00285013 0.713175 -0.00285013 0.79843 0.00855039C0.999187 -0.0101001 1.19952 0.0483453 1.35877 0.172005C1.47174 0.290589 1.52721 0.452672 1.51054 0.61561C1.50509 0.777106 1.45674 0.934255 1.37045 1.0709C1.21063 1.40364 0.937446 1.66852 0.599989 1.81806C0.15633 1.98148 0.0862523 1.70131 0.0395813 1.25769L0.0395813 1.25769Z" transform="translate(361.01654 295.1934)" id="Shape" fill="#FFFFFF" stroke="none" />
          <path d="M50.7124 25.3568C50.7124 11.5238 39.6263 0.243738 25.796 0.00388328C11.9657 -0.235971 0.495158 10.6529 0.0155287 24.4769C-0.464096 38.301 10.2242 49.9586 24.0379 50.6779L27.7145 59.7136L32.0923 49.8023C43.0921 46.7713 50.7126 36.7666 50.7124 25.3568L50.7124 25.3568Z" transform="translate(50.2807 163.35437)" id="Shape" fill="#FFFFFF" stroke="#1F74C2" stroke-width="1" stroke-linecap="round" stroke-linejoin="round" />
          <path d="M20.8966 10.4466L20.8966 4.48116L14.9311 4.48116C14.9303 2.00609 12.9235 0 10.4483 0C7.97308 0 5.9663 2.00609 5.96544 4.48129L0 4.48116L0 25.3894L5.96545 25.3894C5.96771 22.9154 7.97404 20.9109 10.4482 20.9109C12.9224 20.9108 14.9288 22.9153 14.9311 25.3895L20.8966 25.3894L20.8966 19.424C22.5548 19.5085 24.1246 18.672 24.9791 17.2483C25.8337 15.8247 25.8337 14.0459 24.9791 12.6222C24.1246 11.1986 22.5548 10.362 20.8966 10.4466L20.8966 10.4466Z" transform="translate(63.671112 173.80508)" id="Shape" fill="#5F87DF" stroke="none" />
          <path d="M48.337 36.0866C54.1894 23.5496 48.9111 8.63559 36.4753 2.57098C24.0396 -3.49363 9.03806 1.53033 2.7629 13.8612C-3.51226 26.192 1.25594 41.2768 13.4783 47.7607L13.023 57.5085L21.1948 50.364C32.4205 52.2316 43.5162 46.395 48.337 36.0866L48.337 36.0866Z" transform="translate(417.56378 167.1004)" id="Shape" fill="#FFFFFF" stroke="#1F74C2" stroke-width="1" stroke-linecap="round" stroke-linejoin="round" />
          <path d="M26.4589 5.96548C26.0847 5.97428 25.7127 6.02519 25.3499 6.11725L25.3499 3.56264e-05L19.3844 3.56264e-05C19.3866 1.60305 18.5327 3.08526 17.1448 3.88741C15.7569 4.68958 14.0463 4.68958 12.6584 3.88741C11.2705 3.08526 10.4166 1.60305 10.4188 0L4.47667 3.56264e-05L4.47667 5.96548C2.00327 5.96888 0 7.97492 0 10.4483C0 12.9217 2.00324 14.9277 4.47664 14.9312L4.47667 20.9083L10.5588 20.9083C10.4743 19.25 11.3108 17.6802 12.7345 16.8257C14.1581 15.9712 15.9369 15.9712 17.3606 16.8257C18.7842 17.6802 19.6208 19.25 19.5362 20.9083L25.3732 20.9083L25.3732 14.7794C25.7349 14.8772 26.1076 14.9282 26.4823 14.9312C28.9557 14.9277 30.959 12.9217 30.959 10.4483C30.959 7.97495 28.9557 5.9689 26.4823 5.96548L26.4589 5.96548Z" transform="translate(427.4527 181.98691)" id="Shape" fill="#5F87DF" stroke="none" />
          <path d="M2.38561 36.0866C-3.46671 23.5496 1.81158 8.63561 14.2473 2.57098C26.683 -3.49363 41.6846 1.53033 47.9598 13.8612C54.2349 26.192 49.4667 41.2768 37.2443 47.7607L37.7113 57.5086L29.5395 50.364C18.3112 52.229 7.21373 46.394 2.38561 36.0866L2.38561 36.0866Z" transform="translate(146.06256 168.8865)" id="Shape" fill="#FFFFFF" stroke="#1F74C2" stroke-width="1" stroke-linecap="round" stroke-linejoin="round" />
          <path d="M14.9428 4.26557C14.8209 1.87541 12.8474 0 10.4541 0C8.06087 0 6.08736 1.87541 5.96545 4.26557L0 4.26557L0 25.1738L5.96545 25.1738C6.08736 22.7837 8.06087 20.9082 10.4541 20.9082C12.8474 20.9082 14.8209 22.7837 14.9428 25.1738L20.9549 25.1738L20.9549 4.26557L14.9428 4.26557Z" transform="translate(161.14954 180.56985)" id="Shape" fill="#5F87DF" stroke="none" />
          <path d="M41.7044 44.7399C52.2787 35.8218 53.7539 20.0742 45.0199 9.34728C36.2859 -1.3796 20.5661 -3.12679 9.68985 5.42049C-1.18639 13.9678 -3.20506 29.655 5.15293 40.6774L0.623391 49.3162L11.0133 46.2692C20.4237 52.7187 32.9817 52.0929 41.7044 44.74L41.7044 44.7399Z" transform="translate(318.3011 173.8335)" id="Shape" fill="#FFFFFF" stroke="#1F74C2" stroke-width="1" stroke-linecap="round" stroke-linejoin="round" />
          <path d="M20.8966 10.4538L20.8966 4.47667L14.9311 4.47667C14.9277 2.00326 12.9217 0 10.4483 0C7.9749 0 5.96888 2.00326 5.96546 4.47664L3.56264e-05 4.47667L3.56264e-05 10.4538C1.60308 10.4516 3.08528 11.3055 3.88745 12.6934C4.68958 14.0813 4.68958 15.7919 3.88741 17.1798C3.08525 18.5678 1.60301 19.4217 0 19.4195L3.56264e-05 25.3849L5.96546 25.3849C5.96888 22.9115 7.9749 20.9082 10.4483 20.9082C12.9217 20.9082 14.9277 22.9115 14.9311 25.3849L20.8966 25.3849L20.8966 19.4195C22.4996 19.4217 23.9818 18.5677 24.784 17.1798C25.5861 15.7919 25.5861 14.0813 24.7839 12.6934C23.9818 11.3055 22.4995 10.4516 20.8965 10.4538L20.8966 10.4538Z" transform="translate(332.8166 185.005)" id="Shape" fill="#5F87DF" stroke="none" />
          <path d="M0.000142506 0C0.000142506 0 -0.268356 10.3082 22.5077 10.3082C45.2838 10.3082 44.2215 0 44.2215 0L0.000142506 0Z" transform="translate(227.48138 205.00818)" id="Shape" fill="#224CB3" stroke="none" />
          <path d="M0 10.997L0 5.49848C0 3.98012 0.536823 2.68411 1.61047 1.61047C2.68411 0.536823 3.98012 0 5.49848 0L51.4476 0C52.966 0 54.262 0.536823 55.3356 1.61047C56.4092 2.68411 56.9461 3.98012 56.9461 5.49848L56.9461 24.1887C56.9461 25.707 56.4092 27.003 55.3356 28.0767C54.262 29.1503 52.966 29.6871 51.4476 29.6871L5.49848 29.6871C3.98012 29.6871 2.68411 29.1503 1.61047 28.0767C0.536823 27.003 0 25.707 0 24.1887L0 10.997Z" transform="translate(221.42267 178.20453)" id="Rectangle" fill="#19365A" stroke="none" />
          <path d="M142.948 68.445C141.407 46.1709 127.62 2.73173 74.1065 0.128415L74.1065 0C73.2426 0 72.3787 0 71.5382 0C70.6976 0 69.8454 0 69.0282 0L69.0282 0.128415C15.5143 2.73173 1.7623 46.1709 0.15127 68.445C-1.48309 91.4079 10.4478 109.304 20.3941 127.212C30.3404 145.12 33.9593 169.075 35.5003 177.761C37.0413 186.446 44.8396 186.166 44.8396 186.166L98.2134 186.166C103.027 186.161 107.071 182.544 107.611 177.761C109.152 169.075 112.771 145.074 122.717 127.212C132.664 109.351 144.571 91.4079 142.948 68.445L142.948 68.445Z" transform="translate(178.45099 0)" id="Shape" fill="#5F87DF" stroke="none" />
          <path d="M1.23472 87.9562C7.39335 68.7193 10.4128 48.6158 10.1771 28.4185C10.0837 20.4568 9.44159 12.3317 6.27793 5.0704C5.70589 3.75124 4.71361 2.25695 3.28937 2.3737C1.86513 2.49045 1.24641 3.78626 0.837809 4.98869C-0.699168 9.50886 -0.100965 14.4824 2.46401 18.5091C5.02899 22.5359 9.28335 25.1805 14.0295 25.6985C15.2708 25.8818 16.5378 25.7739 17.7302 25.3833C20.1584 24.4844 21.6176 22.0095 22.5399 19.5462C24.5644 14.2301 24.9227 8.42372 23.5672 2.89903C23.2287 1.53316 22.3998 -0.0895291 20.9989 0.00385656C20.0066 0.0738981 19.3295 1.0195 18.8859 1.89506C16.4927 6.6464 16.7612 12.4017 18.3022 17.4566C18.8722 19.7314 20.0042 21.8267 21.5943 23.5504C25.6569 27.5546 32.9065 26.5157 37.0158 22.5698C41.125 18.624 42.6777 12.6702 43.0629 6.98496C43.2497 4.25323 42.5493 0.669295 39.8292 0.295717C37.1091 -0.0778615 35.4281 3.31929 34.7977 6.13275C29.355 30.0554 28.1694 54.7499 31.2955 79.084C31.8792 83.6602 32.6963 88.4232 35.4631 92.1122" transform="translate(230.60126 100.33469)" id="Shape" fill="none" stroke="#19365A" stroke-width="1" />
          <path d="M5.5369 21.7251C3.40984 23.9801 1.7372 26.6238 0.610441 29.5117C-0.509315 32.4549 -0.0703978 35.7643 1.77785 38.3139C4.57961 41.6527 9.94969 41.606 13.8021 39.4813C17.6546 37.3567 20.363 33.8194 23.2464 30.5507C27.7993 25.3907 33.1811 20.6978 39.7185 18.5848C42.2051 17.7793 44.7968 17.4174 47.225 16.4134C49.7317 15.5882 51.796 13.7809 52.9452 11.4052C54.2644 8.15982 52.6651 4.22567 49.8283 2.17103C42.9639 -2.79044 34.0566 1.9142 27.3323 4.77435C18.5885 8.54507 11.6774 14.4755 5.5369 21.7251L5.5369 21.7251Z" transform="translate(193.52997 7.5768127)" id="Shape" fill="#709CE8" stroke="none" />
          <path d="M20.8966 10.4661L20.8966 4.48901L14.9311 4.48901C14.9333 2.88599 14.0794 1.40378 12.6915 0.601619C11.3036 -0.200541 9.59298 -0.200541 8.20506 0.601619C6.81717 1.40378 5.96324 2.886 5.96545 4.48903L0 4.48901L0 25.3973L5.96545 25.3973C5.96887 22.9239 7.9749 20.9206 10.4483 20.9206C12.9217 20.9206 14.9277 22.9239 14.9311 25.3972L20.8966 25.3973L20.8966 19.4318C22.4985 19.4324 23.979 18.5782 24.7802 17.191C25.5813 15.8038 25.5814 14.0945 24.7803 12.7072C23.9792 11.32 22.4988 10.4656 20.8968 10.4661L20.8966 10.4661Z" transform="translate(177.55157 60.08023)" id="Shape" fill="#D7EFF9" stroke="none" />
          <path d="M26.7174 5.96547C26.3461 5.97229 25.9773 6.02722 25.6201 6.1289L25.6201 2.22665e-05L19.6546 2.22665e-05C19.6569 1.60304 18.8029 3.08526 17.415 3.88742C16.0271 4.68958 14.3165 4.68958 12.9286 3.88742C11.5407 3.08526 10.6868 1.60304 10.689 0L4.72353 2.22665e-05L4.72353 5.96547C3.06524 5.88086 1.49542 6.71742 0.640901 8.14108C-0.213634 9.56474 -0.213616 11.3435 0.640901 12.7672C1.49544 14.1909 3.06526 15.0274 4.72353 14.9428L4.72353 20.9083L10.8057 20.9083C10.8091 18.4349 12.8152 16.4316 15.2886 16.4316C17.762 16.4316 19.768 18.4349 19.7714 20.9082L25.6084 20.9083L25.6084 14.7911C25.9673 14.8831 26.3354 14.934 26.7058 14.9428C28.3641 15.0274 29.9339 14.1909 30.7884 12.7672C31.643 11.3436 31.643 9.56473 30.7884 8.14107C29.9339 6.7174 28.3641 5.88085 26.7058 5.96547L26.7174 5.96547Z" transform="translate(292.18365 56.934357)" id="Shape" fill="#D7EFF9" stroke="none" />
          <path d="M14.9311 4.47666C14.9277 2.00326 12.9217 0 10.4483 0C7.9749 0 5.96887 2.00326 5.96545 4.47664L0 4.47666L0 25.3732L5.96545 25.3732C5.96887 22.8998 7.9749 20.8966 10.4483 20.8966C12.9217 20.8966 14.9277 22.8998 14.9311 25.3732L20.9082 25.3732L20.9082 4.47666L14.9311 4.47666Z" transform="translate(204.53033 136.89621)" id="Shape" fill="#D7EFF9" stroke="none" />
          <path d="M20.8501 10.4538L20.8501 4.47666L14.9314 4.47666C14.9279 2.00326 12.9219 0 10.4485 0C7.97515 0 5.96911 2.00326 5.96569 4.47664L0.000249385 4.47666L0.000249385 10.4538C2.47545 10.4547 4.48148 12.4616 4.48141 14.9368C4.48134 17.412 2.4752 19.4187 0 19.4195L0.000249385 25.3849L5.96569 25.3849C5.96911 22.9115 7.97515 20.9082 10.4485 20.9082C12.9219 20.9082 14.9279 22.9115 14.9314 25.3849L20.8968 25.3849L20.8968 19.4195C22.4987 19.4201 23.9792 18.5658 24.7804 17.1786C25.5816 15.7914 25.5816 14.0821 24.7806 12.6949C23.9795 11.3076 22.499 10.4533 20.8971 10.4538L20.8501 10.4538Z" transform="translate(272.2397 128.16403)" id="Shape" fill="#D7EFF9" stroke="none" />
        </g>
      </g>
    </g>
  </g>
</svg>