<svg xmlns="http://www.w3.org/2000/svg" viewBox="0 0 428.3 279.69"><defs><style>.cls-1{isolation:isolate;}.cls-2{fill:#d7eff9;}.cls-3{fill:#a7a9ac;mix-blend-mode:multiply;}.cls-37,.cls-4{fill:#fff;}.cls-5{fill:#19365a;}.cls-18,.cls-19,.cls-35,.cls-38,.cls-6{fill:none;}.cls-6{stroke:#244e80;stroke-width:0.85px;stroke-dasharray:2.83;}.cls-18,.cls-19,.cls-35,.cls-37,.cls-6{stroke-linecap:round;stroke-linejoin:round;}.cls-7{fill:#a05e47;}.cls-8{fill:#e59b39;}.cls-9{fill:#632a1a;}.cls-10{fill:#fbb040;}.cls-11{fill:#d38e33;}.cls-12{fill:#774031;}.cls-13,.cls-34{fill:#171e26;}.cls-13{opacity:0.3;}.cls-14{fill:#7f4637;}.cls-15{fill:#d3afa5;}.cls-16{fill:#eacfc5;}.cls-17{fill:#171c27;}.cls-18{stroke:#7f4637;stroke-width:0.57px;}.cls-19{stroke:#a5867c;}.cls-19,.cls-35{stroke-width:0.28px;}.cls-20{fill:#503972;}.cls-21{fill:#dba38d;}.cls-22{fill:#f75454;}.cls-23{fill:#bf4040;}.cls-24{fill:#eeb399;}.cls-25{fill:#c18b76;}.cls-26{fill:#638dce;}.cls-27{fill:#b57359;}.cls-28{fill:#7298e2;}.cls-29{fill:#5f87df;}.cls-30{fill:#0d2638;}.cls-31{fill:#224cb3;}.cls-32{fill:#3f649e;}.cls-33{fill:#cc957f;}.cls-35{stroke:#3c62a0;}.cls-36{fill:#173658;}.cls-37{stroke:#1f74c2;}.cls-38{stroke:#19365a;stroke-miterlimit:10;}.cls-39{fill:#709ce8;}</style></defs><title>Vision</title><g class="cls-1"><g id="Objects"><path class="cls-2" d="M312.61,54.75c-28-8.92-61.13-13.17-90.5-14.62A267.44,267.44,0,0,0,69.35,79.54C45,94.59,22.61,114.28,9.89,139.91-22,204.24,28.15,263.19,91.1,275.72c31.74,6.32,64.48,3.68,96.79,1.64,42-2.66,84.11-4.28,126.08-1.42,16,1.1,32.28,2.82,47.94-.66,36.66-8.17,62.34-44.86,65.9-82.25a116.75,116.75,0,0,0-28.06-86.84,134.42,134.42,0,0,0-31-25.69A255.21,255.21,0,0,0,312.61,54.75Z"/><polygon class="cls-3" points="361.02 105.65 353.39 110.84 365.26 113.99 365.26 124.03 371.06 116.96 384.21 120.31 397.22 91.51 361.02 105.65"/><polygon class="cls-4" points="363.98 110.84 363.98 120.31 372.1 111.71 363.98 110.84"/><polygon class="cls-4" points="366.02 111.71 397.99 85.95 382.75 116.01 366.02 111.71"/><polygon class="cls-4" points="397.99 85.95 352.85 106.1 366.02 111.71 397.99 85.95"/><polygon class="cls-5" points="366.02 111.71 363.98 110.84 397.99 85.95 366.02 111.71"/><path class="cls-6" d="M361.88,126.75c-9.56,8.54-22.94,11.74-35.75,11.53-5.59-.09-11.27-.8-16.33-3.17a15.69,15.69,0,0,1-6.68-5.38,8.77,8.77,0,0,1-.91-8.28c1.22-2.62,4.42-4.33,7.17-3.39,2.94,1,4.37,4.62,3.74,7.67s-2.83,5.54-5.27,7.47c-6.12,4.85-14.07,7-21.88,7.13s-15.52-1.79-22.9-4.37"/><path class="cls-4" d="M142,116.05a8.63,8.63,0,0,0,3.24-.5,6,6,0,0,0,2-1.46c3.9-4.21,2.45-12-2.69-14.6s-12.25,1.07-13.23,6.72a4.42,4.42,0,0,0-8.29-.89c-1.2-4.54-3.23-9-6.86-12s-9.12-4-13.1-1.53c-5,3.17-5.7,10.18-5.3,16.12-.26-3.93-8.06.32-8.83,2.26-3.2-2.35-9.27.17-6.36,4.07,2.45,3.28,10.9,2.65,14.35,2.64C112,116.8,127,116.44,142,116.05Z"/><path class="cls-2" d="M345.35,40.73a8.43,8.43,0,0,0,3.24-.5,5.89,5.89,0,0,0,2-1.46c3.9-4.21,2.45-12.05-2.69-14.59s-12.25,1.06-13.23,6.71a4.43,4.43,0,0,0-8.3-.89c-1.19-4.54-3.23-9-6.86-12s-9.12-4-13.09-1.52c-5,3.17-5.7,10.17-5.31,16.11-.26-3.93-8.05.33-8.83,2.26-3.2-2.35-9.26.17-6.35,4.07,2.44,3.28,10.89,2.65,14.35,2.64C315.28,41.48,330.32,41.13,345.35,40.73Z"/><path class="cls-5" d="M259.8,228.44h15.75a8.06,8.06,0,0,1,8.06,8.06V275a0,0,0,0,1,0,0H251.74a0,0,0,0,1,0,0V236.5a8.06,8.06,0,0,1,8.06-8.06Z" transform="translate(28.96 -27.61) rotate(6.24)"/><path class="cls-7" d="M245.83,226.84a18.51,18.51,0,0,1-8-4.92c-5.27-5.36-7.74-13.52-7.33-24.26v0a75.53,75.53,0,0,0-11.22-.4c-.69,17.94,5.61,28,11.11,33.28a28.68,28.68,0,0,0,13.15,7.43,5.52,5.52,0,0,0,1.14.12,5.7,5.7,0,0,0,5.58-4.53A5.64,5.64,0,0,0,245.83,226.84Z"/><path class="cls-8" d="M243.65,238.24a6,6,0,0,0,1.18.12,5.85,5.85,0,0,0,1.22-11.58,19,19,0,0,1-8.29-5.08,22.11,22.11,0,0,1-2.52-3.08l-8.41,8.32a32.89,32.89,0,0,0,3.25,3.62A29.76,29.76,0,0,0,243.65,238.24Z"/><path class="cls-7" d="M230.16,191.61a2.72,2.72,0,0,0-.46-1.35,1,1,0,0,0-1.28-.3c-.61.42-.28,1.4-.59,2.07a1.65,1.65,0,0,1-1.35.84,11.66,11.66,0,0,1-1.67-.06,5.73,5.73,0,0,0-5.62,4.68,2,2,0,0,0,.21,1.45,2.41,2.41,0,0,0,1.69.74,22.88,22.88,0,0,0,5.08.36c1.53-.13,4.06-.55,4.31-2.32A22.78,22.78,0,0,0,230.16,191.61Z"/><path class="cls-9" d="M221.68,198.78a3.17,3.17,0,0,1-.21-.27.21.21,0,0,1,.07-.27.19.19,0,0,1,.27.07.77.77,0,0,0,.59.44c.43,0,.91-.47,1.06-.66a.17.17,0,0,1,.14-.07.18.18,0,0,1,.15,0,1,1,0,0,0,.88.36c.38-.09.57-.59.57-.59a.2.2,0,0,1,.16-.13.21.21,0,0,1,.19.1.86.86,0,0,0,.55.47.56.56,0,0,0,.38-.08c1.6-1.15-.35-4.89-.37-4.93a.19.19,0,1,1,.34-.19c.09.17,2.13,4.09.26,5.43a.9.9,0,0,1-.67.16,1.08,1.08,0,0,1-.63-.39,1.19,1.19,0,0,1-.69.53,1.25,1.25,0,0,1-1.09-.32,1.77,1.77,0,0,1-1.25.65A1,1,0,0,1,221.68,198.78Z"/><path class="cls-9" d="M225.24,198a.14.14,0,0,1-.05-.1,27.3,27.3,0,0,0-1.14-4.79.19.19,0,0,1,.09-.26.19.19,0,0,1,.26.08,27.71,27.71,0,0,1,1.18,4.91.21.21,0,0,1-.17.22A.18.18,0,0,1,225.24,198Z"/><path class="cls-9" d="M223.47,198.35a.31.31,0,0,1-.05-.1,27.7,27.7,0,0,0-1.2-4.65.2.2,0,0,1,.07-.27.2.2,0,0,1,.27.08,26.54,26.54,0,0,1,1.25,4.77.2.2,0,0,1-.16.23A.19.19,0,0,1,223.47,198.35Z"/><path class="cls-9" d="M227.16,197.4a.18.18,0,0,1,0-.18,1,1,0,0,1,.53-.62,8.45,8.45,0,0,1-.53-1.53,3.19,3.19,0,0,1,.06-1.72,1.18,1.18,0,0,1,.39-.59,1.07,1.07,0,0,1,1.07-.07,2.2,2.2,0,0,1,.76.64,6.2,6.2,0,0,1,1.19,2.36.19.19,0,0,1-.15.23.2.2,0,0,1-.24-.14,5.46,5.46,0,0,0-1.11-2.2,1.74,1.74,0,0,0-.61-.53.64.64,0,0,0-.67,0,.86.86,0,0,0-.26.41,2.73,2.73,0,0,0,0,1.51,8.39,8.39,0,0,0,.52,1.5.34.34,0,0,1,0,.29.35.35,0,0,1-.21.17.57.57,0,0,0-.34.37.19.19,0,0,1-.24.14A.15.15,0,0,1,227.16,197.4Z"/><path class="cls-10" d="M236.37,235.05l2.74,35.43a35.05,35.05,0,0,0,19.29,3c11.3-1.32,13.77-6.31,13.77-6.31s-1.95-34.76-2.28-35.11-1.66-11.76-18-9.43S236.37,235.05,236.37,235.05Z"/><path class="cls-11" d="M260,236.44s9.06,15.28,3.23,32.25c0,0,9.33-13.42,9-17.85S260,236.44,260,236.44Z"/><path class="cls-7" d="M281,248.53l-13.33-21.17a5.67,5.67,0,0,0-9.59,6L269.74,252l-8.21,17.88s4,4.87,10.3,4.73l9.5-20.66A5.65,5.65,0,0,0,281,248.53Z"/><polygon class="cls-7" points="259.29 216.44 255.75 225.61 250.04 227.83 246.9 223.74 249.03 218.23 259.29 216.44"/><path class="cls-12" d="M256.36,220.62l-8.1-.39-1.13,2.93C251.34,224.18,256.36,220.62,256.36,220.62Z"/><rect class="cls-7" x="244.23" y="198.74" width="16.69" height="23.86" rx="6.31" transform="translate(92.76 -76.8) rotate(21.1)"/><path class="cls-13" d="M258.76,200.27,255,198.8a6.35,6.35,0,0,0-7.58,2.47,5.85,5.85,0,0,0,2.22,2.14,9.67,9.67,0,0,0,5.71.74,6,6,0,0,1,2.27-.05,1.74,1.74,0,0,1,1.41,1.56,2,2,0,0,1-1,1.5,3.64,3.64,0,0,0-.93.71,2.63,2.63,0,0,0-.46,1.41,7.55,7.55,0,0,0,.63,4.72,7.73,7.73,0,0,0,1.78,1.92l.37.29,3-7.78A6.33,6.33,0,0,0,258.76,200.27Z"/><path class="cls-7" d="M262.23,216.36a2,2,0,1,1-1.17-2.64A2,2,0,0,1,262.23,216.36Z"/><path class="cls-10" d="M267.64,227.36a5.67,5.67,0,0,0-9.59,6l6,9.54a46.25,46.25,0,0,0,10.1-5.25Z"/><path class="cls-7" d="M271.06,276.6a4.23,4.23,0,0,1-1.19,1.68,1.49,1.49,0,0,1-1.89,0c-.25-.26-.39-.65-.72-.78s-.85.18-1.28.3a1.73,1.73,0,0,1-2-1.14,1.42,1.42,0,0,0-.39-.71c-.5-.34-1.26.32-1.76,0s-.27-.92-.64-1.2c-.2-.15-.48-.14-.71-.24a1.08,1.08,0,0,1-.56-1.06,3.21,3.21,0,0,1,.39-1.19l.87-1.8a3.39,3.39,0,0,1,.64-1,3,3,0,0,1,2.42-.42,13.35,13.35,0,0,1,4.64,1.31,6.72,6.72,0,0,1,2.89,2.77C272.35,274.17,271.55,275.59,271.06,276.6Z"/><path class="cls-5" d="M46.1,230H61.85a8.06,8.06,0,0,1,8.06,8.06v38.55a0,0,0,0,1,0,0H38a0,0,0,0,1,0,0V238.05A8.06,8.06,0,0,1,46.1,230Z"/><path class="cls-7" d="M70.21,230a5.67,5.67,0,0,1,7.57,2.64l8.82,18.23,20.7-7.71c1.09,7,4,10.11,4,10.11L85.79,263.28a5.68,5.68,0,0,1-7.14-2.83L67.57,237.53A5.67,5.67,0,0,1,70.21,230Z"/><path class="cls-14" d="M81.84,263.32a5.66,5.66,0,0,0,4,0l9.44-3.73a32.51,32.51,0,0,1-7.72-9.07l-.91.34-3.42-7.06c-3.34-1.16-9.3-1.33-13.23-1.29l8.7,18A5.64,5.64,0,0,0,81.84,263.32Z"/><path class="cls-15" d="M71.51,245.69l5.07,6.54L85,247.49l-7.21-14.9a5.65,5.65,0,0,0-6.28-3.06l-.26.14Z"/><path class="cls-7" d="M113.05,241a2.67,2.67,0,0,1,1.37-.1,1,1,0,0,1,.75,1c-.15.7-1.14.77-1.62,1.3a1.56,1.56,0,0,0-.24,1.51,11.31,11.31,0,0,0,.67,1.46,5.53,5.53,0,0,1-2,6.75,1.9,1.9,0,0,1-1.37.35c-.6-.13-1-.7-1.29-1.23a21.47,21.47,0,0,1-2.22-4.38c-.46-1.4-1-3.81.45-4.69A22.18,22.18,0,0,1,113.05,241Z"/><path class="cls-14" d="M110,250.94a1.41,1.41,0,0,0,.31.08.19.19,0,0,0,.22-.16.18.18,0,0,0-.16-.21.74.74,0,0,1-.61-.37,1.53,1.53,0,0,1,.18-1.18.2.2,0,0,0,0-.15.22.22,0,0,0-.1-.11c-.4-.19-.62-.41-.66-.65a1,1,0,0,1,.32-.73.2.2,0,0,0,0-.19.21.21,0,0,0-.15-.14.86.86,0,0,1-.64-.3.52.52,0,0,1-.06-.37c.42-1.86,4.48-1.52,4.52-1.52a.19.19,0,0,0,.2-.17.18.18,0,0,0-.17-.2c-.18,0-4.42-.37-4.91,1.79a.85.85,0,0,0,.1.67,1.14,1.14,0,0,0,.59.41,1.1,1.1,0,0,0-.22.81,1.21,1.21,0,0,0,.69.84,1.72,1.72,0,0,0-.1,1.36A1,1,0,0,0,110,250.94Z"/><path class="cls-14" d="M109.32,247.5a.21.21,0,0,0,.11,0,26.46,26.46,0,0,1,4.68-.79.19.19,0,1,0,0-.37,25.43,25.43,0,0,0-4.8.79.19.19,0,0,0-.14.23A.22.22,0,0,0,109.32,247.5Z"/><path class="cls-14" d="M109.71,249.19h.11a25.53,25.53,0,0,1,4.58-.67.19.19,0,0,0,.21-.16.19.19,0,0,0-.17-.21,25.47,25.47,0,0,0-4.71.67.2.2,0,0,0-.14.23A.24.24,0,0,0,109.71,249.19Z"/><path class="cls-14" d="M110.28,251a.15.15,0,0,0,.13,0,11.27,11.27,0,0,1,3.68-.72.2.2,0,0,0,.2-.18.21.21,0,0,0-.19-.2,11.43,11.43,0,0,0-3.83.75.19.19,0,0,0-.11.24A.25.25,0,0,0,110.28,251Z"/><path class="cls-14" d="M109,245.68a.22.22,0,0,0,.19,0,.93.93,0,0,0,.34-.71,8.59,8.59,0,0,0,1.56-.1,3.06,3.06,0,0,0,1.51-.69,1.17,1.17,0,0,0,.38-.57,1,1,0,0,0-.34-1,2.18,2.18,0,0,0-.86-.43,5.6,5.6,0,0,0-2.53-.17.19.19,0,1,0,.06.37,5.48,5.48,0,0,1,2.37.16,1.71,1.71,0,0,1,.7.35.64.64,0,0,1,.23.61.79.79,0,0,1-.27.38,2.69,2.69,0,0,1-1.32.6,7.55,7.55,0,0,1-1.53.09.36.36,0,0,0-.26.1.34.34,0,0,0-.08.25.53.53,0,0,1-.2.44.2.2,0,0,0,0,.27Z"/><path class="cls-16" d="M79.77,238.25,77,274a35.43,35.43,0,0,1-19.48,3.08c-11.4-1.33-13.9-6.37-13.9-6.37s2-35.1,2.3-35.44,1.68-11.88,18.18-9.53S79.77,238.25,79.77,238.25Z"/><polygon class="cls-7" points="60.3 215.52 60.3 225.44 66.23 230.2 69.31 226.9 69.31 220.93 60.3 215.52"/><path class="cls-14" d="M61.54,220.72l7.77,2.58v3.18C65,225.9,61.54,220.72,61.54,220.72Z"/><rect class="cls-7" x="60.3" y="200.68" width="16.85" height="24.09" rx="7.36" transform="translate(137.44 425.44) rotate(180)"/><path class="cls-17" d="M60.6,214.06c.27.67,1.17,1.21,1.7.71a1.28,1.28,0,0,0,.34-.7,10.8,10.8,0,0,0,.18-4.31c-.27-1.68-.9-3.56.06-5a2.64,2.64,0,0,1,2.95-1c.55.19,1,.56,1.57.74,1.1.35,2.27-.12,3.41-.27,2.11-.27,4.4.54,6.29-.42a3.75,3.75,0,0,0,2-2.78,2.11,2.11,0,0,0-.08-1A2,2,0,0,0,77.46,199c-1.47-.27-3,.43-4.45.06-.9-.23-1.67-.86-2.59-1-1.28-.2-2.49.57-3.75.86s-2.65.09-3.94.38c-2.7.59-4.54,3.25-5,6s.07,5.5.65,8.2c.2,1,.41,1.94.61,2.9a3.13,3.13,0,0,0,1.1,2.14.57.57,0,0,0,.37.12c.36,0,.46-.51.46-.87a26.2,26.2,0,0,0-.71-5.29C60.38,213,60.39,213.55,60.6,214.06Z"/><path class="cls-7" d="M58.33,214.58a2.07,2.07,0,1,0,2.07-2.07A2.07,2.07,0,0,0,58.33,214.58Z"/><path class="cls-7" d="M85.67,263.16c.13-.06.28-.13.41-.05a.5.5,0,0,1,.17.27,2.06,2.06,0,0,0,1.64,1.39,1.38,1.38,0,0,0,1.52-1.31,2.26,2.26,0,0,0-.72-1.32,4.1,4.1,0,0,0,2.45,1.66.57.57,0,0,0,.36-.06.65.65,0,0,0,.22-.33,2.39,2.39,0,0,0-.22-1.92,3.12,3.12,0,0,0,.92.7,1,1,0,0,0,1.1-.14c.44-.43.22-1.17,0-1.73s-.55-1.23-.82-1.85a9.33,9.33,0,0,0-1.1-2,7.31,7.31,0,0,0-3.16-2.13,16,16,0,0,0-8-1,1.43,1.43,0,0,0-.51.14,1.38,1.38,0,0,0-.54,1,17.53,17.53,0,0,0,.12,8.81c.31,1.14.73,1.47,2,1.35A12,12,0,0,0,85.67,263.16Z"/><path class="cls-7" d="M52.75,228.05a5.67,5.67,0,0,1,6.17,5.13l1.84,20.16,22.08-.16a68.59,68.59,0,0,0-1.51,11.46l-25.71.09a5.68,5.68,0,0,1-5.69-5.16l-2.31-25.36A5.66,5.66,0,0,1,52.75,228.05Z"/><path class="cls-18" d="M88.9,262.37a27.45,27.45,0,0,0-2-3.67,2.32,2.32,0,0,0-1.92-.88"/><path class="cls-18" d="M91.5,261.49l-1.77-3.9a3.65,3.65,0,0,0-2.29-1.71"/><path class="cls-16" d="M59.09,233A5.87,5.87,0,0,0,47.39,234l1.53,16.79,11.67-1.5Z"/><path class="cls-19" d="M47.59,236.26l1.33,14.56,11.67-1.5L59.14,233.5"/><path class="cls-19" d="M58,225.9l4,7.91,4.28-3.26,4.12,2.95s1.47-3.36,1.47-5.07"/><polyline class="cls-19" points="65.66 231 65.42 243.85 68.22 243.85"/><path class="cls-5" d="M141.91,229.37h15.75a8.06,8.06,0,0,1,8.06,8.06V276a0,0,0,0,1,0,0H133.85a0,0,0,0,1,0,0V237.44A8.06,8.06,0,0,1,141.91,229.37Z" transform="translate(-33.35 23.02) rotate(-7.91)"/><path class="cls-20" d="M168.06,200.79a12.89,12.89,0,0,0-4.63-.95,14.26,14.26,0,0,0-4.61.24,8,8,0,0,0-4.63,4.45,18.36,18.36,0,0,0-1.3,4.49c-.26,1.47-.6,2.89-.77,4.37-.39,3.19-.42,6.41-.93,9.59-.95,5.82-3.49,11.25-5.21,16.9s-2.56,11.92-.16,17.31a2.78,2.78,0,0,0,.85,1.22,3,3,0,0,0,1.29.44,47,47,0,0,0,8.54.72,7.75,7.75,0,0,0,3-.45,6.1,6.1,0,0,0,2.14-1.67c2.29-2.59,3.23-6.07,4.11-9.41s1.68-6.41,2.53-9.61c2.35-8.94,4.71-18,5-27.22.09-3.15-.23-6.66-2.54-8.8A9,9,0,0,0,168.06,200.79Z"/><path class="cls-21" d="M202.07,243.2c-23.22,3.36-30.14-13.15-30.44-13.91a4.65,4.65,0,0,0-8.69,3.34,32,32,0,0,0,8.7,11.76c5.52,4.79,15.25,10,30.47,8.19l1.29-.17A25.87,25.87,0,0,0,202.07,243.2Z"/><path class="cls-21" d="M206.41,241.08a3.34,3.34,0,0,1,1.9-.33c.63.15,1.18.86.9,1.45s-1,.85-.8,1.37a1,1,0,0,0,.33.4c1.71,1.33,4,1.58,6,2.43a3.16,3.16,0,0,1,2.05,1.93,2.38,2.38,0,0,1-.6,2.07,5.5,5.5,0,0,1-1.82,1.26,15.31,15.31,0,0,1-11.53.58,3,3,0,0,1-1.14-.63,3.35,3.35,0,0,1-.65-1.11,11,11,0,0,1-.78-2.42,5.88,5.88,0,0,1,1.6-4.78C203.21,241.82,204.67,241.75,206.41,241.08Z"/><path class="cls-22" d="M176.09,235.8a22.16,22.16,0,0,1-4.46-6.51,4.65,4.65,0,0,0-8.69,3.34,31,31,0,0,0,6.44,9.61A32.38,32.38,0,0,0,176.09,235.8Z"/><path class="cls-23" d="M169.4,242.39a.16.16,0,0,1-.13,0,31.28,31.28,0,0,1-6.48-9.67.16.16,0,0,1,.29-.11A31.06,31.06,0,0,0,169.4,242a32.9,32.9,0,0,0,6.49-6.23,22.1,22.1,0,0,1-4.41-6.47.16.16,0,0,1,.29-.11,21.76,21.76,0,0,0,4.44,6.46.17.17,0,0,1,0,.2,33.13,33.13,0,0,1-6.75,6.48Z"/><path class="cls-22" d="M173.78,234.88a54.63,54.63,0,0,1,.14,9.49c-.16,7,.07,14.15,2.38,20.79.79,2.25,1.52,4.26-.26,6.23-3.53,3.93-11.87,4.83-16.72,5-3.1.09-13.44-.09-14.75-4.42-.43-1.41,1.13-4.59,1.4-6.1.57-3.22.25-6.93.25-10.23a56.51,56.51,0,0,0-1.07-13.12,17.18,17.18,0,0,1,.9-11.53,10,10,0,0,1,4-4.76,18,18,0,0,1,8.28-1.75c3.26,0,7.54.15,10.47,1.72,2.76,1.48,4.27,5.14,4.82,8C173.71,234.44,173.74,234.66,173.78,234.88Z"/><path class="cls-24" d="M163.79,220.88l.17,6s0,2.87-4.38,2.84a4.46,4.46,0,0,1-4.7-4.05l-.28-9.95Z"/><path class="cls-25" d="M156,220.69l7.87,2.36.09,3.19C159.57,225.78,156,220.69,156,220.69Z"/><rect class="cls-24" x="154.51" y="200.38" width="16.9" height="24.17" rx="6.31" transform="translate(331.83 420.26) rotate(178.39)"/><path class="cls-24" d="M152.6,214.61a2.07,2.07,0,1,0,2-2.12A2.07,2.07,0,0,0,152.6,214.61Z"/><path class="cls-20" d="M171.72,203.49s-7.13,9.68-17.82,9c0,0-2.37-12.78,8-13.16A12.08,12.08,0,0,1,171.72,203.49Z"/><path class="cls-24" d="M177.76,257.24c-22.41-6.93-21.57-24.82-21.51-25.64a4.66,4.66,0,0,0-9.29-.71,32.14,32.14,0,0,0,2.81,14.36c2.93,6.7,9.47,15.61,24,20.49l1.24.39A26,26,0,0,0,177.76,257.24Z"/><path class="cls-22" d="M157.48,239.41a21.84,21.84,0,0,1-1.23-7.81,4.66,4.66,0,0,0-9.29-.71,31.1,31.1,0,0,0,1.7,11.45A33,33,0,0,0,157.48,239.41Z"/><path class="cls-23" d="M148.61,242.49a.14.14,0,0,1-.1-.1,31.34,31.34,0,0,1-1.7-11.51.16.16,0,0,1,.17-.15.17.17,0,0,1,.14.17,30.74,30.74,0,0,0,1.64,11.26,32.39,32.39,0,0,0,8.53-2.83,22.27,22.27,0,0,1-1.2-7.74.16.16,0,0,1,.17-.14.15.15,0,0,1,.14.16,22,22,0,0,0,1.23,7.75.15.15,0,0,1-.08.18,32.39,32.39,0,0,1-8.87,3Z"/><path class="cls-24" d="M182.46,257.29a3.35,3.35,0,0,1,1.85.52,1.15,1.15,0,0,1,.2,1.69c-.42.36-1.24.36-1.31.91a.86.86,0,0,0,.13.49c1,1.94,2.92,3.15,4.36,4.77a3.16,3.16,0,0,1,1,2.63,2.38,2.38,0,0,1-1.43,1.6,5.4,5.4,0,0,1-2.19.36,15.31,15.31,0,0,1-10.65-4.43,3,3,0,0,1-.77-1.06,3.42,3.42,0,0,1-.1-1.28,10.13,10.13,0,0,1,.33-2.52,5.91,5.91,0,0,1,3.5-3.63C179.25,256.58,180.61,257.15,182.46,257.29Z"/><path class="cls-5" d="M367.72,228.44h15.75a8.06,8.06,0,0,1,8.06,8.06V275a0,0,0,0,1,0,0H359.66a0,0,0,0,1,0,0V236.5A8.06,8.06,0,0,1,367.72,228.44Z"/><path class="cls-24" d="M355.89,230.79a5.62,5.62,0,0,0-7.95-.07l-14.32,14-16.86-13.87c-3.35,6.14-7.05,8.1-7.05,8.1l20.49,17.66a5.63,5.63,0,0,0,7.6-.24l18-17.66A5.63,5.63,0,0,0,355.89,230.79Z"/><path class="cls-26" d="M355.89,230.79a5.62,5.62,0,0,0-7.95-.07L334.41,244c1.06,2.7,3.16,7.18,6.1,9.76l15.3-15A5.63,5.63,0,0,0,355.89,230.79Z"/><path class="cls-24" d="M312.09,226.9a2.61,2.61,0,0,0-1.25-.55,1,1,0,0,0-1,.71c-.1.7.8,1.1,1.08,1.75a1.61,1.61,0,0,1-.29,1.5,11.82,11.82,0,0,1-1.11,1.13,5.46,5.46,0,0,0-.35,7,1.89,1.89,0,0,0,1.16.78,2.27,2.27,0,0,0,1.61-.71,21.09,21.09,0,0,0,3.53-3.34c.9-1.16,2.24-3.21,1.15-4.52A21.73,21.73,0,0,0,312.09,226.9Z"/><path class="cls-27" d="M311.77,237a1.35,1.35,0,0,1-.33,0,.17.17,0,0,1-.14-.21.18.18,0,0,1,.22-.15.73.73,0,0,0,.69-.14,1.53,1.53,0,0,0,.22-1.16.23.23,0,0,1,0-.14.18.18,0,0,1,.13-.08.75.75,0,0,0,.78-1.17.17.17,0,0,1,0-.19.18.18,0,0,1,.18-.08.84.84,0,0,0,.69-.07.55.55,0,0,0,.19-.33c.22-1.86-3.67-2.91-3.71-2.92a.19.19,0,0,1-.13-.23.18.18,0,0,1,.23-.13c.17,0,4.24,1.14,4,3.32a.89.89,0,0,1-.33.58,1,1,0,0,1-.68.19,1.11,1.11,0,0,1-.07.83,1.19,1.19,0,0,1-.93.55,1.67,1.67,0,0,1-.35,1.3A1,1,0,0,1,311.77,237Z"/><path class="cls-27" d="M313.54,234.06a.14.14,0,0,1-.1,0,26,26,0,0,0-4.1-2.29.19.19,0,1,1,.1-.36,26.23,26.23,0,0,1,4.21,2.34.19.19,0,0,1,.05.26A.18.18,0,0,1,313.54,234.06Z"/><path class="cls-27" d="M312.62,235.5a.17.17,0,0,1-.1,0,25.32,25.32,0,0,0-4-2.16.18.18,0,0,1-.14-.22.19.19,0,0,1,.23-.14,25.12,25.12,0,0,1,4.16,2.2.19.19,0,0,1-.1.35Z"/><path class="cls-27" d="M311.48,237a.18.18,0,0,1-.12,0,11.42,11.42,0,0,0-3.19-1.9.18.18,0,0,1-.12-.24.18.18,0,0,1,.23-.11,11.1,11.1,0,0,1,3.32,2,.18.18,0,0,1,0,.26A.17.17,0,0,1,311.48,237Z"/><path class="cls-27" d="M314.48,232.47a.19.19,0,0,1-.16-.09.9.9,0,0,1-.08-.77,7.51,7.51,0,0,1-1.43-.62,3.06,3.06,0,0,1-1.17-1.14,1.15,1.15,0,0,1-.16-.66,1,1,0,0,1,.64-.8,2.24,2.24,0,0,1,.94-.12,5.76,5.76,0,0,1,2.42.69.19.19,0,0,1,.08.25.2.2,0,0,1-.26.08,5.38,5.38,0,0,0-2.26-.64,1.74,1.74,0,0,0-.78.08.64.64,0,0,0-.41.49.85.85,0,0,0,.12.45,2.68,2.68,0,0,0,1,1,7.47,7.47,0,0,0,1.4.6.34.34,0,0,1,.21.18.32.32,0,0,1,0,.26.57.57,0,0,0,0,.48.18.18,0,0,1-.06.25A.19.19,0,0,1,314.48,232.47Z"/><path class="cls-28" d="M343.6,238.63l2.74,35.43a35.07,35.07,0,0,0,19.3,3.05c11.29-1.32,13.76-6.31,13.76-6.31s-1.95-34.76-2.28-35.1-1.66-11.77-18-9.44S343.6,238.63,343.6,238.63Z"/><rect class="cls-29" x="28.82" y="270.21" width="370.67" height="8.78"/><rect class="cls-30" x="60.4" y="269.52" width="49.92" height="2.43" rx="0.5" transform="translate(170.71 541.47) rotate(180)"/><path class="cls-31" d="M86.77,271.91h40.74a3.67,3.67,0,0,0,3.49-3l3.52-22.2a2.52,2.52,0,0,0-2.54-3H91.24a3.69,3.69,0,0,0-3.49,3l-3.51,22.2A2.51,2.51,0,0,0,86.77,271.91Z"/><circle class="cls-4" cx="110.26" cy="257.74" r="3.75"/><path class="cls-32" d="M375.32,241s2.5,29.92-4.83,30.5-19.7,0-19.7,0,14.93-2.85,16.56-11.16S375.32,241,375.32,241Z"/><path class="cls-24" d="M359.23,234.89c5.71-.81,6.52-5.93,6.51-8.81a26.47,26.47,0,0,0-6.62.18,28.83,28.83,0,0,0-7.3,1.93C352,230.61,353.09,235.75,359.23,234.89Z"/><polygon class="cls-24" points="362.89 216.31 362.89 226.14 358.37 230.27 353.96 227.59 353.96 221.68 362.89 216.31"/><path class="cls-33" d="M361.67,221.27l-7.7,2.55V227C358.26,226.39,361.67,221.27,361.67,221.27Z"/><rect class="cls-24" x="346.21" y="201.41" width="16.69" height="23.86" rx="6.31"/><path class="cls-34" d="M345.12,203.87a1.75,1.75,0,0,0-.5,1.77,1.69,1.69,0,0,0,.71.69,3.83,3.83,0,0,0,3.41.18,1,1,0,0,0,0,1.28,1.84,1.84,0,0,0,1.21.63,4.87,4.87,0,0,0,4-1.48,1.79,1.79,0,0,0,1.68,1.81c.83,0,1.63-.53,2.45-.36.23.41-.14,1.06.24,1.33a.7.7,0,0,0,.32.09c.77.08,1.69-.06,2.19.53s.22,1.42,0,2.14a2.54,2.54,0,0,0,.08,2c.36.58,1.34.76,1.7.18.1-.16.14-.36.24-.52s.34-.28.49-.16a.42.42,0,0,1,.13.39,8.31,8.31,0,0,1-.87,2.41,1.88,1.88,0,0,0,.49,2.31,1.94,1.94,0,0,0,.74.2,3.19,3.19,0,0,0,2.34-.35,3.56,3.56,0,0,0,1.07-2,2.45,2.45,0,0,0,.11-.89.75.75,0,0,0-.54-.65c-.36-1,.72-2.22.08-3.06a3.29,3.29,0,0,0-.52-.46,2.81,2.81,0,0,1-.86-1.78,12.5,12.5,0,0,1,0-2,16.59,16.59,0,0,0-.4-3.91,4,4,0,0,0-.6-1.5,1.58,1.58,0,0,0-1.4-.67,4,4,0,0,0-1.6-2.48,2.43,2.43,0,0,0-2.82.08,1.25,1.25,0,0,1-.55.37,1,1,0,0,1-.52-.11c-1.55-.63-3.35-1.16-4.85-.42a2.18,2.18,0,0,1-.69.28,1.94,1.94,0,0,1-.75-.12,2.08,2.08,0,0,0-1.76.2c-.54.4-.3.85-.35,1.39s-.39.58-1,.79A7.54,7.54,0,0,0,345.12,203.87Z"/><path class="cls-24" d="M365.61,215.18a2,2,0,1,1-2-2A2.05,2.05,0,0,1,365.61,215.18Z"/><path class="cls-24" d="M370.43,229.05a5.68,5.68,0,0,0-6.15,5.15l-2.15,24.34L339.31,260a33.4,33.4,0,0,0,.72,11.32l27.69-1.78a5.67,5.67,0,0,0,5.28-5.16l2.58-29.19A5.67,5.67,0,0,0,370.43,229.05Z"/><path class="cls-24" d="M337,271.39a4.19,4.19,0,0,1-2-.55,1.49,1.49,0,0,1-.63-1.79c.16-.32.49-.58.5-.94s-.45-.74-.72-1.11a1.73,1.73,0,0,1,.42-2.22c.21-.18.46-.34.53-.6.16-.59-.72-1.09-.55-1.67s.78-.57.92-1a3.88,3.88,0,0,0,0-.76,1.06,1.06,0,0,1,.8-.88,3.14,3.14,0,0,1,1.26,0l2,.22a3.17,3.17,0,0,1,1.14.27,3,3,0,0,1,1.21,2.13,13.24,13.24,0,0,1,.33,4.81,6.66,6.66,0,0,1-1.63,3.65C339.74,271.8,338.13,271.52,337,271.39Z"/><path class="cls-28" d="M370.46,228.76a5.79,5.79,0,0,0-6.28,5.25l-1.8,20.43a36.41,36.41,0,0,0,11.35,3.09l2-22.5A5.78,5.78,0,0,0,370.46,228.76Z"/><path class="cls-35" d="M364,235.64l-1.66,18.8s6.95,3,11.35,3.09l1.87-19.36"/><rect class="cls-30" x="309.74" y="269.52" width="49.92" height="2.43" rx="0.5"/><path class="cls-36" d="M333.28,271.91H292.55a3.67,3.67,0,0,1-3.49-3l-3.52-22.2a2.52,2.52,0,0,1,2.54-3h40.73a3.7,3.7,0,0,1,3.5,3l3.51,22.2A2.51,2.51,0,0,1,333.28,271.91Z"/><path class="cls-4" d="M307.56,258.37a8,8,0,0,0-.59,1.12,1.25,1.25,0,0,0,.13,1.2,1.23,1.23,0,0,0,.49.32,2.65,2.65,0,0,0,2.82-.76,4.28,4.28,0,0,0,1-2.86,2.61,2.61,0,0,0-.89-2.22,2,2,0,0,0-.71-.29,1.69,1.69,0,0,0-1.19.15c-.51.31-.55.89-.6,1.43A4.88,4.88,0,0,1,307.56,258.37Z"/><path class="cls-4" d="M309.29,253.94a1.48,1.48,0,0,1,0-.63.67.67,0,0,1,.43-.44.83.83,0,0,1,.22,0,.68.68,0,0,1,.48.14.48.48,0,0,1,.13.38.78.78,0,0,1-.12.39,1.33,1.33,0,0,1-.66.64C309.39,254.56,309.33,254.32,309.29,253.94Z"/><path class="cls-37" d="M86.52,161.65a21.72,21.72,0,1,0-22.85,21.69l3.15,7.74,3.75-8.49A21.72,21.72,0,0,0,86.52,161.65Z"/><path class="cls-29" d="M72.45,157.83v-5.11H67.34a3.84,3.84,0,0,0-7.68,0H54.55v17.91h5.11a3.84,3.84,0,0,1,7.68,0h5.11v-5.11a3.85,3.85,0,1,0,0-7.69Z"/><path class="cls-37" d="M399.1,174.05a21.72,21.72,0,1,0-29.86,10l-.39,8.35,7-6.12A21.73,21.73,0,0,0,399.1,174.05Z"/><path class="cls-29" d="M388.83,161a4.27,4.27,0,0,0-.95.13v-5.24h-5.11a3.84,3.84,0,1,1-7.68,0H370V161a3.84,3.84,0,0,0,0,7.68v5.12h5.21a3.85,3.85,0,1,1,7.69,0h5v-5.25a3.75,3.75,0,0,0,.95.13,3.84,3.84,0,0,0,0-7.68Z"/><path class="cls-37" d="M127.17,175.58a21.72,21.72,0,1,1,29.86,10l.4,8.35-7-6.12A21.75,21.75,0,0,1,127.17,175.58Z"/><path class="cls-29" d="M150.85,158.33a3.85,3.85,0,0,0-7.69,0h-5.11v17.91h5.11a3.85,3.85,0,0,1,7.69,0H156V158.33Z"/><path class="cls-37" d="M308.39,187.23a21.72,21.72,0,1,0-31.31-3.48l-3.88,7.4,8.9-2.61A21.73,21.73,0,0,0,308.39,187.23Z"/><path class="cls-29" d="M303,167.43v-5.12h-5.11a3.84,3.84,0,0,0-7.68,0h-5.11v5.12a3.84,3.84,0,1,1,0,7.68v5.11h5.11a3.84,3.84,0,0,1,7.68,0H303v-5.11a3.84,3.84,0,1,0,0-7.68Z"/><path class="cls-31" d="M194.87,175.61s-.23,8.83,19.28,8.83,18.6-8.83,18.6-8.83Z"/><rect class="cls-5" x="189.68" y="152.65" width="48.78" height="25.43" rx="4.71"/><path class="cls-29" d="M275.32,58.63C274,39.55,262.19,2.34,216.35.11V0c-.74,0-1.48,0-2.2,0S212.7,0,212,0V.11c-45.84,2.23-57.62,39.44-59,58.52-1.4,19.67,8.82,35,17.34,50.34s11.62,35.86,12.94,43.3,8,7.2,8,7.2H237a8.11,8.11,0,0,0,8.05-7.2c1.32-7.44,4.42-28,12.94-43.3S276.71,78.3,275.32,58.63Z"/><path class="cls-38" d="M198.6,161.29a161.1,161.1,0,0,0,7.66-51c-.08-6.82-.63-13.78-3.34-20-.49-1.13-1.34-2.41-2.56-2.31s-1.75,1.21-2.1,2.24a13.48,13.48,0,0,0,11.3,17.74,6.93,6.93,0,0,0,3.17-.27c2.08-.77,3.33-2.89,4.12-5a24,24,0,0,0,.88-14.26c-.29-1.17-1-2.56-2.2-2.48-.85.06-1.43.87-1.81,1.62-2.05,4.07-1.82,9-.5,13.33a12,12,0,0,0,2.82,5.22c3.48,3.43,9.69,2.54,13.21-.84s4.85-8.48,5.18-13.35c.16-2.34-.44-5.41-2.77-5.73s-3.77,2.59-4.31,5a178.92,178.92,0,0,0-3,62.49c.5,3.92,1.2,8,3.57,11.16"/><path class="cls-39" d="M170.53,25.1a20.67,20.67,0,0,0-4.22,6.67,8,8,0,0,0,1,7.54c2.4,2.86,7,2.82,10.3,1s5.62-4.85,8.09-7.65c3.9-4.42,8.51-8.44,14.11-10.25,2.13-.69,4.35-1,6.43-1.86a8.34,8.34,0,0,0,4.9-4.29c1.13-2.78-.24-6.15-2.67-7.91-5.88-4.25-13.51-.22-19.27,2.23C181.71,13.81,175.79,18.89,170.53,25.1Z"/><path class="cls-2" d="M170,60.43V55.31h-5.11a3.84,3.84,0,1,0-7.68,0h-5.11V73.22h5.11a3.84,3.84,0,0,1,7.68,0H170V68.11a3.84,3.84,0,1,0,0-7.68Z"/><path class="cls-2" d="M273.18,53.88a3.68,3.68,0,0,0-.94.14V48.77h-5.11a3.84,3.84,0,1,1-7.68,0h-5.11v5.11a3.85,3.85,0,1,0,0,7.69v5.11h5.21a3.84,3.84,0,0,1,7.68,0h5V61.44a4.18,4.18,0,0,0,.94.13,3.85,3.85,0,1,0,0-7.69Z"/><path class="cls-2" d="M188,121.1a3.84,3.84,0,0,0-7.68,0h-5.11V139h5.11a3.84,3.84,0,0,1,7.68,0h5.12V121.1Z"/><path class="cls-2" d="M251.07,118.74v-5.12H246a3.84,3.84,0,0,0-7.68,0h-5.11v5.12a3.84,3.84,0,0,1,0,7.68v5.11h5.11a3.84,3.84,0,0,1,7.68,0h5.11v-5.11a3.84,3.84,0,1,0,0-7.68Z"/></g></g></svg>