<?xml version="1.0" encoding="utf-8"?>
<svg width="512px" height="512px" viewBox="0 0 512 512" version="1.1" xmlns:xlink="http://www.w3.org/1999/xlink" xmlns="http://www.w3.org/2000/svg">
  <desc>Created with Lunacy</desc>
  <defs>
    <linearGradient x1="0.5" y1="0" x2="0.5" y2="1" id="gradient_1">
      <stop offset="0" stop-color="#1B498D" />
      <stop offset="0.7395805" stop-color="#6F1287" />
      <stop offset="1" stop-color="#0511F2" />
    </linearGradient>
    <path d="M0 0L512 0L512 512L0 512L0 0L0 0Z" id="path_1" />
    <clipPath id="mask_1">
      <use xlink:href="#path_1" />
    </clipPath>
  </defs>
  <g id="innovation">
    <g id="innovation">
      <path d="M0 0L512 0L512 512L0 512L0 0L0 0Z" id="Background" fill="none" stroke="none" />
      <g id="Mask-group">
        <path d="M0 0L512 0L512 512L0 512L0 0L0 0Z" id="path_1" fill="none" stroke="none" />
        <g clip-path="url(#mask_1)">
          <g id="Group" transform="translate(11.200012 8.800003)">
            <path d="M16.2202 0C15.8202 0 15.5202 0 15.1202 0C9.32018 0.0999985 7.72018 7.89999 12.9202 10.3C52.7201 28.5 80.5202 68.7 80.5202 115.2C80.5202 139.4 73.1202 162.5 59.0202 182.2C54.5202 188.5 49.6202 194.3 44.8202 199.9C30.2201 217 17.6201 231.8 17.6201 259.9L17.6201 312.3C17.6201 328.8 13.2201 341.4 4.32015 350.9C4.22015 351 4.02016 351.2 3.92016 351.3C-2.67985 358 -0.679847 369.3 7.92016 373C11.0202 374.3 13.8202 375.1 16.1202 375.1C27.4202 375.1 49.6202 356.7 55.1202 350.9C64.1202 341.4 68.4202 328.8 68.4202 312.3L68.4202 259.9C68.4202 231.8 81.0202 217 95.6202 199.9C100.32 194.3 105.22 188.6 109.82 182.2C123.92 162.4 131.42 139.1 131.32 114.7C131.22 51 79.9202 0 16.2202 0L16.2202 0L16.2202 0Z" transform="translate(242.57983 113.2)" id="Shape" fill="url(#gradient_1)" stroke="none" />
            <path d="M259.2 83.8C263.6 83.8 267.2 80.2 267.2 75.8L267.2 8C267.2 3.6 263.6 0 259.2 0C254.8 0 251.2 3.6 251.2 8L251.2 75.8C251.2 80.2 254.8 83.8 259.2 83.8ZM163.9 154.4L163.9 327.3L242.8 327.3C247.2 327.3 250.8 330.9 250.8 335.3C250.8 339.7 247.2 343.3 242.8 343.3L216.3 343.3L216.3 399.8C227.1 403.2 235 413.3 235 425.2C235 439.9 223 451.9 208.3 451.9C193.6 451.9 181.6 439.9 181.6 425.2C181.6 413.3 189.5 403.2 200.3 399.8L200.3 343.3L155.9 343.3C151.5 343.3 147.9 339.7 147.9 335.3L147.9 266.8L52.1 266.8C48.7 277.6 38.6 285.5 26.7 285.5C12 285.5 0 273.5 0 258.8C0 244.1 12 232.1 26.7 232.1C38.6 232.1 48.7 240 52.1 250.8L147.9 250.8L147.9 198.6L98.9 198.6C95 208.4 85.4 215.3 74.2 215.3C59.5 215.3 47.5 203.3 47.5 188.6C47.5 173.9 59.5 161.9 74.2 161.9C86.8 161.9 97.4 170.7 100.2 182.5L147.9 182.5L147.9 146.3C147.9 141.9 151.5 138.3 155.9 138.3L165.1 138.3L165.1 91.1C154.3 87.7 146.4 77.6 146.4 65.7C146.4 51 158.4 39 173.1 39C187.8 39 199.8 51 199.8 65.7C199.8 77.6 191.9 87.7 181.1 91.1L181.1 138.4L242.8 138.4C247.2 138.4 250.8 142 250.8 146.4C250.8 150.8 247.2 154.4 242.8 154.4L163.9 154.4ZM173.1 76.4C179 76.4 183.8 71.6 183.8 65.7C183.8 59.8 179 55 173.1 55C167.2 55 162.4 59.8 162.4 65.7C162.4 71.6 167.2 76.4 173.1 76.4ZM394.5 128.3C392.9 129.8 390.8 130.6 388.8 130.6C386.8 130.6 384.8 129.8 383.2 128.3C380.1 125.2 380.1 120.1 383.2 117L431.1 69.1C434.2 66 439.3 66 442.4 69.1C445.5 72.2 445.5 77.3 442.4 80.4L394.5 128.3ZM258.8 105.2C254.4 105.2 250.8 108.8 250.8 113.2C250.8 117.6 254.4 121.2 258.8 121.2C317.9 121.2 366 169.3 366 228.4C366 250.9 359.1 272.4 346 290.7C341.7 296.7 337 302.3 332.4 307.6L332.2 307.8C319 323.3 306.5 338 303.7 362.4L259.2 362.4C254.8 362.4 251.2 366 251.2 370.4C251.2 374.8 254.8 378.4 259.2 378.4L303.1 378.4L303.1 426.6L259.2 426.6C254.8 426.6 251.2 430.2 251.2 434.6C251.2 439 254.8 442.6 259.2 442.6L300.9 442.6C299.1 448.9 296.1 454.2 292 458.5C285.2 465.7 265.6 480.2 258.8 480.2C254.4 480.2 250.8 483.8 250.8 488.2C250.8 492.6 254.4 496.2 258.8 496.2C274.8 496.2 299.7 473.6 303.6 469.5C314 458.5 319.1 444 319.1 425.4L319.1 372C319.2 371.5 319.3 370.9 319.3 370.4C319.3 370 319.3 369.6 319.2 369.3C320.3 346.6 331 333.9 344.4 318.2L344.6 318C349.4 312.4 354.3 306.5 359 300C374 279 382 254.2 382 228.4C382 160.5 326.8 105.2 258.8 105.2ZM84.9 188.6C84.9 182.7 80.1 177.9 74.2 177.9C68.3 177.9 63.5 182.7 63.5 188.6C63.5 194.5 68.3 199.3 74.2 199.3C80.1 199.3 84.9 194.5 84.9 188.6ZM37.3 258.7C37.3 252.8 32.5 248 26.6 248C20.7 248 15.9 252.8 15.9 258.7C15.9 264.6 20.7 269.4 26.6 269.4C32.5 269.4 37.3 264.6 37.3 258.7ZM481.5 250.7L413.7 250.7C409.3 250.7 405.7 254.3 405.7 258.7C405.7 263.1 409.3 266.7 413.7 266.7L481.5 266.7C485.9 266.7 489.5 263.1 489.5 258.7C489.5 254.3 485.9 250.7 481.5 250.7ZM380.3 371.4C377.2 368.3 372.1 368.3 369 371.4C365.9 374.5 365.9 379.6 369 382.7L398.5 412.2C400.1 413.8 402.1 414.5 404.2 414.5C406.2 414.5 408.3 413.7 409.9 412.2C413 409.1 413 404 409.9 400.9L380.3 371.4ZM111.2 401.7C112.8 403.2 114.9 404 116.9 404C118.9 404 121 403.2 122.5 401.7L141.4 382.8C144.5 379.7 144.5 374.6 141.4 371.5C138.3 368.4 133.2 368.4 130.1 371.5L111.2 390.4C108.1 393.5 108.1 398.6 111.2 401.7ZM208.4 435.9C202.5 435.9 197.7 431.1 197.7 425.2C197.7 419.3 202.5 414.5 208.4 414.5C214.3 414.5 219.1 419.3 219.1 425.2C219.1 431.1 214.3 435.9 208.4 435.9Z" id="Shape#1" fill="#AD70F0" fill-rule="evenodd" stroke="none" />
            <path d="M281.222 0.217066C276.322 1.31706 273.222 6.11707 274.322 10.9171C275.222 15.1171 279.022 18.0171 283.122 18.0171C283.722 18.0171 284.422 17.9171 285.022 17.8171C289.922 16.7171 293.022 11.9171 291.922 7.11707C290.822 2.31707 286.022 -0.882933 281.222 0.217066ZM75.3218 46.5171C79.7218 46.5171 83.3218 42.9171 83.3218 38.5171C83.3218 34.1171 79.7218 30.5171 75.3218 30.5171L71.4218 30.5171L71.4218 26.6171C71.4218 22.2171 67.8218 18.6171 63.4218 18.6171C59.0218 18.6171 55.4218 22.2171 55.4218 26.6171L55.4218 30.5171L51.5218 30.5171C47.1218 30.5171 43.5218 34.1171 43.5218 38.5171C43.5218 42.9171 47.1218 46.5171 51.5218 46.5171L55.4218 46.5171L55.4218 50.4171C55.4218 54.8171 59.0218 58.4171 63.4218 58.4171C67.8218 58.4171 71.4218 54.8171 71.4218 50.4171L71.4218 46.5171L75.3218 46.5171ZM366.422 112.817C368.422 114.117 369.822 116.117 370.322 118.517C370.822 120.817 370.422 123.217 369.122 125.317C367.822 127.317 365.822 128.717 363.422 129.217C362.822 129.317 362.122 129.417 361.522 129.417C359.822 129.417 358.122 128.917 356.622 128.017C354.622 126.717 353.222 124.717 352.722 122.317C351.622 117.517 354.722 112.717 359.622 111.617C362.022 111.117 364.422 111.517 366.422 112.817ZM63.4218 276.217C67.8218 276.217 71.4218 272.617 71.4218 268.217C71.4218 263.817 67.8218 260.217 63.4218 260.217L59.5218 260.217L59.5218 256.317C59.5218 251.917 55.9218 248.317 51.5218 248.317C47.1218 248.317 43.5218 251.917 43.5218 256.317L43.5218 260.217L39.6218 260.217C35.2218 260.217 31.6218 263.817 31.6218 268.217C31.6218 272.617 35.2218 276.217 39.6218 276.217L43.5218 276.217L43.5218 280.117C43.5218 284.517 47.1218 288.117 51.5218 288.117C55.9218 288.117 59.5218 284.517 59.5218 280.117L59.5218 276.217L63.4218 276.217ZM0.221787 380.317C1.22179 375.417 6.02178 372.317 10.9218 373.417C13.2218 373.917 15.2218 375.317 16.6218 377.317C17.9218 379.317 18.3218 381.717 17.8218 384.117C16.9218 388.317 13.2218 391.217 9.02179 391.217C8.42179 391.217 7.72179 391.117 7.12179 391.017C2.22179 390.017 -0.878211 385.217 0.221787 380.317Z" transform="translate(59.678223 52.082928)" id="Shape#2" fill="#480D24" fill-rule="evenodd" stroke="none" />
          </g>
        </g>
      </g>
    </g>
  </g>
</svg>