<?xml version="1.0" encoding="utf-8"?>
<svg width="512px" height="512px" viewBox="0 0 512 512" version="1.1" xmlns:xlink="http://www.w3.org/1999/xlink" xmlns="http://www.w3.org/2000/svg">
  <desc>Created with Lunacy</desc>
  <defs>
    <linearGradient x1="0.49999988" y1="-0.009479306" x2="0.49999988" y2="1.4571284" id="gradient_1">
      <stop offset="0" stop-color="#FC5C7D" />
      <stop offset="0.129" stop-color="#F35E85" />
      <stop offset="0.343" stop-color="#D9659B" />
      <stop offset="0.616" stop-color="#B070BF" />
      <stop offset="0.934" stop-color="#777FF0" />
      <stop offset="1" stop-color="#6A82FB" />
    </linearGradient>
    <linearGradient x1="0.50000006" y1="-0.51895833" x2="0.50000006" y2="2.414257" id="gradient_2">
      <stop offset="0" stop-color="#FC5C7D" />
      <stop offset="0.129" stop-color="#F35E85" />
      <stop offset="0.343" stop-color="#D9659B" />
      <stop offset="0.616" stop-color="#B070BF" />
      <stop offset="0.934" stop-color="#777FF0" />
      <stop offset="1" stop-color="#6A82FB" />
    </linearGradient>
    <linearGradient x1="0.49999312" y1="-1.1909992" x2="0.49999312" y2="0.63530016" id="gradient_3">
      <stop offset="0" stop-color="#FC5C7D" />
      <stop offset="0.129" stop-color="#F35E85" />
      <stop offset="0.343" stop-color="#D9659B" />
      <stop offset="0.616" stop-color="#B070BF" />
      <stop offset="0.934" stop-color="#777FF0" />
      <stop offset="1" stop-color="#6A82FB" />
    </linearGradient>
    <linearGradient x1="0.4999547" y1="-2.8121157" x2="0.4999547" y2="2.0116642" id="gradient_4">
      <stop offset="0" stop-color="#FC5C7D" />
      <stop offset="0.129" stop-color="#F35E85" />
      <stop offset="0.343" stop-color="#D9659B" />
      <stop offset="0.616" stop-color="#B070BF" />
      <stop offset="0.934" stop-color="#777FF0" />
      <stop offset="1" stop-color="#6A82FB" />
    </linearGradient>
    <linearGradient x1="0.49999988" y1="-2.0189583" x2="0.49999988" y2="0.91425705" id="gradient_5">
      <stop offset="0" stop-color="#FC5C7D" />
      <stop offset="0.129" stop-color="#F35E85" />
      <stop offset="0.343" stop-color="#D9659B" />
      <stop offset="0.616" stop-color="#B070BF" />
      <stop offset="0.934" stop-color="#777FF0" />
      <stop offset="1" stop-color="#6A82FB" />
    </linearGradient>
    <linearGradient x1="0.5000026" y1="-0.10354443" x2="0.5000026" y2="1.5326477" id="gradient_6">
      <stop offset="0" stop-color="#FC5C7D" />
      <stop offset="0.129" stop-color="#F35E85" />
      <stop offset="0.343" stop-color="#D9659B" />
      <stop offset="0.616" stop-color="#B070BF" />
      <stop offset="0.934" stop-color="#777FF0" />
      <stop offset="1" stop-color="#6A82FB" />
    </linearGradient>
    <linearGradient x1="0.500057" y1="-0.68559706" x2="0.500057" y2="2.247604" id="gradient_7">
      <stop offset="0" stop-color="#FC5C7D" />
      <stop offset="0.129" stop-color="#F35E85" />
      <stop offset="0.343" stop-color="#D9659B" />
      <stop offset="0.616" stop-color="#B070BF" />
      <stop offset="0.934" stop-color="#777FF0" />
      <stop offset="1" stop-color="#6A82FB" />
    </linearGradient>
    <linearGradient x1="0.5000026" y1="-0.9794139" x2="0.5000026" y2="0.6705195" id="gradient_8">
      <stop offset="0" stop-color="#FC5C7D" />
      <stop offset="0.129" stop-color="#F35E85" />
      <stop offset="0.343" stop-color="#D9659B" />
      <stop offset="0.616" stop-color="#B070BF" />
      <stop offset="0.934" stop-color="#777FF0" />
      <stop offset="1" stop-color="#6A82FB" />
    </linearGradient>
    <linearGradient x1="0.5" y1="-28.670626" x2="0.5" y2="-2.2716866" id="gradient_9">
      <stop offset="0" stop-color="#FC5C7D" />
      <stop offset="0.129" stop-color="#F35E85" />
      <stop offset="0.343" stop-color="#D9659B" />
      <stop offset="0.616" stop-color="#B070BF" />
      <stop offset="0.934" stop-color="#777FF0" />
      <stop offset="1" stop-color="#6A82FB" />
    </linearGradient>
    <path d="M0 0L512 0L512 512L0 512L0 0Z" id="path_1" />
    <clipPath id="mask_1">
      <use xlink:href="#path_1" />
    </clipPath>
  </defs>
  <g id="manufacturing">
    <path d="M0 0L512 0L512 512L0 512L0 0Z" id="Background" fill="none" stroke="none" />
    <g clip-path="url(#mask_1)">
      <g id="GD001" transform="translate(16 4.5776367E-05)">
        <path d="M90.317 247.019L63.6 259.719C60.5403 261.174 56.8957 260.546 54.5 258.15L29.85 233.5C27.4547 231.106 26.8262 227.463 28.281 224.405L40.981 197.688L33.191 178.882L5.31864 168.97C2.12986 167.835 0 164.817 0 161.433L0 126.567C0.000164032 123.182 2.13017 120.164 5.319 119.03L33.191 109.123L40.981 90.317L28.281 63.6C26.8239 60.5405 27.4524 56.8949 29.85 54.5L54.5 29.85C56.8949 27.4524 60.5405 26.8239 63.6 28.281L90.312 40.981L109.118 33.191L119.03 5.319C120.164 2.13017 123.182 0.000163555 126.567 0L161.433 0C164.818 0.000163078 167.836 2.13017 168.97 5.319L178.885 33.191L197.691 40.981L224.408 28.281C227.465 26.8277 231.107 27.456 233.5 29.85L258.15 54.5C260.545 56.894 261.174 60.5368 259.719 63.595L247.019 90.312L254.809 109.118L282.681 119.03C285.87 120.165 288 123.183 288 126.567L288 161.433C288.001 164.819 285.871 167.838 282.681 168.973L254.809 178.885L247.019 197.691L259.719 224.408C261.172 227.465 260.544 231.107 258.15 233.5L233.497 258.15C231.103 260.542 227.463 261.17 224.405 259.719L197.688 247.019L178.882 254.809L168.97 282.681C167.836 285.87 164.818 288 161.433 288L126.567 288C123.184 287.998 120.169 285.868 119.035 282.681L109.123 254.809L90.317 247.019ZM46.612 169.474L57.124 194.85C57.9895 196.942 57.9285 199.302 56.956 201.346L45.156 226.175L61.821 242.841L86.65 231.041C88.6953 230.067 91.0578 230.007 93.15 230.876L118.524 241.39C120.616 242.255 122.242 243.967 123 246.1L132.213 272L155.787 272L165 246.1C165.757 243.971 167.38 242.261 169.467 241.395L194.843 230.883C196.935 230.014 199.298 230.074 201.343 231.048L226.172 242.848L242.841 226.179L231.041 201.35C230.068 199.304 230.008 196.942 230.876 194.85L241.39 169.476C242.255 167.384 243.967 165.758 246.1 165L272 155.785L272 132.211L246.1 123C243.971 122.243 242.261 120.62 241.395 118.533L230.883 93.157C230.015 91.0646 230.075 88.7026 231.048 86.657L242.848 61.828L226.179 45.159L201.35 56.959C199.305 57.9327 196.942 57.9926 194.85 57.124L169.476 46.61C167.384 45.7445 165.758 44.0329 165 41.9L155.787 16L132.213 16L123 41.9C122.243 44.0313 120.619 45.7423 118.53 46.609L93.154 57.121C91.0619 57.9897 88.6993 57.9297 86.654 56.956L61.825 45.156L45.159 61.821L56.959 86.65C57.9317 88.6956 57.9917 91.0576 57.124 93.15L46.61 118.524C45.7445 120.616 44.0329 122.242 41.9 123L16 132.213L16 155.787L41.9 165C44.0332 165.757 45.7456 167.383 46.612 169.474Z" id="Shape" fill="url(#gradient_1)" fill-rule="evenodd" stroke="none" />
        <path d="M144 72C144 111.764 111.765 143.999 72.0016 144L72 144C32.2547 143.955 0.0455164 111.747 0 72C0 32.2355 32.2355 0 72 0C111.764 0 144 32.2355 144 72ZM128 72C128 41.0721 102.928 16 72 16L71.9951 16C41.0816 16.0374 16.032 41.0913 16 72C16 102.928 41.0721 128 72 128C102.928 128 128 102.928 128 72Z" transform="translate(71.999985 71.99996)" id="Shape" fill="url(#gradient_2)" fill-rule="evenodd" stroke="none" />
        <path d="M241.38 112.752L230.87 138.128C230.002 140.22 230.062 142.582 231.035 144.628L242.835 169.457L226.166 186.126L201.337 174.326C199.291 173.353 196.929 173.293 194.837 174.161L169.47 184.666C167.379 185.532 165.752 187.243 164.993 189.376L155.78 215.278L132.209 215.278L122.997 189.378C122.239 187.245 120.613 185.534 118.521 184.668L93.145 174.156C91.0529 173.287 88.6904 173.347 86.645 174.321L61.816 186.121L45.147 169.452L56.947 144.623C57.9197 142.577 57.9797 140.215 57.112 138.123L46.602 112.747C45.7356 110.66 44.0268 109.036 41.898 108.278L15.998 99.068L15.998 75.491L41.898 66.28C44.0309 65.5217 45.7427 63.8953 46.609 61.804L57.119 36.428C57.9867 34.3357 57.9267 31.9736 56.954 29.928L42.727 0L28.28 6.87799L40.98 33.595L33.191 52.401L5.319 62.312C2.12983 63.4464 -0.000259399 66.4651 0 69.85L0 104.716C0 108.102 2.13032 111.12 5.31957 112.254L33.191 122.165L40.98 140.971L28.28 167.688C26.8269 170.746 27.4557 174.387 29.85 176.78L54.5 201.428C56.8933 203.822 60.5339 204.45 63.591 202.997L90.308 190.297L109.108 198.087L119.021 225.959C120.156 229.15 123.177 231.28 126.563 231.278L161.429 231.278C164.814 231.278 167.833 229.148 168.967 225.959L178.878 198.087L197.684 190.297L224.4 202.997C227.457 204.45 231.098 203.822 233.491 201.428L258.145 176.778C260.539 174.385 261.168 170.744 259.715 167.686L247.015 140.969L256.165 118.878L241.38 112.752Z" transform="translate(57.419914 272.722)" id="Shape" fill="url(#gradient_3)" stroke="none" />
        <path d="M63.672 26.9937L39.018 2.34367C36.6247 -0.0498505 32.9841 -0.678177 29.927 0.774673L0 15.0017L6.86899 29.4527L31.698 17.6527L48.367 34.3217L36.567 59.1507C35.5943 61.1963 35.5343 63.5584 36.402 65.6507L45.478 87.5627L60.259 81.4387L52.545 62.8127L65.245 36.0957C66.7021 33.0348 66.0719 29.388 63.672 26.9937L63.672 26.9937Z" transform="translate(251.89299 243.50629)" id="Shape" fill="url(#gradient_4)" stroke="none" />
        <path d="M144 72C144 111.764 111.765 143.999 72.0016 144L72 144C32.2547 143.955 0.0455011 111.747 0 72C0 32.2355 32.2355 0 72 0C111.765 0 144 32.2355 144 72ZM128 72C128 41.0721 102.928 16 72 16L71.9951 16C41.0816 16.0374 16.032 41.0913 16 72C16 102.928 41.0721 128 72 128C102.928 128 128 102.928 128 72Z" transform="translate(129.41599 287.99997)" id="Shape" fill="url(#gradient_5)" fill-rule="evenodd" stroke="none" />
        <path d="M195.654 119.03L167.782 109.118L159.992 90.312L172.692 63.595C174.147 60.5368 173.518 56.894 171.123 54.5L146.473 29.85C144.08 27.456 140.438 26.8277 137.381 28.281L110.664 40.981L91.858 33.191L81.947 5.319C80.8123 2.1288 77.792 -0.00152016 74.406 1.90735e-06L39.54 0C36.1551 -0.000257492 33.1364 2.12983 32.002 5.319L22.091 33.191L0 42.343L6.12299 57.124L31.499 46.612C33.5898 45.745 35.2154 44.0329 35.973 41.9L45.183 16L68.757 16L77.973 41.9C78.7309 44.0329 80.3575 45.7445 82.449 46.61L107.823 57.124C109.915 57.9917 112.277 57.9317 114.323 56.959L139.152 45.159L155.821 61.828L144.021 86.657C143.048 88.7026 142.988 91.0647 143.856 93.157L154.368 118.533C155.235 120.62 156.944 122.242 159.073 123L184.973 132.21L184.973 155.784L159.073 165C156.94 165.759 155.229 167.385 154.363 169.477L143.849 194.85C142.981 196.942 143.041 199.304 144.014 201.35L155.814 226.179L135.153 246.84L146.473 258.15L171.123 233.5C173.517 231.107 174.145 227.465 172.692 224.408L159.992 197.691L167.782 178.885L195.654 168.974C198.844 167.839 200.975 164.819 200.973 161.433L200.973 126.567C200.973 123.183 198.843 120.165 195.654 119.03L195.654 119.03Z" transform="translate(279.02698 23.999954)" id="Shape" fill="url(#gradient_6)" stroke="none" />
        <path d="M66.764 128.004C43.9205 128.069 23.345 114.202 14.832 93.0035L0 99.0035C11.2641 126.845 38.6274 144.771 68.6511 143.975C98.6747 143.18 125.051 123.831 134.825 95.4322C144.599 67.033 135.719 35.5498 112.544 16.445C89.3695 -2.65981 56.7704 -5.37238 30.757 9.63953L38.771 23.4885C59.1604 11.7338 84.7238 13.982 102.749 29.1151C120.773 44.2482 127.413 69.0366 119.365 91.153C111.317 113.269 90.2991 127.994 66.764 128.004L66.764 128.004Z" transform="translate(269.236 95.99643)" id="Shape" fill="url(#gradient_7)" stroke="none" />
        <path d="M96.0015 56L122.747 56C144.286 56.0004 163.705 68.976 171.947 88.8763C180.19 108.777 175.633 131.683 160.402 146.913L144.002 163.313L144.002 176L152.002 176C156.42 176 160.002 179.582 160.002 184L160.002 256L144.002 256L144.002 192L48.0016 192L48.0016 256L32.0016 256L32.0016 184C32.0016 179.582 35.5833 176 40.0016 176L48.0016 176L48.0016 163.313L7.32065 122.634C1.00934 116.327 -1.45737 107.132 0.849976 98.513C3.15729 89.894 9.88797 83.161 18.5062 80.8507C27.1244 78.5404 36.3204 81.0039 42.6295 87.313L48.0016 92.687L48.0016 24C48.0016 10.7452 58.7467 0 72.0015 0C85.2564 0 96.0015 10.7452 96.0015 24L96.0015 56ZM130.345 154.345L149.09 135.6C159.746 124.945 162.934 108.921 157.167 94.9986C151.401 81.0766 137.816 71.9994 122.747 72L88.0016 72C83.5833 72 80.0016 68.4182 80.0016 64L80.0016 24C80.0016 19.5817 76.4199 16 72.0016 16C67.5833 16 64.0016 19.5817 64.0016 24L64.0016 112C64.0017 115.236 62.0526 118.153 59.0631 119.391C56.0736 120.63 52.6326 119.945 50.3446 117.657L31.3146 98.628C29.0554 96.3284 25.7361 95.4179 22.6198 96.2431C19.5036 97.0682 17.0698 99.502 16.2447 102.618C15.4195 105.734 16.33 109.054 18.6296 111.313L61.6611 154.346C63.1607 155.847 64.0026 157.882 64.0016 160L64.0016 176L128.002 176L128.002 160C128.002 157.879 128.845 155.845 130.345 154.345Z" transform="translate(303.99844 247.99995)" id="Shape" fill="url(#gradient_8)" fill-rule="evenodd" stroke="none" />
        <path d="M0 0L16 0L16 16L0 16L0 0Z" transform="translate(416 455.99997)" id="Shape" fill="url(#gradient_9)" stroke="none" />
      </g>
    </g>
  </g>
</svg>