<?xml version="1.0" encoding="utf-8"?>
<svg width="512px" height="512px" viewBox="0 0 512 512" version="1.1" xmlns:xlink="http://www.w3.org/1999/xlink" xmlns="http://www.w3.org/2000/svg">
  <desc>Created with Lunacy</desc>
  <defs>
    <linearGradient x1="0.4999975" y1="1.1585368" x2="0.4999975" y2="0.15853667" id="gradient_1">
      <stop offset="0.322" stop-color="#A163F5" />
      <stop offset="0.46599996" stop-color="#B074EE" />
      <stop offset="0.752" stop-color="#D8A1DD" />
      <stop offset="0.898" stop-color="#EFBAD3" />
    </linearGradient>
    <linearGradient x1="0.50006366" y1="7.170767" x2="0.50006366" y2="-23.710634" id="gradient_2">
      <stop offset="0.322" stop-color="#A163F5" />
      <stop offset="0.46599996" stop-color="#B074EE" />
      <stop offset="0.752" stop-color="#D8A1DD" />
      <stop offset="0.898" stop-color="#EFBAD3" />
    </linearGradient>
    <linearGradient x1="0.4992466" y1="10.586805" x2="0.4992466" y2="-7.370311" id="gradient_3">
      <stop offset="0.322" stop-color="#A163F5" />
      <stop offset="0.46599996" stop-color="#B074EE" />
      <stop offset="0.752" stop-color="#D8A1DD" />
      <stop offset="0.898" stop-color="#EFBAD3" />
    </linearGradient>
    <linearGradient x1="0.50002384" y1="2.9387753" x2="0.50002384" y2="-0.25689894" id="gradient_4">
      <stop offset="0.322" stop-color="#A163F5" />
      <stop offset="0.46599996" stop-color="#B074EE" />
      <stop offset="0.752" stop-color="#D8A1DD" />
      <stop offset="0.898" stop-color="#EFBAD3" />
    </linearGradient>
    <linearGradient x1="0.50188756" y1="14.877401" x2="0.50188756" y2="-9.937683" id="gradient_5">
      <stop offset="0.322" stop-color="#A163F5" />
      <stop offset="0.46599996" stop-color="#B074EE" />
      <stop offset="0.752" stop-color="#D8A1DD" />
      <stop offset="0.898" stop-color="#EFBAD3" />
    </linearGradient>
    <linearGradient x1="0.5004989" y1="8.587004" x2="0.5004989" y2="-4.0137587" id="gradient_6">
      <stop offset="0.322" stop-color="#A163F5" />
      <stop offset="0.46599996" stop-color="#B074EE" />
      <stop offset="0.752" stop-color="#D8A1DD" />
      <stop offset="0.898" stop-color="#EFBAD3" />
    </linearGradient>
    <linearGradient x1="0.50001466" y1="6.7304387" x2="0.50001466" y2="-4.6263914" id="gradient_7">
      <stop offset="0.322" stop-color="#A163F5" />
      <stop offset="0.46599996" stop-color="#B074EE" />
      <stop offset="0.752" stop-color="#D8A1DD" />
      <stop offset="0.898" stop-color="#EFBAD3" />
    </linearGradient>
    <linearGradient x1="0.4991417" y1="12.595796" x2="0.4991417" y2="-6.9865923" id="gradient_8">
      <stop offset="0.322" stop-color="#A163F5" />
      <stop offset="0.46599996" stop-color="#B074EE" />
      <stop offset="0.752" stop-color="#D8A1DD" />
      <stop offset="0.898" stop-color="#EFBAD3" />
    </linearGradient>
    <linearGradient x1="0.49910632" y1="5.257512" x2="0.49910632" y2="-5.3577423" id="gradient_9">
      <stop offset="0.322" stop-color="#A163F5" />
      <stop offset="0.46599996" stop-color="#B074EE" />
      <stop offset="0.752" stop-color="#D8A1DD" />
      <stop offset="0.898" stop-color="#EFBAD3" />
    </linearGradient>
    <linearGradient x1="0.5004468" y1="5.7368174" x2="0.5004468" y2="-3.748877" id="gradient_10">
      <stop offset="0.322" stop-color="#A163F5" />
      <stop offset="0.46599996" stop-color="#B074EE" />
      <stop offset="0.752" stop-color="#D8A1DD" />
      <stop offset="0.898" stop-color="#EFBAD3" />
    </linearGradient>
    <linearGradient x1="0.5010805" y1="3.290371" x2="0.5010805" y2="-21.48384" id="gradient_11">
      <stop offset="0.322" stop-color="#A163F5" />
      <stop offset="0.46599996" stop-color="#B074EE" />
      <stop offset="0.752" stop-color="#D8A1DD" />
      <stop offset="0.898" stop-color="#EFBAD3" />
    </linearGradient>
    <linearGradient x1="0.50178385" y1="2.7063675" x2="0.50178385" y2="-9.908575" id="gradient_12">
      <stop offset="0.322" stop-color="#A163F5" />
      <stop offset="0.46599996" stop-color="#B074EE" />
      <stop offset="0.752" stop-color="#D8A1DD" />
      <stop offset="0.898" stop-color="#EFBAD3" />
    </linearGradient>
    <linearGradient x1="0.49918652" y1="1.4285955" x2="0.49918652" y2="-9.91068" id="gradient_13">
      <stop offset="0.322" stop-color="#A163F5" />
      <stop offset="0.46599996" stop-color="#B074EE" />
      <stop offset="0.752" stop-color="#D8A1DD" />
      <stop offset="0.898" stop-color="#EFBAD3" />
    </linearGradient>
    <linearGradient x1="0.49999332" y1="3.4586792" x2="0.49999332" y2="-16.154726" id="gradient_14">
      <stop offset="0.322" stop-color="#A163F5" />
      <stop offset="0.46599996" stop-color="#B074EE" />
      <stop offset="0.752" stop-color="#D8A1DD" />
      <stop offset="0.898" stop-color="#EFBAD3" />
    </linearGradient>
    <linearGradient x1="0.49999332" y1="0.30191803" x2="0.49999332" y2="-10.294264" id="gradient_15">
      <stop offset="0.322" stop-color="#A163F5" />
      <stop offset="0.46599996" stop-color="#B074EE" />
      <stop offset="0.752" stop-color="#D8A1DD" />
      <stop offset="0.898" stop-color="#EFBAD3" />
    </linearGradient>
    <linearGradient x1="0.49999952" y1="1.3086605" x2="0.49999952" y2="-8.168344" id="gradient_16">
      <stop offset="0.322" stop-color="#A163F5" />
      <stop offset="0.46599996" stop-color="#B074EE" />
      <stop offset="0.752" stop-color="#D8A1DD" />
      <stop offset="0.898" stop-color="#EFBAD3" />
    </linearGradient>
    <linearGradient x1="0.5" y1="2.4680386" x2="0.5" y2="-4.1517653" id="gradient_17">
      <stop offset="0.322" stop-color="#A163F5" />
      <stop offset="0.46599996" stop-color="#B074EE" />
      <stop offset="0.752" stop-color="#D8A1DD" />
      <stop offset="0.898" stop-color="#EFBAD3" />
    </linearGradient>
    <linearGradient x1="0.50000006" y1="6.3557177" x2="0.50000006" y2="-0.26408255" id="gradient_18">
      <stop offset="0.322" stop-color="#A163F5" />
      <stop offset="0.46599996" stop-color="#B074EE" />
      <stop offset="0.752" stop-color="#D8A1DD" />
      <stop offset="0.898" stop-color="#EFBAD3" />
    </linearGradient>
    <linearGradient x1="0.5" y1="19.863636" x2="0.5" y2="1.2106366" id="gradient_19">
      <stop offset="0.322" stop-color="#A163F5" />
      <stop offset="0.46599996" stop-color="#B074EE" />
      <stop offset="0.752" stop-color="#D8A1DD" />
      <stop offset="0.898" stop-color="#EFBAD3" />
    </linearGradient>
    <linearGradient x1="0.4999981" y1="2.090908" x2="0.4999981" y2="-16.562092" id="gradient_20">
      <stop offset="0.322" stop-color="#A163F5" />
      <stop offset="0.46599996" stop-color="#B074EE" />
      <stop offset="0.752" stop-color="#D8A1DD" />
      <stop offset="0.898" stop-color="#EFBAD3" />
    </linearGradient>
    <linearGradient x1="0.499815" y1="4.241081" x2="0.499815" y2="-0.43699896" id="gradient_21">
      <stop offset="0.322" stop-color="#A163F5" />
      <stop offset="0.46599996" stop-color="#B074EE" />
      <stop offset="0.752" stop-color="#D8A1DD" />
      <stop offset="0.898" stop-color="#EFBAD3" />
    </linearGradient>
    <path d="M0 0L512 0L512 512L0 512L0 0Z" id="path_1" />
    <clipPath id="mask_1">
      <use xlink:href="#path_1" />
    </clipPath>
  </defs>
  <g id="project">
    <path d="M0 0L512 0L512 512L0 512L0 0Z" id="Background" fill="none" stroke="none" />
    <g clip-path="url(#mask_1)">
      <path d="M409.636 6C409.603 102.833 364.415 194.111 287.431 252.848C280.363 264.592 282.169 279.636 291.816 289.374C308.101 305.718 308.101 332.156 291.816 348.5L233.286 408C232.18 409.201 230.647 409.92 229.016 410C227.386 409.919 225.852 409.201 224.747 408L190.79 373.404C173.12 355.419 168.809 328.203 180.055 305.638C179.696 305.738 179.341 305.838 178.982 305.938C176.916 306.483 174.716 305.89 173.204 304.38L157.642 288.817L147.42 330.148C146.899 332.248 145.289 333.905 143.204 334.485C141.119 335.065 138.884 334.478 137.354 332.948L116.507 312.103C119.424 316.981 121.542 322.295 122.78 327.842C123.154 329.526 123.446 331.227 123.646 332.9C125.705 349.285 120.074 365.702 108.392 377.374C106.883 378.924 104.657 379.543 102.565 378.992C100.473 378.442 98.8392 376.808 98.289 374.716C97.7389 372.624 98.3575 370.397 99.9081 368.889C107.716 361.12 112.094 350.552 112.065 339.538C112.063 338.44 112.004 337.35 111.918 336.269C107.538 343.704 99.9503 348.68 91.3859 349.735L63.5859 353.177C63.3414 353.207 63.0953 353.222 62.8489 353.222C61.1293 353.222 59.4924 352.484 58.3536 351.195C57.2149 349.907 56.6837 348.192 56.8949 346.485L60.3359 318.685C61.3682 310.126 66.3307 302.537 73.7579 298.159C72.8009 298.086 71.8429 298.035 70.8879 298.029L70.5749 298.029C59.6994 298.042 49.2767 302.385 41.6109 310.1C35.0111 316.593 30.7379 325.083 29.4539 334.252L40.8139 334.538C43.2784 334.598 45.4548 336.161 46.2983 338.477C47.1417 340.794 46.4801 343.391 44.6309 345.021C30.1019 357.842 28.3459 373 28.5159 381L39.4459 381C42.7596 381 45.4459 383.686 45.4459 387C45.4459 390.314 42.7596 393 39.4459 393L23.0539 393C20.1926 393.01 17.7243 390.994 17.1639 388.188C14.9797 373.394 18.6578 358.331 27.4149 346.209L22.8898 346.094C19.6356 346.011 17.0408 343.349 17.0419 340.094C17.0231 325.613 22.8295 311.733 33.1539 301.579C43.1526 291.514 56.7883 285.908 70.9749 286.029C73.0978 286.044 75.2179 286.186 77.3239 286.454C79.0069 286.664 80.7489 286.971 82.4869 287.364C87.9487 288.609 93.1797 290.709 97.9869 293.585L76.6869 272.285C75.1311 270.729 74.5519 268.446 75.1778 266.336C75.8037 264.227 77.5341 262.629 79.6869 262.173L122.025 253.2L104.72 235.892C103.201 234.373 102.61 232.159 103.17 230.085C103.19 230.012 103.212 229.94 103.232 229.866C80.7777 240.683 53.9511 236.25 36.1699 218.785L1.7859 184.825C0.643242 183.698 0 182.159 0 180.554C0 178.949 0.643242 177.41 1.7859 176.283L61.2149 117.724C77.5322 101.44 103.956 101.454 120.257 117.754C130.036 127.465 145.189 129.227 156.936 122.02C173.165 100.891 192.017 81.913 213.036 65.542C267.484 23.0555 334.571 -0.0139256 403.634 6.19888e-06C406.948 -0.00110245 409.635 2.68425 409.636 6ZM397.575 12.061C397.21 30.3096 395.17 48.486 391.481 66.3614C371.194 55.1182 354.445 38.4395 343.116 18.2C361.041 14.4818 379.272 12.4267 397.575 12.061ZM179.231 293.436L115.674 229.879C116.741 226.106 117.885 222.356 119.107 218.631C119.143 218.595 119.18 218.563 119.216 218.531L119.159 218.474C148.44 129.818 217.154 59.7365 305.217 28.715C313.7 25.7397 322.285 23.1637 330.972 20.987C343.922 45.5791 364.061 65.6393 388.704 78.493C363.038 180.911 284.122 264.385 179.231 293.436ZM14.5409 180.561L44.5989 210.247C62.2021 227.541 90.1785 228.289 108.68 211.959C117.549 185.877 129.843 161.09 145.24 138.246C132.852 139.411 120.587 135.013 111.764 126.24C100.138 114.615 81.2899 114.615 69.6639 126.24L14.5409 180.561ZM92.9929 271.619L138.322 316.947L147.73 278.9L132.146 263.319L92.9929 271.619ZM229.011 395.03L283.302 339.936L283.302 339.938C294.933 328.307 294.946 309.454 283.332 297.806C274.562 288.984 270.163 276.722 271.325 264.337C248.668 279.445 224.111 291.485 198.293 300.143C181.302 318.574 181.756 347.092 199.325 364.973L229.011 395.03ZM103.199 326.424C101.47 332.555 96.2297 337.049 89.9069 337.824L69.7489 340.324L72.2489 320.171C73.0768 313.721 77.7377 308.419 84.0289 306.771C89.5187 305.37 95.339 307.006 99.2951 311.062C103.251 315.118 104.741 320.977 103.204 326.43L103.199 326.424Z" transform="translate(73.946106 4.9999847)" id="Shape" fill="url(#gradient_1)" fill-rule="evenodd" stroke="none" />
      <path d="M25.162 0.166351C21.9805 0.919708 18.7215 1.2963 15.452 1.28836L6 1.28836C2.68629 1.28836 0 3.97464 0 7.28836C0 10.6021 2.68629 13.2884 6 13.2884L15.452 13.2884C19.6612 13.2961 23.8566 12.8088 27.952 11.8364C31.1745 11.0646 33.1613 7.82648 32.3895 4.60388C31.6177 1.38132 28.3796 -0.605438 25.157 0.166382L25.162 0.166351Z" transform="translate(129.04797 384.71167)" id="Shape" fill="url(#gradient_2)" stroke="none" />
      <path d="M6.00723 22.8496C7.4039 22.851 8.75696 22.3631 9.83124 21.4705C14.1072 17.9306 18.3472 14.2226 22.4312 10.4506C24.0319 9.00322 24.732 6.8078 24.2648 4.70102C23.7975 2.59424 22.2349 0.90065 20.1725 0.265717C18.11 -0.369217 15.8654 0.152328 14.2942 1.63158C10.3633 5.25856 6.28424 8.82356 2.17325 12.2316C0.224731 13.8453 -0.502167 16.5079 0.356079 18.8879C1.21429 21.2679 3.47321 22.8538 6.00323 22.8526L6.00723 22.8496Z" transform="translate(389.65173 238.06445)" id="Shape" fill="url(#gradient_3)" stroke="none" />
      <path d="M73.8091 0.256844C72.2858 -0.203781 70.6419 -0.0403824 69.2391 0.711082C67.8363 1.46255 66.7895 2.74052 66.329 4.26384C61.2774 20.9593 54.7649 37.1773 46.867 52.7298C43.991 58.3928 40.888 64.0428 37.646 69.5218C33.661 76.2528 29.356 82.9138 24.846 89.3218C17.6919 99.4791 9.91479 109.183 1.55951 118.378C-0.669037 120.83 -0.487457 124.625 1.96512 126.853C4.41766 129.082 8.21249 128.9 10.441 126.448C19.1288 116.884 27.2157 106.79 34.655 96.2259C39.345 89.5638 43.824 82.6358 47.969 75.6328C51.342 69.9328 54.569 64.0558 57.563 58.1638C65.7798 41.9815 72.5556 25.1071 77.8119 7.73613C78.7709 4.56552 76.9791 1.21757 73.809 0.256851L73.8091 0.256844Z" transform="translate(420.94495 102.62317)" id="Shape" fill="url(#gradient_4)" stroke="none" />
      <path d="M6.0039 16.537C7.59532 16.5389 9.12191 15.9066 10.2459 14.78L14.8409 10.185C17.1301 7.83313 17.1048 4.07845 14.7842 1.75761C12.4637 -0.563232 8.709 -0.588913 6.3569 1.69997L1.7569 6.29495C0.0414476 8.01091 -0.471638 10.5912 0.456826 12.8329C1.38529 15.0746 3.57252 16.5364 5.9989 16.537L6.0039 16.537Z" transform="translate(14.987091 233.97302)" id="Shape" fill="url(#gradient_5)" stroke="none" />
      <path d="M10.2769 30.7749L30.8079 10.2449C32.3247 8.72935 32.9175 6.51959 32.3629 4.44836C31.8084 2.37712 30.1906 0.759262 28.1195 0.204468C26.0483 -0.350327 23.8385 0.242279 22.3228 1.75897L1.79288 22.2889C0.256248 23.8002 -0.351715 26.0196 0.200191 28.103C0.752102 30.1865 2.37907 31.8138 4.46238 32.3662C6.5457 32.9186 8.76522 32.3112 10.2769 30.7749L10.2769 30.7749Z" transform="translate(32.585114 200.34912)" id="Shape" fill="url(#gradient_6)" stroke="none" />
      <path d="M1.75822 34.3766C4.10133 36.7196 7.9001 36.7196 10.2432 34.3766L34.3762 10.2426C36.7193 7.89931 36.7191 4.10022 34.3757 1.75716C32.0324 -0.585922 28.2333 -0.585693 25.8902 1.75766L1.75722 25.8907C0.631912 27.0161 -0.00018692 28.5424 0 30.1339C0.00018692 31.7254 0.632647 33.2516 1.75821 34.3767L1.75822 34.3766Z" transform="translate(24.028778 236.80334)" id="Shape" fill="url(#gradient_7)" stroke="none" />
      <path d="M5.99891 20.9559C7.59033 20.9578 9.11691 20.3255 10.2409 19.1989L19.1629 10.2779C20.6995 8.76654 21.3075 6.54715 20.7556 4.46371C20.2037 2.38028 18.5767 0.75293 16.4934 0.200546C14.4101 -0.351852 12.1906 0.2556 10.6789 1.79189L1.7569 10.7139C0.0414467 12.4298 -0.471638 15.0101 0.456825 17.2518C1.38529 19.4935 3.57252 20.9554 5.9989 20.9559L5.99891 20.9559Z" transform="translate(59.962097 216.04413)" id="Shape" fill="url(#gradient_8)" stroke="none" />
      <path d="M28.3825 1.79263L1.72252 28.4506C-0.58769 30.7993 -0.572137 34.5713 1.75737 36.9008C4.08687 39.2303 7.85891 39.2458 10.2075 36.9356L36.8655 10.2776C38.4021 8.76614 39.0099 6.54663 38.4578 4.46317C37.9057 2.3797 36.2784 0.752472 34.195 0.200348C32.1115 -0.351776 29.892 0.256042 28.3805 1.79263L28.3825 1.79263Z" transform="translate(13.017487 276.75436)" id="Shape" fill="url(#gradient_9)" stroke="none" />
      <path d="M41.5079 1.75671C39.1649 -0.585571 35.3669 -0.585571 33.0239 1.75671L1.79288 32.9837C0.256248 34.495 -0.351715 36.7144 0.200191 38.7978C0.752102 40.8813 2.37907 42.5086 4.46238 43.061C6.5457 43.6134 8.76522 43.006 10.2769 41.4697L41.5079 10.2377C43.8482 7.89503 43.8482 4.09935 41.5079 1.75668L41.5079 1.75671Z" transform="translate(53.348114 231.81628)" id="Shape" fill="url(#gradient_10)" stroke="none" />
      <path d="M6.35625 1.72852L1.75624 6.32251C-0.585922 8.66595 -0.585327 12.4642 1.75754 14.807C4.10042 17.1497 7.8987 17.15 10.242 14.8077L14.8362 10.2075C17.1466 7.85867 17.1308 4.08627 14.8009 1.75687C12.4709 -0.57254 8.69852 -0.587433 6.35023 1.72348L6.35625 1.72852Z" transform="translate(206.54376 425.4975)" id="Shape" fill="url(#gradient_11)" stroke="none" />
      <path d="M22.3461 1.69955L1.8161 22.2296C0.265717 23.738 -0.352722 25.9642 0.197495 28.0562C0.747711 30.1482 2.38139 31.782 4.47331 32.3325C6.56522 32.8829 8.79149 32.2648 10.3001 30.7145L30.8301 10.1845C33.1189 7.83264 33.0934 4.07828 30.773 1.7576C28.4526 -0.56308 24.6983 -0.588928 22.3461 1.69955L22.3461 1.69955Z" transform="translate(224.11487 391.96143)" id="Shape" fill="url(#gradient_12)" stroke="none" />
      <path d="M1.75623 34.4326C4.09935 36.7755 7.89812 36.7755 10.2412 34.4326L34.3752 10.3006C35.9256 8.79218 36.5441 6.56595 35.9938 4.47397C35.4436 2.38199 33.8099 0.748138 31.718 0.197662C29.6261 -0.352783 27.3998 0.265381 25.8912 1.81561L1.75723 25.9486C-0.585342 28.2914 -0.5858 32.0894 1.75623 34.4326L1.75623 34.4326Z" transform="translate(215.58179 428.29944)" id="Shape" fill="url(#gradient_13)" stroke="none" />
      <path d="M1.75772 19.165C2.88295 20.2904 4.40922 20.9227 6.0007 20.9227C7.59216 20.9227 9.11844 20.2904 10.2437 19.165L19.1647 10.243C21.5078 7.89938 21.5073 4.1001 19.1637 1.75702C16.8201 -0.58606 13.0208 -0.585602 10.6777 1.75803L1.75771 10.679C0.632278 11.8043 0 13.3306 0 14.922C0 16.5135 0.632278 18.0398 1.75772 19.165L1.75772 19.165Z" transform="translate(251.5133 407.635)" id="Shape" fill="url(#gradient_14)" stroke="none" />
      <path d="M28.4511 1.7926L1.79311 28.4496C0.256332 29.9609 -0.35173 32.1804 0.200165 34.2639C0.752045 36.3474 2.37909 37.9748 4.46248 38.5272C6.54588 39.0796 8.76549 38.472 10.2771 36.9356L36.9361 10.2776C38.4727 8.76614 39.0805 6.54663 38.5284 4.46317C37.9762 2.3797 36.349 0.752472 34.2655 0.200348C32.1821 -0.351776 29.9626 0.256042 28.4511 1.79263L28.4511 1.7926Z" transform="translate(204.49988 468.30737)" id="Shape" fill="url(#gradient_15)" stroke="none" />
      <path d="M33.0246 1.79163L1.79262 33.0236C0.256012 34.5351 -0.351791 36.7546 0.200333 38.8381C0.752472 40.9215 2.3797 42.5488 4.46315 43.1009C6.54662 43.653 8.76614 43.0452 10.2776 41.5086L41.5086 10.2776C43.0451 8.76627 43.653 6.54694 43.1011 4.46359C42.5491 2.38025 40.9222 0.75296 38.839 0.200562C36.7558 -0.351837 34.5363 0.255493 33.0246 1.79163L33.0246 1.79163Z" transform="translate(244.90039 423.33337)" id="Shape" fill="url(#gradient_16)" stroke="none" />
      <path d="M36.6173 4.10532C39.9556 14.0906 47.7773 21.9364 57.7523 25.3053C60.1992 26.1239 61.8487 28.4152 61.8487 30.9953C61.8487 33.5755 60.1992 35.8667 57.7523 36.6853C47.7773 40.0543 39.9556 47.9001 36.6173 57.8853C35.8015 60.3368 33.508 61.9907 30.9243 61.9907C28.3407 61.9907 26.0472 60.3368 25.2314 57.8853C21.8931 47.9001 14.0714 40.0543 4.09634 36.6853C1.64951 35.8667 0 33.5755 0 30.9953C0 28.4152 1.64951 26.1239 4.09634 25.3053C14.0714 21.9364 21.8931 14.0906 25.2314 4.10532C26.0472 1.6539 28.3407 0 30.9243 0C33.508 0 35.8015 1.6539 36.6173 4.10532ZM19.2564 30.9954C23.8202 34.1553 27.7734 38.1163 30.9243 42.6863C34.0753 38.1163 38.0285 34.1552 42.5923 30.9953C38.0285 27.8354 34.0753 23.8744 30.9243 19.3043C27.7734 23.8744 23.8202 27.8354 19.2564 30.9954Z" transform="translate(390.07568 327.00464)" id="Shape" fill="url(#gradient_17)" fill-rule="evenodd" stroke="none" />
      <path d="M25.2314 57.8853C21.8931 47.9001 14.0713 40.0543 4.09635 36.6853C1.64951 35.8667 -1.90735e-06 33.5755 0 30.9953C1.90735e-06 28.4152 1.64952 26.1239 4.09636 25.3053C14.0713 21.9364 21.8931 14.0906 25.2314 4.10533C26.0472 1.6539 28.3407 0 30.9244 0C33.508 0 35.8015 1.65391 36.6174 4.10535C39.9557 14.0906 47.7774 21.9364 57.7524 25.3053C60.1992 26.124 61.8487 28.4152 61.8487 30.9953C61.8487 33.5755 60.1992 35.8667 57.7523 36.6853C47.7774 40.0543 39.9557 47.9001 36.6174 57.8853C35.8015 60.3368 33.508 61.9907 30.9244 61.9907C28.3407 61.9907 26.0472 60.3368 25.2314 57.8853ZM42.5923 30.9953C38.0285 27.8354 34.0753 23.8744 30.9244 19.3043C27.7734 23.8744 23.8202 27.8354 19.2563 30.9953C23.8202 34.1553 27.7734 38.1163 30.9244 42.6863C34.0753 38.1163 38.0285 34.1553 42.5923 30.9953Z" transform="translate(18.075653 86.00467)" id="Shape" fill="url(#gradient_18)" fill-rule="evenodd" stroke="none" />
      <path d="M0 11C0 4.92487 4.91815 0 10.985 0C17.0518 0 21.97 4.92487 21.97 11C21.97 17.0751 17.0518 22 10.985 22C4.91815 22 0 17.0751 0 11Z" transform="translate(116.05298 43)" id="Ellipse" fill="url(#gradient_19)" stroke="none" />
      <path d="M0 11C0 4.92487 4.91815 0 10.985 0C17.0518 0 21.97 4.92487 21.97 11C21.97 17.0751 17.0518 22 10.985 22C4.91815 22 0 17.0751 0 11Z" transform="translate(391.05298 434)" id="Ellipse" fill="url(#gradient_20)" stroke="none" />
      <path d="M43.8383 5.74476e-07L43.8393 0C61.583 -0.000192109 77.5797 10.6882 84.3702 27.0811C91.1608 43.4745 87.4074 62.3441 74.8604 74.891C60.8198 88.9158 39.1115 91.7656 21.9269 81.8398C4.74231 71.914 -3.63641 51.6861 1.49631 32.5162C6.62894 13.3465 23.9936 0.0115884 43.8383 5.74476e-07ZM31.6424 73.3157C43.552 78.2486 57.2605 75.5215 66.3753 66.406C78.8015 53.9518 78.8015 33.7892 66.3753 21.335C57.2604 12.2195 43.552 9.49244 31.6424 14.4254C19.7328 19.3583 11.9674 30.9797 11.9674 43.8705C11.9674 56.7613 19.7328 68.3827 31.6424 73.3157Z" transform="translate(292.90466 107.96802)" id="Shape" fill="url(#gradient_21)" fill-rule="evenodd" stroke="none" />
    </g>
  </g>
</svg>