<svg id="Capa_1" enable-background="new 0 0 511.596 511.596" height="512" viewBox="0 0 511.596 511.596" width="512" xmlns="http://www.w3.org/2000/svg" xmlns:xlink="http://www.w3.org/1999/xlink"><linearGradient id="lg1"><stop offset=".00000083866" stop-color="#96d1f3"/><stop offset="1" stop-color="#ccfff4"/></linearGradient><linearGradient id="SVGID_1_" gradientUnits="userSpaceOnUse" x1="121.798" x2="121.798" xlink:href="#lg1" y1="451.596" y2="511.596"/><linearGradient id="SVGID_2_" gradientUnits="userSpaceOnUse" x1="389.798" x2="389.798" xlink:href="#lg1" y1="451.596" y2="511.596"/><linearGradient id="SVGID_3_" gradientUnits="userSpaceOnUse" x1="255.798" x2="255.798" y1="77.596" y2="157.596"><stop offset=".00000036422" stop-color="#a8abff"/><stop offset="1" stop-color="#fac8ff"/></linearGradient><linearGradient id="SVGID_4_" gradientUnits="userSpaceOnUse" x1="255.812" x2="255.812" xlink:href="#lg1" y1="227.596" y2="307.596"/><linearGradient id="SVGID_5_" gradientUnits="userSpaceOnUse" x1="255.798" x2="255.798" y1="0" y2="511.596"><stop offset=".00000011981" stop-color="#174fa3"/><stop offset="1" stop-color="#b044af"/></linearGradient><g><g><path d="m306.242 227.596c1.339-7.886 5.698-15.04 12.36-19.681 28.527-19.874 47.196-52.916 47.196-90.319 0-61.222-50.015-110.762-111.414-109.991-60.468.76-108.587 49.52-108.586 109.992 0 37.35 18.616 70.351 47.075 90.234 6.712 4.689 11.189 11.831 12.509 19.765z" fill="#fff"/><path d="m31.798 451.596h180v60h-180z" fill="url(#SVGID_1_)"/><path d="m299.798 451.596h180v60h-180z" fill="url(#SVGID_2_)"/><path d="m215.798 77.596h80v80h-80z" fill="url(#SVGID_3_)"/><path d="m122.958 267.272c-9.137-14.517-27.87-19.618-43.106-11.738l-12.054 13.062v-132c0-33.137-26.863-60-60-60v260l39 86v29h150v-67z" fill="#fff"/><path d="m503.798 76.596c-33.137 0-60 26.863-60 60v132l-12.054-13.062c-15.236-7.881-33.969-2.78-43.106 11.738l-73.841 117.324v67h150v-29l39-86v-260z" fill="#fff"/><path d="m305.886 230.571c.023-.311.051-.621.083-.931.038-.378.085-.754.137-1.13.043-.305.085-.611.136-.914h-100.86c.123.737.216 1.48.283 2.23.01.112.022.224.031.337.06.771.102 1.545.102 2.326v75.107h100v-74.816c0-.534.019-1.065.047-1.596.011-.205.026-.409.041-.613z" fill="url(#SVGID_4_)"/></g><path d="m204.298 382.432-74.993-119.155c-11.428-18.158-34.763-24.49-54.007-13.796v-112.885c0-37.22-30.28-67.5-67.5-67.5h-7.5v269.121l39 86v19.879h-15v67.5h15v-52.5h165v52.5h15v-67.5h-15zm-15 61.664h-135v-23.121l-39-86v-250.345c25.408 3.65 45 25.563 45 51.966v127.347c-7.356 12.283-8.103 28.109-.138 41.557l43.185 72.918 12.906-7.645-43.185-72.918c-7.47-12.611-2.828-28.907 10.23-35.66 11.872-6.141 26.193-2.241 33.312 9.071l72.688 115.493v57.337zm322-105.879v-269.121h-7.5c-37.22 0-67.5 30.28-67.5 67.5v112.884c-19.203-10.671-42.555-4.399-54.007 13.796l-74.993 119.155v61.664h-15v67.5h15v-52.5h165v52.5h15v-67.5h-15v-19.879zm-54 82.758v23.121h-135v-57.336l72.688-115.493c11.98-19.038 40.153-14.222 46.114 6.554 5.16 17.987-7.345 23.61-45.756 92.953l12.906 7.645 43.185-72.918c7.941-13.408 7.234-29.248-.138-41.557v-127.348c0-26.402 19.592-48.315 45-51.966v250.345zm-249-255.879h25v22.5h15v-22.5h15v22.5h15v-22.5h25v-25h22.5v-15h-22.5v-15h22.5v-15h-22.5v-25h-25v-22.5h-15v22.5h-15v-22.5h-15v22.5h-25v25h-22.5v15h22.5v15h-22.5v15h22.5zm15-80h65v65h-65zm-34.72 128.884c6.086 4.252 9.72 11.171 9.72 18.509v82.607h115v-82.316c0-7.532 3.585-14.526 9.591-18.71 31.564-21.99 50.409-58.055 50.409-96.474 0-104.573-127.693-157.143-201.221-82.656-51.221 51.892-42.972 137.49 16.501 179.04zm109.72 86.116h-85v-25h85zm0-40h-85v-25h85zm-43.82-244.992c101.561-1.124 141.908 129.482 59.837 186.657-6.489 4.52-11.272 10.976-13.85 18.335h-89.305c-2.585-7.337-7.419-13.822-13.991-18.413-80.613-56.319-43.499-185.312 57.309-186.579zm-28.68 314.992h60v15h-60zm-100-205h-40v-15h40zm3.891 31.005 7.5 12.99-34.641 20-7.5-12.99zm0-77.01-34.641-20 7.5-12.99 34.641 20zm256.109 31.005h40v15h-40zm23.25 78.995-34.641-20 7.5-12.99 34.641 20zm-27.14-110-7.5-12.99 34.641-20 7.5 12.99z" fill="url(#SVGID_5_)"/></g></svg>