<svg xmlns="http://www.w3.org/2000/svg" xmlns:xlink="http://www.w3.org/1999/xlink" viewBox="0 0 2148.85 1506.53"><defs><style>.cls-1{isolation:isolate;}.cls-2{opacity:0.5;}.cls-3{fill:#968cbe;}.cls-4{fill:#7e746d;opacity:0.25;}.cls-5{fill:#ab4966;}.cls-6{fill:#6cbe45;}.cls-7{fill:#0baa4b;opacity:0.24;mix-blend-mode:multiply;}.cls-8{fill:#f7e5c1;}.cls-9{fill:#df635a;}.cls-10{fill:url(#linear-gradient);}.cls-11{fill:url(#linear-gradient-2);}.cls-12{fill:url(#linear-gradient-3);}.cls-13{fill:url(#linear-gradient-4);}.cls-14{fill:url(#linear-gradient-5);}.cls-15{fill:url(#linear-gradient-6);}.cls-16{fill:url(#linear-gradient-7);}.cls-17{fill:url(#linear-gradient-8);}.cls-18{fill:url(#linear-gradient-9);}.cls-19{fill:url(#linear-gradient-10);}.cls-20{fill:#757ac2;}.cls-21{fill:#404347;}.cls-22{fill:#bdbdbd;}.cls-23{fill:#565a8d;}.cls-24{fill:#dba585;}.cls-25{fill:#3e4148;}.cls-26{fill:#363957;}.cls-27{fill:#e7b96b;}.cls-28{fill:#e09637;}.cls-29{fill:#eac483;}.cls-30{fill:#f7f7f7;mix-blend-mode:soft-light;}.cls-31{fill:#dba686;}.cls-32{fill:#2c3d54;}.cls-33{fill:#e6d8d1;}.cls-34{fill:#dcac92;}.cls-35{fill:#334862;}.cls-36{fill:#e8b79a;}.cls-37{fill:#3a5271;}.cls-38{fill:#20313f;}.cls-39{fill:#997761;}.cls-40{fill:#c99a7d;}.cls-41{fill:#a84848;}.cls-42{fill:#f8e9e1;}.cls-43{fill:#61534b;}</style><linearGradient id="linear-gradient" x1="507.06" y1="1446.16" x2="786.5" y2="1446.16" gradientUnits="userSpaceOnUse"><stop offset="0" stop-color="#e59148"/><stop offset="1" stop-color="#f1cc52"/></linearGradient><linearGradient id="linear-gradient-2" x1="517.25" y1="1412.23" x2="796.7" y2="1412.23" gradientUnits="userSpaceOnUse"><stop offset="0" stop-color="#db843a"/><stop offset="1" stop-color="#e4c04c"/></linearGradient><linearGradient id="linear-gradient-3" x1="511.56" y1="1378.31" x2="791" y2="1378.31" xlink:href="#linear-gradient"/><linearGradient id="linear-gradient-4" x1="517.25" y1="1344.38" x2="796.7" y2="1344.38" xlink:href="#linear-gradient-2"/><linearGradient id="linear-gradient-5" x1="522.03" y1="1310.46" x2="801.47" y2="1310.46" xlink:href="#linear-gradient"/><linearGradient id="linear-gradient-6" x1="513.27" y1="1276.53" x2="792.71" y2="1276.53" xlink:href="#linear-gradient-2"/><linearGradient id="linear-gradient-7" x1="507.06" y1="1242.61" x2="786.5" y2="1242.61" xlink:href="#linear-gradient"/><linearGradient id="linear-gradient-8" x1="518.47" y1="1208.68" x2="797.91" y2="1208.68" xlink:href="#linear-gradient-2"/><linearGradient id="linear-gradient-9" x1="529.19" y1="1478.68" x2="808.63" y2="1478.68" xlink:href="#linear-gradient-2"/><linearGradient id="linear-gradient-10" x1="1292.94" y1="-978.67" x2="1573.59" y2="-978.67" gradientTransform="translate(-914.19 1853.32) rotate(11.36)" xlink:href="#linear-gradient"/></defs><title>Banking</title><g class="cls-1"><g id="_Layer_" data-name="&lt;Layer&gt;"><g class="cls-2"><ellipse class="cls-3" cx="824.5" cy="396.61" rx="270.79" ry="194.97" transform="translate(-55.13 648.31) rotate(-41.66)"/><rect class="cls-3" x="131.78" y="1500.4" width="1973.98" height="6.11" rx="2.2"/><path class="cls-3" d="M131.78,1502.7s-264-358-44.65-745.63c194.63-343.92,421.55-320.41,588-180.85,70.91,59.44,275.35,7.33,449.36-342.62C1361.82-243.63,2184.38,45.81,2034.4,780.05c-72.58,355.31,220.89,368.23,71.36,723.4Z"/></g><ellipse class="cls-4" cx="1497.16" cy="1279.69" rx="123.2" ry="11.97" transform="translate(-24.45 29.17) rotate(-1.11)"/><polygon class="cls-5" points="1466.4 644.02 1467.8 689.46 1546.8 687.04 1333.52 913.79 1204.78 792.69 964.77 1047.86 797.28 890.32 739.9 951.32 645.75 862.75 467.54 1052.22 411.23 999.25 353.91 1001 111.2 1259.04 140.2 1286.31 371.61 1040.28 395.97 1039.54 469.26 1108.48 647.47 919.01 741.63 1007.58 799 946.58 966.5 1104.12 1206.5 848.95 1335.25 970.05 1575.79 714.31 1578.21 793.32 1623.65 791.92 1618.99 639.34 1466.4 644.02"/><path class="cls-5" d="M1075,404.52a20,20,0,0,1-7.57-1.4,19.31,19.31,0,0,1-6.06-3.78,18,18,0,0,1-4.07-5.59,16.44,16.44,0,0,1,0-13.81,17.26,17.26,0,0,1,4.07-5.59,19.94,19.94,0,0,1,6.06-3.73,21.17,21.17,0,0,1,15.09,0,19.6,19.6,0,0,1,6.11,3.73,17.43,17.43,0,0,1,4.08,5.59,16.54,16.54,0,0,1,0,13.81,18.23,18.23,0,0,1-4.08,5.59,19,19,0,0,1-6.11,3.78A20.21,20.21,0,0,1,1075,404.52Zm-12.69,43.1,32.84-38.32,30.29-39.84,7.11,6.29-31.8,37.63-31.34,40.54Zm12.69-50.9a6.52,6.52,0,0,0,3.21-.82,9.86,9.86,0,0,0,2.62-2.15,9.75,9.75,0,0,0,1.8-3.15,11.12,11.12,0,0,0,.65-3.78,10.33,10.33,0,0,0-2.45-6.94A7.46,7.46,0,0,0,1075,377a6.38,6.38,0,0,0-3.2.82,9.86,9.86,0,0,0-2.62,2.15,9.62,9.62,0,0,0-1.8,3.09,11.22,11.22,0,0,0,1.8,10.72A7.38,7.38,0,0,0,1075,396.72Zm45,57.54a20.12,20.12,0,0,1-13.63-5.12,17.63,17.63,0,0,1-4.08-5.53,16.68,16.68,0,0,1,0-13.87,18.23,18.23,0,0,1,4.08-5.59,19.31,19.31,0,0,1,6.06-3.78,20.55,20.55,0,0,1,21.26,3.78,17.13,17.13,0,0,1,4.07,5.59,16.72,16.72,0,0,1-4.07,19.4,21,21,0,0,1-6.12,3.73A20.22,20.22,0,0,1,1120,454.26Zm0-7.8a6.38,6.38,0,0,0,3.2-.82,9.79,9.79,0,0,0,4.43-5.24,10.63,10.63,0,0,0,.64-3.73,10.85,10.85,0,0,0-.7-3.9,11.33,11.33,0,0,0-1.81-3.14,8.06,8.06,0,0,0-2.62-2.1,7,7,0,0,0-3.14-.76,6.52,6.52,0,0,0-3.21.82,10,10,0,0,0-2.62,2.15,9.67,9.67,0,0,0-1.8,3.15,11.12,11.12,0,0,0-.64,3.78,10.32,10.32,0,0,0,2.44,6.94A7.46,7.46,0,0,0,1120,446.46Z"/><path class="cls-6" d="M960.88,706.46l90.86-175h0s5.38-42.31-38.79-42.31-52.53,42.31-77.61,42.31S917.43,489.17,878,489.17s-48.95,42.31-88.35,42.31-14.33-42.31-63.28-42.31-62.08,42.31-62.08,42.31h0l90.85,175C582.08,754.37,454.41,920.3,454.41,1117.65c0,234.78,171,319.69,393.87,319.69,107.25,0,207-19.65,281.6-66.2h0c80.47-50.2,131.75-131.67,131.75-253.49C1261.64,920.3,1134,754.37,960.88,706.46Z"/><path class="cls-5" d="M970.06,960.87c-3.6-3.53-8.86-7.35-15.69-11.51a219.14,219.14,0,0,0-23.63-12.09,215.91,215.91,0,0,0-29.16-10.43,191.66,191.66,0,0,0-32.38-6.32q.27,56.94.55,113.88c4.49.9,6.74,1.34,11.24,2.22,19.53,4.46,38.89,9.37,58,15.14,15.45,4.64,30.83,10.92,44.44,19.48,11.42,7.19,22,16.82,29.14,28.49,8,13.09,11.28,27.63,12,42.13.83,16-1.48,33.55-9.4,48.45A107.58,107.58,0,0,1,984,1226.13a171.78,171.78,0,0,1-48.19,24.08c-19.18,6.19-39.42,9.56-59.92,11.59q.18,28.83.37,57.67-16.63,1.29-33.27,2.48.06-29.65.14-59.32c-29.33-.62-58.35-4.12-86-12.49-26.13-7.92-50.5-20.42-73.07-36.7q17-27.54,33.78-55.19c5.56,6,12.44,10.64,19.12,15a184.55,184.55,0,0,0,29.77,15.18,272.94,272.94,0,0,0,37.81,12.23,226.94,226.94,0,0,0,43,6.36l.15-114.63q-3.6-1.08-7.5-1.89c-2.6-.55-5.1-1.18-7.49-1.93-18.67-4.71-37.56-9.76-55.18-17-13.76-5.67-26.89-12.6-38.43-22.39a84.06,84.06,0,0,1-22.29-30.58c-5.69-13.13-6.78-28-6.25-41.66.66-16.67,3.87-34.36,11.8-49.42,7.27-13.79,16.71-25.87,28.64-35.32,12.14-9.61,26.39-16.29,41.54-21.08,16.46-5.21,34.17-6.62,51.58-7.18q.07-28,.16-56,14.37,1.23,28.73,2.34.18,27.74.34,55.49c23.32,3.12,46.26,8.18,67.91,17.17,19.44,8.07,38.43,17.48,56.1,29.26Q983.83,936.58,970.06,960.87Zm-191.15,9.72c-.32,13.54,5.05,28,16.53,36.26,15.52,11.12,34.28,16.77,52.45,21.85q.08-54.56.16-109.11c-17.75.5-37.11,1.82-51.67,13.24C785,941.77,779.24,956.64,778.91,970.59ZM951.67,1153a40.51,40.51,0,0,0-22.17-34.8c-18.48-9.3-39.17-15.32-59.44-20.49q.26,54.45.54,108.91c20.95-1.71,42.84-5.15,60.78-16.33A43.13,43.13,0,0,0,951.67,1153Z"/><path class="cls-7" d="M1129.88,1371.14c-74.63,46.55-174.35,66.2-281.6,66.2-222.91,0-393.87-84.91-393.87-319.69,0-197.35,127.67-363.28,300.76-411.19l-90.85-175s13.13-42.31,62.08-42.31,23.88,42.31,63.28,42.31c0,0,13.65,19.74,24.8,50.83,10.55,29.39,18.86,68.94,11.29,111.57a184.74,184.74,0,0,1-6,24.13c-5.22,16.28-10.51,46.76-14,86C788.58,1000.34,817.33,1416,1129.88,1371.14Z"/><path class="cls-8" d="M855.6,723.48c-28.21,0-70-3.05-110.24-16.1l2.58-14.84c150,27.62,225.77-11.48,226.33-11.87L975.58,698C973.73,699.34,937,723.48,855.6,723.48Z"/><path class="cls-8" d="M793,709.65c-15.06,0-30.76-.67-47-2.22l1.51-15.85c68.93,6.57,128.28-3.18,165.92-12.52a579.46,579.46,0,0,0,74.11-23.9L977,675.33c-1,.51-17,8.51-59.31,19.06A521,521,0,0,1,793,709.65Z"/><path class="cls-8" d="M977.28,675.46s16.44-5.71,10-20.42C987.27,655,973.06,671.06,977.28,675.46Z"/><path class="cls-8" d="M974.27,680.67s9.33,5.83,1.31,17.35C975.58,698,968.65,693.57,974.27,680.67Z"/><path class="cls-8" d="M747.49,691.58s-10.4,5.88-2.13,15.8C745.36,707.38,758.86,704.66,747.49,691.58Z"/><path class="cls-8" d="M436.19,987.25l-1.45-14.36C566,959.66,618.2,923.63,641.58,830.12c7.18-28.71,17.27-53.81,30-74.6,10.29-16.82,22.32-30.89,35.76-41.81,23.35-19,42.49-21.06,43.32-21.17L753.15,706c-.13,0-17.19,2.77-37.57,19.62-19,15.7-44.8,47.19-60,108-13,51.84-35.38,87-70.57,110.78C551.44,967,505.55,980.25,436.19,987.25Z"/><path class="cls-8" d="M511,868.84c-8.44,0-13.18-2-14-2.32L503,853.38l-.13-.06c.1,0,10.21,3.92,29.65-3.25,18.55-6.84,49.26-25.23,90.26-74,85.93-102.23,139.92-82.5,142.18-81.61l-5.29,13.4.1,0c-.11,0-11.69-4-32.62,3.18-19.85,6.82-52.14,25.25-93.34,74.26-35.52,42.25-68.71,68.87-98.65,79.1A74.7,74.7,0,0,1,511,868.84Z"/><path class="cls-9" d="M1492.54,1058.6a17.66,17.66,0,0,0-4-3,76.35,76.35,0,0,0-6.89-3.62,72.36,72.36,0,0,0-8.75-3.36,50.6,50.6,0,0,0-9.89-2v30.56l4.41,1.06q9.19,2.47,16.7,5.3a45.45,45.45,0,0,1,12.72,7.07,29.29,29.29,0,0,1,8,10.16,33.74,33.74,0,0,1,2.82,14.57,36.89,36.89,0,0,1-3.44,16.61,31.54,31.54,0,0,1-9.36,11.31,41.68,41.68,0,0,1-13.78,6.62,72.07,72.07,0,0,1-16.52,2.56v19.43H1454v-19.6a91.76,91.76,0,0,1-24.12-5,87.24,87.24,0,0,1-21.28-10.87l10.78-21a32.68,32.68,0,0,0,4.86,3.71,58.05,58.05,0,0,0,8.3,4.51,104,104,0,0,0,10.77,4.15,60.46,60.46,0,0,0,12.28,2.65v-30.39c-1.06-.23-2.12-.5-3.18-.79s-2.12-.62-3.18-1a114.82,114.82,0,0,1-15.64-5.39,41.3,41.3,0,0,1-11-6.89,25.8,25.8,0,0,1-6.62-9.19,31.64,31.64,0,0,1-2.21-12.45,38.65,38.65,0,0,1,3.09-15.81,35.57,35.57,0,0,1,8.48-11.93,39.67,39.67,0,0,1,12.81-7.77,58.13,58.13,0,0,1,15.9-3.53v-18h10.6V1025a73,73,0,0,1,21.46,4.77,85.74,85.74,0,0,1,17.23,9Zm-53.7,1.77q0,6,4.15,9.1t12.63,5.56v-28.61Q1438.84,1047.47,1438.84,1060.37Zm42.92,57.42a10.7,10.7,0,0,0-4.94-9.37,54.72,54.72,0,0,0-13.78-6.18v28.44Q1481.76,1130.15,1481.76,1117.79Z"/><rect class="cls-10" x="507.06" y="1429.2" width="279.44" height="33.92"/><rect class="cls-11" x="517.25" y="1395.27" width="279.44" height="33.92"/><rect class="cls-12" x="511.56" y="1361.35" width="279.44" height="33.93"/><rect class="cls-13" x="517.25" y="1327.42" width="279.44" height="33.92"/><rect class="cls-14" x="522.03" y="1293.5" width="279.44" height="33.92"/><rect class="cls-15" x="513.27" y="1259.57" width="279.44" height="33.93"/><rect class="cls-16" x="507.06" y="1225.65" width="279.44" height="33.92"/><rect class="cls-17" x="518.47" y="1191.72" width="279.44" height="33.93"/><rect class="cls-18" x="529.19" y="1461.72" width="279.44" height="33.92"/><rect class="cls-19" x="544.05" y="1159.22" width="279.44" height="33.92" transform="translate(28.34 -16.02) rotate(1.37)"/><rect class="cls-5" x="1150.64" y="607.13" width="123.93" height="15.12"/><rect class="cls-5" x="1124.73" y="645.19" width="123.93" height="15.12"/><path class="cls-20" d="M456.44,1149.18s12.5,3.3,12.78,2.1,2.31-9.17,2.31-9.17c-1.47-1.32-15.08-2.69-15.08-2.69Z"/><path class="cls-21" d="M476.64,1158.13c-3.67-2.54-7.17-7.86-7.17-7.86-9.58-.09-13-2-13-2s-6.05,16.29-4.6,19.09,9.41,2.27,25.54,4.44c22.71,3.06,20.63-3.64,19.14-5.41C494.45,1164,480.31,1160.68,476.64,1158.13Z"/><rect class="cls-22" x="186.34" y="1203.79" width="602.03" height="5.74" transform="translate(-760.75 1575.16) rotate(-84.46)"/><rect class="cls-22" x="93.94" y="1194.83" width="602.03" height="5.74" transform="translate(-835.24 1475.3) rotate(-84.47)"/><rect class="cls-22" x="466.53" y="866.81" width="5.74" height="92.83" transform="translate(-484.89 1292.22) rotate(-84.46)"/><rect class="cls-22" x="462.36" y="909.77" width="5.74" height="92.83" transform="translate(-531.41 1326.93) rotate(-84.46)"/><rect class="cls-22" x="458.19" y="952.74" width="5.74" height="92.83" transform="translate(-577.96 1361.55) rotate(-84.46)"/><rect class="cls-22" x="454.02" y="995.7" width="5.74" height="92.83" transform="translate(-624.5 1396.18) rotate(-84.46)"/><rect class="cls-22" x="449.85" y="1038.67" width="5.74" height="92.83" transform="translate(-671.02 1430.88) rotate(-84.46)"/><rect class="cls-22" x="445.68" y="1081.63" width="5.74" height="92.83" transform="translate(-717.56 1465.51) rotate(-84.46)"/><rect class="cls-22" x="441.51" y="1124.6" width="5.74" height="92.83" transform="matrix(0.1, -1, 1, 0.1, -764.08, 1500.22)"/><rect class="cls-22" x="437.34" y="1167.56" width="5.74" height="92.83" transform="translate(-810.61 1534.87) rotate(-84.46)"/><rect class="cls-22" x="433.17" y="1210.53" width="5.74" height="92.83" transform="translate(-857.14 1569.55) rotate(-84.46)"/><rect class="cls-22" x="429" y="1253.49" width="5.74" height="92.83" transform="translate(-903.67 1604.21) rotate(-84.46)"/><rect class="cls-22" x="424.84" y="1296.46" width="5.74" height="92.83" transform="translate(-950.2 1638.86) rotate(-84.46)"/><rect class="cls-22" x="420.67" y="1339.42" width="5.74" height="92.83" transform="translate(-996.74 1673.49) rotate(-84.46)"/><rect class="cls-22" x="416.5" y="1382.39" width="5.74" height="92.83" transform="translate(-1043.27 1708.19) rotate(-84.46)"/><rect class="cls-22" x="416.5" y="1382.39" width="5.74" height="92.83" transform="translate(-1043.27 1708.19) rotate(-84.46)"/><rect class="cls-22" x="412.32" y="1425.35" width="5.74" height="92.83" transform="translate(-1089.8 1742.86) rotate(-84.46)"/><path class="cls-23" d="M498.46,1020c-2.4-12.08-11.5-45.88-11.5-45.88-6.72-10.76-68-4.58-68-4.58,5,33.92,23.43,34.35,31.5,52.63s9.41,17.62,19.65,39.8c6.89,14.93-19.51,82.08-19.51,82.08l25,4c2.86-11.65,30.32-76.17,29.73-82.83S500.55,1030.56,498.46,1020Z"/><path class="cls-24" d="M442.46,810c-4.36,2.2-10.21,6.44-10.39,14.09s3.69,19.08,8,27,16.87,9.54,25.24,6.43,9.12-28.44,1.46-41.08S442.46,810,442.46,810Z"/><path class="cls-24" d="M462.5,856.69s-29.4-23.19-26-13.33a173,173,0,0,1,5.55,22s22,0,20.89-2.2S462.5,856.69,462.5,856.69Z"/><path class="cls-25" d="M445.38,808.06s-15.27,4.21-14.72,12.9,2.78,18.58,6.2,22.9c0,0,1.52,2.51,7.72,1.54s13.77-9.22,16.36-10.13,2.61-2.43,2.61-2.43l1.62,2.37,2.75.17S465.41,828,469.2,825,465.27,801.11,445.38,808.06Z"/><path class="cls-24" d="M457.67,828.52c-1.42,4.46,2.14,10.45,4.13,9.94s2.22-5.08,1.34-8.77C462.79,828.23,459.08,824.07,457.67,828.52Z"/><path class="cls-26" d="M469.47,1150.27c-9.58-.08-13-2-13-2s-6.05,16.29-4.6,19.11,9.41,2.26,25.54,4.43a75.42,75.42,0,0,0,10.61.79l.94-9.71c-4.72-1.64-10.21-3.33-12.29-4.79C473,1155.59,469.47,1150.27,469.47,1150.27Z"/><path class="cls-20" d="M394.47,1186.48s12.51,3.31,12.79,2.11,2.31-9.18,2.31-9.18c-1.47-1.31-15.08-2.68-15.08-2.68Z"/><path class="cls-23" d="M413.06,1007.21c-1.24,17.41-3.51,36.5-5.32,54.7-2,20.29-7.75,53.09-8.05,63.95s-9.44,58.3-9.44,58.3l23.37,2.68s15.19-83.83,18.77-92.4,21.37-69.67,22-76.52S419,969.57,419,969.57A265.12,265.12,0,0,0,413.06,1007.21Z"/><path class="cls-26" d="M414.67,1195.44c-3.66-2.55-7.17-7.87-7.17-7.87-9.58-.08-13-2-13-2s-6.05,16.29-4.6,19.1,9.41,2.27,25.55,4.44c22.7,3,20.63-3.65,19.14-5.41C432.49,1201.29,418.34,1198,414.67,1195.44Z"/><path class="cls-24" d="M591.46,823.82c-.14-1.87-2.06-3.89-2.06-3.89a3.32,3.32,0,0,0-1.16-3c-.73-.71-4.14-.33-4.48-.27-.92.18-2.4-.15-4.1.37a4.05,4.05,0,0,0-.55.2c-1.93.81-10.87,12.39-10.87,12.39l1.61,4.63,2.24,5.73s9.66-2.19,11.8-2.81a15.49,15.49,0,0,0,4.42-2.34,8.82,8.82,0,0,1,.82-.41c1.09-.49,2.65-1.08,2.65-1.08a8.58,8.58,0,0,0,2-1.85c.67-1.4-1-3.44-1-3.44A5,5,0,0,0,591.46,823.82Z"/><path class="cls-26" d="M414.93,870.48c-.74.07-16.83,29.74-15.16,49.74.18,2.18,2.67,4.53,4.36,5.7a7.11,7.11,0,0,0,3.79,1.25l1,0h0l17.27.59S439,886.3,414.93,870.48Z"/><path class="cls-26" d="M441.33,861.35l-1.16,1.07s-2.32,4.45,6.42,4.83,22.47,1,15.92-5.32C462.51,861.93,449,858.77,441.33,861.35Z"/><path class="cls-26" d="M492.1,873a20.61,20.61,0,0,0-2.8-1.4c-1.55-.65-3.07-1.29-4.54-1.89-9.8-4-22.25-7.82-22.25-7.82h-20s-15.22,3-24.29,6.75a17.48,17.48,0,0,0-3.29,1.8l2.72,57s0,0,0,0a.25.25,0,0,0,0,.08c1.22,8,2.51,17.48,2.94,24.12.18,2.7-2.92,17.25-4.54,30.6l-5.65,31.95s3.26,13.24,81.27,2.09c2-.29-4.95-59.63-4.42-63.35.36-2.48.3-21.76.16-33.78l2.17-12.17a52.09,52.09,0,0,1,4.76-3c3-1.74,6.79-3.73,11-5.83-.5-2.87-.84-5.13-1-6.45A24.3,24.3,0,0,0,492.1,873Z"/><path class="cls-26" d="M568.08,828.2s-32.17,30.47-39.19,34.22c-6,3.22-35.91,6.48-44.13,7.33l-2.1.21c-8.59,11.71,2.78,39.74,7.58,36.65,2.23-1.43,5.12-3.38,15.12-8.38,18.6-9.31,41.57-26.18,45.94-28.62,6.72-3.75,27.93-29.67,27.93-29.67C578.13,836,568.08,828.2,568.08,828.2Z"/><path class="cls-27" d="M1338.34,1143.89a151.17,151.17,0,1,1,201,72.95A151.16,151.16,0,0,1,1338.34,1143.89Z"/><path class="cls-27" d="M1547.35,1212.78,1419.57,939.37a151.17,151.17,0,0,1,127.78,273.41Z"/><path class="cls-27" d="M1338.35,1143.89a151.23,151.23,0,0,1,41.44-181.23L1504,1228.35A151.23,151.23,0,0,1,1338.35,1143.89Z"/><path class="cls-28" d="M1371.21,1128.53A114.89,114.89,0,1,1,1523.93,1184,114.87,114.87,0,0,1,1371.21,1128.53Z"/><path class="cls-29" d="M1461.91,1128.56a23.73,23.73,0,0,0,5.56,1.38,51.13,51.13,0,0,0,7.72.47,56.48,56.48,0,0,0,9-.85,49.23,49.23,0,0,0,9.26-2.57l-14.7-31.47-3.17.74a148.45,148.45,0,0,1-16.89,2.52,46.49,46.49,0,0,1-13.94-.71,26.7,26.7,0,0,1-11.09-5.28,30.77,30.77,0,0,1-8.29-11.22,33.43,33.43,0,0,1-3.55-15.11,29.5,29.5,0,0,1,3.55-13.23,39.38,39.38,0,0,1,9.19-11.24,64.09,64.09,0,0,1,13.56-8.84l-7.46-16,7.9-3.7,7.61,16.27a84.71,84.71,0,0,1,22.84-5.4,72.31,72.31,0,0,1,22.75,1.5l-.94,18.22a29,29,0,0,0-6.7-1.68,62.21,62.21,0,0,0-9.37-.62,75.74,75.74,0,0,0-11,.87,65.66,65.66,0,0,0-11.55,2.81l14.7,31.47a21.43,21.43,0,0,0,2.15-.36c.73-.15,1.44-.27,2.15-.35a140.49,140.49,0,0,1,16.16-2.09,38.8,38.8,0,0,1,12.62,1,24.52,24.52,0,0,1,9.66,5,28.61,28.61,0,0,1,7.13,9.91,35.43,35.43,0,0,1,3.6,14.43,31.94,31.94,0,0,1-2.64,13.37,38.52,38.52,0,0,1-8,11.69,56.81,56.81,0,0,1-12.52,9.46l7.17,15.36-7.9,3.69-7.18-15.35a64.77,64.77,0,0,1-20.09,4.57,72.68,72.68,0,0,1-18.51-1.17Zm48.32-27.4q-3-6.39-9-7.48t-16.24.73l14,29.95q9.06-4.8,11.65-10.73A14.49,14.49,0,0,0,1510.23,1101.16Zm-67.51-29.94a12.4,12.4,0,0,0,10,7.62c4.61.63,10.54.35,17.78-.8l-14.07-30.1q-9.66,4.69-13.27,10.64A12.65,12.65,0,0,0,1442.72,1071.22Z"/><path class="cls-30" d="M1568.21,1199.16A151.2,151.2,0,0,0,1443.4,932.1Z"/><path class="cls-30" d="M1504,1228.35,1379.79,962.66a152.18,152.18,0,0,1,31.5-19.72q4.11-1.92,8.28-3.57l127.78,273.41q-3.94,2.13-8,4.06A151.57,151.57,0,0,1,1504,1228.35Z"/><path class="cls-31" d="M858.26,1235.71s-4.48,4.42-6,4.2-4,.91-5.41,1-5.43-1.12-6.86-.51c-.59.26-3.59,3.2-4.83,3.58s-3.85.86-3.5,1.91,2.78,1.27,2.78,1.27a1.87,1.87,0,0,0-1,1.55c0,2,1.31,2.4,1.31,2.4s-1.12,1.16-.9,2a2.8,2.8,0,0,0,1.78,2.14,3,3,0,0,0,.13,2.32,2.45,2.45,0,0,0,2.63,1c.57,2.71,2,2.38,4.55,1.9.94-.17,8.59-4.24,12.74-9.21a47,47,0,0,1,9.33-8.3Z"/><path class="cls-32" d="M896.4,1152.7a37.48,37.48,0,0,1-4,13.74c-3.71,7.22-3.71,17.35-4.24,20.79s-10.16,36.59-11,37.51-3.77,2.2-9.69,12.24-18.33,19.3-18.33,19.3l10.27,10.07s27.51-19,31.7-29.88c4.47-11.58,14.18-44.8,14.18-44.8S915.32,1158.57,896.4,1152.7Z"/><rect class="cls-33" x="833.55" y="1193.48" width="49.34" height="82.34" transform="translate(2218.79 1874.76) rotate(150)"/><path class="cls-34" d="M893.58,1455.77s-3.1,7.5-5.54,9.57-13.27,16.16-17,16.87-11.19,1.2-11.5,2.78-.48,9.29,10.14,9.54,13.42.06,16-2.54,12.73-10.06,15.52-10l-.32,13.28,2.79.07s3.05-16.41,5.25-19.54.22-14.88-5.11-19.79A7.32,7.32,0,0,0,893.58,1455.77Z"/><path class="cls-35" d="M871,1482.21s11.79,1.61,16.8-2.26,11.29-13.49,21.29-13.68c0,0,3.58,4.59-2.29,15.07,0,0-3.24,12-3.16,14l-2.79-.07.32-13.28s-10,4.42-16.94,12.09c0,0-20.37,3.24-24.2-3.09,0,0-2.12-3.18-1.18-6.28S871,1482.21,871,1482.21Z"/><path class="cls-34" d="M916,1261.68s12.46,15.14-3.16,42.13c0,0-1.33,13.79-1.6,19s-3.6,24.54-1.81,34,7.65,23.51,5.46,37-12.19,52.42-10.26,62.4l-11.09-.26s-4-82.47-5.18-85.38-6.12-9.22-5.53-22-12.53-65.26-12.47-79.8S916,1261.68,916,1261.68Z"/><path class="cls-36" d="M900.61,1456s-2.92,7.57-5.31,9.69-12.88,16.48-16.6,17.27-11.16,1.47-11.43,3.06-.27,9.3,10.36,9.3,13.42-.26,15.94-2.92,12.49-10.36,15.28-10.36v13.28h2.79s2.66-16.47,4.79-19.66-.14-14.88-5.58-19.66A7.32,7.32,0,0,0,900.61,1456Z"/><path class="cls-37" d="M878.7,1483s11.82,1.34,16.73-2.65,11-13.75,21-14.18c0,0,3.7,4.5-1.92,15.12,0,0-3,12.08-2.83,14.07h-2.79v-13.28s-9.9,4.65-16.64,12.48c0,0-20.29,3.72-24.28-2.52,0,0-2.18-3.12-1.33-6.25S878.7,1483,878.7,1483Z"/><path class="cls-36" d="M918.39,1261.46s12.82,14.83-2.15,42.19c0,0-1,13.82-1.16,19s-3,24.62-1,34,8.2,23.33,6.33,36.86-10.94,52.7-8.79,62.63H900.54s-5.9-82.35-7.2-85.23-6.33-9.07-6.05-21.89-17.71-61.91-18-76.45S918.39,1261.46,918.39,1261.46Z"/><path class="cls-32" d="M869.29,1276.43s14.27,82.07,11.1,93.88c0,0,24.1-2.21,43.11-9.6,0,0-9.49-32.12-6.28-49.14s10.43-26.35,5.67-43.56S869.29,1276.43,869.29,1276.43Z"/><path class="cls-24" d="M798.79,1236.18s-4.6,1.29-6.38-.78c-1.52-1.75-4.74-2.92-5.74-3.29-1.33-.49-4.84-3.5-5.47-1.83s5.56,5.24,6.71,6.25-5.61,2.06-6.69,3.23,1.3,12.26,5.85,11,8.58-5.61,9.43-5.67a28.91,28.91,0,0,0,3.35-.78Z"/><path class="cls-24" d="M782.21,1239.21s-13.68,4.79-14.33,5.87-.34,1.81,1,1.41,13.35-4.24,13.35-4.24-15.24,8.39-16,9.16c-.42.45.08,1.89.8,1.74s16.29-7.59,16.29-7.59-14.22,7.86-14.63,8.68a1.12,1.12,0,0,0,1.53,1.42c1.1-.51,14.7-7.05,14.7-7.05s-10,6.36-9.93,7.26c0,.56.42,1.82,3,.1s8.91-5.16,8.91-5.16Z"/><path class="cls-36" d="M879.09,1093.57c-6.48-.13-20.74,3.53-22.46,20.74a52.92,52.92,0,0,0,1.86,8.2c1.23,3.6-1.72,14.4-.86,14.91a23.77,23.77,0,0,0,4.39,1.08s4.11,11.59,8.21,11.37,19.56-3.86,26.47-18.62S905.24,1094.1,879.09,1093.57Z"/><path class="cls-38" d="M856.63,1114.31s10.7,6.86,21.16,8,17.43,11.73,17.43,11.73,15.3-20.37,2.06-36.11S853.79,1094.39,856.63,1114.31Z"/><path class="cls-37" d="M922.89,1268c-14,15.12-52,12.89-53.6,8.42S865.41,1230.5,865,1226a38.52,38.52,0,0,1,.42-6.81,23.83,23.83,0,0,0,.05-5.46,6.12,6.12,0,0,0-1.49-3.43c-3.5-3.68-8.63-11.37-7.33-16.7s15.4-23,19.72-27.93,15.84-15.84,15.84-15.84c16.41-.28,21.31,33.69,18.72,41.32s-10.22,39.89-5.91,44.92S922.89,1268,922.89,1268Z"/><path class="cls-36" d="M893.34,1149.87c-1-5.33,0-13,0-13s-19.49,9-16.11,11.45a6.15,6.15,0,0,1,1.9,3.32c1.19,4.16.85,10.25.85,10.25l-6.46,7.7C867.81,1177.38,893.82,1152.46,893.34,1149.87Z"/><path class="cls-24" d="M882.11,1121.72c0-2,2.16-5.11,5.54-2.45s-.79,12.38-3.52,11.52S882.11,1123.81,882.11,1121.72Z"/><path class="cls-39" d="M877.23,1148.28a7.79,7.79,0,0,1,2,3.77,32.13,32.13,0,0,0,11.26-12C886.39,1145.15,877.23,1148.28,877.23,1148.28Z"/><path class="cls-37" d="M906,1162.32s-9.64-7.64-16.37-2.51-8,10.25-10,13.25-26,29.85-27.19,30.34-21.12,11.63-31.95,17.12c-10.63,5.4-26.48,15.13-26.48,15.13l5,9.89s53.24-22.07,63-29.19c9.56-6.95,37.41-29.46,37.41-29.46S916.78,1178.62,906,1162.32Z"/><path class="cls-40" d="M835,1246.55s6.6-3.37,8.87-2.39-.05,2.33-.05,2.33,2.27-1.37,3.52.3-1.56,3.09-1.56,3.09a2.05,2.05,0,0,1,2.59,1.51c.59,2.09-2,2.76-2,2.76s3.23.72,1.62,3c-2.72,3.79-8.1,4-8.1,4s-1.3-.08-1.72-2.14c0,0-3.21,0-2.73-3.58,0,0-3-2-.95-4.26C834.46,1251.11,831.36,1248.77,835,1246.55Z"/><path class="cls-38" d="M879.56,1122.61s6,26.25-2.33,31.34c0,0,17.73-4.8,25.78-15,0,0,8.91-42.54-18.8-47.3C856.82,1086.92,879.56,1122.61,879.56,1122.61Z"/><path class="cls-38" d="M891.55,1193.22c-.65.68-21.34,22.47-26.15,26a23.83,23.83,0,0,0,.05-5.46Z"/><path class="cls-27" d="M1654.63,896.89a149.1,149.1,0,1,1,147.79,150.4A149.11,149.11,0,0,1,1654.63,896.89Z"/><path class="cls-27" d="M1811.31,1047.11l2.61-297.67a149.11,149.11,0,0,1-2.61,297.67Z"/><path class="cls-27" d="M1654.63,896.89a149.18,149.18,0,0,1,114-143.64l-2.54,289.26A149.18,149.18,0,0,1,1654.63,896.89Z"/><path class="cls-28" d="M1690.41,897.2a113.32,113.32,0,1,1,112.32,114.32A113.32,113.32,0,0,1,1690.41,897.2Z"/><path class="cls-29" d="M1837.57,873.56a22.57,22.57,0,0,0-4.29-3.67,49.55,49.55,0,0,0-6.61-3.81,54.91,54.91,0,0,0-8.28-3.19,47.33,47.33,0,0,0-9.31-1.81l-.87,34.24,3.13.75a144.37,144.37,0,0,1,16,5.21,45.7,45.7,0,0,1,12,6.76,26.26,26.26,0,0,1,7.46,9.54,30.35,30.35,0,0,1,2.38,13.56,32.82,32.82,0,0,1-3.52,14.89,29.34,29.34,0,0,1-9,10.12,39.08,39.08,0,0,1-13.07,5.88,63.09,63.09,0,0,1-15.85,1.83l-.45,17.37-8.6-.22.45-17.7a83.34,83.34,0,0,1-22.55-5.3,71.49,71.49,0,0,1-19.41-11.34l8.84-15.67a29,29,0,0,0,5.19,4.44,61.62,61.62,0,0,0,8,4.68,75.84,75.84,0,0,0,10.08,4.06,65,65,0,0,0,11.44,2.61l.87-34.25a20.46,20.46,0,0,0-2.05-.63,21.29,21.29,0,0,1-2-.63,141.72,141.72,0,0,1-15.18-5.27,37.89,37.89,0,0,1-10.68-6.49,24.27,24.27,0,0,1-6.32-8.68,28.27,28.27,0,0,1-1.93-11.89,35,35,0,0,1,3.18-14.32,31.48,31.48,0,0,1,8.22-10.64,38,38,0,0,1,12.18-6.81,55.89,55.89,0,0,1,15.22-2.84l.42-16.71,8.6.22-.42,16.71a63.8,63.8,0,0,1,19.74,4.81,72,72,0,0,1,15.83,9.18Zm-54.71,2.9c-.11,4.64,1.42,8.15,4.62,10.55s8.08,4.57,14.65,6.5l.83-32.59q-10.1.24-15,4.33A14.35,14.35,0,0,0,1782.86,876.46Zm46.42,56.16a12.27,12.27,0,0,0-5.51-11.15q-5.7-3.87-16-7.12l-.84,32.76q10.61.1,16.41-3.55A12.48,12.48,0,0,0,1829.28,932.62Z"/><path class="cls-30" d="M1835.67,1043.87a149.14,149.14,0,0,0,2.55-290.76Z"/><path class="cls-30" d="M1766.08,1042.51l2.54-289.26A149.3,149.3,0,0,1,1805,749.1q4.47,0,8.88.34l-2.61,297.67c-2.94.15-5.91.21-8.89.18A149.5,149.5,0,0,1,1766.08,1042.51Z"/><path class="cls-36" d="M1728.1,1042.61s-.95-3.83.15-5.91,2.78-7.72,2.53-8.43-7.78-4.5-10.55-6.56c-2-1.48-16.32-16.09-16.52-15.06s-.48,8.53,6.23,17.37,9.52,18.93,10.7,22.21S1728.1,1042.61,1728.1,1042.61Z"/><path class="cls-36" d="M1864.92,1043.71s-2-6.3-.91-8.86,5.91-5.49,12.32-8.48c6-2.78,19.61-10.62,20.26-10s.76,4.61-8.68,12.73-12.82,10-12.71,14.05S1864.92,1043.71,1864.92,1043.71Z"/><path class="cls-36" d="M1807.62,1119.43s-22.83,15.62-21.71,6.08a62.36,62.36,0,0,0-1.32-19.44s22.66-9.84,21.63-2.75a28.8,28.8,0,0,0-.24,5.11,49.94,49.94,0,0,0,.57,5.7A52.55,52.55,0,0,0,1807.62,1119.43Z"/><path class="cls-23" d="M1881.12,1444.41s7.05,4,9.93,6.67,15.85,1.31,18.6,8.5-9.47,10.82-22.69,7-15.47-6.57-19.94-8.74c-4.68-2.27.28-14.22.28-14.22Z"/><path class="cls-23" d="M1748.2,1426.12a89.83,89.83,0,0,0,.87,11c.82,5.45,7.49,17.05,7,21.41s-8.62,10.94-17.54.37c-6.64-7.86-4.42-20.72-6.5-24.35s-1.66-11.7,3.18-16.85S1748.2,1426.12,1748.2,1426.12Z"/><path class="cls-26" d="M1844,1239.79s34.91,66.12,36.12,75.39,2.55,108.69,4,115.18S1882,1440,1882,1440s-11.65,4.64-15.14-.62-2.43-8.35-2.43-8.35-11.53-79.93-13-93.07-38.67-69.26-42-64.16-9.53,53.34-12.35,60.3-44.71,88.43-47.93,88.43-15.3-1.86-13.43-11.44,29.14-80.24,29.14-88.28,8.53-83.12,10.71-93.2S1844,1239.79,1844,1239.79Z"/><path class="cls-40" d="M1881.06,1445.22l.31-4.13L1867,1440l.36,4.27s.33,2.34,7.16,2.82S1881.06,1445.22,1881.06,1445.22Z"/><path class="cls-40" d="M1749.07,1422.48s-1.15,4.87-1.42,5.87-8.7,2.07-11.18-2.44-1.27-5.54-1-7.61a10.06,10.06,0,0,1,.93-2.93Z"/><path class="cls-23" d="M1885,1440a30.26,30.26,0,0,1-20.19,1.23s-2-5.55-.46-10.2c0,0,7.93,4,19.56-2A22.89,22.89,0,0,1,1885,1440Z"/><path class="cls-41" d="M1784.59,1249.1c.22-2.54.28-3.39.28-3.39l-1-.21s-.1,1-.32,3.49Z"/><path class="cls-23" d="M1742.15,1403.09c1-2.17,2.14-4.6,3.35-7.23l.91.56-3.35,7.23Zm6.69-14.46c1.07-2.35,2.19-4.77,3.31-7.25l.92.55-3.32,7.25Zm6.62-14.5c1.1-2.42,2.2-4.86,3.28-7.27l.91.55c-1.08,2.41-2.18,4.84-3.28,7.27Zm6.53-14.55c1.15-2.59,2.22-5,3.21-7.31l.92.53c-1,2.27-2.07,4.73-3.22,7.32Zm6.36-14.65c1.22-2.89,2.23-5.38,3-7.4l.94.49c-.79,2-1.81,4.52-3,7.43Zm5.45-15c.51-2.14,1-4.82,1.57-7.94l1,.23c-.54,3.15-1.07,5.85-1.58,8Zm2.84-16c.35-2.5.73-5.21,1.1-8.09l1,.18c-.37,2.88-.74,5.6-1.1,8.1Zm2.1-16.19c.3-2.57.61-5.3.92-8.11l1,.15c-.31,2.81-.62,5.54-.93,8.12Zm1.79-16.23c.27-2.62.55-5.36.82-8.13l1,.13c-.27,2.78-.55,5.52-.82,8.14Zm1.59-16.27c.26-2.69.5-5.43.75-8.15l1,.12c-.24,2.72-.49,5.47-.74,8.15Z"/><path class="cls-41" d="M1738.14,1414.19l1.64-3.52-.9-.56-1.64,3.51Z"/><path class="cls-23" d="M1752,1422.94s-15.85.16-18.26-10.67c0,0,1.94-5.84,3.72-7.4,0,0,2.67,8.81,17.26,9.65C1754.68,1414.52,1753.7,1419.93,1752,1422.94Z"/><path class="cls-36" d="M1788.93,1059.44s21.74-7.67,22.75,19.21c1,27.28-2,30.34-10.78,32.35s-18.54-1-26.28-21.32C1767.26,1070.34,1775.25,1061,1788.93,1059.44Z"/><path class="cls-42" d="M1878.11,1092c-1.67,4.08-19.36,30.71-21.48,35.54s-10.76,17.25-11.51,19.06-3.2,22.06-5.46,28-.12,46.15.79,52.65a56.12,56.12,0,0,0,3.54,12.62s-35.94,7.8-71.49,10.52c0,0,2.33-17,1.87-23.55s-8.33-47.23-11.66-53.58-33.88-51.12-35.09-52.93-14.22-22.69-14.82-27.53,3-43.07,3-48.19c0-6.36.08-5.48.08-5.48l13.69,1s1,21.67,1.88,27.79,5.9,25.64,6.81,29,22.46,33.12,26.31,33.12c2.4,0,9.13-2.47,14.57-4.65,3.28-1.33,6.1-2.55,7.21-3.06,3-1.36,19-5.7,24.61-5.12,0,0,1.33.18,3.36.38,4.62.45,12.85,1,17.06-.38,6.05-2,9.23-6.81,12.86-10.74s15.58-17.75,16.49-20.62,1.54-28.4,1.88-35.6.35-8.18.19-9.08,15.35-4.35,15-1.78-.38,18.82.28,28.06C1878.75,1076.49,1879.77,1087.88,1878.11,1092Z"/><path class="cls-43" d="M1777,1095.15s-2.18-3.82-.17-5.21a2.28,2.28,0,0,1,3.31.56l2.15-.35s-4.25-8,2.48-9.44,20.84-2.65,24.47-5.35c0,0,1.48,6.15,1.62,7.33s1-.28,1-.28,1.29-19.45-11.23-26-26.17,1.25-28.41,8.67S1769.34,1079.82,1777,1095.15Z"/><path class="cls-36" d="M1777.24,1085.06s-2.4-1.88-2.77.1,4.07,10.36,5.22,10.41S1780.08,1087.36,1777.24,1085.06Z"/><path class="cls-39" d="M1806.55,1114.13c-13.73,2.53-18.85-5.45-18.85-5.45,8.91,6,18.22.58,18.32.51A35.45,35.45,0,0,0,1806.55,1114.13Z"/><path class="cls-36" d="M1806.17,1152.11c-16.54,1-27-26.71-27-26.71,3.28-1.33,6.1-2.55,7.21-3.06,3-1.36,18.84-5.84,24.61-5.12,0,0,1.33.18,3.36.38C1814.31,1117.6,1822.7,1151.1,1806.17,1152.11Z"/></g></g></svg>