<svg xmlns="http://www.w3.org/2000/svg" viewBox="0 0 1832.41 1295.43"><defs><style>.cls-1{isolation:isolate;}.cls-2{fill:#dde8fe;}.cls-3{fill:#4951ec;}.cls-4{fill:#eae9f3;}.cls-5{fill:#7c9af2;}.cls-6{fill:#92b5f9;}.cls-7{fill:#bed1f9;}.cls-11,.cls-8{fill:#ef7f7f;}.cls-19,.cls-9{fill:#0b0754;}.cls-10{fill:#fb9390;}.cls-11,.cls-12{opacity:0.53;mix-blend-mode:multiply;}.cls-12{fill:#fd5e5a;}.cls-13{fill:#130025;}.cls-14{fill:#8792ce;}.cls-15{fill:#badcff;}.cls-16{fill:#fa7167;}.cls-17,.cls-18{fill:#fff;}.cls-17{opacity:0.66;}.cls-19{opacity:0.44;}.cls-20{fill:#3e4edd;}.cls-21{fill:#e8605d;}.cls-22{fill:#1f3765;}.cls-23{fill:#ff7469;}.cls-24{fill:#f1726b;}</style></defs><title>Health care</title><g class="cls-1"><g id="Layer_1" data-name="Layer 1"><path class="cls-2" d="M367.32,1274.87S246.6,1168.45,86.63,815.22-12.45,46.08,275,6.08s510.73,130.3,510.73,130.3S1106.43,33.93,1362.37,104s230.77,413.37,230.77,413.37,161.4,95.33,227.26,311.92S1659.68,1274,1659.68,1274Z"/><rect class="cls-3" x="258.88" y="1264.7" width="1533.85" height="30.55" rx="15.06"/><path class="cls-4" d="M1476.07,1074.43H448.72c-17.79,0-32.22-13.46-32.22-30.06L397,341c0-16.61,14.43-30.07,32.23-30.07h1076.2c17.8,0,32.23,13.46,32.23,30.07l-29.32,703.33C1508.29,1061,1493.87,1074.43,1476.07,1074.43Z"/><path class="cls-3" d="M1525.09,317.25a28.51,28.51,0,0,1,5.42,16.68l-29.32,703.34c0,16.6-14.43,30.06-32.22,30.06H441.62a33.57,33.57,0,0,1-19.71-6.28,32.85,32.85,0,0,0,26.81,13.38H1476.07c17.8,0,32.22-13.46,32.22-30.06L1537.61,341A29.35,29.35,0,0,0,1525.09,317.25Z"/><path class="cls-5" d="M461.17,992.1,441.63,361.65c0-16.61,14.43-30.07,32.23-30.07h998.08c17.79,0,32.22,13.46,32.22,30.07L1474.85,992.1c0,16.6-14.43,30.06-32.23,30.06H493.4C475.6,1022.16,461.17,1008.7,461.17,992.1Z"/><path class="cls-6" d="M459.71,1007.56,440.17,377.11c0-16.6,14.42-30.06,32.22-30.06h998.08c17.8,0,32.23,13.46,32.23,30.06l-29.32,630.45c0,16.6-14.43,30.06-32.22,30.06H491.94C474.14,1037.62,459.71,1024.16,459.71,1007.56Z"/><path class="cls-2" d="M1435.63,999.54h-18a1,1,0,0,1,0-1.95h16.12l.26-5.45a1,1,0,0,1,1-.93,1,1,0,0,1,.93,1Zm-41.42,0h-23.44a1,1,0,1,1,0-1.95h23.44a1,1,0,0,1,0,1.95Zm-46.88,0h-23.44a1,1,0,0,1,0-1.95h23.44a1,1,0,1,1,0,1.95Zm-46.87,0H1277a1,1,0,1,1,0-1.95h23.44a1,1,0,0,1,0,1.95Zm-46.88,0h-23.44a1,1,0,0,1,0-1.95h23.44a1,1,0,1,1,0,1.95Zm-46.87,0h-23.44a1,1,0,1,1,0-1.95h23.44a1,1,0,0,1,0,1.95Zm-46.88,0h-23.44a1,1,0,0,1,0-1.95h23.44a1,1,0,1,1,0,1.95Zm-46.87,0h-23.44a1,1,0,1,1,0-1.95H1113a1,1,0,0,1,0,1.95Zm-46.88,0h-23.44a1,1,0,0,1,0-1.95h23.44a1,1,0,1,1,0,1.95Zm-46.87,0H995.77a1,1,0,1,1,0-1.95h23.44a1,1,0,0,1,0,1.95Zm-46.88,0H948.89a1,1,0,0,1,0-1.95h23.44a1,1,0,1,1,0,1.95Zm-46.88,0H902a1,1,0,1,1,0-1.95h23.43a1,1,0,1,1,0,1.95Zm-46.87,0H855.14a1,1,0,0,1,0-1.95h23.44a1,1,0,1,1,0,1.95Zm-46.87,0H808.27a1,1,0,1,1,0-1.95h23.44a1,1,0,0,1,0,1.95Zm-46.88,0H761.39a1,1,0,0,1,0-1.95h23.44a1,1,0,1,1,0,1.95Zm-46.87,0H714.52a1,1,0,1,1,0-1.95H738a1,1,0,0,1,0,1.95Zm-46.88,0H667.64a1,1,0,0,1,0-1.95h23.44a1,1,0,1,1,0,1.95Zm-46.87,0H620.77a1,1,0,1,1,0-1.95h23.44a1,1,0,0,1,0,1.95Zm-46.88,0H573.89a1,1,0,0,1,0-1.95h23.44a1,1,0,1,1,0,1.95Zm-46.87,0H527a1,1,0,1,1,0-1.95h23.44a1,1,0,0,1,0,1.95Zm-46.88,0h-6l-.75-24.37a1,1,0,1,1,1.95-.06l.7,22.48h4.12a1,1,0,1,1,0,1.95Zm932.5-29.79h0a1,1,0,0,1-.92-1l1.08-23.42a1,1,0,1,1,2,.09l-1.09,23.42A1,1,0,0,1,1436.08,969.75Zm-939-17.06a1,1,0,0,1-1-1l-.72-23.43a1,1,0,0,1,.94-1,1,1,0,0,1,1,.94l.73,23.43a1,1,0,0,1-1,1Zm941.2-29.77h0a1,1,0,0,1-.93-1l1.09-23.41a1,1,0,0,1,1-.93,1,1,0,0,1,.93,1L1439.23,922A1,1,0,0,1,1438.26,922.92ZM495.61,905.84a1,1,0,0,1-1-1l-.73-23.43a1,1,0,0,1,1-1,1,1,0,0,1,1,.94l.72,23.43a1,1,0,0,1-.94,1Zm944.82-29.74h0a1,1,0,0,1-.93-1l1.09-23.41a1,1,0,0,1,1-.93,1,1,0,0,1,.93,1l-1.09,23.41A1,1,0,0,1,1440.43,876.1ZM494.15,859a1,1,0,0,1-1-.94l-.73-23.43a1,1,0,0,1,.95-1,1,1,0,0,1,1,.95l.73,23.42a1,1,0,0,1-.95,1Zm948.46-29.7h0a1,1,0,0,1-.93-1l1.09-23.41a.94.94,0,0,1,1-.93,1,1,0,0,1,.93,1l-1.09,23.42A1,1,0,0,1,1442.61,829.28ZM492.7,812.13a1,1,0,0,1-1-1L491,787.76a1,1,0,0,1,.95-1,.94.94,0,0,1,1,1l.73,23.42a1,1,0,0,1-.95,1Zm952.09-29.68h0a1,1,0,0,1-.93-1L1444.9,758a1,1,0,0,1,1-.93,1,1,0,0,1,.93,1l-1.09,23.41A1,1,0,0,1,1444.79,782.45ZM491.25,765.28a1,1,0,0,1-1-.95l-.72-23.43a1,1,0,0,1,1.95-.06l.73,23.43a1,1,0,0,1-1,1ZM1447,735.63h0a1,1,0,0,1-.93-1l1.09-23.41a1,1,0,0,1,2,.09l-1.09,23.42A1,1,0,0,1,1447,735.63ZM489.8,718.42a1,1,0,0,1-1-.94l-.72-23.43a1,1,0,0,1,.94-1,.94.94,0,0,1,1,.94l.72,23.43a1,1,0,0,1-.94,1Zm959.34-29.62h0a1,1,0,0,1-.93-1l1.09-23.41a1,1,0,0,1,1-.93,1,1,0,0,1,.93,1l-1.09,23.41A1,1,0,0,1,1449.14,688.8Zm-960.8-17.23a1,1,0,0,1-1-.94l-.73-23.43a1,1,0,1,1,2-.06l.72,23.43a1,1,0,0,1-.94,1Zm963-29.59h0a1,1,0,0,1-.93-1l1.09-23.42a1,1,0,0,1,1-.93,1,1,0,0,1,.92,1l-1.08,23.42A1,1,0,0,1,1451.32,642ZM486.89,624.72a1,1,0,0,1-1-1l-.73-23.42a1,1,0,0,1,.95-1,.94.94,0,0,1,1,.95l.73,23.42a1,1,0,0,1-.95,1Zm966.61-29.57h0a1,1,0,0,1-.93-1l1.09-23.41a1,1,0,1,1,2,.09l-1.09,23.41A1,1,0,0,1,1453.5,595.15ZM485.44,577.87a1,1,0,0,1-1-1l-.72-23.43a1,1,0,0,1,.94-1,1,1,0,0,1,1,.94l.73,23.43a1,1,0,0,1-.95,1Zm970.24-29.54h0a1,1,0,0,1-.93-1l1.09-23.42a1,1,0,1,1,2,.1l-1.09,23.41A1,1,0,0,1,1455.68,548.33ZM484,531a1,1,0,0,1-1-.94l-.72-23.43a1,1,0,0,1,.94-1,1,1,0,0,1,1,.94L485,530a1,1,0,0,1-.94,1Zm973.86-29.51h0a1,1,0,0,1-.93-1l1.09-23.41a1,1,0,1,1,2,.09l-1.09,23.41A1,1,0,0,1,1457.85,501.5ZM482.53,484.16a1,1,0,0,1-1-.94l-.73-23.43a1,1,0,0,1,.95-1,1,1,0,0,1,1,1l.72,23.42a1,1,0,0,1-.94,1ZM1460,454.68h0a1,1,0,0,1-.92-1l1.08-23.41a1,1,0,1,1,1.95.09L1461,453.75A1,1,0,0,1,1460,454.68ZM481.08,437.31a1,1,0,0,1-1-.95l-.73-23.42a1,1,0,0,1,.95-1,1,1,0,0,1,1,.95l.73,23.42a1,1,0,0,1-.95,1Zm981.13-29.45h0a1,1,0,0,1-.93-1l.92-19.74h-1.62a1,1,0,0,1,0-2h3.67l-1,21.79A1,1,0,0,1,1462.21,407.86Zm-982.58-17.4a1,1,0,0,1-1-.95l-.14-4.38h21.07a1,1,0,1,1,0,2H480.53l.08,2.36a1,1,0,0,1-.95,1Zm957.46-3.37h-23.44a1,1,0,0,1,0-2h23.44a1,1,0,1,1,0,2Zm-46.87,0h-23.44a1,1,0,0,1,0-2h23.44a1,1,0,0,1,0,2Zm-46.88,0H1319.9a1,1,0,0,1,0-2h23.44a1,1,0,0,1,0,2Zm-46.87,0H1273a1,1,0,0,1,0-2h23.44a1,1,0,0,1,0,2Zm-46.88,0h-23.44a1,1,0,0,1,0-2h23.44a1,1,0,0,1,0,2Zm-46.87,0h-23.44a1,1,0,0,1,0-2h23.44a1,1,0,0,1,0,2Zm-46.88,0H1132.4a1,1,0,0,1,0-2h23.44a1,1,0,0,1,0,2Zm-46.87,0h-23.44a1,1,0,0,1,0-2H1109a1,1,0,0,1,0,2Zm-46.88,0h-23.44a1,1,0,0,1,0-2h23.44a1,1,0,0,1,0,2Zm-46.87,0H991.78a1,1,0,0,1,0-2h23.44a1,1,0,0,1,0,2Zm-46.88,0H944.9a1,1,0,0,1,0-2h23.44a1,1,0,0,1,0,2Zm-46.87,0H898a1,1,0,0,1,0-2h23.44a1,1,0,0,1,0,2Zm-46.88,0H851.15a1,1,0,0,1,0-2h23.44a1,1,0,1,1,0,2Zm-46.87,0H804.28a1,1,0,0,1,0-2h23.44a1,1,0,0,1,0,2Zm-46.88,0H757.4a1,1,0,0,1,0-2h23.44a1,1,0,1,1,0,2Zm-46.87,0H710.53a1,1,0,0,1,0-2H734a1,1,0,0,1,0,2Zm-46.88,0H663.65a1,1,0,0,1,0-2h23.44a1,1,0,1,1,0,2Zm-46.87,0H616.78a1,1,0,1,1,0-2h23.44a1,1,0,0,1,0,2Zm-46.88,0H569.9a1,1,0,0,1,0-2h23.44a1,1,0,1,1,0,2Zm-46.87,0H523a1,1,0,1,1,0-2h23.44a1,1,0,0,1,0,2Z"/><path class="cls-7" d="M939.93,483.61s13.89,140.63,7.92,188.48l-34.28,363.28h295.9s-16.61-309.57-16.61-333S1188,483.61,1188,483.61l-46.39-23.44-116.69-1.46Z"/><path class="cls-6" d="M1020,460.91l-58.4,16.35S985,594,998.94,608s-2.36,24.42,9.35,36.13S1085,743.87,1085,743.87Z"/><path class="cls-6" d="M1144.52,464.73,1085,743.87s63.34-111.94,68.76-117.35,0-28.33,0-39.07,33.69-104.13,33.69-104.13S1156.64,464.73,1144.52,464.73Z"/><path class="cls-2" d="M1024.9,458.71l-62.5,6.35S985,580,998.94,594s-2.36,24.42,9.35,36.14S1085,743.87,1085,743.87Z"/><path class="cls-2" d="M1141.59,460.17,1085,743.87s63.34-125.93,68.76-131.35,0-28.32,0-39.06S1188,473.85,1188,473.85,1153.71,460.17,1141.59,460.17Z"/><polygon class="cls-6" points="1076.65 1035.37 1084.95 743.87 1083.24 1035.37 1076.65 1035.37"/><rect class="cls-5" x="885.25" y="1074.43" width="222.66" height="23.44"/><polygon class="cls-5" points="1088.86 1206.11 904.29 1206.11 898.43 1097.87 1094.72 1097.87 1088.86 1206.11"/><path class="cls-3" d="M1094.72,1097.87H898.43l5.86,108.24h24.28c2.38-16.84,7.14-34.79,16.25-49.19,16.45-26,97.68-36.25,148.88-40.15Z"/><path class="cls-3" d="M1255.36,1264.7H753.41A58.59,58.59,0,0,1,812,1206.11h384.77a58.59,58.59,0,0,1,58.59,58.59Z"/><path class="cls-8" d="M714,498.22,697,437.17,622,456.39s10.68,33.25,18.14,37.82l30.39,18.59h0l67,132.91,48.21-59.56Z"/><path class="cls-9" d="M1068.34,156.32s57.13-7,81.54,4.66,72.27,58.69,59.57,150c0,0,10.26,3.26,13.19,17.24s3.17,38.89-21,62-64.94,20.5-85.94,20.5-80.08-17.71-95.21-50.31S1068.34,156.32,1068.34,156.32Z"/><path class="cls-9" d="M1096,169.59c-15.32-1.44-28.09,5.6-38.34,17.15-13,38.15-33.71,103.42-38.51,143.7,2.12,16.21,7.47,32.27,15.18,45,1.34,2.22,2.75,4.33,4.21,6.34,20.25,15.93,50,25.55,68.34,28.16,56.95-7.65,73-60.24,71.56-118.21-.39-15.62,10.78-64.25-13.4-95.67C1148.81,174.94,1120.84,167.15,1096,169.59Z"/><path class="cls-10" d="M1039.06,369.35s2.93,39.55,0,57.62-14.16,31.74-14.16,31.74l60,285.16,56.64-283.7s-14.06-8.61-18.06-33.2-3.91-87.89-3.91-87.89Z"/><path class="cls-9" d="M1085,743.87,1129,523c-33.61,3.66-67-.57-91.79-5.67Z"/><path class="cls-9" d="M1129,523l-.93.1c-11,45.12-36.26,145.14-44.86,153.74-8.26,8.26-33.46-101.94-46-159.5h0L1085,743.87Z"/><path class="cls-11" d="M1051.74,364.59c8.62,33.61,29.53,65.17,69.33,54.7.48-.12.94-.27,1.41-.41-2.94-28.1-2.86-79.8-2.86-79.8Z"/><path class="cls-10" d="M1106.91,177.46s34.67-5.37,53.71,22.46,10.26,74.71,10.26,86.43,5.61,96.68-49.81,109.86-74.22-47.36-74.22-84S1060.46,182,1106.91,177.46Z"/><path class="cls-12" d="M1068.61,210.14c-1.95,4.23-3.76,8.72-5.44,13.39a437.89,437.89,0,0,1,58.16-13.35c7.83,27.08,24.36,45.67,51.51,45.67.26-10.82-.29-23-3-34.38C1138,208.46,1101.94,189.85,1068.61,210.14Z"/><path class="cls-10" d="M702.85,440.94c-.67-.82-56.13-53.61-67.1-50.31-18.25,4.76,22.31,35,26.7,40.71a61,61,0,0,1,5.85,9.78c-1.44.41-2.78.78-4,1.07-10.44,2.51-38.32,7.72-42.28,14.2,0,0-.75,36.51,8.84,36.71s19.29-3.31,29.59-2.27c5.14.52,10.43-2,14.44-4.67.64-.43,1.25-.86,1.82-1.28a7.47,7.47,0,0,0-.32,7.51c4.92,10,38.94-7.24,40.41-13.62S710.7,450.61,702.85,440.94Zm-7.79,33a43.92,43.92,0,0,0-13.67,6.16c-1.31-3.45-7.82-21-6.75-28h0c4.74-5,15.08-5.15,20.14-3h0a4.75,4.75,0,0,1,1.42,2.47C697.81,458.23,701.24,472.47,695.06,474Z"/><path class="cls-2" d="M698.72,578.34s79.1,203.12,109.38,218.75S949.32,643.75,949.32,643.75s4.29-160.14-9.39-160.14-69.88,66.86-86,107.07c-16.45,40.91-15.87,61.59-38,21.84-22.58-40.61-62.26-95.16-62.26-95.16C730.87,540.14,698.72,578.34,698.72,578.34Z"/><path class="cls-9" d="M1149.88,161.35s-19.53-2.45-31.25,6.83-37.6,13.67-52.73,85.45-2.93,80.08-2.93,80.08,16.09,33.2-4.65,58.59-61.44,15.8-84.22,2.44C941,375.32,946.86,308,960.81,263.87c2-6.15,2.91-9.8,5.18-15,4.38-9.91,5.83-21.31,12.17-31.73,20.5-33.74,57.84-64.57,123.87-62.91C1102,154.28,1131.82,152.56,1149.88,161.35Z"/><path class="cls-13" d="M967.46,243.48c-4.12,12.37-3.54,10.56-6.65,20.39-.66,2.1-1.31,4.24-1.93,6.44,13-7.5,15.54-9.56,30.37-17.15a448.75,448.75,0,0,1,86.07-33.11q.9-2.4,1.81-4.63C1039,219,1001.16,225.89,967.46,243.48Z"/><path class="cls-5" d="M975.75,218.44c72.45-37.88,121.14-41.3,204.17-35.89v20c-69.71.25-138.6,19.2-196.5,48.72-15.57,8-23.92,13.41-24,13.45Z"/><ellipse class="cls-14" cx="1177.35" cy="195.04" rx="54.87" ry="58.67"/><ellipse class="cls-4" cx="1179.02" cy="195.04" rx="53.19" ry="58.67"/><ellipse class="cls-3" cx="1177.35" cy="195.04" rx="54.87" ry="58.67"/><ellipse class="cls-6" cx="1179.02" cy="195.04" rx="53.19" ry="58.67"/><path class="cls-4" d="M1158.72,183.84c0-19.49,8.62-36.77,21.89-47.44l-1.59,0c-29.38,0-53.19,26.26-53.19,58.66s23.81,58.67,53.19,58.67a49.7,49.7,0,0,0,31.29-11.23C1181.67,241.55,1158.72,215.66,1158.72,183.84Z"/><path class="cls-5" d="M1187.82,192.56c0,4.81-3.54,8.71-7.9,8.71s-7.9-3.9-7.9-8.71,3.54-8.72,7.9-8.72S1187.82,187.74,1187.82,192.56Z"/><path class="cls-3" d="M564.77,461.15a3.66,3.66,0,0,1-3-5.75L700.9,253.77a3.67,3.67,0,0,1,6,4.16L567.79,459.57A3.66,3.66,0,0,1,564.77,461.15Z"/><path class="cls-3" d="M326,715.31a3.67,3.67,0,0,1-2.68-6.18L554.3,462.23a3.67,3.67,0,1,1,5.36,5L328.71,714.14A3.63,3.63,0,0,1,326,715.31Z"/><path class="cls-3" d="M557,468.4a3.58,3.58,0,0,1-2.13-.69L369.08,334.56a3.67,3.67,0,0,1,4.28-6L559.12,461.75A3.67,3.67,0,0,1,557,468.4Z"/><path class="cls-3" d="M656.06,893.29a3.68,3.68,0,0,1-3.57-2.84L553.41,465.57a3.67,3.67,0,1,1,7.14-1.67l99.08,424.89a3.66,3.66,0,0,1-2.74,4.4A4,4,0,0,1,656.06,893.29Z"/><circle class="cls-3" cx="556.98" cy="464.73" r="41.25" transform="translate(-35.14 883.77) rotate(-75.13)"/><path class="cls-15" d="M583.27,462.7A26.29,26.29,0,1,1,557,436.41,26.29,26.29,0,0,1,583.27,462.7Z"/><rect class="cls-7" x="168.01" y="238.56" width="214.05" height="186.06" rx="19.09"/><path class="cls-3" d="M371.44,240.53a19,19,0,0,1,2,8.46V396.87A19.09,19.09,0,0,1,354.32,416H178.45a19,19,0,0,1-8.46-2,19.08,19.08,0,0,0,17.11,10.63H363a19.09,19.09,0,0,0,19.09-19.09V257.65A19.11,19.11,0,0,0,371.44,240.53Z"/><rect class="cls-7" x="168.01" y="604.89" width="214.05" height="186.06" rx="19.09"/><path class="cls-3" d="M371.44,606.87a19,19,0,0,1,2,8.46V763.2a19.09,19.09,0,0,1-19.09,19.09H178.45a18.91,18.91,0,0,1-8.46-2A19.09,19.09,0,0,0,187.1,791H363a19.09,19.09,0,0,0,19.09-19.09V624A19.1,19.1,0,0,0,371.44,606.87Z"/><rect class="cls-7" x="573.05" y="102.02" width="244.23" height="186.06" rx="20.39" transform="translate(1390.33 390.09) rotate(180)"/><path class="cls-3" d="M585.18,104a17.12,17.12,0,0,0-2.25,8.46V260.33c0,10.54,9.75,19.09,21.78,19.09H805.37a24.31,24.31,0,0,0,9.66-2c-3.56,6.3-11,10.63-19.53,10.63H594.83c-12,0-21.78-8.55-21.78-19.09V121.11C573.05,113.6,578,107.11,585.18,104Z"/><rect class="cls-7" x="547.39" y="825.54" width="244.23" height="186.06" rx="20.39" transform="translate(1339.01 1837.14) rotate(180)"/><path class="cls-3" d="M559.52,1009.62a17.12,17.12,0,0,1-2.25-8.46V853.29c0-10.55,9.75-19.09,21.78-19.09H779.71a24.3,24.3,0,0,1,9.66,2c-3.56-6.3-11-10.63-19.53-10.63H569.17c-12,0-21.78,8.55-21.78,19.09V992.51C547.39,1000,552.34,1006.5,559.52,1009.62Z"/><path class="cls-5" d="M245.5,294.33a6.32,6.32,0,1,1-6.32-6.31A6.32,6.32,0,0,1,245.5,294.33Z"/><path class="cls-5" d="M316.32,276.59a4,4,0,1,1-4-4A4,4,0,0,1,316.32,276.59Z"/><path class="cls-5" d="M270.9,390.55A55.06,55.06,0,0,1,230,298.66l1.38-1.54,1,1.8a7.89,7.89,0,0,0,2.51,2.69l1.45.95-1.15,1.29a47.7,47.7,0,1,0,83.25,35.42,19.76,19.76,0,0,1-15.92-19.37v-35l4.27-6.5,1.28,1.62a5.56,5.56,0,0,0,2.87,1.88l2,.54-3.06,4.66V319.9a12.4,12.4,0,0,0,24.79,0V287.17l-3.52-4.75,2-.65a5.49,5.49,0,0,0,2.75-2l1.19-1.69,5,6.7V319.9a19.72,19.72,0,0,1-16.2,19.42A55,55,0,0,1,270.9,390.55Z"/><path class="cls-5" d="M335.37,276.59a4,4,0,1,1-4-4A4,4,0,0,1,335.37,276.59Z"/><polygon class="cls-5" points="293.64 324.33 278.71 324.33 278.71 309.4 262.23 309.4 262.23 324.33 247.3 324.33 247.3 340.81 262.23 340.81 262.23 355.74 278.71 355.74 278.71 340.81 293.64 340.81 293.64 324.33"/><path class="cls-5" d="M732,197.82h-4.76l-9.88-13.62-7.46,30.73-5.75-53.33-15.45,34.75L682,184l-8.65,15.52-11.78-14.41-5.31,26.23-5-45.09L634.3,196.89H593.54a1.85,1.85,0,0,0-1.86,1.85h0a1.86,1.86,0,0,0,1.86,1.86h44.73l9.24-16.7,7.06,63.89L664.83,197l9.46,11.56,7.63-13.69,7.39,13.42,11.45-25.77,7,64.92,12.35-50.88,3.58,4.93h10.83A39.47,39.47,0,0,1,732,197.82Z"/><path class="cls-16" d="M768.09,172.88a24.07,24.07,0,0,1,18.84-8.77c11.15,0,18.83,9,18.83,19.49,0,12.15-10.47,26.51-37.67,39-27.2-12.49-37.67-26.85-37.67-39,0-10.49,7.68-19.49,18.84-19.49A24.06,24.06,0,0,1,768.09,172.88Z"/><path class="cls-17" d="M714.38,949l-96.93-12.4A11.26,11.26,0,0,1,607.72,924l6.56-51.25A11.24,11.24,0,0,1,626.86,863l96.93,12.4A11.25,11.25,0,0,1,733.52,888L727,939.26A11.24,11.24,0,0,1,714.38,949Z"/><path class="cls-5" d="M655.23,882.72l-2.64-6a4.8,4.8,0,0,0-4.37-2.84H603.49a4.77,4.77,0,0,0-4.77,4.78v30.37h.08v57.25a4.76,4.76,0,0,0,4.77,4.77H735.52a4.77,4.77,0,0,0,4.78-4.77v-76a4.77,4.77,0,0,0-4.78-4.77H659.6A4.8,4.8,0,0,1,655.23,882.72Z"/><path class="cls-4" d="M698.34,929.27A26.36,26.36,0,1,1,672,902.91,26.36,26.36,0,0,1,698.34,929.27Z"/><polygon class="cls-16" points="692.52 922.08 679.28 922.08 679.28 908.84 664.67 908.84 664.67 922.08 651.44 922.08 651.44 936.69 664.67 936.69 664.67 949.92 679.28 949.92 679.28 936.69 692.52 936.69 692.52 922.08"/><circle class="cls-16" cx="264.62" cy="669.04" r="13.1" transform="translate(-395.58 383.07) rotate(-45)"/><rect class="cls-5" x="284.58" y="686.34" width="18.98" height="18.27" transform="translate(588.13 1390.95) rotate(180)"/><rect class="cls-5" x="287.38" y="705.67" width="13.37" height="5.13" transform="translate(588.13 1416.48) rotate(180)"/><path class="cls-5" d="M282.47,671.18A19.91,19.91,0,0,0,279.06,660v-12.6a5.49,5.49,0,0,0,5.49-5.49v-10h19v10a5.49,5.49,0,0,0,5.49,5.49v32.42A5.12,5.12,0,0,1,304,685H284.18a5.12,5.12,0,0,1-4.75-3.2A19.82,19.82,0,0,0,282.47,671.18Z"/><rect class="cls-5" x="279.99" y="625.2" width="28.15" height="6.73" transform="translate(588.13 1257.12) rotate(180)"/><path class="cls-5" d="M242.59,669.27c-.06.63-.1,1.27-.1,1.91a20,20,0,0,0,15.8,19.54,17.28,17.28,0,0,0-6.24,8.07c-2.2,5.85-1.15,12.44,1.52,18a37.1,37.1,0,0,0,14.95,15.5l-2.37,8.34C233.36,731.27,219.43,694.89,242.59,669.27Z"/><rect class="cls-5" x="250.9" y="731.96" width="27.44" height="18.41" transform="translate(529.24 1482.34) rotate(180)"/><path class="cls-5" d="M228,750.38H329.87a0,0,0,0,1,0,0v3a6.79,6.79,0,0,1-6.79,6.79h-88.3a6.79,6.79,0,0,1-6.79-6.79v-3A0,0,0,0,1,228,750.38Z" transform="translate(557.87 1510.59) rotate(180)"/><rect class="cls-18" x="268.01" y="717.15" width="52.41" height="9.21" transform="translate(588.44 1443.51) rotate(180)"/><path class="cls-2" d="M1187.4,483.32s-10.06,111.62,5.14,196.63c3.82,21.35,62.79,30.84,95,55.09,53.7,40.43,91.13,95,100.68,116.68,21.77-9.82,21.63-107.85,9.72-146.79C1385,679.05,1187.4,483.32,1187.4,483.32Z"/><polygon class="cls-9" points="1501.02 623.96 1293.29 598.84 1163.16 846.76 1331.64 846.76 1501.02 623.96"/><path class="cls-19" d="M1331.64,846.76,1501,624l-207.73-25.12-3.71,7.07c32.47,8.5,95.31,28.43,104.63,57.29,10,30.81-62.55,138.84-94,183.56Z"/><polygon class="cls-3" points="1285.65 587.56 1153.24 842.33 1163.16 846.76 1293.29 598.84 1501.02 623.96 1488.36 614.04 1285.65 587.56"/><polygon class="cls-10" points="1654.71 582.07 1666.35 626.5 1703.74 612.01 1697.02 572.67 1654.71 582.07"/><path class="cls-10" d="M1487.66,481.39c-3.22-4.59-25.13-32.68-28.86-30.07s9.75,21.51,11.76,24.38c0,0-7.7-.6-11.49,8-2.54,5.79,13.43,33.36,20.13,44.31,5.84-1.83,14.48-8.82,14.18-14.85C1493.39,501.84,1490.12,484.91,1487.66,481.39Z"/><path class="cls-11" d="M1687.38,574.81l-32.67,7.26,4.24,16.19c8.18-1.44,16.73-5.88,21.85-14.68A101.21,101.21,0,0,1,1687.38,574.81Z"/><polygon class="cls-10" points="1643.77 1247.98 1639.28 1273.44 1619.25 1274.87 1622.66 1230.25 1643.77 1247.98"/><path class="cls-9" d="M1642.76,1269.52s-18.52.33-22.57-2.87-8.35,3-14.9,11.28-31,7.29-34,13.83c-2.26,5,70.29,3.49,74,3.39C1647.85,1295.07,1642.76,1269.52,1642.76,1269.52Z"/><polygon class="cls-10" points="1698.16 1244 1693.67 1269.46 1673.63 1270.89 1677.05 1226.27 1698.16 1244"/><path class="cls-9" d="M1697.15,1265.54s-18.52.33-22.58-2.87-8.34,3-14.89,11.28-29.66,9.5-32.92,15.9,69.69,5.37,71.3,3.34S1697.15,1265.54,1697.15,1265.54Z"/><path class="cls-20" d="M1655.74,897.68l2.1,182.18L1672,1257l26.58,4.54s22.13-313,45-347.54-3.05-91.57-3.16-91.67h0Z"/><path class="cls-3" d="M1731.09,907.79c9.85-14.87,17.12-34.59,15.3-57-.59-7.27-12.26-15.33-13.73-21.47l-76.92,68.4,2.1,182.18,7.9,98.67c14.18-85,40.53-207,45.82-242C1713.81,933.4,1721.34,922.51,1731.09,907.79Z"/><path class="cls-3" d="M1625.18,812.55s-13.51,166.24-14.6,221.8c-1.11,56.77,6,227.06,6,227.06l31.29.14s46.47-277,54.23-328.8c0,0-4.43,7.46,18.47-27.12s6.13-83.19,6-83.29l-40.69,15.18Z"/><path class="cls-21" d="M1766.25,731.88l-28.88,48.47L1750,809.21s76.64-60.29,70-76.81c-5.54-13.92-82.14-96.15-102.83-118.73a13.85,13.85,0,0,0-14.79-3.73l-35.53,12.31S1769.38,721.21,1766.25,731.88Z"/><path class="cls-16" d="M1635.73,609.39s-9.11,233.86-32.44,281.28c0,0,105.88-15.61,154.47-15.6,0,0-1.15-198.09-24.63-242S1658.58,597.17,1635.73,609.39Z"/><path class="cls-21" d="M1689.26,695.59c22.66-12,29.94-28.68,30.37-49.86.32-15.4-51.37-7.35-85.36-5.23-.62,12-1.46,26.85-2.51,43.28C1644.8,698.09,1672.87,704.3,1689.26,695.59Z"/><path class="cls-16" d="M1516.18,619.24s73.3,62.83,131.74,60.47,66.09-16.41,71.11-32-28.29-36.94-61.7-43.35-93-5.76-102.13-14.21-56.15-71.87-60.12-82.91l-28.34,12.06Z"/><path class="cls-10" d="M1669.92,509.69s-9.93,4.9-18.36,17.43a84.62,84.62,0,0,1-17.51,19.25l4,6.39s-9,6.52-8.17,16.44c1.91,21.84,35.68,25.68,52.49,13,4.57-3.44,18.74-7.76,23.38-15.54C1718.13,545.82,1714.48,513.77,1669.92,509.69Z"/><path class="cls-9" d="M1686.46,556.41s-11.23-20.8-5.93-35.44c0,0-12.3-.24-22.16-5.82-17.79-10,3.84-47.49,30.56-20.8,0,0-2.29-18.1,16.64-14.87s25.85,10.78,22.43,28.76,4.43,10,10.19,20.51S1713.6,577,1699.4,578.37l-14.2,1.39s20.28-11.36,14.59-20S1686.46,556.41,1686.46,556.41Z"/><path class="cls-10" d="M1248.19,761.18c3.78-3,35.41,16.63,53.58,28.38,0-.25.07-.49.11-.73-17.1-12.69-47-27.83-40.18-32.18,3.51-2.23,78.64,28,78.65,28.05,7.91,3.58,8.27,3.92,16.43,7.53-1.93-4.71-21.59-36.72-8.33-35.15l43.89,57.38c7.44,12.21,7.18,19.61,5.33,26-2.27,7.83-13.28,28.84-31.21,33.06-17.27,4.07-64.09-22.37-71.42-29.22-7.87-6.78-61.55-53.7-53-66.77,0,0,44.75,43.69,49.5,38.27.28-1.25-44.25-30.82-47.73-42.37-2.5-8.27,36.44,16.94,53.5,29.57C1282,790.42,1245.59,763.26,1248.19,761.18Z"/><rect class="cls-3" x="240.68" y="835.31" width="246.83" height="459.11" rx="54.52"/><path class="cls-3" d="M433,835.31h-7a54.52,54.52,0,0,1,54.52,54.52v350.06A54.52,54.52,0,0,1,426,1294.42h7a54.52,54.52,0,0,0,54.52-54.53V889.83A54.52,54.52,0,0,0,433,835.31Z"/><rect class="cls-7" x="141.55" y="948.45" width="445.09" height="232.82" rx="47.52" transform="translate(1428.96 700.77) rotate(90)"/><path class="cls-5" d="M389.28,866.73H342.89a2.56,2.56,0,0,1,0-5.12h46.39a2.56,2.56,0,0,1,0,5.12Z"/><path class="cls-5" d="M394,883.76H338.18a2.81,2.81,0,1,1,0-5.61H394a2.81,2.81,0,1,1,0,5.61Z"/><path class="cls-5" d="M322.68,881a3.86,3.86,0,1,1-3.85-3.85A3.85,3.85,0,0,1,322.68,881Z"/><circle class="cls-6" cx="364.1" cy="1257.47" r="21.02"/><circle class="cls-2" cx="360.64" cy="1257.47" r="21.02"/><rect class="cls-6" x="260.67" y="918.73" width="206.01" height="305.63" rx="11.19"/><rect class="cls-18" x="216.34" y="973.21" width="294.68" height="196.67" rx="6.13" transform="translate(1435.22 707.87) rotate(90)"/><path class="cls-7" d="M456.35,924.21H271c-3.12,0-5.66,3-5.66,6.64v42.66H462V930.85C462,927.19,459.47,924.21,456.35,924.21Z"/><rect class="cls-5" x="311.28" y="982.57" width="111.8" height="7.52"/><polygon class="cls-5" points="284.93 986.33 295.49 993.49 295.49 979.18 284.93 986.33"/><polygon class="cls-5" points="441.7 986.33 431.14 993.49 431.14 979.18 441.7 986.33"/><rect class="cls-5" x="271.41" y="936.81" width="66.77" height="23" rx="9.1"/><rect class="cls-5" x="431.12" y="936.81" width="21.18" height="23" rx="4.68"/><rect class="cls-18" x="440.01" y="940.57" width="3.39" height="14.92"/><rect class="cls-18" x="439.72" y="941.67" width="3.97" height="12.73" transform="translate(-506.33 1389.74) rotate(-90)"/><rect class="cls-2" x="275.15" y="1020.44" width="21.75" height="188.1"/><rect class="cls-2" x="301.26" y="1020.44" width="21.75" height="188.1"/><rect class="cls-2" x="327.56" y="1020.44" width="21.75" height="188.1"/><rect class="cls-2" x="353.87" y="1020.44" width="21.75" height="188.1"/><rect class="cls-2" x="380.17" y="1020.44" width="21.75" height="188.1"/><rect class="cls-2" x="406.48" y="1020.44" width="21.75" height="188.1"/><rect class="cls-2" x="432.78" y="1020.44" width="21.75" height="188.1"/><rect class="cls-5" x="275.15" y="998.87" width="21.75" height="14.29"/><rect class="cls-5" x="301.26" y="998.87" width="21.75" height="14.29"/><rect class="cls-5" x="327.56" y="998.87" width="21.75" height="14.29"/><rect class="cls-5" x="353.87" y="998.87" width="21.75" height="14.29"/><rect class="cls-5" x="380.17" y="998.87" width="21.75" height="14.29"/><rect class="cls-16" x="406.48" y="998.87" width="21.75" height="14.29"/><rect class="cls-16" x="432.78" y="998.87" width="21.75" height="14.29"/><rect class="cls-18" x="271.41" y="1042.12" width="185.33" height="4.67"/><rect class="cls-18" x="271.41" y="1070.19" width="185.33" height="4.67"/><rect class="cls-18" x="271.41" y="1098.26" width="185.33" height="4.67"/><rect class="cls-18" x="271.41" y="1126.33" width="185.33" height="4.67"/><rect class="cls-18" x="271.41" y="1154.4" width="185.33" height="4.67"/><rect class="cls-18" x="271.01" y="1182.47" width="185.33" height="4.67"/><path class="cls-16" d="M361.2,1076.58l-17.85-7.68,22.36,27.37c4.51-10.1,14.47-32.46,19.1-42.84Z"/><path class="cls-22" d="M1004.43,639.36c-1.47-1.52-37.3-36-29.66-60.14,3-9.41,8.46-13.1,14.28-15.85,5.43-2,18.09-4,24.63.08,11.94,7.51,18,28.27,19.73,62.8l-1.46.07c-2.1-41-12.66-55.78-20.54-59.12-9.92-4.2-27.32-2.46-32.79,13.4-3.77,10.93,3.63,26.21,10.49,36.7,7.62,11.65,15.93,22,16,22.06Z"/><path class="cls-23" d="M1008.15,643.09h0a3.54,3.54,0,0,1-5,0l-2.45-2.46a3.54,3.54,0,0,1,0-5h0a3.54,3.54,0,0,1,5,0l2.45,2.45A3.54,3.54,0,0,1,1008.15,643.09Z"/><path class="cls-23" d="M1032.81,632.84h0a3.54,3.54,0,0,1-3.53-3.53v-3.47a3.54,3.54,0,0,1,3.53-3.53h0a3.54,3.54,0,0,1,3.53,3.53v3.47A3.54,3.54,0,0,1,1032.81,632.84Z"/><path class="cls-22" d="M989.21,567.2c-4-8.73-38.78-83.12-29.91-102.05l3.4-.42c-6.71,14.34,17.43,79,27.91,102.17Z"/><path class="cls-22" d="M1207.72,560.08c-1.79-32.6-19.58-85.72-19.74-86.23l5.08,2.25c.64,2.12,14.78,50.61,16.6,83.91Z"/><path class="cls-22" d="M1196.69,560.08a11.63,11.63,0,1,1,11.63,11.63A11.63,11.63,0,0,1,1196.69,560.08Z"/><path class="cls-24" d="M1202.84,560.08a5.91,5.91,0,1,1,5.91,5.92A5.92,5.92,0,0,1,1202.84,560.08Z"/></g></g></svg>