<svg xmlns="http://www.w3.org/2000/svg" viewBox="0 0 423.57 371.49"><defs><style>.cls-1{fill:#eaeefc;}.cls-2{fill:#dde4f7;}.cls-3{fill:#fdf5f7;}.cls-4{fill:#fff;}.cls-5{fill:#063760;}.cls-6{fill:#b3c3e7;}.cls-7{fill:#608dce;}.cls-8{fill:#072f48;}.cls-9{opacity:0.18;}.cls-10{fill:#f9aab0;}.cls-11{fill:#f97384;}.cls-12{fill:#fde7ea;}.cls-13{fill:#96eef7;}.cls-14{fill:#e25d73;}</style></defs><title>Hospitality</title><g id="OBJECTS"><ellipse class="cls-1" cx="194.38" cy="351.51" rx="58.83" ry="19.99"/><ellipse class="cls-2" cx="136.7" cy="316.76" rx="85.23" ry="14.76"/><ellipse class="cls-2" cx="250.7" cy="331.5" rx="85.23" ry="20.84"/><path class="cls-3" d="M290.25,41.68a9.77,9.77,0,0,0-12.32-6.52l-.34.13a10.66,10.66,0,0,0-.45-2.65,9.84,9.84,0,0,0-9.35-7,10.34,10.34,0,0,0-.46-3A9.78,9.78,0,0,0,255,16.09a9.67,9.67,0,0,0-4.47,3.05,9.75,9.75,0,0,0-12-5.69,10,10,0,0,0-6.82,9.81h-.2a8.31,8.31,0,0,0-10.11-4.52,8.54,8.54,0,0,0-5.81,7.56,12.22,12.22,0,0,0-3.84.61,12.68,12.68,0,0,0-7.89,7.54,12.44,12.44,0,0,0-13.5-4A12.64,12.64,0,0,0,183.4,36a8.22,8.22,0,0,0-6.85-.83,8.62,8.62,0,0,0-5.44,10.76,8.34,8.34,0,0,0,10.52,5.56A8.44,8.44,0,0,0,184,50.23a12.93,12.93,0,0,0,1.76,2,8.73,8.73,0,0,0,.21,4.38,8.33,8.33,0,0,0,10.52,5.56,3.47,3.47,0,0,0,.41-.16,12.45,12.45,0,0,0,19.25,5.32,8.33,8.33,0,0,0,10.32,5c.21-.07.4-.15.6-.23a8.68,8.68,0,0,0,.37,3.33,8.29,8.29,0,0,0,14.4,2.89,2,2,0,0,0,.06.23,8.34,8.34,0,0,0,10.51,5.56,8.6,8.6,0,0,0,5.45-10.75c-.08-.23-.16-.46-.25-.68A8.2,8.2,0,0,0,265,73.88a8.57,8.57,0,0,0,5.69-9.69,9.6,9.6,0,0,0,6,0,10,10,0,0,0,6.82-9.85l.38-.1A10.07,10.07,0,0,0,290.25,41.68Z"/><path class="cls-3" d="M159.28,73c-2.19-6.41-9.55-10-16.43-7.91-.15,0-.3.1-.45.15a11.41,11.41,0,0,0-.59-3.22c-2.19-6.41-9.54-10-16.42-7.92a12.41,12.41,0,0,0-9,10.4c-.34.08-.69.16-1,.27-.13,0-.25.08-.37.12A17.55,17.55,0,0,0,91.86,59.3a10.69,10.69,0,0,0-.36-1.43c-1.87-5.47-8.14-8.5-14-6.75a11.12,11.12,0,0,0-2.1.85,11.54,11.54,0,0,0-12.89-4.5,10.67,10.67,0,0,0-7.57,7.93,18,18,0,0,0-8.22.46,16.87,16.87,0,0,0-7.53,4.6,17.77,17.77,0,0,0-13-1.15,16.55,16.55,0,0,0-9.22,6.76,11.83,11.83,0,0,0-9.13-1C1.91,66.8-1.34,72.65.53,78.13a10.79,10.79,0,0,0,7,6.67A9.81,9.81,0,0,0,5.8,94.21c1.81,5.31,7.77,8.31,13.49,6.89a11.5,11.5,0,0,0-1.68,10.57c2.19,6.41,9.55,10,16.43,7.92,6.34-1.89,10.06-7.87,8.88-13.82a17.8,17.8,0,0,0,12.51.89,17.2,17.2,0,0,0,5.09-2.47c2.13,5,8.12,7.76,13.74,6.1.28-.09.54-.19.81-.29a9.65,9.65,0,0,0,.48,4.06c1.87,5.47,8.15,8.5,14,6.76a11.19,11.19,0,0,0,5.17-3.25c0,.09.05.18.08.28,1.87,5.47,8.14,8.5,14,6.75s9.11-7.59,7.25-13.06c-.1-.28-.21-.55-.33-.82a11.8,11.8,0,0,0,9.83,1.44,10.35,10.35,0,0,0,7.59-11.78,13.82,13.82,0,0,0,8,0,12.29,12.29,0,0,0,9.1-12c.16,0,.33-.07.49-.12C157.66,86.29,161.47,79.44,159.28,73Z"/><path class="cls-2" d="M232.15,221.42S257,119.37,255.7,56.19h6.47c-.13,55.74,14.48,112.73,32.31,164Z"/><ellipse class="cls-2" cx="258.43" cy="58.25" rx="45.34" ry="9.12"/><ellipse class="cls-2" cx="258.43" cy="41.05" rx="37.13" ry="8.07"/><path class="cls-2" d="M284.72,27c0,3.27-11.77,5.93-26.29,5.93S232.15,30.31,232.15,27s11.77-5.94,26.28-5.94S284.72,23.76,284.72,27Z"/><ellipse class="cls-4" cx="235.22" cy="41.17" rx="1.92" ry="1.93"/><ellipse class="cls-4" cx="242.96" cy="41.17" rx="1.92" ry="1.93"/><ellipse class="cls-4" cx="250.7" cy="41.17" rx="1.92" ry="1.93"/><ellipse class="cls-4" cx="258.44" cy="41.17" rx="1.92" ry="1.93"/><path class="cls-4" d="M268.1,41.17a1.93,1.93,0,1,1-1.93-1.94A1.92,1.92,0,0,1,268.1,41.17Z"/><ellipse class="cls-4" cx="273.91" cy="41.17" rx="1.92" ry="1.93"/><path class="cls-4" d="M283.57,41.17a1.93,1.93,0,1,1-1.92-1.94A1.92,1.92,0,0,1,283.57,41.17Z"/><polygon class="cls-2" points="261.34 25.9 259.42 0 255.53 25.9 261.34 25.9"/><rect class="cls-2" x="60.15" y="85.97" width="63.79" height="179.43"/><rect class="cls-4" x="69.68" y="101.94" width="12.4" height="19.76"/><rect class="cls-4" x="85.92" y="101.94" width="12.4" height="19.76"/><rect class="cls-4" x="102.16" y="101.94" width="12.4" height="19.76"/><rect class="cls-4" x="69.68" y="132.48" width="12.4" height="19.76"/><rect class="cls-4" x="85.92" y="132.48" width="12.4" height="19.76"/><rect class="cls-4" x="102.16" y="132.48" width="12.4" height="19.76"/><rect class="cls-4" x="69.68" y="163.01" width="12.4" height="19.76"/><rect class="cls-4" x="85.92" y="163.01" width="12.4" height="19.76"/><rect class="cls-4" x="102.16" y="163.01" width="12.4" height="19.76"/><rect class="cls-4" x="69.68" y="193.54" width="12.4" height="19.76"/><rect class="cls-4" x="85.92" y="193.54" width="12.4" height="19.76"/><rect class="cls-4" x="102.16" y="193.54" width="12.4" height="19.76"/><rect class="cls-4" x="69.68" y="224.08" width="12.4" height="19.76"/><rect class="cls-4" x="85.92" y="224.08" width="12.4" height="19.76"/><rect class="cls-4" x="102.16" y="224.08" width="12.4" height="19.76"/><polygon class="cls-2" points="60.16 85.97 75.37 76.53 112.99 76.53 123.95 85.97 60.16 85.97"/><rect class="cls-2" x="265.57" y="118.94" width="80.18" height="178.07"/><rect class="cls-4" x="275.1" y="134.79" width="12.4" height="19.61"/><rect class="cls-4" x="291.34" y="134.79" width="12.4" height="19.61"/><rect class="cls-4" x="307.58" y="134.79" width="12.4" height="19.61"/><rect class="cls-4" x="323.82" y="134.79" width="12.4" height="19.61"/><rect class="cls-4" x="275.1" y="165.09" width="12.4" height="19.61"/><rect class="cls-4" x="291.34" y="165.09" width="12.4" height="19.61"/><rect class="cls-4" x="307.58" y="165.09" width="12.4" height="19.61"/><rect class="cls-4" x="323.82" y="165.09" width="12.4" height="19.61"/><rect class="cls-4" x="275.1" y="195.39" width="12.4" height="19.61"/><rect class="cls-4" x="291.34" y="195.39" width="12.4" height="19.61"/><rect class="cls-4" x="307.58" y="195.39" width="12.4" height="19.61"/><rect class="cls-4" x="323.82" y="195.39" width="12.4" height="19.61"/><rect class="cls-4" x="275.1" y="225.7" width="12.4" height="19.61"/><rect class="cls-4" x="291.34" y="225.7" width="12.4" height="19.61"/><rect class="cls-4" x="307.58" y="225.7" width="12.4" height="19.61"/><rect class="cls-4" x="323.82" y="225.7" width="12.4" height="19.61"/><rect class="cls-4" x="275.1" y="256" width="12.4" height="19.61"/><rect class="cls-4" x="291.34" y="256" width="12.4" height="19.61"/><rect class="cls-4" x="307.58" y="256" width="12.4" height="19.61"/><rect class="cls-4" x="323.82" y="256" width="12.4" height="19.61"/><polygon class="cls-5" points="103.83 298.31 106.84 317.9 276.14 317.9 279.38 298.31 103.83 298.31"/><polygon class="cls-6" points="279.38 298.31 218.5 298.31 210.43 157.23 301.76 157.23 279.38 298.31"/><rect class="cls-5" x="266.47" y="168.41" width="13.67" height="15.83"/><path class="cls-4" d="M280.71,184.81H265.9v-17h14.81ZM267,183.67h12.52V169H267Z"/><rect class="cls-5" x="246.72" y="168.41" width="13.67" height="15.83"/><path class="cls-4" d="M261,184.81H246.15v-17H261Zm-13.67-1.14h12.53V169H247.29Z"/><rect class="cls-5" x="266.47" y="189.58" width="13.67" height="15.83"/><path class="cls-4" d="M280.71,206H265.9V189h14.81ZM267,204.84h12.52V190.16H267Z"/><rect class="cls-5" x="246.72" y="189.58" width="13.67" height="15.83"/><path class="cls-4" d="M261,206H246.15V189H261Zm-13.67-1.15h12.53V190.16H247.29Z"/><rect class="cls-5" x="266.47" y="210.76" width="13.67" height="15.83"/><path class="cls-4" d="M280.71,227.16H265.9v-17h14.81ZM267,226h12.52V211.33H267Z"/><rect class="cls-5" x="246.72" y="210.76" width="13.67" height="15.83"/><path class="cls-4" d="M261,227.16H246.15v-17H261ZM247.29,226h12.53V211.33H247.29Z"/><rect class="cls-5" x="266.47" y="231.94" width="13.67" height="15.83"/><path class="cls-4" d="M280.71,248.34H265.9v-17h14.81ZM267,247.2h12.52V232.51H267Z"/><rect class="cls-5" x="246.72" y="231.94" width="13.67" height="15.83"/><path class="cls-4" d="M261,248.34H246.15v-17H261Zm-13.67-1.14h12.53V232.51H247.29Z"/><rect class="cls-5" x="266.47" y="253.11" width="13.67" height="15.83"/><path class="cls-4" d="M280.71,269.52H265.9v-17h14.81ZM267,268.37h12.52V253.68H267Z"/><rect class="cls-5" x="246.72" y="253.11" width="13.67" height="15.83"/><path class="cls-4" d="M261,269.52H246.15v-17H261Zm-13.67-1.15h12.53V253.68H247.29Z"/><rect class="cls-4" x="266.47" y="178.53" width="13.67" height="0.64"/><rect class="cls-4" x="266.47" y="199.4" width="13.67" height="0.64"/><rect class="cls-4" x="266.47" y="220.92" width="13.67" height="0.64"/><rect class="cls-4" x="266.47" y="242.11" width="13.67" height="0.64"/><rect class="cls-4" x="266.47" y="263.62" width="13.67" height="0.64"/><rect class="cls-4" x="246.72" y="263.62" width="13.67" height="0.64"/><rect class="cls-4" x="246.37" y="242.11" width="13.67" height="0.64"/><rect class="cls-4" x="246.37" y="220.9" width="13.67" height="0.64"/><rect class="cls-4" x="246.37" y="199.72" width="13.67" height="0.64"/><rect class="cls-4" x="246.37" y="178.55" width="13.67" height="0.64"/><polygon class="cls-6" points="156.64 298.31 103.83 298.31 89.15 160.71 166.23 160.71 156.64 298.31"/><rect class="cls-5" x="126.92" y="170.96" width="13.67" height="15.83"/><path class="cls-4" d="M141.17,187.37H126.35v-17h14.82Zm-13.67-1.15H140V171.54H127.5Z"/><rect class="cls-5" x="107.18" y="170.96" width="13.67" height="15.83"/><path class="cls-4" d="M121.42,187.37H106.6v-17h14.82Zm-13.67-1.15h12.52V171.54H107.75Z"/><rect class="cls-5" x="126.92" y="192.14" width="13.67" height="15.83"/><path class="cls-4" d="M141.17,208.55H126.35v-17h14.82ZM127.5,207.4H140V192.71H127.5Z"/><rect class="cls-5" x="107.18" y="192.14" width="13.67" height="15.83"/><path class="cls-4" d="M121.42,208.55H106.6v-17h14.82Zm-13.67-1.15h12.52V192.71H107.75Z"/><rect class="cls-5" x="126.92" y="213.32" width="13.67" height="15.83"/><path class="cls-4" d="M141.17,229.72H126.35v-17h14.82Zm-13.67-1.14H140V213.89H127.5Z"/><rect class="cls-5" x="107.18" y="213.32" width="13.67" height="15.83"/><path class="cls-4" d="M121.42,229.72H106.6v-17h14.82Zm-13.67-1.14h12.52V213.89H107.75Z"/><rect class="cls-5" x="126.92" y="234.49" width="13.67" height="15.83"/><path class="cls-4" d="M141.17,250.9H126.35v-17h14.82Zm-13.67-1.15H140V235.07H127.5Z"/><rect class="cls-5" x="107.18" y="234.49" width="13.67" height="15.83"/><path class="cls-4" d="M121.42,250.9H106.6v-17h14.82Zm-13.67-1.15h12.52V235.07H107.75Z"/><rect class="cls-5" x="126.92" y="255.67" width="13.67" height="15.83"/><path class="cls-4" d="M141.17,272.08H126.35v-17h14.82Zm-13.67-1.15H140V256.24H127.5Z"/><rect class="cls-5" x="107.18" y="255.67" width="13.67" height="15.83"/><path class="cls-4" d="M121.42,272.08H106.6v-17h14.82Zm-13.67-1.15h12.52V256.24H107.75Z"/><rect class="cls-4" x="126.92" y="181.09" width="13.67" height="0.64"/><rect class="cls-4" x="126.92" y="201.96" width="13.67" height="0.64"/><rect class="cls-4" x="126.92" y="223.47" width="13.67" height="0.64"/><rect class="cls-4" x="126.92" y="244.67" width="13.67" height="0.64"/><rect class="cls-4" x="126.92" y="266.18" width="13.67" height="0.64"/><rect class="cls-4" x="107.18" y="266.18" width="13.67" height="0.64"/><rect class="cls-4" x="106.83" y="244.67" width="13.67" height="0.64"/><rect class="cls-4" x="106.83" y="223.46" width="13.67" height="0.64"/><rect class="cls-4" x="106.83" y="202.28" width="13.67" height="0.64"/><rect class="cls-4" x="106.83" y="181.1" width="13.67" height="0.64"/><polygon class="cls-7" points="242.38 298.31 142.5 298.31 132.25 121.86 254.87 121.86 242.38 298.31"/><polygon class="cls-5" points="236.91 153.4 151.55 157.23 147.09 139.74 240.03 139.74 236.91 153.4"/><path class="cls-4" d="M151.11,157.82l-4.75-18.65h94.39L237.37,154Zm-3.28-17.51L152,156.64l84.46-3.79,2.87-12.54Z"/><polygon class="cls-5" points="236.91 210.73 151.55 214.56 147.09 197.07 240.03 197.07 236.91 210.73"/><path class="cls-4" d="M151.11,215.15l-4.75-18.65h94.39l-3.38,14.79-.43,0Zm-3.28-17.51L152,214l84.46-3.79,2.87-12.54Z"/><polygon class="cls-5" points="150.21 182.07 235.58 185.89 240.03 168.41 147.09 168.41 150.21 182.07"/><path class="cls-4" d="M236,186.49l-86.26-3.87-3.37-14.79h94.39Zm-85.34-5,84.47,3.78L239.3,169H147.81Z"/><polygon class="cls-5" points="150.21 241.43 235.58 245.26 240.03 227.77 147.09 227.77 150.21 241.43"/><path class="cls-4" d="M236,245.85l-.46,0L149.75,242l-3.37-14.78h94.39Zm-85.34-5,84.47,3.78,4.16-16.32H147.81Z"/><rect class="cls-5" x="158.24" y="266.95" width="68.87" height="31.36"/><path class="cls-6" d="M228.38,299.58H157v-33.9h71.41ZM159.51,297h66.33V268.22H159.51Z"/><rect class="cls-6" x="156.98" y="298.31" width="71.4" height="6.53"/><rect class="cls-6" x="153.01" y="304.84" width="79.36" height="6.53"/><rect class="cls-6" x="149.53" y="311.37" width="86.32" height="6.53"/><rect class="cls-6" x="190.52" y="267.58" width="2.79" height="29.56"/><polygon class="cls-8" points="234.76 121.86 153.01 121.86 149.53 105.51 235.86 100.87 234.76 121.86"/><g class="cls-9"><polygon class="cls-6" points="167.82 297.41 173.07 267.85 182.67 267.85 175.24 297.41 167.82 297.41"/></g><g class="cls-9"><polygon class="cls-6" points="203 297.14 208.26 267.58 217.85 267.58 210.43 297.14 203 297.14"/></g><g class="cls-9"><polygon class="cls-6" points="178.29 297.14 185.28 267.85 188.11 267.85 180.99 297.14 178.29 297.14"/></g><g class="cls-9"><polygon class="cls-6" points="213.78 297.28 220.77 267.98 223.59 267.98 216.47 297.28 213.78 297.28"/></g><path class="cls-4" d="M180.31,108.88v7.68h-2.1v-3h-2.57v3h-2.1v-7.68h2.1v2.84h2.57v-2.84Z"/><path class="cls-4" d="M187,116.63a3.2,3.2,0,0,1-1.49-.34,3.6,3.6,0,0,1-1.16-.88,4.12,4.12,0,0,1-1-2.7,4,4,0,0,1,1-2.7,3.67,3.67,0,0,1,1.17-.85,3.56,3.56,0,0,1,3,0,3.78,3.78,0,0,1,1.16.89,4,4,0,0,1,.73,1.26,3.89,3.89,0,0,1,.26,1.43,4,4,0,0,1-.27,1.46,3.86,3.86,0,0,1-.76,1.23,3.72,3.72,0,0,1-1.16.87A3.53,3.53,0,0,1,187,116.63Zm-1.52-3.9a3.22,3.22,0,0,0,.09.76,2,2,0,0,0,.29.64,1.47,1.47,0,0,0,.48.45,1.28,1.28,0,0,0,.68.18,1.27,1.27,0,0,0,.69-.18,1.51,1.51,0,0,0,.47-.47,2,2,0,0,0,.28-.65,3.2,3.2,0,0,0,.09-.75,2.66,2.66,0,0,0-.1-.75,2.07,2.07,0,0,0-.28-.64,1.55,1.55,0,0,0-.48-.44,1.37,1.37,0,0,0-.68-.17,1.32,1.32,0,0,0-.68.17,1.62,1.62,0,0,0-.48.46,2.24,2.24,0,0,0-.28.65A3.06,3.06,0,0,0,185.5,112.73Z"/><path class="cls-4" d="M199.56,110.72h-2.2v5.84h-2.1v-5.84h-2.21v-1.84h6.51Z"/><path class="cls-4" d="M207.93,114.72v1.84h-5.45v-7.68h5.35v1.84h-3.25v1.08h2.78v1.71h-2.78v1.21Z"/><path class="cls-4" d="M211.06,116.56v-7.68h2.1v5.84h3.47v1.84Z"/><rect class="cls-7" x="156.98" y="303.08" width="71.4" height="1.76"/><rect class="cls-7" x="153.01" y="309.36" width="79.36" height="2.01"/><rect class="cls-7" x="149.53" y="316.16" width="86.32" height="1.74"/><path class="cls-10" d="M281.9,266.91c4.58-18.68,22.85-35.66,44.59-37.34,3.25-.25,7.36.26,8.58,3A4.47,4.47,0,0,1,334,237.3a15.19,15.19,0,0,1-4.33,3l-15.77,8.44a11.74,11.74,0,0,1,5.44.35c1.7.67,3,2.49,2.37,4a4.91,4.91,0,0,1-2.62,2q-4.62,2.14-9.3,4.19a10,10,0,0,1,4.25.54c1.31.59,2.33,2,1.89,3.19-.37,1-1.54,1.53-2.6,2l-9.89,4c1.79-.71,3.78,1.4,3.48,3.15s-1.92,3-3.43,4.1L288.65,287C278.67,294.18,280.93,270.87,281.9,266.91Z"/><path class="cls-11" d="M284.25,286.21A69.64,69.64,0,0,1,329.5,233.6c.38-.14.22-.75-.17-.61a70.25,70.25,0,0,0-45.69,53.06c-.08.39.54.57.61.16Z"/><path class="cls-11" d="M292.9,263.46a64.21,64.21,0,0,1,25.75-10.4c.41-.07.24-.68-.16-.62a64.6,64.6,0,0,0-25.91,10.47c-.33.23,0,.78.32.55Z"/><path class="cls-11" d="M288.23,272.6c6.45-5.14,13.85-8.42,21.65-11,.39-.13.22-.74-.17-.61-7.92,2.56-15.38,5.89-21.93,11.11-.31.26.14.71.45.45Z"/><path class="cls-11" d="M285.5,280.64a78.77,78.77,0,0,1,15.94-7.4c.39-.13.22-.74-.16-.61a78.72,78.72,0,0,0-16.1,7.46.32.32,0,0,0,.32.55Z"/><path class="cls-12" d="M290.33,287.51c10.06-16.36,32.63-26.9,53.83-21.8,3.17.76,6.93,2.51,7.25,5.54a4.47,4.47,0,0,1-2.43,4.14,15.22,15.22,0,0,1-5.05,1.53l-17.58,3.18a11.7,11.7,0,0,1,5.07,2c1.41,1.16,2.13,3.31,1,4.54a4.85,4.85,0,0,1-3.11,1.14c-3.37.41-6.74.78-10.13,1.12a9.86,9.86,0,0,1,3.88,1.83c1.07,1,1.62,2.59.82,3.61-.66.84-1.92,1-3.07,1.07l-10.64.76c1.92-.12,3.17,2.5,2.35,4.08s-2.74,2.27-4.52,2.84l-17.4,5.61C278.93,312.48,288.19,291,290.33,287.51Z"/><path class="cls-4" d="M287.44,307.35A69.41,69.41,0,0,1,345,268.73c.41,0,.41-.66,0-.63A70,70,0,0,0,286.89,307c-.18.37.37.69.55.32Z"/><path class="cls-4" d="M301.8,287.73a64.23,64.23,0,0,1,27.58-3.14c.4,0,.4-.59,0-.64a64.71,64.71,0,0,0-27.75,3.17c-.38.13-.22.74.17.61Z"/><path class="cls-4" d="M294.88,295.3c7.58-3.23,15.58-4.42,23.76-4.77.41,0,.41-.66,0-.64-8.31.36-16.39,1.58-24.08,4.86-.38.16-.05.71.32.55Z"/><path class="cls-4" d="M290.12,302.31a78.76,78.76,0,0,1,17.32-2.87c.41,0,.41-.65,0-.63A79.11,79.11,0,0,0,290,301.7a.32.32,0,0,0,.17.61Z"/><path class="cls-11" d="M272.17,297.11c4.59-18.68,22.86-35.66,44.59-37.34,3.25-.25,7.36.26,8.58,3a4.49,4.49,0,0,1-1,4.69,15.24,15.24,0,0,1-4.34,3L304.19,279a11.74,11.74,0,0,1,5.44.35c1.7.67,3,2.49,2.37,4a4.89,4.89,0,0,1-2.61,2q-4.62,2.15-9.3,4.19a10,10,0,0,1,4.25.54c1.31.59,2.33,2,1.88,3.19-.37,1-1.53,1.53-2.6,2l-9.89,4c1.79-.71,3.78,1.4,3.48,3.15s-1.91,3-3.43,4.1l-14.85,10.71C269,324.38,271.2,301.07,272.17,297.11Z"/><path class="cls-4" d="M275.77,317.59a69.71,69.71,0,0,1,43-54.46c.38-.14.22-.76-.16-.61a70.29,70.29,0,0,0-43.48,54.9c-.06.4.55.58.61.17Z"/><path class="cls-4" d="M283.47,294.49A64.25,64.25,0,0,1,308.77,283c.4-.09.23-.7-.17-.62a64.66,64.66,0,0,0-25.45,11.53c-.32.25,0,.8.32.55Z"/><path class="cls-4" d="M279.18,303.83c6.24-5.42,13.48-9,21.18-11.85.38-.14.21-.76-.17-.62-7.8,2.89-15.15,6.54-21.46,12-.31.26.14.71.45.45Z"/><path class="cls-4" d="M276.78,312a79.06,79.06,0,0,1,15.62-8c.38-.15.22-.76-.16-.62a79.81,79.81,0,0,0-15.78,8.12c-.34.23,0,.78.32.55Z"/><path class="cls-10" d="M99.77,267.08c-4.59-18.67-22.86-35.66-44.59-37.34-3.25-.25-7.36.26-8.58,3a4.5,4.5,0,0,0,1,4.7,15.21,15.21,0,0,0,4.34,3l15.77,8.45a11.87,11.87,0,0,0-5.44.34c-1.7.67-3,2.49-2.37,4a4.84,4.84,0,0,0,2.61,2q4.62,2.16,9.3,4.19a10,10,0,0,0-4.25.55c-1.31.58-2.33,2-1.88,3.18.37,1,1.53,1.53,2.6,2l9.89,4c-1.79-.7-3.78,1.4-3.48,3.16s1.91,3,3.43,4.09L93,287.16C103,294.36,100.74,271.05,99.77,267.08Z"/><path class="cls-11" d="M98,286.22a70.27,70.27,0,0,0-45.68-53.06c-.39-.14-.56.48-.17.61a69.64,69.64,0,0,1,45.24,52.62c.08.4.69.23.61-.17Z"/><path class="cls-11" d="M89.08,263.08a64.54,64.54,0,0,0-25.9-10.46c-.4-.07-.57.54-.17.61a64.15,64.15,0,0,1,25.75,10.4c.34.23.66-.32.32-.55Z"/><path class="cls-11" d="M93.88,272.33c-6.54-5.22-14-8.56-21.93-11.12-.39-.13-.55.49-.16.61,7.8,2.53,15.19,5.81,21.64,11,.32.25.77-.2.45-.45Z"/><path class="cls-11" d="M96.49,280.26a79.76,79.76,0,0,0-16.1-7.46c-.39-.13-.56.48-.17.61a78.86,78.86,0,0,1,16,7.4.32.32,0,0,0,.32-.55Z"/><path class="cls-11" d="M91.33,287.68c-10-16.36-32.63-26.89-53.83-21.8-3.17.76-6.93,2.52-7.24,5.54a4.5,4.5,0,0,0,2.43,4.15,15.3,15.3,0,0,0,5.05,1.52l17.58,3.18a12,12,0,0,0-5.07,2c-1.42,1.17-2.14,3.31-1,4.54A4.89,4.89,0,0,0,52.32,288c3.37.41,6.75.79,10.13,1.12a10,10,0,0,0-3.87,1.83c-1.07,1-1.62,2.59-.82,3.61.65.84,1.92,1,3.07,1.07l10.63.77c-1.91-.13-3.17,2.49-2.35,4.07s2.74,2.27,4.52,2.84L91,308.88C102.73,312.65,93.47,291.16,91.33,287.68Z"/><path class="cls-4" d="M94.78,307.2a70.06,70.06,0,0,0-58.1-38.93c-.4,0-.4.61,0,.63a69.42,69.42,0,0,1,57.55,38.63c.18.36.73,0,.55-.33Z"/><path class="cls-4" d="M80,287.29a64.49,64.49,0,0,0-27.74-3.16c-.4,0-.41.67,0,.63a64.19,64.19,0,0,1,27.57,3.14c.39.14.56-.48.17-.61Z"/><path class="cls-4" d="M87.11,294.92c-7.7-3.28-15.78-4.5-24.09-4.86-.41,0-.4.62,0,.64,8.19.35,16.19,1.54,23.77,4.77.37.16.69-.39.32-.55Z"/><path class="cls-4" d="M91.72,301.87A79.78,79.78,0,0,0,74.22,299c-.4,0-.4.62,0,.64a78.83,78.83,0,0,1,17.33,2.86.32.32,0,0,0,.17-.61Z"/><path class="cls-12" d="M109.49,297.28c-4.58-18.67-22.85-35.66-44.58-37.34-3.25-.25-7.37.26-8.59,3a4.51,4.51,0,0,0,1,4.7,15.07,15.07,0,0,0,4.34,3l15.76,8.45a11.83,11.83,0,0,0-5.43.34c-1.71.67-3.05,2.49-2.37,4a4.84,4.84,0,0,0,2.61,2q4.62,2.16,9.3,4.19a10,10,0,0,0-4.25.55c-1.31.58-2.33,2-1.88,3.18.36,1,1.53,1.53,2.59,2l9.89,4c-1.78-.7-3.77,1.4-3.48,3.16s1.92,3,3.44,4.09l14.85,10.71C112.72,324.56,110.47,301.24,109.49,297.28Z"/><path class="cls-4" d="M106.51,317.6A70.29,70.29,0,0,0,63,262.7c-.38-.15-.54.46-.17.61a69.67,69.67,0,0,1,43,54.46c.06.4.68.23.62-.17Z"/><path class="cls-4" d="M98.52,294.12a64.49,64.49,0,0,0-25.46-11.53c-.39-.09-.56.52-.16.61a64.25,64.25,0,0,1,25.3,11.46c.32.25.64-.3.32-.54Z"/><path class="cls-4" d="M102.93,303.55c-6.31-5.48-13.66-9.13-21.45-12-.39-.15-.55.47-.17.61C89,295,96.25,298.59,102.48,304c.31.27.76-.18.45-.45Z"/><path class="cls-4" d="M105.21,311.59a79.28,79.28,0,0,0-15.78-8.12c-.38-.15-.55.47-.17.61a78.65,78.65,0,0,1,15.63,8.06c.34.22.66-.33.32-.55Z"/><path class="cls-13" d="M234.09,320.44a2.72,2.72,0,0,1-2.67-2.21,32.39,32.39,0,0,1,14.49-32,2.73,2.73,0,0,1,3.06,4.52,27.27,27.27,0,0,0-12.2,26.46,2.72,2.72,0,0,1-2.15,3.2A2.44,2.44,0,0,1,234.09,320.44Z"/><path class="cls-11" d="M258.08,317.92a15.83,15.83,0,0,0-2.36-13.52q-1.44,2.25-2.9,4.48a30.75,30.75,0,0,0-1.51-12.52c-.87,1.35-1.74,2.71-2.62,4.06,1.51-2.34-.92-10.06-1.18-12.73,5.6-3.28,11.79-.32,13.9,5.26C264.6,301.35,262.51,310.4,258.08,317.92Z"/><path class="cls-10" d="M274.73,303.09a15.73,15.73,0,0,0-10.38-8.92l.6,5.31a30.57,30.57,0,0,0-9.1-8.7c.19,1.6.37,3.21.56,4.81-.32-2.77-7.08-7.17-9-9.07,2.24-6.1,8.89-7.78,14.05-4.83C269.27,286.14,273.39,294.47,274.73,303.09Z"/><path class="cls-14" d="M223.93,302.33a15.73,15.73,0,0,1,10.52-8.75c-.23,1.77-.45,3.53-.68,5.3a30.51,30.51,0,0,1,9.23-8.55l-.63,4.8c.36-2.76,7.19-7.06,9.11-8.92-2.15-6.15-8.77-7.93-14-5.06C229.65,285.47,225.41,293.73,223.93,302.33Z"/><path class="cls-11" d="M220.78,277.53A15.65,15.65,0,0,1,234.36,279l-4.26,3.2a30.33,30.33,0,0,1,12.54.7l-3.87,2.89c2.23-1.67,10.06.26,12.72.35,2.89-5.83-.45-11.84-6.13-13.6C236.81,269.91,228,272.6,220.78,277.53Z"/><path class="cls-13" d="M149,320.86a2.38,2.38,0,0,1-.53-.05,2.74,2.74,0,0,1-2.17-3.2A27.11,27.11,0,0,0,134,291a2.74,2.74,0,0,1,3.07-4.54,32.53,32.53,0,0,1,14.56,32.17A2.73,2.73,0,0,1,149,320.86Z"/><path class="cls-11" d="M124.86,318.33a15.89,15.89,0,0,1,2.37-13.58l2.91,4.5a30.87,30.87,0,0,1,1.52-12.58q1.31,2,2.63,4.08c-1.52-2.35.93-10.1,1.19-12.78-5.63-3.3-11.85-.32-14,5.28C118.31,301.69,120.41,310.78,124.86,318.33Z"/><path class="cls-10" d="M108.14,303.43a15.78,15.78,0,0,1,10.42-9l-.6,5.34a30.68,30.68,0,0,1,9.13-8.74c-.18,1.61-.37,3.22-.55,4.83.32-2.78,7.11-7.21,9-9.11-2.26-6.13-8.94-7.82-14.12-4.85C113.61,286.41,109.48,294.77,108.14,303.43Z"/><path class="cls-14" d="M159.16,302.67a15.75,15.75,0,0,0-10.56-8.79c.23,1.77.45,3.55.68,5.32a30.66,30.66,0,0,0-9.27-8.59l.63,4.82c-.36-2.77-7.23-7.09-9.15-9,2.15-6.17,8.81-8,14-5.08C153.41,285.74,157.68,294,159.16,302.67Z"/><path class="cls-11" d="M162.32,277.76a15.69,15.69,0,0,0-13.63,1.48l4.27,3.22a30.4,30.4,0,0,0-12.59.7l3.88,2.9c-2.23-1.67-10.1.27-12.77.36-2.91-5.86.45-11.9,6.15-13.66C146.23,270.1,155.12,272.81,162.32,277.76Z"/><path class="cls-12" d="M315.67,299.62c.09-.14.24-.31.4-.24s.14.21.14.34a6.88,6.88,0,0,1-.55,2.4,1.17,1.17,0,0,1-.22.43c-.66.73-.58-.62-.52-.91A6.17,6.17,0,0,1,315.67,299.62Z"/><path class="cls-12" d="M191.12,327.6,187.74,361l-.14,1.29H186l0-1.05c0-.11,0-.22,0-.32l0-1-1-32.27Z"/><polygon class="cls-12" points="197.49 327.6 193.99 359.9 193.9 360.76 193.79 361.69 192.39 362.25 192.36 361.29 192.3 359.23 191.34 327.6 197.49 327.6"/><path class="cls-12" d="M201.34,276.39a44.27,44.27,0,0,1,4.43,16.24,26,26,0,0,1-4.21,16.09,5.37,5.37,0,0,1-1.49,1.55,2.12,2.12,0,0,1-2,.19,1.37,1.37,0,0,1-.64-1.82c.44-.75,1.5-.74,2.26-1.15a4,4,0,0,0,1.63-2.7,26.79,26.79,0,0,0-5-22.89c-1.48-1.86-3.24-3.54-4.23-5.7a9.62,9.62,0,0,1-.56-6.47c.3-1.11,1.14-2.65,2.52-2.53,1.09.1,2.26,1.52,2.95,2.27A27.05,27.05,0,0,1,201.34,276.39Z"/><path class="cls-12" d="M183.78,274.69a43.71,43.71,0,0,1-15.41-6.62,25.78,25.78,0,0,1-9.9-13.33,5.19,5.19,0,0,1-.29-2.13,2.18,2.18,0,0,1,1.13-1.74,1.37,1.37,0,0,1,1.82.64c.31.8-.36,1.63-.52,2.48a4,4,0,0,0,1.1,3,26.51,26.51,0,0,0,20.9,10.36c2.37,0,4.78-.34,7.08.22a9.55,9.55,0,0,1,5.39,3.59c.68.92,1.35,2.54.39,3.56-.75.79-2.58.83-3.6.9A26.65,26.65,0,0,1,183.78,274.69Z"/><path class="cls-13" d="M184.62,293.42a55.56,55.56,0,0,1-2,7.14c-1.35,3.93-1.45,29.13-1.45,29.13l18.36,3.55s-1.38-29.2-2.68-34.89-.95-5.76-.95-5.76H184.67Z"/><path class="cls-12" d="M188.52,253.13a12,12,0,0,0-1.16,2.79,10.26,10.26,0,0,0-.72,4.75,5,5,0,0,0,3.28,3.9,4.58,4.58,0,0,0,4.84-1.39,6.64,6.64,0,0,0,1.17-4.55,9.31,9.31,0,0,0-1.3-4.58C193.14,251.67,190.31,250.32,188.52,253.13Z"/><path class="cls-12" d="M189.27,270.59a7.86,7.86,0,0,0,4.7.24,20.3,20.3,0,0,1-.05-7,.72.72,0,0,0-.1-.66.63.63,0,0,0-.45-.15c-2-.18-3.64-.88-3.35,1.63C190.07,265.07,190.09,270.9,189.27,270.59Z"/><path class="cls-4" d="M194.68,267.23a7.81,7.81,0,0,1-6.59-.63,78.26,78.26,0,0,0-5.47,26.91l15.74,1.67C199.12,286.47,196.85,277.11,194.68,267.23Z"/><path class="cls-10" d="M187.28,254.13c.67,1.53,2.42,1.37,2.81,3.07a9.26,9.26,0,0,1-.93,6.34c-.79,1.44-2,2.87-1.73,4.49.22,1.28,1.33,2.19,2.33,3a10.9,10.9,0,0,1,3.4,6.43c.13,1.11-.09,2.24,0,3.36a3.07,3.07,0,0,0,1.57,2.76c1.61.69,3.7-.87,5.11.18.88.65.92,1.94,1.47,2.88.88,1.48,2.93,1.84,4.57,1.36a6.47,6.47,0,0,0,4.18-3.87,6.54,6.54,0,0,0-.55-5.68c-.85-1.36-2.2-2.41-2.74-3.92-1.1-3.12,1.73-6.81.19-9.73-1.29-2.43-4.91-2.8-6.24-5.21-.71-1.3-.59-2.88-.88-4.33a7.43,7.43,0,0,0-3.91-5.07,7.76,7.76,0,0,0-6-.28C188.41,250.53,186.5,252.31,187.28,254.13Z"/><path class="cls-4" d="M164.23,251.1l-3.59,1.65a.59.59,0,0,1-.79-.29L157,246.09a.59.59,0,0,1,.29-.79l3.59-1.65a.6.6,0,0,1,.78.3l2.9,6.37A.6.6,0,0,1,164.23,251.1Z"/><path class="cls-10" d="M160.39,253.17a1,1,0,0,1-.33-.06,1,1,0,0,1-.54-.5l-2.89-6.37a1,1,0,0,1,.47-1.27l3.58-1.65a1,1,0,0,1,.73,0,1,1,0,0,1,.54.5l2.9,6.37a1,1,0,0,1-.47,1.26h0l-3.59,1.65A.93.93,0,0,1,160.39,253.17Zm.69-9.21-.09,0-3.59,1.65a.23.23,0,0,0-.11.31l2.89,6.37a.3.3,0,0,0,.13.12.23.23,0,0,0,.18,0l3.58-1.64a.24.24,0,0,0,.12-.31l-2.9-6.37a.22.22,0,0,0-.13-.12Z"/><path class="cls-11" d="M187.66,361.19l-.06,1.06c0,.1,0,.2,0,.29,0,.25,0,.5,0,.74a1,1,0,0,1-.1.47.87.87,0,0,1-.68.3,3.79,3.79,0,0,1-2.42-.84,10,10,0,0,1-1.8-1.88,1.59,1.59,0,0,1-.33-.56.52.52,0,0,1,.21-.57.68.68,0,0,1,.54,0,4.91,4.91,0,0,1,1.19.53h0a4.9,4.9,0,0,1,1.18,1c.52.6.65,0,.65-.55,0-.11,0-.22,0-.32A16.5,16.5,0,0,1,187.66,361.19Z"/><path class="cls-11" d="M194,362.47v.44a1,1,0,0,1-.11.46.77.77,0,0,1-.68.3,3.78,3.78,0,0,1-2.42-.83A10.15,10.15,0,0,1,189,361a1.43,1.43,0,0,1-.31-.55.51.51,0,0,1,.2-.57.72.72,0,0,1,.54,0,5.31,5.31,0,0,1,2.37,1.55c.37.43.54.25.61-.09a2.94,2.94,0,0,0,0-.79,13.25,13.25,0,0,1,1.51.26A16.41,16.41,0,0,0,194,362.47Z"/><path class="cls-12" d="M187.74,361l-.14,1.29c0,.1,0,.2,0,.29a.69.69,0,0,1-.13.11,1.2,1.2,0,0,1-.79.17c-1-.05-2.49-.92-2.51-2.07a4.9,4.9,0,0,1,1.18,1c.52.6.65,0,.65-.55,0-.11,0-.22,0-.32l0-1a2.81,2.81,0,0,1,1.12.33A1.89,1.89,0,0,1,187.74,361Z"/><path class="cls-12" d="M194,362.47a1.63,1.63,0,0,1-1.07,0,4.32,4.32,0,0,1-1.9-1,2.69,2.69,0,0,1-.8-1.36,4.93,4.93,0,0,1,1.55,1.21c.37.43.54.25.61-.09l-.06-2.06.31,0a2,2,0,0,1,1.18.44,2,2,0,0,1,.2.21l-.09.86A16.41,16.41,0,0,0,194,362.47Z"/><rect class="cls-10" x="216.06" y="328.52" width="1.15" height="5.36"/><rect class="cls-10" x="209.74" y="328.52" width="1.15" height="5.36"/><rect class="cls-5" x="201.93" y="333.24" width="22.63" height="30.43" rx="3.33"/><ellipse class="cls-6" cx="205.31" cy="363.33" rx="2.42" ry="2.43"/><path class="cls-6" d="M223.26,362.82a2.42,2.42,0,1,1-2.42-2.43A2.42,2.42,0,0,1,223.26,362.82Z"/><rect class="cls-14" x="207.73" y="327.6" width="11.85" height="1.84" rx="0.92"/><path class="cls-10" d="M219.88,356.58l-3.71,2.54a.82.82,0,0,1-1.14-.21l-1.67-2.47a.83.83,0,0,1,.21-1.15l3.72-2.54a.81.81,0,0,1,1.14.22l1.67,2.46A.82.82,0,0,1,219.88,356.58Z"/><rect class="cls-14" x="214.13" y="348.01" width="6.17" height="4.61" rx="0.83" transform="translate(557.26 117.35) rotate(87.39)"/><rect class="cls-4" x="210.32" y="346.67" width="6.08" height="4.9" rx="0.03"/><path class="cls-7" d="M216.37,351.89H210l0-.35v-5.16l.35,0h6.34l0,.35v5.16Zm-5.73-.64h5.44V347h-5.44Z"/><ellipse class="cls-14" cx="205.31" cy="363.33" rx="1.08" ry="1.08"/><path class="cls-8" d="M205.31,364.73a1.4,1.4,0,1,1,1.4-1.4A1.4,1.4,0,0,1,205.31,364.73Zm0-2.17a.77.77,0,1,0,.76.77A.77.77,0,0,0,205.31,362.56Z"/><path class="cls-14" d="M221.92,362.82a1.08,1.08,0,1,1-1.08-1.08A1.08,1.08,0,0,1,221.92,362.82Z"/><path class="cls-8" d="M220.84,364.22a1.4,1.4,0,0,1,0-2.8,1.4,1.4,0,1,1,0,2.8Zm0-2.16a.77.77,0,1,0,.76.76A.76.76,0,0,0,220.84,362.06Z"/><path class="cls-14" d="M195.62,188.61c0,22.1-36.55,47.79-36.55,47.79s-36.55-23.53-36.55-47.79c0-18.51,16.37-36.5,36.55-36.5S195.62,170.1,195.62,188.61Z"/><path class="cls-4" d="M159.09,237.17l-.36-.24a132.49,132.49,0,0,1-18.38-14.87c-8.42-8.22-18.46-20.69-18.46-33.45,0-19.78,17.37-37.14,37.18-37.14s37.18,17.36,37.18,37.14c0,9.34-6.21,20.32-18.45,32.63a156.28,156.28,0,0,1-18.36,15.68Zm0-84.43c-19.13,0-35.91,16.76-35.91,35.87,0,22.36,32.12,44.49,35.9,47,3.73-2.71,35.92-26.65,35.92-47C195,169.5,178.2,152.74,159.07,152.74Z"/><path class="cls-4" d="M173,213.9H163.9V201.81h-9.66V213.9h-9.08V182.39h9.08v11.39h9.66V182.39H173Zm-8.44-.64h7.8V183h-7.8v11.39H153.6V183h-7.8v30.24h7.8V201.17h10.94Z"/><polygon class="cls-4" points="143.9 175.31 140.92 175.68 139.54 178.36 138.27 175.62 135.31 175.13 137.5 173.07 137.05 170.09 139.68 171.54 142.36 170.19 141.79 173.16 143.9 175.31"/><polygon class="cls-4" points="152.65 171.5 149.67 171.11 147.66 173.35 147.12 170.38 144.38 169.15 147.01 167.71 147.33 164.71 149.51 166.79 152.45 166.17 151.15 168.89 152.65 171.5"/><polygon class="cls-4" points="161.38 171.58 158.79 170.07 156.07 171.36 156.7 168.41 154.64 166.22 157.63 165.91 159.07 163.26 160.28 166.02 163.24 166.58 161 168.59 161.38 171.58"/><polygon class="cls-4" points="171 173.56 168.78 171.53 165.86 172.22 167.09 169.47 165.53 166.89 168.51 167.22 170.47 164.93 171.09 167.88 173.86 169.05 171.25 170.55 171 173.56"/><polygon class="cls-4" points="178.29 178.06 176.91 175.38 173.93 175 176.05 172.85 175.49 169.89 178.17 171.24 180.8 169.79 180.34 172.77 182.53 174.84 179.57 175.33 178.29 178.06"/><path class="cls-12" d="M423.36,104a12.13,12.13,0,0,0-14.16-9.73c-.15,0-.29.07-.43.1a12.12,12.12,0,0,0-23.91-3.71c-.32,0-.65.08-1,.15l-.36.07a15.52,15.52,0,0,0-28.95.84A15.5,15.5,0,0,0,340,86.61a15.53,15.53,0,0,0-25.65-8.78,15.43,15.43,0,0,0-11.88-2.62A15.63,15.63,0,0,0,290,93.45a16.91,16.91,0,0,0,.45,1.8,10.08,10.08,0,0,0-2.73.14,10.4,10.4,0,0,0,3.82,20.44,10.08,10.08,0,0,0,2.9-1,12.11,12.11,0,0,0,12.35,5.25,13.24,13.24,0,0,0,1.59-.43,15.55,15.55,0,0,0,20.24,4,10.34,10.34,0,0,0,11.91,7.61c.27,0,.52-.12.78-.19a10.35,10.35,0,0,0,19.57,6.42,10.29,10.29,0,0,0,5.88,1.88,10.34,10.34,0,1,0,20.68-.38h.13a10.43,10.43,0,0,0,4.7-18.23,15.6,15.6,0,0,0,8.72-8.34A12.12,12.12,0,0,0,423.36,104Z"/></g></svg>