<svg id="Слой_1" data-name="Слой 1" xmlns="http://www.w3.org/2000/svg" xmlns:xlink="http://www.w3.org/1999/xlink" viewBox="0 0 2298.64 1360.47"><defs><style>.cls-1{fill:#3d414a;}.cls-2{fill:url(#linear-gradient);}.cls-3{fill:url(#linear-gradient-2);}.cls-4{fill:#fff;}.cls-5{fill:url(#linear-gradient-3);}.cls-6{fill:#454a54;}.cls-7{fill:#b8b8b8;}.cls-8{fill:url(#linear-gradient-4);}.cls-9{fill:#ada9a2;}.cls-10{fill:#26292e;}.cls-11{fill:url(#linear-gradient-5);}.cls-12{fill:#cf7923;}.cls-13{fill:#a8a59c;}.cls-14{fill:url(#linear-gradient-6);}.cls-15{fill:url(#radial-gradient);}.cls-16{fill:#e2d2ca;}.cls-17{fill:#706865;}.cls-18{fill:#ccbdb7;}.cls-19{fill:#998e89;}.cls-20{fill:#b59074;}.cls-21{fill:#e64646;}.cls-22{fill:#424773;}.cls-23{fill:#292c47;}.cls-24{fill:#eea886;}.cls-25{fill:#3a3f47;}.cls-26{fill:#323657;}.cls-27{fill:#918783;}.cls-28{fill:#5e5854;}.cls-29{fill:#bfb2ac;}.cls-30{fill:#b8aba5;}.cls-31{fill:#f5f7ff;}.cls-32{fill:#918681;}.cls-33{fill:#dfe1e8;}.cls-34{fill:#1b384f;}.cls-35{fill:#cf8c6c;}.cls-36{fill:#db9c7c;}.cls-37{fill:#c43b3b;}.cls-38{fill:#285173;}.cls-39{fill:#a77860;}.cls-40{fill:#d88a51;}.cls-41{fill:#ba3838;}.cls-42{fill:#ebebeb;}</style><linearGradient id="linear-gradient" x1="1094.1" y1="928.19" x2="1094.1" y2="152.99" gradientUnits="userSpaceOnUse"><stop offset="0" stop-color="#a1a1a1"/><stop offset="1" stop-color="#f5f2e4"/></linearGradient><linearGradient id="linear-gradient-2" x1="385.89" y1="743.73" x2="1802.32" y2="743.73" gradientUnits="userSpaceOnUse"><stop offset="0.17" stop-color="#69ffe9"/><stop offset="1" stop-color="#2749a8"/></linearGradient><linearGradient id="linear-gradient-3" x1="1818.55" y1="1311.52" x2="1818.55" y2="676.26" xlink:href="#linear-gradient"/><linearGradient id="linear-gradient-4" x1="1812.18" y1="1152.53" x2="1812.18" y2="957.48" gradientUnits="userSpaceOnUse"><stop offset="0.01" stop-color="#8a8a8a"/><stop offset="1" stop-color="#f5f2e4"/></linearGradient><linearGradient id="linear-gradient-5" x1="2288.05" y1="1046.31" x2="2215.33" y2="1073.93" gradientUnits="userSpaceOnUse"><stop offset="0" stop-color="#fffaed"/><stop offset="0.46" stop-color="#d9d5ca"/><stop offset="1" stop-color="#ada9a2"/></linearGradient><linearGradient id="linear-gradient-6" x1="2219.62" y1="1058.28" x2="2287.52" y2="1028.55" gradientUnits="userSpaceOnUse"><stop offset="0" stop-color="#f27b1f"/><stop offset="1" stop-color="#e8e3d8"/></linearGradient><radialGradient id="radial-gradient" cx="777.74" cy="334.5" r="739.02" gradientTransform="translate(-49.85 -44.04) scale(0.87)" gradientUnits="userSpaceOnUse"><stop offset="0.16" stop-color="#69beff"/><stop offset="0.58" stop-color="#1c9cff"/><stop offset="1" stop-color="#476cff"/></radialGradient></defs><title>Logistics</title><rect class="cls-1" x="1499.19" y="1003.56" width="120.45" height="30.83"/><rect class="cls-2" x="369.65" y="476.47" width="1448.9" height="534.52"/><rect class="cls-3" x="385.89" y="494.63" width="1416.43" height="498.2"/><polygon class="cls-4" points="1802.32 540.79 1325.72 540.79 1354.02 584.71 1802.32 584.71 1802.32 540.79"/><path class="cls-5" d="M2155.29,1163.67h114.05c20.33,0,23.72-31.2,22.59-54.61s-14.68-25.63-14.68-25.63l-53.55-17.83v-27.86l55.81,5.57s12.61,0,12.61-22.29-4.52-168.65-8.1-173.29-10.91-6.32-10.91-6.32l-16.75-150.82s3.95-6.69,2.82-12.82-5.64-46.81-27.1-55.72S1873,589.73,1863.94,612s0,414.57,0,414.57l14.68,7.8h-316.2s-13.92-13.37-22.2-15.6-132.5,0-132.5,0-39.9,1.49-52.7,37.15-10.54,79.5-8.29,85.44,17.32,22.29,17.32,22.29Z"/><path class="cls-6" d="M2273.11,841.41l-256.79-23.54c-21.58-2-40.3-15.87-47.78-36a79.62,79.62,0,0,1-4.66-21.12c-3.39-39.56,10.16-78.59,37.26-78.57,10.18,0,255.22,8.36,255.22,8.36Z"/><path class="cls-7" d="M2019.57,818.17S1992.67,748,2023.16,714c13.86-15.45,235.33-4.16,235.33-4.16l14.62,131.58Z"/><path class="cls-8" d="M2298.14,1122.06c-2.82,18.21-3.39,41.61-23.15,41.61H1364.06s-38.22.56-38.22-4.46-2.91-39.2,19.16-37.15c14.32,1.33,371.93.94,625.11.51l201.48-.4,46.94-.11c13,0,13-32.77,72.29-21.49C2290.82,1100.57,2301,1103.85,2298.14,1122.06Z"/><path class="cls-1" d="M2152.91,1122.06c0,44.72-36.73,81-82,81s-82.05-36.26-82.05-81,36.73-81,82.05-81S2152.91,1077.34,2152.91,1122.06Z"/><path class="cls-9" d="M2084.15,1122.06a13.29,13.29,0,1,1-13.29-13.12A13.21,13.21,0,0,1,2084.15,1122.06Z"/><path class="cls-9" d="M2070.86,1181.3c-33.11,0-60-26.57-60-59.24s26.93-59.24,60-59.24,60,26.57,60,59.24S2104,1181.3,2070.86,1181.3Zm0-117.23c-32.4,0-58.76,26-58.76,58s26.36,58,58.76,58,58.76-26,58.76-58S2103.26,1064.07,2070.86,1064.07Z"/><path class="cls-1" d="M2080.21,1122.06a9.36,9.36,0,1,1-9.35-9.23A9.29,9.29,0,0,1,2080.21,1122.06Z"/><path class="cls-10" d="M2171.59,1122.06v.11a97.75,97.75,0,0,1-9.23,41.5h-183a97.55,97.55,0,0,1-9.24-41.1v-.51c0-54.9,45.11-99.43,100.76-99.43S2171.59,1067.16,2171.59,1122.06Z"/><path class="cls-10" d="M1555.5,1122.06v.11a97.9,97.9,0,0,1-9.24,41.5h-183a97.39,97.39,0,0,1-9.23-41.1v-.51c0-54.9,45.1-99.43,100.75-99.43S1555.5,1067.16,1555.5,1122.06Z"/><path class="cls-1" d="M2152.91,1122.06c0,44.72-36.73,81-82,81s-82.05-36.26-82.05-81,36.73-81,82.05-81S2152.91,1077.34,2152.91,1122.06Z"/><path class="cls-9" d="M2084.15,1122.06a13.29,13.29,0,1,1-13.29-13.12A13.21,13.21,0,0,1,2084.15,1122.06Z"/><path class="cls-9" d="M2070.86,1181.3c-33.11,0-60-26.57-60-59.24s26.93-59.24,60-59.24,60,26.57,60,59.24S2104,1181.3,2070.86,1181.3Zm0-117.23c-32.4,0-58.76,26-58.76,58s26.36,58,58.76,58,58.76-26,58.76-58S2103.26,1064.07,2070.86,1064.07Z"/><path class="cls-1" d="M2080.21,1122.06a9.36,9.36,0,1,1-9.35-9.23A9.29,9.29,0,0,1,2080.21,1122.06Z"/><path class="cls-1" d="M1536.81,1122.06c0,44.72-36.74,81-82.06,81s-82-36.26-82-81,36.74-81,82-81S1536.81,1077.34,1536.81,1122.06Z"/><path class="cls-9" d="M1468.05,1122.06a13.29,13.29,0,1,1-13.3-13.12A13.21,13.21,0,0,1,1468.05,1122.06Z"/><path class="cls-9" d="M1454.75,1181.3c-33.09,0-60-26.57-60-59.24s26.94-59.24,60-59.24,60,26.57,60,59.24S1487.86,1181.3,1454.75,1181.3Zm0-117.23c-32.39,0-58.75,26-58.75,58s26.36,58,58.75,58,58.77-26,58.77-58S1487.16,1064.07,1454.75,1064.07Z"/><path class="cls-1" d="M1464.11,1122.06a9.36,9.36,0,1,1-9.36-9.23A9.29,9.29,0,0,1,1464.11,1122.06Z"/><path class="cls-11" d="M2223.7,1037.74v27.86l53.55,17.83s7.15-20.8,2.26-40.12Z"/><path class="cls-1" d="M1356.89,1051.38l-21.82,9.39-3,46.44,13,7.42S1343.89,1078.39,1356.89,1051.38Z"/><rect class="cls-12" x="1331.11" y="1066.53" width="11.76" height="11.61"/><path class="cls-13" d="M2218.49,1061.79l-55.14-4.06-.14-.87c-12.13-73.42-100.83-73.22-101.69-73.17h-1.08l-17-300.45,2.27.07,16.83,298.15c10.31.22,90.51,4.19,102.72,74.17l50.94,3.74v-30l21.11.56c-.08-15.16-1.07-173.69-6.87-188.09-6.2-15.37-22.62-147.39-23.31-153l2.31.08c.17,1.37,17,137,23.09,152.1,6.22,15.43,7,182.93,7.05,190v1.15l-21.12-.56Z"/><rect class="cls-13" x="2066.54" y="480.82" width="2.23" height="346" transform="translate(1309.65 2685.59) rotate(-87.09)"/><path class="cls-13" d="M2012.45,1028.85l-130.52-8.39.15-2.22,129.68,8.33c4.39-3.14,48.78-33.18,107-8.24l-.9,2c-59.89-25.63-104.68,7.88-105.12,8.22Z"/><path class="cls-1" d="M2235.1,838.47c-.07-1-7.18-97.1-9.78-122.43-1.34-13.08-5.13-17.42-7.26-18.85-1.74-1.16-4.23-.92-7.66-.87l-.81-6.48c3.85-.14,8-.89,12.33,2,5.5,3.67,8.92,11.6,10.14,23.55,2.61,25.42,9.73,121.64,9.8,122.61Z"/><polygon class="cls-1" points="2234.64 790.23 2205.35 792.26 2200.09 718.52 2229 715.48 2234.64 790.23"/><rect class="cls-13" x="2063.25" y="838.47" width="19.57" height="32.32"/><polygon class="cls-14" points="2223.7 1037.74 2223.7 1065.6 2236.22 1069.77 2236.22 1038.99 2223.7 1037.74"/><path class="cls-15" d="M1387.27,597.87c0,330.21-267.68,597.89-597.89,597.89S191.51,928.08,191.51,597.87,459.2,0,789.38,0,1387.27,267.69,1387.27,597.87Z"/><path class="cls-4" d="M970.71,217s-16.61,2.86-16.61,13.87,5.54,30.37,5.54,30.37L965.17,282l16.16,13.82,6-8.2s6.48-5.83,12.45-6.55c20.59-2.47,20.74-8.51,20.74-8.51l18-9.94s6.91-13.8,0-17.95-26.89-16.61-28.65-16.61-11.45-26.27-11.45-26.27l-20.29-27.67S963.79,185.62,966.55,193s6.92,10.16,5.54,17.08Z"/><path class="cls-4" d="M1382.93,525.39c-9.41,5.58-18.07,9.29-34,14.15-41.71,12.75-53.3,17.38-99.64,25.5s-97.33-12.75-137.89,12.74-47.9,26.26-47.9,26.26l-19.7,3.88s-53.13-8.46-61.78-.41c-7.54,7,1.93.41-32.83,42.12s-23,24.4-34.77,41.71C888.74,729.09,882,712.19,891.22,747s48.68,67.21,48.68,67.21,60.24,4.64,71.84,9.26,97.32,10.44,97.32,10.44,61.38,88.06,73,106.59,12.47,38.12,20.91,71.85c1.39,5.53,2.5,10.19,3.4,14.09,111.63-108.56,181-260.45,181-428.52A599.88,599.88,0,0,0,1382.93,525.39Z"/><path class="cls-4" d="M1238.38,521.18c5.54,12.47,9.69-30.48,26.33-31.86s1.39-12.48-16.64-22.61-30.48-52.21-41.55-66.07,16.63-44.35,44.35-56.34,22.17,14.79,34.61,27.23-2.76,23.56,8.32,45,12.47,25.65,24.77,18.72-5.3-14.67-7.22-38.79c-.91-11.57-.91-23.55,17.09-8.6,17.63,14.61,26,65.91,22.4,4C1271.57,175.93,1071.3,18.45,832.21,1.54l90.1,45.36L971.83,67s72.77,9.29,80.49,15.47,7.74,24.78,15.49,28.82,38.68,33.11,80.48,43.94c24.47,6.35,33.55,32.41,36.87,52.87-8.2,4.18-11.91,16.18-11.91,20.7,0,5.55,6.93,12.49,5.55,19.73s-19.39,5.23-31.87,1.69-5.54-.62-12.47,0-18,9.06-27.71,21.78-30.48,12.24-47.11,15.09-12.47-7-34.63,0-31.88,55.33-23.55,76.11,4.14,33.28-1.42,53.35-13.3,28.8-15.22,89.41c-3.21,101.12,41.57,59.53,69.29,63.72s23.56-9.7,29.08-20.8-12.47-40.16-13.85-66.5-2.78-31.88,0-39,15.23-20.6,26.32-33.1,40.19-13.83,49.9-13.83,66.51,55.43,84.5,80.35S1232.82,508.73,1238.38,521.18Z"/><path class="cls-4" d="M255.17,329.22a11.88,11.88,0,0,0-.31,2c-1.47,21.06-10.32,44.17-22.3,69.89-9.81,21.12-11.79,27.83-18,35a12,12,0,0,0-1.5,2.24,598.21,598.21,0,0,0-21.57,159.56c0,11.85.38,23.6,1.07,35.27a11.5,11.5,0,0,0,2.24,4.42l6.48,7.9a11.54,11.54,0,0,0,8.53,4.25c6.75.16,17.86,2.06,16.52,13-1.91,15.56,8.79,32,8.28,38.7s16.35,8.4,15.3,34.73c-.81,20.92,2,34.21,3.18,38.81a11.34,11.34,0,0,1,.35,3.8c-.47,6.25-1.94,25.91-3.2,42.49-1.52,20,6.56,31.84,12.56,41.26,5.65,8.81,7.81,11.46,8,31.32a12.26,12.26,0,0,0,.33,2.41c79.2,137.28,211.35,240.13,368.54,280.67a33.34,33.34,0,0,0,3.68-11.21v-.11c.45-5.84,4-33,4.78-38.64a8.62,8.62,0,0,0,.11-2c-.26-5.84-1.45-35.48,1.3-45.36,3-11-5.51-16-25.33-51.08s.16-31.33,4-53.43,2.22-28.93,7.68-42,0,0-3.65-11.46-58.43-65.65-71.7-88.21-24.15-6.3-44-10,0,0-44.87-6.29c-22.48-3.13-23.4,3.15-30.91,1.77-9.84-1.8-18.07,1.94-33.67-2.54s-37.43,18.79-50.35,11.5-14.57-11.38-20.43-16.8-24.95-7.12-32.68-29.77.42-19-5.47-39-3.82-23.28-5.9-25.64S276,703,284.58,677.3c4-11.95-3.53-5.3-1.51-32s21.31-8.1,31.14-19.61,22.85-6.2,35.31-23.15,37-15.15,58.15-35.78,41.48-22.08,43.37-26.47l66-49.27a11.36,11.36,0,0,0,.9-.77c3.12-2.91,19.35-19.68,2.49-39.26-18.51-21.53,8.45-22.86-18.51-21.53a66.39,66.39,0,0,0-34,11.81,11.61,11.61,0,0,1-16.67-3.77,159.67,159.67,0,0,0-8.54-13.63c-5.52-7.66-18.52-25.37-23.32-31.9a11.43,11.43,0,0,0-4.61-3.7c-4.74-2.13-14.29-6.27-20.17-8.22a11.77,11.77,0,0,1-7.4-7.14c-1.69-4.74-3.3-9.47-4.74-14.07a11.61,11.61,0,0,1,5.61-13.76L440.76,317a11.57,11.57,0,0,1,15.5,4.4c4.39,7.65,11.48,18,20.6,24.45,13.05,9.22,36.23,13.09,44.24,14.18a11.47,11.47,0,0,0,5.16-.53c4.23-1.37,12.88-3.44,14.34,2.13,5.22,19.6,18.82,33.4,29.39,41.57a11.61,11.61,0,0,0,18.2-5.94l17.63-59.94a11.63,11.63,0,0,1,1.82-3.64l36.42-49.27a31.34,31.34,0,0,0,3.39-31.49l-6.53-14.49a25,25,0,0,0-20.84-14.6l-18.63-1.4-71.15-1.6a11.57,11.57,0,0,1-8.87-4.47c-3.54-4.5-10.55-9.37-20.48,2.61L490,232.15a11.56,11.56,0,0,1-9.93,4.17l-49.33-4.27a11.43,11.43,0,0,1-2.58-.5c-3.48-1.14-13.6-4.39-20.21-6.09a11.59,11.59,0,0,1-7.06-5.4c-2-3.26-5.58-7.16-5.69-10.81-.79-46.16,34.56-86.11,44.27-96.2A600.49,600.49,0,0,0,255.17,329.22Z"/><rect class="cls-16" x="269.55" y="823.59" width="165.96" height="9.85"/><rect class="cls-17" x="291.79" y="859.08" width="14.54" height="448.02" transform="translate(598.12 2166.19) rotate(180)"/><rect class="cls-18" x="409.53" y="820.8" width="115.36" height="14.07"/><rect class="cls-19" x="445.37" y="700.77" width="43.68" height="132.68"/><rect class="cls-20" x="210.02" y="833.61" width="639.14" height="25.47"/><path class="cls-21" d="M87.35,679.42s-7,98,12.16,109.77c12,7.35,59.85,32.13,58.43,36.78s-27,41.37-27,41.37S39,806.82,36.06,787.75c-2.89-18.63,4.53-143.54,17.16-149.29,9.46-4.31,14.45-.75,26.37,8.11C96.33,659,87.35,679.42,87.35,679.42Z"/><path class="cls-22" d="M200.42,1245.93s-2.86,19.84-3.22,22.82-31.79-1.75-31.79-1.75l-2.54-23.62S196.49,1243.14,200.42,1245.93Z"/><path class="cls-23" d="M197.54,1266.23s10,12,19.59,17.16,24.76,7.27,30.46,12.66c4.11,3.9,15,20.66-25,20.32s-59.29,2.36-63.58-4.06,6.2-47.43,6.2-47.43S174.66,1268.29,197.54,1266.23Z"/><path class="cls-22" d="M401.8,1246.12s-2.86,19.84-3.22,22.82-31.79-1.76-31.79-1.76l-2.54-23.61S397.87,1243.32,401.8,1246.12Z"/><path class="cls-23" d="M398.92,1266.41s10,12,19.59,17.17,45.08,9.49,50.77,14.88c4.11,3.89,11,19.56-45.34,18.09-40-1-59.29,2.37-63.57-4s6.2-47.43,6.2-47.43S375.49,1268.71,398.92,1266.41Z"/><path class="cls-23" d="M99,903.3s114.27,19.34,140.08,23.39,165.76,38.88,183.26,49.49c13.93,8.44-7.31,211.31-12.27,288.7H355l-4-232.16c-66.14,1.65-113.35-15.48-161.51-8.16s-88.33,17.71-118.94-23.34C70.54,1001.22,69.41,912.27,99,903.3Z"/><path class="cls-23" d="M211.67,1265.07,158,1261.75l-5.23-229c-28.48.71-38.24-1.1-61.28-3.89L48.06,928c38,7.59,159.8,38.31,176,48.16C238,984.63,216.63,1187.67,211.67,1265.07Z"/><path class="cls-24" d="M151.64,475s41.89-11.58,57.87,20.94,8.74,94.18-12.37,100-51.48-.88-60.24-21.12-15.76-49-13.66-67.63S140.52,479.4,151.64,475Z"/><path class="cls-24" d="M186.19,589.37s-.46,24.74,2.27,30-58.34,4-58.34,4,9.63-29.7,4.17-55C128.88,543.29,186.19,589.37,186.19,589.37Z"/><path class="cls-25" d="M131,559s3.26,6.64,19.07,5.57,36.65-20.14,43.36-21.84,7.11-5.53,7.11-5.53l3.55,6.32,6.87,1s-4.67-19.11,5.51-25.84-4.59-60.92-56.12-47.85c0,0-39.33,7.21-39.86,29.17S123.36,547.33,131,559Z"/><path class="cls-16" d="M191.67,618.75s-.17-10.08-4.74-11-48-6.94-53.6-4.74l-2.41,13.3S141.72,622.92,191.67,618.75Z"/><path class="cls-24" d="M204.23,532.66c-1.17-8.26-10.56-17.74-15.93-4.88s3.63,31.59,9.66,30.59S205.82,543.86,204.23,532.66Z"/><path class="cls-26" d="M373.57,737.77h-.07C373.81,737.9,373.86,737.91,373.57,737.77Z"/><path class="cls-25" d="M139.42,480.85s-51.08-2.4-8.92,77.33Z"/><polygon class="cls-27" points="25.62 1292.24 29.42 1302.93 189.96 1253.18 182.26 1231.54 25.62 1292.24"/><rect class="cls-27" x="177.22" y="1071.03" width="18.25" height="174.54"/><rect class="cls-28" x="132.53" y="1061.75" width="107.63" height="10.29"/><polygon class="cls-27" points="348.48 1292.24 344.68 1302.93 184.14 1253.18 191.19 1230.18 348.48 1292.24"/><polygon class="cls-27" points="235.37 1301.79 235.37 1314.22 184.14 1253.18 191.19 1230.18 235.37 1301.79"/><circle class="cls-29" cx="348.48" cy="1307.11" r="15"/><path class="cls-29" d="M236.64,1307.11a15,15,0,1,1-15-15A15,15,0,0,1,236.64,1307.11Z"/><path class="cls-29" d="M40.62,1307.11a15,15,0,1,1-15-15A15,15,0,0,1,40.62,1307.11Z"/><rect class="cls-16" x="59.56" y="1022.8" width="254.97" height="38.96" rx="19.23"/><rect class="cls-17" x="752.85" y="859.08" width="14.54" height="448.02"/><rect class="cls-30" x="278.61" y="498.58" width="377.2" height="266.09" rx="19.18"/><rect class="cls-31" x="293.38" y="512.96" width="347.66" height="210.01"/><ellipse class="cls-32" cx="611.58" cy="742.79" rx="14.01" ry="10.81"/><path class="cls-19" d="M545.3,834v-4.74s-6.66-29.45-53.75-29.45S445.42,834,445.42,834Z"/><path class="cls-24" d="M444.85,804.14s10.23-.8,14-3.06,26.17-17.34,31.44-14.93,40.32,13.15,39.1,18.28-4.46,4.63-6.93,3.72-27.92-6.24-30.17-5.35c0,0,25,9.13,25.1,15.78s-5.23,8.28-7.6,10.79-5.22,8.77-11.66,9.25-37.88-10.46-44.35-11-18.45.4-19.27-.65S444.85,804.14,444.85,804.14Z"/><path class="cls-21" d="M258.61,632.71c-32.61-5.73-66.94-14-66.94-14l-60.75-2.48s-55.75,12.27-77.7,22.19c-2.09.94-2.09,49.74-7.81,62.53l18.2,38.4s10.52,76.07,12.7,109.91c1,15.53-2.83,150.1-2.83,150.1s5.45,2.69,46.91,7.26,145-1.65,145.7-6.55-20.06-182.32-21-191.52c-1.41-14.1,4.07-79.26,4.07-79.26,7.81,10.49,27.73,57.87,48.48,80.42,12.21,13.26,72.67,21.39,84.06,21.77,24.81.83,70.06,5.77,71.38,3.35,1.06-1.44,3.95-40.16,1.11-41.11-2.49-.83-86.51-5.66-108-17.09-7.88-4.17-31.42-55.51-31.42-55.51S276.61,640.79,258.61,632.71Z"/><rect class="cls-16" y="751.98" width="175.83" height="243.52" rx="36.93"/><path class="cls-16" d="M144.67,1052.05c-25.91,0-46.94-8.7-62.49-25.87C47,987.37,53.34,919.16,53.63,916.27A9.78,9.78,0,1,1,73.1,918.2c-.08.77-5.68,62.6,23.61,94.89,11.85,13.05,27.54,19.4,48,19.4a9.78,9.78,0,1,1,0,19.56Z"/><rect class="cls-33" x="318.03" y="529.69" width="101.84" height="11.1" rx="2.75"/><rect class="cls-33" x="318.03" y="553.49" width="101.84" height="11.09" rx="2.75"/><rect class="cls-33" x="318.03" y="580.79" width="101.84" height="125.46" rx="9.25"/><rect class="cls-33" x="440.43" y="529.69" width="181.35" height="176.56" rx="14.64"/><path class="cls-21" d="M1040,842.22a54.87,54.87,0,0,0-109.73,0c0,1,0,2.08.09,3.12h-.09c0,41.77,54.86,107.23,54.86,107.23S1040,887.11,1040,845.34h-.1C1040,844.3,1040,843.27,1040,842.22Zm-54.87,35.54a35.54,35.54,0,1,1,35.55-35.54A35.54,35.54,0,0,1,985.13,877.76Z"/><path class="cls-21" d="M1296.56,359.41a54.87,54.87,0,0,0-109.73,0c0,1,0,2.09.1,3.12h-.1c0,41.77,54.87,107.23,54.87,107.23s54.86-65.46,54.86-107.23h-.09C1296.52,361.5,1296.56,360.46,1296.56,359.41ZM1241.7,395a35.54,35.54,0,1,1,35.54-35.54A35.55,35.55,0,0,1,1241.7,395Z"/><path class="cls-21" d="M1149,513a54.87,54.87,0,0,0-109.73,0c0,1.05,0,2.09.09,3.12h-.09c0,41.77,54.86,107.23,54.86,107.23S1149,557.93,1149,516.16h-.1C1148.93,515.13,1149,514.09,1149,513Zm-54.87,35.55A35.55,35.55,0,1,1,1129.65,513,35.55,35.55,0,0,1,1094.1,548.59Z"/><path class="cls-21" d="M306.27,367.21a54.87,54.87,0,0,0-109.73,0c0,1.05,0,2.09.1,3.12h-.1c0,41.77,54.87,107.23,54.87,107.23s54.86-65.46,54.86-107.23h-.09Q306.27,368.79,306.27,367.21Zm-54.86,35.54A35.54,35.54,0,1,1,287,367.21,35.54,35.54,0,0,1,251.41,402.75Z"/><path class="cls-34" d="M1632,1330.79c9.07,2.72,11.8,18.15,19.51,22.68s45.37,7.72,46.73-4.08-15.8-22.37-23.51-28.27-27.38-26.92-30.92-34.63c0,0-2.08,4.58-9.27,4-9.32-.75-11.48-2.89-11.48-2.89-1.49,9.28-2.85,15.61-3.76,19.15C1616.14,1319,1622.94,1328.07,1632,1330.79Z"/><path class="cls-34" d="M1497.14,1333.7c9.08,2.71,11.8,18.14,19.51,22.68s45.37,7.71,46.73-4.08-15.79-22.37-23.51-28.27-27.38-26.92-30.92-34.64c0,0-2.08,4.58-9.27,4-9.32-.76-11.48-2.9-11.48-2.9-1.49,9.29-2.84,15.62-3.76,19.16C1481.26,1321.9,1488.07,1331,1497.14,1333.7Z"/><path class="cls-24" d="M1828.61,673.27s13.11-11.52,15.16-13.22,9.47-2.43,18-2.52,20.22,3.61,21,4.84,2.24,2.07,2.2,5.87a14.45,14.45,0,0,1-2.17,7s2.14,4.71-.77,8.44a7.64,7.64,0,0,1-2.2,8.21s1.66,4.47-1.48,6.9c0,0-7.43.74-10.09,1.81s-18.22,1.56-33.21-.28C1835.15,700.3,1818.54,698.94,1828.61,673.27Z"/><path class="cls-35" d="M1853.94,676.79s-3.35,8.11-5.44,9.91,13.27,11.94,13.27,11.94S1863.68,681.12,1853.94,676.79Z"/><path class="cls-36" d="M1880.62,662.31s-21.74.77-22,4.29,1.71,5,1.71,5l-8.8,4.38s-4.19,6.19,3.77,8.95c0,0-4.52,5.38,3.5,7.12,0,0-1.4,4.88,2.17,6.34s17.53.39,17.53.39,3.09-1.47,1.72-6.82c0,0,4.14-3.33,2.28-8.23,0,0,2.85-3.24.8-8.52,0,0,5.39-7.51-.38-12.83C1882.87,662.37,1881.54,662.27,1880.62,662.31Z"/><path class="cls-24" d="M1858.49,666.39s3.58-20.23,2.47-29.06c-.25-2-.19-2.75-2.14-3.27s-5.19,6.42-7.34,12.53-7.92,13.64-7.92,13.64S1843.37,666.53,1858.49,666.39Z"/><path class="cls-24" d="M1832.56,699.63s-8.33-2.89-13.23-2,9.28-24.38,9.28-24.38Z"/><path class="cls-21" d="M1628.78,524.25s26.24,3,37.24,18,14.63,38.11,17.06,45.73,36.17,79.49,38.4,81.29,33,.58,51.54,1.11c26,.73,57,.1,57,.1l-3.79,37.22s-123.69,2.9-132.24-6.8c-18.87-21.44-61.49-96.15-61.49-96.15S1587.88,544.34,1628.78,524.25Z"/><path class="cls-37" d="M1672.82,609.13s2.56,33.42-4.16,55.21l-7.32-10.47S1673.81,620.55,1672.82,609.13Z"/><path class="cls-26" d="M1543.23,444.17s2.08,26.07-2.68,52.46a320.15,320.15,0,0,1-12.36,47.3l42.55-14.5S1573.4,447.74,1543.23,444.17Z"/><path class="cls-38" d="M1525.76,742s-25.71,33.42-32.69,73.08-6.73,171.07-7,190.67-4.58,64.87-4,107c.48,37.1-1.62,188.42-1.62,188.42l42.34-.66s20.48-156.22,22.76-171.72,9.74-73,10.65-79.42,48.94-178.89,48.94-207.48S1587.75,695.35,1525.76,742Z"/><path class="cls-38" d="M1654,756.59c1.64,9.11,31.23,167.21,33.47,187.6,2.51,22.76,7.12,50.18,6.14,59.61-2.29,21.89-4.21,43.39-4.21,43.39l-31.62,249.9-42.11-.79s-6-142-5.09-172.16,12.65-82.59,9.45-95.76-50.4-162.49-50.4-162.49S1529.39,696.52,1654,756.59Z"/><path class="cls-21" d="M1652,740.43c1.57,10.82,8.59,51.68,8.59,51.68-71.49,23-156.55-12.61-156.55-12.61,1.43-7.84,21.28-63,24.13-68.67s7.12-21.79,2.85-41.65c-1.12-5.25-4.7-16.54-10.93-31.25-2.73-6.44-4.68-11.13-7.57-18.22v0c-12.32-30.15-24.42-62.72-22.14-68.63,4-10.46,23.76-15.21,33.27-16.88s43.74-14.5,43.74-14.5h36.49s43.15,7,47.3,11c8.39,8,15.46,50.57,15.46,50.57,15.68,34.59-3.25,61.47-5.57,69-4.35,14.13-7.27,32.31-8.34,41.58S1651.21,734.91,1652,740.43Z"/><path class="cls-24" d="M1579.54,368.27c13.07-1.43,44.69,7.6,48.73,55.85s-7.61,72.51-18.31,77.74-40.4-3.09-53.72-26.39-29.71-77.49-10.93-92.7S1579.54,368.27,1579.54,368.27Z"/><path class="cls-26" d="M1613.71,415.63s11.5,8.2,15.38,19.07c0,0,8.66-61-43.36-66-39.59-3.81-52.78,28.63-49.39,49.49S1550,462.68,1550,462.68s3.37-11.8,10.43-12.14S1612.46,423.65,1613.71,415.63Z"/><path class="cls-24" d="M1588.09,545.59c-22.34,0-27.38-23.43-27.38-23.43s4.88-31.63-7.64-52.71,50.72,33.91,50.72,33.91-.06,5.15.26,11.32c.34,6.58,1.32,12.68,3,16.55C1607.08,531.23,1610.44,545.59,1588.09,545.59Z"/><path class="cls-24" d="M1565.51,438.3c-2.39-2.32-13.55-6.16-13.79,8.08s15.93,24.72,17.35,14.74S1569.53,442.19,1565.51,438.3Z"/><path class="cls-39" d="M1604.05,514.68c-.77-.22-1.62-.48-2.55-.79a63,63,0,0,1-30.76-22.17c19,13.22,33,11.64,33,11.64S1603.73,508.51,1604.05,514.68Z"/><path class="cls-38" d="M1521.79,642s34-19.41,47.91-42.29l80.5-5.45,18.62,38.51s-25.18,53.7-8.21,159.36c8.22,51.22-156.55-12.61-156.55-12.61S1528.86,701.71,1521.79,642Z"/><path class="cls-38" d="M1569.7,599.69s-16-49.71-37.64-67.71c0,0,5.73-5.81,11.45-3.73,0,0,16.67,9.12,43.88,70.24S1569.7,599.69,1569.7,599.69Z"/><path class="cls-38" d="M1650.2,594.24s-6-46.76-14.45-68.71l-7-1.28s10.41,53.18,9.34,70.81S1650.2,594.24,1650.2,594.24Z"/><rect class="cls-40" x="1473.32" y="606.49" width="166.65" height="176.5"/><path class="cls-24" d="M1590,817.5s-4.11,0-5.91-.85c0,0-3.16-1.83-5.49-3a19.64,19.64,0,0,0-1.83-.83c-1.85-.64-6.09-1.48-10.09-4.26s-18.16-19.17-18.16-19.17l6.69-10.18,4.91-10.41s29.74,1.91,33.76,4.07c.4.21.77.44,1.12.67,3.23,2.16,4.72,5.12,6.29,6.44.57.49,5.94,5.74,5.74,8-.25,3.11-1.68,5.15-3.55,6.17,0,0-.78,6.06-3.76,8.88,0,0-.53,5.61-5.24,8.06C1594.52,811.06,1593.34,816.68,1590,817.5Z"/><path class="cls-21" d="M1532.06,532s-37.42,1.45-47.37,25.74c-12.94,31.57-14.82,41.13-16.93,55.91-2,14-11,52.06-11.86,56s-21.22,50.87-11.91,67.27,104.45,65,103.84,68.65,16.47-36.7,16.47-36.7-38.48-21.44-44.78-28c-10.23-10.73-31.82-22.28-27.38-35.59,5.2-15.63,20.86-68.35,24.49-76.07S1555.21,541.82,1532.06,532Z"/><path class="cls-21" d="M1543.23,444.17s41.88-17.84,86.34-14.45c0,0,7.19-75.55-64.23-60.54C1565.34,369.18,1514.83,379.21,1543.23,444.17Z"/><path class="cls-41" d="M1577,434s36.85-19.13,74.08-15.32-21.54,11.08-21.54,11.08S1597.39,430.58,1577,434Z"/><path class="cls-42" d="M1113.94,1124.08c-.37-.07-9.27-1.83-24.08-6.21l1.16-3.94c14.61,4.31,23.62,6.09,23.71,6.11Z"/><path class="cls-42" d="M1041.94,1100.8a480.09,480.09,0,0,1-45.89-22l2-3.61a474,474,0,0,0,45.48,21.85Zm-89-49.07a385,385,0,0,1-39.42-32.23l2.82-3a379.47,379.47,0,0,0,39,31.89ZM879,982a317.38,317.38,0,0,1-28.24-42.39l3.6-2a313.41,313.41,0,0,0,27.87,41.85ZM829.8,893.19A328.86,328.86,0,0,1,816.53,844l4-.77a323.14,323.14,0,0,0,13.11,48.54Zm-18.56-99.82c-.28-7.3-.43-15.18-.42-23.41,0-8.5.14-17.46.43-27.39l4.12.12c-.3,9.89-.44,18.81-.44,27.27,0,8.18.14,16,.42,23.26Zm6.41-101.26-4.11-.23q.68-12,1.4-24.34.76-13,1.51-26.26l4.11.23c-.49,8.85-1,17.61-1.51,26.27Q818.33,680.08,817.65,692.11Zm5.29-101.25-4.12-.15c.63-17.56.93-33.44.93-48.53v-2.06h4.12v2.07C823.87,557.32,823.56,573.25,822.94,590.86Zm-4.61-101.3c-1-17.54-2.59-34.47-4.7-50.33l4.07-.54c2.13,15.95,3.73,33,4.74,50.63Zm-13.72-100a415.69,415.69,0,0,0-14.35-48.29l3.86-1.42a422,422,0,0,1,14.5,48.77Zm-35-94.18a319.15,319.15,0,0,0-27.26-42.22l3.27-2.5a323.39,323.39,0,0,1,27.62,42.76Zm-60.88-79.54a340,340,0,0,0-39-31.7l2.36-3.37a344.14,344.14,0,0,1,39.48,32.08Zm-82.08-57.7a466.11,466.11,0,0,0-45.91-20.74l1.5-3.83A469.56,469.56,0,0,1,628.6,154.5ZM533,121.3c-15.57-4.52-32.05-8.62-49-12.19l.86-4c17,3.59,33.58,7.72,49.26,12.26Z"/><path class="cls-42" d="M433.71,100.13c-7.94-1.18-16.16-2.28-24.42-3.28l.49-4.09c8.3,1,16.55,2.12,24.53,3.3Z"/><path class="cls-42" d="M381.11,1131.71c0-.09-3.44-8.71-8.09-23.48l3.92-1.23c4.6,14.6,8,23.11,8,23.19Z"/><path class="cls-42" d="M360.05,1060.25c-3.72-16.26-6.81-32.7-9.2-48.87l4.07-.6c2.37,16.07,5.45,32.4,9.14,48.55Zm-14.39-98.33c-.64-10.54-1-21.06-1-31.29,0-6.2.12-12.42.35-18.47l4.11.16c-.23,6-.35,12.16-.35,18.31,0,10.14.32,20.58,1,31Zm8.19-98.69-4.07-.63A369,369,0,0,1,360.71,814l3.94,1.18A363.81,363.81,0,0,0,353.85,863.23Zm28.47-94-3.71-1.78a294.51,294.51,0,0,1,25.21-43l3.36,2.37A292.51,292.51,0,0,0,382.32,769.28Zm56.57-79.9L436,686.47a313.23,313.23,0,0,1,38-32.19l2.41,3.34A308.42,308.42,0,0,0,438.89,689.38Zm79.39-57.55-1.91-3.65a421.26,421.26,0,0,1,45.38-20.38l1.46,3.85A416.64,416.64,0,0,0,518.28,631.83Zm91.86-35.57L609,592.32c16.09-4.84,32-9.76,47.31-14.61l1.24,3.93C642.19,586.49,626.25,591.41,610.14,596.26Zm94.49-30-1.31-3.9c16-5.36,31.72-10.81,46.78-16.19l1.38,3.88C736.39,555.45,720.63,560.91,704.63,566.27ZM798,532.86,796.51,529c15.77-6,31.23-12.21,46-18.32l1.58,3.8C829.28,520.62,813.78,526.8,798,532.86Zm91.55-38.09-1.7-3.74c15.5-7,30.51-14.21,44.61-21.31l1.85,3.68C920.14,480.52,905.08,487.72,889.53,494.77ZM978,450l-2-3.58c14.85-8.45,29-17.11,42.13-25.73l2.26,3.44C1007.23,432.81,993,441.51,978,450Zm82.72-54.82-2.55-3.24a450.25,450.25,0,0,0,37.06-32.43l2.89,2.94A454.76,454.76,0,0,1,1060.76,395.19Zm70.45-69.89-3.27-2.51a297.57,297.57,0,0,0,26.59-41.25l3.63,1.93A301.86,301.86,0,0,1,1131.21,325.3Zm46.46-87.62-3.91-1.3a356.35,356.35,0,0,0,12-47.7l4,.74A361.68,361.68,0,0,1,1177.67,237.68Z"/><path class="cls-42" d="M1196.72,138.92l-4.1-.4c.8-8.14,1.49-16.32,2.13-24.55l4.11.32C1198.21,122.55,1197.52,130.76,1196.72,138.92Z"/><path class="cls-38" d="M1628.78,524.25a15.87,15.87,0,0,1,7,1.28S1631.5,525.87,1628.78,524.25Z"/></svg>