<svg xmlns="http://www.w3.org/2000/svg" xmlns:xlink="http://www.w3.org/1999/xlink" viewBox="0 0 600 400"><defs><style>.cls-1{mask:url(#mask);filter:url(#luminosity-noclip-3);}.cls-2,.cls-4{mix-blend-mode:multiply;}.cls-2{fill:url(#Áåçûìÿííûé_ãðàäèåíò_9);}.cls-3{mask:url(#mask-2);filter:url(#luminosity-noclip-4);}.cls-4{fill:url(#Áåçûìÿííûé_ãðàäèåíò_6);}.cls-10,.cls-46,.cls-5{opacity:0.5;}.cls-26,.cls-5{mix-blend-mode:lighten;}.cls-5{fill:url(#Áåçûìÿííûé_ãðàäèåíò_23);}.cls-6{fill:none;}.cls-7{isolation:isolate;}.cls-8{fill:#06b9d1;}.cls-33,.cls-46,.cls-9{fill:#42e8e0;}.cls-9{opacity:0.1;}.cls-11{opacity:0.67;}.cls-12{fill:#0f054c;}.cls-13{opacity:0.9;}.cls-14{fill:#080344;}.cls-15{fill:url(#Áåçûìÿííûé_ãðàäèåíò_2);}.cls-16{fill:url(#Áåçûìÿííûé_ãðàäèåíò_24);}.cls-17,.cls-32{fill:#24126a;}.cls-18,.cls-22{opacity:0.51;}.cls-19,.cls-22{fill:#453c9e;}.cls-20{fill:url(#Áåçûìÿííûé_ãðàäèåíò_24-2);}.cls-21{fill:url(#Áåçûìÿííûé_ãðàäèåíò_2-2);}.cls-23{opacity:0.3;}.cls-24{clip-path:url(#clip-path);}.cls-25{fill:url(#Áåçûìÿííûé_ãðàäèåíò_16);}.cls-26{opacity:0.8;fill:url(#Áåçûìÿííûé_ãðàäèåíò_56);}.cls-27{fill:#fff;}.cls-28{opacity:0.15;}.cls-29{clip-path:url(#clip-path-2);}.cls-30{fill:url(#Áåçûìÿííûé_ãðàäèåíò_24-3);}.cls-31{fill:url(#Áåçûìÿííûé_ãðàäèåíò_2-3);}.cls-32{opacity:0.4;}.cls-34{fill:url(#Áåçûìÿííûé_ãðàäèåíò_24-4);}.cls-35{fill:#bcbeff;}.cls-36{fill:#5351af;}.cls-37{fill:url(#Áåçûìÿííûé_ãðàäèåíò_24-5);}.cls-38{fill:url(#Áåçûìÿííûé_ãðàäèåíò_24-6);}.cls-39{fill:url(#Áåçûìÿííûé_ãðàäèåíò_24-7);}.cls-40{mask:url(#mask-3);}.cls-41,.cls-53{opacity:0.78;}.cls-41{fill:url(#Áåçûìÿííûé_ãðàäèåíò_14);}.cls-42{fill:url(#Áåçûìÿííûé_ãðàäèåíò_24-9);}.cls-43{fill:url(#Áåçûìÿííûé_ãðàäèåíò_2-4);}.cls-44{fill:url(#Áåçûìÿííûé_ãðàäèåíò_41);}.cls-45{fill:#6767c1;}.cls-47{fill:url(#Áåçûìÿííûé_ãðàäèåíò_24-10);}.cls-48{fill:#a9445e;}.cls-49{fill:url(#Áåçûìÿííûé_ãðàäèåíò_24-11);}.cls-50{fill:url(#Áåçûìÿííûé_ãðàäèåíò_24-12);}.cls-51{fill:url(#Áåçûìÿííûé_ãðàäèåíò_24-13);}.cls-52{mask:url(#mask-4);}.cls-53{fill:url(#Áåçûìÿííûé_ãðàäèåíò_14-2);}.cls-54{fill:url(#Áåçûìÿííûé_ãðàäèåíò_24-15);}.cls-55{fill:url(#Áåçûìÿííûé_ãðàäèåíò_2-5);}.cls-56{fill:url(#Áåçûìÿííûé_ãðàäèåíò_41-2);}.cls-57{fill:url(#Áåçûìÿííûé_ãðàäèåíò_24-16);}.cls-58{fill:url(#Áåçûìÿííûé_ãðàäèåíò_25);}.cls-59{fill:url(#linear-gradient);}.cls-60{fill:#8f3251;}.cls-61{filter:url(#luminosity-noclip-2);}.cls-62{filter:url(#luminosity-noclip);}</style><filter id="luminosity-noclip" x="496.2" y="-8392" width="36.31" height="32766" filterUnits="userSpaceOnUse" color-interpolation-filters="sRGB"><feFlood flood-color="#fff" result="bg"/><feBlend in="SourceGraphic" in2="bg"/></filter><mask id="mask" x="496.2" y="-8392" width="36.31" height="32766" maskUnits="userSpaceOnUse"><g class="cls-62"/></mask><linearGradient id="Áåçûìÿííûé_ãðàäèåíò_9" x1="-217.22" y1="142.73" x2="-180.91" y2="142.73" gradientTransform="matrix(-1, 0, 0, 1, 315.29, 0)" gradientUnits="userSpaceOnUse"><stop offset="0"/><stop offset="0.05" stop-color="#2f2f2f"/><stop offset="0.1" stop-color="#5a5a5a"/><stop offset="0.15" stop-color="#828282"/><stop offset="0.22" stop-color="#a4a4a4"/><stop offset="0.28" stop-color="silver"/><stop offset="0.36" stop-color="#d7d7d7"/><stop offset="0.44" stop-color="#e9e9e9"/><stop offset="0.54" stop-color="#f6f6f6"/><stop offset="0.68" stop-color="#fdfdfd"/><stop offset="1" stop-color="#fff"/></linearGradient><filter id="luminosity-noclip-2" x="419.92" y="-8392" width="36.31" height="32766" filterUnits="userSpaceOnUse" color-interpolation-filters="sRGB"><feFlood flood-color="#fff" result="bg"/><feBlend in="SourceGraphic" in2="bg"/></filter><mask id="mask-2" x="419.92" y="-8392" width="36.31" height="32766" maskUnits="userSpaceOnUse"><g class="cls-61"/></mask><linearGradient id="Áåçûìÿííûé_ãðàäèåíò_6" x1="-140.94" y1="181.86" x2="-104.63" y2="181.86" xlink:href="#Áåçûìÿííûé_ãðàäèåíò_9"/><radialGradient id="Áåçûìÿííûé_ãðàäèåíò_23" cx="403.92" cy="268.15" r="155.59" gradientUnits="userSpaceOnUse"><stop offset="0" stop-color="#42e8e0"/><stop offset="0.11" stop-color="#37b6bf"/><stop offset="0.22" stop-color="#2c87a1"/><stop offset="0.34" stop-color="#235f87"/><stop offset="0.46" stop-color="#1c3f72"/><stop offset="0.58" stop-color="#162561"/><stop offset="0.71" stop-color="#121355"/><stop offset="0.85" stop-color="#10084e"/><stop offset="1" stop-color="#0f054c"/></radialGradient><linearGradient id="Áåçûìÿííûé_ãðàäèåíò_2" x1="172.15" y1="178.86" x2="346.08" y2="178.86" gradientTransform="matrix(-1, 0, 0, 1, 709.14, 0)" gradientUnits="userSpaceOnUse"><stop offset="0" stop-color="#c0bff6"/><stop offset="0.29" stop-color="#c5c4f7"/><stop offset="0.64" stop-color="#d3d2f9"/><stop offset="1" stop-color="#e9e9fd"/></linearGradient><linearGradient id="Áåçûìÿííûé_ãðàäèåíò_24" x1="172.16" y1="223.46" x2="202.02" y2="223.46" gradientTransform="matrix(-1, 0, 0, 1, 709.14, 0)" gradientUnits="userSpaceOnUse"><stop offset="0" stop-color="#5761d7"/><stop offset="0.18" stop-color="#5c66d9"/><stop offset="0.39" stop-color="#6a73df"/><stop offset="0.61" stop-color="#8289e8"/><stop offset="0.85" stop-color="#a3a7f5"/><stop offset="1" stop-color="#bcbeff"/></linearGradient><linearGradient id="Áåçûìÿííûé_ãðàäèåíò_24-2" x1="195.46" y1="272.13" x2="441.1" y2="272.13" xlink:href="#Áåçûìÿííûé_ãðàäèåíò_24"/><linearGradient id="Áåçûìÿííûé_ãðàäèåíò_2-2" x1="277.99" y1="265.41" x2="523.77" y2="265.41" xlink:href="#Áåçûìÿííûé_ãðàäèåíò_2"/><clipPath id="clip-path"><path class="cls-5" d="M269.31,246.37l149,86.05a6.15,6.15,0,0,0,5.51.23l88.93-51.35c1.41-.81,1.23-2.24-.4-3.18l-149-86a6.08,6.08,0,0,0-5.51-.23l-88.93,51.34C267.5,244,267.68,245.43,269.31,246.37Z"/></clipPath><radialGradient id="Áåçûìÿííûé_ãðàäèåíò_16" cx="-2450.29" cy="5384.76" r="97.23" gradientTransform="translate(-1538.79 6053.49) rotate(180) scale(0.78 1.06)" gradientUnits="userSpaceOnUse"><stop offset="0" stop-color="#c0bff6"/><stop offset="1" stop-color="#393091"/></radialGradient><linearGradient id="Áåçûìÿííûé_ãðàäèåíò_56" x1="267.61" y1="262.25" x2="514.08" y2="262.25" xlink:href="#Áåçûìÿííûé_ãðàäèåíò_23"/><clipPath id="clip-path-2"><polygon class="cls-6" points="532.84 166.84 381.57 79.55 362.56 192.55 513.73 279.79 532.84 166.84"/></clipPath><linearGradient id="Áåçûìÿííûé_ãðàäèåíò_24-3" x1="101" y1="218.07" x2="346.64" y2="218.07" xlink:href="#Áåçûìÿííûé_ãðàäèåíò_24"/><linearGradient id="Áåçûìÿííûé_ãðàäèåíò_2-3" x1="183.54" y1="211.35" x2="429.31" y2="211.35" xlink:href="#Áåçûìÿííûé_ãðàäèåíò_2"/><linearGradient id="Áåçûìÿííûé_ãðàäèåíò_24-4" x1="-217.23" y1="211.13" x2="-144.6" y2="211.13" gradientTransform="matrix(-1, 0, 0, 1, 315.29, 0)" xlink:href="#Áåçûìÿííûé_ãðàäèåíò_24"/><linearGradient id="Áåçûìÿííûé_ãðàäèåíò_24-5" x1="-217.23" y1="191.59" x2="-144.6" y2="191.59" gradientTransform="matrix(-1, 0, 0, 1, 315.29, 0)" xlink:href="#Áåçûìÿííûé_ãðàäèåíò_24"/><linearGradient id="Áåçûìÿííûé_ãðàäèåíò_24-6" x1="-217.23" y1="171.65" x2="-144.6" y2="171.65" gradientTransform="matrix(-1, 0, 0, 1, 315.29, 0)" xlink:href="#Áåçûìÿííûé_ãðàäèåíò_24"/><linearGradient id="Áåçûìÿííûé_ãðàäèåíò_24-7" x1="-217.23" y1="151.71" x2="-144.6" y2="151.71" gradientTransform="matrix(-1, 0, 0, 1, 315.29, 0)" xlink:href="#Áåçûìÿííûé_ãðàäèåíò_24"/><filter id="luminosity-noclip-3" x="496.2" y="133.01" width="36.31" height="19.44" filterUnits="userSpaceOnUse" color-interpolation-filters="sRGB"><feFlood flood-color="#fff" result="bg"/><feBlend in="SourceGraphic" in2="bg"/></filter><mask id="mask-3" x="496.2" y="133.01" width="36.31" height="19.44" maskUnits="userSpaceOnUse"><g class="cls-1"><path class="cls-2" d="M529.17,152.45h-33V133h31.3C533.57,139,534.13,146.26,529.17,152.45Z"/></g></mask><linearGradient id="Áåçûìÿííûé_ãðàäèåíò_14" x1="-217.22" y1="142.73" x2="-180.91" y2="142.73" gradientTransform="matrix(-1, 0, 0, 1, 315.29, 0)" gradientUnits="userSpaceOnUse"><stop offset="0" stop-color="#e9e9fd"/><stop offset="0.04" stop-color="#d3d5f7"/><stop offset="0.11" stop-color="#b2b6ef"/><stop offset="0.18" stop-color="#969be7"/><stop offset="0.27" stop-color="#7f86e1"/><stop offset="0.36" stop-color="#6d75dd"/><stop offset="0.48" stop-color="#606ad9"/><stop offset="0.64" stop-color="#5963d8"/><stop offset="1" stop-color="#5761d7"/></linearGradient><linearGradient id="Áåçûìÿííûé_ãðàäèåíò_24-9" x1="-199.56" y1="141.69" x2="-162.27" y2="141.69" gradientTransform="matrix(-1, 0, 0, 1, 315.29, 0)" xlink:href="#Áåçûìÿííûé_ãðàäèåíò_24"/><linearGradient id="Áåçûìÿííûé_ãðàäèåíò_2-4" x1="-199.56" y1="137.55" x2="-162.27" y2="137.55" gradientTransform="matrix(-1, 0, 0, 1, 315.29, 0)" xlink:href="#Áåçûìÿííûé_ãðàäèåíò_2"/><linearGradient id="Áåçûìÿííûé_ãðàäèåíò_41" x1="-193.47" y1="134.96" x2="-168.36" y2="134.96" gradientTransform="matrix(-1, 0, 0, 1, 315.29, 0)" gradientUnits="userSpaceOnUse"><stop offset="0" stop-color="#bcbeff"/><stop offset="0.15" stop-color="#a3a7f5"/><stop offset="0.39" stop-color="#8289e8"/><stop offset="0.61" stop-color="#6a73df"/><stop offset="0.82" stop-color="#5c66d9"/><stop offset="1" stop-color="#5761d7"/></linearGradient><linearGradient id="Áåçûìÿííûé_ãðàäèåíò_24-10" x1="-140.94" y1="250.26" x2="-68.32" y2="250.26" gradientTransform="matrix(-1, 0, 0, 1, 315.29, 0)" xlink:href="#Áåçûìÿííûé_ãðàäèåíò_24"/><linearGradient id="Áåçûìÿííûé_ãðàäèåíò_24-11" x1="-140.94" y1="230.72" x2="-68.32" y2="230.72" gradientTransform="matrix(-1, 0, 0, 1, 315.29, 0)" xlink:href="#Áåçûìÿííûé_ãðàäèåíò_24"/><linearGradient id="Áåçûìÿííûé_ãðàäèåíò_24-12" x1="-140.94" y1="210.78" x2="-68.32" y2="210.78" gradientTransform="matrix(-1, 0, 0, 1, 315.29, 0)" xlink:href="#Áåçûìÿííûé_ãðàäèåíò_24"/><linearGradient id="Áåçûìÿííûé_ãðàäèåíò_24-13" x1="-140.94" y1="190.83" x2="-68.32" y2="190.83" gradientTransform="matrix(-1, 0, 0, 1, 315.29, 0)" xlink:href="#Áåçûìÿííûé_ãðàäèåíò_24"/><filter id="luminosity-noclip-4" x="419.92" y="172.14" width="36.31" height="19.44" filterUnits="userSpaceOnUse" color-interpolation-filters="sRGB"><feFlood flood-color="#fff" result="bg"/><feBlend in="SourceGraphic" in2="bg"/></filter><mask id="mask-4" x="419.92" y="172.14" width="36.31" height="19.44" maskUnits="userSpaceOnUse"><g class="cls-3"><path class="cls-4" d="M452.89,191.58h-33V172.14h31.3C457.29,178.08,457.85,185.39,452.89,191.58Z"/></g></mask><linearGradient id="Áåçûìÿííûé_ãðàäèåíò_14-2" x1="-140.94" y1="181.86" x2="-104.63" y2="181.86" xlink:href="#Áåçûìÿííûé_ãðàäèåíò_14"/><linearGradient id="Áåçûìÿííûé_ãðàäèåíò_24-15" x1="-123.28" y1="180.82" x2="-85.99" y2="180.82" gradientTransform="matrix(-1, 0, 0, 1, 315.29, 0)" xlink:href="#Áåçûìÿííûé_ãðàäèåíò_24"/><linearGradient id="Áåçûìÿííûé_ãðàäèåíò_2-5" x1="-123.28" y1="176.68" x2="-85.99" y2="176.68" gradientTransform="matrix(-1, 0, 0, 1, 315.29, 0)" xlink:href="#Áåçûìÿííûé_ãðàäèåíò_2"/><linearGradient id="Áåçûìÿííûé_ãðàäèåíò_41-2" x1="-117.18" y1="174.09" x2="-92.08" y2="174.09" xlink:href="#Áåçûìÿííûé_ãðàäèåíò_41"/><linearGradient id="Áåçûìÿííûé_ãðàäèåíò_24-16" x1="-280.06" y1="-233.7" x2="-184.81" y2="-233.7" gradientTransform="matrix(-0.87, -0.5, 0, 1.15, 175.5, 399.04)" xlink:href="#Áåçûìÿííûé_ãðàäèåíò_24"/><radialGradient id="Áåçûìÿííûé_ãðàäèåíò_25" cx="-83.36" cy="244.45" fx="-120.46607070856027" fy="231.36061618858102" r="39.35" gradientTransform="matrix(-1, 0, 0, 1, 315.29, 0)" gradientUnits="userSpaceOnUse"><stop offset="0" stop-color="#2b237c"/><stop offset="1" stop-color="#180d5b"/></radialGradient><linearGradient id="linear-gradient" x1="-102.74" y1="256.81" x2="-7.92" y2="256.81" gradientTransform="matrix(-1, 0, 0, 1, 315.29, 0)" gradientUnits="userSpaceOnUse"><stop offset="0" stop-color="#8c1b3d"/><stop offset="0.23" stop-color="#8d1e3f"/><stop offset="0.4" stop-color="#8e2747"/><stop offset="0.54" stop-color="#913753"/><stop offset="0.68" stop-color="#954d64"/><stop offset="0.8" stop-color="#9b6a7b"/><stop offset="0.92" stop-color="#a18d96"/><stop offset="1" stop-color="#a6a8ab"/></linearGradient></defs><title>Bigdata</title><g class="cls-7"><g id="Ñëîé_1" data-name="Ñëîé 1"><path class="cls-8" d="M583.37,39.73a4.94,4.94,0,0,0-4.49,0c-.94.53-1.17,1.32-.7,2L508.66,81.86v50.67l-16.94,9.77v55.12l-58,33.5-9-5.22,44.74-25.83V169.65l-.18-.1-50.87-29.37V129.94l28.77-16.61a5,5,0,0,0,4.1-.19c1.24-.71,1.24-1.87,0-2.59a4.94,4.94,0,0,0-4.49,0c-1.12.65-1.22,1.65-.32,2.37l-28.77,16.61v11.06l.18.11,50.87,29.36v29.39L434.88,219V206.38l15.5-8.94a5,5,0,0,0,4.1-.19c1.24-.71,1.24-1.87,0-2.59a4.94,4.94,0,0,0-4.49,0c-1.12.65-1.22,1.65-.32,2.37L434.17,206v13.41L424,225.29l-12.09-7V196.38l22.8-13.16V168.06l-.18-.1-48-27.71c.9-.72.8-1.73-.32-2.37a4.94,4.94,0,0,0-4.49,0c-1.24.72-1.24,1.88,0,2.59a5,5,0,0,0,4.1.19L434,168.48v14.33l-22.09,12.75V180.45l-.18-.1-29.37-17c.9-.71.8-1.72-.32-2.36a4.94,4.94,0,0,0-4.49,0c-1.24.71-1.24,1.87,0,2.59a5,5,0,0,0,4.1.19l29.55,17.05v37l-8.5-4.9-14,8.08L376,213.75V196l-.18-.1-33.5-19.34V159.77a4.42,4.42,0,0,0,1.89-.52c1.24-.71,1.24-1.87,0-2.59a4.94,4.94,0,0,0-4.49,0c-1.24.72-1.24,1.88,0,2.59a4.42,4.42,0,0,0,1.89.52v17.17l.18.1,33.5,19.34v17l-54.53-31.48V148.49l29.57-17.07h27.13l.09,0,46.56-26.88a5,5,0,0,0,4.1-.19c1.24-.71,1.24-1.87,0-2.59a5,5,0,0,0-4.49,0c-1.12.65-1.22,1.65-.32,2.37l-46.13,26.63H351.56L437.1,81.32a5,5,0,0,0,4.1-.18,1.37,1.37,0,0,0,0-2.6,5,5,0,0,0-4.49,0c-1.12.65-1.22,1.65-.32,2.37L320,148.08v34.19l.18.11L388,221.48l-13.63,7.87L258.68,162.59V122.75l-.18-.1L219.18,99.94c.9-.71.8-1.72-.32-2.36a4.94,4.94,0,0,0-4.49,0c-1.24.71-1.24,1.87,0,2.59a5,5,0,0,0,4.1.18L258,123.16V163l.18.1,115.46,66.66-13,7.49-114.36-66h-68.2l-42.62-24.61V108.8a3.66,3.66,0,0,0,1.23-.43c1.24-.72,1.24-1.88,0-2.59a4.94,4.94,0,0,0-4.49,0c-1.24.71-1.24,1.87,0,2.59a4.76,4.76,0,0,0,2.55.52V147l.18.1,43,24.81h68.2l96.54,55.74H323.2l-32.95-19H264.87l-.08,0L229.59,229a5,5,0,0,0-4.1.19c-1.24.71-1.24,1.87,0,2.59a5,5,0,0,0,4.5,0c1.11-.65,1.21-1.65.31-2.37l34.77-20.06h25l32.95,19h20.84l16.07,9.27-34.64,20L315.43,252V237.05l-25-14.45c.9-.71.8-1.72-.31-2.36a5,5,0,0,0-4.5,0c-1.24.71-1.24,1.87,0,2.59a5,5,0,0,0,4.1.18l25,14.45v14.11L288,236.16H275.39l-.08.05-15.06,8.7a5,5,0,0,0-4.1.18c-1.24.72-1.24,1.88,0,2.59a4.94,4.94,0,0,0,4.49,0c1.12-.64,1.22-1.65.32-2.36l14.63-8.45h12.25l36.73,21.21-6.67,3.85,21.29,12.29-10,5.76H314.14l-10.79-6.23c.86-.72.75-1.7-.36-2.34a4.94,4.94,0,0,0-4.49,0c-1.24.72-1.24,1.88,0,2.59a5,5,0,0,0,4.15.16l11.3,6.53h14l-25.43,14.68-59.82-34.54H199.69l-.08.05-24.23,14a5,5,0,0,0-4.1.18,1.37,1.37,0,0,0,0,2.6,5,5,0,0,0,4.49,0c1.11-.65,1.21-1.65.32-2.37l23.79-13.74h42.67l46.14,26.64H268.94L249.63,277c.9-.71.8-1.72-.32-2.36a4.94,4.94,0,0,0-4.49,0c-1.24.71-1.24,1.87,0,2.59a5,5,0,0,0,4.1.18l19.83,11.45h21.17l11.93,6.89-30.37,17.53H174.41L99,269.78c.89-.72.79-1.72-.32-2.37a4.94,4.94,0,0,0-4.49,0c-1.25.72-1.25,1.88,0,2.59a5,5,0,0,0,4.1.19L174.22,314h96l-12.05,7H186.35l-.08,0-35.44,20.46a5,5,0,0,0-4.1.18c-1.24.72-1.24,1.88,0,2.59a4.94,4.94,0,0,0,4.49,0c1.12-.64,1.22-1.65.32-2.36l35-20.21h71.85l.08-.05,81.43-47,9,5.22-85.61,49.43H200.72l-.08,0L125,373H20.25L0,361.29v.82L20.06,373.7H125.21l.08-.05,47.46-27.4v16.22l-31.28,18.06a5,5,0,0,0-4.1.18c-1.24.72-1.24,1.88,0,2.59a4.94,4.94,0,0,0,4.49,0c1.12-.64,1.22-1.65.32-2.36l31.28-18.06V345.93h-.16L200.92,330h62.6l.08-.05,86-49.68,10.27,5.93L193,382.58V400h.71V383l167-96.39,12.69,7.33-86.13,49.72v8.89l-15.27,8.81V381.8l-29.61,17.1a5,5,0,0,0-4.1.18,1.87,1.87,0,0,0-.86.92h6.2a1.53,1.53,0,0,0-.53-.69l29.61-17.1V361.76l14.56-8.4V386.1l8.6,5L280.3,400h1.42l14.78-8.53L311.27,400h1.42L287.9,385.69V344.06L374,294.34,385.58,301l-60.95,35.19a5,5,0,0,0-4.1.19c-1.24.71-1.24,1.87,0,2.59a5,5,0,0,0,4.49,0c1.12-.65,1.22-1.65.32-2.37l61-35.19,11.15,6.44-72.91,42.09H304.72a1.88,1.88,0,0,0-.87-.94,5,5,0,0,0-4.49,0,1.37,1.37,0,0,0,0,2.6,5,5,0,0,0,4.49,0,1.86,1.86,0,0,0,.87-1h20l.09,0,73.34-42.35,4.5,2.6,3.47-2L423.58,319v14l-14.43,8.33v0H386.51l-.09,0-24.85,14.35a5,5,0,0,0-4.09.18,1.37,1.37,0,0,0,0,2.6,5,5,0,0,0,4.49,0c1.11-.65,1.21-1.65.32-2.37L386.7,342H408l-42.43,24.49a5,5,0,0,0-4.19.14,1.37,1.37,0,0,0,0,2.6,5,5,0,0,0,4.49,0c1.09-.63,1.22-1.61.39-2.32l52.92-30.55v6.75l-31.48,18.18v12.83l-25.63,14.8a5,5,0,0,0-4.1.19c-1.24.71-1.24,1.87,0,2.59a4.94,4.94,0,0,0,4.49,0c1.11-.65,1.21-1.65.32-2.37l25.63-14.8V361.69l31.48-18.18v-7.57l4.41-2.55V318.54l-17.46-10.09,11.48-6.63,35.94,20.76v23.59l-24.41,14.09a5,5,0,0,0-4.19.14c-1.24.72-1.24,1.88,0,2.59a4.94,4.94,0,0,0,4.49,0c1.1-.63,1.22-1.6.4-2.31L454.25,347V366l-18.74,10.82V400h.71V377.27l18-10.4V400H455V322.16L419,301.41,431.91,294l47,27.12v64.6l22.58,13V400h.71v-1.68l-22.58-13v-64.6l-47-27.12,9.55-5.51,63.4,36.6v55.11L540.62,400H542l-35.76-20.65V324.24l-63.4-36.61,15.48-8.93,105.49,60.9V367L600,387.89v-.82l-35.44-20.46V339.19l-59.33-34.26h46.92L600,332.56v-.82l-47.66-27.52H504l-44.92-25.93,18-10.39,38.61,22.29h62L600,303.07v-.82l-4.89-2.82H600v-.71h-6.12l-16-9.24h-62l-10.8-6.24h26.36l.08-.05,13.22-7.63h55.09l.18.1v-.81H546l14.89-8.6a5,5,0,0,0,4.1-.18c1.24-.72,1.24-1.88,0-2.59a4.94,4.94,0,0,0-4.49,0c-1.12.64-1.22,1.65-.32,2.36l-28.9,16.69h-27.4l-26.06-15,9.63-5.56-6.2-3.58h18l23.54,13.59c-.9.72-.8,1.72.32,2.37a5,5,0,0,0,4.49,0c1.24-.72,1.24-1.88,0-2.59a5,5,0,0,0-4.1-.19l-24.06-13.89H480L466.81,250l8.1-4.68h14.37l12.64-7.29h9.43l21.3,12.29c-1,.72-.88,1.75.26,2.41a5,5,0,0,0,4.49,0c1.24-.72,1.24-1.88,0-2.59a5,5,0,0,0-4-.22l-21.83-12.61h-9.81l-12.64,7.3H476.14l25.91-15h14l29.16,16.84H600v-.71H545.38L516.23,229H501.86l-.09.05-35.67,20.6-9.37-5.4,40.32-23.28h28.44l23.45,13.54H600v-.71H549.14l-22.23-12.83H600v-.71H496.86l-.08.05L456,243.8l-10.63-6.14,56.22-32.45H600v-.71H528.3L600,163.1v-.82l-73.12,42.21H502.12l53.31-30.78v-6.78l25.5-14.73A5,5,0,0,0,585,152a1.37,1.37,0,0,0,0-2.6,5,5,0,0,0-4.49,0c-1.12.65-1.22,1.65-.32,2.37l-13.89,8V141.23L600,121.8V121l-34.38,19.85v19.41l-10.9,6.3v6.78l-53.74,31,.18.31-56.48,32.6-10.27-5.92,58-33.5V142.71L600,80.61v-.82l-90.63,52.33V82.27l69.36-40,.15.1a5,5,0,0,0,4.49,0C584.61,41.6,584.61,40.44,583.37,39.73ZM486,261.93,402.65,310l-83.33-48.11,83.33-48.12Z"/><path class="cls-9" d="M600,125.94l-14.81,8.56v27.55L453.59,238l-10-5.77,67.88-39.19v-7l12-6.95V163l23.34-13.48a4,4,0,0,0,3.23-.14,1.09,1.09,0,0,0,0-2,3.94,3.94,0,0,0-3.54,0c-.88.51-1,1.3-.26,1.87L523,162.67v16.12l-11.48,6.62v-25.8l-.14-.08-6.63-3.83,39.79-23V106.88l28.27-16.32a4,4,0,0,0,3.23-.14,1.08,1.08,0,0,0,0-2,3.91,3.91,0,0,0-3.54,0c-.88.5-1,1.3-.25,1.86l-28.27,16.32V132.4l-39.79,23L439.44,118V89.12a3.5,3.5,0,0,0,1.49-.41,1.08,1.08,0,0,0,0-2,3.88,3.88,0,0,0-3.54,0,1.08,1.08,0,0,0,0,2,3.58,3.58,0,0,0,1.49.41v29.22l.14.09,38.92,22.46H449.58l-22.93-13.24c.71-.56.63-1.35-.26-1.86a3.86,3.86,0,0,0-3.53,0,1.08,1.08,0,0,0,0,2,4,4,0,0,0,3.23.15l23.34,13.47h29.46l32,18.49v32.81L443,231.93l-9.1-5.25,48-27.74a4,4,0,0,0,3.23-.14,1.08,1.08,0,0,0,0-2.05,3.92,3.92,0,0,0-3.53,0c-.89.51-1,1.3-.26,1.87l-48,27.73-8.78-5.07L482,188.1h15.62a1.42,1.42,0,0,0,.68.75,3.94,3.94,0,0,0,3.54,0,1.08,1.08,0,0,0,0-2,3.94,3.94,0,0,0-3.54,0,1.44,1.44,0,0,0-.68.74H481.89l-.07,0L424,221l-3.54-2.05-.14.08-2.59,1.49L404,212.54V201.47l11.37-6.56v0h17.85l19.65-11.35a4,4,0,0,0,3.23-.14,1.08,1.08,0,0,0,0-2,3.94,3.94,0,0,0-3.54,0c-.89.51-1,1.3-.26,1.87L433,194.38H416.26l33.44-19.31A4,4,0,0,0,453,175a1.08,1.08,0,0,0,0-2.05,3.94,3.94,0,0,0-3.54,0c-.86.5-1,1.27-.31,1.83l-41.7,24.08V193.5l24.81-14.33V169.05l20.21-11.66a4,4,0,0,0,3.23-.15,1.08,1.08,0,0,0,0-2,3.94,3.94,0,0,0-3.54,0c-.88.51-1,1.3-.26,1.87l-20.2,11.66v10.12l-24.81,14.32v6l-3.48,2v11.71l13.77,7.95L408.13,226,379.8,209.67V191.08L399,180a3.92,3.92,0,0,0,3.3-.11,1.08,1.08,0,0,0,0-2,3.88,3.88,0,0,0-3.54,0c-.86.5-1,1.26-.31,1.82L379.8,190.43v-15l14.77-8.52V138.63a3.31,3.31,0,0,0,1.49-.41,1.08,1.08,0,0,0,0-2,3.94,3.94,0,0,0-3.54,0,1.08,1.08,0,0,0,0,2,3.24,3.24,0,0,0,1.49.41v27.94l-14.2,8.2V124.94h-.56V210l28.33,16.36-10.16,5.86-37-21.38V159.93l-17.79-10.28V130.5l-15.72-9.07c.71-.57.63-1.36-.25-1.87a3.94,3.94,0,0,0-3.54,0,1.08,1.08,0,0,0,0,2,4,4,0,0,0,3.23.14L342,130.83V150l17.8,10.27v50.92l37,21.37-7.53,4.35-50-28.85V164.6l-.14-.08L295,139c.71-.56.63-1.35-.25-1.86a3.88,3.88,0,0,0-3.54,0,1.08,1.08,0,0,0,0,2,4,4,0,0,0,3.23.15l44.38,25.61v43.44l.14.09,49.83,28.77-12.2,7-83.15-48V174.64l-.14-.08-69.6-40.18c.71-.57.63-1.36-.25-1.87a3.94,3.94,0,0,0-3.54,0,1.08,1.08,0,0,0,0,2,4,4,0,0,0,3.23.15L292.85,175v21.61l.14.08,46.63,26.92h-37l-42.81-24.72c.71-.56.63-1.35-.25-1.86a3.88,3.88,0,0,0-3.54,0,1.08,1.08,0,0,0,0,2,4,4,0,0,0,3.23.15l43.22,24.95h38.11L376,244.58l-14.18,8.19L331.38,235.2H282.51l-55.58-32.09H196.09l-12.57-7.25c.71-.57.63-1.36-.25-1.87a3.94,3.94,0,0,0-3.54,0,1.08,1.08,0,0,0,0,2,4,4,0,0,0,3.23.15l13,7.49h30.84l42,24.25H232.5L215,217.83c.71-.56.63-1.35-.25-1.86a3.88,3.88,0,0,0-3.54,0,1.08,1.08,0,0,0,0,2,4,4,0,0,0,3.23.15l17.88,10.32h37.4l12.61,7.28h48.87l8.51,4.92H319l-.07,0-10.42,6H265.06l-12.24-7.07H228.26a1.51,1.51,0,0,0-.69-.74,3.94,3.94,0,0,0-3.54,0,1.08,1.08,0,0,0,0,2.05,3.94,3.94,0,0,0,3.54,0,1.52,1.52,0,0,0,.69-.75h24.41l12.24,7.07h42.6l-11.73,6.78a4,4,0,0,0-3.23.14,1.08,1.08,0,0,0,0,2,3.94,3.94,0,0,0,3.54,0c.88-.51,1-1.3.25-1.87l22.78-13.15h21.59l20.54,11.86-7.59,4.38.42.24,4.46,2.58H344.35l-18.56-10.72c.71-.56.63-1.35-.25-1.86a3.88,3.88,0,0,0-3.54,0,1.08,1.08,0,0,0,0,2,4,4,0,0,0,3.23.15l19,11h15.31l10.39,6-6.39,3.68H352.19l-.07,0-9.9,5.71h-7.43L318,266.6c.75-.57.69-1.38-.21-1.9a3.94,3.94,0,0,0-3.54,0,1.08,1.08,0,0,0,0,2.05,4,4,0,0,0,3.17.17l17.21,9.93h7.74l.06,0,9.9-5.72h10.2l-20.41,11.79h-11l-23-13.27h-69.3l-43-24.81c.74-.57.68-1.38-.22-1.89a3.88,3.88,0,0,0-3.54,0,1.08,1.08,0,0,0,0,2,4,4,0,0,0,3.19.17l43.41,25.05H308l23,13.27h11.33l.06,0,28.12-16.23,7.38,4.26-31.78,18.35H323.65l-18.49-10.68H257.71a1.51,1.51,0,0,0-.69-.74,3.88,3.88,0,0,0-3.54,0,1.08,1.08,0,0,0,0,2,3.88,3.88,0,0,0,3.54,0,1.44,1.44,0,0,0,.68-.74H305l17.52,10.12H255.66l-.07,0-63.72,36.8a4,4,0,0,0-3.23.14,1.08,1.08,0,0,0,0,2,3.88,3.88,0,0,0,3.54,0c.88-.5,1-1.3.25-1.86l63.38-36.59h90.4l.07,0,32.12-18.55,8.38,4.84-44.31,25.59h-78l-.07,0-68.32,39.45H116.45L70,314.87c.71-.57.63-1.36-.25-1.87a3.94,3.94,0,0,0-3.54,0,1.08,1.08,0,0,0,0,2,4,4,0,0,0,3.23.15l46.84,27h79.91l.06,0,68.33-39.44h56.83L238,350.93v12.68l-33.29,19.22a4,4,0,0,0-3.23.15,1.08,1.08,0,0,0,0,2,3.94,3.94,0,0,0,3.54,0c.88-.51,1-1.3.25-1.87l33.29-19.21V351.25l84-48.5h19.51l-42,24.25v5.35L280,344a4,4,0,0,0-3.23.15,1.08,1.08,0,0,0,0,2,3.88,3.88,0,0,0,3.54,0c.88-.51,1-1.3.25-1.86L291.45,338v14.65l-63.23,36.51a4,4,0,0,0-3.23.14,1.08,1.08,0,0,0,0,2.05,3.94,3.94,0,0,0,3.54,0c.88-.51,1-1.3.25-1.87L292,352.93V337.64l8.6-5v-5.34L343,302.87l-.14-.24,44.51-25.7,8.1,4.67L349.71,308v43.44L265.6,400h1.12l69.64-40.2v39.28l-1.58.92h1.12l1-.59V359.47l13.35-7.71V308.32L396,281.92l7.12,4.11-35.26,20.36v23.82l.14.08,40.09,23.15v8.07L385.42,374.6a4,4,0,0,0-3.23.15,1.08,1.08,0,0,0,0,2,3.88,3.88,0,0,0,3.54,0c.88-.51,1-1.3.25-1.86l22.67-13.09v-8.73l-.14-.08-40.09-23.15V306.72l26.64-15.38v9.92l-12.21,7.05a4,4,0,0,0-3.23.14,1.08,1.08,0,0,0,0,2.05,3.94,3.94,0,0,0,3.54,0c.88-.51,1-1.3.25-1.87l12.21-7.05V291l8.06-4.65,9.53,5.5v17.28l-18,10.37v11.95l.14.08,37.83,21.85c-.7.56-.62,1.35.26,1.86a3.88,3.88,0,0,0,3.54,0,1.08,1.08,0,0,0,0-2,4,4,0,0,0-3.23-.15l-38-21.92v-11.3l17.41-10v11.9l23.29,13.45c-.71.57-.63,1.36.25,1.87a3.94,3.94,0,0,0,3.54,0,1.08,1.08,0,0,0,0-2.05,4,4,0,0,0-3.23-.14l-23.29-13.45V292.18l6.7,3.87.14-.08,10.88-6.29,10,5.77v14L468,324.79V338a3.27,3.27,0,0,0-1.49.41,1.08,1.08,0,0,0,0,2,3.94,3.94,0,0,0,3.54,0,1.08,1.08,0,0,0,0-2,3.31,3.31,0,0,0-1.49-.41V324.46L442,309.14V295.77l43,24.81v26.3l-23.31,13.46H440.32l-.06,0-36.71,21.19a4,4,0,0,0-3.23.15,1.08,1.08,0,0,0,0,2,3.94,3.94,0,0,0,3.54,0c.88-.51,1-1.3.25-1.87l36.36-21h20.27l-67.43,38.93a4,4,0,0,0-3.23.15l0,0h4.09l91.44-52.79V320.26l-.14-.08-53.39-30.82,10.75-6.21,91.14,52.63v31.4l31.14,18c-.71.57-.63,1.36.25,1.87a3.94,3.94,0,0,0,3.54,0,1.08,1.08,0,0,0,0-2,4,4,0,0,0-3.23-.14l-31.14-18v-31.4l-.14-.08-91-52.54,10.23-5.9,90.13,52h53.76l2.52,1.46v-.65l-2.37-1.37H543.87l-76.08-43.93h15.3l26,15h20l.07,0,27.74-16a4,4,0,0,0,3.23-.14,1.08,1.08,0,0,0,0-2,3.94,3.94,0,0,0-3.54,0c-.88.51-1,1.3-.25,1.87l-27.4,15.82h-19.7l-26-15H466.82l-12.67-7.31,27.3-15.76,7.77,4.48v11.77l19.72,11.38c-.71.57-.63,1.36.25,1.87a3.94,3.94,0,0,0,3.54,0,1.08,1.08,0,0,0,0-2,4,4,0,0,0-3.23-.14l-19.72-11.39V265.64l21,12.15h10l.07,0,11.87-6.86a4,4,0,0,0,3.23-.14,1.08,1.08,0,0,0,0-2.05,3.94,3.94,0,0,0-3.54,0c-.88.51-1,1.31-.25,1.87l-11.53,6.66H511L482,260.51l5.26-3-.42-.25-16.36-9.44,7.86-4.54h11.88l8.5,4.91c-.67.56-.58,1.34.29,1.84a3.88,3.88,0,0,0,3.54,0,1.08,1.08,0,0,0,0-2,4,4,0,0,0-3.27-.13l-8.91-5.14H479.32l20-11.57,47.15,27.22h33.93l.06,0,19.1-11c.13.05.27.07.4.11v-2.58a3.1,3.1,0,0,0-.7.28c-.89.51-1,1.3-.26,1.86l-18.75,10.83H546.66l-36.36-21h15.56l15.21,8.78c-.7.57-.63,1.36.26,1.87a3.94,3.94,0,0,0,3.54,0,1.09,1.09,0,0,0,0-2.05,4,4,0,0,0-3.23-.14l-15.63-9H509.32l-9.4-5.43L523.86,217H600v-.57H524.83l9.49-5.49H591l.06,0,9-5.19v-.65l-9.19,5.31H534.17l-.06,0-64.18,37.05-7.13-4.11,67.48-39h49.35l.06,0L600,192.63V192l-20.53,11.85H530.13l-.07,0L462.24,243l-8.09-4.68,131.6-76V134.82L600,126.59ZM486.15,257.48,420.47,295.4l-65.69-37.92,65.69-37.92Z"/><g class="cls-10"><g class="cls-11"><polygon class="cls-12" points="402.59 371.78 230.38 272.35 402.59 172.92 574.81 272.35 402.59 371.78"/></g><g class="cls-11"><polygon class="cls-12" points="402.59 356.36 257.08 272.35 402.59 188.34 548.1 272.35 402.59 356.36"/></g><g class="cls-13"><polygon class="cls-14" points="402.59 338.44 288.12 272.35 402.59 206.26 517.07 272.35 402.59 338.44"/></g></g><path class="cls-15" d="M363.09,189.68,381.92,77.91l-1.51-.64,2.28-1.3h0a1.63,1.63,0,0,1,1.76.12L535,163a4.24,4.24,0,0,1,2,3.82L518,279.51a1.42,1.42,0,0,1-.79,1.14h0l-2.23,1.29-.38-2.08.13,0L365,193.5A4.22,4.22,0,0,1,363.09,189.68Z"/><path class="cls-16" d="M534.16,166.08l2.47-1.09a3.33,3.33,0,0,1,.32,1.86L518,279.51a1.42,1.42,0,0,1-.79,1.14h0l-2.23,1.29-.38-2.08.13,0-7.57-4.37Z"/><path class="cls-17" d="M362.68,194.86l150.56,86.92c1.16.67,2.16.28,2.36-.92l19-112.65a4.25,4.25,0,0,0-2-3.83L382.07,77.45c-1.16-.67-2.15-.28-2.36.92L360.72,191A4.28,4.28,0,0,0,362.68,194.86Z"/><g class="cls-18"><polygon class="cls-19" points="381.57 79.55 532.84 166.84 513.73 279.79 362.56 192.55 381.57 79.55"/></g><path class="cls-20" d="M268,248.19l8.21,4.29,82.39-47.57a6,6,0,0,1,5.38.23l142.1,82c1.36-.76,7.56-3.74,7.56-3.74l-3,4.88h0a1.79,1.79,0,0,1-.84.93l-86.77,50.1a6,6,0,0,1-5.38-.23l-145.41-84a2.53,2.53,0,0,1-1.22-1.3h0Z"/><path class="cls-21" d="M269.31,249.54l149,86a6.08,6.08,0,0,0,5.51.23l88.93-51.34c1.41-.82,1.23-2.24-.4-3.18l-149-86.05a6.11,6.11,0,0,0-5.51-.22l-88.93,51.34C267.5,247.18,267.68,248.6,269.31,249.54Z"/><path class="cls-17" d="M269.31,249.54l149,86a6.08,6.08,0,0,0,5.51.23l88.93-51.34c1.41-.82,1.23-2.24-.4-3.18l-149-86.05a6.11,6.11,0,0,0-5.51-.22l-88.93,51.34C267.5,247.18,267.68,248.6,269.31,249.54Z"/><path class="cls-22" d="M269.31,249.54l149,86a6.08,6.08,0,0,0,5.51.23l88.93-51.34c1.41-.82,1.23-2.24-.4-3.18l-149-86.05a6.11,6.11,0,0,0-5.51-.22l-88.93,51.34C267.5,247.18,267.68,248.6,269.31,249.54Z"/><g class="cls-23"><path class="cls-5" d="M269.31,246.37l149,86.05a6.15,6.15,0,0,0,5.51.23l88.93-51.35c1.41-.81,1.23-2.24-.4-3.18l-149-86a6.08,6.08,0,0,0-5.51-.23l-88.93,51.34C267.5,244,267.68,245.43,269.31,246.37Z"/><g class="cls-24"><path class="cls-25" d="M349.74,341c0-33.1,19.7-59.93,44-59.93s44,26.83,44,59.93-19.71,43-44,43S349.74,374.07,349.74,341Z"/></g></g><path class="cls-26" d="M421.45,333.55a6.73,6.73,0,0,1-3.29-.83l-149-86a2.61,2.61,0,0,1-1.52-2.11,2,2,0,0,1,1.13-1.68l88.93-51.35a6.44,6.44,0,0,1,5.86.23l149,86a2.61,2.61,0,0,1,1.52,2.11A2,2,0,0,1,513,281.6L424,333A5.28,5.28,0,0,1,421.45,333.55Zm-61.21-141.9a4.52,4.52,0,0,0-2.22.5L269.09,243.5a1.32,1.32,0,0,0-.78,1.07,2,2,0,0,0,1.17,1.5l149,86a5.73,5.73,0,0,0,5.16.23L512.6,281a1.34,1.34,0,0,0,.78-1.08,2,2,0,0,0-1.17-1.5l-149-86A6.1,6.1,0,0,0,360.24,191.65Z"/><path class="cls-27" d="M269.31,248.87l149,86.05a6.11,6.11,0,0,0,5.51.22l88.93-51.34a1.75,1.75,0,0,0,.89-1,1.52,1.52,0,0,1-.89,1.71l-88.93,51.34a6.08,6.08,0,0,1-5.51-.23l-149-86c-1.06-.61-1.5-1.42-1.29-2.14A2.49,2.49,0,0,0,269.31,248.87Z"/><g class="cls-28"><g class="cls-29"><path class="cls-30" d="M362.49,194.13l8.22,4.29,82.39-47.57a6,6,0,0,1,5.38.23l142.1,82c1.36-.76,7.56-3.74,7.56-3.74l-3,4.88h0a1.82,1.82,0,0,1-.84.94l-86.78,50.1a6,6,0,0,1-5.37-.23L366.71,201.11a2.66,2.66,0,0,1-1.22-1.3h0Z"/><path class="cls-31" d="M363.77,195.48l149,86a6.14,6.14,0,0,0,5.52.23l88.93-51.34c1.41-.82,1.23-2.24-.4-3.19l-149-86a6.15,6.15,0,0,0-5.51-.23L363.37,192.3C362,193.11,362.13,194.54,363.77,195.48Z"/><path class="cls-17" d="M363.77,195.48l149,86a6.14,6.14,0,0,0,5.52.23l88.93-51.34c1.41-.82,1.23-2.24-.4-3.19l-149-86a6.15,6.15,0,0,0-5.51-.23L363.37,192.3C362,193.11,362.13,194.54,363.77,195.48Z"/><path class="cls-22" d="M363.77,195.48l149,86a6.14,6.14,0,0,0,5.52.23l88.93-51.34c1.41-.82,1.23-2.24-.4-3.19l-149-86a6.15,6.15,0,0,0-5.51-.23L363.37,192.3C362,193.11,362.13,194.54,363.77,195.48Z"/><path class="cls-27" d="M606.84,227.22l-149-86a6.55,6.55,0,0,0-3.68-.75,6.3,6.3,0,0,1,2.58.75l149,86c1.63.95,1.81,2.37.4,3.19l-88.93,51.34a4.55,4.55,0,0,1-1.83.52,5.22,5.22,0,0,0,2.93-.52l88.93-51.34C608.65,229.59,608.47,228.17,606.84,227.22Z"/><path class="cls-32" d="M473.6,244.19,430.82,219.5c-4.34-2.51-4.34-6.59,0-9.1l42.77-24.69a17.41,17.41,0,0,1,15.75,0l42.77,24.69c4.35,2.51,4.35,6.59,0,9.1l-42.78,24.69A17.39,17.39,0,0,1,473.6,244.19Z"/><path class="cls-33" d="M496.2,247.47c-10.68,0-20.71-2.4-28.25-6.75h0c-7.66-4.42-11.89-10.35-11.89-16.68s4.23-12.26,11.89-16.68c15.58-9,40.92-9,56.5,0,7.67,4.42,11.89,10.35,11.89,16.68s-4.22,12.26-11.89,16.68S506.88,247.47,496.2,247.47Zm0-46.39c-10.14,0-20.28,2.23-28,6.69-7.51,4.34-11.65,10.12-11.65,16.27s4.14,11.93,11.65,16.27h0c7.47,4.31,17.42,6.68,28,6.68s20.55-2.37,28-6.68,11.66-10.12,11.66-16.27-4.14-11.93-11.66-16.27C516.49,203.31,506.35,201.08,496.2,201.08Z"/><path class="cls-34" d="M459.89,211.13v-8.06h2.79a24.69,24.69,0,0,1,7.85-6.76c14.18-8.19,37.17-8.19,51.35,0a24.69,24.69,0,0,1,7.85,6.76h2.79v8.06h0c0,5.37-3.55,10.73-10.64,14.83-14.18,8.18-37.17,8.18-51.35,0C463.43,221.86,459.89,216.5,459.89,211.13Z"/><ellipse class="cls-35" cx="496.2" cy="203.07" rx="36.31" ry="20.97"/><path class="cls-17" d="M462.67,202.77v-11h2.57a23,23,0,0,1,7.25-6.25c13.1-7.56,34.33-7.56,47.43,0a23,23,0,0,1,7.25,6.25h2.57v11h0c0,4.95-3.28,9.91-9.82,13.69-13.1,7.56-34.33,7.56-47.43,0C465.94,212.68,462.67,207.72,462.67,202.77Z"/><g class="cls-18"><path class="cls-19" d="M462.67,200.12v-11h2.57a23,23,0,0,1,7.25-6.25c13.1-7.56,34.33-7.56,47.43,0a23,23,0,0,1,7.25,6.25h2.57v11h0c0,4.95-3.28,9.91-9.82,13.69-13.1,7.56-34.33,7.56-47.43,0C465.94,210,462.67,205.07,462.67,200.12Z"/></g><ellipse class="cls-35" cx="496.2" cy="191.77" rx="33.54" ry="19.36"/><g class="cls-18"><path class="cls-36" d="M473.1,206a41,41,0,0,0,19.8,13.36c-7.45-.42-14.7-2.28-20.41-5.57-6.55-3.78-9.82-8.74-9.82-13.69v-3.29A35.28,35.28,0,0,1,473.1,206Z"/></g><path class="cls-37" d="M459.89,191.59v-8.05h2.79a24.71,24.71,0,0,1,7.85-6.77c14.18-8.19,37.17-8.19,51.35,0a24.71,24.71,0,0,1,7.85,6.77h2.79v8.05h0c0,5.37-3.55,10.73-10.64,14.83-14.18,8.19-37.17,8.19-51.35,0C463.43,202.32,459.89,197,459.89,191.59Z"/><ellipse class="cls-35" cx="496.2" cy="183.54" rx="36.31" ry="20.97"/><path class="cls-17" d="M462.67,182.82v-11h2.57a22.74,22.74,0,0,1,7.25-6.25c13.1-7.57,34.33-7.57,47.43,0a22.74,22.74,0,0,1,7.25,6.25h2.57v11h0c0,5-3.28,9.91-9.82,13.69-13.1,7.57-34.33,7.57-47.43,0C465.94,192.73,462.67,187.78,462.67,182.82Z"/><g class="cls-18"><path class="cls-19" d="M462.67,180.31v-11h2.57a23,23,0,0,1,7.25-6.25c13.1-7.56,34.33-7.56,47.43,0a23,23,0,0,1,7.25,6.25h2.57v11h0c0,4.95-3.28,9.91-9.82,13.69-13.1,7.56-34.33,7.56-47.43,0C465.94,190.22,462.67,185.26,462.67,180.31Z"/></g><ellipse class="cls-35" cx="496.2" cy="171.83" rx="33.54" ry="19.36"/><g class="cls-18"><path class="cls-36" d="M473.1,185c7.17,9.13,17.17,13,24.24,14.6-9,.17-18-1.69-24.85-5.64-6.55-3.78-9.82-8.74-9.82-13.69v-4.45A35.09,35.09,0,0,1,473.1,185Z"/></g><path class="cls-38" d="M459.89,171.65v-8.06h2.79a24.69,24.69,0,0,1,7.85-6.76c14.18-8.19,37.17-8.19,51.35,0a24.69,24.69,0,0,1,7.85,6.76h2.79v8.06h0c0,5.37-3.55,10.73-10.64,14.83-14.18,8.18-37.17,8.18-51.35,0C463.43,182.38,459.89,177,459.89,171.65Z"/><ellipse class="cls-35" cx="496.2" cy="163.59" rx="36.31" ry="20.97"/><path class="cls-17" d="M462.67,162.88v-11h2.57a23,23,0,0,1,7.25-6.25c13.1-7.56,34.33-7.56,47.43,0a23,23,0,0,1,7.25,6.25h2.57v11h0c0,5-3.28,9.91-9.82,13.69-13.1,7.56-34.33,7.56-47.43,0C465.94,172.79,462.67,167.84,462.67,162.88Z"/><g class="cls-18"><path class="cls-19" d="M462.67,159.8v-11h2.57a22.74,22.74,0,0,1,7.25-6.25c13.1-7.57,34.33-7.57,47.43,0a22.74,22.74,0,0,1,7.25,6.25h2.57v11h0c0,5-3.28,9.91-9.82,13.69-13.1,7.57-34.33,7.57-47.43,0C465.94,169.71,462.67,164.76,462.67,159.8Z"/></g><ellipse class="cls-35" cx="496.2" cy="151.88" rx="33.54" ry="19.36"/><path class="cls-39" d="M459.89,151.71v-8.06h2.79a24.71,24.71,0,0,1,7.85-6.77c14.18-8.18,37.17-8.18,51.35,0a24.71,24.71,0,0,1,7.85,6.77h2.79v8.06h0c0,5.36-3.55,10.73-10.64,14.82-14.18,8.19-37.17,8.19-51.35,0C463.43,162.44,459.89,157.07,459.89,151.71Z"/><ellipse class="cls-35" cx="496.2" cy="143.65" rx="36.31" ry="20.97"/><ellipse class="cls-35" cx="496.2" cy="143.65" rx="36.31" ry="20.97"/><g class="cls-18"><path class="cls-36" d="M473.1,164.07c7.87,10,19.17,13.68,26.23,15-9.59.51-19.5-1.35-26.84-5.59-6.55-3.78-9.82-8.73-9.82-13.69v-4.92A35.28,35.28,0,0,1,473.1,164.07Z"/></g><path class="cls-39" d="M459.89,151.71v-8.06h2.79a24.71,24.71,0,0,1,7.85-6.77c14.18-8.18,37.17-8.18,51.35,0a24.71,24.71,0,0,1,7.85,6.77h2.79v8.06h0c0,5.36-3.55,10.73-10.64,14.82-14.18,8.19-37.17,8.19-51.35,0C463.43,162.44,459.89,157.07,459.89,151.71Z"/><ellipse class="cls-35" cx="496.2" cy="143.65" rx="36.31" ry="20.97"/><ellipse class="cls-35" cx="496.2" cy="143.65" rx="36.31" ry="20.97"/><path class="cls-27" d="M470.32,157.84c14.18,8.19,37.17,8.19,51.35,0,8.69-5,12-11.94,10.09-18.43,2.38,6.68-.91,13.89-9.88,19.07-14.18,8.18-37.17,8.18-51.35,0-5.5-3.18-8.86-7.12-10.09-11.23C461.82,151.13,465.11,154.83,470.32,157.84Z"/><path class="cls-27" d="M470.32,177.78c14.18,8.19,37.17,8.19,51.35,0,8.69-5,12-11.93,10.09-18.43,2.38,6.68-.91,13.89-9.88,19.07-14.18,8.19-37.17,8.19-51.35,0-5.5-3.17-8.86-7.11-10.09-11.22C461.82,171.08,465.11,174.77,470.32,177.78Z"/><path class="cls-27" d="M470.32,197.73c14.18,8.18,37.17,8.18,51.35,0,8.69-5,12-11.94,10.09-18.43,2.38,6.67-.91,13.88-9.88,19.06-14.18,8.19-37.17,8.19-51.35,0-5.5-3.17-8.86-7.11-10.09-11.22C461.82,191,465.11,194.72,470.32,197.73Z"/><path class="cls-27" d="M470.32,217.67c14.18,8.19,37.17,8.19,51.35,0,8.69-5,12-11.94,10.09-18.43,2.38,6.67-.91,13.89-9.88,19.06-14.18,8.19-37.17,8.19-51.35,0-5.5-3.17-8.86-7.11-10.09-11.22C461.82,211,465.11,214.66,470.32,217.67Z"/><g class="cls-40"><path class="cls-41" d="M529.17,152.45h-33V133h31.3C533.57,139,534.13,146.26,529.17,152.45Z"/></g><path class="cls-42" d="M477.56,141.69v-4.14H479a12.78,12.78,0,0,1,4-3.47c7.28-4.2,19.09-4.2,26.37,0a12.78,12.78,0,0,1,4,3.47h1.43v4.14h0c0,2.76-1.82,5.51-5.46,7.61-7.28,4.21-19.09,4.21-26.37,0C479.38,147.2,477.56,144.45,477.56,141.69Z"/><ellipse class="cls-35" cx="496.2" cy="137.55" rx="18.64" ry="10.76"/><ellipse class="cls-43" cx="496.2" cy="137.55" rx="18.64" ry="10.76"/><path class="cls-17" d="M487.33,142.68c4.9,2.83,12.85,2.83,17.75,0a7.84,7.84,0,0,0,3.16-3.06c1.26-2.47-1.9-4.25-5.27-6.2-4.9-2.83-8.38-3.53-13.28-.7-3.37,1.94-6.79,4.43-5.52,6.9A7.77,7.77,0,0,0,487.33,142.68Z"/><path class="cls-44" d="M505.08,136.57c-4.9-2.83-12.85-2.83-17.75,0a7.76,7.76,0,0,0-3.16,3.05c-1.27-2.46-.22-5.24,3.16-7.19,4.9-2.83,12.85-2.83,17.75,0,3.37,1.95,4.42,4.73,3.16,7.19A7.82,7.82,0,0,0,505.08,136.57Z"/><g class="cls-18"><path class="cls-45" d="M475.76,174.25c2.45,1,4.28.7,4.08-.58s-2.33-3.11-4.77-4.08-4.28-.7-4.08.59S473.32,173.28,475.76,174.25Z"/></g><g class="cls-18"><path class="cls-45" d="M475.76,194.47c2.45,1,4.28.71,4.08-.58s-2.33-3.1-4.77-4.07-4.28-.7-4.08.58S473.32,193.51,475.76,194.47Z"/></g><g class="cls-18"><path class="cls-45" d="M475.63,214.84c2.44,1,4.27.7,4.08-.59s-2.33-3.1-4.78-4.07-4.27-.7-4.08.59S473.18,213.87,475.63,214.84Z"/></g><g class="cls-18"><path class="cls-45" d="M468.8,169.17a1,1,0,1,0,1.13-1.58,1,1,0,1,0-1.13,1.58Z"/></g><g class="cls-18"><path class="cls-45" d="M468.8,189.49a1,1,0,1,0-.48-1.53A1.15,1.15,0,0,0,468.8,189.49Z"/></g><g class="cls-18"><path class="cls-45" d="M468.8,209.74a1,1,0,1,0-.48-1.54A1.16,1.16,0,0,0,468.8,209.74Z"/></g></g></g><polygon class="cls-46" points="396.41 112.25 387.88 107.33 388.19 105.45 396.71 110.38 396.41 112.25"/><polygon class="cls-46" points="400.78 114.78 397.71 113 398.02 111.13 401.09 112.91 400.78 114.78"/><polygon class="cls-46" points="404.17 116.74 402.08 115.53 402.39 113.66 404.48 114.86 404.17 116.74"/><polygon class="cls-46" points="391.82 114.29 387.17 111.61 387.48 109.73 392.13 112.42 391.82 114.29"/><polygon class="cls-46" points="398.82 118.33 393.12 115.04 393.43 113.17 399.13 116.46 398.82 118.33"/><polygon class="cls-46" points="402.21 120.29 400.12 119.08 400.43 117.21 402.52 118.42 402.21 120.29"/><polygon class="cls-46" points="405.43 122.15 403.35 120.95 403.65 119.07 405.74 120.28 405.43 122.15"/><polygon class="cls-33" points="389.83 117.83 386.47 115.89 386.78 114.01 390.14 115.95 389.83 117.83"/><polygon class="cls-33" points="392.28 119.25 391.13 118.58 391.44 116.71 392.59 117.37 392.28 119.25"/><polygon class="cls-46" points="395.67 121.2 393.59 120 393.89 118.12 395.98 119.33 395.67 121.2"/><polygon class="cls-46" points="398.18 127.33 385.77 120.17 386.07 118.29 398.48 125.46 398.18 127.33"/><polygon class="cls-46" points="402.55 129.86 399.48 128.09 399.79 126.21 402.86 127.99 402.55 129.86"/><polygon class="cls-46" points="388.42 126.39 385.06 124.45 385.37 122.57 388.73 124.52 388.42 126.39"/><polygon class="cls-46" points="396.31 130.94 389.73 127.14 390.04 125.27 396.62 129.07 396.31 130.94"/><polygon class="cls-46" points="399.7 132.9 397.62 131.7 397.93 129.82 400.01 131.03 399.7 132.9"/><polygon class="cls-46" points="391.24 132.7 384.36 128.73 384.67 126.85 391.55 130.83 391.24 132.7"/><polygon class="cls-33" points="397.51 136.32 392.54 133.45 392.85 131.58 397.82 134.45 397.51 136.32"/><polygon class="cls-46" points="402.18 139.02 398.82 137.08 399.13 135.2 402.49 137.15 402.18 139.02"/><polygon class="cls-46" points="385.98 134.35 383.65 133.01 383.96 131.13 386.29 132.47 385.98 134.35"/><polygon class="cls-46" points="390.35 136.87 387.28 135.1 387.59 133.23 390.66 135 390.35 136.87"/><polygon class="cls-46" points="396.6 140.48 391.65 137.63 391.96 135.75 396.91 138.61 396.6 140.48"/><polygon class="cls-46" points="390.07 141.4 382.95 137.29 383.26 135.41 390.38 139.52 390.07 141.4"/><polygon class="cls-46" points="398.04 146 391.37 142.15 391.68 140.28 398.35 144.13 398.04 146"/><polygon class="cls-33" points="401.43 147.96 399.34 146.75 399.65 144.88 401.74 146.09 401.43 147.96"/><polygon class="cls-46" points="404.68 149.84 402.59 148.63 402.9 146.76 404.99 147.96 404.68 149.84"/><polygon class="cls-46" points="386.51 144.03 382.25 141.57 382.55 139.69 386.82 142.16 386.51 144.03"/><polygon class="cls-33" points="409.98 120.09 415.89 123.5 416.2 121.63 410.28 118.22 409.98 120.09"/><polygon class="cls-46" points="410.54 125.1 415.19 127.78 415.49 125.91 410.85 123.23 410.54 125.1"/><polygon class="cls-46" points="411.12 130.12 414.48 132.06 414.79 130.19 411.43 128.25 411.12 130.12"/><polygon class="cls-46" points="408.89 133.52 413.78 136.34 414.08 134.47 409.19 131.65 408.89 133.52"/><polygon class="cls-46" points="409.71 138.68 413.07 140.62 413.38 138.75 410.02 136.81 409.71 138.68"/><polygon class="cls-46" points="408.11 142.44 412.37 144.9 412.68 143.03 408.41 140.57 408.11 142.44"/><polygon class="cls-46" points="409.34 147.84 411.67 149.18 411.97 147.31 409.65 145.97 409.34 147.84"/><polygon class="cls-46" points="406.46 150.86 410.96 153.46 411.27 151.59 406.77 148.99 406.46 150.86"/><polygon class="cls-46" points="405.99 155.28 410.26 157.74 410.56 155.87 406.3 153.41 405.99 155.28"/><polygon class="cls-46" points="389.63 145.83 387.81 144.78 388.12 142.91 389.93 143.96 389.63 145.83"/><polygon class="cls-46" points="395.01 148.94 390.93 146.58 391.24 144.71 395.32 147.06 395.01 148.94"/><polygon class="cls-46" points="429.49 131.28 420.96 126.35 421.27 124.48 429.8 129.41 429.49 131.28"/><polygon class="cls-46" points="433.86 133.81 430.79 132.03 431.1 130.16 434.17 131.93 433.86 133.81"/><polygon class="cls-33" points="437.25 135.76 435.17 134.56 435.47 132.69 437.56 133.89 437.25 135.76"/><polygon class="cls-46" points="424.9 133.32 420.26 130.63 420.56 128.76 425.21 131.44 424.9 133.32"/><polygon class="cls-46" points="431.9 137.36 426.21 134.07 426.51 132.2 432.21 135.49 431.9 137.36"/><polygon class="cls-33" points="435.29 139.32 433.2 138.11 433.51 136.24 435.6 137.44 435.29 139.32"/><polygon class="cls-46" points="438.52 141.18 436.43 139.97 436.74 138.1 438.82 139.31 438.52 141.18"/><polygon class="cls-46" points="422.92 136.86 419.55 134.91 419.86 133.04 423.22 134.98 422.92 136.86"/><polygon class="cls-46" points="425.37 138.27 424.22 137.61 424.53 135.74 425.68 136.4 425.37 138.27"/><polygon class="cls-46" points="428.76 140.23 426.67 139.02 426.98 137.15 429.06 138.36 428.76 140.23"/><polygon class="cls-46" points="431.26 146.36 418.85 139.19 419.16 137.32 431.57 144.49 431.26 146.36"/><polygon class="cls-46" points="435.63 148.89 432.56 147.11 432.87 145.24 435.94 147.01 435.63 148.89"/><polygon class="cls-46" points="421.51 145.41 418.14 143.47 418.45 141.6 421.82 143.54 421.51 145.41"/><polygon class="cls-46" points="429.4 149.97 422.81 146.17 423.12 144.29 429.71 148.1 429.4 149.97"/><polygon class="cls-46" points="432.79 151.93 430.7 150.72 431.01 148.85 433.1 150.06 432.79 151.93"/><polygon class="cls-33" points="424.32 151.73 417.44 147.75 417.75 145.88 424.63 149.85 424.32 151.73"/><polygon class="cls-46" points="430.6 155.35 425.62 152.48 425.93 150.61 430.91 153.48 430.6 155.35"/><polygon class="cls-46" points="435.26 158.05 431.9 156.1 432.21 154.23 435.57 156.17 435.26 158.05"/><polygon class="cls-46" points="419.06 153.38 416.74 152.03 417.05 150.16 419.37 151.5 419.06 153.38"/><polygon class="cls-46" points="423.43 155.9 420.36 154.13 420.67 152.25 423.74 154.03 423.43 155.9"/><polygon class="cls-33" points="429.69 159.51 424.74 156.65 425.05 154.78 429.99 157.64 429.69 159.51"/><polygon class="cls-46" points="423.15 160.42 416.03 156.31 416.34 154.44 423.46 158.55 423.15 160.42"/><polygon class="cls-46" points="431.12 165.03 424.45 161.18 424.76 159.3 431.43 163.15 431.12 165.03"/><polygon class="cls-46" points="434.51 166.99 432.43 165.78 432.73 163.91 434.82 165.11 434.51 166.99"/><polygon class="cls-46" points="437.76 168.86 435.68 167.66 435.99 165.78 438.07 166.99 437.76 168.86"/><polygon class="cls-46" points="419.59 163.06 415.33 160.59 415.64 158.72 419.9 161.18 419.59 163.06"/><polygon class="cls-33" points="443.06 139.12 448.97 142.53 449.28 140.66 443.37 137.24 443.06 139.12"/><polygon class="cls-46" points="443.62 144.13 448.27 146.81 448.58 144.94 443.93 142.25 443.62 144.13"/><polygon class="cls-46" points="444.2 149.15 447.56 151.09 447.87 149.22 444.51 147.28 444.2 149.15"/><polygon class="cls-46" points="441.97 152.55 446.86 155.37 447.17 153.5 442.28 150.67 441.97 152.55"/><polygon class="cls-46" points="442.79 157.71 446.16 159.65 446.46 157.78 443.1 155.84 442.79 157.71"/><polygon class="cls-46" points="441.19 161.47 445.45 163.93 445.76 162.06 441.5 159.59 441.19 161.47"/><polygon class="cls-46" points="442.43 166.87 444.75 168.21 445.06 166.34 442.73 165 442.43 166.87"/><polygon class="cls-46" points="439.54 169.89 444.04 172.49 444.35 170.62 439.85 168.02 439.54 169.89"/><polygon class="cls-46" points="439.08 174.31 443.34 176.77 443.65 174.9 439.38 172.44 439.08 174.31"/><polygon class="cls-33" points="422.71 164.86 420.9 163.81 421.2 161.94 423.02 162.98 422.71 164.86"/><polygon class="cls-46" points="428.09 167.97 424.01 165.61 424.32 163.74 428.4 166.09 428.09 167.97"/><polygon class="cls-46" points="390.07 150.8 381.54 145.87 381.85 144 390.37 148.92 390.07 150.8"/><polygon class="cls-46" points="394.44 153.32 391.37 151.55 391.68 149.68 394.75 151.45 394.44 153.32"/><polygon class="cls-46" points="397.83 155.28 395.74 154.07 396.05 152.2 398.14 153.41 397.83 155.28"/><polygon class="cls-46" points="385.48 152.83 380.83 150.15 381.14 148.28 385.79 150.96 385.48 152.83"/><polygon class="cls-46" points="392.48 156.88 386.78 153.59 387.09 151.71 392.79 155 392.48 156.88"/><polygon class="cls-46" points="395.87 158.83 393.78 157.63 394.09 155.75 396.18 156.96 395.87 158.83"/><polygon class="cls-46" points="399.09 160.7 397.01 159.49 397.31 157.62 399.4 158.82 399.09 160.7"/><polygon class="cls-46" points="383.49 156.37 380.13 154.43 380.44 152.56 383.8 154.5 383.49 156.37"/><polygon class="cls-46" points="385.94 157.79 384.8 157.13 385.1 155.25 386.25 155.91 385.94 157.79"/><polygon class="cls-46" points="389.33 159.75 387.25 158.54 387.56 156.67 389.64 157.87 389.33 159.75"/><polygon class="cls-46" points="391.84 165.88 379.43 158.71 379.73 156.84 392.14 164 391.84 165.88"/><polygon class="cls-46" points="396.21 168.4 393.14 166.63 393.45 164.76 396.52 166.53 396.21 168.4"/><polygon class="cls-46" points="382.08 164.93 378.72 162.99 379.03 161.12 382.39 163.06 382.08 164.93"/><polygon class="cls-46" points="389.97 169.49 383.39 165.69 383.69 163.81 390.28 167.62 389.97 169.49"/><polygon class="cls-46" points="393.36 171.45 391.28 170.24 391.58 168.37 393.67 169.57 393.36 171.45"/><polygon class="cls-46" points="384.9 171.24 378.02 167.27 378.33 165.4 385.2 169.37 384.9 171.24"/><polygon class="cls-46" points="391.18 174.87 386.2 172 386.51 170.12 391.48 173 391.18 174.87"/><polygon class="cls-46" points="395.84 177.56 392.48 175.62 392.79 173.75 396.15 175.69 395.84 177.56"/><polygon class="cls-46" points="379.64 172.89 377.31 171.55 377.62 169.68 379.94 171.02 379.64 172.89"/><polygon class="cls-46" points="384.01 175.42 380.94 173.64 381.25 171.77 384.32 173.54 384.01 175.42"/><polygon class="cls-46" points="390.26 179.03 385.31 176.17 385.62 174.3 390.57 177.15 390.26 179.03"/><polygon class="cls-46" points="383.73 179.94 376.61 175.83 376.92 173.96 384.04 178.07 383.73 179.94"/><polygon class="cls-46" points="391.7 184.54 385.03 180.69 385.34 178.82 392.01 182.67 391.7 184.54"/><polygon class="cls-46" points="395.09 186.5 393 185.3 393.31 183.42 395.4 184.63 395.09 186.5"/><polygon class="cls-46" points="398.34 188.38 396.25 187.18 396.56 185.3 398.65 186.51 398.34 188.38"/><polygon class="cls-46" points="380.17 182.57 375.91 180.11 376.21 178.24 380.48 180.7 380.17 182.57"/><polygon class="cls-46" points="403.64 158.63 409.55 162.05 409.86 160.18 403.94 156.76 403.64 158.63"/><polygon class="cls-46" points="404.2 163.65 408.85 166.33 409.15 164.46 404.51 161.77 404.2 163.65"/><polygon class="cls-46" points="404.78 168.67 408.14 170.61 408.45 168.74 405.09 166.79 404.78 168.67"/><polygon class="cls-46" points="402.55 172.06 407.44 174.89 407.75 173.01 402.85 170.19 402.55 172.06"/><polygon class="cls-46" points="403.37 177.23 406.73 179.17 407.04 177.29 403.68 175.35 403.37 177.23"/><polygon class="cls-46" points="401.76 180.99 406.03 183.45 406.34 181.57 402.07 179.11 401.76 180.99"/><polygon class="cls-46" points="403 186.39 405.32 187.73 405.63 185.85 403.31 184.51 403 186.39"/><polygon class="cls-46" points="400.12 189.41 404.62 192.01 404.93 190.13 400.43 187.53 400.12 189.41"/><polygon class="cls-46" points="399.65 193.82 403.92 196.29 404.23 194.41 399.96 191.95 399.65 193.82"/><polygon class="cls-46" points="383.29 184.37 381.47 183.32 381.78 181.45 383.59 182.5 383.29 184.37"/><polygon class="cls-46" points="388.67 187.48 384.59 185.13 384.9 183.25 388.98 185.61 388.67 187.48"/><polygon class="cls-46" points="423.15 169.82 414.62 164.9 414.93 163.02 423.46 167.95 423.15 169.82"/><polygon class="cls-46" points="427.52 172.35 424.45 170.58 424.76 168.7 427.83 170.48 427.52 172.35"/><polygon class="cls-46" points="430.91 174.31 428.83 173.1 429.13 171.23 431.22 172.43 430.91 174.31"/><polygon class="cls-46" points="418.56 171.86 413.92 169.18 414.23 167.3 418.87 169.99 418.56 171.86"/><polygon class="cls-46" points="425.56 175.9 419.87 172.61 420.18 170.74 425.87 174.03 425.56 175.9"/><polygon class="cls-46" points="428.95 177.86 426.86 176.66 427.17 174.78 429.26 175.99 428.95 177.86"/><polygon class="cls-46" points="432.18 179.72 430.09 178.52 430.4 176.65 432.48 177.85 432.18 179.72"/><polygon class="cls-46" points="416.57 175.4 413.21 173.46 413.52 171.58 416.88 173.53 416.57 175.4"/><polygon class="cls-46" points="419.03 176.82 417.88 176.15 418.19 174.28 419.33 174.94 419.03 176.82"/><polygon class="cls-46" points="422.42 178.77 420.33 177.57 420.64 175.69 422.73 176.9 422.42 178.77"/><polygon class="cls-46" points="424.92 184.91 412.51 177.74 412.82 175.86 425.23 183.03 424.92 184.91"/><polygon class="cls-46" points="429.29 187.43 426.22 185.66 426.53 183.78 429.6 185.56 429.29 187.43"/><polygon class="cls-46" points="415.17 183.96 411.81 182.02 412.11 180.14 415.48 182.09 415.17 183.96"/><polygon class="cls-46" points="423.06 188.52 416.47 184.71 416.78 182.84 423.37 186.64 423.06 188.52"/><polygon class="cls-46" points="426.45 190.47 424.36 189.27 424.67 187.4 426.75 188.6 426.45 190.47"/><polygon class="cls-46" points="417.98 190.27 411.1 186.3 411.41 184.42 418.29 188.4 417.98 190.27"/><polygon class="cls-46" points="424.26 193.9 419.28 191.02 419.59 189.15 424.57 192.02 424.26 193.9"/><polygon class="cls-46" points="428.92 196.59 425.56 194.65 425.87 192.78 429.23 194.72 428.92 196.59"/><polygon class="cls-46" points="412.72 191.92 410.4 190.58 410.7 188.7 413.03 190.05 412.72 191.92"/><polygon class="cls-46" points="417.09 194.44 414.02 192.67 414.33 190.8 417.4 192.57 417.09 194.44"/><polygon class="cls-46" points="423.34 198.06 418.4 195.2 418.7 193.32 423.65 196.18 423.34 198.06"/><polygon class="cls-46" points="416.81 198.97 409.69 194.86 410 192.98 417.12 197.09 416.81 198.97"/><polygon class="cls-46" points="424.78 203.57 418.11 199.72 418.42 197.85 425.09 201.7 424.78 203.57"/><polygon class="cls-46" points="428.17 205.53 426.08 204.32 426.39 202.45 428.48 203.66 428.17 205.53"/><polygon class="cls-46" points="431.42 207.41 429.34 206.2 429.64 204.33 431.73 205.53 431.42 207.41"/><polygon class="cls-46" points="413.25 201.6 408.99 199.14 409.3 197.26 413.56 199.73 413.25 201.6"/><polygon class="cls-46" points="436.72 177.66 442.63 181.08 442.94 179.2 437.03 175.79 436.72 177.66"/><polygon class="cls-46" points="437.28 182.67 441.93 185.36 442.24 183.48 437.59 180.8 437.28 182.67"/><polygon class="cls-46" points="437.86 187.69 441.22 189.64 441.53 187.76 438.17 185.82 437.86 187.69"/><polygon class="cls-46" points="435.63 191.09 440.52 193.92 440.83 192.04 435.94 189.22 435.63 191.09"/><polygon class="cls-46" points="436.45 196.25 439.82 198.2 440.12 196.32 436.76 194.38 436.45 196.25"/><polygon class="cls-46" points="434.85 200.01 439.11 202.48 439.42 200.6 435.16 198.14 434.85 200.01"/><polygon class="cls-46" points="436.08 205.41 438.41 206.75 438.72 204.88 436.39 203.54 436.08 205.41"/><polygon class="cls-46" points="433.2 208.44 437.7 211.03 438.01 209.16 433.51 206.56 433.2 208.44"/><polygon class="cls-46" points="432.74 212.85 437 215.31 437.31 213.44 433.04 210.98 432.74 212.85"/><polygon class="cls-46" points="416.37 203.4 414.56 202.35 414.86 200.48 416.68 201.53 416.37 203.4"/><polygon class="cls-46" points="421.75 206.51 417.67 204.15 417.98 202.28 422.06 204.64 421.75 206.51"/><polygon class="cls-46" points="466.96 151.7 458.44 146.78 458.75 144.9 467.27 149.83 466.96 151.7"/><polygon class="cls-46" points="471.34 154.23 468.27 152.46 468.58 150.58 471.65 152.36 471.34 154.23"/><polygon class="cls-46" points="474.73 156.19 472.64 154.98 472.95 153.11 475.04 154.31 474.73 156.19"/><polygon class="cls-46" points="462.38 153.74 457.73 151.06 458.04 149.18 462.69 151.87 462.38 153.74"/><polygon class="cls-46" points="469.38 157.78 463.68 154.49 463.99 152.62 469.69 155.91 469.38 157.78"/><polygon class="cls-46" points="472.77 159.74 470.68 158.54 470.99 156.66 473.07 157.87 472.77 159.74"/><polygon class="cls-46" points="475.99 161.6 473.91 160.4 474.21 158.53 476.3 159.73 475.99 161.6"/><polygon class="cls-33" points="460.39 157.28 457.03 155.34 457.34 153.46 460.7 155.41 460.39 157.28"/><polygon class="cls-33" points="462.84 158.7 461.69 158.03 462 156.16 463.15 156.82 462.84 158.7"/><polygon class="cls-46" points="466.23 160.65 464.15 159.45 464.45 157.57 466.54 158.78 466.23 160.65"/><polygon class="cls-46" points="468.74 166.78 456.32 159.62 456.63 157.74 469.04 164.91 468.74 166.78"/><polygon class="cls-46" points="473.11 169.31 470.04 167.54 470.35 165.66 473.42 167.44 473.11 169.31"/><polygon class="cls-46" points="458.98 165.84 455.62 163.9 455.93 162.02 459.29 163.97 458.98 165.84"/><polygon class="cls-46" points="466.87 170.4 460.29 166.59 460.59 164.72 467.18 168.52 466.87 170.4"/><polygon class="cls-46" points="470.26 172.35 468.18 171.15 468.49 169.28 470.57 170.48 470.26 172.35"/><polygon class="cls-46" points="461.8 172.15 454.92 168.18 455.23 166.3 462.1 170.28 461.8 172.15"/><polygon class="cls-33" points="468.07 175.78 463.1 172.9 463.41 171.03 468.38 173.9 468.07 175.78"/><polygon class="cls-46" points="472.74 178.47 469.38 176.53 469.69 174.66 473.05 176.6 472.74 178.47"/><polygon class="cls-46" points="456.54 173.8 454.21 172.46 454.52 170.58 456.85 171.93 456.54 173.8"/><polygon class="cls-46" points="460.91 176.32 457.84 174.55 458.15 172.68 461.22 174.45 460.91 176.32"/><polygon class="cls-46" points="467.16 179.94 462.21 177.08 462.52 175.2 467.47 178.06 467.16 179.94"/><polygon class="cls-46" points="460.63 180.85 453.51 176.74 453.82 174.86 460.93 178.97 460.63 180.85"/><polygon class="cls-46" points="468.6 185.45 461.93 181.6 462.24 179.73 468.91 183.58 468.6 185.45"/><polygon class="cls-33" points="471.99 187.41 469.9 186.2 470.21 184.33 472.3 185.54 471.99 187.41"/><polygon class="cls-46" points="475.24 189.29 473.15 188.08 473.46 186.21 475.55 187.41 475.24 189.29"/><polygon class="cls-46" points="457.07 183.48 452.81 181.02 453.11 179.14 457.38 181.61 457.07 183.48"/><polygon class="cls-33" points="480.54 159.54 486.45 162.96 486.76 161.08 480.84 157.67 480.54 159.54"/><polygon class="cls-46" points="481.1 164.55 485.74 167.24 486.05 165.36 481.4 162.68 481.1 164.55"/><polygon class="cls-46" points="481.68 169.57 485.04 171.52 485.35 169.64 481.99 167.7 481.68 169.57"/><polygon class="cls-46" points="479.45 172.97 484.34 175.8 484.64 173.92 479.75 171.1 479.45 172.97"/><polygon class="cls-46" points="480.27 178.13 483.63 180.08 483.94 178.2 480.58 176.26 480.27 178.13"/><polygon class="cls-46" points="478.66 181.89 482.93 184.36 483.24 182.48 478.97 180.02 478.66 181.89"/><polygon class="cls-46" points="479.9 187.29 482.22 188.63 482.53 186.76 480.21 185.42 479.9 187.29"/><polygon class="cls-46" points="477.02 190.31 481.52 192.91 481.83 191.04 477.33 188.44 477.02 190.31"/><polygon class="cls-46" points="476.55 194.73 480.82 197.19 481.12 195.32 476.86 192.86 476.55 194.73"/><polygon class="cls-46" points="460.19 185.28 458.37 184.23 458.68 182.36 460.49 183.41 460.19 185.28"/><polygon class="cls-46" points="465.57 188.39 461.49 186.03 461.8 184.16 465.88 186.52 465.57 188.39"/><polygon class="cls-46" points="500.05 170.73 491.52 165.81 491.83 163.93 500.36 168.86 500.05 170.73"/><polygon class="cls-46" points="504.42 173.26 501.35 171.48 501.66 169.61 504.73 171.38 504.42 173.26"/><polygon class="cls-33" points="507.81 175.22 505.73 174.01 506.03 172.14 508.12 173.34 507.81 175.22"/><polygon class="cls-46" points="495.46 172.77 490.82 170.09 491.13 168.21 495.77 170.9 495.46 172.77"/><polygon class="cls-46" points="502.46 176.81 496.77 173.52 497.07 171.65 502.77 174.94 502.46 176.81"/><polygon class="cls-33" points="505.85 178.77 503.76 177.56 504.07 175.69 506.16 176.9 505.85 178.77"/><polygon class="cls-46" points="509.08 180.63 506.99 179.43 507.3 177.55 509.38 178.76 509.08 180.63"/><polygon class="cls-46" points="493.47 176.31 490.11 174.37 490.42 172.49 493.78 174.43 493.47 176.31"/><polygon class="cls-46" points="495.93 177.72 494.78 177.06 495.09 175.19 496.24 175.85 495.93 177.72"/><polygon class="cls-46" points="499.32 179.68 497.23 178.48 497.54 176.6 499.62 177.81 499.32 179.68"/><polygon class="cls-46" points="501.82 185.81 489.41 178.65 489.72 176.77 502.13 183.94 501.82 185.81"/><polygon class="cls-46" points="506.19 188.34 503.12 186.56 503.43 184.69 506.5 186.47 506.19 188.34"/><polygon class="cls-46" points="492.07 184.87 488.7 182.93 489.01 181.05 492.38 182.99 492.07 184.87"/><polygon class="cls-46" points="499.96 189.42 493.37 185.62 493.68 183.75 500.26 187.55 499.96 189.42"/><polygon class="cls-46" points="503.35 191.38 501.26 190.18 501.57 188.3 503.65 189.51 503.35 191.38"/><polygon class="cls-33" points="494.88 191.18 488 187.21 488.31 185.33 495.19 189.3 494.88 191.18"/><polygon class="cls-46" points="501.16 194.8 496.18 191.93 496.49 190.06 501.46 192.93 501.16 194.8"/><polygon class="cls-46" points="505.82 197.5 502.46 195.56 502.77 193.68 506.13 195.62 505.82 197.5"/><polygon class="cls-46" points="489.62 192.83 487.3 191.49 487.6 189.61 489.93 190.95 489.62 192.83"/><polygon class="cls-46" points="493.99 195.35 490.92 193.58 491.23 191.71 494.3 193.48 493.99 195.35"/><polygon class="cls-33" points="500.24 198.96 495.3 196.1 495.6 194.23 500.55 197.09 500.24 198.96"/><polygon class="cls-46" points="493.71 199.88 486.59 195.76 486.9 193.89 494.02 198 493.71 199.88"/><polygon class="cls-46" points="501.68 204.48 495.01 200.63 495.32 198.75 501.99 202.6 501.68 204.48"/><polygon class="cls-46" points="505.07 206.44 502.98 205.23 503.29 203.36 505.38 204.56 505.07 206.44"/><polygon class="cls-46" points="508.32 208.31 506.24 207.11 506.55 205.24 508.63 206.44 508.32 208.31"/><polygon class="cls-46" points="490.15 202.51 485.89 200.04 486.2 198.17 490.46 200.63 490.15 202.51"/><polygon class="cls-33" points="513.62 178.57 519.53 181.98 519.84 180.11 513.93 176.69 513.62 178.57"/><polygon class="cls-46" points="514.18 183.58 518.83 186.26 519.14 184.39 514.49 181.71 514.18 183.58"/><polygon class="cls-46" points="514.76 188.6 518.12 190.54 518.43 188.67 515.07 186.73 514.76 188.6"/><polygon class="cls-46" points="512.53 192 517.42 194.82 517.73 192.95 512.84 190.13 512.53 192"/><polygon class="cls-46" points="513.35 197.16 516.72 199.1 517.02 197.23 513.66 195.29 513.35 197.16"/><polygon class="cls-46" points="511.75 200.92 516.01 203.38 516.32 201.51 512.05 199.05 511.75 200.92"/><polygon class="cls-46" points="512.98 206.32 515.31 207.66 515.62 205.79 513.29 204.45 512.98 206.32"/><polygon class="cls-46" points="510.1 209.34 514.6 211.94 514.91 210.07 510.41 207.47 510.1 209.34"/><polygon class="cls-46" points="509.63 213.76 513.9 216.22 514.21 214.35 509.94 211.89 509.63 213.76"/><polygon class="cls-33" points="493.27 204.31 491.45 203.26 491.76 201.39 493.58 202.43 493.27 204.31"/><polygon class="cls-46" points="498.65 207.42 494.57 205.06 494.88 203.19 498.96 205.54 498.65 207.42"/><polygon class="cls-46" points="460.63 190.25 452.1 185.32 452.4 183.45 460.93 188.37 460.63 190.25"/><polygon class="cls-46" points="465 192.77 461.93 191 462.24 189.13 465.31 190.9 465 192.77"/><polygon class="cls-46" points="468.39 194.73 466.3 193.53 466.61 191.65 468.7 192.86 468.39 194.73"/><polygon class="cls-46" points="456.04 192.29 451.39 189.6 451.7 187.73 456.35 190.41 456.04 192.29"/><polygon class="cls-46" points="463.04 196.33 457.34 193.04 457.65 191.16 463.35 194.45 463.04 196.33"/><polygon class="cls-46" points="466.43 198.28 464.34 197.08 464.65 195.21 466.74 196.41 466.43 198.28"/><polygon class="cls-46" points="469.65 200.15 467.56 198.94 467.87 197.07 469.96 198.27 469.65 200.15"/><polygon class="cls-46" points="454.05 195.82 450.69 193.88 451 192.01 454.36 193.95 454.05 195.82"/><polygon class="cls-46" points="456.5 197.24 455.35 196.58 455.66 194.7 456.81 195.37 456.5 197.24"/><polygon class="cls-46" points="459.89 199.2 457.81 197.99 458.11 196.12 460.2 197.32 459.89 199.2"/><polygon class="cls-46" points="462.39 205.33 449.99 198.16 450.29 196.29 462.7 203.46 462.39 205.33"/><polygon class="cls-46" points="466.77 207.85 463.7 206.08 464.01 204.21 467.08 205.98 466.77 207.85"/><polygon class="cls-46" points="452.64 204.38 449.28 202.44 449.59 200.57 452.95 202.51 452.64 204.38"/><polygon class="cls-46" points="460.53 208.94 453.95 205.14 454.25 203.26 460.84 207.07 460.53 208.94"/><polygon class="cls-46" points="463.92 210.9 461.84 209.69 462.14 207.82 464.23 209.02 463.92 210.9"/><polygon class="cls-46" points="455.46 210.69 448.58 206.72 448.88 204.85 455.76 208.82 455.46 210.69"/><polygon class="cls-46" points="461.73 214.32 456.76 211.45 457.07 209.57 462.04 212.45 461.73 214.32"/><polygon class="cls-46" points="466.4 217.01 463.04 215.07 463.35 213.2 466.71 215.14 466.4 217.01"/><polygon class="cls-46" points="450.2 212.34 447.87 211 448.18 209.13 450.5 210.47 450.2 212.34"/><polygon class="cls-46" points="454.57 214.87 451.5 213.1 451.81 211.22 454.88 213 454.57 214.87"/><polygon class="cls-46" points="460.82 218.48 455.87 215.62 456.18 213.75 461.13 216.6 460.82 218.48"/><polygon class="cls-46" points="454.29 219.39 447.17 215.28 447.48 213.41 454.59 217.52 454.29 219.39"/><polygon class="cls-46" points="462.26 224 455.59 220.14 455.9 218.27 462.56 222.12 462.26 224"/><polygon class="cls-46" points="465.65 225.95 463.56 224.75 463.87 222.88 465.95 224.08 465.65 225.95"/><polygon class="cls-46" points="468.9 227.83 466.81 226.63 467.12 224.75 469.21 225.96 468.9 227.83"/><polygon class="cls-46" points="450.73 222.02 446.46 219.56 446.77 217.69 451.04 220.15 450.73 222.02"/><polygon class="cls-46" points="474.19 198.09 480.11 201.5 480.42 199.63 474.5 196.21 474.19 198.09"/><polygon class="cls-46" points="474.76 203.1 479.4 205.78 479.71 203.91 475.06 201.22 474.76 203.1"/><polygon class="cls-46" points="475.34 208.12 478.7 210.06 479.01 208.19 475.65 206.24 475.34 208.12"/><polygon class="cls-46" points="473.11 211.51 478 214.34 478.3 212.47 473.41 209.64 473.11 211.51"/><polygon class="cls-46" points="473.93 216.68 477.29 218.62 477.6 216.75 474.24 214.8 473.93 216.68"/><polygon class="cls-46" points="472.32 220.44 476.59 222.9 476.9 221.03 472.63 218.56 472.32 220.44"/><polygon class="cls-46" points="473.56 225.84 475.88 227.18 476.19 225.31 473.87 223.96 473.56 225.84"/><polygon class="cls-46" points="470.68 228.86 475.18 231.46 475.49 229.59 470.99 226.99 470.68 228.86"/><polygon class="cls-46" points="470.21 233.28 474.48 235.74 474.78 233.87 470.52 231.4 470.21 233.28"/><polygon class="cls-46" points="453.85 223.82 452.03 222.78 452.34 220.9 454.15 221.95 453.85 223.82"/><polygon class="cls-46" points="459.23 226.93 455.15 224.58 455.46 222.7 459.54 225.06 459.23 226.93"/><polygon class="cls-46" points="493.71 209.28 485.18 204.35 485.49 202.48 494.02 207.4 493.71 209.28"/><polygon class="cls-46" points="498.08 211.8 495.01 210.03 495.32 208.15 498.39 209.93 498.08 211.8"/><polygon class="cls-46" points="501.47 213.76 499.38 212.55 499.69 210.68 501.78 211.88 501.47 213.76"/><polygon class="cls-46" points="489.12 211.31 484.48 208.63 484.78 206.75 489.43 209.44 489.12 211.31"/><polygon class="cls-46" points="496.12 215.35 490.43 212.06 490.73 210.19 496.43 213.48 496.12 215.35"/><polygon class="cls-46" points="499.51 217.31 497.42 216.11 497.73 214.23 499.82 215.44 499.51 217.31"/><polygon class="cls-46" points="502.74 219.18 500.65 217.97 500.96 216.1 503.04 217.3 502.74 219.18"/><polygon class="cls-46" points="487.13 214.85 483.77 212.91 484.08 211.03 487.44 212.98 487.13 214.85"/><polygon class="cls-46" points="489.59 216.27 488.44 215.6 488.75 213.73 489.89 214.39 489.59 216.27"/><polygon class="cls-46" points="492.98 218.22 490.89 217.02 491.2 215.15 493.28 216.35 492.98 218.22"/><polygon class="cls-46" points="495.48 224.36 483.07 217.19 483.38 215.31 495.79 222.48 495.48 224.36"/><polygon class="cls-46" points="499.85 226.88 496.78 225.11 497.09 223.24 500.16 225.01 499.85 226.88"/><polygon class="cls-46" points="485.73 223.41 482.36 221.47 482.67 219.59 486.03 221.54 485.73 223.41"/><polygon class="cls-46" points="493.62 227.97 487.03 224.16 487.34 222.29 493.93 226.09 493.62 227.97"/><polygon class="cls-46" points="497.01 229.93 494.92 228.72 495.23 226.85 497.31 228.05 497.01 229.93"/><polygon class="cls-46" points="488.54 229.72 481.66 225.75 481.97 223.88 488.85 227.85 488.54 229.72"/><polygon class="cls-46" points="494.82 233.35 489.84 230.47 490.15 228.6 495.13 231.47 494.82 233.35"/><polygon class="cls-46" points="499.48 236.04 496.12 234.1 496.43 232.23 499.79 234.17 499.48 236.04"/><polygon class="cls-46" points="483.28 231.37 480.96 230.03 481.26 228.16 483.59 229.5 483.28 231.37"/><polygon class="cls-46" points="487.65 233.9 484.58 232.12 484.89 230.25 487.96 232.02 487.65 233.9"/><polygon class="cls-46" points="493.9 237.51 488.96 234.65 489.26 232.78 494.21 235.63 493.9 237.51"/><polygon class="cls-46" points="487.37 238.42 480.25 234.31 480.56 232.44 487.68 236.54 487.37 238.42"/><polygon class="cls-46" points="495.34 243.02 488.67 239.17 488.98 237.3 495.65 241.15 495.34 243.02"/><polygon class="cls-46" points="498.73 244.98 496.64 243.78 496.95 241.9 499.04 243.11 498.73 244.98"/><polygon class="cls-46" points="501.98 246.86 499.9 245.65 500.2 243.78 502.29 244.99 501.98 246.86"/><polygon class="cls-46" points="483.81 241.05 479.55 238.59 479.86 236.72 484.12 239.18 483.81 241.05"/><polygon class="cls-46" points="507.28 217.11 513.19 220.53 513.5 218.65 507.59 215.24 507.28 217.11"/><polygon class="cls-46" points="507.84 222.12 512.49 224.81 512.79 222.93 508.15 220.25 507.84 222.12"/><polygon class="cls-46" points="508.42 227.15 511.78 229.09 512.09 227.21 508.73 225.27 508.42 227.15"/><polygon class="cls-46" points="506.19 230.54 511.08 233.37 511.39 231.49 506.5 228.67 506.19 230.54"/><polygon class="cls-46" points="507.01 235.71 510.38 237.65 510.68 235.77 507.32 233.83 507.01 235.71"/><polygon class="cls-46" points="505.41 239.46 509.67 241.93 509.98 240.05 505.71 237.59 505.41 239.46"/><polygon class="cls-46" points="506.64 244.87 508.97 246.21 509.27 244.33 506.95 242.99 506.64 244.87"/><polygon class="cls-46" points="503.76 247.89 508.26 250.49 508.57 248.61 504.07 246.01 503.76 247.89"/><polygon class="cls-46" points="503.3 252.3 507.56 254.77 507.87 252.89 503.6 250.43 503.3 252.3"/><polygon class="cls-46" points="486.93 242.85 485.12 241.8 485.42 239.93 487.24 240.98 486.93 242.85"/><polygon class="cls-46" points="492.31 245.96 488.23 243.6 488.54 241.73 492.62 244.09 492.31 245.96"/><path class="cls-33" d="M419.92,286.6c-10.68,0-20.71-2.4-28.25-6.75h0c-7.66-4.43-11.89-10.35-11.89-16.68s4.23-12.26,11.89-16.69c15.58-9,40.92-9,56.5,0,7.67,4.43,11.89,10.35,11.89,16.68s-4.22,12.26-11.89,16.69S430.6,286.6,419.92,286.6Zm0-46.39c-10.14,0-20.28,2.23-28,6.69-7.51,4.33-11.65,10.11-11.65,16.27s4.14,11.93,11.65,16.27h0c7.47,4.31,17.41,6.68,28,6.68s20.55-2.37,28-6.68,11.66-10.12,11.66-16.28-4.14-11.93-11.66-16.27C440.21,242.44,430.07,240.21,419.92,240.21Z"/><g class="cls-11"><ellipse class="cls-17" cx="419.92" cy="263.17" rx="29.65" ry="17.12"/></g><path class="cls-47" d="M383.61,250.26V242.2h2.78a24.86,24.86,0,0,1,7.86-6.77c14.18-8.19,37.17-8.19,51.35,0a24.71,24.71,0,0,1,7.85,6.77h2.79v8.06h0c0,5.36-3.55,10.73-10.64,14.82-14.18,8.19-37.17,8.19-51.36,0C387.15,261,383.61,255.62,383.61,250.26Z"/><ellipse class="cls-35" cx="419.92" cy="242.2" rx="36.31" ry="20.97"/><path class="cls-48" d="M386.39,241.89v-11H389a23,23,0,0,1,7.25-6.25c13.1-7.56,34.33-7.56,47.43,0a23,23,0,0,1,7.25,6.25h2.57v11h0c0,5-3.28,9.91-9.82,13.69-13.1,7.56-34.33,7.56-47.43,0C389.66,251.8,386.39,246.85,386.39,241.89Z"/><g class="cls-18"><path class="cls-19" d="M386.39,239.24v-11H389a23,23,0,0,1,7.25-6.25c13.1-7.56,34.33-7.56,47.43,0a23,23,0,0,1,7.25,6.25h2.57v11h0c0,5-3.28,9.91-9.82,13.7-13.1,7.56-34.33,7.56-47.43,0C389.66,249.16,386.39,244.2,386.39,239.24Z"/></g><ellipse class="cls-35" cx="419.92" cy="230.89" rx="33.54" ry="19.36"/><g class="cls-18"><path class="cls-36" d="M396.82,245.14a40.93,40.93,0,0,0,19.8,13.37c-7.45-.42-14.7-2.28-20.41-5.57-6.55-3.78-9.82-8.74-9.82-13.7V236A35.23,35.23,0,0,1,396.82,245.14Z"/></g><path class="cls-49" d="M383.61,230.72v-8.06h2.78a24.85,24.85,0,0,1,7.86-6.76c14.18-8.19,37.17-8.19,51.35,0a24.83,24.83,0,0,1,7.85,6.77h2.79v8.06h0c0,5.36-3.55,10.73-10.64,14.82-14.18,8.19-37.17,8.19-51.36,0C387.15,241.45,383.61,236.08,383.61,230.72Z"/><ellipse class="cls-35" cx="419.92" cy="222.66" rx="36.31" ry="20.97"/><path class="cls-48" d="M386.39,222V211H389a23,23,0,0,1,7.25-6.25c13.1-7.56,34.33-7.56,47.43,0a23,23,0,0,1,7.25,6.25h2.57v11h0c0,5-3.28,9.91-9.82,13.69-13.1,7.56-34.33,7.56-47.43,0C389.66,231.86,386.39,226.9,386.39,222Z"/><g class="cls-18"><path class="cls-19" d="M386.39,219.43v-11H389a22.74,22.74,0,0,1,7.25-6.25c13.1-7.57,34.33-7.57,47.43,0a22.74,22.74,0,0,1,7.25,6.25h2.57v11h0c0,5-3.28,9.91-9.82,13.69-13.1,7.57-34.33,7.57-47.43,0C389.66,229.34,386.39,224.39,386.39,219.43Z"/></g><ellipse class="cls-35" cx="419.92" cy="210.95" rx="33.54" ry="19.36"/><g class="cls-18"><path class="cls-36" d="M396.82,224.17c7.17,9.13,17.17,13,24.24,14.59-9,.18-18-1.69-24.85-5.64-6.55-3.78-9.82-8.73-9.82-13.69V215A35.28,35.28,0,0,1,396.82,224.17Z"/></g><path class="cls-50" d="M383.61,210.78v-8.06h2.78a24.86,24.86,0,0,1,7.86-6.77c14.18-8.19,37.17-8.19,51.35,0a24.71,24.71,0,0,1,7.85,6.77h2.79v8.06h0c0,5.36-3.55,10.73-10.64,14.82-14.18,8.19-37.17,8.19-51.36,0C387.15,221.51,383.61,216.14,383.61,210.78Z"/><ellipse class="cls-35" cx="419.92" cy="202.72" rx="36.31" ry="20.97"/><path class="cls-48" d="M386.39,202V191H389a23,23,0,0,1,7.25-6.25c13.1-7.56,34.33-7.56,47.43,0a23,23,0,0,1,7.25,6.25h2.57v11h0c0,5-3.28,9.91-9.82,13.69-13.1,7.56-34.33,7.56-47.43,0C389.66,211.92,386.39,207,386.39,202Z"/><g class="cls-18"><path class="cls-19" d="M386.39,198.93v-11H389a23,23,0,0,1,7.25-6.25c13.1-7.56,34.33-7.56,47.43,0a23,23,0,0,1,7.25,6.25h2.57v11h0c0,4.95-3.28,9.91-9.82,13.69-13.1,7.56-34.33,7.56-47.43,0C389.66,208.84,386.39,203.88,386.39,198.93Z"/></g><ellipse class="cls-35" cx="419.92" cy="191.01" rx="33.54" ry="19.36"/><path class="cls-51" d="M383.61,190.83v-8.05h2.78a24.86,24.86,0,0,1,7.86-6.77c14.18-8.19,37.17-8.19,51.35,0a24.71,24.71,0,0,1,7.85,6.77h2.79v8.05h0c0,5.37-3.55,10.73-10.64,14.83-14.18,8.19-37.17,8.19-51.36,0C387.15,201.56,383.61,196.2,383.61,190.83Z"/><ellipse class="cls-35" cx="419.92" cy="182.78" rx="36.31" ry="20.97"/><ellipse class="cls-35" cx="419.92" cy="182.78" rx="36.31" ry="20.97"/><g class="cls-18"><path class="cls-36" d="M396.82,203.19c7.87,10,19.17,13.68,26.23,15-9.6.52-19.5-1.34-26.84-5.58-6.55-3.78-9.82-8.74-9.82-13.69V194A35.09,35.09,0,0,1,396.82,203.19Z"/></g><path class="cls-51" d="M383.61,190.83v-8.05h2.78a24.86,24.86,0,0,1,7.86-6.77c14.18-8.19,37.17-8.19,51.35,0a24.71,24.71,0,0,1,7.85,6.77h2.79v8.05h0c0,5.37-3.55,10.73-10.64,14.83-14.18,8.19-37.17,8.19-51.36,0C387.15,201.56,383.61,196.2,383.61,190.83Z"/><ellipse class="cls-35" cx="419.92" cy="182.78" rx="36.31" ry="20.97"/><ellipse class="cls-35" cx="419.92" cy="182.78" rx="36.31" ry="20.97"/><path class="cls-27" d="M394,197c14.18,8.18,37.17,8.18,51.35,0,8.69-5,12-11.94,10.09-18.43,2.38,6.67-.91,13.88-9.88,19.06-14.18,8.19-37.17,8.19-51.36,0-5.49-3.17-8.85-7.11-10.08-11.22C385.54,190.26,388.83,194,394,197Z"/><path class="cls-27" d="M394,216.91c14.18,8.19,37.17,8.19,51.35,0,8.69-5,12-11.94,10.09-18.43,2.38,6.67-.91,13.89-9.88,19.06-14.18,8.19-37.17,8.19-51.36,0-5.49-3.17-8.85-7.11-10.08-11.22C385.54,210.2,388.83,213.9,394,216.91Z"/><path class="cls-27" d="M394,236.85c14.18,8.19,37.17,8.19,51.35,0,8.69-5,12-11.93,10.09-18.43,2.38,6.68-.91,13.89-9.88,19.07-14.18,8.18-37.17,8.19-51.36,0-5.49-3.18-8.85-7.11-10.08-11.22C385.54,230.14,388.83,233.84,394,236.85Z"/><path class="cls-27" d="M394,256.79c14.18,8.19,37.17,8.19,51.35,0,8.69-5,12-11.93,10.09-18.42,2.38,6.67-.91,13.88-9.88,19.06-14.18,8.19-37.17,8.19-51.36,0-5.49-3.17-8.85-7.11-10.08-11.22C385.54,250.09,388.83,253.79,394,256.79Z"/><g class="cls-52"><path class="cls-53" d="M452.89,191.58h-33V172.14h31.3C457.29,178.08,457.85,185.39,452.89,191.58Z"/></g><path class="cls-54" d="M401.28,180.82v-4.14h1.43a12.66,12.66,0,0,1,4-3.47c7.28-4.21,19.09-4.21,26.37,0a12.66,12.66,0,0,1,4,3.47h1.43v4.14h0c0,2.75-1.82,5.51-5.46,7.61-7.29,4.2-19.09,4.2-26.37,0C403.1,186.33,401.28,183.57,401.28,180.82Z"/><ellipse class="cls-35" cx="419.92" cy="176.68" rx="18.64" ry="10.76"/><ellipse class="cls-55" cx="419.92" cy="176.68" rx="18.64" ry="10.76"/><path class="cls-17" d="M411.05,181.81c4.9,2.83,12.85,2.83,17.75,0a7.9,7.9,0,0,0,3.16-3.06c1.26-2.47-1.9-4.26-5.27-6.2-4.9-2.84-8.38-3.54-13.28-.71-3.37,1.95-6.79,4.44-5.52,6.9A7.79,7.79,0,0,0,411.05,181.81Z"/><path class="cls-56" d="M428.8,175.69c-4.9-2.83-12.85-2.83-17.75,0a7.84,7.84,0,0,0-3.16,3.06c-1.27-2.47-.22-5.25,3.16-7.19,4.9-2.83,12.85-2.84,17.75,0,3.37,1.94,4.42,4.72,3.16,7.19A7.9,7.9,0,0,0,428.8,175.69Z"/><g class="cls-18"><path class="cls-45" d="M399.48,213.37c2.45,1,4.27.71,4.08-.58s-2.33-3.11-4.77-4.07-4.28-.7-4.09.58S397,212.41,399.48,213.37Z"/></g><g class="cls-18"><path class="cls-45" d="M399.48,233.6c2.45,1,4.27.7,4.08-.58s-2.33-3.11-4.77-4.07-4.28-.7-4.09.58S397,232.64,399.48,233.6Z"/></g><g class="cls-18"><path class="cls-45" d="M399.35,254c2.44,1,4.27.71,4.08-.58s-2.33-3.11-4.78-4.07-4.27-.7-4.08.58S396.9,253,399.35,254Z"/></g><g class="cls-18"><path class="cls-45" d="M392.52,208.3a1,1,0,1,0-.48-1.54A1.16,1.16,0,0,0,392.52,208.3Z"/></g><g class="cls-18"><path class="cls-45" d="M392.52,228.62a1,1,0,1,0-.48-1.54A1.16,1.16,0,0,0,392.52,228.62Z"/></g><g class="cls-18"><path class="cls-45" d="M392.52,248.86a1,1,0,1,0-.48-1.53A1.15,1.15,0,0,0,392.52,248.86Z"/></g><path class="cls-33" d="M397.87,306.3a3.23,3.23,0,0,1-1.62-.38h0l-79.44-45.86a1.27,1.27,0,0,1-.72-1.07,1.64,1.64,0,0,1,1-1.33l16.5-9.53a4,4,0,0,1,3.68-.14l79.45,45.86a1.26,1.26,0,0,1,.71,1.07,1.65,1.65,0,0,1-1,1.33l-16.51,9.53A4.18,4.18,0,0,1,397.87,306.3Zm-1.38-.79a3.56,3.56,0,0,0,3.2-.14l16.51-9.53c.46-.27.72-.6.72-.92a.83.83,0,0,0-.47-.66L337,248.4a3.58,3.58,0,0,0-3.21.14l-16.51,9.53c-.46.27-.72.6-.72.92a.82.82,0,0,0,.48.66Z"/><path class="cls-57" d="M348.83,221.13a23.2,23.2,0,0,1,5.82,4.91c2.44-7.84,9.89-10.27,18.69-5.19,7.29,4.21,13.64,12.48,17,21.24a8,8,0,0,1,3.66,1.16c4.76,2.75,8.61,9.42,8.61,14.91,0,.12,0,.23,0,.35A10.3,10.3,0,0,1,407,260c6.09,3.51,11,12.05,11,19.07s-4.92,9.86-11,6.35l-58.19-33.59c-7.34-4.24-13.29-14.55-13.29-23S341.49,216.89,348.83,221.13Z"/><path class="cls-58" d="M348.83,221.13a20.71,20.71,0,0,1,3.5,2.56l6.5-3.76h0c3.58-2.51,8.75-2.4,14.51.92,7.29,4.21,13.64,12.48,17,21.24a8,8,0,0,1,3.66,1.16c4.76,2.75,8.61,9.42,8.61,14.91,0,.12,0,.23,0,.35A10.3,10.3,0,0,1,407,260c6.09,3.51,11,12.05,11,19.07,0,3.48-1.21,5.93-3.17,7.09h0l-.06,0h0l-15.93,9.25-3.49-16.75-46.55-26.87c-7.34-4.24-13.29-14.55-13.29-23S341.49,216.89,348.83,221.13Z"/><path class="cls-59" d="M323.21,229.62l16.15-9.38h0c2.41-1.43,5.76-1.25,9.47.89a20.71,20.71,0,0,1,3.5,2.56l6.5-3.76h0c3.58-2.51,8.75-2.4,14.51.92,7.29,4.21,13.64,12.48,17,21.24a8,8,0,0,1,3.66,1.16c4.76,2.75,8.61,9.42,8.61,14.91,0,.12,0,.23,0,.35A10.3,10.3,0,0,1,407,260c6.09,3.51,11,12.05,11,19.07,0,3.48-1.21,5.93-3.17,7.09h0l-.06,0h0l-15.93,9.25-3.49-16.75-46.55-26.87c-5.95-3.44-11-10.86-12.68-18.06Z"/><path class="cls-60" d="M332.84,230.41a23.37,23.37,0,0,1,5.82,4.91c2.44-7.84,9.89-10.27,18.69-5.19,7.29,4.21,13.64,12.48,17,21.25a7.8,7.8,0,0,1,3.67,1.16c4.75,2.74,8.61,9.42,8.61,14.91,0,.11,0,.22,0,.34a10.3,10.3,0,0,1,4.43,1.48c6.08,3.51,11,12.05,11,19.07s-4.93,9.87-11,6.35L332.84,261.1c-7.34-4.24-13.29-14.55-13.29-23S325.5,226.17,332.84,230.41Z"/><path class="cls-27" d="M338.66,235.32a23.37,23.37,0,0,0-5.82-4.91c-4.49-2.6-8.46-2.31-10.87.24,2.35-3,6.51-3.42,11.25-.68a23.46,23.46,0,0,1,5.65,4.72Z"/><path class="cls-27" d="M402,288.34c0-7-4.93-15.56-11-19.07a10.3,10.3,0,0,0-4.43-1.48c0-.12,0-.23,0-.34,0-5.49-3.86-12.17-8.61-14.91a7.8,7.8,0,0,0-3.67-1.16c-3.35-8.77-9.7-17-17-21.25-6.67-3.85-12.56-3.38-16.08.48,3.47-4.26,9.54-4.91,16.46-.92,7.29,4.21,13.64,12.48,17,21.25a7.8,7.8,0,0,1,3.67,1.16c4.75,2.74,8.61,9.42,8.61,14.91,0,.12,0,.22,0,.34a10.3,10.3,0,0,1,4.43,1.48c6.08,3.51,11,12.05,11,19.07a8.69,8.69,0,0,1-2.06,6.2A9.16,9.16,0,0,0,402,288.34Z"/></g></g></svg>