<svg xmlns="http://www.w3.org/2000/svg" xmlns:xlink="http://www.w3.org/1999/xlink" viewBox="0 0 362.91 292.8"><defs><style>.cls-1{isolation:isolate;}.cls-2{opacity:0.85;}.cls-3{mix-blend-mode:multiply;}.cls-4{fill:url(#linear-gradient);}.cls-5{fill:url(#linear-gradient-2);}.cls-6{fill:url(#linear-gradient-3);}.cls-7{opacity:0.3;}.cls-8{fill:url(#linear-gradient-4);}.cls-9{fill:url(#linear-gradient-5);}.cls-10{fill:#fa388a;}.cls-11{fill:#e52574;}.cls-12{fill:#ff589d;}.cls-13{fill:#fbfcfe;}.cls-14{fill:url(#linear-gradient-6);}.cls-15{fill:url(#linear-gradient-7);}.cls-16{fill:url(#linear-gradient-8);}.cls-17{fill:url(#linear-gradient-9);}.cls-18{fill:url(#linear-gradient-10);}.cls-19{fill:#a03bff;}.cls-20{fill:#8d27ea;}.cls-21{fill:#b059ff;}.cls-22,.cls-23{fill:none;stroke-linecap:round;stroke-linejoin:round;}.cls-22{stroke:#1a1a1a;stroke-width:2.95px;opacity:0.4;}.cls-23{stroke:#fff;stroke-width:2.97px;}.cls-24{fill:url(#linear-gradient-11);}.cls-25{fill:url(#linear-gradient-12);}.cls-26{fill:url(#linear-gradient-13);}.cls-27{opacity:0.8;}.cls-28{fill:url(#linear-gradient-14);}.cls-29{fill:url(#linear-gradient-15);}.cls-30{fill:url(#linear-gradient-16);}.cls-31{fill:url(#linear-gradient-17);}.cls-32{fill:url(#linear-gradient-18);}.cls-33{fill:url(#linear-gradient-19);}.cls-34{fill:url(#linear-gradient-20);}.cls-35{fill:url(#linear-gradient-21);}.cls-36{fill:url(#linear-gradient-22);}.cls-37{fill:url(#linear-gradient-23);}.cls-38{fill:url(#linear-gradient-24);}.cls-39{fill:url(#linear-gradient-25);}.cls-40{fill:#9f0074;}.cls-41{fill:#6a0041;}.cls-42{fill:#740041;}.cls-43{fill:url(#linear-gradient-26);}.cls-44{fill:url(#linear-gradient-27);}.cls-45{fill:url(#linear-gradient-28);}.cls-46{fill:url(#linear-gradient-29);}.cls-47{fill:url(#linear-gradient-30);}.cls-48{fill:url(#linear-gradient-31);}.cls-49{fill:url(#linear-gradient-32);}.cls-50{fill:url(#linear-gradient-33);}.cls-51{fill:url(#linear-gradient-34);}.cls-52{fill:url(#linear-gradient-35);}.cls-53{fill:#58c6ff;}.cls-54{fill:#25a3e5;}.cls-55{fill:url(#linear-gradient-36);}.cls-56{fill:url(#linear-gradient-37);}.cls-57{fill:url(#linear-gradient-38);}.cls-58{fill:url(#linear-gradient-39);}.cls-59{fill:url(#linear-gradient-40);}.cls-60{fill:#38b9fa;}.cls-61{fill:url(#linear-gradient-41);}.cls-62{fill:url(#linear-gradient-42);}.cls-63{fill:url(#linear-gradient-43);}.cls-64{fill:url(#linear-gradient-44);}.cls-65{fill:url(#linear-gradient-45);}.cls-66{fill:url(#linear-gradient-46);}.cls-67{fill:url(#linear-gradient-47);}.cls-68{fill:url(#linear-gradient-48);}.cls-69{fill:url(#linear-gradient-49);}.cls-70{fill:url(#linear-gradient-50);}</style><linearGradient id="linear-gradient" x1="335.93" y1="99.38" x2="335.93" y2="67.84" gradientUnits="userSpaceOnUse"><stop offset="0" stop-color="#fff" stop-opacity="0"/><stop offset="1"/></linearGradient><linearGradient id="linear-gradient-2" x1="322.47" y1="130.59" x2="322.47" y2="83.63" xlink:href="#linear-gradient"/><linearGradient id="linear-gradient-3" x1="349.43" y1="130.59" x2="349.43" y2="83.59" xlink:href="#linear-gradient"/><linearGradient id="linear-gradient-4" x1="343.86" y1="111.36" x2="343.86" y2="95.74" xlink:href="#linear-gradient"/><linearGradient id="linear-gradient-5" x1="336.16" y1="76.98" x2="336.16" y2="72.05" xlink:href="#linear-gradient"/><linearGradient id="linear-gradient-6" x1="27" y1="99.38" x2="27" y2="67.84" xlink:href="#linear-gradient"/><linearGradient id="linear-gradient-7" x1="13.54" y1="130.59" x2="13.54" y2="83.63" xlink:href="#linear-gradient"/><linearGradient id="linear-gradient-8" x1="40.49" y1="130.59" x2="40.49" y2="83.59" xlink:href="#linear-gradient"/><linearGradient id="linear-gradient-9" x1="34.93" y1="111.36" x2="34.93" y2="95.74" xlink:href="#linear-gradient"/><linearGradient id="linear-gradient-10" x1="27.23" y1="76.98" x2="27.23" y2="72.05" xlink:href="#linear-gradient"/><linearGradient id="linear-gradient-11" x1="180.69" y1="72.91" x2="180.69" y2="17.01" xlink:href="#linear-gradient"/><linearGradient id="linear-gradient-12" x1="156.83" y1="128.25" x2="156.83" y2="44.99" xlink:href="#linear-gradient"/><linearGradient id="linear-gradient-13" x1="204.61" y1="128.25" x2="204.61" y2="44.92" xlink:href="#linear-gradient"/><linearGradient id="linear-gradient-14" x1="194.74" y1="94.16" x2="194.74" y2="66.47" xlink:href="#linear-gradient"/><linearGradient id="linear-gradient-15" x1="181.09" y1="33.2" x2="181.09" y2="24.47" xlink:href="#linear-gradient"/><linearGradient id="linear-gradient-16" x1="270.03" y1="146" x2="270.03" y2="89.96" xlink:href="#linear-gradient"/><linearGradient id="linear-gradient-17" x1="246.11" y1="201.47" x2="246.11" y2="118.01" xlink:href="#linear-gradient"/><linearGradient id="linear-gradient-18" x1="294.01" y1="201.47" x2="294.01" y2="117.94" xlink:href="#linear-gradient"/><linearGradient id="linear-gradient-19" x1="284.48" y1="168.89" x2="284.48" y2="138.94" xlink:href="#linear-gradient"/><linearGradient id="linear-gradient-20" x1="269.71" y1="106.23" x2="269.71" y2="96.78" xlink:href="#linear-gradient"/><linearGradient id="linear-gradient-21" x1="91.23" y1="145.99" x2="91.23" y2="90.1" xlink:href="#linear-gradient"/><linearGradient id="linear-gradient-22" x1="67.37" y1="201.34" x2="67.37" y2="118.08" xlink:href="#linear-gradient"/><linearGradient id="linear-gradient-23" x1="115.15" y1="201.34" x2="115.15" y2="118.01" xlink:href="#linear-gradient"/><linearGradient id="linear-gradient-24" x1="105.11" y1="167.25" x2="105.11" y2="139.56" xlink:href="#linear-gradient"/><linearGradient id="linear-gradient-25" x1="91.46" y1="106.29" x2="91.46" y2="97.56" xlink:href="#linear-gradient"/><linearGradient id="linear-gradient-26" x1="180.33" y1="226.23" x2="180.33" y2="170.33" xlink:href="#linear-gradient"/><linearGradient id="linear-gradient-27" x1="156.47" y1="281.56" x2="156.47" y2="198.31" xlink:href="#linear-gradient"/><linearGradient id="linear-gradient-28" x1="204.25" y1="281.56" x2="204.25" y2="198.24" xlink:href="#linear-gradient"/><linearGradient id="linear-gradient-29" x1="194.38" y1="247.48" x2="194.38" y2="219.79" xlink:href="#linear-gradient"/><linearGradient id="linear-gradient-30" x1="180.73" y1="186.52" x2="180.73" y2="177.78" xlink:href="#linear-gradient"/><linearGradient id="linear-gradient-31" x1="240.41" y1="261.59" x2="240.41" y2="230.05" xlink:href="#linear-gradient"/><linearGradient id="linear-gradient-32" x1="226.95" y1="292.8" x2="226.95" y2="245.84" xlink:href="#linear-gradient"/><linearGradient id="linear-gradient-33" x1="253.91" y1="292.8" x2="253.91" y2="245.8" xlink:href="#linear-gradient"/><linearGradient id="linear-gradient-34" x1="248.34" y1="273.58" x2="248.34" y2="257.96" xlink:href="#linear-gradient"/><linearGradient id="linear-gradient-35" x1="240.64" y1="239.19" x2="240.64" y2="234.26" xlink:href="#linear-gradient"/><linearGradient id="linear-gradient-36" x1="26.98" y1="181.3" x2="26.98" y2="149.77" xlink:href="#linear-gradient"/><linearGradient id="linear-gradient-37" x1="13.52" y1="212.52" x2="13.52" y2="165.56" xlink:href="#linear-gradient"/><linearGradient id="linear-gradient-38" x1="40.47" y1="212.52" x2="40.47" y2="165.52" xlink:href="#linear-gradient"/><linearGradient id="linear-gradient-39" x1="34.9" y1="193.29" x2="34.9" y2="177.67" xlink:href="#linear-gradient"/><linearGradient id="linear-gradient-40" x1="27.2" y1="158.9" x2="27.2" y2="153.98" xlink:href="#linear-gradient"/><linearGradient id="linear-gradient-41" x1="118.47" y1="261.2" x2="118.47" y2="229.66" xlink:href="#linear-gradient"/><linearGradient id="linear-gradient-42" x1="105.01" y1="292.41" x2="105.01" y2="245.45" xlink:href="#linear-gradient"/><linearGradient id="linear-gradient-43" x1="131.96" y1="292.41" x2="131.96" y2="245.41" xlink:href="#linear-gradient"/><linearGradient id="linear-gradient-44" x1="126.39" y1="273.19" x2="126.39" y2="257.57" xlink:href="#linear-gradient"/><linearGradient id="linear-gradient-45" x1="118.69" y1="238.8" x2="118.69" y2="233.87" xlink:href="#linear-gradient"/><linearGradient id="linear-gradient-46" x1="335.91" y1="181.3" x2="335.91" y2="149.77" xlink:href="#linear-gradient"/><linearGradient id="linear-gradient-47" x1="322.45" y1="212.52" x2="322.45" y2="165.56" xlink:href="#linear-gradient"/><linearGradient id="linear-gradient-48" x1="349.4" y1="212.52" x2="349.4" y2="165.52" xlink:href="#linear-gradient"/><linearGradient id="linear-gradient-49" x1="343.84" y1="193.29" x2="343.84" y2="177.67" xlink:href="#linear-gradient"/><linearGradient id="linear-gradient-50" x1="336.14" y1="158.9" x2="336.14" y2="153.98" xlink:href="#linear-gradient"/></defs><title>Block chain</title><g class="cls-1"><g id="OBJECTS"><g class="cls-2"><g class="cls-3"><polygon class="cls-4" points="335.92 67.84 308.98 83.63 335.94 99.38 362.88 83.59 335.92 67.84"/><polygon class="cls-5" points="335.97 130.59 309 114.84 308.98 83.63 335.94 99.38 335.97 130.59"/><polygon class="cls-6" points="335.97 130.59 362.91 114.81 362.88 83.59 335.94 99.38 335.97 130.59"/><g class="cls-7"><path class="cls-8" d="M341,100.12a5.21,5.21,0,0,0-2.4,4.1v6c0,1.52.41,1.59.91.16l1.49-4.21a14.9,14.9,0,0,1,2.83-4.57l4.65-4.78c1-1.08.84-1.36-.48-.62Z"/></g><g class="cls-7"><path class="cls-9" d="M344.13,76.79c1.47.35,1.62,0,.33-.8L339,72.66a5.25,5.25,0,0,0-4.76-.08l-6.32,3.52c-1.32.74-1.19,1.08.28.75l5.76-1.24a14.26,14.26,0,0,1,5.37,0Z"/></g></g><polygon class="cls-10" points="335.9 58.25 308.95 74.03 335.92 89.78 362.86 74 335.9 58.25"/><polygon class="cls-11" points="335.94 121 308.98 105.25 308.95 74.03 335.92 89.78 335.94 121"/><polygon class="cls-12" points="335.94 121 362.88 105.21 362.86 74 335.92 89.78 335.94 121"/><g class="cls-7"><path class="cls-13" d="M341,90.52a5.22,5.22,0,0,0-2.39,4.11v6c0,1.51.42,1.58.92.15L341,96.53A15,15,0,0,1,343.8,92l4.64-4.77c1.06-1.09.84-1.37-.48-.62Z"/></g><g class="cls-7"><path class="cls-13" d="M344.11,67.2c1.47.34,1.62,0,.32-.8L339,63.07a5.29,5.29,0,0,0-4.76-.09l-6.32,3.52c-1.33.74-1.2,1.08.28.76L333.91,66a14.42,14.42,0,0,1,5.36,0Z"/></g><g class="cls-3"><polygon class="cls-14" points="26.99 67.84 0.05 83.63 27.01 99.38 53.95 83.59 26.99 67.84"/><polygon class="cls-15" points="27.04 130.59 0.07 114.84 0.05 83.63 27.01 99.38 27.04 130.59"/><polygon class="cls-16" points="27.04 130.59 53.98 114.81 53.95 83.59 27.01 99.38 27.04 130.59"/><g class="cls-7"><path class="cls-17" d="M32,100.12a5.23,5.23,0,0,0-2.39,4.1v6c0,1.52.41,1.59.91.16l1.49-4.21a14.9,14.9,0,0,1,2.83-4.57l4.64-4.78c1.06-1.08.84-1.36-.47-.62Z"/></g><g class="cls-7"><path class="cls-18" d="M35.2,76.79c1.47.35,1.62,0,.33-.8L30,72.66a5.25,5.25,0,0,0-4.76-.08L19,76.1c-1.32.74-1.2,1.08.28.75L25,75.61a14.26,14.26,0,0,1,5.37,0Z"/></g></g><polygon class="cls-19" points="26.96 58.25 0.02 74.03 26.99 89.78 53.93 74 26.96 58.25"/><polygon class="cls-20" points="27.01 121 0.04 105.25 0.02 74.03 26.99 89.78 27.01 121"/><polygon class="cls-21" points="27.01 121 53.95 105.21 53.93 74 26.99 89.78 27.01 121"/><g class="cls-7"><path class="cls-13" d="M32,90.52a5.22,5.22,0,0,0-2.39,4.11v6c0,1.51.41,1.58.92.15L32,96.53A15,15,0,0,1,34.87,92l4.64-4.77c1.06-1.09.84-1.37-.48-.62Z"/></g><g class="cls-7"><path class="cls-13" d="M35.18,67.2c1.47.34,1.62,0,.32-.8L30,63.07A5.29,5.29,0,0,0,25.26,63L18.93,66.5c-1.32.74-1.19,1.08.29.76L25,66a14.42,14.42,0,0,1,5.36,0Z"/></g><line class="cls-22" x1="40.67" y1="99.39" x2="80.3" y2="122.63"/><line class="cls-23" x1="40.78" y1="97.83" x2="80.42" y2="121.08"/><g class="cls-3"><polygon class="cls-24" points="180.67 17.01 132.91 44.99 180.71 72.91 228.47 44.92 180.67 17.01"/><polygon class="cls-25" points="180.75 128.25 132.95 100.33 132.91 44.99 180.71 72.91 180.75 128.25"/><polygon class="cls-26" points="180.75 128.25 228.51 100.26 228.47 44.92 180.71 72.91 180.75 128.25"/><g class="cls-27"><path class="cls-28" d="M189.63,74.22a9.26,9.26,0,0,0-4.24,7.27V92.06c0,2.69.73,2.81,1.62.28l2.64-7.47a26.56,26.56,0,0,1,5-8.1l8.23-8.46c1.87-1.92,1.49-2.42-.85-1.1Z"/></g><g class="cls-27"><path class="cls-29" d="M195.23,32.87c2.61.62,2.87,0,.57-1.41l-9.72-5.9a9.31,9.31,0,0,0-8.43-.16l-11.22,6.24c-2.34,1.31-2.11,1.91.51,1.34l10.21-2.21a25.77,25.77,0,0,1,9.51.08Z"/></g></g><g class="cls-3"><polygon class="cls-30" points="270.01 89.96 222.13 118.01 270.05 146 317.93 117.94 270.01 89.96"/><polygon class="cls-31" points="270.09 201.47 222.17 173.49 222.13 118.01 270.05 146 270.09 201.47"/><polygon class="cls-32" points="270.09 201.47 317.97 173.42 317.93 117.94 270.05 146 270.09 201.47"/><g class="cls-7"><path class="cls-33" d="M279,147.32a10,10,0,0,0-4.59,7.87v11.43c0,2.9.79,3,1.76.3l2.85-8.08a28.59,28.59,0,0,1,5.43-8.76l8.9-9.15c2-2.09,1.61-2.62-.92-1.2Z"/></g><g class="cls-7"><path class="cls-34" d="M285,105.87c2.83.67,3.11,0,.63-1.52L275.11,98a10.08,10.08,0,0,0-9.12-.17l-12.13,6.76c-2.53,1.41-2.29,2.06.55,1.44l11-2.39a27.81,27.81,0,0,1,10.29.09Z"/></g></g><line class="cls-22" x1="321.47" y1="100.36" x2="281.83" y2="123.6"/><line class="cls-23" x1="321.35" y1="98.8" x2="281.72" y2="122.04"/><g class="cls-3"><polygon class="cls-35" points="91.21 90.1 43.45 118.08 91.25 145.99 139.01 118.01 91.21 90.1"/><polygon class="cls-36" points="91.29 201.34 43.49 173.42 43.45 118.08 91.25 145.99 91.29 201.34"/><polygon class="cls-37" points="91.29 201.34 139.05 173.35 139.01 118.01 91.25 145.99 91.29 201.34"/><g class="cls-7"><path class="cls-38" d="M100,147.31a9.2,9.2,0,0,0-4.24,7.27v10.57c0,2.68.74,2.81,1.63.28L100,158a26.66,26.66,0,0,1,5-8.1l8.23-8.46c1.87-1.92,1.48-2.42-.85-1.1Z"/></g><g class="cls-7"><path class="cls-39" d="M105.59,106c2.61.61,2.87,0,.58-1.41l-9.73-5.9A9.28,9.28,0,0,0,88,98.49L76.8,104.73c-2.34,1.31-2.12,1.91.51,1.34l10.2-2.21a25.83,25.83,0,0,1,9.52.08Z"/></g></g><polygon class="cls-40" points="180.63 0 132.87 27.98 180.67 55.9 228.43 27.91 180.63 0"/><polygon class="cls-40" points="180.71 111.24 132.91 83.32 132.87 27.98 180.67 55.9 180.71 111.24"/><polygon class="cls-40" points="180.71 111.24 228.47 83.25 228.43 27.91 180.67 55.9 180.71 111.24"/><g class="cls-27"><path class="cls-13" d="M189.59,57.21a9.24,9.24,0,0,0-4.25,7.27V75.05c0,2.69.74,2.81,1.63.28l2.64-7.47a26.56,26.56,0,0,1,5-8.1l8.23-8.46c1.87-1.92,1.48-2.42-.85-1.1Z"/></g><g class="cls-27"><path class="cls-13" d="M195.18,15.86c2.61.62,2.87,0,.58-1.41L186,8.55a9.31,9.31,0,0,0-8.43-.16l-11.21,6.25c-2.34,1.3-2.11,1.9.51,1.33l10.2-2.21a25.83,25.83,0,0,1,9.52.08Z"/></g><line class="cls-22" x1="251.96" y1="100.51" x2="204.63" y2="73.42"/><line class="cls-23" x1="251.84" y1="98.95" x2="204.52" y2="71.87"/><line class="cls-22" x1="156.82" y1="73.32" x2="117.19" y2="96.56"/><line class="cls-23" x1="156.71" y1="71.76" x2="117.07" y2="95"/><polygon class="cls-41" points="269.96 72.95 222.09 101 270 128.99 317.89 100.94 269.96 72.95"/><polygon class="cls-42" points="270.05 184.46 222.13 156.48 222.09 101 270 128.99 270.05 184.46"/><polygon class="cls-42" points="270.05 184.46 317.93 156.41 317.89 100.94 270 128.99 270.05 184.46"/><g class="cls-7"><path class="cls-13" d="M278.91,130.31a10,10,0,0,0-4.59,7.87v11.43c0,2.9.79,3,1.75.3l2.86-8.08a28.59,28.59,0,0,1,5.43-8.76l8.9-9.15c2-2.08,1.61-2.62-.92-1.19Z"/></g><g class="cls-7"><path class="cls-13" d="M285,88.86c2.82.67,3.1,0,.62-1.52L275.06,81a10.07,10.07,0,0,0-9.12-.17l-12.12,6.76c-2.54,1.41-2.29,2.06.54,1.44l11-2.39a28,28,0,0,1,10.29.09Z"/></g><line class="cls-22" x1="172.46" y1="189.52" x2="242.84" y2="148.35"/><polygon class="cls-41" points="91.17 73.09 43.41 101.07 91.21 128.99 138.97 101 91.17 73.09"/><polygon class="cls-42" points="91.25 184.33 43.45 156.41 43.41 101.07 91.21 128.99 91.25 184.33"/><polygon class="cls-42" points="91.25 184.33 139.01 156.34 138.97 101 91.21 128.99 91.25 184.33"/><g class="cls-27"><path class="cls-13" d="M100,130.3a9.24,9.24,0,0,0-4.25,7.27v10.57c0,2.68.74,2.81,1.63.28L100,141a26.56,26.56,0,0,1,5-8.1l8.23-8.46c1.87-1.92,1.49-2.42-.84-1.1Z"/></g><g class="cls-27"><path class="cls-13" d="M105.55,89c2.61.62,2.87,0,.58-1.41l-9.73-5.9A9.31,9.31,0,0,0,88,81.48L76.76,87.72c-2.35,1.31-2.12,1.91.5,1.34l10.21-2.21a25.77,25.77,0,0,1,9.51.08Z"/></g><line class="cls-23" x1="174.94" y1="186.55" x2="243.62" y2="146.31"/><line class="cls-22" x1="187.83" y1="188.79" x2="117.45" y2="147.63"/><line class="cls-23" x1="185.35" y1="185.82" x2="116.68" y2="145.59"/><g class="cls-3"><polygon class="cls-43" points="180.31 170.33 132.55 198.31 180.35 226.23 228.11 198.24 180.31 170.33"/><polygon class="cls-44" points="180.39 281.56 132.59 253.65 132.55 198.31 180.35 226.23 180.39 281.56"/><polygon class="cls-45" points="180.39 281.56 228.15 253.58 228.11 198.24 180.35 226.23 180.39 281.56"/><g class="cls-7"><path class="cls-46" d="M189.27,227.54a9.23,9.23,0,0,0-4.25,7.27v10.57c0,2.68.74,2.81,1.63.28l2.63-7.47a26.78,26.78,0,0,1,5-8.1l8.23-8.46c1.87-1.92,1.48-2.42-.85-1.1Z"/></g><g class="cls-7"><path class="cls-47" d="M194.86,186.19c2.61.61,2.87,0,.58-1.41l-9.73-5.9a9.25,9.25,0,0,0-8.43-.16L166.07,185c-2.34,1.31-2.12,1.91.51,1.34l10.2-2.21a25.77,25.77,0,0,1,9.51.08Z"/></g></g><polygon class="cls-10" points="180.26 153.32 132.5 181.3 180.31 209.22 228.07 181.23 180.26 153.32"/><polygon class="cls-11" points="180.35 264.56 132.54 236.64 132.5 181.3 180.31 209.22 180.35 264.56"/><polygon class="cls-12" points="180.35 264.56 228.1 236.57 228.07 181.23 180.31 209.22 180.35 264.56"/><g class="cls-7"><path class="cls-13" d="M189.23,210.53A9.24,9.24,0,0,0,185,217.8v10.57c0,2.69.73,2.81,1.63.28l2.63-7.47a26.56,26.56,0,0,1,5-8.1l8.23-8.46c1.87-1.93,1.49-2.42-.84-1.1Z"/></g><g class="cls-7"><path class="cls-13" d="M194.82,169.18c2.61.62,2.87,0,.58-1.41l-9.73-5.9a9.31,9.31,0,0,0-8.43-.16L166,168c-2.34,1.31-2.12,1.91.5,1.34l10.21-2.21a25.77,25.77,0,0,1,9.51.08Z"/></g><line class="cls-22" x1="205.91" y1="223.35" x2="245.54" y2="246.59"/><line class="cls-23" x1="206.02" y1="221.8" x2="245.66" y2="245.04"/><g class="cls-3"><polygon class="cls-48" points="240.4 230.05 213.46 245.84 240.43 261.59 267.37 245.8 240.4 230.05"/><polygon class="cls-49" points="240.45 292.8 213.48 277.06 213.46 245.84 240.43 261.59 240.45 292.8"/><polygon class="cls-50" points="240.45 292.8 267.39 277.02 267.37 245.8 240.43 261.59 240.45 292.8"/><g class="cls-7"><path class="cls-51" d="M245.46,262.33a5.21,5.21,0,0,0-2.4,4.1v6c0,1.52.41,1.59.91.16l1.49-4.21a14.9,14.9,0,0,1,2.83-4.57L253,259c1.05-1.08.84-1.36-.48-.62Z"/></g><g class="cls-7"><path class="cls-52" d="M248.61,239c1.47.35,1.62,0,.33-.79l-5.49-3.33a5.2,5.2,0,0,0-4.75-.09l-6.33,3.52c-1.32.74-1.19,1.08.29.76l5.75-1.25a14.69,14.69,0,0,1,5.37,0Z"/></g></g><polygon class="cls-53" points="240.38 220.46 213.44 236.25 240.4 251.99 267.34 236.21 240.38 220.46"/><polygon class="cls-54" points="240.42 283.21 213.46 267.46 213.44 236.25 240.4 251.99 240.42 283.21"/><polygon class="cls-54" points="240.42 283.21 267.36 267.42 267.34 236.21 240.4 251.99 240.42 283.21"/><g class="cls-27"><path class="cls-13" d="M245.43,252.73a5.24,5.24,0,0,0-2.39,4.11v6c0,1.51.42,1.58.92.16l1.49-4.22a15,15,0,0,1,2.83-4.57l4.64-4.77c1.06-1.09.84-1.37-.48-.62Z"/></g><g class="cls-27"><path class="cls-13" d="M248.59,229.41c1.47.35,1.62,0,.32-.8l-5.48-3.33a5.29,5.29,0,0,0-4.76-.09l-6.32,3.52c-1.33.74-1.2,1.08.28.76l5.76-1.25a14.42,14.42,0,0,1,5.36.05Z"/></g><line class="cls-22" x1="65.75" y1="143.02" x2="26.11" y2="166.26"/><line class="cls-23" x1="65.63" y1="141.47" x2="25.99" y2="164.71"/><line class="cls-22" x1="296.39" y1="143.99" x2="336.03" y2="167.23"/><line class="cls-23" x1="296.51" y1="142.43" x2="336.15" y2="165.68"/><line class="cls-22" x1="154.73" y1="223.9" x2="115.1" y2="247.14"/><line class="cls-23" x1="154.62" y1="222.35" x2="114.98" y2="245.59"/><g class="cls-3"><polygon class="cls-55" points="26.97 149.77 0.02 165.56 26.99 181.3 53.93 165.52 26.97 149.77"/><polygon class="cls-56" points="27.01 212.52 0.05 196.77 0.02 165.56 26.99 181.3 27.01 212.52"/><polygon class="cls-57" points="27.01 212.52 53.95 196.73 53.93 165.52 26.99 181.3 27.01 212.52"/><g class="cls-7"><path class="cls-58" d="M32,182a5.2,5.2,0,0,0-2.39,4.1v6c0,1.51.42,1.58.92.15L32,188.05a14.82,14.82,0,0,1,2.83-4.57l4.64-4.77c1.06-1.09.84-1.37-.48-.62Z"/></g><g class="cls-7"><path class="cls-59" d="M35.18,158.72c1.47.34,1.62,0,.32-.8L30,154.59a5.29,5.29,0,0,0-4.76-.09L18.94,158c-1.33.73-1.2,1.07.28.75L25,157.53a14.42,14.42,0,0,1,5.36.05Z"/></g></g><polygon class="cls-60" points="26.94 140.17 0 155.96 26.96 171.71 53.91 155.92 26.94 140.17"/><polygon class="cls-54" points="26.99 202.92 0.02 187.18 0 155.96 26.96 171.71 26.99 202.92"/><polygon class="cls-53" points="26.99 202.92 53.93 187.14 53.91 155.92 26.96 171.71 26.99 202.92"/><g class="cls-7"><path class="cls-13" d="M32,172.45a5.21,5.21,0,0,0-2.4,4.1v6c0,1.52.41,1.59.91.16L32,178.46a14.93,14.93,0,0,1,2.84-4.57l4.64-4.78c1-1.08.84-1.36-.48-.62Z"/></g><g class="cls-7"><path class="cls-13" d="M35.15,149.12c1.48.35,1.62,0,.33-.79L30,145a5.2,5.2,0,0,0-4.75-.09l-6.33,3.52c-1.32.74-1.19,1.08.29.75L25,147.94a14.69,14.69,0,0,1,5.37,0Z"/></g><g class="cls-3"><polygon class="cls-61" points="118.46 229.66 91.51 245.45 118.48 261.2 145.42 245.41 118.46 229.66"/><polygon class="cls-62" points="118.5 292.41 91.54 276.66 91.51 245.45 118.48 261.2 118.5 292.41"/><polygon class="cls-63" points="118.5 292.41 145.44 276.63 145.42 245.41 118.48 261.2 118.5 292.41"/><g class="cls-7"><path class="cls-64" d="M123.51,261.94a5.2,5.2,0,0,0-2.39,4.1v6c0,1.52.42,1.59.92.16l1.49-4.21a14.71,14.71,0,0,1,2.83-4.57L131,258.6c1.06-1.08.84-1.36-.48-.62Z"/></g><g class="cls-7"><path class="cls-65" d="M126.67,238.61c1.47.35,1.62,0,.32-.8l-5.48-3.32a5.22,5.22,0,0,0-4.76-.09l-6.33,3.52c-1.32.74-1.19,1.08.29.76l5.76-1.25a14.42,14.42,0,0,1,5.36,0Z"/></g></g><polygon class="cls-19" points="118.43 220.07 91.49 235.85 118.45 251.6 145.4 235.81 118.43 220.07"/><polygon class="cls-20" points="118.48 282.82 91.51 267.07 91.49 235.85 118.45 251.6 118.48 282.82"/><polygon class="cls-21" points="118.48 282.82 145.42 267.03 145.4 235.81 118.45 251.6 118.48 282.82"/><g class="cls-7"><path class="cls-13" d="M123.49,252.34a5.23,5.23,0,0,0-2.4,4.11v6c0,1.51.41,1.58.91.16l1.49-4.22a15,15,0,0,1,2.83-4.57L131,249c1.05-1.09.84-1.37-.48-.62Z"/></g><g class="cls-7"><path class="cls-13" d="M126.64,229c1.48.35,1.62,0,.33-.8l-5.49-3.33a5.26,5.26,0,0,0-4.75-.09l-6.33,3.52c-1.32.74-1.19,1.08.29.76l5.75-1.25a14.47,14.47,0,0,1,5.37,0Z"/></g><g class="cls-3"><polygon class="cls-66" points="335.9 149.77 308.95 165.56 335.92 181.3 362.86 165.52 335.9 149.77"/><polygon class="cls-67" points="335.94 212.52 308.98 196.77 308.95 165.56 335.92 181.3 335.94 212.52"/><polygon class="cls-68" points="335.94 212.52 362.88 196.73 362.86 165.52 335.92 181.3 335.94 212.52"/><g class="cls-7"><path class="cls-69" d="M341,182a5.2,5.2,0,0,0-2.39,4.1v6c0,1.51.42,1.58.92.15l1.49-4.21a15,15,0,0,1,2.83-4.57l4.64-4.77c1.06-1.09.84-1.37-.48-.62Z"/></g><g class="cls-7"><path class="cls-70" d="M344.11,158.72c1.47.34,1.62,0,.32-.8L339,154.59a5.29,5.29,0,0,0-4.76-.09L327.87,158c-1.33.73-1.2,1.07.28.75l5.76-1.25a14.47,14.47,0,0,1,5.37.05Z"/></g></g><polygon class="cls-19" points="335.87 140.17 308.93 155.96 335.9 171.71 362.84 155.92 335.87 140.17"/><polygon class="cls-20" points="335.92 202.92 308.95 187.18 308.93 155.96 335.9 171.71 335.92 202.92"/><polygon class="cls-21" points="335.92 202.92 362.86 187.14 362.84 155.92 335.9 171.71 335.92 202.92"/><g class="cls-7"><path class="cls-13" d="M340.93,172.45a5.2,5.2,0,0,0-2.39,4.1v6c0,1.52.41,1.59.92.16l1.48-4.21a14.93,14.93,0,0,1,2.84-4.57l4.64-4.78c1.05-1.08.84-1.36-.48-.62Z"/></g><g class="cls-7"><path class="cls-13" d="M344.09,149.12c1.47.35,1.62,0,.32-.79L338.92,145a5.2,5.2,0,0,0-4.75-.09l-6.33,3.52c-1.32.74-1.19,1.08.29.75l5.75-1.24a14.69,14.69,0,0,1,5.37,0Z"/></g></g></g></g></svg>