<svg id="Слой_1" data-name="Слой 1" xmlns="http://www.w3.org/2000/svg" viewBox="0 0 2260.55 774.58"><defs><style>.cls-1,.cls-3{fill:#e2ebfd;}.cls-2{fill:#fff;}.cls-3{opacity:0.6;}.cls-4{fill:#dde8fd;}.cls-5{fill:#93b3f4;}.cls-6{fill:#d3e0fc;}.cls-7{fill:#010117;}.cls-8{fill:#3a49cd;}.cls-9{fill:#060632;}.cls-10{fill:#bed2fa;}.cls-11{fill:#6d89cf;}.cls-12{fill:#0b0754;}.cls-13{fill:#fda6a4;}.cls-14{fill:#fc9290;}.cls-15{fill:#9e332e;}.cls-16{fill:#030231;}.cls-17{fill:#a83f3f;}.cls-18{fill:#b05050;}.cls-19{fill:#ed6966;}.cls-20{fill:#3662c1;}.cls-21{fill:#efa2a2;}.cls-22{fill:#3a65c2;}.cls-23{fill:#fa7269;}</style></defs><title>Contact center banner</title><path class="cls-1" d="M718.46,235.9V772.31L73.12,774.58c1.62-23.45-104.6-332.72,31.56-509.4C297.89,14.37,463,217.2,681,234.81A357.82,357.82,0,0,0,718.46,235.9Z"/><path class="cls-2" d="M2201.26,761.93c-.87,6.7-70.78-1.08-71.75,5.51L1693.27,769H718.46V235.9a346.74,346.74,0,0,0,37.49-3c42.79-5.84,87.64-20.53,135.19-48.19,492.1-285.39,892.79-207.91,1117.77,14.91a669.66,669.66,0,0,1,75,88.61C2179.54,423.6,2222.76,592.28,2201.26,761.93Z"/><path class="cls-3" d="M2206.66,677.54a673.09,673.09,0,0,1-5.4,88.18c-.87,6.69-70.78-1.09-71.75,5.51l-436.24,1.51H718.46v-.43L1693.27,769l436.24-1.52c1-6.59,70.88,1.19,71.75-5.51A674.24,674.24,0,0,0,2206.66,677.54Z"/><polygon class="cls-4" points="2014.82 361.31 2014.82 768.97 755.96 768.97 755.96 414.23 852.45 414.23 852.45 317.42 948.95 317.42 948.95 448.21 1027.07 448.21 1027.07 418.99 1163.16 418.99 1163.16 468.4 1222.38 468.4 1222.38 357.44 1380.92 357.44 1380.92 167.15 1506.28 167.15 1506.28 268.64 1534.87 268.64 1534.87 183.63 1660.22 183.63 1660.22 314.58 1773.84 314.58 1773.84 234.22 1895.35 234.22 1895.35 314.58 1918.01 314.58 1918.01 361.31 2014.82 361.31"/><rect class="cls-5" x="451.94" y="270.3" width="130.63" height="126.73" rx="12.47"/><rect class="cls-1" x="457.6" y="275.79" width="119.31" height="115.75" rx="11.39"/><path class="cls-5" d="M514.55,287.36a2.71,2.71,0,1,1,2.71,2.7A2.71,2.71,0,0,1,514.55,287.36Z"/><path class="cls-5" d="M536.39,291.18a2.71,2.71,0,1,1,1.05,3.68A2.71,2.71,0,0,1,536.39,291.18Z"/><path class="cls-5" d="M555.09,306a2.71,2.71,0,1,1-.81,3.74A2.7,2.7,0,0,1,555.09,306Z"/><path class="cls-5" d="M564.36,329.05a2.71,2.71,0,1,1-2.71,2.7A2.7,2.7,0,0,1,564.36,329.05Z"/><path class="cls-5" d="M559.63,355.74a2.71,2.71,0,1,1-3.83,0A2.72,2.72,0,0,1,559.63,355.74Z"/><path class="cls-5" d="M542.63,372.78a2.7,2.7,0,1,1-3.82,0A2.69,2.69,0,0,1,542.63,372.78Z"/><path class="cls-5" d="M514.55,381.56a2.71,2.71,0,1,1,2.71,2.7A2.71,2.71,0,0,1,514.55,381.56Z"/><path class="cls-5" d="M498,291.18a2.71,2.71,0,1,0-1.05,3.68A2.71,2.71,0,0,0,498,291.18Z"/><path class="cls-5" d="M479.34,306a2.71,2.71,0,1,0,.8,3.74A2.7,2.7,0,0,0,479.34,306Z"/><path class="cls-5" d="M470.07,329.05a2.71,2.71,0,1,0,2.71,2.7A2.71,2.71,0,0,0,470.07,329.05Z"/><path class="cls-5" d="M474.8,355.74a2.71,2.71,0,1,0,3.83,0A2.7,2.7,0,0,0,474.8,355.74Z"/><path class="cls-5" d="M491.79,372.78a2.7,2.7,0,1,0,3.83,0A2.71,2.71,0,0,0,491.79,372.78Z"/><path class="cls-5" d="M516.53,331.75a2.71,2.71,0,1,1,2.7,2.71A2.7,2.7,0,0,1,516.53,331.75Z"/><rect class="cls-5" x="518.86" y="297.95" width="0.74" height="33.8"/><rect class="cls-5" x="516.46" y="323.56" width="22.78" height="2.22" transform="translate(-87.81 395.37) rotate(-38.15)"/><path class="cls-6" d="M756,232.87V766.16H681V234.79A343.33,343.33,0,0,0,756,232.87Z"/><path class="cls-6" d="M2083.91,288.2v478h-75V199.58A664.52,664.52,0,0,1,2083.91,288.2Z"/><rect class="cls-7" y="764.1" width="2260.55" height="9.72" rx="4.35"/><polygon class="cls-8" points="817.46 577.92 805.43 577.92 820.16 764.38 849.42 764.38 817.46 577.92"/><path class="cls-9" d="M1056.7,523.51l-2.58.52A21.38,21.38,0,0,1,1029,507.35l-2.73-13.5a21.4,21.4,0,0,1,16.68-25.13l2.59-.52a21.38,21.38,0,0,1,25.13,16.68l2.73,13.5A21.4,21.4,0,0,1,1056.7,523.51Z"/><path class="cls-8" d="M805.43,577.92s65.7-30.84,155.71-10.32L817.46,577.92Z"/><path class="cls-10" d="M849.42,766.16l-32-188.24s100.66-33.81,178.76,0L1042.68,765Z"/><path class="cls-11" d="M1545.4,707.87c-1.78,20.42-13.31,26.73-18.38,26.19s-34.74-11.87-35.38-7.71,17.21,17.73,29.71,18.36c0,0-23.61,26-39.29,18.52s-17-19.42-26.8-23.89-18.13-4.45-14.09.1,21.73,9,27.32,18.88c1.32,2.33,2.61,4.49,3.6,6.39l-33-.07c-10.48-5.2-19.3-12.38-20-20.12,0-.59-.09-1.15-.14-1.69l-1-11.91s-17-19.78-8.15-36.19a25,25,0,0,1,6.72-7.8s15.81-9.57,28.7-8.79c0,0-10,16.75-12.8,26.7-1,3.51-1.09,6.17.45,7s3.86-1.65,6.11-5.7c5.65-10.15,11.77-29.89,11.77-29.89s9.51-.92,20.32-1.06c4.86-.06,10,0,14.61.44,5.13.45,9.66,1.28,12.62,2.7,0,0-.65.53-1.73,1.44-1.62,1.35-4.2,3.54-7.08,6.08C1481,693.36,1469.88,704,1474,705c3.36.78,13.89-5.48,23.25-11.68,8.73-5.78,16.44-11.52,16.44-11.52S1547.19,687.45,1545.4,707.87Z"/><path class="cls-11" d="M1529,708.42s-90.93-3.5-111,22.5c0,0-4.44,13.3-18.1,25.42l-2.13,5.8s15.76-16.61,21.39-17.62C1419.1,744.52,1410.29,712.3,1529,708.42Z"/><path class="cls-11" d="M1403.66,756.19c-.78.85-2,2-3.62,3.55l0,0c-.58.54-1.15,1.12-1.7,1.73a34,34,0,0,0-2.42,3h-4.25a50.81,50.81,0,0,1,8.2-8.21h0C1400.18,756.13,1408,751.39,1403.66,756.19Z"/><path class="cls-11" d="M1318.68,697.09s36.69-20.55,19.57-48.43c0,0-13.7-17.12-28.37-21.52,0,0,7.82,41.58,0,42.55s-5.38-47-5.38-47-38.65-18.59-53.81-17.12c0,0,24,40.6,16.14,39.62s-34.73-42.07-34.73-42.07-39.62-7.34-46,16.14,3.92,35.22,9.79,36.69,43.53,1,42.55,5.87-26.41,12.72-40.6,8.31c0,0,15.66,38.65,36.2,36.69s26.9-14.68,39.62-15.65,22,2.44,15.65,5.87-27.88,1.12-38.15,9.85-18.59,14.11.49,18,53.31,1.47,60.16-13.21Z"/><path class="cls-11" d="M1204.22,626.65s102.72,33.26,114.46,70.44c0,0-.49,16.63,9.79,35.7v7.34s-10.77-24.94-16.64-28.37C1311.83,711.76,1334.82,679.48,1204.22,626.65Z"/><path class="cls-11" d="M1338,764.48l-5.87,0c-.18-8.49-1.17-18-4.06-25.28h0c-.37-.91-.76-1.78-1.18-2.62v0c-1.22-2.39-2-4.15-2.57-5.42h0c-3-7.36,4.18,1.68,4.18,1.68A69,69,0,0,1,1338,764.48Z"/><path class="cls-5" d="M1377.05,668.75s-48.36-27.08-25.8-63.83c0,0,18.06-22.57,37.4-28.37,0,0-10.31,54.81,0,56.1s7.09-61.9,7.09-61.9,50.94-24.5,70.93-22.57c0,0-31.59,53.52-21.28,52.23S1491.17,545,1491.17,545s52.23-9.68,60.61,21.27-5.16,46.43-12.89,48.36-57.39,1.29-56.1,7.74,34.82,16.76,53.52,11c0,0-20.64,50.94-47.72,48.36s-35.46-19.34-52.22-20.63-29,3.22-20.64,7.73,36.75,1.48,50.3,13,24.5,18.61-.65,23.77-70.28,1.93-79.31-17.41Z"/><path class="cls-11" d="M1527.92,575.9s-135.4,43.85-150.87,92.85c0,0,.64,21.93-12.9,47.07v9.67s14.19-32.88,21.92-37.39C1386.07,688.1,1355.77,645.54,1527.92,575.9Z"/><path class="cls-11" d="M1369.66,713.6h0c-.69,1.69-1.77,4-3.38,7.16l0,0c-.55,1.09-1.07,2.24-1.54,3.44h0c-4.63,11.61-5.55,27.65-5.38,40.28l-7.77,0a91,91,0,0,1,12.6-48.68h0C1364.36,715.56,1373.56,704,1369.66,713.6Z"/><path class="cls-12" d="M1136.29,765H952.35a195.3,195.3,0,0,1-7.19-21c-5.24-18.34-8.64-38.55-10.8-58.35l-.09-.76c-3.71-34.34-3.73-67.37-3.23-87.21.29-11.48.75-18.55.77-18.9h0l1.18-.48c9.76-4.09,19.11-7.62,28.08-10.67l.07,0q11.31-3.86,21.78-6.7a317.82,317.82,0,0,1,34.24-7.47,249.75,249.75,0,0,1,33.81-3.12l1.36,0q4-.07,7.74,0c25.18.54,41.93,5.55,50.41,8.89,1.17.46,2.18.9,3,1.29l.33.14c1,.43,1.7.79,2.22,1a1.06,1.06,0,0,1,.21.11c.25.13.49.27.72.41l13.26,139.39Z"/><path class="cls-12" d="M1319.58,734.84c-18.43,8.55-128,15.73-138.57,12.7-5.4-1.56-28-21.46-50.74-45.95h0c-21.51-23.16-43.2-50.43-50.52-70.05-15-40.31-2.11-76.11-2.11-76.11s28-.11,39.37,6.77,76.59,127,85.31,130.13,112,9.09,123.8,14.7C1326.1,707,1338,726.28,1319.58,734.84Z"/><path class="cls-13" d="M1052.31,555.16l0,6.78s1.88,21.23-24.25,24.37-45.95-8.21-45.27-24.59c2.33-12.69,4.9-21.4,5.06-31.9a73.17,73.17,0,0,0-1-12.71l50.65-1.08,14.93,2.41Z"/><path class="cls-14" d="M1052.45,518.44l-.14,36.72a42.85,42.85,0,0,1-18.25,4.05c-23.28,0-46.45-37.42-47.19-42.1Z"/><path class="cls-13" d="M1055.43,536.28S990.58,549.48,983,509s-21.09-66.09,20-76.24,52,3.81,57.88,16.71S1072.1,531.8,1055.43,536.28Z"/><path class="cls-15" d="M1073.42,419.31a136,136,0,0,1-39.45-10.6c-17.33-7.51-39.16.82-46.25,4.57a10.53,10.53,0,0,1,1.73-4.27s-3.19,2.26-3.65,5.42c-.33.24-.47.41-.39.46s-3.61-.65-5.93.39c0,0,1.63-.23,2.21.81a.89.89,0,0,0,.26.29c-27,13.09-29.43,55.79-20.72,65.66,10.48,11.87,23.06,38.61,23.06,38.61s4.57-6.33,2.65-16.79,7.11-10.46,18.52-15.24,1.87-18.06,11.84-26.16,46.58-3.4,46.1-9.58C1077,447.91,1073.42,420.71,1073.42,419.31Z"/><path class="cls-16" d="M952.35,765a195.3,195.3,0,0,1-7.19-21c-5.24-18.34-8.64-38.55-10.8-58.35l-.09-.76c.14.07.37.45.52.26,7.17-8.7,26.71-18.21,50.39,16.44,4.72,6.91,25.44,55.3,28.74,63.38Z"/><path class="cls-13" d="M971.57,765c-.53-3.13.06-7.06,2.5-12,0,0,3-2,7.06-4.26,6-3.39,14.22-7.49,17.94-6.83.67.12,1.57.31,2.64.57,8.83,2.12,29.4,8.46,32.51,12.17,2.56,3.05,6,6.94,8.46,10.32Z"/><path class="cls-12" d="M985.18,765H811.87a10.58,10.58,0,0,1,.13-5.83c5.17-13.06,15.26-34.55,26.88-57.62,8.55-17,17.92-34.78,26.76-50.72,12.28-22.12,23.53-40.63,30.13-48.22a78.26,78.26,0,0,1,18.65-15.11,131.06,131.06,0,0,1,17.39-8.69h0l1.18-.48a153.18,153.18,0,0,1,21.64-7s.13,5.47.14,13.89c0,24.43-.9,73.65-8.7,85.66a160.15,160.15,0,0,1-11.28,14.34c-.15.17-.28.34-.43.5-2.74,3.21-5.78,6.67-9,10.22-18.09,20.26-41,44.06-43.79,47l-.29.3h.34l48.59.68,14.91.2,30.91.43a11.67,11.67,0,0,1,5.06,4.31C984.12,753.11,985,759.48,985.18,765Z"/><path class="cls-16" d="M1319.58,734.84c-18.43,8.55-128,15.73-138.57,12.7-5.4-1.56-28-21.46-50.74-45.95,1.13.15,11.52-17.18,58.93,24.29,0,0,12.41,5.53,46.2,2.43S1312.58,724.08,1319.58,734.84Z"/><path class="cls-17" d="M1211.89,764.64h-125.3a10,10,0,0,1,10-10h115.31Z"/><polygon class="cls-17" points="1211.53 628.17 1405.27 628.17 1358.8 764.64 1163.81 764.64 1211.53 628.17"/><polygon class="cls-18" points="1408.12 628.16 1361.65 764.64 1166.66 764.64 1214.39 628.16 1408.12 628.16"/><path class="cls-19" d="M1303.67,695.14a12.58,12.58,0,0,1-11.62,9.44c-5.21,0-8.47-4.22-7.26-9.44s6.4-9.44,11.62-9.44S1304.87,689.93,1303.67,695.14Z"/><polygon class="cls-17" points="1408.12 628.16 1361.65 764.64 1270.94 764.64 1379.59 628.16 1408.12 628.16"/><path class="cls-9" d="M1001.82,523.51l-2.58.52a21.38,21.38,0,0,1-25.13-16.68l-2.73-13.5a21.4,21.4,0,0,1,16.69-25.13l2.58-.52a21.38,21.38,0,0,1,25.13,16.68l2.73,13.5A21.4,21.4,0,0,1,1001.82,523.51Z"/><path class="cls-9" d="M981.73,474.9c-1.73-3.13-4.27-28.25,2.64-48.26,3.34-9.67,8.73-15.18,15.5-18.9a16.56,16.56,0,0,1,8-2.06l6.81.11c-22.41,9.49-27.61,60.25-25.86,65.66a2.13,2.13,0,0,0-.18-.37Z"/><path class="cls-9" d="M1047.13,527.74c-37.66,0-56.3-29.76-56.49-30.06l3.37-2.06-1.69,1,1.69-1c.17.29,17.73,28.18,53.13,28.18h.71l0,4Z"/><path class="cls-12" d="M995.75,510.3l-1.28.26a10.68,10.68,0,0,1-12.53-8.32l-1.36-6.72A10.68,10.68,0,0,1,988.9,483l1.28-.25a10.66,10.66,0,0,1,12.53,8.31l1.35,6.72A10.66,10.66,0,0,1,995.75,510.3Z"/><path class="cls-9" d="M1051.81,529.05h-3.55a3.3,3.3,0,0,1-3.29-3.29h0a3.29,3.29,0,0,1,3.29-3.28h3.55a3.29,3.29,0,0,1,3.29,3.28h0A3.3,3.3,0,0,1,1051.81,529.05Z"/><path class="cls-15" d="M298.28,470.11s-31.6,16.16-8.57,50.86c0,0-27.15,3.14-34-4.66a22.32,22.32,0,0,0,2.23,5.08s-26.3-3.45-35.73-13.42,20-142.58,90-115.44c0,0,62.28,5.68,44.61,75.89s5.54,74.11,5.54,74.11-7,2.1-10.11,1.58c0,0-4.26-2.51-4.74-5.18,0,0,.23,4.11,1.19,5.57,0,0-25.46-1.84-36.39-13.4S292.25,484.19,298.28,470.11Z"/><path class="cls-5" d="M343.39,504.8l-2.53.35a20.74,20.74,0,0,1-23.32-17.64l-1.84-13.23A20.76,20.76,0,0,1,333.34,451l2.53-.34a20.73,20.73,0,0,1,23.33,17.64L361,481.47A20.75,20.75,0,0,1,343.39,504.8Z"/><path class="cls-13" d="M350.61,610.81c-9.43,7.28-15.4,33.56-30.6,37.9-57,16.27-87.59-51.41-97.59-84.45a49.65,49.65,0,0,1,19.23-7c4.14-.7,8.51-1.25,12.13-1.62,6.22-5.29,14.84-26.08,15.36-57.71l2.75.59L318,508.64s-1.34,14.55-1.67,28.26c-.24,10.73-.59,13.29.24,14.57,3.59.59,7.81,9.76,7.81,9.76l0,0A292.07,292.07,0,0,1,350.61,610.81Z"/><path class="cls-14" d="M318,508.65s-1.36,14.54-1.67,28.26c-25.89-1.26-39.09-25.17-44.43-38.38Z"/><path class="cls-10" d="M552.4,747.67s-27.11,1-56.54,1.09c-3.48,0-7,0-10.51,0-24-.1-47.53-.94-57.55-3.52-9.79-2.52-47.46-28-77.6-59v0c-2.34,5.57-4.1,9.83-4.15,10.17A155.9,155.9,0,0,1,341.89,717a250.49,250.49,0,0,1-18.62,47.61l-16.14,0-126-.18s23.81-36.66,17.41-130.59c-.16-2.38,21.95-78.16,21.95-78.16s17.17-3,37-4.61c1.87,1.71,5.72,51.57,30.55,54.45,4,.47,29.94,40,29.94,40l7.85-40.42-9.28-53.63c11.91,3.49,18.44,4.74,28.34,8.7a31.26,31.26,0,0,1,15.8,14C378,605.9,434.33,708.14,440.08,710.53c5.38,2.23,25.66,6.28,47.11,10.2h0C515.92,726,546.74,731,546.74,731Z"/><path class="cls-10" d="M332.27,764.61l-9,0,0,0Z"/><path class="cls-13" d="M325.67,522.5s-61.29-1.2-59.95-39.35-5.68-64,33.51-64.85,46.27,14,48.92,26.82S341.64,521.83,325.67,522.5Z"/><path class="cls-5" d="M495.86,748.76c-3.48,0-7,0-10.51,0-24-.1-47.53-.94-57.55-3.52-9.79-2.52-47.46-28-77.6-59v0s6.36-24.34,9.1-28.42,13.55,35.53,38.82,51.64,64.81,27.4,84,22.83C495.05,729.22,496.37,740.84,495.86,748.76Z"/><path class="cls-2" d="M313.63,501.27s.39,4.57,10.44,5.29c0,0,8.44.6,8.79-4.31C332.86,502.25,325.18,497.64,313.63,501.27Z"/><path class="cls-9" d="M317,516.7c-34.82-11-43.36-44-43.45-44.3l3.72-.92-1.86.46,1.86-.46c.08.31,8.16,31.23,40.88,41.57l.66.2-1.11,3.66Z"/><path class="cls-5" d="M320.89,519.28l-3.28-1a3.2,3.2,0,0,1-2.08-4h0a3.2,3.2,0,0,1,4-2.08l3.28,1a3.19,3.19,0,0,1,2.08,4h0A3.21,3.21,0,0,1,320.89,519.28Z"/><path class="cls-15" d="M329.15,413.24s-15.69,46.47-39.23,54.36-31.34-1.45-31.34-1.45,17.35-15.93,19.33-41.71C277.91,424.44,315.94,394.24,329.15,413.24Z"/><path class="cls-15" d="M299.85,426.92s31.95-1.79,41.5,7.3c6.88,6.56,6.72,10,7.26,18.73,0,0,14-21.55-.41-36.64C333,400.32,299.85,426.92,299.85,426.92Z"/><path class="cls-15" d="M327.79,418.15s-8,44.47-37.26,60.62c0,0,28.33-29,28.84-58S327.79,418.15,327.79,418.15Z"/><path class="cls-15" d="M222.23,508c9.42,10,35.73,13.42,35.73,13.42a21.67,21.67,0,0,1-2.23-5.09c13.52,11,46.72,3,46.72,3-26.48-5.85-17.91-44.06-8.9-45.69,5.25-28.83,15.66-64.71,20.54-80.83-1.18-.19-1.84-.25-1.84-.25C242.2,365.39,212.81,498,222.23,508Z"/><path class="cls-5" d="M279.76,500.88l-2.53.35a20.75,20.75,0,0,1-23.33-17.64l-1.83-13.23A20.73,20.73,0,0,1,269.71,447l2.53-.36a20.75,20.75,0,0,1,23.33,17.65l1.83,13.22A20.75,20.75,0,0,1,279.76,500.88Z"/><path class="cls-5" d="M263.21,452.64c-1.51-2.82,3.77-24.73,11.52-41.72,3.75-8.21,13.21-19.2,20-22,2.44-1,5.68-.6,8.32,0a63,63,0,0,1,7.31,2.94c-22.2,6.92-41.49,53.43-40.09,58.24a1.67,1.67,0,0,0-.14-.34Z"/><path class="cls-11" d="M274.67,487.73l-1.26.17a10.34,10.34,0,0,1-11.62-8.79l-.92-6.59a10.34,10.34,0,0,1,8.79-11.62l1.26-.17a10.33,10.33,0,0,1,11.63,8.79l.91,6.59A10.34,10.34,0,0,1,274.67,487.73Z"/><path class="cls-13" d="M423.37,725.57s26.28-1.51,28.84-.13c4.14,2.23,18.26,11.33,20.47,14s8,13.24,8,13.24-2.51.69-3.64-.33-9.71-10.12-9.71-10.12l8.81,13.38s-3-.14-4.25-1.47-9.44-9.69-9.44-9.69l-2.81-.56a30.14,30.14,0,0,1,4.41,4.37,26.6,26.6,0,0,1,2.57,4.3,21.08,21.08,0,0,1-3.29-.8c-.78-.37-8.16-6.83-8.16-6.83l3.91,5.33s-2.64-.13-3.5-.71-6.62-5.88-7.64-5.87-8.36-.3-11.51-2-13-5.5-13-5.5Z"/><path class="cls-5" d="M261.11,543.72s-17.58,5.12-21.59,9.16c0,0,18.38,47,44.87,68.89l7.08-5v11.41L318,645.52S259.75,557.93,261.11,543.72Z"/><path class="cls-5" d="M341.89,717a250.49,250.49,0,0,1-18.62,47.61h9l-9,0H239.52s9.72,0,9.7-.07c-.23-.84,14.16-39.84-9.7-55.83S207,653.36,207,653.36l76-18.58s31.33,45.72,40.24,54.43c6.85,6.69,22.8,7.2,22.8,7.2Z"/><path class="cls-5" d="M316.55,551.47s8.09,63.91,1.44,94c0,0,10.85-19.94,12.37-23.6l-1.82-11,7,2.44s-6.18-50.95-11.77-59.88-7.64-9.8-7.64-9.8Z"/><path class="cls-13" d="M552.4,747.67s-33.91,1.25-67,1.09c-8.22-12.75,1.84-28,1.84-28h0C515.92,726,546.74,731,546.74,731Z"/><path class="cls-20" d="M555.61,764.64H430.3a10,10,0,0,1,10-10H555.61Z"/><polygon class="cls-5" points="748.98 628.16 702.52 764.64 507.52 764.64 555.25 628.16 748.98 628.16"/><polygon class="cls-5" points="748.98 628.16 702.94 763.38 702.52 764.64 510.37 764.64 558.1 628.16 748.98 628.16"/><path class="cls-21" d="M647.39,695.14c-1.21,5.22-6.41,9.44-11.62,9.44s-8.47-4.22-7.27-9.44,6.41-9.44,11.63-9.44S648.59,689.93,647.39,695.14Z"/><polygon class="cls-20" points="748.98 628.16 702.94 763.38 614.66 763.38 722.3 628.16 748.98 628.16"/><path class="cls-13" d="M423.4,736.19s-64.5,5.63-100.16,4v-35c23.36,6.45,100.13,20.37,100.13,20.37Z"/><path class="cls-10" d="M239.52,552.88s-36.88.84-48.3,13.17,11.33,82,11.33,82,68.76,84.21,103.16,90.15c0,0,15,2.06,22.05,2.17,0,0-6.88-20,5.91-32.6,0,0-14.73-4.13-15.33-5.95S239.52,552.88,239.52,552.88Z"/><path class="cls-12" d="M1781.13,394.16s-37.36-13.9-60.71,13.39c-13.38,15.65-99,178.81-97.94,193.09s9.18,21.43,9.18,21.43-3.57-12.5-.89-19c0,0-1.72,22,11.86,31.37,7.07,4.88,183.26-4.68,198.57-26,33.29-46.39-39.41-70.4-37.62-120.52C1804.61,458.84,1833.17,397.1,1781.13,394.16Z"/><path class="cls-5" d="M1816.74,498.08l-2.51.51a20.74,20.74,0,0,1-24.36-16.18l-2.65-13.08A20.75,20.75,0,0,1,1803.4,445l2.5-.51a20.75,20.75,0,0,1,24.37,16.18l2.64,13.09A20.74,20.74,0,0,1,1816.74,498.08Z"/><path class="cls-5" d="M1976.59,764.39H1859.7c-19.83-31.47-37.26-74-41.32-107.07-1.94-15.7-.86-29.28,4.39-38.57,16.33-28.84-9.57-62.7-9.57-62.7s35.65,10.1,43.94,39.49c8.45,30,31.12,129.58,31.12,129.58l86.8,17.85C1979.14,753.18,1976.59,764.39,1976.59,764.39Z"/><path class="cls-11" d="M1976.59,764.39H1859.7c-19.83-31.47-37.26-74-41.32-107.07l17.34-5.31s21.93,100.14,34.69,101.67S1976.59,764.39,1976.59,764.39Z"/><path class="cls-13" d="M1830.46,603.45c-9,7.85-20.53,14.79-35.44,20-55.88,19.74-83.36-26.27-95.37-58.63a49.66,49.66,0,0,1,18.76-8.17c4.09-1,8.42-1.77,12-2.36,5.89-5.66,13.21-27,11.79-58.55l2.78.42,46.62,7.27s-.45,14.61.07,28.31c.42,10.72,1.44,20.9,3.74,23.16,3.61.36,5.79.62,5.79.62s0,0,0,0A294.14,294.14,0,0,1,1830.46,603.45Z"/><path class="cls-14" d="M1791.61,503.49s-.45,14.6.08,28.31c-25.92.33-40.56-22.72-46.7-35.58Z"/><path class="cls-5" d="M1852.68,652c-.13,1-12.59,41.51-12.72,42.53-4.32,33.92-12.15,70.1-12.15,70.1l-17.12,0-113-.22s13.63-41.12-22.32-104.17c-1.18-2.07-2.41-4.15-3.69-6.27-5.12-8.41,27.18-98.31,27.18-98.31s14.15-2.5,34-4.1c1.87,1.71,15.65,52.13,40.6,53.67,32.56,2,20.22-54.18,20.22-54.18,13.26,2.66,18,3.64,35.07,11.79C1828.77,562.82,1853.37,646.48,1852.68,652Z"/><path class="cls-13" d="M1800.13,516.84s-61.24,2.57-62.25-35.59-9.6-63.53,29.46-66.79,47,11.11,50.48,23.77S1816,515.19,1800.13,516.84Z"/><path class="cls-2" d="M1786.81,496.39s.67,4.53,10.75,4.63c0,0,8.46.09,8.51-4.83C1806.07,496.19,1798.12,492.06,1786.81,496.39Z"/><path class="cls-9" d="M1791.07,511.59c-35.43-8.84-46-41.22-46.08-41.54l3.65-1.15-1.83.57,1.83-.57c.09.3,10.06,30.67,43.36,39l.67.17-.89,3.72Z"/><path class="cls-22" d="M1795.17,513.92l-3.34-.84a3.19,3.19,0,0,1-2.32-3.86h0a3.19,3.19,0,0,1,3.86-2.32l3.34.83a3.19,3.19,0,0,1,2.32,3.87h0A3.19,3.19,0,0,1,1795.17,513.92Z"/><path class="cls-12" d="M1765.43,390.72s39.44-6.16,55.75,26.67c12.42,25,2.06,40.59-2.81,45.38,0,0-6.44-35.9-18.49-39,0,0-7.77-2.37-13.07,3.79s-13,33.63-21.76,37.84c0,0-27.32,6.74-28.66-2.79s-.6-39.22,6.29-44S1765.43,390.72,1765.43,390.72Z"/><path class="cls-5" d="M1753,498.08l-2.5.51a20.75,20.75,0,0,1-24.37-16.18l-2.64-13.08A20.73,20.73,0,0,1,1739.64,445l2.51-.51a20.74,20.74,0,0,1,24.36,16.18l2.65,13.09A20.74,20.74,0,0,1,1753,498.08Z"/><path class="cls-5" d="M1733.5,451c-1.68-2.72-4.14-24.62,2.56-42.05a28.88,28.88,0,0,1,15-16.48,17.56,17.56,0,0,1,7.74-1.8l6.6.1c-21.72,8.27-26.76,52.51-25.07,57.23a1.42,1.42,0,0,0-.17-.33Z"/><rect class="cls-11" x="1732.83" y="458.4" width="21.88" height="27.26" rx="10.3" transform="translate(-58.95 354.76) rotate(-11.42)"/><path class="cls-11" d="M1697.72,764.39s13.63-41.12-22.32-104.17l13.39-16.73s23.71,67.15,53.34,86.73,64.36,15.46,68.56,34.39Z"/><path class="cls-5" d="M1698.89,555.64s-24.38,2.12-40.7,31-47.32,136.61-47.32,177.79h130.47s2.55-11.21-1.53-21.42l-80.74-15.58s48.6-72.16,49.11-103.28S1698.89,555.64,1698.89,555.64Z"/><path class="cls-13" d="M1742.13,751.14s25.42-2.49,29.63-1.34,16.26,6.12,18.94,7.84a76,76,0,0,1,7.84,6.75,16.66,16.66,0,0,1-5.16.18c-1.92-.42-7.66-.81-9.19-.94s-7,1-7,1h-39.41Z"/><path class="cls-12" d="M1972.34,764.64H1847a10,10,0,0,1,10-10h115.32Z"/><polygon class="cls-20" points="2165.71 628.16 2119.24 764.64 1924.25 764.64 1971.98 628.16 2165.71 628.16"/><polygon class="cls-20" points="2165.71 628.16 2119.67 763.38 2119.24 764.64 1927.1 764.64 1974.83 628.16 2165.71 628.16"/><path class="cls-23" d="M2064.12,695.14c-1.21,5.22-6.41,9.44-11.62,9.44s-8.47-4.22-7.27-9.44,6.41-9.44,11.63-9.44S2065.32,689.93,2064.12,695.14Z"/><polygon class="cls-12" points="2165.71 628.16 2119.67 763.38 2031.39 763.38 2139.03 628.16 2165.71 628.16"/></svg>