<svg xmlns="http://www.w3.org/2000/svg" viewBox="0 0 445.27 419.39"><defs><style>.cls-1{isolation:isolate;}.cls-2,.cls-3{fill:none;stroke:#8dc3cc;stroke-linecap:round;stroke-linejoin:round;stroke-width:3px;}.cls-2{stroke-dasharray:17.14 17.14;}.cls-3{stroke-dasharray:6.95 6.95 0.99 6.95 6.95 0.99;}.cls-4{fill:#b0d8e2;}.cls-5{fill:#a1ccd3;}.cls-14,.cls-5,.cls-7{opacity:0.5;mix-blend-mode:multiply;}.cls-6{fill:#fff;}.cls-8{fill:#a1bdd1;}.cls-9{fill:#303030;}.cls-10{fill:#282828;}.cls-11{fill:#fff0b0;}.cls-12{fill:#f4d68e;}.cls-13{fill:#ea4444;}.cls-14{fill:#e8cf92;}.cls-15{fill:#dceff4;}.cls-16{fill:#8dc3cc;}.cls-17{fill:#bc3939;}.cls-18{fill:#f4caa4;}.cls-19{fill:#d3a07d;}.cls-20{fill:#664c3b;}.cls-21{fill:#3d2f27;}.cls-22{fill:#212121;}</style></defs><title>Contact center Soluction</title><g class="cls-1"><g id="OBJECTS"><circle class="cls-2" cx="217.88" cy="223.57" r="180.03"/><circle class="cls-3" cx="217.88" cy="223.57" r="194.32"/><path class="cls-4" d="M404.42,100.68c-19.52-4.8-38.06,2.35-41.4,15.95s9.79,28.52,29.31,33.31q2.71.66,5.38,1l9.8,9.71-1-9.3c13.62-.62,24.68-7.19,27.18-17.4C437.07,120.38,424,105.47,404.42,100.68Z"/><path class="cls-5" d="M420.43,114.15a19.34,19.34,0,0,0-6.43-10.1,51.1,51.1,0,0,0-9.58-3.37c-19.52-4.8-38.06,2.35-41.4,15.95-3,12.3,7.42,25.67,23.88,31.66,1.4-.22,2.8-.49,4.22-.83C410.64,142.66,423.77,127.75,420.43,114.15Z"/><path class="cls-4" d="M345.55,127.44c-3.34-13.6,9.79-28.51,29.31-33.31s38.06,2.36,41.4,16S406.48,138.61,387,143.4c-1.8.44-3.6.78-5.37,1l-9.8,9.71,1-9.3C359.12,144.22,348.06,137.65,345.55,127.44Z"/><path class="cls-6" d="M399.41,114.23a3.34,3.34,0,1,0,2.45-4A3.34,3.34,0,0,0,399.41,114.23Z"/><path class="cls-6" d="M377.66,119.56a3.34,3.34,0,1,0,2.45-4A3.34,3.34,0,0,0,377.66,119.56Z"/><path class="cls-6" d="M355.91,124.9a3.35,3.35,0,1,0,2.45-4A3.35,3.35,0,0,0,355.91,124.9Z"/><ellipse class="cls-4" cx="391.2" cy="281.8" rx="36.56" ry="54.26" transform="translate(66.34 638.05) rotate(-83.4)"/><g class="cls-7"><path class="cls-8" d="M404.83,298.05,408.66,288l-7.47-2.84a18.5,18.5,0,0,0-.11-3.94l7.29-3.26-4.4-9.83-7.29,3.27a19.28,19.28,0,0,0-2.86-2.7l2.84-7.46L386.6,257.4l-2.84,7.46a19.18,19.18,0,0,0-3.94.11l-3.26-7.28-9.83,4.4,3.27,7.29a18.71,18.71,0,0,0-2.69,2.86l-7.47-2.84L356,279.46l7.46,2.84a19.08,19.08,0,0,0,.11,3.93l-7.28,3.27,4.4,9.82,7.29-3.26a19.21,19.21,0,0,0,2.86,2.69L368,306.22l10.06,3.83,2.84-7.47a18.41,18.41,0,0,0,3.93-.11l3.27,7.29,9.82-4.4-3.26-7.29a19.21,19.21,0,0,0,2.69-2.86Zm-26.5-3.81a11.25,11.25,0,1,1,14.52-6.51A11.25,11.25,0,0,1,378.33,294.24Z"/><path class="cls-8" d="M428.82,293.92l4-4.27-3.16-3a10.29,10.29,0,0,0,.76-2l4.34-.13-.18-5.85-4.34.13a10.32,10.32,0,0,0-.88-1.95l3-3.17-4.27-4-3,3.17a9.69,9.69,0,0,0-2-.76l-.13-4.35-5.85.18.13,4.35a9.73,9.73,0,0,0-1.95.88l-3.16-3-4,4.26,3.17,3a10.14,10.14,0,0,0-.76,2l-4.34.13.17,5.86,4.35-.14a9.48,9.48,0,0,0,.88,2l-3,3.17,4.26,4,3-3.16a10.81,10.81,0,0,0,2,.76l.13,4.34,5.86-.18-.13-4.34a10.24,10.24,0,0,0,1.94-.88Zm-12.54-7.42a6.12,6.12,0,1,1,8.65-.26A6.13,6.13,0,0,1,416.28,286.5Z"/></g><path class="cls-9" d="M403.9,294.7l3.84-10.06-7.47-2.84a19.06,19.06,0,0,0-.11-3.93l7.29-3.27L403,264.77,395.75,268a18.71,18.71,0,0,0-2.86-2.69l2.84-7.47-10.06-3.83-2.84,7.47a17.78,17.78,0,0,0-3.93.11l-3.27-7.29-9.82,4.4,3.26,7.29a19.21,19.21,0,0,0-2.69,2.86l-7.47-2.84-3.83,10.06,7.47,2.84a18.39,18.39,0,0,0,.11,3.93l-7.29,3.27,4.4,9.83,7.29-3.27a18.71,18.71,0,0,0,2.86,2.69l-2.84,7.47,10.06,3.83,2.85-7.47a18.41,18.41,0,0,0,3.93-.11l3.26,7.29L397,302l-3.27-7.29a19.28,19.28,0,0,0,2.7-2.86Zm-26.5-3.81a11.25,11.25,0,1,1,14.52-6.51A11.26,11.26,0,0,1,377.4,290.89Z"/><path class="cls-10" d="M427.89,290.57l4-4.27-3.17-3a9.69,9.69,0,0,0,.76-2l4.34-.13-.17-5.85-4.35.13a9.73,9.73,0,0,0-.88-2l3-3.16-4.26-4-3,3.17a10.14,10.14,0,0,0-2-.76l-.13-4.34-5.86.17.13,4.35a10,10,0,0,0-1.95.88l-3.16-3-4,4.26,3.16,3a10.81,10.81,0,0,0-.76,2l-4.34.13.18,5.86,4.34-.13a10.24,10.24,0,0,0,.88,1.94l-3,3.17,4.27,4,3-3.16a10.45,10.45,0,0,0,2,.76l.14,4.34,5.85-.18-.13-4.34a10.62,10.62,0,0,0,2-.88Zm-12.53-7.42a6.12,6.12,0,1,1,8.65-.26A6.13,6.13,0,0,1,415.36,283.15Z"/><rect class="cls-11" x="0.38" y="260.41" width="66.58" height="42.68" transform="translate(5.11 -0.56) rotate(1.04)"/><rect class="cls-12" x="11.49" y="268.99" width="1.19" height="33.71" transform="translate(5.17 -0.17) rotate(1.04)"/><rect class="cls-12" x="54.5" y="269.77" width="1.19" height="33.71" transform="translate(5.22 -0.95) rotate(1.04)"/><polygon class="cls-13" points="67.34 261.02 33.74 277.56 0.77 259.81 0.69 264.28 33.67 281.75 67.26 265.34 67.34 261.02"/><rect class="cls-11" x="12.25" y="243.97" width="66.58" height="42.68" transform="translate(-83.93 29.3) rotate(-19.01)"/><rect class="cls-12" x="26.07" y="259.71" width="1.19" height="33.71" transform="translate(-88.59 23.75) rotate(-19)"/><rect class="cls-12" x="66.74" y="245.7" width="1.19" height="33.71" transform="translate(-81.82 36.23) rotate(-19)"/><polygon class="cls-13" points="70.07 234.3 44.18 261.35 7.12 255.98 8.57 260.2 45.54 265.31 71.47 238.38 70.07 234.3"/><polygon class="cls-14" points="66.99 280.5 32.72 292.3 32.54 292.36 21.02 296.33 8.58 260.22 2.37 262.36 3.82 266.58 16.27 302.71 27.79 298.74 27.97 298.68 66.9 285.27 66.99 280.5"/><circle class="cls-9" cx="62.6" cy="119.98" r="36.05"/><circle class="cls-15" cx="62.6" cy="119.98" r="29.84"/><path class="cls-5" d="M90.69,109.88c0,.8.09,1.6.09,2.4A33.62,33.62,0,0,1,43.73,143.1a29.86,29.86,0,0,0,47-33.22Z"/><rect class="cls-9" x="62.19" y="92.14" width="0.82" height="3.97"/><rect class="cls-9" x="62.19" y="143.91" width="0.82" height="3.97"/><rect class="cls-9" x="88.08" y="118.03" width="0.82" height="3.97" transform="translate(208.5 31.53) rotate(90)"/><rect class="cls-9" x="36.31" y="118.03" width="0.82" height="3.97" transform="translate(156.73 83.3) rotate(90)"/><rect class="cls-9" x="61.99" y="98.51" width="1.23" height="24.38"/><rect class="cls-9" x="58.28" y="116.27" width="1.23" height="19.46" transform="translate(75.93 -12.04) rotate(32.09)"/><rect class="cls-16" x="185.46" width="57.77" height="66.68" rx="6.33"/><path class="cls-5" d="M217.52,27.77a3.13,3.13,0,0,1-.81-4.35l6.8-9.89a3.13,3.13,0,0,1,4.35-.8l3.46,2.38A10.5,10.5,0,0,1,234,29.71l-18.56,27a10.49,10.49,0,0,1-14.6,2.7L197.41,57a3.12,3.12,0,0,1-.81-4.35l6.8-9.88a3.11,3.11,0,0,1,4.34-.81l3.47,2.38L221,30.15Z"/><path class="cls-6" d="M215.89,24.39a3.12,3.12,0,0,1-.8-4.34l6.8-9.89a3.12,3.12,0,0,1,4.34-.81l3.47,2.39a10.49,10.49,0,0,1,2.7,14.6l-18.55,27A10.5,10.5,0,0,1,199.25,56l-3.47-2.39a3.12,3.12,0,0,1-.8-4.34l6.79-9.89a3.13,3.13,0,0,1,4.35-.8L209.59,41l9.77-14.21Z"/><path class="cls-9" d="M207.46,39.53l-1.34-.92a3.13,3.13,0,0,0-4.35.8L195,49.3a3.12,3.12,0,0,0,.8,4.34l1.34.92Z"/><path class="cls-9" d="M221.89,10.16l-6.8,9.89a3.12,3.12,0,0,0,.8,4.34l1.34.92,10.34-15-1.34-.92A3.12,3.12,0,0,0,221.89,10.16Z"/><path class="cls-9" d="M256.6,245.61l-17.22,43.68L218,269.47l-21.44,19.82-17.22-43.68-36.71,11.63s7.19,90.94,75.37,91.17c68.17-.23,75.37-91.17,75.37-91.17Z"/><path class="cls-10" d="M263.88,286.68l0-38.78-7.25-2.29-17.22,43.68-.1-.1L218,342.9l-21.34-53.71-.1.1-17.22-43.68L172,247.9l0,38.78h7.28L172,292.93l37,54.91a70.32,70.32,0,0,0,17.87,0l37-54.91-7.28-6.25Z"/><polygon class="cls-13" points="217.95 269.47 205.76 280.73 211.26 291.28 217.95 291.28 224.63 291.28 230.13 280.73 217.95 269.47"/><polygon class="cls-13" points="224.63 291.28 217.95 291.28 211.26 291.28 205.76 312.24 217.95 342.9 230.13 312.24 224.63 291.28"/><polygon class="cls-17" points="211.26 291.28 224.63 291.28 227.86 303.6 221.96 294.44 222.46 310.69 216.21 294.19 211.02 292.21 211.26 291.28"/><polygon class="cls-15" points="253.11 237.71 217.95 269 182.78 237.71 179.29 245.61 196.51 289.29 217.95 269.47 239.38 289.29 256.6 245.61 253.11 237.71"/><polygon class="cls-4" points="205.76 280.73 211.26 291.28 205.76 312.24 196.51 289.29 205.76 280.73"/><polygon class="cls-4" points="230.13 280.73 239.38 289.29 230.13 312.24 224.63 291.28 230.13 280.73"/><path class="cls-9" d="M218,108.38A57.17,57.17,0,0,0,161,165.55c0,1.34.06,2.67.15,4h4.7c-.1-1.32-.16-2.65-.16-4a52.23,52.23,0,1,1,104.45,0c0,1.34-.06,2.67-.16,4h4.7c.09-1.32.15-2.65.15-4A57.17,57.17,0,0,0,218,108.38Z"/><path class="cls-18" d="M249.86,219.29h0c-7.9,9-23.93,26.32-25.4,26.32h-13c-1.47,0-17.5-17.35-25.4-26.32h0l-2.6,19L218,269l34.51-30.71Z"/><path class="cls-19" d="M249.86,219.29c-7.9,9-23.93,26.32-25.4,26.32h-13c-1.47,0-17.5-17.35-25.4-26.32h0l-.24,1.74h0l35.48,45,31.19-27.75-2.6-19Z"/><path class="cls-18" d="M257.11,134.46c-4-6.76-19.16-20.87-39.16-20.23-20-.64-35.22,13.47-39.17,20.23-3.64,6.25-4.34,35.26-3.82,38.21s5.39,39.25,6.78,41.5,27.78,31.44,29.69,31.44h13c1.91,0,28.31-29.18,29.7-31.44s6.25-38.55,6.77-41.5S260.75,140.71,257.11,134.46Z"/><path class="cls-20" d="M264.35,157c-1-1.67-2.23-16.58-4.32-20.34a24.58,24.58,0,0,0-3.72-4.81c2.52-6.75-1.15-24.6-1.15-24.6a36.84,36.84,0,0,1-1.4,6.27c.89-7-4.46-14.63-4.46-14.63-2.09,8.22-15.05,13.52-15.05,13.52,2.65-3.67,1-8.92,1-8.92-3.21,5.57-16,7.8-23.51,10s-23.31,3.27-26.39,6.59c-1.94,2.1-2.32,6.28-2.33,9.07h0s-5.19,3.75-7.28,7.52-3.35,18.67-4.32,20.34l2.09-2,1.37,16.45c0,.53.06.95.1,1.18l9-16.24,1.44-12.76L202.88,146v-1.17l15.07,2.3,15.06-2.3V146l17.45-2.34,1.44,12.76,9,16.24a11.91,11.91,0,0,0,.11-1.5L262.26,155Z"/><path class="cls-21" d="M256.66,130.66c1.79-7.43-1.5-23.42-1.5-23.42a36.84,36.84,0,0,1-1.4,6.27c.89-7-4.46-14.63-4.46-14.63s4.49,22.37-11.34,40.9c3.35-8.5,2.75-19.34,2.75-19.34-1.23,12.55-8.46,21.47-11.86,25l4.16-.64V146l17.45-2.34a48,48,0,0,0,5.85-11.83C256.43,131.44,256.54,131.05,256.66,130.66Z"/><rect class="cls-10" x="240.28" y="180.51" width="47.13" height="10.22" rx="3.83" transform="translate(50.62 427.7) rotate(-83.75)"/><rect class="cls-22" x="268.92" y="166.48" width="1.68" height="39.58" transform="translate(21.86 -28.24) rotate(6.25)"/><path class="cls-10" d="M273.62,165.55a.75.75,0,0,0-.82.66l-4.41,40.3a.75.75,0,0,0,.66.82,10.94,10.94,0,0,0,12.05-9.68l2.19-20.05A10.92,10.92,0,0,0,273.62,165.55Z"/><rect class="cls-9" x="166.94" y="162.06" width="10.22" height="47.13" rx="3.83" transform="translate(-19.18 19.82) rotate(-6.25)"/><rect class="cls-10" x="165.29" y="166.48" width="1.68" height="39.58" transform="translate(351.54 353.36) rotate(173.75)"/><path class="cls-9" d="M162.27,165.55a.75.75,0,0,1,.82.66l4.41,40.3a.75.75,0,0,1-.66.82,10.94,10.94,0,0,1-12.05-9.68L152.6,177.6A10.92,10.92,0,0,1,162.27,165.55Z"/><path class="cls-9" d="M199,219.29c-2.9-.28-5.47.42-6.61,1.66A19.58,19.58,0,0,1,175,207.58l-2-.17a21.51,21.51,0,0,0,18.92,15.42c.37,1.76,3.06,3.34,6.47,3.68,3.79.37,7-.95,7.22-2.94S202.79,219.67,199,219.29Z"/></g></g></svg>