<svg xmlns="http://www.w3.org/2000/svg" xmlns:xlink="http://www.w3.org/1999/xlink" viewBox="0 0 461.69 411.1"><defs><style>.cls-1,.cls-4,.cls-5{fill:none;}.cls-2{clip-path:url(#clip-path);}.cls-3{fill:#0071ba;}.cls-4,.cls-5{stroke:#0071ba;}.cls-4{stroke-miterlimit:10;stroke-width:2px;}.cls-5{stroke-linecap:round;stroke-linejoin:round;stroke-width:1.5px;}.cls-6{fill:#1e2584;}.cls-7{fill:#353d9b;}.cls-8{fill:#4653b7;}.cls-9{fill:#242b84;}.cls-10{fill:#f12a5d;}.cls-11{fill:#22297f;}.cls-12{fill:#2e3192;}.cls-13{fill:#0046b7;}.cls-14{fill:#003cb5;}.cls-15{fill:#0d5acc;}</style><clipPath id="clip-path"><rect class="cls-1" x="-27.35" y="-50.44" width="500" height="500"/></clipPath></defs><title>Cyber security</title><g id="OBJECTS"><g class="cls-2"><circle class="cls-3" cx="202.63" cy="19.73" r="4.16"/><polyline class="cls-4" points="239.31 112.2 239.81 42.7 203.23 20.62"/><polyline class="cls-4" points="280.48 258.87 383.48 318.2 439.31 306.87"/><circle class="cls-3" cx="438.87" cy="307.46" r="4.16"/><circle class="cls-3" cx="424.71" cy="331.32" r="4.16"/><polyline class="cls-4" points="261.48 269.87 382.31 339.62 425.14 331.2"/><line class="cls-4" x1="326.81" y1="307.62" x2="326.69" y2="371.62"/><line class="cls-4" x1="326.81" y1="327.7" x2="298.98" y2="344.54"/><line class="cls-4" x1="326.64" y1="349.7" x2="308.31" y2="361.04"/><circle class="cls-3" cx="308.33" cy="361.26" r="4.16"/><circle class="cls-3" cx="326.21" cy="371.76" r="4.16"/><circle class="cls-3" cx="299" cy="344.92" r="4.16"/><polyline class="cls-4" points="238.89 288.12 265.23 303.79 264.56 346.12 227.23 368.45 227.89 389.12"/><circle class="cls-3" cx="227.42" cy="389.17" r="4.16"/><circle class="cls-3" cx="47.62" cy="327.48" r="4.16"/><polyline class="cls-4" points="204.98 279.33 140.48 316.83 84.81 305.83 46.81 327.5"/><circle class="cls-3" cx="213.83" cy="338.42" r="4.16"/><circle class="cls-3" cx="157.83" cy="392.09" r="4.16"/><polyline class="cls-4" points="223.48 289.79 176.48 316.79 177.14 381.12 157.81 392.12"/><polyline class="cls-4" points="196.81 305.79 213.48 316.79 213.73 338.37"/><circle class="cls-3" cx="43.59" cy="286.32" r="4.16"/><circle class="cls-3" cx="118.84" cy="285.57" r="4.16"/><polyline class="cls-4" points="149.35 246.66 100.1 275.54 63.19 275.7 43.52 286.7"/><polyline class="cls-4" points="118.6 264.04 137.1 274.79 118.6 285.79"/><polyline class="cls-4" points="325.98 187.87 379.98 156.37 380.48 113.37 418.48 91.37"/><circle class="cls-3" cx="418.12" cy="90.69" r="4.16"/><circle class="cls-3" cx="435.79" cy="155.17" r="4.16"/><polyline class="cls-4" points="352.94 172.12 379.98 188.37 436.48 154.87"/><polyline class="cls-4" points="176.14 175.83 96.39 130.16 113.89 120.33 64.23 91.33"/><circle class="cls-3" cx="63.38" cy="90.61" r="4.16"/><circle class="cls-3" cx="83.38" cy="58.11" r="4.16"/><line class="cls-4" x1="82.39" y1="102.41" x2="83.14" y2="58.91"/><polyline class="cls-4" points="131.02 149.91 167.02 129.16 198.23 147.37"/><circle class="cls-3" cx="11.68" cy="262.03" r="4.16"/><polyline class="cls-4" points="111.52 225.66 66.77 251.66 47.27 241.08 11.27 262.08"/><circle class="cls-3" cx="36.36" cy="170.46" r="4.16"/><circle class="cls-3" cx="17.22" cy="137.82" r="4.16"/><polyline class="cls-5" points="140.23 188.87 73.14 148.2 36.48 170.2"/><line class="cls-5" x1="54.64" y1="159.37" x2="17.14" y2="138.2"/><polyline class="cls-4" points="308.69 244.33 323.64 252.7 379.64 219.7 435.31 252.04"/><circle class="cls-3" cx="435.54" cy="251.96" r="4.16"/><circle class="cls-3" cx="445.12" cy="229.21" r="4.16"/><polyline class="cls-4" points="404.98 233.87 428.81 218.75 445.31 228.95"/><circle class="cls-3" cx="355.54" cy="22.86" r="4.16"/><polyline class="cls-4" points="323.31 84.04 342.64 95.37 306.98 116.7"/><polyline class="cls-4" points="288.64 104.04 355.14 65.54 314.64 43.04 356.14 23.04"/><path class="cls-6" d="M319.89,240v-9.61h0a4,4,0,0,1-2,3.5l-83.32,49.54a6.56,6.56,0,0,1-6.62,0L106.8,213.33a3.94,3.94,0,0,1-2-3.51h0l.12,10.13a4,4,0,0,0,2,3.72l120.55,69.74a7.81,7.81,0,0,0,7.9,0L318,244.2A4,4,0,0,0,319.89,240Z"/><path class="cls-7" d="M106.8,213.33,228,283.45a6.56,6.56,0,0,0,6.62,0l83.32-49.54a4,4,0,0,0,0-6.93l-121.56-70.4a4,4,0,0,0-4,0l-85.5,49.85a4,4,0,0,0,0,6.94Z"/><polygon class="cls-3" points="191.97 165.26 183.33 170.54 191.97 175.82 200.93 170.38 191.97 165.26"/><polygon class="cls-3" points="202.45 171.26 193.81 176.54 202.45 181.82 211.42 176.38 202.45 171.26"/><polygon class="cls-3" points="212.94 177.26 204.29 182.54 212.94 187.82 221.9 182.38 212.94 177.26"/><polygon class="cls-3" points="223.42 183.26 214.78 188.54 223.42 193.83 232.38 188.38 223.42 183.26"/><polygon class="cls-3" points="233.9 189.26 225.26 194.55 233.9 199.83 242.87 194.39 233.9 189.26"/><polygon class="cls-3" points="244.39 195.27 235.75 200.55 244.39 205.83 253.35 200.39 244.39 195.27"/><polygon class="cls-3" points="254.87 201.27 246.23 206.55 254.87 211.83 263.83 206.39 254.87 201.27"/><polygon class="cls-3" points="265.36 207.27 256.71 212.55 265.36 217.84 274.32 212.39 265.36 207.27"/><polygon class="cls-3" points="275.84 213.27 267.2 218.56 275.84 223.84 284.8 218.4 275.84 213.27"/><polygon class="cls-3" points="286.32 219.28 277.68 224.56 292.55 233.24 299.52 226.83 286.32 219.28"/><polygon class="cls-3" points="296.81 225.28 288.16 230.56 296.81 235.84 305.77 230.4 296.81 225.28"/><polygon class="cls-3" points="181.73 171.34 173.08 176.62 181.73 181.9 190.69 176.46 181.73 171.34"/><polygon class="cls-3" points="192.21 177.34 183.57 182.62 192.21 187.9 201.17 182.46 192.21 177.34"/><polygon class="cls-3" points="202.69 183.34 194.05 188.63 202.69 193.91 211.66 188.46 202.69 183.34"/><polygon class="cls-3" points="213.18 189.34 204.53 194.63 213.18 199.91 222.14 194.47 213.18 189.34"/><polygon class="cls-3" points="223.66 195.35 215.02 200.63 223.66 205.91 232.62 200.47 223.66 195.35"/><polygon class="cls-3" points="234.14 201.35 225.5 206.63 234.14 211.91 243.11 206.47 234.14 201.35"/><polygon class="cls-3" points="244.63 207.35 235.99 212.63 244.63 217.91 253.59 212.47 244.63 207.35"/><polygon class="cls-3" points="255.11 213.35 246.47 218.63 255.11 223.92 264.07 218.47 255.11 213.35"/><polygon class="cls-3" points="265.6 219.35 256.95 224.64 265.6 229.92 274.56 224.48 265.6 219.35"/><polygon class="cls-3" points="276.08 225.36 267.44 230.64 276.08 235.92 285.04 230.48 276.08 225.36"/><polygon class="cls-3" points="286.56 231.36 277.92 236.64 286.56 241.92 295.53 236.48 286.56 231.36"/><polygon class="cls-3" points="171.48 177.42 162.84 182.7 178.05 191.62 183.65 184.41 171.48 177.42"/><polygon class="cls-3" points="181.97 183.42 173.32 188.71 181.97 193.99 190.93 188.54 181.97 183.42"/><polygon class="cls-3" points="192.45 189.43 183.81 194.71 192.45 199.99 201.41 194.55 192.45 189.43"/><polygon class="cls-3" points="202.93 195.43 194.29 200.71 202.93 205.99 211.9 200.55 202.93 195.43"/><polygon class="cls-3" points="213.42 201.43 204.77 206.71 213.42 211.99 222.38 206.55 213.42 201.43"/><polygon class="cls-3" points="223.9 207.43 215.26 212.71 223.9 218 232.86 212.55 223.9 207.43"/><polygon class="cls-3" points="234.38 213.43 225.74 218.72 234.38 224 243.35 218.56 234.38 213.43"/><polygon class="cls-3" points="244.87 219.44 236.22 224.72 244.87 230 253.83 224.56 244.87 219.44"/><polygon class="cls-3" points="255.35 225.44 246.71 230.72 255.35 236 264.31 230.56 255.35 225.44"/><polygon class="cls-3" points="265.83 231.44 257.19 236.72 265.83 242 274.8 236.56 265.83 231.44"/><polygon class="cls-3" points="276.32 237.44 267.68 242.72 276.32 248 285.28 242.56 276.32 237.44"/><polygon class="cls-3" points="161.24 183.5 152.6 188.78 166.97 197.1 175.05 191.43 161.24 183.5"/><polygon class="cls-3" points="171.72 189.5 163.08 194.79 171.72 200.07 180.69 194.63 171.72 189.5"/><polygon class="cls-3" points="182.21 195.51 173.56 200.79 182.21 206.07 191.17 200.63 182.21 195.51"/><polygon class="cls-3" points="192.69 201.51 184.05 206.79 192.69 212.07 201.65 206.63 192.69 201.51"/><polygon class="cls-3" points="203.17 207.51 194.53 212.79 203.17 218.07 212.14 212.63 203.17 207.51"/><polygon class="cls-3" points="213.66 213.51 205.01 218.79 213.66 224.08 222.62 218.63 213.66 213.51"/><polygon class="cls-3" points="224.14 219.51 215.5 224.8 224.14 230.08 233.1 224.64 224.14 219.51"/><polygon class="cls-3" points="234.63 225.52 225.98 230.8 234.63 236.08 243.59 230.64 234.63 225.52"/><polygon class="cls-3" points="245.11 231.52 236.47 236.8 245.11 242.08 254.07 236.64 245.11 231.52"/><polygon class="cls-3" points="255.59 237.52 246.95 242.8 255.59 248.09 264.56 242.64 255.59 237.52"/><polygon class="cls-3" points="266.08 243.52 257.43 248.81 266.08 254.09 275.04 248.65 266.08 243.52"/><polygon class="cls-3" points="151 189.59 142.35 194.87 151 200.15 159.96 194.71 151 189.59"/><polygon class="cls-3" points="161.48 195.59 152.84 200.87 161.48 206.15 170.44 200.71 161.48 195.59"/><polygon class="cls-3" points="171.96 201.59 163.32 206.87 171.96 212.15 180.93 206.71 171.96 201.59"/><polygon class="cls-3" points="182.45 207.59 173.8 212.87 187.72 220.87 195.59 215.13 182.45 207.59"/><polygon class="cls-3" points="192.93 213.59 184.29 218.88 198.93 227.34 206.49 221.39 192.93 213.59"/><polygon class="cls-3" points="203.41 219.59 194.77 224.88 209.68 233.58 217 227.38 203.41 219.59"/><polygon class="cls-3" points="213.9 225.6 205.25 230.88 213.9 236.16 222.86 230.72 213.9 225.6"/><polygon class="cls-3" points="224.38 231.6 215.74 236.88 224.38 242.16 233.34 236.72 224.38 231.6"/><polygon class="cls-3" points="234.87 237.6 226.22 242.88 234.87 248.16 243.83 242.72 234.87 237.6"/><polygon class="cls-3" points="245.35 243.6 236.71 248.88 251.71 257.64 259.07 251.46 245.35 243.6"/><polygon class="cls-3" points="255.83 249.61 247.19 254.89 255.83 260.17 264.8 254.73 255.83 249.61"/><polygon class="cls-6" points="170.8 214.67 149.36 227.46 198.38 255.67 219.96 242.81 170.8 214.67"/><path class="cls-6" d="M196.31,51.79h0l.35-.23Z"/><path class="cls-6" d="M327.93,116.82,208.2,47.28a4.49,4.49,0,0,0-5,.33l-6.29,3.81a4.47,4.47,0,0,1,4.42,0L321.06,121a7.17,7.17,0,0,1,3.56,6.19L324.47,223a4.43,4.43,0,0,1-2.15,3.81l6.61-4v0a4.44,4.44,0,0,0,2.42-4l.15-95.77A7.13,7.13,0,0,0,327.93,116.82Z"/><path class="cls-8" d="M324.47,223l.15-95.78a7.17,7.17,0,0,0-3.56-6.19L201.33,51.47a4.47,4.47,0,0,0-4.42,0l-.22.14-.35.23a4.43,4.43,0,0,0-1.76,3.54l-.5,96a6.84,6.84,0,0,0,3.4,5.94l120.25,69.54a4.5,4.5,0,0,0,6.74-3.87Z"/><polygon class="cls-9" points="201.97 149.99 202.43 61.9 316.96 127.25 316.62 214.58 201.97 149.99"/><path class="cls-10" d="M284.48,122.94c-20.5-4.25-27.33-18.83-27.33-18.83-12.31,3.94-27.2-8.74-27.2-8.74L226.14,97a39.09,39.09,0,0,0,3.75,3.22c4.67,3.56,13.05,8.48,21.26,5.85,0,0,6.83,14.58,27.33,18.83,0,0,.31,16.74-11.14,30.77a54.67,54.67,0,0,1-11.54,10.81,26.73,26.73,0,0,1-5.13,2.86l6-2s7.87-2.88,16.67-13.67C284.79,139.68,284.48,122.94,284.48,122.94Z"/><path class="cls-10" d="M267.34,155.71c11.45-14,11.14-30.77,11.14-30.77-20.5-4.25-27.33-18.83-27.33-18.83-8.21,2.63-16.59-2.29-21.26-5.85A39.09,39.09,0,0,1,226.14,97c-1.72,45.78,24.53,72.34,24.53,72.34a26.73,26.73,0,0,0,5.13-2.86A54.67,54.67,0,0,0,267.34,155.71Zm-19.95-11,.09-11.24s-2.94-2.33-1.78-4.91,4.91-1.52,6.51,1,1.61,5.89-1.07,5.8V147Z"/><path class="cls-9" d="M251.14,135.37c2.68.09,2.68-3.3,1.07-5.8s-5.35-3.57-6.51-1,1.78,4.91,1.78,4.91l-.09,11.24,3.75,2.23Z"/><path class="cls-11" d="M301.58,39.85c-1.14-14.34-10.29-25.44-20.43-24.79a13.41,13.41,0,0,0-3.41.69,51,51,0,0,0-6,2.34,12.87,12.87,0,0,1,4-.9c10.14-.66,19.29,10.54,20.44,25,1,12.86-4.62,24-13,26.74A27.32,27.32,0,0,0,293,65.1C299.38,61.11,302.48,51.19,301.58,39.85Z"/><path class="cls-11" d="M277.58,69.91Z"/><path class="cls-11" d="M278.44,69.77l-.74.12Z"/><path class="cls-11" d="M278.44,69.77l1-.17h0Z"/><path class="cls-11" d="M277.7,69.89l-.12,0Z"/><path class="cls-12" d="M296.14,42.2c-1.15-14.47-10.3-25.67-20.44-25a12.87,12.87,0,0,0-4,.9c-8,3.15-13.29,14-12.3,26.48,1.14,14.27,10.06,25.36,20,25h.41a12.82,12.82,0,0,0,3.27-.65C291.52,66.17,297.17,55.06,296.14,42.2Zm-33.56,2.33c-1-12.25,4.86-22.6,13-23.13s15.58,9,16.56,21.22-4.87,22.6-13,23.12S263.55,56.77,262.58,44.53Z"/><ellipse class="cls-11" cx="277.38" cy="43.57" rx="14.83" ry="22.24" transform="translate(-2.82 25.44) rotate(-5.22)"/><path class="cls-3" d="M266.11,40.9a.48.48,0,0,1-.48-.46c0-.2-.13-4.79,3-10.78,3.29-6.22,7.13-5.32,7.29-5.28a.49.49,0,0,1,.35.59.48.48,0,0,1-.59.35c-.13,0-3.29-.7-6.19,4.79A22.76,22.76,0,0,0,266.6,40.4a.48.48,0,0,1-.47.5Z"/><path class="cls-3" d="M289.2,53.66h-.05a.48.48,0,0,1-.43-.53,53.4,53.4,0,0,0-.79-15c-1.58-7-7.51-11.42-7.56-11.46a.49.49,0,0,1,.57-.79c.25.19,6.28,4.66,7.93,12a54.3,54.3,0,0,1,.81,15.31A.48.48,0,0,1,289.2,53.66Z"/><path class="cls-3" d="M268.55,47.23a.48.48,0,0,1-.48-.44c-1-11.62,2.94-15.34,3.1-15.49a.49.49,0,0,1,.69,0,.48.48,0,0,1,0,.68c-.05.05-3.75,3.64-2.8,14.69a.48.48,0,0,1-.44.53Z"/><path class="cls-3" d="M282.9,33.25a.48.48,0,0,1-.41-.23c-3.1-5-7.19-3.31-7.36-3.23a.49.49,0,1,1-.39-.89c.05,0,5-2.13,8.58,3.61a.48.48,0,0,1-.42.74Z"/><path class="cls-3" d="M272.55,41.55h-.13a.49.49,0,0,1-.34-.6c.06-.21,1.44-5,4.56-4.68a5.52,5.52,0,0,1,4.21,2.86.49.49,0,0,1-.88.42,4.51,4.51,0,0,0-3.44-2.31c-2.27-.27-3.5,3.93-3.51,4A.49.49,0,0,1,272.55,41.55Z"/><path class="cls-3" d="M270.48,44a.49.49,0,0,1-.49-.49c0-.26,0-6.45,3.15-9.45a5.62,5.62,0,0,1,4.3-1.59.5.5,0,0,1,.46.51.48.48,0,0,1-.5.46,4.78,4.78,0,0,0-3.59,1.31C271,37.51,271,43.49,271,43.55a.49.49,0,0,1-.48.49Z"/><path class="cls-3" d="M267.53,54.32a.5.5,0,0,1-.45-.31c-1.14-2.79-1.63-8.89-1.65-9.15a.47.47,0,0,1,.44-.52.48.48,0,0,1,.52.44c0,.07.51,6.21,1.59,8.87a.48.48,0,0,1-.27.63A.58.58,0,0,1,267.53,54.32Z"/><path class="cls-3" d="M271.5,60.59h-.05a.48.48,0,0,1-.43-.53,99.31,99.31,0,0,0,.33-13.73.49.49,0,1,1,1-.06A98.87,98.87,0,0,1,272,60.15.49.49,0,0,1,271.5,60.59Z"/><path class="cls-3" d="M284.91,45.19a.48.48,0,0,1-.48-.42c-1-6.9-4.08-9.74-4.11-9.77a.49.49,0,0,1,.64-.73c.14.13,3.39,3.07,4.43,10.37a.49.49,0,0,1-.41.55Z"/><path class="cls-3" d="M285.08,60.69a.45.45,0,0,1-.3-.11.48.48,0,0,1-.07-.68s1.3-1.82,2.11-9.86a27.55,27.55,0,0,0-2.64-14.56.49.49,0,0,1,.2-.66A.47.47,0,0,1,285,35a28.1,28.1,0,0,1,2.75,15.13c-.83,8.33-2.17,10.19-2.32,10.37A.48.48,0,0,1,285.08,60.69Z"/><path class="cls-3" d="M281.27,50.68a.48.48,0,0,1-.48-.47c-.16-4-1.35-7.88-2.77-9a1,1,0,0,0-.81-.27c-1.36.25-1.57,3.15-1.54,4.15a.48.48,0,0,1-.47.5.49.49,0,0,1-.5-.47c0-.48-.08-4.69,2.34-5.13a2,2,0,0,1,1.59.46c1.64,1.32,2.95,5.41,3.13,9.74a.49.49,0,0,1-.47.51Z"/><path class="cls-3" d="M275.24,63.2a.39.39,0,0,1-.15,0,.48.48,0,0,1-.32-.6c1.28-4.12-.19-14.12-.21-14.23a.5.5,0,0,1,.41-.55.49.49,0,0,1,.55.41c.07.42,1.52,10.32.18,14.65A.48.48,0,0,1,275.24,63.2Z"/><path class="cls-3" d="M283.44,52.59h0a.49.49,0,0,1-.46-.5A36.54,36.54,0,0,0,281.65,42a.48.48,0,1,1,.93-.27,37,37,0,0,1,1.34,10.42A.48.48,0,0,1,283.44,52.59Z"/><path class="cls-3" d="M280.56,63.2a.48.48,0,0,1-.36-.82c4-4.18,4.36-11.4,4.37-11.47a.47.47,0,0,1,.5-.46.49.49,0,0,1,.47.51c0,.31-.43,7.64-4.63,12.09A.49.49,0,0,1,280.56,63.2Z"/><path class="cls-3" d="M277.32,64.46l-.16,0a.48.48,0,0,1-.3-.61s.77-2.37,1.06-9.27-.64-9.6-.65-9.63a.48.48,0,0,1,.91-.33c0,.12,1,2.89.71,10s-1.08,9.44-1.11,9.54A.49.49,0,0,1,277.32,64.46Z"/><path class="cls-3" d="M280.84,58.5a.39.39,0,0,1-.15,0,.47.47,0,0,1-.31-.61,21.14,21.14,0,0,0,.38-6.08.49.49,0,0,1,.45-.52.48.48,0,0,1,.52.45,21.67,21.67,0,0,1-.43,6.45A.49.49,0,0,1,280.84,58.5Z"/><path class="cls-3" d="M269.81,58.31a.49.49,0,0,1-.48-.42c-.79-6.13-1-9-1-9.08a.48.48,0,0,1,.46-.51.46.46,0,0,1,.51.45s.19,2.92,1,9a.48.48,0,0,1-.42.54Z"/><path class="cls-6" d="M152.22,65.37a6.71,6.71,0,0,0-1.91.7l-3,1.6h0a2.84,2.84,0,0,1,.87-.31c2.59-.45,5.24,2.84,5.9,7.34.52,3.49-.3,6.67-1.9,8.14l3.37-2.33c1.89-1.18,2.8-4.43,2.35-8C157.37,68.21,154.82,65,152.22,65.37Z"/><path class="cls-6" d="M151.25,83.49l.12-.08-.12,0Z"/><path class="cls-6" d="M174.83,45c-2.4-7.25-9.06-15.31-18.52-17a14.66,14.66,0,0,0-8.62,1.26,30.23,30.23,0,0,0-10.38,9.13c2.81-3.35,8.46-8.75,15.05-7.63,8.84,1.51,15.28,9.81,17.73,17.37.7,2.17.43,4.85-.58,6.19l3.1-2.58,1-.89.94-.89C175.89,48.79,175.56,47.18,174.83,45Z"/><path class="cls-6" d="M155.16,46.68a9.23,9.23,0,0,0-5,.22s-9.73,4.68-11.94,11.25c0-.09.08-.19.13-.28.25-.4,6.14-9.94,12.82-8.24,6.36,1.62,10.61,9.15,12,15.9a8.48,8.48,0,0,1-.45,5l3-2.78,1.36-1.24c1.5-1.41.75-2.45.29-4.76C166.07,55.18,162,48.44,155.16,46.68Z"/><path class="cls-3" d="M154.08,74.71c-.66-4.5-3.31-7.79-5.9-7.34a2.84,2.84,0,0,0-.87.31c-2.05,1.09-3.2,4.68-2.61,8.65.67,4.5,3.31,7.78,5.9,7.34a2.9,2.9,0,0,0,.65-.21l.12,0a3.36,3.36,0,0,0,.81-.56C153.78,81.38,154.6,78.2,154.08,74.71Z"/><path class="cls-3" d="M163.19,65.53c-1.38-6.75-5.63-14.28-12-15.9-6.68-1.7-12.57,7.84-12.82,8.24,0,.09-.09.19-.13.28a8.4,8.4,0,0,0-.12,6.62c.93,2,2.55,2.3,3.62.54,0-.07,4.45-7.09,8.81-6,4.54,1.16,7.19,6.44,7.86,9.71.35,1.73,1.17,2.86,2.07,3.09a1.44,1.44,0,0,0,1.25-.28,3.47,3.47,0,0,0,1-1.36A8.48,8.48,0,0,0,163.19,65.53Z"/><path class="cls-3" d="M170.09,48.11c-2.45-7.56-8.89-15.86-17.73-17.37-6.59-1.12-12.24,4.28-15.05,7.63a27.59,27.59,0,0,0-1.86,2.47,5.43,5.43,0,0,0-.74,2.11h0a8.54,8.54,0,0,0,.53,4.54c.92,2.09,2.5,2.49,3.53.9.06-.09,6.22-9.44,13.52-8.19s12.19,8.13,13.59,12.43c.47,1.45,1.26,2.33,2.07,2.47a1.54,1.54,0,0,0,1.39-.56c.06-.07.11-.16.17-.24C170.52,53,170.79,50.28,170.09,48.11Z"/><path class="cls-13" d="M91.52,215.93l-.23-30.35a3.84,3.84,0,0,0-1.91-3.29L61.07,165.94a2.61,2.61,0,0,0-2.67,0h0l-6.34,3.6,0,0a2.59,2.59,0,0,1,2.8-.11L83.18,185.8a3.83,3.83,0,0,1,1.92,3.29l.23,30.35a3.78,3.78,0,0,1-1.75,3.24L89,219.57v0A3.78,3.78,0,0,0,91.52,215.93Z"/><path class="cls-3" d="M85.33,219.44l-.23-30.35a3.83,3.83,0,0,0-1.92-3.29L54.87,169.45a2.67,2.67,0,0,0-4,2.3v32.38a3.82,3.82,0,0,0,1.92,3.32l14.75,8.45,7.77,10.64,0-6.18,4.25,2.43a3.83,3.83,0,0,0,5.73-3.35Z"/><ellipse class="cls-13" cx="57.5" cy="191.42" rx="2.79" ry="5.78"/><ellipse class="cls-13" cx="66.98" cy="197.2" rx="2.79" ry="5.78"/><ellipse class="cls-13" cx="77.64" cy="202.57" rx="2.79" ry="5.78"/><path class="cls-1" d="M378.27,248.31c-1.41-3.09-4-7.13-7.58-8.87a6.48,6.48,0,0,0-2-.62,6.37,6.37,0,0,0-1,3.61l.18,8.59,11.46,6.64.06-3.22A15.58,15.58,0,0,0,378.27,248.31Z"/><path class="cls-14" d="M395,298.37l0-29.75a3.35,3.35,0,0,0-1.67-2.9l-4.53-2.62,0,2h0l-4.6,2.29-4.86-3.16.13-6.58L367.87,251l0,1.7h0L363.27,255l-5.22-2.92.05-5.47a1.9,1.9,0,0,0-.39.31l-7.38,4.5,0,0a2,2,0,0,1,2.17-.1l33.08,19.15a3.37,3.37,0,0,1,1.67,2.9l0,29.75a3.33,3.33,0,0,1-1.77,3v0l7.68-4.82A3.31,3.31,0,0,0,395,298.37Z"/><path class="cls-15" d="M387.31,303.14l0-29.75a3.37,3.37,0,0,0-1.67-2.9l-33.08-19.15a2,2,0,0,0-2.17.1,2,2,0,0,0-.89,1.65l-.18,31a3.34,3.34,0,0,0,1.61,2.88L382.21,306a3.36,3.36,0,0,0,5.1-2.87Z"/><path class="cls-13" d="M368.71,238.82a4.57,4.57,0,0,0-3.9,1.38,6.12,6.12,0,0,0-1.74,4.51l.2,10.29,4.62-2.28h0l0-1.7-.18-8.59A6.37,6.37,0,0,1,368.71,238.82Z"/><path class="cls-13" d="M368.83,232.91c7.64,1.1,13.48,8.73,15.29,17.07a12.19,12.19,0,0,1,.27,3l-.33,14.47,4.6-2.29h0l0-2,.29-12.45a12.58,12.58,0,0,0-.27-2.94c-1.81-8.35-7.65-16-15.29-17.08a8.74,8.74,0,0,0-5.12.79,30.15,30.15,0,0,0-5.64,2.83A8.83,8.83,0,0,1,368.83,232.91Z"/><path class="cls-15" d="M358.05,252.08l5.22,2.92-.2-10.29a6.12,6.12,0,0,1,1.74-4.51,4.57,4.57,0,0,1,3.9-1.38,6.48,6.48,0,0,1,2,.62c3.55,1.74,6.17,5.78,7.58,8.87a15.58,15.58,0,0,1,1.12,6.13l-.06,3.22-.13,6.58,4.86,3.16.33-14.47a12.19,12.19,0,0,0-.27-3c-1.81-8.34-7.65-16-15.29-17.07a8.83,8.83,0,0,0-6.13,1.34,12,12,0,0,0-1.55,1.19,9.37,9.37,0,0,0-3,6.84l0,4.33Z"/><path class="cls-9" d="M365.36,276.07s-3.22-2.54-1.95-5.37,5.36-1.66,7.12,1.08,1.75,6.43-1.17,6.33v12.68l-4.1-2.43Z"/></g></g></svg>