<svg xmlns="http://www.w3.org/2000/svg" viewBox="0 0 345.37 329.22"><defs><style>.cls-1{fill:#104478;}.cls-10,.cls-11,.cls-12,.cls-2,.cls-6,.cls-7{fill:none;}.cls-2{stroke:#053256;stroke-width:2.17px;}.cls-10,.cls-11,.cls-2,.cls-6,.cls-9{stroke-miterlimit:10;}.cls-3{fill:#053256;}.cls-4{fill:#022035;}.cls-5{fill:#5bb5dc;}.cls-6{stroke:#022035;stroke-width:1.95px;}.cls-10,.cls-12,.cls-6,.cls-7,.cls-9{stroke-linecap:round;}.cls-7{stroke:#86294e;stroke-width:1.44px;stroke-dasharray:4.97;}.cls-12,.cls-7{stroke-linejoin:round;}.cls-8{fill:#7f0044;}.cls-9{fill:#154578;}.cls-10,.cls-12,.cls-9{stroke:#104478;}.cls-10,.cls-9{stroke-width:2.25px;}.cls-11{stroke:#fff;stroke-width:1.09px;}.cls-12{stroke-width:1.39px;}</style></defs><title>End user</title><g id="OBJECTS"><path class="cls-1" d="M175.82,210.39v-8a49.19,49.19,0,0,0,22-9.16l5.69,5.69a3.22,3.22,0,0,0,4.56,0l5.86-5.86a3.22,3.22,0,0,0,0-4.56l-5.7-5.7a49.17,49.17,0,0,0,9.08-22h8.11a3.23,3.23,0,0,0,3.22-3.23V149.3a3.22,3.22,0,0,0-3.22-3.22h-8.11a49.09,49.09,0,0,0-9.08-22l5.73-5.73a3.22,3.22,0,0,0,0-4.56L208.12,108a3.24,3.24,0,0,0-4.57,0l-5.7,5.71a49.2,49.2,0,0,0-22-9.17v-8a3.22,3.22,0,0,0-3.22-3.23h-8.29a3.23,3.23,0,0,0-3.23,3.23v8A49.3,49.3,0,0,0,139,113.54l-5.61-5.61a3.22,3.22,0,0,0-4.56,0L123,113.79a3.22,3.22,0,0,0,0,4.56l5.59,5.59a49.28,49.28,0,0,0-9.2,22.1h-7.88a3.22,3.22,0,0,0-3.22,3.22v8.29a3.23,3.23,0,0,0,3.22,3.23h7.87a49.16,49.16,0,0,0,9.17,22.12L123,188.48a3.22,3.22,0,0,0,0,4.56l5.86,5.86a3.22,3.22,0,0,0,4.56,0l5.59-5.58a49.36,49.36,0,0,0,22.1,9.11v8a3.23,3.23,0,0,0,3.23,3.23h8.29A3.23,3.23,0,0,0,175.82,210.39Zm-24.88-56.94a17.42,17.42,0,1,1,17.42,17.42A17.44,17.44,0,0,1,150.94,153.45Z"/><path class="cls-1" d="M229.86,276.1l2.83-6.48a43.72,43.72,0,0,0,21.13.35l2.61,6.63a2.85,2.85,0,0,0,3.7,1.62l6.84-2.69a2.85,2.85,0,0,0,1.61-3.7L266,265.17a43.59,43.59,0,0,0,15.17-14.64l6.58,2.87a2.86,2.86,0,0,0,3.76-1.48l2.94-6.74a2.86,2.86,0,0,0-1.48-3.76l-6.58-2.87a43.61,43.61,0,0,0,.4-21.07l6.68-2.62a2.86,2.86,0,0,0,1.61-3.71l-2.68-6.84a2.86,2.86,0,0,0-3.71-1.61L282,205.31a43.7,43.7,0,0,0-14.62-15.23l2.84-6.52a2.85,2.85,0,0,0-1.48-3.76L262,176.86a2.88,2.88,0,0,0-3.77,1.48l-2.82,6.49a43.78,43.78,0,0,0-21.17-.44l-2.57-6.55a2.86,2.86,0,0,0-3.71-1.61l-6.83,2.68a2.87,2.87,0,0,0-1.62,3.71l2.57,6.52a43.7,43.7,0,0,0-15.3,14.7l-6.4-2.79a2.86,2.86,0,0,0-3.77,1.48l-2.93,6.73a2.86,2.86,0,0,0,1.48,3.77l6.39,2.78a43.61,43.61,0,0,0-.38,21.22l-6.51,2.56a2.87,2.87,0,0,0-1.62,3.71l2.69,6.83a2.86,2.86,0,0,0,3.71,1.62l6.51-2.56a43.68,43.68,0,0,0,14.73,15.23l-2.81,6.46a2.87,2.87,0,0,0,1.47,3.77l6.74,2.93A2.85,2.85,0,0,0,229.86,276.1Z"/><circle class="cls-2" cx="244.06" cy="227.22" r="30.13"/><circle class="cls-1" cx="118.46" cy="267.28" r="51.34" transform="translate(-154.3 162.05) rotate(-45)"/><rect class="cls-1" x="100.87" y="205.34" width="35.19" height="123.88" rx="7.86"/><rect class="cls-1" x="100.87" y="205.34" width="35.19" height="123.88" rx="7.86" transform="translate(223.7 -5.48) rotate(45)"/><rect class="cls-1" x="100.87" y="205.34" width="35.19" height="123.88" rx="7.86" transform="translate(385.75 148.82) rotate(90)"/><rect class="cls-1" x="100.87" y="205.34" width="35.19" height="123.88" rx="7.86" transform="translate(391.23 372.52) rotate(135)"/><circle class="cls-2" cx="118.46" cy="267.28" r="45.31"/><circle class="cls-3" cx="118.46" cy="267.28" r="37.36" transform="translate(-154.3 162.05) rotate(-45)"/><path class="cls-4" d="M180.4,267.28c-4.83.1-9,1.87-10.05,4.56-1.18,3,1.88,6.12,7,7.46a11.51,11.51,0,0,0,.25,3.73,7.85,7.85,0,0,0,2.8-6Z"/><path class="cls-4" d="M162.67,308l-.44-3.21a1.28,1.28,0,0,0-2.54.35l.42,3.05a5.1,5.1,0,0,0-2.64,7.64l7.08-7.07A5.18,5.18,0,0,0,162.67,308Z"/><path class="cls-4" d="M87.19,316.63a1.3,1.3,0,0,0-1.52-.28,4.09,4.09,0,0,0-.46-.25l.79-3a1.3,1.3,0,0,0-2.51-.66l-.83,3.17a5.09,5.09,0,0,0-2.6.88L81.54,318a7.87,7.87,0,0,0,6.57,2.23,5.19,5.19,0,0,0-.71-2.1A1.3,1.3,0,0,0,87.19,316.63Z"/><rect class="cls-5" y="245.24" width="49.87" height="25.6" rx="7.77"/><polygon class="cls-5" points="28.2 269.06 38.3 277.96 38.3 267.87 28.2 269.06"/><line class="cls-6" x1="11.58" y1="254.07" x2="35.92" y2="254.07"/><line class="cls-6" x1="11.58" y1="260.56" x2="15.15" y2="260.56"/><line class="cls-6" x1="19.69" y1="260.56" x2="23.26" y2="260.56"/><line class="cls-6" x1="27.81" y1="260.56" x2="35.92" y2="260.56"/><rect class="cls-5" x="136.32" y="238.82" width="41.12" height="27.41" rx="6.41"/><polygon class="cls-5" points="159.57 264.76 167.89 272.1 167.89 263.78 159.57 264.76"/><line class="cls-6" x1="144.53" y1="255.88" x2="168.87" y2="255.88"/><line class="cls-6" x1="152.65" y1="249.39" x2="160.76" y2="249.39"/><rect class="cls-5" x="239.99" y="226.6" width="41.12" height="26.88" rx="6.41"/><polygon class="cls-5" points="263.24 252.01 271.56 259.36 271.56 251.03 263.24 252.01"/><line class="cls-6" x1="248.21" y1="236.58" x2="272.55" y2="236.58"/><line class="cls-6" x1="248.21" y1="243.14" x2="272.55" y2="243.14"/><path class="cls-7" d="M76,101.13c.91,5.28,9,28,23.84,33.72,10.67,4.16,14.47-1.34,14.68-5.24s-5.65-5.31-8.25.3c-1.31,2.8-.83,8.46,2.58,13.75"/><path class="cls-8" d="M246.83,86.41H232.16V75.28A7.33,7.33,0,0,1,239.49,68h0a7.34,7.34,0,0,1,7.34,7.33Z"/><path class="cls-8" d="M246.24,62.85a6.75,6.75,0,1,1-6.75-6.75A6.76,6.76,0,0,1,246.24,62.85Z"/><path class="cls-8" d="M283,90.94H268.37V79.8a7.33,7.33,0,0,1,7.33-7.33h0A7.34,7.34,0,0,1,283,79.8Z"/><path class="cls-8" d="M282.46,67.38a6.76,6.76,0,1,1-6.76-6.75A6.76,6.76,0,0,1,282.46,67.38Z"/><path class="cls-9" d="M236.92,93.91h3.89a.21.21,0,0,1,.16.36l-3.9,3.89a.21.21,0,0,1-.36-.15V94.12A.21.21,0,0,1,236.92,93.91Z"/><path class="cls-9" d="M278.7,54.28h-3.89a.22.22,0,0,1-.15-.37L278.55,50a.22.22,0,0,1,.37.15v3.89A.22.22,0,0,1,278.7,54.28Z"/><path class="cls-10" d="M237.15,53.49a28.92,28.92,0,0,1,40.9,0"/><path class="cls-10" d="M278.05,94.39a28.92,28.92,0,0,1-40.9,0"/><path class="cls-7" d="M213.49,71.81a66.35,66.35,0,0,0-20.36-12.54c-8.89-3.4-19.92-5.1-31.5-.78-27.47,10.24-25.45,27.18-19.21,35s19.83.56,15.29-14.6a23.28,23.28,0,0,0-3.87-7c-24.16-32-84.72-10.28-77.88,29.27"/><path class="cls-7" d="M300.69,80.37s11.86,31.77-8.5,52.87a62.11,62.11,0,0,1-7.36,6.57"/><path class="cls-7" d="M284.83,139.81c-16.52,12.36-28.3,4.79-32.39-2.94-4.68-8.84,7.4-18.41,19.49-8.19,9.07,7.66,15.75,34.59-.68,59.59"/><path class="cls-3" d="M257.6,36.29h0a4.18,4.18,0,0,1-4.19-4.19V32h8.38v.09A4.19,4.19,0,0,1,257.6,36.29Z"/><circle class="cls-8" cx="257.6" cy="12.36" r="12.36"/><rect class="cls-1" x="253.41" y="23.34" width="8.39" height="8.68"/><polyline class="cls-11" points="252.78 22.9 252.78 11.81 255.19 14.7 257.6 11.81 260.01 14.7 262.42 11.81 262.42 22.66"/><rect class="cls-1" x="250.66" y="22.6" width="13.88" height="2.69" rx="1.35"/><path class="cls-3" d="M263.19,27.55H252a1.34,1.34,0,0,1-1.34-1.35h0A1.34,1.34,0,0,1,252,24.86h11.19a1.34,1.34,0,0,1,1.35,1.34h0A1.34,1.34,0,0,1,263.19,27.55Z"/><path class="cls-1" d="M263.19,29.74H252a1.35,1.35,0,0,1-1.34-1.35h0A1.35,1.35,0,0,1,252,27h11.19a1.35,1.35,0,0,1,1.35,1.35h0A1.35,1.35,0,0,1,263.19,29.74Z"/><path class="cls-7" d="M238.25,215.84c.45-.28.9-.56,1.36-.83,1.24-.74,2.49-1.42,3.75-2,1-.51,2.12-1,3.19-1.37"/><path class="cls-7" d="M155.12,161.5c17.71,4.74,59.95,36.86,59.95,36.86,13.59,12.15,22.65,23.43,27,33.43s4,18.73-1.22,25.76-14.63,4.47-20.74-1.79c-13-14.19,6.31-30.89,10.26-34.14"/><path class="cls-5" d="M333.41,156.28a.64.64,0,0,1-.64.64h-3.19a.64.64,0,0,1,0-1.28h3.19A.64.64,0,0,1,333.41,156.28Zm-6.39,0a.64.64,0,0,1-.64.64h-3.19a.64.64,0,0,1,0-1.28h3.19A.64.64,0,0,1,327,156.28Zm-6.39,0a.64.64,0,0,1-.64.64h-1.83a.64.64,0,0,1,0-1.28H320A.64.64,0,0,1,320.63,156.28Z"/><path class="cls-5" d="M75,49.25a.63.63,0,0,1-.64.64H71.16a.64.64,0,1,1,0-1.27h3.19A.63.63,0,0,1,75,49.25Zm-6.39,0a.63.63,0,0,1-.63.64h-3.2a.64.64,0,1,1,0-1.27H68A.63.63,0,0,1,68.6,49.25Zm-6.38,0a.64.64,0,0,1-.64.64H59.75a.64.64,0,1,1,0-1.27h1.83A.64.64,0,0,1,62.22,49.25Z"/><path class="cls-5" d="M323,69.69a.63.63,0,0,0-.63.64v1.48a.64.64,0,1,0,1.27,0V70.33A.63.63,0,0,0,323,69.69Z"/><path class="cls-5" d="M321.33,68.2h-1.48a.64.64,0,0,0,0,1.28h1.48a.64.64,0,1,0,0-1.28Z"/><path class="cls-5" d="M323,65.13a.64.64,0,0,0-.63.64v1.48a.64.64,0,1,0,1.27,0V65.77A.64.64,0,0,0,323,65.13Z"/><path class="cls-5" d="M326.16,68.1h-1.48a.64.64,0,1,0,0,1.28h1.48a.64.64,0,0,0,0-1.28Z"/><path class="cls-5" d="M244.5,145.23s.31,2.17-2.23,2.12c0,0,2.18,0,2.12,2.05a2.48,2.48,0,0,1,2.19-2S244.9,147.83,244.5,145.23Z"/><path class="cls-5" d="M215.67,49.27h-1.43V47.84a.68.68,0,0,0-1.35,0v1.43h-1.43a.68.68,0,0,0,0,1.35h1.43v1.43a.68.68,0,0,0,1.35,0V50.62h1.43a.68.68,0,0,0,0-1.35Z"/><path class="cls-5" d="M345.37,148.53a2.58,2.58,0,1,1-2.58-2.58A2.59,2.59,0,0,1,345.37,148.53Zm-1.28,0a1.3,1.3,0,1,0-1.3,1.3A1.3,1.3,0,0,0,344.09,148.53Z"/><path class="cls-5" d="M303.92,226.13s.31,2.17-2.23,2.12c0,0,2.18,0,2.12,2.06a2.48,2.48,0,0,1,2.19-2S304.32,228.74,303.92,226.13Z"/><path class="cls-5" d="M208.65,28.08a.64.64,0,0,1-.64.64h-3.2a.64.64,0,1,1,0-1.28H208A.64.64,0,0,1,208.65,28.08Zm-6.39,0a.64.64,0,0,1-.64.64h-3.2a.64.64,0,0,1,0-1.28h3.2A.64.64,0,0,1,202.26,28.08Zm-6.39,0a.64.64,0,0,1-.64.64H193.4a.64.64,0,1,1,0-1.28h1.83A.64.64,0,0,1,195.87,28.08Z"/><path class="cls-5" d="M32.89,86.76a.64.64,0,0,0-.64.64v1.48a.64.64,0,0,0,1.28,0V87.4A.64.64,0,0,0,32.89,86.76Z"/><path class="cls-5" d="M31.22,85.27H29.74a.64.64,0,1,0,0,1.28h1.48a.64.64,0,0,0,.64-.64A.64.64,0,0,0,31.22,85.27Z"/><path class="cls-5" d="M32.89,82.2a.64.64,0,0,0-.64.64v1.48a.64.64,0,0,0,1.28,0V82.84A.64.64,0,0,0,32.89,82.2Z"/><path class="cls-5" d="M36.05,85.17H34.56a.64.64,0,0,0,0,1.28h1.49a.64.64,0,0,0,0-1.28Z"/><path class="cls-5" d="M4.9,33.89s.5,3.55-3.65,3.47c0,0,3.57,0,3.47,3.37a4.05,4.05,0,0,1,3.6-3.21S5.55,38.15,4.9,33.89Z"/><path class="cls-5" d="M152.3,41.94a.64.64,0,0,0,.63-.64V39.81a.64.64,0,0,0-1.27,0V41.3A.64.64,0,0,0,152.3,41.94Z"/><path class="cls-5" d="M154,43.42h1.48a.64.64,0,0,0,.64-.64.64.64,0,0,0-.64-.64H154a.64.64,0,0,0-.64.64A.64.64,0,0,0,154,43.42Z"/><path class="cls-5" d="M152.3,46.49a.63.63,0,0,0,.63-.64V44.37a.64.64,0,1,0-1.27,0v1.48A.63.63,0,0,0,152.3,46.49Z"/><path class="cls-5" d="M149.14,43.52h1.48a.64.64,0,1,0,0-1.27h-1.48a.64.64,0,1,0,0,1.27Z"/><path class="cls-5" d="M28.45,236H14.27a3.29,3.29,0,0,1-.11-6.57,5.09,5.09,0,0,1,9.36-2.7,3.7,3.7,0,0,1,4.1,2.69h.83a3.29,3.29,0,1,1,0,6.58Zm-14.18-5.6a2.32,2.32,0,1,0,0,4.63H28.45a2.32,2.32,0,0,0,0-4.63H26.81l-.06-.41a2.73,2.73,0,0,0-3.36-2.24l-.36.08-.18-.32a4.12,4.12,0,0,0-7.72,2c0,.12,0,.24,0,.36l0,.53Z"/><path class="cls-5" d="M84.73,140.46a.64.64,0,0,1-.64.64H80.9a.64.64,0,1,1,0-1.28h3.19A.64.64,0,0,1,84.73,140.46Zm-6.39,0a.64.64,0,0,1-.63.64h-3.2a.64.64,0,0,1,0-1.28h3.2A.64.64,0,0,1,78.34,140.46Zm-6.39,0a.64.64,0,0,1-.63.64H69.49a.64.64,0,0,1,0-1.28h1.83A.64.64,0,0,1,72,140.46Z"/><path class="cls-5" d="M69,200.27H83.6a.64.64,0,1,0,0-1.28H69a.64.64,0,1,0,0,1.28Z"/><path class="cls-5" d="M88.25,200.27H91.1a.64.64,0,1,0,0-1.27H88.25a.64.64,0,1,0,0,1.27Z"/><path class="cls-5" d="M75.85,195.18a.64.64,0,0,1,.64-.64h1.83a.64.64,0,0,1,0,1.28H76.49A.64.64,0,0,1,75.85,195.18Zm5,0a.64.64,0,0,1,.63-.64h3.2a.64.64,0,0,1,0,1.28h-3.2A.64.64,0,0,1,80.88,195.18Zm6.38,0a.64.64,0,0,1,.64-.64h3.2a.64.64,0,0,1,0,1.28H87.9A.64.64,0,0,1,87.26,195.18Z"/><path class="cls-5" d="M174.8,80.06h-1.43V78.64a.68.68,0,1,0-1.35,0v1.42h-1.43a.68.68,0,0,0-.67.68.67.67,0,0,0,.67.67H172v1.43a.68.68,0,1,0,1.35,0V81.41h1.43a.67.67,0,0,0,.67-.67A.68.68,0,0,0,174.8,80.06Z"/><path class="cls-5" d="M324.77,12.66h-14.6a.64.64,0,0,0,0,1.28h14.6a.64.64,0,1,0,0-1.28Z"/><path class="cls-5" d="M305.52,12.65h-2.85a.64.64,0,0,0,0,1.28h2.85a.64.64,0,0,0,.64-.64A.64.64,0,0,0,305.52,12.65Z"/><path class="cls-5" d="M317.91,17.75a.64.64,0,0,1-.64.64h-1.82a.64.64,0,1,1,0-1.28h1.82A.64.64,0,0,1,317.91,17.75Zm-5,0a.64.64,0,0,1-.64.64h-3.19a.64.64,0,1,1,0-1.28h3.19A.64.64,0,0,1,312.89,17.75Zm-6.39,0a.64.64,0,0,1-.64.64h-3.19a.64.64,0,0,1,0-1.28h3.19A.64.64,0,0,1,306.5,17.75Z"/><path class="cls-12" d="M69.8,16.85l.1,0,0,0Z"/><path class="cls-1" d="M42.87,151.83a.43.43,0,0,1,.59-.2,1.21,1.21,0,0,0,1.27.19,1.17,1.17,0,0,0,.44-1.59c-.39-.67-1.11-.59-1.69-.23a.42.42,0,0,1-.61-.18v-2.67H40.24a.41.41,0,0,1-.22-.61c.36-.58.45-1.3-.22-1.7a1.18,1.18,0,0,0-1.6.44,1.23,1.23,0,0,0,.19,1.27.41.41,0,0,1-.22.6h-2.6v2.5a.42.42,0,0,1-.65.35c-.58-.36-1.29-.44-1.69.23a1.17,1.17,0,0,0,.44,1.59,1.21,1.21,0,0,0,1.27-.19.43.43,0,0,1,.63.37v2.46h2.56a.42.42,0,0,0,.25-.61,1.23,1.23,0,0,1-.19-1.27,1.17,1.17,0,0,1,1.6-.44c.67.39.59,1.11.22,1.69a.42.42,0,0,0,.26.63h2.6Z"/><path class="cls-5" d="M30.45,147.15a.42.42,0,0,1-.19-.59,1.25,1.25,0,0,0,.19-1.27,1.18,1.18,0,0,0-1.6-.44c-.67.39-.59,1.11-.22,1.69a.43.43,0,0,1-.19.61H25.78v2.63a.42.42,0,0,1-.62.22c-.58-.36-1.3-.45-1.69.23a1.17,1.17,0,0,0,.44,1.59,1.21,1.21,0,0,0,1.26-.19.43.43,0,0,1,.61.22v2.6h2.66a.43.43,0,0,0,.19-.61c-.37-.58-.45-1.3.22-1.69a1.18,1.18,0,0,1,1.6.44,1.23,1.23,0,0,1-.19,1.26.43.43,0,0,0,.19.6h2.63v-2.56a.39.39,0,0,0-.61-.25c-.41.22-.78.42-1.24.18a1.18,1.18,0,0,1-.47-1.59c.4-.67,1.11-.58,1.7-.22a.42.42,0,0,0,.62-.26v-2.6Z"/><path class="cls-1" d="M326.45,194.77a.42.42,0,0,1,.59-.19,1.23,1.23,0,0,0,1.27.18,1.17,1.17,0,0,0,.44-1.59c-.4-.67-1.11-.59-1.69-.23a.42.42,0,0,1-.61-.18v-2.67h-2.63a.41.41,0,0,1-.22-.61,1.13,1.13,0,0,0-.23-1.7,1.17,1.17,0,0,0-1.59.45,1.2,1.2,0,0,0,.19,1.26.42.42,0,0,1-.22.6h-2.61v2.5a.41.41,0,0,1-.64.35c-.58-.36-1.3-.44-1.69.23a1.16,1.16,0,0,0,.44,1.59,1.23,1.23,0,0,0,1.27-.18.41.41,0,0,1,.62.36v2.46h2.56a.42.42,0,0,0,.26-.61,1.23,1.23,0,0,1-.19-1.27,1.17,1.17,0,0,1,1.59-.44c.67.39.59,1.11.23,1.69a.42.42,0,0,0,.25.63h2.61Z"/><path class="cls-5" d="M314,190.09a.42.42,0,0,1-.19-.59,1.23,1.23,0,0,0,.18-1.27,1.17,1.17,0,0,0-1.59-.44c-.67.39-.59,1.11-.23,1.69a.42.42,0,0,1-.18.61h-2.67v2.63a.41.41,0,0,1-.61.22c-.58-.36-1.3-.45-1.7.23a1.17,1.17,0,0,0,.44,1.59,1.23,1.23,0,0,0,1.27-.19.42.42,0,0,1,.6.22v2.61H312a.42.42,0,0,0,.18-.61c-.36-.58-.44-1.3.23-1.69a1.17,1.17,0,0,1,1.59.44,1.21,1.21,0,0,1-.19,1.27.43.43,0,0,0,.2.59h2.63v-2.56a.39.39,0,0,0-.61-.26c-.42.22-.78.42-1.24.18a1.17,1.17,0,0,1-.47-1.58c.39-.68,1.11-.59,1.69-.23a.43.43,0,0,0,.63-.25v-2.61Z"/><path class="cls-1" d="M172.08,21.14a.42.42,0,0,1,.59-.19,1.23,1.23,0,0,0,1.27.18,1.17,1.17,0,0,0,.44-1.59c-.4-.67-1.11-.59-1.69-.23a.42.42,0,0,1-.61-.18V16.46h-2.63a.41.41,0,0,1-.22-.61,1.13,1.13,0,0,0-.23-1.7,1.17,1.17,0,0,0-1.59.45,1.2,1.2,0,0,0,.19,1.26.42.42,0,0,1-.22.6h-2.61V19a.41.41,0,0,1-.64.35c-.58-.36-1.3-.44-1.69.23a1.16,1.16,0,0,0,.44,1.59,1.23,1.23,0,0,0,1.27-.18.41.41,0,0,1,.62.36v2.46h2.56a.42.42,0,0,0,.26-.61,1.21,1.21,0,0,1-.19-1.27,1.17,1.17,0,0,1,1.59-.44c.67.39.59,1.11.23,1.69a.42.42,0,0,0,.25.63h2.61Z"/><path class="cls-5" d="M159.66,16.46a.42.42,0,0,1-.19-.59,1.23,1.23,0,0,0,.18-1.27,1.17,1.17,0,0,0-1.59-.44c-.67.39-.59,1.11-.23,1.69a.42.42,0,0,1-.18.61H155v2.63a.41.41,0,0,1-.61.22c-.58-.36-1.3-.45-1.7.23a1.17,1.17,0,0,0,.44,1.59,1.23,1.23,0,0,0,1.27-.19.42.42,0,0,1,.6.22v2.61h2.67a.42.42,0,0,0,.18-.61c-.36-.58-.44-1.3.23-1.69a1.17,1.17,0,0,1,1.59.44,1.21,1.21,0,0,1-.19,1.27.43.43,0,0,0,.2.59h2.63V21.21a.39.39,0,0,0-.61-.26c-.42.23-.78.42-1.24.18a1.17,1.17,0,0,1-.47-1.58c.39-.68,1.11-.59,1.69-.23a.43.43,0,0,0,.63-.25V16.46Z"/></g></svg>