<svg id="Layer_1" data-name="Layer 1" xmlns="http://www.w3.org/2000/svg" viewBox="0 0 357.26 363.47"><defs><style>.cls-1,.cls-15,.cls-3,.cls-37,.cls-4{fill:#fff;}.cls-1,.cls-2,.cls-43{opacity:0.2;}.cls-4{opacity:0.8;}.cls-10,.cls-28,.cls-36,.cls-5{fill:#1d1d1b;}.cls-28,.cls-5,.cls-9{opacity:0.4;}.cls-6{fill:#f2f2f2;}.cls-7{fill:#e13c2b;}.cls-8{fill:#038a99;}.cls-11{fill:#ffd301;}.cls-12{fill:#f2412e;}.cls-13{fill:#ffc184;}.cls-14{fill:#ffce97;}.cls-15,.cls-28{fill-rule:evenodd;}.cls-16{fill:#f8bf83;}.cls-17{fill:#404040;}.cls-18{fill:#c4c4c4;}.cls-19{fill:#b12624;}.cls-20{fill:#ce3c35;}.cls-21{fill:#ffd299;}.cls-22{fill:#4a4a49;}.cls-23{fill:#555;}.cls-24{fill:#dadada;}.cls-25{fill:#ed4e3a;}.cls-26{fill:#0593a1;}.cls-27{fill:#ffed00;}.cls-29{fill:#ededed;}.cls-30{fill:#c6c6c6;}.cls-31{fill:#b6312f;}.cls-32{fill:#ffe80a;}.cls-33{fill:#df4937;}.cls-34{fill:#b2b2b2;}.cls-35{fill:#c9a341;}.cls-36{opacity:0.1;}.cls-37{opacity:0.5;}.cls-38{fill:#575756;}.cls-39{fill:#f6f6f6;}.cls-40{fill:#193ff9;}.cls-41{fill:#e8e8e8;}.cls-42{fill:#454444;}</style></defs><title>IT Infra helpdesk soluction</title><path class="cls-1" d="M86.08,17V16.9a1.15,1.15,0,0,0,0-.19l.82-.47-.42-1-.91.24a1.49,1.49,0,0,0-.12-.14l-.08-.08-.14-.12.24-.91-1-.42-.47.82h-.48L83,13.82l-1,.42.24.91-.14.12-.07.07h0l-.12.14L81,15.25l-.41,1,.81.47c0,.06,0,.13,0,.19V17c0,.07,0,.13,0,.19l-.81.47.41,1,.91-.24.12.13.08.08.14.13-.24.91,1,.41.47-.81H84l.48.81,1-.41-.24-.91.14-.13a.6.6,0,0,0,.08-.08.75.75,0,0,0,.12-.14l.91.25.41-1-.81-.47A1.15,1.15,0,0,0,86.08,17Zm-2.33.81a.86.86,0,0,1,0-1.72.86.86,0,0,1,0,1.72Z"/><g class="cls-2"><path class="cls-3" d="M335.93,222.34h0a2.25,2.25,0,0,0-2.43,1.63,24.27,24.27,0,0,1-3.37,7.6c.1,0,1.89-1.84,4-1.85h1.69c.58-1.68,1.1-3.36,1.54-5A1.77,1.77,0,0,0,335.93,222.34Z"/><path class="cls-3" d="M346.29,236.29v0a1.92,1.92,0,0,0-1.92-1.91h-.25a1.91,1.91,0,0,0,1.91-1.91v0a1.92,1.92,0,0,0-1.91-1.91h-9.51a5.62,5.62,0,0,0-4.75,2.61h-6.42v9.8h6.42a5.62,5.62,0,0,0,4.75,2.61h8.44a1.7,1.7,0,0,0,1.7-1.7v0a1.7,1.7,0,0,0-1.7-1.7h1.22a1.92,1.92,0,0,0,1.91-1.91v0a1.91,1.91,0,0,0-1.91-1.91h.1A1.92,1.92,0,0,0,346.29,236.29Z"/></g><g class="cls-2"><path class="cls-3" d="M248.81,312.87h0a2.25,2.25,0,0,0-2.43,1.63,24.27,24.27,0,0,1-3.37,7.6c.1,0,1.89-1.85,4-1.85h1.68c.59-1.68,1.1-3.37,1.54-5A1.77,1.77,0,0,0,248.81,312.87Z"/><path class="cls-3" d="M259.17,326.82v0a1.92,1.92,0,0,0-1.91-1.91H257a1.91,1.91,0,0,0,1.91-1.91v0A1.9,1.9,0,0,0,257,321h-9.51a5.62,5.62,0,0,0-4.75,2.61h-6.42v9.8h6.42a5.64,5.64,0,0,0,4.75,2.61h8.44a1.7,1.7,0,0,0,1.7-1.7v0a1.7,1.7,0,0,0-1.7-1.69h1.22a1.91,1.91,0,0,0,1.91-1.92v0a1.91,1.91,0,0,0-1.91-1.91h.11A1.91,1.91,0,0,0,259.17,326.82Z"/></g><path class="cls-4" d="M59,176.9h-.09a.52.52,0,0,1-.43-.61c.38-2.06.81-4.15,1.28-6.21a.51.51,0,0,1,.63-.4.53.53,0,0,1,.4.63c-.47,2-.89,4.12-1.27,6.17A.52.52,0,0,1,59,176.9Zm2.79-12.33-.14,0a.53.53,0,0,1-.37-.65c.54-2,1.14-4.07,1.78-6.09a.52.52,0,0,1,.66-.34.53.53,0,0,1,.34.66c-.63,2-1.22,4-1.76,6.05A.54.54,0,0,1,61.74,164.57Zm3.79-12.07a.57.57,0,0,1-.18,0,.52.52,0,0,1-.32-.67c.71-2,1.48-4,2.27-5.93a.53.53,0,0,1,1,.4c-.79,1.94-1.55,3.92-2.26,5.89A.53.53,0,0,1,65.53,152.5Zm4.77-11.7a.54.54,0,0,1-.21-.05.53.53,0,0,1-.27-.7c.87-1.89,1.8-3.82,2.77-5.72a.52.52,0,1,1,.93.48c-1,1.89-1.88,3.8-2.74,5.68A.53.53,0,0,1,70.3,140.8Z"/><path class="cls-4" d="M181.28,315.44h-1.73a.54.54,0,0,1-.53-.54.52.52,0,0,1,.53-.52h1.73c1.53,0,3.06,0,4.59-.05a.54.54,0,0,1,.53.51.51.51,0,0,1-.51.54C184.35,315.43,182.81,315.44,181.28,315.44Zm-8.05-.13h0c-2.12-.06-4.23-.16-6.34-.28a.53.53,0,0,1-.49-.56.53.53,0,0,1,.56-.5c2.09.13,4.2.22,6.3.29a.53.53,0,0,1,0,1.05Zm19-.15a.53.53,0,0,1,0-1.05c2.12-.11,4.23-.25,6.3-.41a.52.52,0,0,1,.57.48.54.54,0,0,1-.49.57c-2.07.16-4.2.3-6.32.41Zm-31.6-.6h0c-2.12-.19-4.25-.41-6.31-.66a.54.54,0,0,1-.46-.59.52.52,0,0,1,.59-.46c2,.25,4.16.47,6.27.66a.53.53,0,0,1,0,1.05Zm44.2-.42a.53.53,0,0,1-.06-1.05c2.09-.24,4.2-.51,6.26-.81a.52.52,0,0,1,.6.44.53.53,0,0,1-.45.6c-2.07.3-4.19.58-6.29.81ZM148,313.05H148c-2.14-.33-4.25-.7-6.25-1.09a.52.52,0,0,1-.42-.61.51.51,0,0,1,.62-.42c2,.39,4.08.75,6.21,1.08a.52.52,0,0,1,.44.6A.53.53,0,0,1,148,313.05Zm69.29-.74a.52.52,0,0,1-.09-1c2.09-.38,4.17-.79,6.18-1.22a.53.53,0,1,1,.22,1c-2,.43-4.11.85-6.22,1.23Zm-81.71-1.66h-.12c-2.08-.49-4.15-1-6.15-1.57a.52.52,0,0,1-.36-.65.53.53,0,0,1,.65-.37c2,.55,4,1.08,6.1,1.56a.53.53,0,0,1-.12,1Zm94.07-1a.52.52,0,0,1-.51-.4.53.53,0,0,1,.38-.64c2.06-.52,4.1-1.08,6.08-1.67a.53.53,0,0,1,.3,1c-2,.58-4.05,1.14-6.12,1.67Zm-106.24-2.4a.51.51,0,0,1-.17,0c-2-.67-4-1.39-6-2.14a.53.53,0,0,1,.38-1c1.92.74,3.91,1.45,5.93,2.12a.52.52,0,0,1,.34.66A.53.53,0,0,1,123.44,307.25Zm118.37-1.18a.53.53,0,0,1-.5-.36.53.53,0,0,1,.33-.67c2-.67,4-1.39,5.93-2.14a.52.52,0,1,1,.37,1c-1.93.75-3.94,1.48-6,2.16Zm-130.16-3.39a.54.54,0,0,1-.22,0c-2-.88-3.88-1.82-5.72-2.78a.53.53,0,0,1,.49-.93c1.82.95,3.73,1.88,5.66,2.75a.52.52,0,0,1,.26.69A.5.5,0,0,1,111.65,302.68Zm142-1.17a.53.53,0,0,1-.21-1c1.91-.84,3.83-1.73,5.71-2.66a.51.51,0,0,1,.7.23.53.53,0,0,1-.23.71c-1.9.94-3.83,1.84-5.76,2.68A.54.54,0,0,1,253.6,301.51Zm-153.15-4.69a.6.6,0,0,1-.28-.08c-1.82-1.11-3.62-2.28-5.32-3.47a.54.54,0,0,1-.13-.74.55.55,0,0,1,.74-.13c1.68,1.19,3.45,2.34,5.26,3.44a.53.53,0,0,1,.18.73A.54.54,0,0,1,100.45,296.82Zm164.47-.93a.54.54,0,0,1-.46-.27.53.53,0,0,1,.21-.72c1.85-1,3.67-2.12,5.41-3.22a.53.53,0,0,1,.56.89c-1.75,1.11-3.59,2.2-5.46,3.25A.48.48,0,0,1,264.92,295.89ZM90.11,289.55a.55.55,0,0,1-.33-.11c-1.66-1.35-3.27-2.76-4.78-4.2a.51.51,0,0,1,0-.74.53.53,0,0,1,.75,0c1.5,1.42,3.09,2.81,4.72,4.14a.52.52,0,0,1,.08.74A.53.53,0,0,1,90.11,289.55Zm185.49-.42a.55.55,0,0,1-.43-.22.54.54,0,0,1,.13-.74c1.7-1.21,3.39-2.49,5-3.8a.53.53,0,0,1,.74.08.52.52,0,0,1-.08.74c-1.63,1.32-3.34,2.62-5.06,3.84A.5.5,0,0,1,275.6,289.13Z"/><path class="cls-4" d="M312.87,236l-.14,0a.52.52,0,0,1-.37-.64c.14-.53.28-1.06.41-1.59a.52.52,0,0,1,.64-.39.53.53,0,0,1,.38.64c-.13.54-.27,1.08-.41,1.61A.54.54,0,0,1,312.87,236Zm1.77-7.78h-.1a.52.52,0,0,1-.42-.61c.38-2,.71-4.12,1-6.22a.53.53,0,0,1,.59-.45.54.54,0,0,1,.46.59c-.28,2.12-.62,4.23-1,6.27A.53.53,0,0,1,314.64,228.22Zm1.64-12.54h0a.51.51,0,0,1-.48-.56c.15-2.06.26-4.18.32-6.29a.57.57,0,0,1,.54-.52.53.53,0,0,1,.51.55c-.05,2.12-.16,4.26-.32,6.34A.53.53,0,0,1,316.28,215.68Z"/><path class="cls-4" d="M225.81,68.37a.58.58,0,0,1-.19,0c-2.19-.82-4.13-1.5-5.94-2.09a.53.53,0,0,1-.34-.67.53.53,0,0,1,.67-.34c1.82.6,3.78,1.29,6,2.11a.54.54,0,0,1,.31.68A.53.53,0,0,1,225.81,68.37Zm-12-3.88-.13,0c-2.07-.53-4.07-1-6.14-1.33a.53.53,0,0,1-.42-.61.52.52,0,0,1,.61-.43c2.09.37,4.12.81,6.21,1.35a.53.53,0,0,1-.13,1Zm-12.43-2.22h-.06c-2-.2-4.11-.35-6.27-.44a.53.53,0,0,1-.51-.54.55.55,0,0,1,.55-.51c2.18.09,4.31.24,6.34.44a.53.53,0,0,1-.05,1.05Z"/><path class="cls-4" d="M107.61,91.2a.53.53,0,0,1-.34-.93c1.56-1.32,3.24-2.65,5-4a.54.54,0,0,1,.74.11.51.51,0,0,1-.11.73c-1.72,1.29-3.38,2.61-4.93,3.92A.54.54,0,0,1,107.61,91.2Zm10.12-7.59a.53.53,0,0,1-.29-1c1.7-1.14,3.49-2.3,5.33-3.43a.53.53,0,1,1,.56.9c-1.83,1.12-3.61,2.27-5.3,3.41A.58.58,0,0,1,117.73,83.61ZM128.51,77a.52.52,0,0,1-.46-.27.52.52,0,0,1,.2-.72c1.84-1,3.72-2,5.59-3a.53.53,0,0,1,.71.23.53.53,0,0,1-.22.71c-1.86,1-3.73,2-5.57,3A.47.47,0,0,1,128.51,77Zm11.26-5.76a.5.5,0,0,1-.47-.3.52.52,0,0,1,.25-.7c2-.91,3.92-1.77,5.82-2.55a.53.53,0,1,1,.4,1c-1.88.77-3.82,1.62-5.77,2.52A.64.64,0,0,1,139.77,71.23Zm11.7-4.81a.51.51,0,0,1-.49-.35.52.52,0,0,1,.32-.67c1.31-.47,2.61-.9,3.88-1.3a.52.52,0,0,1,.32,1c-1.26.4-2.55.83-3.85,1.29A.57.57,0,0,1,151.47,66.42Z"/><path class="cls-5" d="M216.55,312.3a12.45,12.45,0,0,0-12.45-12.46l-.27,0a19,19,0,0,0-28.92,0l-.27,0A12.44,12.44,0,0,0,163,316.64a19,19,0,0,0-14.26,6.64h-.27a12.45,12.45,0,0,0-5,23.85l-6.58,16.35,15.59-12a19.06,19.06,0,0,0,25.17-3.36h.27a12.44,12.44,0,0,0,11.66-16.8,19,19,0,0,0,10.51-3.27l15.59,11.95-6.58-16.35A12.44,12.44,0,0,0,216.55,312.3Z"/><path class="cls-6" d="M206.32,321a12.45,12.45,0,0,0-5-23.86h-.27a19,19,0,0,0-28.92,0h-.27a12.46,12.46,0,0,0,0,24.91l.27,0a19,19,0,0,0,25.17,3.37l15.59,12Z"/><path class="cls-3" d="M140.69,344.42a12.45,12.45,0,0,1,5-23.86l.27,0a19,19,0,0,1,28.92,0l.27,0a12.46,12.46,0,0,1,0,24.91h-.27a19.06,19.06,0,0,1-25.17,3.36l-15.59,11.95Z"/><path class="cls-7" d="M175.15,315.17h3.17v3.17h-3.17Z"/><path class="cls-7" d="M180.76,315.17h3.17v3.17h-3.17Z"/><path class="cls-7" d="M186.37,315.17h3.17v3.17h-3.17Z"/><path class="cls-7" d="M198,304.29c0,3.32-3,3.63-3,6.55v2.35h-3.17v-1.75c0-4.21,3-5.17,3-7.23a1.39,1.39,0,0,0-1.45-1.39c-.76,0-1.42.71-1.42,1.95v.71h-3.17v-1.19c0-2.41,1.9-4,4.59-4S198,301.85,198,304.29Zm-6.21,10.88H195v3.17h-3.17Z"/><path class="cls-8" d="M150.41,338.4h3.17v3.17h-3.17Z"/><path class="cls-8" d="M156,338.4h3.17v3.17H156Z"/><path class="cls-8" d="M161.63,338.4h3.17v3.17h-3.17Z"/><path class="cls-8" d="M170.4,323.82v12.6h-3.17v-12.6Zm-3.17,14.58h3.17v3.17h-3.17Z"/><g class="cls-9"><path class="cls-10" d="M273.88,77l.19.08a15.07,15.07,0,0,0,19.24-7.35c.12-.24.23-.48.34-.73a15.08,15.08,0,1,0-19.77,8Z"/><path class="cls-10" d="M241.72,63.41l.2.07a15.07,15.07,0,0,0,19.24-7.34c.12-.24.23-.48.33-.73a15.08,15.08,0,1,0-19.77,8Z"/><path class="cls-10" d="M249.43,82.62c-.07-1.09-.13-2.19-.23-3.27a3.09,3.09,0,0,0-3.51-2.84h-.06a3.31,3.31,0,0,0-2.84,3.54,96.43,96.43,0,0,1-.12,18.9,8.6,8.6,0,0,0-.19,2.31,3.3,3.3,0,0,0,.09,1,8.56,8.56,0,0,0,1,2.93l-5,11.84c.48.2.95.39,1.44.56a52.87,52.87,0,0,0,14.58,3.28l4-9.33a8.64,8.64,0,0,0,5.84-5l2.35-5.53.42-1,1.58-3.74.05-.12,3.13-7.39a2.61,2.61,0,0,0-1.38-3.43l-.05,0a2.62,2.62,0,0,0-3.43,1.39l.53-1.25a2.93,2.93,0,0,0-1.56-3.86l-.05,0a2.93,2.93,0,0,0-3.86,1.56l.69-1.64a2.93,2.93,0,0,0-1.56-3.85l0,0a3,3,0,0,0-3.86,1.56l5-11.82a3,3,0,0,0-1.56-3.86l-.06,0A2.93,2.93,0,0,0,256.9,65Z"/></g><path class="cls-11" d="M292.15,65.48c-.1.24-.21.49-.33.72a15.07,15.07,0,0,1-19.24,7.35l-.2-.08a15.08,15.08,0,1,1,19.77-8Z"/><path class="cls-12" d="M260,51.84c-.11.25-.22.49-.34.73a15.07,15.07,0,0,1-19.24,7.34l-.19-.08a15.08,15.08,0,1,1,19.77-8Z"/><rect class="cls-13" x="238.65" y="70.6" width="29.69" height="5.95" rx="2.94" transform="translate(86.79 278.22) rotate(-67.02)"/><rect class="cls-13" x="248.03" y="78.83" width="16.85" height="5.95" rx="2.94" transform="translate(81.02 285.97) rotate(-67.02)"/><path class="cls-13" d="M243.78,101h-.07A3.09,3.09,0,0,1,241,97.29a97.48,97.48,0,0,0,.3-20.8A3.3,3.3,0,0,1,244.13,73h.07a3.08,3.08,0,0,1,3.5,2.84,102.91,102.91,0,0,1-.18,21.82A3.72,3.72,0,0,1,243.78,101Z"/><rect class="cls-13" x="254.05" y="81.97" width="15.08" height="5.95" rx="2.94" transform="translate(81.26 292.6) rotate(-67.02)"/><rect class="cls-13" x="259.73" y="85.27" width="13.39" height="5.28" rx="2.61" transform="translate(81.47 298.86) rotate(-67.02)"/><path class="cls-14" d="M251.56,107.54l-5.34-2.27a8.65,8.65,0,0,1-4.59-11.35l2.77-6.52,21.28,9L262.91,103A8.65,8.65,0,0,1,251.56,107.54Z"/><path class="cls-14" d="M259.19,102.94l-6.08,14.32A53,53,0,0,1,238.53,114c-.49-.17-1-.36-1.44-.56l7.13-16.83Z"/><path class="cls-14" d="M265.26,97.42l2.05-4.85a2.61,2.61,0,0,0-1.38-3.43l-.05,0a2.62,2.62,0,0,0-3.43,1.39l.38-.89a2.94,2.94,0,0,0-1.56-3.85l-.06,0a3,3,0,0,0-3.86,1.56l.35-.81a2.94,2.94,0,0,0-1.56-3.86l-.06,0a2.93,2.93,0,0,0-3.85,1.56,3,3,0,0,0-1.56-3.86l-.06,0a3,3,0,0,0-3.86,1.56L244,88.39Z"/><path class="cls-15" d="M246.1,42a1.77,1.77,0,0,1-2.32.94h0a1.77,1.77,0,0,1-.94-2.32l1.1-2.61a1.79,1.79,0,0,1,2.33-.94h0a1.76,1.76,0,0,1,.93,2.32Z"/><path class="cls-15" d="M252.21,44.62a1.77,1.77,0,0,1-2.32.94h0a1.77,1.77,0,0,1-.94-2.32l1.11-2.61a1.77,1.77,0,0,1,2.32-.94h0a1.77,1.77,0,0,1,.94,2.32Z"/><path class="cls-15" d="M278.11,52.14a1.77,1.77,0,0,1,.94,2.32h0a1.76,1.76,0,0,1-2.32.94l-2.61-1.1a1.77,1.77,0,0,1-.94-2.32h0A1.77,1.77,0,0,1,275.5,51Z"/><path class="cls-15" d="M286.34,55.63a1.79,1.79,0,0,1,.94,2.33h0a1.76,1.76,0,0,1-2.32.93l-2.61-1.1a1.77,1.77,0,0,1-.94-2.32h0a1.77,1.77,0,0,1,2.32-.94Z"/><path class="cls-15" d="M252,56.68A1.82,1.82,0,0,1,249.8,56a13.87,13.87,0,0,0-13.44-5.7,1.83,1.83,0,0,1-2.06-1.1h0c-.24-.8.47-1.72,1.6-1.89a16.89,16.89,0,0,1,16.37,6.94,1.66,1.66,0,0,1-.25,2.46Z"/><path class="cls-15" d="M268.16,58.79a1.82,1.82,0,0,1,2.22.71,13.88,13.88,0,0,0,13.44,5.7,1.81,1.81,0,0,1,2.05,1.1h0c.25.8-.46,1.72-1.59,1.89a16.91,16.91,0,0,1-16.37-6.94,1.66,1.66,0,0,1,.25-2.46Z"/><g class="cls-2"><polygon class="cls-10" points="5.82 132.49 5.83 132.49 20.3 146.96 21.55 148.21 21.78 148.44 23.38 150.04 23.47 150.14 24.63 151.29 25.76 152.42 26.99 151.2 26.08 150.3 26.08 150.3 25.85 150.07 25.96 150.18 25.85 150.07 24.6 148.82 23 147.22 23 147.22 22.77 146.99 21.75 145.97 21.75 145.97 21.52 145.74 7.05 131.26 7.05 131.26 5.79 129.02 3.47 127.68 2.23 128.91 3.58 131.23 5.82 132.49"/><path class="cls-10" d="M25.28,148.61l1,1,.24.23,9.79-9.8a2.88,2.88,0,0,1,2.36-.77,6.34,6.34,0,0,0,7.26-5.24V134a3.88,3.88,0,0,0,.14-.84.54.54,0,0,0-.23-.5.5.5,0,0,0-.49,0L41.24,135a.54.54,0,0,1-.47,0,6.86,6.86,0,0,1-2.3-4.07.59.59,0,0,1,.18-.43l4-2.23a.54.54,0,0,0,0-.92c-2.48-1.32-5.83-.86-7.28.38a7.08,7.08,0,0,0-2.23,5.44,2.45,2.45,0,0,1,0,.27,2.77,2.77,0,0,1-.79,2l-2.41,2.41-7.75,7.75,1,1,.24.23,9-9a1.29,1.29,0,0,1,1.83,0,1.3,1.3,0,0,1,0,1.83Z"/><path class="cls-10" d="M.72,165.37l4.13-2.32a.56.56,0,0,1,.46,0,6.79,6.79,0,0,1,2.31,4.08.57.57,0,0,1-.18.42l-4,2.23a.56.56,0,0,0,0,.93c2.49,1.32,5.83.86,7.28-.38A7,7,0,0,0,13,164.91a2.53,2.53,0,0,1,0-.27,2.75,2.75,0,0,1,.79-2l2.4-2.41L24.42,152l-.23-.23-1-1-9.51,9.52a1.3,1.3,0,0,1-1.83,0,1.29,1.29,0,0,1,0-1.83l9.51-9.52-.23-.23-1-1L9.76,158a2.9,2.9,0,0,1-2.34.77A6.34,6.34,0,0,0,.15,164V164a4.36,4.36,0,0,0-.14.83.55.55,0,0,0,.23.51A.47.47,0,0,0,.72,165.37Z"/><path class="cls-10" d="M41.65,172.58a5.92,5.92,0,0,0,5.49-5.49,1,1,0,0,0-.27-.74l-1-1-5.18,6.72.18.19A1,1,0,0,0,41.65,172.58Z"/><polygon class="cls-10" points="25.38 155.79 27.8 159.19 27.81 159.19 33.76 153.24 31.88 151.91 30.35 150.82 30.34 150.82 25.39 155.78 25.38 155.79"/><polygon class="cls-10" points="25.64 153.29 26.34 154 26.34 154 28.56 151.78 28.56 151.78 27.85 151.08 27.36 151.57 26.13 152.79 25.64 153.29"/><polygon class="cls-10" points="35.54 155.02 34.3 153.78 29.12 160.5 30.36 161.75 35.54 155.02"/><polygon class="cls-10" points="37.87 157.35 36.63 156.11 31.45 162.83 32.68 164.07 37.87 157.35"/><polygon class="cls-10" points="33.77 165.16 35.01 166.4 40.2 159.68 38.95 158.43 33.77 165.16"/><polygon class="cls-10" points="42.52 162 41.28 160.76 36.1 167.49 37.34 168.73 42.52 162"/><polygon class="cls-10" points="44.85 164.33 43.61 163.09 38.42 169.81 39.67 171.06 44.85 164.33"/><path class="cls-10" d="M20.17,122.88c1.55-1.84,2.24-2.36,2.24-4.62s-1.82-3.68-4.34-3.68-4.26,1.49-4.26,3.68v1.15h2.94v-.68c0-1.15.62-1.79,1.32-1.79a1.31,1.31,0,0,1,1.35,1.3,2.76,2.76,0,0,1-.88,2l-2.94,3.37a8.9,8.9,0,0,0-2.24,5.58c0,1.75.31,2.08.31,2.08h8.38v-2.36H16.66a3.75,3.75,0,0,1,0-.42A5,5,0,0,1,18.12,125C19.49,123.56,20.17,122.88,20.17,122.88Z"/><path class="cls-10" d="M30.65,131.29v-3.82h2.08v-2.19H30.65V114.8H27.71l-5,10.34,0,2.33h5v3.82Zm-5.77-6,2.83-5.75v5.75Z"/></g><path class="cls-1" d="M152.88,94.29v-.37c0-.21,0-.4,0-.59l2.62-1.52-1.32-3.2-2.93.78-.39-.44c-.08-.09-.17-.17-.26-.26l-.45-.4.78-2.92L147.69,84l-1.52,2.62-.59,0h-.37a5.6,5.6,0,0,0-.6,0L143.1,84l-3.21,1.33.78,2.92c-.14.11-.28.25-.44.4a2.5,2.5,0,0,0-.23.23l0,0c-.15.15-.27.3-.4.44l-2.92-.78-1.33,3.21,2.62,1.51a5.88,5.88,0,0,0,0,.6,2.28,2.28,0,0,0,0,.37,5.41,5.41,0,0,0,0,.59l-2.62,1.52,1.33,3.2,2.92-.78c.12.14.25.29.4.44a3.19,3.19,0,0,0,.26.26c.15.14.29.27.45.4l-.79,2.92,3.21,1.33,1.51-2.62c.19,0,.39,0,.62,0h.35a5.41,5.41,0,0,0,.59,0l1.52,2.62,3.2-1.33-.78-2.92a5.31,5.31,0,0,0,.44-.4l.27-.26c.15-.16.28-.3.39-.44l2.92.78,1.33-3.21-2.62-1.51C152.86,94.7,152.87,94.51,152.88,94.29Zm-7.49,2.59a2.77,2.77,0,1,1,2.77-2.77A2.76,2.76,0,0,1,145.39,96.88Z"/><path class="cls-16" d="M198.38,224.92l.08-9.51c-4.56,5.2-8.31,6.45-16.87,6.37h-.3c-8.56-.07-12.27-1.39-16.75-6.66l-.08,9.51L181.28,241Z"/><path class="cls-17" d="M156.87,249.71l-9,.71-3.68-15.62h0l-14.56,3.59a20.92,20.92,0,0,0-14.56,19.76l-.21,23.56,5.39,0,15.58.14,4.35,0,25.53.22L149.4,255Z"/><path class="cls-17" d="M232.93,239.28l-14.51-3.84h0L214.48,251l-8.95-.86,7.38,5.38-16.82,26.9,25.53.22,4.34,0,15.59.14,5.39,0,.2-23.56A20.93,20.93,0,0,0,232.93,239.28Z"/><polygon class="cls-6" points="169.89 250.61 166.24 246.7 174.38 275.22 176.63 252.38 175.93 245.5 169.89 250.61"/><polygon class="cls-6" points="186.55 245.59 185.72 252.45 187.58 275.33 196.22 246.96 192.5 250.8 186.55 245.59"/><polygon class="cls-18" points="166.24 246.7 169.89 250.61 175.93 245.5 181.28 240.97 164.46 224.63 160.69 227.28 166.24 246.7"/><polygon class="cls-18" points="186.55 245.59 192.5 250.8 196.22 246.96 202.1 227.63 198.38 224.93 181.28 240.97 186.55 245.59"/><polygon class="cls-19" points="181.28 240.97 175.93 245.5 176.63 252.38 185.72 252.45 186.55 245.59 181.28 240.97"/><polygon class="cls-20" points="185.72 252.45 176.63 252.38 174.38 275.22 176.38 282.24 185.45 282.32 187.58 275.33 185.72 252.45"/><path class="cls-21" d="M181.29,221.78h.3c8.56.08,12.31-1.17,16.87-6.37a110.77,110.77,0,0,0,7-9.4c2.38-3.43,4.26-8.57,5.7-15.08a3,3,0,0,0,.53.16,3.23,3.23,0,0,0,1.78-.19c2.51-.92,3.31-4.46,4.09-9.05,1-5.65.75-10.7-2.38-11.24-1.71-.3-3.48.81-4.9,2.81l.13-15.25a12.08,12.08,0,0,0-12-12.2l-32.65-.28a12.09,12.09,0,0,0-12.2,12l-.13,15.26c-1.38-2-3.13-3.16-4.85-2.9-3.14.48-3.71,5.53-2.84,11.2.7,4.6,1.71,8.16,4.2,9.12a3.23,3.23,0,0,0,1.78.22,4.61,4.61,0,0,0,.53-.15c1.33,6.53,3.12,11.7,5.44,15.17a112.13,112.13,0,0,0,6.83,9.53C169,220.39,172.73,221.71,181.29,221.78Z"/><path class="cls-22" d="M153.45,172.93l.13-15.26a12.09,12.09,0,0,1,12.2-12l32.65.28a12.08,12.08,0,0,1,12,12.2l-.13,15.25c1.42-2,3.19-3.11,4.9-2.81l1.11-13.16a25.63,25.63,0,0,0-6.88-18.55c-6.74-7.28-13.52-9.68-27.13-9.79h-.06c-13.6-.11-20.43,2.17-27.29,9.32a25.65,25.65,0,0,0-7.21,18.44L148.6,170C150.32,169.77,152.07,170.9,153.45,172.93Z"/><polygon class="cls-23" points="205.53 250.13 214.48 251 218.43 235.44 218.43 235.44 202.1 227.63 202.1 227.63 196.22 246.96 187.58 275.33 185.45 282.32 188.15 282.34 193.28 282.39 196.09 282.41 212.91 255.51 205.53 250.13"/><polygon class="cls-23" points="166.24 246.7 160.69 227.28 160.69 227.28 144.23 234.8 144.23 234.8 147.91 250.42 156.88 249.71 149.4 254.96 165.75 282.15 168.56 282.17 173.69 282.22 176.38 282.24 174.38 275.22 166.24 246.7"/><path class="cls-22" d="M212.94,190l2.31.2c3.31.31,4.84-16.22,1.4-16.54l-2.32-.2C211.62,173.25,210.36,189.8,212.94,190Z"/><path class="cls-22" d="M214.24,181.4c-.36,2.64.83,5,2.67,5.23s3.61-1.68,4-4.32-.83-5-2.66-5.23S214.61,178.76,214.24,181.4Z"/><path class="cls-22" d="M149.06,189.45l-2.31.15c-3.32.26-4.56-16.3-1.11-16.56l2.31-.16C150.67,172.72,151.64,189.29,149.06,189.45Z"/><path class="cls-22" d="M147.91,180.82c.31,2.65-.92,5-2.76,5.19s-3.58-1.75-3.9-4.39.92-5,2.76-5.19S147.59,178.18,147.91,180.82Z"/><path class="cls-22" d="M174.35,210.52c-25.54-.22-27.68-24.61-27.7-24.86l2.54-.2c.08.94,2,22.92,26.06,22.51l0,2.55Z"/><path class="cls-22" d="M190.47,209.39a3.73,3.73,0,0,1-3.75,3.69l-8.93-.08a3.72,3.72,0,0,1-3.69-3.75h0a3.72,3.72,0,0,1,3.75-3.69l8.93.08a3.71,3.71,0,0,1,3.69,3.75Z"/><g class="cls-2"><path class="cls-3" d="M103.64,161.21h0a2.25,2.25,0,0,0-2.44,1.63,23.85,23.85,0,0,1-3.37,7.59c.1,0,1.89-1.84,4-1.85h1.68q.89-2.52,1.54-5A1.78,1.78,0,0,0,103.64,161.21Z"/><path class="cls-3" d="M114,175.17v0a1.91,1.91,0,0,0-1.91-1.91h-.26a1.91,1.91,0,0,0,1.91-1.91v0a1.91,1.91,0,0,0-1.91-1.92h-9.51A5.62,5.62,0,0,0,97.57,172H91.14v9.8h6.43a5.6,5.6,0,0,0,4.74,2.61h8.44a1.7,1.7,0,0,0,1.7-1.69v0a1.7,1.7,0,0,0-1.7-1.7H112a1.9,1.9,0,0,0,1.91-1.91v0a1.91,1.91,0,0,0-1.91-1.91h.11A1.92,1.92,0,0,0,114,175.17Z"/></g><g class="cls-2"><path class="cls-3" d="M204.2,70.72h0a2.25,2.25,0,0,0-2.44,1.63,23.88,23.88,0,0,1-3.36,7.59c.1,0,1.88-1.84,4-1.85h1.68q.88-2.52,1.55-5A1.79,1.79,0,0,0,204.2,70.72Z"/><path class="cls-3" d="M214.55,84.68v0a1.9,1.9,0,0,0-1.91-1.91h-.26a1.92,1.92,0,0,0,1.92-1.91v0a1.92,1.92,0,0,0-1.92-1.92h-9.51a5.64,5.64,0,0,0-4.74,2.61H191.7v9.8h6.43a5.61,5.61,0,0,0,4.74,2.61h8.45A1.69,1.69,0,0,0,213,92.19v0a1.7,1.7,0,0,0-1.69-1.7h1.22a1.91,1.91,0,0,0,1.91-1.91v0a1.92,1.92,0,0,0-1.91-1.91h.1A1.91,1.91,0,0,0,214.55,84.68Z"/></g><g class="cls-2"><path class="cls-3" d="M12.5,182.69h0A2.26,2.26,0,0,0,10,184.31a24,24,0,0,1-3.37,7.6c.1,0,1.89-1.84,4-1.85h1.68c.59-1.68,1.1-3.36,1.55-5A1.79,1.79,0,0,0,12.5,182.69Z"/><path class="cls-3" d="M22.85,196.64v0a1.92,1.92,0,0,0-1.91-1.91h-.26a1.9,1.9,0,0,0,1.91-1.91v0a1.91,1.91,0,0,0-1.91-1.91H11.17a5.6,5.6,0,0,0-4.74,2.61H0v9.8H6.43a5.6,5.6,0,0,0,4.74,2.61h8.44a1.7,1.7,0,0,0,1.7-1.7v0a1.7,1.7,0,0,0-1.7-1.7h1.22a1.91,1.91,0,0,0,1.91-1.91v0a1.91,1.91,0,0,0-1.91-1.92h.11A1.91,1.91,0,0,0,22.85,196.64Z"/></g><g class="cls-2"><path class="cls-3" d="M68.32,44.51h0a2.24,2.24,0,0,0-2.44,1.63,23.88,23.88,0,0,1-3.36,7.59c.1,0,1.89-1.84,4-1.85h1.68q.88-2.52,1.55-5A1.79,1.79,0,0,0,68.32,44.51Z"/><path class="cls-3" d="M78.67,58.47v0a1.9,1.9,0,0,0-1.91-1.91h-.25a1.92,1.92,0,0,0,1.91-1.92v0a1.92,1.92,0,0,0-1.91-1.92H67a5.64,5.64,0,0,0-4.74,2.61H55.82v9.8h6.43A5.61,5.61,0,0,0,67,67.67h8.45A1.7,1.7,0,0,0,77.13,66v0a1.7,1.7,0,0,0-1.69-1.7h1.22a1.91,1.91,0,0,0,1.91-1.91v0a1.92,1.92,0,0,0-1.91-1.91h.1A1.91,1.91,0,0,0,78.67,58.47Z"/></g><g class="cls-2"><path class="cls-3" d="M195.8,287.61h0a1.59,1.59,0,0,0-1.72,1.15,17,17,0,0,1-2.39,5.38,5,5,0,0,1,2.85-1.31h1.19c.42-1.19.78-2.38,1.1-3.56A1.28,1.28,0,0,0,195.8,287.61Z"/><path class="cls-3" d="M203.13,297.49v0a1.36,1.36,0,0,0-1.35-1.36h-.19a1.35,1.35,0,0,0,1.36-1.35v0a1.35,1.35,0,0,0-1.36-1.35h-6.73a4,4,0,0,0-3.36,1.85H187v6.93h4.55a4,4,0,0,0,3.36,1.85h6a1.2,1.2,0,0,0,1.2-1.2v0a1.2,1.2,0,0,0-1.2-1.2h.86a1.35,1.35,0,0,0,1.35-1.35v0a1.34,1.34,0,0,0-1.35-1.35h.08A1.36,1.36,0,0,0,203.13,297.49Z"/></g><g class="cls-2"><path class="cls-3" d="M225.06,224.84h0a2.2,2.2,0,0,0,2.36-1.58,23.17,23.17,0,0,1,3.25-7.33c-.1,0-1.83,1.77-3.89,1.78H225.2q-.85,2.44-1.5,4.87A1.72,1.72,0,0,0,225.06,224.84Z"/><path class="cls-3" d="M215.06,211.36v0a1.85,1.85,0,0,0,1.85,1.85h.25a1.84,1.84,0,0,0-1.85,1.84v0a1.85,1.85,0,0,0,1.85,1.85h9.18a5.45,5.45,0,0,0,4.59-2.52h6.2V205h-6.2a5.45,5.45,0,0,0-4.59-2.52h-8.15a1.63,1.63,0,0,0-1.64,1.64v0a1.63,1.63,0,0,0,1.64,1.64H217a1.84,1.84,0,0,0-1.84,1.85v0a1.84,1.84,0,0,0,1.84,1.84h-.1A1.85,1.85,0,0,0,215.06,211.36Z"/></g><path class="cls-1" d="M145.3,211.61v-.49c0-.29,0-.54-.05-.79l3.49-2L147,204l-3.9,1c-.15-.19-.33-.39-.52-.6l-.35-.34c-.21-.2-.4-.37-.59-.53l1-3.9-4.27-1.77-2,3.5c-.25,0-.52,0-.79-.05h-.5l-.79,0-2-3.49L128,199.71l1,3.9c-.18.15-.38.32-.59.52l-.3.31,0,.05c-.19.2-.36.39-.52.59l-3.9-1-1.77,4.27,3.5,2a7,7,0,0,0-.05.8,4,4,0,0,0,0,.49c0,.29,0,.55,0,.79l-3.49,2,1.77,4.27,3.9-1c.15.19.32.38.52.59l.35.35c.2.18.39.36.6.53L128,223l4.26,1.77,2-3.49.83.05h.46l.79-.05,2,3.49,4.27-1.76-1-3.9a7,7,0,0,0,.59-.53l.35-.35c.21-.21.37-.41.52-.59l3.9,1,1.77-4.27-3.49-2C145.28,212.16,145.29,211.9,145.3,211.61Zm-10,3.44a3.69,3.69,0,1,1,3.69-3.69A3.69,3.69,0,0,1,135.32,215.05Z"/><path class="cls-1" d="M214.17,116.75v-.42c0-.24,0-.46,0-.67l3-1.72-1.51-3.63-3.31.88a6.54,6.54,0,0,0-.45-.5l-.29-.3L211,110l.89-3.32-3.63-1.5-1.72,3-.67,0h0c-.13,0-.26,0-.38,0a4.73,4.73,0,0,0-.67,0l-1.72-3-3.63,1.5.88,3.32a6.07,6.07,0,0,0-.5.44,3.19,3.19,0,0,0-.26.26l0,0c-.16.17-.31.34-.44.5l-3.32-.88-1.5,3.63,3,1.72c0,.22,0,.44,0,.67a2.94,2.94,0,0,0,0,.42,6.71,6.71,0,0,0,0,.67l-3,1.72,1.5,3.63,3.32-.89a6.09,6.09,0,0,0,.44.51l.3.29a5.47,5.47,0,0,0,.51.45l-.89,3.31,3.63,1.5,1.72-3,.7,0h.39l.67,0,1.72,3,3.63-1.51-.89-3.31c.17-.14.34-.28.51-.45l.29-.29c.18-.19.32-.35.45-.51l3.31.89,1.5-3.63-3-1.72C214.15,117.21,214.16,117,214.17,116.75Zm-8.48,2.92a3.14,3.14,0,1,1,3.13-3.13A3.14,3.14,0,0,1,205.69,119.67Z"/><path class="cls-1" d="M271.62,228.29c0-.16,0-.33,0-.49s0-.54-.05-.79l3.5-2-1.77-4.27-3.9,1c-.16-.19-.33-.39-.53-.59s-.21-.22-.34-.35l-.6-.53,1-3.89-4.27-1.77-2,3.49c-.25,0-.52,0-.79-.05h-.49c-.28,0-.54,0-.79.05l-2-3.5-4.27,1.77,1,3.9a6.87,6.87,0,0,0-.59.53c-.11.09-.21.2-.31.3l0,0a7,7,0,0,0-.53.59l-3.89-1L248.23,225l3.49,2a6.85,6.85,0,0,0,0,.79c0,.17,0,.33,0,.49s0,.55.05.79l-3.5,2,1.77,4.27,3.9-1a6.87,6.87,0,0,0,.53.59c.11.12.22.24.34.35s.4.36.6.53l-1,3.89,4.27,1.77,2-3.49.82.05h.46c.29,0,.55,0,.79-.05l2,3.5L269,239.7l-1-3.9a7,7,0,0,0,.59-.53l.35-.34c.21-.22.38-.41.53-.6l3.89,1,1.77-4.27-3.49-2C271.6,228.84,271.61,228.58,271.62,228.29Zm-10,3.44a3.69,3.69,0,1,1,3.68-3.68A3.69,3.69,0,0,1,261.65,231.73Z"/><path class="cls-1" d="M269.08,131.47v-.37c0-.21,0-.4,0-.59l2.61-1.5-1.32-3.18-2.91.77a4.94,4.94,0,0,0-.39-.44,3.19,3.19,0,0,0-.26-.26c-.15-.15-.3-.27-.44-.39l.78-2.91-3.19-1.31-1.5,2.6-.59,0h-.37l-.59,0-1.5-2.61-3.19,1.32.78,2.91a4.94,4.94,0,0,0-.44.39,2.5,2.5,0,0,0-.23.23l0,0c-.15.15-.27.3-.39.44l-2.91-.77L251.64,129l2.61,1.5c0,.2,0,.39,0,.6v.36a5.14,5.14,0,0,0,0,.59l-2.61,1.51,1.32,3.18,2.91-.78a4.94,4.94,0,0,0,.39.44,3.19,3.19,0,0,0,.26.26c.14.14.29.27.44.4l-.78,2.9,3.19,1.32,1.5-2.6c.19,0,.38,0,.62,0h.34c.21,0,.41,0,.59,0l1.51,2.6,3.18-1.32-.78-2.9a5.31,5.31,0,0,0,.44-.4l.26-.25c.16-.17.28-.31.39-.45l2.91.78,1.32-3.18L269,132.06C269.06,131.88,269.07,131.68,269.08,131.47ZM261.65,134a2.75,2.75,0,1,1,2.74-2.74A2.75,2.75,0,0,1,261.65,134Z"/><path class="cls-1" d="M108.89,272.54c0-.12,0-.25,0-.37a5.54,5.54,0,0,0,0-.59l2.6-1.5-1.32-3.18-2.9.77c-.12-.14-.25-.29-.4-.44a3,3,0,0,0-.25-.26c-.16-.15-.31-.27-.45-.39l.78-2.91-3.18-1.31-1.51,2.6-.59,0h-.37l-.59,0-1.5-2.61L96,263.67l.77,2.91c-.14.11-.28.24-.44.39a2.39,2.39,0,0,0-.22.23l0,0-.39.44-2.9-.77-1.32,3.18,2.6,1.5a5.88,5.88,0,0,0,0,.6c0,.12,0,.24,0,.36s0,.41,0,.59l-2.6,1.51,1.31,3.18,2.91-.78a4.94,4.94,0,0,0,.39.44l.26.26a5.34,5.34,0,0,0,.44.39L96,281l3.18,1.32,1.5-2.61a5.54,5.54,0,0,0,.62,0h.34c.22,0,.41,0,.59,0l1.51,2.6,3.18-1.32-.78-2.91a3.16,3.16,0,0,0,.44-.39l.26-.26c.16-.16.28-.3.4-.44l2.9.78,1.32-3.19-2.6-1.5A5.41,5.41,0,0,0,108.89,272.54Zm-7.43,2.56a2.75,2.75,0,1,1,2.75-2.74A2.75,2.75,0,0,1,101.46,275.1Z"/><path class="cls-1" d="M152.32,296a1.5,1.5,0,0,0,0-.3,3.68,3.68,0,0,0,0-.49l2.29-1.26-1.16-2.65-2.55.64c-.11-.11-.22-.24-.35-.36a2.44,2.44,0,0,0-.23-.22q-.19-.18-.39-.33l.69-2.42-2.8-1.1-1.33,2.17-.52,0h-.32c-.19,0-.35,0-.52,0l-1.33-2.17-2.8,1.1.69,2.42a3.8,3.8,0,0,0-.39.33,1.8,1.8,0,0,0-.2.19l0,0a4,4,0,0,0-.35.37l-2.55-.65L137,293.9l2.29,1.26a3.91,3.91,0,0,0,0,.49,1.6,1.6,0,0,0,0,.31,3.79,3.79,0,0,0,0,.49L137,297.7l1.16,2.66,2.55-.65c.1.12.22.24.35.37l.23.21a3.09,3.09,0,0,0,.39.33L141,303l2.81,1.1L145.1,302a4.27,4.27,0,0,0,.54,0h.3a4.17,4.17,0,0,0,.52,0l1.33,2.17,2.8-1.1-.69-2.42a3.8,3.8,0,0,0,.39-.33l.23-.21.35-.37,2.55.65,1.16-2.66-2.29-1.25A4,4,0,0,0,152.32,296Zm-6.54,2.14a2.29,2.29,0,1,1,2.42-2.29A2.35,2.35,0,0,1,145.78,298.09Z"/><path class="cls-1" d="M222.72,47.67v-.25c0-.15,0-.28,0-.41l1.91-1-1-2.21-2.13.54-.29-.31L221,43.8a3.92,3.92,0,0,0-.33-.27l.57-2-2.33-.91-1.1,1.8-.44,0h-.27l-.43,0-1.1-1.81-2.34.92.57,2-.32.27-.17.16,0,0-.29.31-2.13-.54-1,2.21,1.9,1c0,.13,0,.27,0,.41a1,1,0,0,0,0,.25c0,.15,0,.29,0,.41l-1.91,1.05,1,2.21L213,50.8a4,4,0,0,0,.29.31l.19.18c.11.09.21.19.32.27l-.57,2,2.34.91,1.1-1.8.45,0h.25l.44,0,1.1,1.81,2.33-.92-.56-2,.32-.27.19-.18.29-.31,2.13.54,1-2.21-1.9-1.05C222.71,48,222.72,47.82,222.72,47.67Zm-5.45,1.78a1.91,1.91,0,1,1,2-1.91A2,2,0,0,1,217.27,49.45Z"/><path class="cls-24" d="M72.27,232.33,72,226.07l-7.07-2-3.45,5.23-6.07.48-4.22-4.63-6.67,3.05.72,6.22-4.34,4.27-6.21-.83-3.16,6.62,4.55,4.3-.58,6.06-5.29,3.35,1.84,7.11,6.25.37,3.45,5-1.89,6,6,4.26,5-3.73,5.86,1.62,2.39,5.79,7.31-.57,1.45-6.1,5.54-2.52,5.55,2.9,5.23-5.14-2.8-5.6L84,262.1l6.11-1.34.71-7.3L85.09,251l-1.53-5.89,3.82-5-4.15-6.05-6,1.79Zm2,12.59,2.84,11-4.88,10.23-10.31,4.7L51,267.8l-6.42-9.34,1.08-11.28,8.08-8,11.3-.89Z"/><path class="cls-24" d="M74,255.55l-4,8.39-8.46,3.86-9-2.48-5.27-7.67.9-9.25,6.63-6.52,9.27-.73,7.57,5.4Zm-6.48,5.87,3-6.21-1.73-6.66-5.6-4-6.86.55-4.9,4.82-.66,6.85,3.9,5.67,6.63,1.83Z"/><path class="cls-25" d="M72.27,232.33,72,226.07l-7.07-2-3.45,5.23-6.07.48-4.22-4.63-6.67,3.05.72,6.22-4.34,4.27-6.21-.83-3.16,6.62,4.55,4.3-.58,6.06-5.29,3.35,1.84,7.11,6.25.37,3.45,5-1.89,6,6,4.26,5-3.73,5.86,1.62,2.39,5.79,7.31-.57,1.45-6.1,5.54-2.52,5.55,2.9,5.23-5.14-2.8-5.6L84,262.1l6.11-1.34.71-7.3L85.09,251l-1.53-5.89,3.82-5-4.15-6.05-6,1.79Zm2,12.59,2.84,11-4.88,10.23-10.31,4.7L51,267.8l-6.42-9.34,1.08-11.28,8.08-8,11.3-.89Z"/><path class="cls-25" d="M74,255.55l-4,8.39-8.46,3.86-9-2.48-5.27-7.67.9-9.25,6.63-6.52,9.27-.73,7.57,5.4Zm-6.48,5.87,3-6.21-1.73-6.66-5.6-4-6.86.55-4.9,4.82-.66,6.85,3.9,5.67,6.63,1.83Z"/><path class="cls-26" d="M48,195.64l-2.59,8,3.8,7.47,8,2.59,7.47-3.8,2.59-8-3.8-7.47-8-2.59Zm15.75,6.53L62,207.59l-5.08,2.59-5.43-1.76-2.58-5.08,1.76-5.43,5.08-2.58,5.42,1.76Z"/><path class="cls-26" d="M64.87,184.77l-5-1.61-2.25-5.23-6.59.55L49.66,184,45,186.41l-5.28-2.11-4.28,5,2.94,4.87-1.61,5-5.23,2.25.55,6.59,5.52,1.36L40,214.12l-2.11,5.28,5,4.28,4.87-2.94,5,1.6,2.25,5.23,6.59-.54L63,221.51l4.69-2.41L73,221.21l4.28-5.05-2.94-4.87,1.6-5L81.15,204l-.54-6.59-5.52-1.36-2.41-4.69,2.11-5.28-5.05-4.28Zm5,16.92-3.23,9.92-9.29,4.73-9.92-3.23-4.73-9.29L46,193.9l9.3-4.73,9.92,3.23Z"/><path class="cls-27" d="M97.08,201.11l-3.88-.35L90,197.09l-4.93,1.85v4.85l-2.7,2.82-4.85.2-1.63,5,3.8,3,.52,3.86-2.87,3.91,2.9,4.41L85,225.93l3.34,2,1.28,4.68,5.25.48,2.1-4.38,3.65-1.36,4.45,1.92,3.65-3.81-2.12-4.37,1.21-3.7,4.28-2.29-.7-5.22-4.73-1.07-2.15-3.25.89-4.78-4.53-2.7Zm7.67,12.45-3,9.06L92.88,226l-8.18-4.89-1.28-9.44L90,204.75l9.5.85Z"/><path class="cls-27" d="M85.51,212.32l1,7.55,6.54,3.91,7.14-2.68,2.35-7.25-4.19-6.36-7.6-.68Zm13.3,1.94-1.4,4.31-4.24,1.59-3.88-2.32-.61-4.49,3.13-3.27,4.51.4Z"/><path class="cls-28" d="M81.57,76.23a12.26,12.26,0,0,0-3.07,7.66c0,2.39.42,2.84.42,2.84H90.43V83.5H83a5,5,0,0,1,0-.58,6.87,6.87,0,0,1,2-4.82c1.88-2,2.81-2.91,2.81-2.91C90,72.67,90.92,72,90.92,68.86s-2.49-5-6-5-5.85,2-5.85,5v1.58h4V69.5c0-1.58.84-2.45,1.81-2.45a1.78,1.78,0,0,1,1.84,1.78,3.79,3.79,0,0,1-1.2,2.77Z"/><path class="cls-28" d="M98.19,81.5v5.23h4V81.5h2.84v-3h-2.84V64.11h-4L91.3,78.3l0,3.2Zm0-10.9v7.89H94.31Z"/><path class="cls-28" d="M61.16,133.49l5.67-3.18a.72.72,0,0,1,.63,0,9.32,9.32,0,0,1,3.17,5.59.77.77,0,0,1-.25.58l-5.47,3.06a.78.78,0,0,0,0,1.28c3.41,1.8,8,1.18,10-.52a9.7,9.7,0,0,0,3-7.47c0-.13,0-.26,0-.37A3.8,3.8,0,0,1,79,129.76l3.3-3.31,12-12,1.56,1.56-.68.68,1,1h0A7.19,7.19,0,0,0,95,120.34h0L98.32,125h0l1.8,1.79h0l1.71,1.71h0l1.49,1.49,1.69,1.7h0l1.49,1.49h0l1.71,1.71,6.64,6.64a1.36,1.36,0,0,0,1,.38,8.13,8.13,0,0,0,7.53-7.53,1.38,1.38,0,0,0-.38-1l-1.32-1.32-1.7-1.7-1.49-1.49-1.7-1.71-1.49-1.48-1.7-1.7-1.49-1.49-1.7-1.7-1.5-1.5-1.7-1.7-.74-.74L103.93,115l-2.12-1.51h0a7.22,7.22,0,0,0-2.64,1.12h0l-1-1-.68.68L96,112.81l14.05-14a3.93,3.93,0,0,1,3.22-1.06c5.1.5,8.83-2.18,10-7.18l0-.11a6.13,6.13,0,0,0,.18-1.15.76.76,0,0,0-.31-.69.69.69,0,0,0-.67,0l-5.67,3.18a.75.75,0,0,1-.64,0A9.34,9.34,0,0,1,113,86.16a.76.76,0,0,1,.24-.58l5.46-3.06a.76.76,0,0,0,0-1.28c-3.41-1.8-8-1.18-10,.52a9.66,9.66,0,0,0-3.06,7.47c0,.13,0,.26,0,.37a3.8,3.8,0,0,1-1.08,2.73l-3.31,3.31L90,106.87,70.16,87h0l-1.73-3.08L65.25,82.1l-1.69,1.69L65.4,87l3.08,1.73h0l19.86,19.85L73.57,123.32a4,4,0,0,1-3.22,1.06c-5.1-.51-8.83,2.18-10,7.18l0,.11a5.24,5.24,0,0,0-.2,1.13.77.77,0,0,0,.32.71A.68.68,0,0,0,61.16,133.49Z"/><path class="cls-24" d="M120.2,85.93a.69.69,0,0,0-.67,0l-5.67,3.18a.78.78,0,0,1-.64,0,9.37,9.37,0,0,1-3.15-5.59.79.79,0,0,1,.24-.59l5.46-3.06a.75.75,0,0,0,0-1.27c-3.41-1.81-8-1.18-10,.52a9.7,9.7,0,0,0-3.06,7.47c0,.13,0,.25,0,.37a3.8,3.8,0,0,1-1.08,2.73L98.36,93,70.68,120.67a4,4,0,0,1-3.22,1.06c-5.1-.51-8.83,2.18-10,7.18l0,.11a5.13,5.13,0,0,0-.2,1.13.74.74,0,0,0,.32.7.66.66,0,0,0,.67,0L64,127.66a.7.7,0,0,1,.62,0,9.29,9.29,0,0,1,3.17,5.59.79.79,0,0,1-.25.58L62,136.92a.77.77,0,0,0,0,1.27c3.41,1.81,8,1.18,10-.52a9.67,9.67,0,0,0,3-7.46c0-.13,0-.26,0-.38a3.81,3.81,0,0,1,1.07-2.73l3.3-3.3,27.69-27.68a3.93,3.93,0,0,1,3.22-1.06c5.1.49,8.83-2.18,10-7.19l0-.1a6.13,6.13,0,0,0,.18-1.15A.76.76,0,0,0,120.2,85.93Z"/><path class="cls-29" d="M76,123.78a1.76,1.76,0,0,1-2.51,0h0a1.78,1.78,0,0,1,0-2.51L101.79,93a1.78,1.78,0,0,1,2.51,0h0a1.78,1.78,0,0,1,0,2.51Z"/><rect class="cls-30" x="78.08" y="77.01" width="2.37" height="42.07" transform="translate(-46.11 84.78) rotate(-45)"/><path class="cls-25" d="M112,138.89,95.43,122.36l-3.32-4.67A7.19,7.19,0,0,1,93.23,115h0a10.53,10.53,0,0,1,3-3v0a7.19,7.19,0,0,1,2.65-1.12l4.68,3.32,16.53,16.53a1.36,1.36,0,0,1,.38,1,8.13,8.13,0,0,1-7.53,7.53A1.33,1.33,0,0,1,112,138.89Z"/><polygon class="cls-31" points="98.92 110.88 92.1 117.69 95.43 122.37 103.6 114.2 98.92 110.88"/><polygon class="cls-29" points="60.67 81.13 62.51 84.32 65.59 86.05 67.28 84.36 65.55 81.28 62.36 79.45 60.67 81.13"/><path class="cls-24" d="M65.55,81.28a3.18,3.18,0,0,1-3,3l3.08,1.73a1.67,1.67,0,0,0,1.69-1.69Z"/><rect class="cls-31" x="92.12" y="112.36" width="4.3" height="1.37" transform="translate(-52.32 99.77) rotate(-45)"/><polygon class="cls-31" points="98.94 125.87 97.23 124.16 104.34 114.94 106.04 116.64 98.94 125.87"/><polygon class="cls-31" points="102.13 129.06 100.43 127.36 107.54 118.13 109.24 119.83 102.13 129.06"/><polygon class="cls-31" points="105.32 132.25 103.61 130.55 110.73 121.32 112.43 123.03 105.32 132.25"/><polygon class="cls-31" points="108.51 135.44 106.81 133.74 113.92 124.51 115.62 126.22 108.51 135.44"/><polygon class="cls-31" points="111.71 138.64 110 136.93 117.11 127.71 118.81 129.41 111.71 138.64"/><path class="cls-25" d="M80.11,80.26a5,5,0,0,0,0,.59h7.4v3.23H76s-.42-.45-.42-2.85a12.29,12.29,0,0,1,3.07-7.66l4-4.62a3.82,3.82,0,0,0,1.2-2.78,1.78,1.78,0,0,0-1.84-1.77c-1,0-1.81.87-1.81,2.45v.94h-4V66.21c0-3,2.42-5,5.85-5s6,2,6,5S87.09,70,85,72.54c0,0-.94.94-2.82,2.91A6.85,6.85,0,0,0,80.11,80.26Z"/><path class="cls-25" d="M102.18,78.84H99.34v5.24h-4V78.84H88.45l0-3.2L95.3,61.45h4V75.84h2.84Zm-6.88-3V68l-3.88,7.89Z"/><path class="cls-32" d="M80.11,80.26a5,5,0,0,0,0,.59h7.4v3.23H76s-.42-.45-.42-2.85a12.29,12.29,0,0,1,3.07-7.66l4-4.62a3.82,3.82,0,0,0,1.2-2.78,1.78,1.78,0,0,0-1.84-1.77c-1,0-1.81.87-1.81,2.45v.94h-4V66.21c0-3,2.42-5,5.85-5s6,2,6,5S87.09,70,85,72.54c0,0-.94.94-2.82,2.91A6.85,6.85,0,0,0,80.11,80.26Z"/><path class="cls-32" d="M102.18,78.84H99.34v5.24h-4V78.84H88.45l0-3.2L95.3,61.45h4V75.84h2.84Zm-6.88-3V68l-3.88,7.89Z"/><g class="cls-2"><path class="cls-10" d="M122.71,50.61c0-.22,0-.45,0-.67,0-.38,0-.73-.06-1.07l4.73-2.74L125,40.35l-5.29,1.41c-.21-.25-.44-.52-.71-.8s-.29-.3-.47-.47-.55-.5-.8-.71l1.41-5.28-4.84-2h0a10.6,10.6,0,0,0-.37,2.23c0,.86-.07,1.84-.07,2.92a4,4,0,0,1-1,2.69c-.73.85-2,1.26-4,1.26a4.58,4.58,0,0,1-3.61-1.32,6.26,6.26,0,0,1-1.09-4.14,25.3,25.3,0,0,1,.25-3.76l-5.1,2.11,1.41,5.29c-.25.2-.52.44-.8.71s-.28.27-.41.41l-.07.07c-.26.26-.49.53-.71.79l-5.27-1.41L91,46.14l4.73,2.73A9.51,9.51,0,0,0,95.7,50q0,.33,0,.66a8.72,8.72,0,0,0,.06,1.07L91,54.42l2.39,5.78,5.28-1.41c.21.25.44.52.72.8s.3.32.46.47l.81.72-1.41,5.27,5.78,2.4,2.74-4.73c.33,0,.69.06,1.11.06a4.42,4.42,0,0,0,.63,0c.39,0,.74,0,1.07-.06l2.74,4.73,5.78-2.39-1.41-5.28a10.39,10.39,0,0,0,.8-.72c.16-.15.32-.31.47-.47s.51-.55.71-.8L125,60.2l2.4-5.78-4.73-2.74C122.69,51.35,122.7,51,122.71,50.61Zm-9.4,3.12a5.45,5.45,0,0,1-4.12,1.74,5.32,5.32,0,0,1-4.07-1.74,5.74,5.74,0,0,1-1.61-4,5.6,5.6,0,0,1,1.66-4.07,5.4,5.4,0,0,1,4-1.7A5.79,5.79,0,0,1,115,49.71,5.65,5.65,0,0,1,113.31,53.73Z"/><path class="cls-10" d="M109.16,45.16A4.17,4.17,0,0,0,106,46.49a4.4,4.4,0,0,0-1.31,3.22,4.56,4.56,0,0,0,1.28,3.2,4.14,4.14,0,0,0,3.18,1.34,4.25,4.25,0,0,0,3.23-1.35,4.46,4.46,0,0,0,1.32-3.19,4.58,4.58,0,0,0-4.55-4.55Z"/><path class="cls-10" d="M106.2,39.47a2.84,2.84,0,0,0,1.81.86,8,8,0,0,0,.88.05,5.52,5.52,0,0,0,2.61-.47,1.54,1.54,0,0,0,.46-.36,2.84,2.84,0,0,0,.72-1.9c0-.55,0-1.08,0-1.58s0-1,.06-1.41a10.81,10.81,0,0,1,.28-1.93h0c0-.19.08-.39.13-.57a7.45,7.45,0,0,1,1.14-2.27,9.25,9.25,0,0,1,.94-1.11,15.2,15.2,0,0,1,1.22-1.13c.55-.5,1.34-1.19,2.35-2.08a24.32,24.32,0,0,0,3-3.18,17.92,17.92,0,0,0,1.37-2,23.8,23.8,0,0,0,1.17-2.25,11.82,11.82,0,0,0,.79-2.53,14.2,14.2,0,0,0,.27-2.82,11.8,11.8,0,0,0-4.21-9.13,10.88,10.88,0,0,0-1.06-.8,14.62,14.62,0,0,0-2.44-1.35Q117,1.24,116.32,1c-.48-.16-1-.3-1.49-.43a20.43,20.43,0,0,0-3.26-.49Q110.72,0,109.8,0a19,19,0,0,0-6,.87,16.6,16.6,0,0,0-2.41,1,11.66,11.66,0,0,0-1,.59,9.34,9.34,0,0,0-1,.65,11.23,11.23,0,0,0-1.55,1.41A8.34,8.34,0,0,0,96.73,6c-.14.26-.27.52-.38.77a5.34,5.34,0,0,0-.49,2.15,3.93,3.93,0,0,0,.31,1.64,3.33,3.33,0,0,0,.39.63,3.31,3.31,0,0,0,.55.5,7,7,0,0,0,.63.38,4.17,4.17,0,0,0,1.91.49,2.4,2.4,0,0,0,2-.84c.45-.55,1-1.15,1.51-1.78a9.38,9.38,0,0,1,2.24-1.78,7,7,0,0,1,2.89-.78c.41,0,.85-.05,1.31-.05h0a12.55,12.55,0,0,1,1.66.1,8.1,8.1,0,0,1,4,1.57,5.18,5.18,0,0,1,1.62,2,6.84,6.84,0,0,1,.54,2.81,7.55,7.55,0,0,1-.45,2.67,6,6,0,0,1-.35.77A12.58,12.58,0,0,1,114.65,20c-.38.41-.77.79-1.18,1.17s-.82.73-1.24,1.07-.84.67-1.22,1-.73.64-1.06.94a11.19,11.19,0,0,0-3.07,4,16.43,16.43,0,0,0-1.06,3.34,17.18,17.18,0,0,0-.31,2.11c-.07.76-.1,1.59-.1,2.47a7,7,0,0,0,.44,2.78A2.26,2.26,0,0,0,106.2,39.47Z"/></g><g class="cls-2"><path class="cls-10" d="M330.68,98.39l-.05-.06-.06,0a2.45,2.45,0,0,0-3.28.25l-4.2,4.2a2.45,2.45,0,0,0-.25,3.28l.05.06.06.05a2.45,2.45,0,0,0,3.28-.25l4.2-4.2A2.45,2.45,0,0,0,330.68,98.39Z"/><path class="cls-10" d="M341.53,99.05a22.06,22.06,0,0,0-11.41-11.76,1.45,1.45,0,0,0-1.92.74,1.49,1.49,0,0,0,.74,1.92,19.4,19.4,0,0,1,9.89,10.2,1.55,1.55,0,0,0,.32.48,1.47,1.47,0,0,0,1.58.32A1.45,1.45,0,0,0,341.53,99.05Z"/><path class="cls-10" d="M346.78,97.24A26.45,26.45,0,0,0,331.87,82a1.45,1.45,0,0,0-1.89.81,1.49,1.49,0,0,0,.81,1.89,23.64,23.64,0,0,1,13.26,13.56,1.36,1.36,0,0,0,.33.52,1.46,1.46,0,0,0,2.36-.42A1.5,1.5,0,0,0,346.78,97.24Z"/><path class="cls-10" d="M352,95.35a31,31,0,0,0-18.24-18.57,1.43,1.43,0,0,0-1.11,0,1.41,1.41,0,0,0-.76.81,1.48,1.48,0,0,0,.85,1.88,28.1,28.1,0,0,1,16.51,16.82,1.46,1.46,0,0,0,2.75-1Z"/><path class="cls-10" d="M357.18,93.51a35.45,35.45,0,0,0-21.64-22,1.5,1.5,0,0,0-1.12,0,1.46,1.46,0,0,0,.14,2.69,32.55,32.55,0,0,1,19.86,20.15,1.46,1.46,0,1,0,2.76-.93Z"/><path class="cls-10" d="M332.45,97.31l-.66.65a3.64,3.64,0,0,1-.53,4.54l-4.2,4.2a3.73,3.73,0,0,1-2.64,1.1,3.47,3.47,0,0,1-1.9-.57l-.66.66,8.83,8.84.33-.3C338,109.44,337.21,102.38,332.45,97.31Z"/><path class="cls-10" d="M305.57,123.39c4.84,4.84,16.92.69,24.27-5.87l-18.4-18.4C304.88,106.47,300.73,118.55,305.57,123.39Z"/><path class="cls-10" d="M321.71,106.4a3.64,3.64,0,0,1,.55-4.5l4.2-4.2a3.73,3.73,0,0,1,2.64-1.1,3.48,3.48,0,0,1,1.86.54l.66-.66c-5.07-4.73-12.12-5.51-19.09,1.46l-.3.33,8.81,8.8Z"/></g><g class="cls-2"><path class="cls-3" d="M234.34,176.09v.54c0,.33,1,.49,1.94.49s1.94-.16,1.94-.49v-.54A12,12,0,0,1,234.34,176.09Z"/><path class="cls-3" d="M236.21,143.24a9.75,9.75,0,0,0-6,17.43,3.74,3.74,0,0,1,1.44,3v3.06a2.74,2.74,0,0,0,.79,2V170a27.31,27.31,0,0,0,7.56-.55v-.76a2.74,2.74,0,0,0,.79-2v-3.06a3.77,3.77,0,0,1,1.44-3,9.75,9.75,0,0,0-6-17.43Zm5.7,17a4.26,4.26,0,0,0-1.64,3.35v3c-.08,2.21-1.81,2.39-4.06,2.39s-4-.18-4.06-2.37v-3.06a4.26,4.26,0,0,0-1.64-3.35,9.24,9.24,0,1,1,11.4,0Z"/><path class="cls-3" d="M239.28,153.91,237,159.66l-.15,0h-1.3l-.15,0-2.27-5.75a.53.53,0,0,0-.68-.3l2.48,6.28a.92.92,0,0,0-.29.66v7.35a.74.74,0,0,0,.56.72,3.91,3.91,0,0,0,2,0,.74.74,0,0,0,.56-.72v-7.35a.88.88,0,0,0-.29-.66l2.48-6.28A.53.53,0,0,0,239.28,153.91Z"/><path class="cls-3" d="M239.75,152.17a.81.81,0,0,0-.64.35c-.11.13-.15.17-.24.17s-.14,0-.24-.17a.76.76,0,0,0-1.28,0c-.1.13-.14.17-.24.17s-.13,0-.24-.17a.77.77,0,0,0-.63-.35.81.81,0,0,0-.64.35c-.1.13-.15.17-.24.17s-.13,0-.24-.17a.79.79,0,0,0-.63-.35.81.81,0,0,0-.64.35c-.1.13-.15.17-.24.17s-.13,0-.24-.17a.79.79,0,0,0-.63-.35.26.26,0,0,0-.26.26.25.25,0,0,0,.26.26c.09,0,.13,0,.24.17a.79.79,0,0,0,.63.35.81.81,0,0,0,.64-.35c.1-.13.15-.17.24-.17s.13,0,.24.17a.77.77,0,0,0,.63.35.81.81,0,0,0,.64-.35c.1-.13.15-.17.24-.17s.13,0,.24.17a.79.79,0,0,0,.63.35.81.81,0,0,0,.64-.35c.11-.13.15-.17.24-.17s.13,0,.24.17a.76.76,0,0,0,1.28,0c.1-.13.15-.17.24-.17a.26.26,0,0,0,.26-.26A.26.26,0,0,0,239.75,152.17Z"/><path class="cls-3" d="M232.43,173.31v.51a26.32,26.32,0,0,0,7.56-.48v-.52a29.59,29.59,0,0,1-5.69.57C233.38,173.39,232.73,173.34,232.43,173.31Z"/><path class="cls-3" d="M232.43,170.75v.51a27,27,0,0,0,7.56-.52v-.52a30.07,30.07,0,0,1-5.84.6C233.36,170.82,232.77,170.78,232.43,170.75Z"/><path class="cls-3" d="M232.43,172v.51A26.91,26.91,0,0,0,240,172v-.52a29.86,29.86,0,0,1-5.76.59C233.37,172.11,232.76,172.06,232.43,172Z"/><path class="cls-3" d="M232.54,174.6a1.59,1.59,0,0,0,1.2.91,11.59,11.59,0,0,0,4.94,0,1.52,1.52,0,0,0,1.3-1.38,29.29,29.29,0,0,1-5.6.56C233.48,174.68,232.85,174.63,232.54,174.6Z"/></g><g class="cls-2"><path class="cls-3" d="M130,162.11v.42c0,.26.76.39,1.52.39s1.52-.13,1.52-.39v-.42A9.39,9.39,0,0,1,130,162.11Z"/><path class="cls-3" d="M131.48,136.34A7.65,7.65,0,0,0,126.76,150a3,3,0,0,1,1.13,2.32v2.4a2.19,2.19,0,0,0,.62,1.56v1a21.59,21.59,0,0,0,5.93-.43v-.6a2.19,2.19,0,0,0,.62-1.56v-2.4a3,3,0,0,1,1.13-2.32,7.65,7.65,0,0,0-4.71-13.67Zm4.46,13.36a3.36,3.36,0,0,0-1.28,2.63v2.38c-.07,1.74-1.42,1.88-3.18,1.88s-3.12-.14-3.19-1.86v-2.4A3.36,3.36,0,0,0,127,149.7a7.25,7.25,0,1,1,8.93,0Z"/><path class="cls-3" d="M133.89,144.71l-1.79,4.51h-1.25l-1.79-4.51a.4.4,0,0,0-.52-.23l1.94,4.92a.7.7,0,0,0-.23.52v5.77a.59.59,0,0,0,.44.56,3.13,3.13,0,0,0,1.57,0,.59.59,0,0,0,.44-.56v-5.77a.7.7,0,0,0-.23-.52l1.94-4.92A.4.4,0,0,0,133.89,144.71Z"/><path class="cls-3" d="M134.25,143.35a.61.61,0,0,0-.5.27c-.08.1-.12.13-.19.13s-.1,0-.19-.13a.61.61,0,0,0-.5-.27.65.65,0,0,0-.5.27c-.08.1-.11.13-.19.13s-.1,0-.18-.13a.65.65,0,0,0-.5-.27.61.61,0,0,0-.5.27c-.09.1-.12.13-.19.13s-.1,0-.19-.13a.59.59,0,0,0-1,0c-.09.1-.12.13-.19.13s-.11,0-.19-.13a.61.61,0,0,0-.5-.27.2.2,0,0,0,0,.4c.07,0,.11,0,.19.13a.62.62,0,0,0,.5.28.65.65,0,0,0,.5-.28c.08-.09.11-.13.18-.13s.11,0,.19.13a.59.59,0,0,0,1,0c.08-.09.12-.13.19-.13s.1,0,.19.13a.58.58,0,0,0,1,0c.09-.09.12-.13.19-.13s.11,0,.19.13a.59.59,0,0,0,1,0c.08-.09.12-.13.19-.13a.2.2,0,0,0,0-.4Z"/><path class="cls-3" d="M128.51,159.93v.4a20.84,20.84,0,0,0,5.93-.38v-.41A23.33,23.33,0,0,1,130,160C129.26,160,128.75,160,128.51,159.93Z"/><path class="cls-3" d="M128.51,157.92v.4a21.41,21.41,0,0,0,5.93-.41v-.41a23.32,23.32,0,0,1-4.58.47C129.24,158,128.78,157.94,128.51,157.92Z"/><path class="cls-3" d="M128.51,158.93v.4a21,21,0,0,0,5.93-.4v-.41a23.28,23.28,0,0,1-4.52.46C129.25,159,128.77,159,128.51,158.93Z"/><path class="cls-3" d="M128.59,160.94a1.26,1.26,0,0,0,.95.71,9,9,0,0,0,3.87,0,1.2,1.2,0,0,0,1-1.08,23.22,23.22,0,0,1-4.4.43A13.54,13.54,0,0,1,128.59,160.94Z"/></g><g class="cls-2"><path class="cls-3" d="M295.71,96.5V97c0,.29.86.44,1.73.44s1.73-.15,1.73-.44V96.5A11.15,11.15,0,0,1,295.71,96.5Z"/><path class="cls-3" d="M297.38,67.16A8.7,8.7,0,0,0,292,82.72a3.36,3.36,0,0,1,1.28,2.64v2.73a2.53,2.53,0,0,0,.71,1.78V91a24.27,24.27,0,0,0,6.75-.49v-.68a2.45,2.45,0,0,0,.71-1.78V85.36a3.37,3.37,0,0,1,1.29-2.64,8.7,8.7,0,0,0-5.37-15.56Zm5.09,15.2a3.83,3.83,0,0,0-1.46,3v2.71c-.08,2-1.62,2.14-3.63,2.14s-3.55-.16-3.63-2.12V85.36a3.86,3.86,0,0,0-1.46-3,8.25,8.25,0,1,1,10.18,0Z"/><path class="cls-3" d="M300.12,76.68l-2,5.14h-1.43l-2-5.14a.46.46,0,0,0-.6-.26l2.22,5.6a.81.81,0,0,0-.26.6v6.56a.64.64,0,0,0,.5.64,3.89,3.89,0,0,0,.89.12,4,4,0,0,0,.89-.12.65.65,0,0,0,.5-.64V82.62a.81.81,0,0,0-.26-.6l2.21-5.6A.47.47,0,0,0,300.12,76.68Z"/><path class="cls-3" d="M300.54,75.13a.69.69,0,0,0-.57.32c-.1.11-.14.15-.22.15s-.12,0-.21-.15a.72.72,0,0,0-.57-.32.7.7,0,0,0-.57.32c-.1.11-.13.15-.22.15s-.11,0-.21-.15a.66.66,0,0,0-1.13,0c-.1.11-.14.15-.22.15s-.12,0-.21-.15a.67.67,0,0,0-1.14,0c-.09.11-.13.15-.21.15s-.12,0-.22-.15a.68.68,0,0,0-.56-.32.24.24,0,1,0,0,.47c.08,0,.11,0,.21.15a.72.72,0,0,0,.57.31.7.7,0,0,0,.56-.31c.1-.12.14-.15.22-.15s.12,0,.21.15a.68.68,0,0,0,1.14,0c.09-.12.13-.15.21-.15s.12,0,.22.15a.67.67,0,0,0,1.13,0c.1-.12.14-.15.22-.15s.12,0,.21.15a.74.74,0,0,0,.57.31.71.71,0,0,0,.57-.31c.1-.12.14-.15.22-.15a.24.24,0,0,0,0-.47Z"/><path class="cls-3" d="M294,94v.45a23.4,23.4,0,0,0,6.75-.43v-.46a27.34,27.34,0,0,1-5.08.51C294.85,94.09,294.27,94,294,94Z"/><path class="cls-3" d="M294,91.73v.45a24.13,24.13,0,0,0,6.75-.47v-.46a26.8,26.8,0,0,1-5.21.54C294.83,91.79,294.31,91.75,294,91.73Z"/><path class="cls-3" d="M294,92.87v.46a24.44,24.44,0,0,0,6.75-.45v-.47a26.68,26.68,0,0,1-5.14.53C294.84,92.94,294.29,92.9,294,92.87Z"/><path class="cls-3" d="M294.1,95.17a1.44,1.44,0,0,0,1.07.81,10.41,10.41,0,0,0,4.41,0,1.36,1.36,0,0,0,1.17-1.23,26.39,26.39,0,0,1-5,.5A16.1,16.1,0,0,1,294.1,95.17Z"/></g><path class="cls-33" d="M323.42,259.11a26.85,26.85,0,0,0-25.24-26.77v2.41a24.42,24.42,0,0,1,4.89,47.91l-.22,1.13.52,1.28A26.75,26.75,0,0,0,323.42,259.11Z"/><polygon class="cls-33" points="303.07 282.66 303.63 279.83 296.6 284.73 304.55 287.93 303.37 285.07 302.85 283.79 303.07 282.66"/><path class="cls-3" d="M272.19,259.18a24.34,24.34,0,0,1,17.94-23.54l.23-1.13-.53-1.29A26.82,26.82,0,0,0,295,286v-2.41A24.44,24.44,0,0,1,272.19,259.18Z"/><polygon class="cls-3" points="290.13 235.64 289.57 238.47 296.6 233.57 288.65 230.36 289.83 233.22 290.36 234.51 290.13 235.64"/><path class="cls-26" d="M302.46,273.9a34.93,34.93,0,0,0-5.55-.49v4.91C299,278.18,300.94,276.54,302.46,273.9Z"/><path class="cls-26" d="M296.91,266.17v6.63a35.24,35.24,0,0,1,5.86.54,25.6,25.6,0,0,0,2.28-6.74C302.46,266.33,299.73,266.18,296.91,266.17Z"/><path class="cls-26" d="M296.91,252.7v6.14h8.86a38.13,38.13,0,0,0-.61-6.59A80.84,80.84,0,0,1,296.91,252.7Z"/><path class="cls-26" d="M296.91,259.45v6.11a78,78,0,0,1,8.25.46,38,38,0,0,0,.61-6.57Z"/><path class="cls-26" d="M296.91,245.46v6.64c2.81,0,5.54-.17,8.14-.44a25.59,25.59,0,0,0-2.3-6.74A35,35,0,0,1,296.91,245.46Z"/><path class="cls-26" d="M299.6,240.31a11.21,11.21,0,0,1,3.44,3.95c1-.19,1.91-.42,2.8-.68A14.46,14.46,0,0,0,299.6,240.31Z"/><path class="cls-26" d="M301.72,240.34a15.65,15.65,0,0,1,4.79,3l1-.37A19.37,19.37,0,0,0,301.72,240.34Z"/><path class="cls-26" d="M296.91,240v4.88a33.9,33.9,0,0,0,5.54-.48C300.93,241.74,299,240.12,296.91,240Z"/><path class="cls-26" d="M305.64,266.67a26.26,26.26,0,0,1-2.29,6.79,26.1,26.1,0,0,1,3,.78,19.26,19.26,0,0,0,4.5-6.77C309.21,267.15,307.46,266.88,305.64,266.67Z"/><path class="cls-26" d="M293.6,278a11.36,11.36,0,0,1-3.45-4,25.66,25.66,0,0,0-2.81.68A14.54,14.54,0,0,0,293.6,278Z"/><path class="cls-26" d="M287.57,251.59a26.18,26.18,0,0,1,2.3-6.78,26.46,26.46,0,0,1-3-.78,19,19,0,0,0-4.51,6.77C284,251.12,285.75,251.39,287.57,251.59Z"/><path class="cls-26" d="M296.3,252.1v-6.64a35.12,35.12,0,0,1-5.85-.54,25.24,25.24,0,0,0-2.29,6.74A81.45,81.45,0,0,0,296.3,252.1Z"/><path class="cls-26" d="M293.6,240.31a14.46,14.46,0,0,0-6.24,3.27c.89.26,1.83.49,2.81.68A11.19,11.19,0,0,1,293.6,240.31Z"/><path class="cls-26" d="M290.76,244.37a33.7,33.7,0,0,0,5.54.48V240C294.2,240.12,292.27,241.74,290.76,244.37Z"/><path class="cls-26" d="M296.3,278.32v-4.91a35.17,35.17,0,0,0-5.56.49C292.26,276.54,294.19,278.18,296.3,278.32Z"/><path class="cls-26" d="M296.3,265.56v-6.11h-8.87A38,38,0,0,0,288,266,78.06,78.06,0,0,1,296.3,265.56Z"/><path class="cls-26" d="M296.3,258.84V252.7a80.68,80.68,0,0,1-8.25-.45,38.11,38.11,0,0,0-.62,6.59Z"/><path class="cls-26" d="M296.3,272.8v-6.63c-2.82,0-5.55.16-8.15.43a25.24,25.24,0,0,0,2.29,6.74A35.24,35.24,0,0,1,296.3,272.8Z"/><path class="cls-26" d="M308.09,243.4c-.36.15-.72.29-1.1.42a19.76,19.76,0,0,1,4.47,6.86c.83-.17,1.64-.35,2.42-.55A19.57,19.57,0,0,0,308.09,243.4Z"/><path class="cls-26" d="M305.75,252.18a38,38,0,0,1,.63,6.66h6.05a22.58,22.58,0,0,0-1.36-7.49C309.38,251.69,307.6,252,305.75,252.18Z"/><path class="cls-26" d="M286.21,243.82c-.37-.13-.74-.27-1.09-.42a19.71,19.71,0,0,0-5.8,6.73c.79.2,1.59.38,2.42.55A19.9,19.9,0,0,1,286.21,243.82Z"/><path class="cls-26" d="M306.34,244a25.92,25.92,0,0,1-3,.78,26.17,26.17,0,0,1,2.31,6.78c1.81-.2,3.56-.47,5.22-.79A19,19,0,0,0,306.34,244Z"/><path class="cls-26" d="M286.69,243.37a15.58,15.58,0,0,1,4.8-3,19.32,19.32,0,0,0-5.81,2.66Z"/><path class="cls-26" d="M280.17,259.45h-3.05a19.39,19.39,0,0,0,1.92,8.16c.81-.2,1.63-.4,2.49-.57A23,23,0,0,1,280.17,259.45Z"/><path class="cls-26" d="M313,259.45a23.49,23.49,0,0,1-1.36,7.59c.85.17,1.68.37,2.48.57a19.39,19.39,0,0,0,1.93-8.16Z"/><path class="cls-26" d="M313,258.84h3a19.54,19.54,0,0,0-1.94-8.19c-.81.21-1.63.4-2.48.58A23.3,23.3,0,0,1,313,258.84Z"/><path class="cls-26" d="M307,274.45l1.1.42a19.65,19.65,0,0,0,5.78-6.73c-.79-.2-1.6-.38-2.43-.56A19.9,19.9,0,0,1,307,274.45Z"/><path class="cls-26" d="M280.17,258.84a22.79,22.79,0,0,1,1.37-7.61c-.85-.18-1.68-.37-2.48-.58a19.24,19.24,0,0,0-1.94,8.19Z"/><path class="cls-26" d="M287.44,266.08a38.7,38.7,0,0,1-.61-6.63h-6.06a22.61,22.61,0,0,0,1.36,7.46C283.82,266.58,285.6,266.3,287.44,266.08Z"/><path class="cls-26" d="M285.09,274.87l1.1-.42a19.78,19.78,0,0,1-4.46-6.87c-.83.18-1.64.36-2.42.56A19.54,19.54,0,0,0,285.09,274.87Z"/><path class="cls-26" d="M286.84,274.24a26.1,26.1,0,0,1,3-.78,26.25,26.25,0,0,1-2.3-6.79q-2.73.31-5.23.8A19.15,19.15,0,0,0,286.84,274.24Z"/><path class="cls-26" d="M286.83,258.84a38,38,0,0,1,.62-6.66q-2.77-.31-5.31-.83a22.58,22.58,0,0,0-1.37,7.49Z"/><path class="cls-26" d="M306.38,259.45a38.67,38.67,0,0,1-.62,6.63q2.78.33,5.32.83a22.35,22.35,0,0,0,1.35-7.46Z"/><path class="cls-26" d="M306.54,274.91a16,16,0,0,1-4.82,3,19.5,19.5,0,0,0,5.83-2.69C307.22,275.15,306.89,275,306.54,274.91Z"/><path class="cls-26" d="M286.67,274.91c-.35.11-.69.24-1,.36a19.55,19.55,0,0,0,5.84,2.69A15.92,15.92,0,0,1,286.67,274.91Z"/><path class="cls-26" d="M299.6,278a14.57,14.57,0,0,0,6.27-3.3,25.3,25.3,0,0,0-2.82-.68A11.16,11.16,0,0,1,299.6,278Z"/><path class="cls-34" d="M173.47,99.08c-1.77,0-3.54-.4-3.54-1.2V84.67H177V97.88C177,98.68,175.24,99.08,173.47,99.08Z"/><path class="cls-29" d="M173.47,98.09c-3.71,0-4.12-.36-5.4-1.92l-1.15-1.64V77.24H180V94.53l-1.16,1.64C177.59,97.73,177.18,98.09,173.47,98.09Z"/><path class="cls-34" d="M173.47,95.74c-4,0-8-.67-8-2V71.27h15.94V93.72C181.44,95.07,177.45,95.74,173.47,95.74Z"/><path class="cls-29" d="M173.47,94.7c-4.27,0-8.53-.68-8.53-2V69.88H182V92.65C182,94,177.73,94.7,173.47,94.7Z"/><path class="cls-27" d="M173.47,19.32A23.54,23.54,0,0,0,159,61.39a9.07,9.07,0,0,1,3.47,7.12v7.4c.27,7,6.68,7,11,7s10.77,0,11-7v-7.4A9.07,9.07,0,0,1,188,61.39a23.54,23.54,0,0,0-14.51-42.07Z"/><path class="cls-35" d="M176.53,59.49l6-15.15-1.16-.46-5.95,15a2.2,2.2,0,0,0-.36,0H171.9a2.09,2.09,0,0,0-.36,0l-5.95-15-1.16.46,6,15.15a2.17,2.17,0,0,0-.7,1.6V78.83a1.78,1.78,0,0,0,1.35,1.73,9.52,9.52,0,0,0,4.82,0,1.78,1.78,0,0,0,1.35-1.73V61.09A2.17,2.17,0,0,0,176.53,59.49Z"/><path class="cls-3" d="M179.81,46a1.94,1.94,0,0,1-1.54-.85c-.26-.31-.36-.4-.58-.4s-.32.09-.58.4a1.94,1.94,0,0,1-1.54.85,1.9,1.9,0,0,1-1.53-.85c-.26-.31-.36-.4-.58-.4s-.32.09-.58.4a1.81,1.81,0,0,1-3.07,0c-.26-.31-.36-.4-.58-.4s-.32.09-.58.4a1.8,1.8,0,0,1-3.06,0c-.26-.31-.36-.4-.58-.4a.63.63,0,1,1,0-1.25,1.91,1.91,0,0,1,1.53.84c.26.31.36.41.58.41s.32-.1.58-.41a1.81,1.81,0,0,1,3.06,0c.26.31.36.41.58.41s.33-.1.59-.41a1.81,1.81,0,0,1,3.06,0c.26.31.36.41.58.41s.33-.1.58-.41a1.83,1.83,0,0,1,3.08,0c.26.31.36.41.58.41s.33-.1.59-.41a1.9,1.9,0,0,1,1.53-.84.63.63,0,1,1,0,1.25c-.22,0-.32.09-.58.4A1.94,1.94,0,0,1,179.81,46Z"/><path class="cls-34" d="M167.09,92.76l-2.17,0a.59.59,0,0,1-.57-.61.61.61,0,0,1,.61-.57,51.86,51.86,0,0,0,16.87-2,.59.59,0,0,1,.73.39.59.59,0,0,1-.39.74A51.66,51.66,0,0,1,167.09,92.76Z"/><path class="cls-34" d="M175.29,94.24a.61.61,0,0,1-.59-.51.6.6,0,0,1,.5-.67,42.25,42.25,0,0,0,6.63-1.45.59.59,0,0,1,.73.39.59.59,0,0,1-.39.74,45.38,45.38,0,0,1-6.8,1.49Z"/><path class="cls-34" d="M167.09,90.74l-2.17,0a.59.59,0,0,1-.57-.61.61.61,0,0,1,.61-.57,52.13,52.13,0,0,0,16.87-2,.59.59,0,0,1,.73.39.59.59,0,0,1-.39.74A51.61,51.61,0,0,1,167.09,90.74Z"/><path class="cls-34" d="M167.09,88.72l-2.17,0a.59.59,0,0,1-.57-.61.61.61,0,0,1,.61-.57,52.13,52.13,0,0,0,16.87-2,.59.59,0,0,1,.73.39.59.59,0,0,1-.39.74A51.61,51.61,0,0,1,167.09,88.72Z"/><path class="cls-34" d="M167.09,86.7l-2.17,0a.59.59,0,0,1-.57-.61.61.61,0,0,1,.61-.57,51.86,51.86,0,0,0,16.87-2,.59.59,0,0,1,.73.39.59.59,0,0,1-.39.74A51.66,51.66,0,0,1,167.09,86.7Z"/><path class="cls-34" d="M167.11,84.68l-2.19,0a.59.59,0,0,1-.57-.61.61.61,0,0,1,.61-.57,61.85,61.85,0,0,0,6.86-.14.58.58,0,0,1,.63.54.59.59,0,0,1-.54.64C170.37,84.62,168.76,84.68,167.11,84.68Z"/><path class="cls-36" d="M173.47,60.82c-10.26,0-19.13-8.24-23.43-20.23-.07.75-.11,1.51-.11,2.27a23.49,23.49,0,0,0,9,18.53,9.07,9.07,0,0,1,3.47,7.12v7.4a6.33,6.33,0,0,0,2.51,5.28v2.29a.59.59,0,0,0,0,1.17h0v.85a.59.59,0,0,0,0,1.17h0v.85a.59.59,0,0,0,0,1.17h0v.85a.59.59,0,0,0,0,1.17h0v.85a.59.59,0,0,0,0,1.17h0a1.05,1.05,0,0,0,.54.71v.28c0,.56.7,1,1.78,1.33l.79,1.12a4.28,4.28,0,0,0,1.86,1.57v.14c0,.8,1.77,1.2,3.54,1.2s3.54-.4,3.54-1.2v-.14a4.21,4.21,0,0,0,1.85-1.57l.79-1.12c1.09-.33,1.79-.77,1.79-1.33v-.28a1.14,1.14,0,0,0,.53-.65l.2-.05a.59.59,0,0,0-.17-1.15v-.83l.17,0a.59.59,0,0,0-.17-1.15v-.83l.17,0a.59.59,0,0,0,.39-.74.6.6,0,0,0-.56-.41v-.83l.17,0a.59.59,0,0,0,.39-.74.6.6,0,0,0-.56-.41V84.7l.17,0a.59.59,0,0,0,.39-.74.58.58,0,0,0-.56-.4V81.19a6.33,6.33,0,0,0,2.51-5.28v-7.4A9.07,9.07,0,0,1,188,61.39a23.49,23.49,0,0,0,9-18.53c0-.76,0-1.52-.11-2.27C192.6,52.58,183.73,60.82,173.47,60.82Z"/><path class="cls-37" d="M184.84,25.1c0,2.34-5.09,1.83-11.37,1.83s-11.37.51-11.37-1.83,5.09-4.23,11.37-4.23S184.84,22.77,184.84,25.1Z"/><path class="cls-4" d="M298.74,132.82a.52.52,0,0,1-.46-.28q-1.08-2-2.22-4A.53.53,0,0,1,297,128c.76,1.33,1.51,2.68,2.23,4.05a.52.52,0,0,1-.22.71A.54.54,0,0,1,298.74,132.82Zm-5.48-9.45a.5.5,0,0,1-.44-.24c-1.12-1.77-2.29-3.53-3.48-5.25a.53.53,0,1,1,.86-.61c1.2,1.74,2.38,3.52,3.5,5.29a.52.52,0,0,1-.16.73A.48.48,0,0,1,293.26,123.37ZM286.05,113a.51.51,0,0,1-.42-.21c-1.27-1.66-2.59-3.32-3.93-4.92a.53.53,0,1,1,.81-.68c1.35,1.62,2.68,3.29,4,5a.54.54,0,0,1-.1.74A.56.56,0,0,1,286.05,113Z"/><rect class="cls-38" x="276.4" y="197.57" width="64.89" height="2.76"/><rect class="cls-39" x="271.59" y="150.85" width="74.5" height="47.15" rx="3.57"/><path class="cls-40" d="M340,195.13H277.7a3.18,3.18,0,0,1-3.3-3V157.91a3.19,3.19,0,0,1,3.3-3H340a3.19,3.19,0,0,1,3.3,3v34.17A3.18,3.18,0,0,1,340,195.13Z"/><path class="cls-41" d="M310.05,152.74a1.21,1.21,0,1,1-1.2-1.2A1.2,1.2,0,0,1,310.05,152.74Z"/><path class="cls-42" d="M309.68,152.74a.84.84,0,1,1-.83-.83A.83.83,0,0,1,309.68,152.74Z"/><path class="cls-39" d="M352,200.33v1.91a3.76,3.76,0,0,1-3.75,3.74H269.41a3.76,3.76,0,0,1-3.74-3.74v-1.91Z"/><rect class="cls-42" x="265.67" y="200.33" width="86.35" height="1.91"/><path class="cls-43" d="M351.22,204.54a3.74,3.74,0,0,1-3,1.44H269.41a3.77,3.77,0,0,1-3-1.44Z"/><rect class="cls-3" x="296.86" y="168.42" width="25.22" height="2.58"/><rect class="cls-3" x="322.85" y="180.27" width="13.77" height="1.56"/><path class="cls-33" d="M320.59,135.78c0,9.06-8.29,9.89-8.29,17.83V160h-8.64v-4.77c0-11.47,8.23-14.1,8.23-19.7a3.78,3.78,0,0,0-3.94-3.8c-2.08,0-3.88,1.94-3.88,5.33V139h-8.64v-3.25c0-6.56,5.19-10.92,12.52-10.92S320.59,129.15,320.59,135.78Zm-16.93,29.65h8.64v8.65h-8.64Z"/><rect class="cls-3" x="313.4" y="175.4" width="23.93" height="1.56"/><rect class="cls-3" x="281.61" y="175.71" width="26.76" height="1.92"/><polygon class="cls-3" points="301.81 180.27 281.61 180.27 281.61 181.84 301.81 181.84 301.81 181.09 301.81 180.27"/><polygon class="cls-3" points="305.93 181.84 316.77 181.84 316.77 180.27 305.93 180.27 305.93 181.09 305.93 181.84"/><rect class="cls-3" x="281.61" y="185.23" width="15.26" height="1.56"/></svg>