<svg xmlns="http://www.w3.org/2000/svg" viewBox="0 0 417.73 341.33"><defs><style>.cls-1{isolation:isolate;}.cls-17,.cls-2{fill:gray;}.cls-18,.cls-2,.cls-38{opacity:0.7;}.cls-2,.cls-35{mix-blend-mode:multiply;}.cls-15,.cls-3{fill:#fff;}.cls-4{fill:#0597a6;}.cls-5{fill:#15afbe;}.cls-6,.cls-9{fill:#0593a1;}.cls-7{fill:#ade9f0;}.cls-8{fill:#c2dee1;}.cls-10,.cls-12,.cls-13,.cls-14,.cls-15,.cls-16,.cls-19,.cls-20,.cls-21,.cls-22,.cls-23,.cls-24,.cls-25,.cls-26,.cls-27,.cls-29,.cls-30,.cls-9{fill-rule:evenodd;}.cls-10{fill:#047480;}.cls-11{fill:#89ced6;}.cls-12{fill:#97c8cc;}.cls-13{fill:#2a7074;}.cls-14{fill:#f7bb1c;}.cls-16{fill:#b2bd4d;}.cls-17{opacity:0.25;mix-blend-mode:color-burn;}.cls-19,.cls-28{fill:#2ecee8;}.cls-20,.cls-36{fill:#49535c;}.cls-21{fill:#ffdba7;}.cls-22{fill:#eec85b;}.cls-23{fill:#e6e6e6;}.cls-24{fill:#1facc2;}.cls-25{fill:#7f531b;}.cls-26{fill:#7d858b;}.cls-27{fill:#e89270;}.cls-29{fill:#fdc00f;}.cls-30{fill:#ffdd78;}.cls-31{fill:#fcc083;}.cls-32{fill:#d44102;}.cls-33{fill:#e8aa63;}.cls-34{fill:#a14720;}.cls-35{fill:#7d7d7d;opacity:0.35;}.cls-37{fill:#fcbf1c;}.cls-38{mix-blend-mode:color-dodge;}.cls-39{fill:#828282;}</style></defs><title>IT Infra helpdesk banner</title><g class="cls-1"><g id="Layer_1" data-name="Layer 1"><path class="cls-2" d="M113.48,317.21,89.94,294.07a8.88,8.88,0,0,0-9.33-2.29l-7.18-7,11.29-11.49a5,5,0,0,0,.71-.9A12.68,12.68,0,0,0,101.68,256l-4.83,4.92a5.36,5.36,0,0,1-7.64-7.51l4.84-4.91A12.68,12.68,0,0,0,78,265a6,6,0,0,0-.88.72L65.8,277.23,49.6,261.31l1.17-1.18L37.9,249.81l-3.64,3.71L44.8,266.2,46,265l16.2,15.91L52,291.25a9.65,9.65,0,0,0-5.87,2.89L23,317.7c-3.41,3.47-3.79,8.65-.83,11.55s8.12,2.44,11.54-1l23.14-23.55a9.59,9.59,0,0,0,2.79-5.91l10.14-10.32L77,295.49a8.84,8.84,0,0,0,2.45,9.28L103,327.91c3.48,3.42,8.65,3.8,11.55.84S117,320.63,113.48,317.21Z"/><path class="cls-3" d="M40.67,262.07,30.13,249.39l3.64-3.71L46.64,256l-1.17,1.18,38.09,37.43c2,2,2.88,4.46,1.87,5.48s-3.47.23-5.51-1.77L41.83,260.89Z"/><path class="cls-4" d="M98.84,323.78c3.47,3.42,8.65,3.8,11.55.84h0c2.91-3,2.44-8.13-1-11.54L85.81,289.94c-3.48-3.42-8.66-3.79-11.56-.84h0c-2.91,3-2.44,8.12,1,11.54Z"/><path class="cls-3" d="M76.62,247.4a12.69,12.69,0,0,1,13.3-3.05l-4.84,4.91a5.36,5.36,0,0,0,7.64,7.51l4.83-4.92A12.68,12.68,0,0,1,81.3,268.21a5.4,5.4,0,0,1-.71.9l-26.52,27a5.35,5.35,0,1,1-7.63-7.5L73,261.6a6,6,0,0,1,.88-.72A12.69,12.69,0,0,1,76.62,247.4Z"/><path class="cls-4" d="M18.88,313.56c-3.41,3.48-3.79,8.66-.83,11.56h0c2.95,2.9,8.12,2.44,11.54-1l23.14-23.55c3.41-3.47,3.79-8.65.83-11.55h0c-3-2.91-8.12-2.44-11.54,1Z"/><path class="cls-5" d="M110.28,104.6a4.49,4.49,0,0,1-.4-.57C110,104.21,110.14,104.41,110.28,104.6Z"/><path class="cls-5" d="M90.86,92A11.39,11.39,0,0,1,88,91.49C89,91.61,89.92,91.78,90.86,92Z"/><path class="cls-5" d="M49.63,134.21s2.63-.56,3.08-.74a32.59,32.59,0,0,0,5.17,10.19c-.24-.14.12.37,1.95,2.37a65.18,65.18,0,0,1,9.79-3.93l0,0h.05a40.86,40.86,0,0,1-3.89-15l-.05-3.16a43.45,43.45,0,0,1,3.89-16.54h0v0A66.75,66.75,0,0,1,58.86,103a28.66,28.66,0,0,0-2.18,3l-3-1.17A32.88,32.88,0,0,1,56,101.44l-.06,0,1.35-1.5.83-.91h0a36.13,36.13,0,0,1,24.88-10.9v0h1.87l0,0a36,36,0,0,1,25.72,12l0,0,.81,1h0l1.25,1.5,0,0a35.87,35.87,0,0,1,7.07,21.36h0l-.08,1.65-.06,1.51h0a35.92,35.92,0,0,1-7.79,19.33l.06,0-1.4,1.54-.8.89,0,0a36.06,36.06,0,0,1-24.25,10.88v0H83.23a35.86,35.86,0,0,1-24-9.89l0,0-.81-.83-1.5-1.52.06,0A35.82,35.82,0,0,1,49.63,134.21ZM88,91.49a68.78,68.78,0,0,1,9.34,13.78,54.14,54.14,0,0,0,10.42-3.73A32.59,32.59,0,0,0,90.86,92C91.85,92.06,91.88,92,88,91.49Zm22.28,13.11c1,1.29,3.08,4-.4-.57a57.71,57.71,0,0,1-11.15,4.14v0h0a43,43,0,0,1,3.54,15.71h14.4A32.74,32.74,0,0,0,110.28,104.6Zm6.2,22.49h-14.3a40.79,40.79,0,0,1-3.51,14.15h0l0,0A58.33,58.33,0,0,1,109,145,32.78,32.78,0,0,0,116.48,127.09Zm-9.82,20.35a54.17,54.17,0,0,0-9.43-3.25,54.59,54.59,0,0,1-8.92,12.15,32.85,32.85,0,0,0,16.56-7.3C104.11,149.81,103.93,150.08,106.66,147.44Zm-21.15,7.24c.68-.69,1.35-1.39,2-2.11h0v0a50.92,50.92,0,0,0,6.47-9,49.19,49.19,0,0,0-8.48-.71Zm0-15a54.07,54.07,0,0,1,10,.93A37.83,37.83,0,0,0,99,127.09H85.51Zm0-15.71H99.07a36.63,36.63,0,0,0-.41-4.55,41.7,41.7,0,0,0-3.12-10.49,54.34,54.34,0,0,1-10,.94Zm0-17.28a48.86,48.86,0,0,0,8.62-.73,63.79,63.79,0,0,0-5.8-9s0,0,0,0l-.25-.32.25.32Q87,95.18,85.51,93.45Zm-24.4-6.13a60.81,60.81,0,0,0,9.9,4,69.24,69.24,0,0,1,8.94-13,32.92,32.92,0,0,0-16.82,7.23C63.74,98.07,63.67,98,61.11,100.52Zm21.25-7c-.39.44-.77.89-1.14,1.34a65.33,65.33,0,0,0-7.08,10.43,50.65,50.65,0,0,0,8.22,1.23Zm0,16.18a54.38,54.38,0,0,1-9.66-1.5,40.41,40.41,0,0,0-3.82,15.71H82.36Zm0,17.37H68.93a36.9,36.9,0,0,0,1,6.51,39.91,39.91,0,0,0,2.81,7.63,55.57,55.57,0,0,1,9.6-1.49Zm0,15.83a52.25,52.25,0,0,0-8.06,1.2,51.15,51.15,0,0,0,4.91,7q1.5,1.8,3.15,3.46Zm-2.71,13.44A55.12,55.12,0,0,1,71.13,145a60.35,60.35,0,0,0-8.9,3.43A32.41,32.41,0,0,0,77,155.88C76.34,155.85,76.6,156,79.65,156.36Z"/><path class="cls-5" d="M77,155.88a9.51,9.51,0,0,1,2.7.48C78.74,156.24,77.84,156.07,77,155.88Z"/><path class="cls-5" d="M59.83,146c-.69-.76-1.34-1.56-1.95-2.37C58.25,143.9,60.17,145.86,59.83,146Z"/><path class="cls-5" d="M61.11,100.52c.65-.63,1.33-1.23,2-1.81A10.19,10.19,0,0,1,61.11,100.52Z"/><path class="cls-5" d="M106.66,147.44c-.57.56-1.17,1.08-1.79,1.6A11,11,0,0,1,106.66,147.44Z"/><path class="cls-2" d="M413.38,94A20,20,0,0,0,400,75.48a20.62,20.62,0,0,0,.47-4.41c0-11.92-10.2-21.59-22.8-21.59s-22.8,9.67-22.8,21.59A20.84,20.84,0,0,0,360,84.73l-.7,3.46a3.15,3.15,0,0,0-1.58-.44H332a3.21,3.21,0,0,0-3.19,3.19v49.87A3.2,3.2,0,0,0,332,144h25.71a3.2,3.2,0,0,0,3.12-2.55,3.31,3.31,0,0,0,.06-.64V93.06l6.08-2.9a23.79,23.79,0,0,0,4.5,1.68,19.31,19.31,0,0,0-.13,2.17c0,11,9.41,19.89,21,19.89a22,22,0,0,0,9.84-2.31l8.24,3.93-1.81-8.93A19.18,19.18,0,0,0,413.38,94Z"/><rect class="cls-6" x="324.71" y="83.62" width="32.08" height="56.25" rx="3.19"/><rect class="cls-7" x="327.45" y="89.51" width="26.6" height="40.21"/><rect class="cls-8" x="327.69" y="86.56" width="25.84" height="1.19" rx="0.6"/><rect class="cls-8" x="336.45" y="131.17" width="8.62" height="7.3" rx="1.59"/><path class="cls-9" d="M340.75,136.48a1.66,1.66,0,1,0-1.66-1.66A1.66,1.66,0,0,0,340.75,136.48Z"/><path class="cls-10" d="M340.75,83.62h12.86a3.19,3.19,0,0,1,3.18,3.19v49.87a3.2,3.2,0,0,1-3.18,3.19H340.75V138.4l3.13-2.87-3.13-4.31v-1.56l6.35-3.13-6.35-37v-1.9l2.39-.24-2.39-.82Z"/><rect class="cls-11" x="340.75" y="89.51" width="13.3" height="40.21"/><path class="cls-12" d="M340.75,86.56h12.18a.6.6,0,0,1,.6.6h0a.6.6,0,0,1-.6.6H340.75Z"/><path class="cls-12" d="M340.75,131.17h2.72a1.59,1.59,0,0,1,1.59,1.59v4.12a1.59,1.59,0,0,1-1.59,1.59h-2.72v-2.2l1.39-1.42-1.39-1.44Z"/><path class="cls-13" d="M340.75,133.16a1.66,1.66,0,1,1,0,3.32Z"/><path class="cls-14" d="M404.52,102.46l1.81,8.93-8.24-3.93a22,22,0,0,1-9.84,2.31c-11.6,0-21-8.91-21-19.89s9.41-19.9,21-19.9,21,8.91,21,19.9A19.18,19.18,0,0,1,404.52,102.46Z"/><path class="cls-15" d="M398.8,86.85a3,3,0,1,0,3,3,3,3,0,0,0-3-3Zm-10.55,0a3,3,0,1,0,3,3,3,3,0,0,0-3-3Zm-10.56,0a3,3,0,1,0,3,3A3,3,0,0,0,377.69,86.85Z"/><path class="cls-16" d="M355.89,80.6l-2,9.69L362.87,86a23.76,23.76,0,0,0,10.68,2.51c12.59,0,22.8-9.67,22.8-21.6s-10.21-21.59-22.8-21.59-22.8,9.67-22.8,21.59A20.84,20.84,0,0,0,355.89,80.6Z"/><path class="cls-15" d="M360.83,63.19a3.66,3.66,0,1,1-3.66,3.66,3.66,3.66,0,0,1,3.66-3.66Zm12.72,0a3.66,3.66,0,1,1-3.65,3.66,3.66,3.66,0,0,1,3.65-3.66Zm12.73,0a3.66,3.66,0,1,1-3.65,3.66A3.65,3.65,0,0,1,386.28,63.19Z"/><path class="cls-17" d="M355.92,196.41A148.34,148.34,0,1,0,85.38,280.5H329.79A147.63,147.63,0,0,0,355.92,196.41Z"/><g class="cls-18"><path class="cls-3" d="M74.1,295.33H70.81a1,1,0,0,1-.81-.43c-.62-.9-1.24-1.81-1.84-2.73a1,1,0,1,1,1.64-1.09q.75,1.16,1.53,2.28H74.1a1,1,0,0,1,0,2Z"/><path class="cls-3" d="M334.57,295.33h-6.52a1,1,0,0,1,0-2h6.52a1,1,0,0,1,0,2Zm-13,0H315a1,1,0,1,1,0-2h6.51a1,1,0,1,1,0,2Zm-13,0H302a1,1,0,1,1,0-2h6.51a1,1,0,0,1,0,2Zm-13,0H289a1,1,0,0,1,0-2h6.51a1,1,0,1,1,0,2Zm-13,0H276a1,1,0,1,1,0-2h6.51a1,1,0,0,1,0,2Zm-13,0h-6.51a1,1,0,1,1,0-2h6.51a1,1,0,0,1,0,2Zm-13,0h-6.51a1,1,0,0,1,0-2h6.51a1,1,0,1,1,0,2Zm-13,0h-6.51a1,1,0,1,1,0-2h6.51a1,1,0,1,1,0,2Zm-13,0h-6.52a1,1,0,0,1,0-2h6.52a1,1,0,0,1,0,2Zm-13,0h-6.51a1,1,0,0,1,0-2h6.51a1,1,0,1,1,0,2Zm-13,0h-6.51a1,1,0,1,1,0-2h6.51a1,1,0,0,1,0,2Zm-13,0H184.8a1,1,0,1,1,0-2h6.51a1,1,0,0,1,0,2Zm-13,0h-6.51a1,1,0,0,1,0-2h6.51a1,1,0,1,1,0,2Zm-13,0h-6.51a1,1,0,1,1,0-2h6.51a1,1,0,0,1,0,2Zm-13,0h-6.52a1,1,0,0,1,0-2h6.52a1,1,0,0,1,0,2Zm-13,0H132.7a1,1,0,0,1,0-2h6.51a1,1,0,1,1,0,2Zm-13,0h-6.51a1,1,0,1,1,0-2h6.51a1,1,0,0,1,0,2Zm-13,0h-6.52a1,1,0,0,1,0-2h6.52a1,1,0,0,1,0,2Zm-13,0H93.63a1,1,0,0,1,0-2h6.51a1,1,0,1,1,0,2Zm-13,0H80.61a1,1,0,1,1,0-2h6.51a1,1,0,0,1,0,2Z"/><path class="cls-3" d="M344.36,295.33h-3.28a1,1,0,1,1,0-2h2.76q.78-1.12,1.53-2.28a1,1,0,1,1,1.64,1.09c-.6.92-1.22,1.83-1.84,2.73A1,1,0,0,1,344.36,295.33Z"/><path class="cls-3" d="M349.7,287.07a1,1,0,0,1-.51-.14,1,1,0,0,1-.33-1.35q1.68-2.79,3.26-5.65a1,1,0,0,1,1.73,1c-1.07,1.92-2.17,3.83-3.31,5.71A1,1,0,0,1,349.7,287.07Zm-284.34-.2a1,1,0,0,1-.85-.47q-1.7-2.82-3.3-5.72a1,1,0,0,1,1.73-.95q1.58,2.86,3.26,5.65a1,1,0,0,1-.34,1.35A.9.9,0,0,1,65.36,286.87ZM356,275.59a1,1,0,0,1-.44-.1,1,1,0,0,1-.44-1.33q1.45-2.91,2.81-5.88a1,1,0,0,1,1.79.81c-.91,2-1.85,4-2.84,6A1,1,0,0,1,356,275.59Zm-297-.21a1,1,0,0,1-.88-.54c-1-2-1.93-3.95-2.84-6a1,1,0,0,1,1.79-.81c.9,2,1.83,3.95,2.81,5.89a1,1,0,0,1-.44,1.32A1,1,0,0,1,59,275.38Zm302.42-11.73a1,1,0,0,1-.91-1.36q1.23-3,2.34-6.09a1,1,0,0,1,1.85.67c-.75,2.07-1.54,4.13-2.36,6.16A1,1,0,0,1,361.45,263.65Zm-307.82-.22a1,1,0,0,1-.91-.62c-.83-2-1.61-4.09-2.36-6.17a1,1,0,1,1,1.85-.66q1.11,3.07,2.33,6.09a1,1,0,0,1-.91,1.36ZM365.9,251.31a.71.71,0,0,1-.29-.05A1,1,0,0,1,365,250c.66-2.07,1.27-4.15,1.85-6.26a1,1,0,1,1,1.89.52q-.87,3.19-1.86,6.33A1,1,0,0,1,365.9,251.31Zm-316.71-.23a1,1,0,0,1-.93-.69c-.66-2.09-1.28-4.21-1.86-6.34a1,1,0,0,1,1.9-.51q.86,3.15,1.83,6.26a1,1,0,0,1-.64,1.23A1,1,0,0,1,49.19,251.08Zm320.17-12.42-.23,0a1,1,0,0,1-.73-1.18c.48-2.12.93-4.24,1.34-6.39a1,1,0,0,1,1.93.37q-.62,3.26-1.36,6.46A1,1,0,0,1,369.36,238.66Zm-323.6-.25a1,1,0,0,1-1-.76q-.73-3.21-1.34-6.46a1,1,0,1,1,1.93-.36c.4,2.14.85,4.27,1.33,6.38a1,1,0,0,1-.74,1.18A.82.82,0,0,1,45.76,238.41Zm326-12.64h-.14a1,1,0,0,1-.83-1.11c.31-2.15.59-4.3.83-6.47a1,1,0,0,1,1.08-.87,1,1,0,0,1,.87,1.08c-.24,2.2-.51,4.38-.84,6.54A1,1,0,0,1,371.79,225.77Zm-328.45-.25a1,1,0,0,1-1-.84q-.48-3.26-.83-6.55a1,1,0,0,1,.87-1.08,1,1,0,0,1,1.09.87q.34,3.26.82,6.48a1,1,0,0,1-.84,1.11ZM373.2,212.74h-.07a1,1,0,0,1-.91-1.05c.15-2.16.25-4.33.32-6.51a1,1,0,0,1,1-1h0a1,1,0,0,1,1,1c-.07,2.2-.18,4.4-.33,6.58A1,1,0,0,1,373.2,212.74ZM42,212.48a1,1,0,0,1-1-.92q-.22-3.28-.31-6.6a1,1,0,0,1,1-1,1.07,1.07,0,0,1,1,1q.09,3.27.3,6.51a1,1,0,0,1-.91,1.05Zm331.64-12.85a1,1,0,0,1-1-1q0-3.28-.19-6.52a1,1,0,0,1,.94-1,1,1,0,0,1,1,.94q.17,3.27.19,6.59a1,1,0,0,1-1,1Zm-332-.27h0a1,1,0,0,1-1-1c0-2.21.09-4.4.2-6.59a1,1,0,1,1,2,.1q-.17,3.24-.2,6.51A1,1,0,0,1,41.59,199.36ZM373,186.53a1,1,0,0,1-1-.89q-.29-3.27-.7-6.48a1,1,0,0,1,.85-1.11,1,1,0,0,1,1.11.85c.28,2.18.51,4.36.7,6.56a1,1,0,0,1-.89,1.07Zm-330.71-.27h-.09a1,1,0,0,1-.89-1.07q.3-3.3.72-6.56a1,1,0,0,1,1.1-.85,1,1,0,0,1,.85,1.1c-.28,2.15-.51,4.31-.71,6.48A1,1,0,0,1,42.24,186.26Zm329.05-12.73a1,1,0,0,1-1-.83c-.37-2.14-.77-4.28-1.21-6.4a1,1,0,1,1,1.92-.4q.68,3.21,1.23,6.48a1,1,0,0,1-.81,1.13Zm-327.36-.28h-.17a1,1,0,0,1-.81-1.13q.55-3.27,1.23-6.48a1,1,0,1,1,1.93.4c-.45,2.12-.85,4.26-1.22,6.4A1,1,0,0,1,43.93,173.25Zm324.68-12.56a1,1,0,0,1-1-.74c-.52-2.12-1.1-4.21-1.71-6.3a1,1,0,0,1,1.89-.55q.93,3.17,1.74,6.37a1,1,0,0,1-.72,1.19Zm-322-.27a1.07,1.07,0,0,1-.25,0,1,1,0,0,1-.71-1.19c.54-2.14,1.13-4.26,1.74-6.37a1,1,0,0,1,1.23-.66,1,1,0,0,1,.66,1.22q-.91,3.12-1.72,6.29A1,1,0,0,1,46.63,160.42Zm318.29-12.31a1,1,0,0,1-.93-.67q-1-3.1-2.22-6.15a1,1,0,0,1,1.84-.71c.78,2.06,1.53,4.13,2.24,6.23a1,1,0,0,1-.62,1.25A1.12,1.12,0,0,1,364.92,148.11Zm-314.58-.26a1.25,1.25,0,0,1-.32,0,1,1,0,0,1-.61-1.25q1.06-3.13,2.24-6.21a1,1,0,0,1,1.28-.56,1,1,0,0,1,.56,1.27c-.78,2-1.52,4.07-2.22,6.13A1,1,0,0,1,50.34,147.85ZM55,135.62a.91.91,0,0,1-.39-.08,1,1,0,0,1-.52-1.29q1.3-3,2.73-6a1,1,0,1,1,1.77.85Q57.24,132,55.94,135A1,1,0,0,1,55,135.62Zm5.65-11.8a1,1,0,0,1-.46-.11,1,1,0,0,1-.41-1.33q1.53-2.92,3.18-5.76a1,1,0,0,1,1.71,1q-1.63,2.82-3.15,5.7A1,1,0,0,1,60.69,123.82Zm6.56-11.33a1,1,0,0,1-.53-.15,1,1,0,0,1-.3-1.36q1.77-2.79,3.63-5.49a1,1,0,0,1,1.37-.25,1,1,0,0,1,.25,1.36c-1.23,1.79-2.42,3.6-3.59,5.44A1,1,0,0,1,67.25,112.49Zm7.44-10.78a1,1,0,0,1-.59-.19,1,1,0,0,1-.2-1.38c1.32-1.76,2.68-3.49,4.06-5.2a1,1,0,0,1,1.53,1.25q-2.05,2.52-4,5.13A1,1,0,0,1,74.69,101.71ZM83,91.54a1,1,0,0,1-.65-.24,1,1,0,0,1-.09-1.39c1.46-1.65,2.94-3.27,4.46-4.86a1,1,0,1,1,1.42,1.36q-2.23,2.36-4.4,4.8A1,1,0,0,1,83,91.54Zm240.26-9.43a.94.94,0,0,1-.68-.28q-2.34-2.27-4.77-4.45a1,1,0,1,1,1.31-1.46q2.46,2.2,4.83,4.5a1,1,0,0,1-.69,1.69ZM92,82.05a1,1,0,0,1-.7-.3,1,1,0,0,1,0-1.39q2.37-2.3,4.83-4.5a1,1,0,0,1,1.31,1.47Q95,79.51,92.69,81.78A1,1,0,0,1,92,82.05Zm221.46-8.7a1,1,0,0,1-.62-.22q-2.5-2.09-5.1-4.06a1,1,0,1,1,1.19-1.56q2.63,2,5.16,4.1a1,1,0,0,1-.63,1.74Zm-211.68,0a1,1,0,0,1-.76-.36,1,1,0,0,1,.13-1.39q2.53-2.1,5.16-4.1a1,1,0,0,1,1.2,1.56q-2.6,2-5.11,4.06A1,1,0,0,1,101.78,73.3Zm201.28-7.91a.92.92,0,0,1-.57-.18c-1.77-1.24-3.57-2.46-5.4-3.64a1,1,0,1,1,1.07-1.65q2.77,1.78,5.46,3.68a1,1,0,0,1,.24,1.38A1,1,0,0,1,303.06,65.39ZM112.2,65.33a1,1,0,0,1-.8-.42,1,1,0,0,1,.24-1.37c1.8-1.26,3.62-2.49,5.48-3.69a1,1,0,1,1,1.06,1.65c-1.82,1.18-3.63,2.4-5.41,3.65A1,1,0,0,1,112.2,65.33Zm179.86-7a.93.93,0,0,1-.5-.14q-2.81-1.65-5.67-3.2a1,1,0,0,1-.4-1.33,1,1,0,0,1,1.34-.4q2.9,1.56,5.73,3.24a1,1,0,0,1-.5,1.83Zm-168.83-.07a1,1,0,0,1-.85-.48,1,1,0,0,1,.35-1.35c1.9-1.12,3.81-2.21,5.75-3.25a1,1,0,0,1,1.34.4,1,1,0,0,1-.4,1.33q-2.88,1.56-5.69,3.21A.9.9,0,0,1,123.23,58.21Zm157.31-6.15a1,1,0,0,1-.43-.1c-1.95-1-3.91-1.87-5.9-2.74a1,1,0,0,1,.8-1.81q3,1.34,6,2.78a1,1,0,0,1,.45,1.32A1,1,0,0,1,280.54,52.06ZM134.8,52a1,1,0,0,1-.44-1.87c2-1,4-1.89,6-2.78a1,1,0,1,1,.79,1.8c-2,.88-4,1.79-5.92,2.75A1,1,0,0,1,134.8,52Zm133.78-5.2a1.1,1.1,0,0,1-.36-.07q-3-1.2-6.12-2.28a1,1,0,0,1,.65-1.86q3.13,1.09,6.19,2.31a1,1,0,0,1-.36,1.9Zm-121.76-.1a1,1,0,0,1-.91-.62,1,1,0,0,1,.55-1.28q3.07-1.2,6.21-2.3a1,1,0,0,1,1.25.61,1,1,0,0,1-.61,1.25q-3.09,1.08-6.13,2.27A.92.92,0,0,1,146.82,46.68ZM256.2,42.44a1,1,0,0,1-.29,0c-2.07-.63-4.16-1.23-6.27-1.78a1,1,0,0,1,.5-1.91c2.13.56,4.25,1.17,6.35,1.81a1,1,0,0,1-.29,1.92Zm-97-.08a1,1,0,0,1-.28-1.93c2.1-.64,4.21-1.23,6.35-1.79a1,1,0,1,1,.49,1.91c-2.1.55-4.2,1.14-6.27,1.77A.92.92,0,0,1,159.24,42.36Zm84.28-3.25-.22,0q-3.17-.71-6.39-1.28a1,1,0,1,1,.35-1.94q3.26.59,6.47,1.29a1,1,0,0,1,.75,1.18A1,1,0,0,1,243.52,39.11Zm-71.59-.06a1,1,0,0,1-1-.77,1,1,0,0,1,.75-1.18c2.14-.47,4.3-.89,6.47-1.28a1,1,0,1,1,.35,1.94q-3.22.57-6.4,1.27Zm58.68-2.25h-.14q-3.21-.45-6.47-.77a1,1,0,0,1-.89-1.08,1,1,0,0,1,1.08-.88c2.2.22,4.38.47,6.55.78a1,1,0,0,1,.84,1.11A1,1,0,0,1,230.61,36.8Zm-45.77,0a1,1,0,0,1-1-.85,1,1,0,0,1,.84-1.11c2.17-.3,4.36-.56,6.55-.77a1,1,0,0,1,1.08.88,1,1,0,0,1-.89,1.08q-3.25.32-6.47.76Zm32.72-1.25h-.06c-2.16-.12-4.33-.21-6.51-.25a1,1,0,0,1-1-1,1,1,0,0,1,1-1q3.31.06,6.6.26a1,1,0,0,1-.06,2Zm-19.67,0a1,1,0,0,1-1-.93,1,1,0,0,1,.93-1c2.18-.12,4.38-.21,6.59-.25a1,1,0,0,1,0,2q-3.28.06-6.52.25Z"/></g><path class="cls-2" d="M255.82,4.3H184.28a6.94,6.94,0,0,0-6.92,6.92v5.22C168,21.69,162,30.13,162,39.68c0,9.89,4,18.08,12.25,23.18L163.49,84.94l28.37-16.67a65.44,65.44,0,0,0,7.67.26,51.09,51.09,0,0,0,9.72-1.15h18.2l29.89,17.56-8.52-17.56h7a6.94,6.94,0,0,0,6.92-6.92V11.22A6.94,6.94,0,0,0,255.82,4.3Z"/><path class="cls-19" d="M223.15,63.08,253,80.64l-8.52-17.56h7a6.94,6.94,0,0,0,6.92-6.92V6.92A6.94,6.94,0,0,0,251.52,0H180a6.94,6.94,0,0,0-6.92,6.92V56.16A6.94,6.94,0,0,0,180,63.08Z"/><path class="cls-15" d="M180.75,11.67h70v2.05h-70V11.67Zm0,39.49h70v2.05h-70V51.16Zm0-8.21h70v2h-70V43Zm0-7.82h70v2h-70v-2Zm0-7.82h70v2.05h-70V27.31Zm0-7.95h70v2.05h-70Z"/><path class="cls-20" d="M187.56,64,159.19,80.64l10.72-22.08c-8.2-5.09-12.25-13.29-12.25-23.17,0-15.94,16.82-28.85,37.57-28.85s37.56,12.91,37.56,28.85S216,63.81,195.23,64.23A65.52,65.52,0,0,1,187.56,64Z"/><path class="cls-15" d="M178.05,30a4.88,4.88,0,1,1-4.88,4.88A4.87,4.87,0,0,1,178.05,30Zm17,0a4.88,4.88,0,1,1-4.87,4.88A4.87,4.87,0,0,1,195,30Zm17,0a4.88,4.88,0,1,1-4.87,4.88A4.87,4.87,0,0,1,212,30Z"/><path class="cls-2" d="M411.26,266.87H391.32a69.5,69.5,0,0,0-.54-8.45,5.77,5.77,0,0,0-2.82-3.29c-1.72-.85-3.9-.86-6-.92,0,0,0,0,0,0-3-1.31-3.2-1.56-5.63-3.81v0a1.42,1.42,0,0,0-1-.59,9.12,9.12,0,0,1-.17-1,60.23,60.23,0,0,1,3.16-7.41l.1-.08a9.19,9.19,0,0,0,2.24-3.8,2.1,2.1,0,0,0,1.35-1.37l1-3.26a2.16,2.16,0,0,0-.81-2.38,26.33,26.33,0,0,0,.32-4,9.66,9.66,0,0,0-1.71-8.06c-1.6-2-4.1-2.81-6-1.68v0c-4-3-10.41-2.69-14.79,1.32-3.69,3.39-3.89,9.07-2.43,13.52a2.15,2.15,0,0,0-.06,1.21l.93,3.29a2,2,0,0,0,.68,1,7.1,7.1,0,0,0,1.31,3.23,6.46,6.46,0,0,1-.89-2.91c.1.05.21.07.31.11,1.76,3.73,4,6.62,5.8,11.43,0,.29-.05.56-.08.83a1.37,1.37,0,0,0-.82.61v-.05c-2.43,2.25-2.58,2.48-5.63,3.79l.36.32c-.88.11-1.78.2-2.59.28-2.88,0-4.28.82-5.36,3.48-.63,1.54-.82,8.84-.8,12h14.6c0,.14,0,.27,0,.42v26.84a3.77,3.77,0,0,0,2.62,3.57l-9.55,3.18,14.29,3.9v6.44c-1.9-1.06-4.72-1.37-8.82-1.31-1,0-2.12,0-3.33,0a26.78,26.78,0,0,1-8.22-2c-.27-.11-.54-.2-.79-.31-.41-.17-.79-.36-1.17-.54s-.47-.2-.68-.31c-.43-.22-.82-.45-1.2-.67l-.42-.23c-.38-.24-.69-.48-1-.72v-.06h-.08l.09-.16a5.78,5.78,0,0,1-2.53-4.47l0,0a21.94,21.94,0,0,1,.19-6.76,5.19,5.19,0,0,0,1.52-1.78c.71-1.73.59-3.63.87-6.09,1.26.54,2.59-3,2.86-4.19.4-1.77,1.67-4.79,2.07-6.81.23-1.16.09-2.09-.3-2.38-.82-.61-1.67-.27-2.89,1.37v-.08c2.06-9.58,3.74-19.74-3.13-23.54-.62-1.77-13.21-7.81-23.34-.2-6.75,5.08-6.12,12.77-3.48,23.27l0,.59c-1.23-1.68-2.09-2-2.92-1.41-.39.29-.53,1.22-.3,2.38.4,2,1.67,5,2.07,6.81.27,1.2,1.63,4.81,2.9,4.16.31,2.55.17,4.5.9,6.25a5.8,5.8,0,0,0,1.72,1.93,27.55,27.55,0,0,1,.28,4.86c0,.6-.09,1.19-.17,1.76-.05,0-.13-.11-.17-.16a5.8,5.8,0,0,1-2.53,4.47l.09.16a11.22,11.22,0,0,1-1.08.78c-.14.08-.31.16-.45.25-.37.22-.75.44-1.17.65-.23.12-.49.23-.74.34s-.72.35-1.11.51l-.83.32a28.47,28.47,0,0,1-7.59,1.94c-1.1,0-2.1,0-3,0-9.86-.25-12.68,1.26-13.43,9.26,0,.34-.06,13.86-.07,18.78h85.21c0-4.95,0-18.44-.05-18.78a16.9,16.9,0,0,0-1-4.87l.27,0h30.39a2.94,2.94,0,0,0,2.94-2.94V301.26h2.19a3.78,3.78,0,0,0,3.77-3.77V270.65A3.79,3.79,0,0,0,411.26,266.87Z"/><path class="cls-21" d="M341,302.31c1.34,3.55,10.49,6.91,14.56,6.73,11.3-.49,13.8.94,14.29,11.18,0,.43.05,1.71.08,3.46A55.26,55.26,0,0,1,350.46,337H308.87a55.21,55.21,0,0,1-18.06-11.93c0-2.21,0-3.84,0-4.32.43-10.75,2.82-12.24,14.33-11.74,3.54.16,12.43-4.08,13.4-6.73a20,20,0,0,0,.4-9.73l10.81.21,10.81-.21A19.67,19.67,0,0,0,341,302.31Z"/><polygon class="cls-15" points="316.74 304.29 329.73 305.68 342.87 304.2 341.66 337.03 318.09 337.03 316.74 304.29"/><path class="cls-21" d="M317.14,284.05l.63-7.46a16.56,16.56,0,0,1-2.48-2.7c-1.58-2.46-2.58-3-3.54-2.31-.39.3-.53,1.22-.3,2.38.4,2,1.67,5,2.07,6.81C313.85,282.2,315.71,287.08,317.14,284.05Z"/><path class="cls-21" d="M342.15,284.05l-.63-7.46a16.56,16.56,0,0,0,2.48-2.7c1.58-2.46,2.58-3,3.54-2.31.39.3.53,1.22.3,2.38-.4,2-1.67,5-2.07,6.81C345.44,282.2,343.58,287.08,342.15,284.05Z"/><path class="cls-22" d="M318.4,303.34c1,.26,1.77,6.45,5.52,5.34,1.89-3.92,3.78-7.17,6.59-8.21,2-.73,3.29-.68,4.91-2,1.27-1,2.89-3.24,4.87-4.65a10.36,10.36,0,0,1,.28-1.29l-10.81.21L319,292.58C319.23,293.85,319.9,299.5,318.4,303.34Z"/><path class="cls-21" d="M329.93,299.07h-.19a11,11,0,0,1-4.58-.54c-1.18-.5-1.75-1.66-3.38-3.22-1.38-1.33-3.85-2.69-4.46-4.14-.83-2-.5-4.17-1-7.25-.41-2.45-1.56-4.63-1.7-7.09-.14-2.65.29-5.32.2-8.32a38.56,38.56,0,0,1,.19-7.41,8.7,8.7,0,0,1,2.87-5.32h0a15,15,0,0,1,3.15-2.12h0l.23-.11.12-.07.19-.08.17-.08.2-.08.17-.08.25-.09.12-.05.36-.14h0a20.51,20.51,0,0,1,9.88-.94,16.89,16.89,0,0,1,8.71,3.83,8.76,8.76,0,0,1,2.86,5.3,39.1,39.1,0,0,1,.2,7.39c-.09,3,.35,5.65.21,8.29-.14,2.45-1.29,4.63-1.69,7.08-.5,3.07-.18,5.24-1,7.23-.61,1.45-3.07,2.83-4.44,4.17-1.61,1.58-2.18,2.74-3.36,3.26A10.18,10.18,0,0,1,329.93,299.07Z"/><path class="cls-23" d="M340.35,299.57a5.78,5.78,0,0,0,2.53,4.47l-6.49,11.09-6.87-9.61C332.93,303.64,339,301.29,340.35,299.57Z"/><path class="cls-23" d="M319,299.57a5.8,5.8,0,0,1-2.53,4.47l6.49,11.09,6.87-9.61C326.4,303.64,320.31,301.29,319,299.57Z"/><path class="cls-13" d="M342.59,304.06c2.92,2.46,10.49,5.14,14.44,5,11.29-.45,14.39.75,15.18,9.21,0,.34.05,13.83.05,18.78H333.43C336.26,326.43,340.08,311.5,342.59,304.06Z"/><path class="cls-13" d="M316.74,304.06c-2.92,2.46-10.49,5.14-14.44,5-11.29-.45-14.39.75-15.18,9.21,0,.34-.05,13.86-.07,18.78h38.88C323.07,326.32,319.21,311.38,316.74,304.06Z"/><polygon class="cls-19" points="329.97 305.98 333.35 310.95 333.26 312.21 330.48 315.04 333.6 320.06 332.55 337.03 326.9 337.03 325.73 320.03 328.85 315.02 326.07 312.19 325.98 310.93 329.35 305.96 329.97 305.98"/><polygon class="cls-24" points="329.97 305.98 333.35 310.95 333.26 312.21 330.48 315.04 333.6 320.06 332.55 337.03 329.67 337.03 329.67 305.97 329.97 305.98"/><path class="cls-9" d="M342.59,304.06a23.19,23.19,0,0,0,6.64,3.41l-.13.1.34,14.16-6.07-.67,3.54,4.72L342,337h-8.51C336.3,326.4,340.09,311.46,342.59,304.06Z"/><path class="cls-9" d="M316.74,304.06a23.19,23.19,0,0,1-6.64,3.41l.13.1-.34,14.16,6.07-.67-3.54,4.72L317.77,337h8.1C323,326.34,319.22,311.4,316.74,304.06Z"/><path class="cls-25" d="M318.73,260c-1.05,1.25-3.15,8.82-2.8,17.06-3.55-12.89-5.46-22.09,2.26-27.89,10.12-7.6,22.71-1.57,23.33.2,7.44,4.11,4.85,15.68,2.62,25.89-.07-5.12-1.15-11.48-3.72-16-.61-.59-1.31-.94-1.87-.71C315.29,268.32,319.65,258.85,318.73,260Z"/><path class="cls-25" d="M370.06,212.9c1.9-1.71,4.78-.93,6.55,1.28a9.66,9.66,0,0,1,1.71,8.06c-.05,11.26-6.72,16.08-8.62,27.2l-7.31-2.13c-2.58-8.66-6.53-11.47-8.49-19-3-11.68,3-15.14,9.68-14.45,2.07.22,4.29.34,6.36.65a9.47,9.47,0,0,0-.82-1.18Z"/><path class="cls-26" d="M360.25,246.78c.44-1,.75-1.31,1.89-1.36l.62,2.06-1.43,1.13-1.13-.15Z"/><path class="cls-26" d="M372.51,246.78c-.44-1-.75-1.31-1.89-1.36l-.62,2.06,1.42,1.13,1.14-.15Z"/><path class="cls-21" d="M360.87,239.16c1,3.83.86,7.87-.55,9.69-.36.46-1.87.82-3.46,1.12-2.16.41-4.88.73-6.05,1-3.3.69-3.71,5-3.54,6.72.23,2.27,2.29,1.89,2.88,3.78a20.05,20.05,0,0,1,.43,2.52,34.56,34.56,0,0,0,4.33,2h23.83c.84-.32,1.67-.66,2.48-1l.53-4.21,5-3.48c-.09-8.12-8.19-6-12.39-7.73-3.44-1.39-3.74-4.28-3.46-10.18Z"/><path class="cls-20" d="M387.07,265.93c0-3.27-.22-10.4-.59-11.81a5.77,5.77,0,0,0-2.82-3.29c-2.31-1.14-5.44-.77-8-1a7.35,7.35,0,0,1-1-.32c-1.51-.61-2-2-2.53-3.37.39,4.23-1.51,13.26-3.18,19.83Z"/><path class="cls-20" d="M364.83,265.93c-2-6.46-4.43-14-4.25-18.28,0,.14,0-.88,0-.75-.71,2.21-1.43,2.64-3.72,3.07-1.27.24-2.83.38-4.12.5-2.88.05-4.28.82-5.36,3.48-.63,1.54-.82,8.84-.8,12Z"/><path class="cls-26" d="M360.6,246.08c-2.43,2.25-2.58,2.48-5.63,3.79,1.61,1.51,3.25,2.94,4.91,4.4l-3.53,1c1.22,2.41,3.66,7.28,5.36,10.64h3.14C363.25,260.5,361,252.58,360.6,246.08Z"/><path class="cls-26" d="M372.11,246.06c2.43,2.25,2.59,2.5,5.63,3.81-1.61,1.51-3.25,2.94-4.91,4.4l3.53,1c-1.31,2.59-2.83,7.26-4.24,10.64H368.9A124.51,124.51,0,0,0,372.11,246.06Z"/><path class="cls-21" d="M356.32,226.42c-.94-1.4-2-.45-1.7,1.24.28,1.38.92,3,1.27,4.52.24,1.07.63,1.84,1.57,1.64l-.1-4.49Z"/><path class="cls-27" d="M355.75,226.61c-.44-.32-.77-.08-.86.44-.13.76.62,2.22.86,3.11-.07-1.23-.82-2.43-.67-3.09.1-.41.43-.48.76-.11Z"/><path class="cls-21" d="M375.83,226.42c.93-1.4,2-.45,1.69,1.24-.28,1.38-.91,3-1.27,4.52-.24,1.07-.62,1.84-1.57,1.64l.1-4.49Z"/><path class="cls-21" d="M369.91,241.26a15.2,15.2,0,0,0,3.12-3.74c1.29-2.09,1.8-3.52,2.34-7.13a26.69,26.69,0,0,0,.3-8.24c-.88-5.06-4.21-8.91-9.6-8.89-6,0-8.88,2.39-9.75,8.09a23.73,23.73,0,0,0,.29,9.27c.7,3.48,1.3,5.44,2.78,7.52a15.75,15.75,0,0,0,2.6,3c1.91,1.66,2.94,2.4,4,2.4S368.21,242.77,369.91,241.26Z"/><path class="cls-25" d="M354.92,230.6c-2.82-4.48-3.76-12.49.93-16.8,4.38-4,10.82-4.32,14.79-1.32-.29.09,2.68,2.64,3.6,4,.46.64.18.78-.16.8,2.05,3.79,3.27,4.7,2.74,7.57-.21,1.11-1,3.94-1.62,6.09a55.76,55.76,0,0,0,.47-5.65c.14-3.09-1.57-5.61-2-7.73v-.28h0a7.81,7.81,0,0,1-2.14,2.2c-2.07,2-5,3-7.41,3.94a26.63,26.63,0,0,0-4.71,2.94,5.91,5.91,0,0,0-2.35,5.09,6.34,6.34,0,0,1-.74-1.87,6.19,6.19,0,0,0-.05,6.53A7.35,7.35,0,0,1,354.92,230.6Z"/><path class="cls-26" d="M353.58,259.85c-1.66.89-2.88,3.21-3.06,6.08h1.42A17.88,17.88,0,0,1,353.58,259.85Z"/><path class="cls-26" d="M380.4,259.85c1.66.89,2.89,3.21,3.06,6.08H382A17.66,17.66,0,0,0,380.4,259.85Z"/><path class="cls-19" d="M354.67,228.48v-6.73a9.15,9.15,0,0,1,9.13-9.12h4.59a9.15,9.15,0,0,1,9.13,9.12v6.57h-1v-6.57a8.16,8.16,0,0,0-8.14-8.13H363.8a8.16,8.16,0,0,0-8.14,8.13v6.73Z"/><path class="cls-19" d="M376.89,230.6a9.15,9.15,0,0,1-9.13,9.12v-1a8.14,8.14,0,0,0,8.13-8.13Z"/><rect class="cls-28" x="366.38" y="237.54" width="5.36" height="2.84" rx="1.29" transform="translate(-44.24 88.98) rotate(-12.98)"/><path class="cls-24" d="M377.37,225.88a2.19,2.19,0,0,1,1.44,2.73l-1,3.26a2.2,2.2,0,0,1-2.73,1.45C373.78,232.92,375.82,225.57,377.37,225.88Z"/><path class="cls-24" d="M354.88,225.84a2.18,2.18,0,0,0-1.51,2.69l.92,3.29a2.18,2.18,0,0,0,2.68,1.51C358.28,233,356.43,225.57,354.88,225.84Z"/><path class="cls-29" d="M374.21,262.57l-7.55-11.51-.08,11.51h-1.66a3.79,3.79,0,0,0-3.78,3.78v26.84a3.79,3.79,0,0,0,3.78,3.78h42a3.79,3.79,0,0,0,3.77-3.78V266.35a3.79,3.79,0,0,0-3.77-3.78Z"/><path class="cls-30" d="M364.87,267.68H407v1.2H364.87v-1.2Zm0,23H407v1.2H364.87v-1.2Zm0-4.77H407v1.19H364.87v-1.19Zm0-4.55H407v1.19H364.87v-1.19Zm0-4.56H407V278H364.87v-1.2Zm0-4.62H407v1.19H364.87Z"/><path class="cls-19" d="M368.5,295.18l-14.29,4.76,14.29,3.9v6.63a2.94,2.94,0,0,0,2.94,2.94h30.39a2.94,2.94,0,0,0,2.94-2.94V289.56a2.94,2.94,0,0,0-2.94-2.94H371.44a2.94,2.94,0,0,0-2.94,2.94Z"/><path class="cls-15" d="M377.48,297.39a2.63,2.63,0,1,1-2.63,2.62,2.62,2.62,0,0,1,2.63-2.62Zm9.16,0A2.63,2.63,0,1,1,384,300a2.62,2.62,0,0,1,2.63-2.62Zm9.15,0a2.63,2.63,0,1,1-2.62,2.62A2.62,2.62,0,0,1,395.79,297.39Z"/><path class="cls-2" d="M277.89,236.76C274.53,230.07,267.44,225,258.7,223l-28.44-8.31-3.19-1.86a53.59,53.59,0,0,1-.77-6.9h0a48.63,48.63,0,0,1,.06-5.44,42.21,42.21,0,0,0,8-8.2,23.57,23.57,0,0,0,11.78-15.46,4.91,4.91,0,0,0,3.8-4c3.87-1,6.81-5.69,6.81-11.34s-3.08-10.53-7.08-11.38a4.89,4.89,0,0,0-2.13-2.44c-.07-2.21-.22-4.48-.48-6.78.28-10.85-1-23.1-8.06-23.19-.48-.66-1-1.3-1.5-1.91-4.18-12.53-16.86-21-35-14.45-21.26,7.65-28.26,7.92-28.26,7.92a59.64,59.64,0,0,0,7.27,10.26c-4.6,4.92-4.43,18.73-3.69,28.21a4.85,4.85,0,0,0-2,2.38c-4,.85-7.09,5.6-7.09,11.38s2.94,10.34,6.81,11.34A4.94,4.94,0,0,0,180.4,177h.1a4.88,4.88,0,0,0,2.34-.61V174.5c.2-.1.41-.18.6-.29a82.22,82.22,0,0,0,4.28,12.58c2.26,5.24,6.66,10.24,11.46,13.9a47.66,47.66,0,0,1,0,5.47h0a53.11,53.11,0,0,1-.79,6.87l-2.64,1.55L167.12,223c-8.75,2-15.84,7-19.19,13.74,0,0-10.07,32.9-4,35.66a117.2,117.2,0,0,0,36.23,9.51,321.84,321.84,0,0,0,65.39,0,117.33,117.33,0,0,0,36.24-9.51C288,269.66,277.89,236.76,277.89,236.76Zm-40.77-48.83c.19-.38.39-.76.56-1.14a59.45,59.45,0,0,0,4.3-12.64c.23.13.47.25.71.36v1.85a4.93,4.93,0,0,0,1.3.47A21,21,0,0,1,237.12,187.93Z"/><path class="cls-31" d="M222.32,193.8h-27.7s4.23,24.07-15.93,44l28.45,34.36h2.66l28.44-34.36C218.09,217.87,222.32,193.8,222.32,193.8Z"/><path class="cls-3" d="M193.12,213.26a53.9,53.9,0,0,1-14.43,24.51l28.45,34.36h2.66l28.44-34.36a53.9,53.9,0,0,1-14.43-24.51l-15.2,8.4Z"/><path class="cls-32" d="M193.12,213.26c-2.05,7.59,13.4,19.49,13.4,19.49l-7.72,39.38,9.67,5.8,9.64-5.8L210.85,233s15-12.11,13-19.7l-15.2,8.4Z"/><path class="cls-33" d="M222.32,193.8h-27.7a40.65,40.65,0,0,1,.3,8.06c4.75,2.39,9.54,3.85,13.39,3.85s8.86-1.56,13.7-4.06A39.81,39.81,0,0,1,222.32,193.8Z"/><path class="cls-31" d="M245,148.31c-1.07-2.75-2.94-1.33-4.39.49.42-21.4-10.88-32.27-10.88-32.27H187.25s-11.38,10.84-11,32.11c-1.44-1.74-3.23-3-4.26-.33-1.93,5,2.6,11.79,1.73,18.7-.58,4.67,3.1,4.2,5.43,2.9a82.22,82.22,0,0,0,4.28,12.58c4.44,10.32,17.17,19.72,25,19.72s20.36-9.48,25-19.72a59.94,59.94,0,0,0,4.29-12.64c2.33,1.35,6.14,1.91,5.54-2.84C242.36,160.1,246.89,153.29,245,148.31Z"/><path class="cls-34" d="M234,114.32s-38.88,34.82-64-9.31c0,0,7-.27,28.25-7.92C217.7,90.09,230.89,100.32,234,114.32Z"/><path class="cls-34" d="M231.62,114.09l-9,2.34c1.18,2.21,7.21,9.56,10.54,18.52,3.12,8.4,3.6,18.22,3.27,26.54l1.65-2.81a31.4,31.4,0,0,0,4.2-13.12C243.42,133,244.05,109.27,231.62,114.09Z"/><path class="cls-34" d="M177.93,158.68l1.65,2.81c-.33-8.32.15-18.14,3.27-26.54,3.33-9,9.36-16.31,10.54-18.52l-9-2.34c-12.43-4.82-11.8,18.88-10.64,31.47A31.54,31.54,0,0,0,177.93,158.68Z"/><polygon class="cls-35" points="230.84 217.68 222.76 212.97 208.61 221.66 194.45 212.97 186.37 217.68 200.28 237.41 208.61 225.04 216.93 237.41 230.84 217.68"/><path class="cls-36" d="M177.65,149.14c-.23-8.67.67-19.36,5.12-27.79,5-9.53,13.69-14.41,25.7-14.41s20.67,4.88,25.69,14.41c4.45,8.43,5.35,19.12,5.12,27.79h4c.28-9.59-.73-21.56-5.83-31.3-5.81-11.09-15.59-16.79-29-16.79s-23.2,5.7-29,16.79c-5.1,9.74-6.12,21.71-5.84,31.3Z"/><path class="cls-36" d="M175.51,146.32a6.28,6.28,0,0,0-2.72-.64c-4.61,0-8.34,5.18-8.34,11.56s3.73,11.56,8.34,11.56a6.28,6.28,0,0,0,2.72-.64Z"/><path class="cls-28" d="M178.54,143.36a4.87,4.87,0,0,0-2.33-.61h-.11a4.93,4.93,0,0,0-4.93,4.93v20a4.94,4.94,0,0,0,4.93,4.94h.11a4.87,4.87,0,0,0,2.33-.61Z"/><path class="cls-36" d="M242.54,168.16h-2.21c0,.82-.33,19.26-23.05,21.16a2.37,2.37,0,0,0-2-1.09h-8.66a2.39,2.39,0,0,0-2.4,2.39v0a2.39,2.39,0,0,0,2.4,2.39h8.66a2.36,2.36,0,0,0,2.22-1.55C242.18,189.38,242.54,168.39,242.54,168.16Z"/><path class="cls-36" d="M241.43,146.32a6.2,6.2,0,0,1,2.71-.64c4.61,0,8.35,5.18,8.35,11.56s-3.74,11.56-8.35,11.56a6.2,6.2,0,0,1-2.71-.64Z"/><path class="cls-28" d="M238.39,143.36a4.88,4.88,0,0,1,2.34-.61h.1a4.94,4.94,0,0,1,4.94,4.93v20a4.94,4.94,0,0,1-4.94,4.94h-.1a4.88,4.88,0,0,1-2.34-.61Z"/><polygon class="cls-3" points="208.61 221.66 216.93 232.99 230.84 213.26 222.76 208.55 208.61 221.66"/><polygon class="cls-3" points="208.61 221.66 200.28 232.99 186.37 213.26 194.45 208.55 208.61 221.66"/><path class="cls-36" d="M273.59,232.46c-3.36-6.69-10.45-11.76-19.19-13.74l-29.12-8.51s1.37,13.61-5,33.07c-5.1,15.64-11.75,31.85-11.75,31.85a331.06,331.06,0,0,1-11.77-31.86c-5.87-19.45-5.06-33.06-5.06-33.06l-28.89,8.51c-8.75,2-15.84,7.05-19.19,13.74,0,0-10.07,32.9-3.95,35.66a117.2,117.2,0,0,0,36.23,9.51,321.94,321.94,0,0,0,65.4,0,117.27,117.27,0,0,0,36.23-9.51C283.65,265.36,273.59,232.46,273.59,232.46Z"/><path class="cls-2" d="M94.13,113.15c0-13.18-8.43-22.13-20-23.51l0-.46a1,1,0,0,0-.85-1l-2.37-.22a1,1,0,0,0-1,.85l-.07.72c-6.36.22-11,2.17-14.39,4.9-12.24,2.49-16.07,12.8-17.32,18.69-2.38,4.09-10.22,12.52-5.56,13,2.3.24,3.33.31,4.91.41.08,1.58.13,2.6.3,4.52l4.37.34L38,134.08c.2,1.93.45,4,.78,6.17.43,2.93,6.76,3.19,14.79,3.2v16.18L63,157v1.29l29.06-8-5.9-17.85C89.81,127.91,94.13,119.68,94.13,113.15Z"/><path class="cls-5" d="M57.68,118.83A9.85,9.85,0,1,1,47.83,109,9.85,9.85,0,0,1,57.68,118.83Z"/><path class="cls-5" d="M50.12,112.35,48,112.14a.86.86,0,0,1-.78-.94l1.6-16.68a.87.87,0,0,1,.95-.78l2.17.21a.86.86,0,0,1,.78.94l-1.6,16.68A.87.87,0,0,1,50.12,112.35Z"/><path class="cls-5" d="M55.28,118.83a7.46,7.46,0,1,1-7.45-7.45A7.46,7.46,0,0,1,55.28,118.83Z"/><path class="cls-36" d="M80.39,113.55c0-13.69-9.52-22.64-22.15-22.64-16.87,0-21.66,12.51-23.09,19.24-2.38,4.09-10.22,12.52-5.56,13,2.3.24,3.33.31,4.91.41.07,1.58.13,2.6.3,4.52l4.37.34-4.09,2.72c.2,1.93.45,4,.78,6.17.42,2.93,6.76,3.19,14.79,3.2V156.7l27.75-7.65L72.76,132C76.27,127.65,80.39,119.79,80.39,113.55Z"/><circle class="cls-37" cx="56.23" cy="115.66" r="10.28" transform="translate(-65.31 73.63) rotate(-45)"/><rect class="cls-3" x="40.15" y="125.62" width="15.29" height="2.88" transform="translate(-73.94 66.98) rotate(-43.12)"/><path class="cls-3" d="M43,133.9l-2.16.45A1.62,1.62,0,0,1,39,133v0a1.61,1.61,0,0,1,1.16-2l2.15-.46a1.62,1.62,0,0,1,1.85,1.34v0A1.61,1.61,0,0,1,43,133.9Z"/><rect class="cls-37" x="48.76" y="97.13" width="19.3" height="4.09" rx="0.9" transform="translate(-45.89 147.83) rotate(-84.51)"/><path class="cls-37" d="M64,115.66a7.79,7.79,0,1,1-7.78-7.79A7.78,7.78,0,0,1,64,115.66Z"/><path class="cls-28" d="M91.2,110.22c0-14.34-10-23.71-23.19-23.71-17.67,0-22.68,13.1-24.18,20.15-2.49,4.27-10.71,13.1-5.82,13.62,2.41.25,3.48.32,5.14.43.07,1.65.13,2.72.31,4.73l4.57.36-4.28,2.85c.21,2,.48,4.17.81,6.46.45,3.06,7.09,3.34,15.49,3.34v17l29.06-8-5.9-17.85C86.88,125,91.2,116.75,91.2,110.22Z"/><path class="cls-36" d="M76.67,112.42A10.77,10.77,0,1,1,65.9,101.65,10.77,10.77,0,0,1,76.67,112.42Z"/><rect class="cls-36" x="49.06" y="122.85" width="16.01" height="3.01" transform="translate(-69.59 72.59) rotate(-43.12)"/><path class="cls-36" d="M52,131.52l-2.25.48a1.7,1.7,0,0,1-1.94-1.4v0A1.7,1.7,0,0,1,49,128.5l2.25-.47a1.69,1.69,0,0,1,1.93,1.4v0A1.68,1.68,0,0,1,52,131.52Z"/><path class="cls-36" d="M68.41,105.33,66,105.11a1,1,0,0,1-.85-1l1.75-18.23A1,1,0,0,1,68,85l2.37.22a1,1,0,0,1,.85,1l-1.75,18.23A.94.94,0,0,1,68.41,105.33Z"/><path class="cls-3" d="M74.05,112.42a8.15,8.15,0,1,1-8.15-8.15A8.15,8.15,0,0,1,74.05,112.42Z"/><g class="cls-38"><path class="cls-39" d="M24.15,189.2c-.87.75-2,.83-3.64,1-.09-.25-.55-.42-.8-.42H17.25a1,1,0,0,0,0,1.91h2.46a.93.93,0,0,0,.8-.45,10.3,10.3,0,0,0,2.46-.55A11.36,11.36,0,0,0,24.15,189.2Zm-4.44,2H17.25a.42.42,0,0,1,0-.83h2.46a.43.43,0,0,1,.33.19.57.57,0,0,1,.07.22A.41.41,0,0,1,19.71,191.15Z"/><path class="cls-39" d="M13.94,198.29a19.13,19.13,0,0,0,.73-4.9v-.19a6.19,6.19,0,0,0,3.08,1.08,6.36,6.36,0,0,0,3.15-1.14v.29a19.07,19.07,0,0,0,.71,4.8L29.27,200a7.73,7.73,0,0,1,2.34,1c0-3.79,0-13.93,0-17.38,0-11.08-6.18-20.07-13.82-20.07S4,172.47,4,183.55v17.38a7.68,7.68,0,0,1,2.35-1ZM5,180.89c0-1.68.89-3,2.05-3.3a1.44,1.44,0,0,1,.61-.7c0-.3,0-.61.05-.92s.07-.82.12-1.24c.08-.63.18-1.27.32-1.9a13.67,13.67,0,0,1,1.2-3.35,9.28,9.28,0,0,1,.79-1.26,8.82,8.82,0,0,1,7.6-3.6,8.83,8.83,0,0,1,7.61,3.6,9.28,9.28,0,0,1,.79,1.26,13.5,13.5,0,0,1,1.19,3.33,18.35,18.35,0,0,1,.33,1.92c.05.42.09.83.12,1.25s0,.61,0,.91a1.41,1.41,0,0,1,.62.7c1.16.25,2.05,1.62,2.05,3.3a3.24,3.24,0,0,1-2,3.28,1.42,1.42,0,0,1-1.11,1.15c-.68,1.61-2.36,4.59-4.46,5.37a11.83,11.83,0,0,1-2.29,1.95,5.82,5.82,0,0,1-2.93,1.1,5.86,5.86,0,0,1-2.87-1,10.49,10.49,0,0,1-4-4.38,22.77,22.77,0,0,1-1.2-3.51c0-.19-.21-3.79-.21-3.79a20.49,20.49,0,0,1,.75-5.89c5.58.47,7.12-3,7.5-5.56.39,2.53,1.93,6,7.51,5.56,1,2.55.76,6.92.76,6.92,0,1.19-.25,2.59-.25,2.74h0a17.34,17.34,0,0,1-1.2,3.53c0,.07-.37.77-.41.84l0,0c.66-.19,2.42-3,2.65-3.88a2.35,2.35,0,0,1-.37-.14v-8.31a1.73,1.73,0,0,1,.24-.1c0-.59-.08-1.19-.16-1.8a13.25,13.25,0,0,0-1.31-4.48,7.33,7.33,0,0,0-4.15-3.64,10.45,10.45,0,0,0-6.57,0,7.38,7.38,0,0,0-4.16,3.64A13.72,13.72,0,0,0,9,175c-.07.61-.13,1.21-.15,1.8l.24.1v8.31a1.41,1.41,0,0,1-.68.18h0A1.44,1.44,0,0,1,7,184.17,3.24,3.24,0,0,1,5,180.89Z"/><path class="cls-39" d="M8.22,184.75h0a1.11,1.11,0,0,0,.58-.15v-7.15a1.21,1.21,0,0,0-.2-.09,1.17,1.17,0,0,0-.38-.07h0a1.27,1.27,0,0,0-.61.17,1.24,1.24,0,0,0-.52.61,1.13,1.13,0,0,0-.09.45v5a1.25,1.25,0,0,0,0,.21A1.22,1.22,0,0,0,8.22,184.75Z"/><path class="cls-39" d="M27.34,177.29a1.16,1.16,0,0,0-.37.07l-.21.09v7.15a1.24,1.24,0,0,0,.32.12,1.09,1.09,0,0,0,.26,0h0l.26,0a1.26,1.26,0,0,0,1-1.21v-5a1.34,1.34,0,0,0-.09-.45,1.22,1.22,0,0,0-.53-.61,1.24,1.24,0,0,0-.61-.17Z"/><path class="cls-39" d="M34.08,204.11a6.43,6.43,0,0,0-2.47-2.71,8,8,0,0,0-2.34-1l-7.66-1.71h0L20,204.78,17.76,213l-2.2-8.22-1.62-6,0-.06L6.3,200.41a8,8,0,0,0-2.35,1,6.52,6.52,0,0,0-2.46,2.71S-1,213,.49,213.69a28,28,0,0,0,9.09,2.56,74.94,74.94,0,0,0,16.4,0,27.91,27.91,0,0,0,9.09-2.56C36.6,213,34.08,204.11,34.08,204.11Zm-5.61,5.32H22V208h6.48Z"/><path class="cls-39" d="M8.68,176.77c.22-2.06.77-5.18,1.86-7a7.73,7.73,0,0,1,.72-1,7.9,7.9,0,0,1,6.51-2.87,8,8,0,0,1,6.13,2.44l.37.41a10.17,10.17,0,0,1,.74,1,13.72,13.72,0,0,1,1.62,4.64c.08.48.21,1.82.26,2.29a1.32,1.32,0,0,1,.78,0s-.23-1.94-.35-2.57a14.75,14.75,0,0,0-1.77-5,8.47,8.47,0,0,0-.79-1.11c-.13-.16-.27-.3-.41-.45a8.63,8.63,0,0,0-6.58-2.6,8.57,8.57,0,0,0-7,3.06,10.25,10.25,0,0,0-.78,1.1,19.65,19.65,0,0,0-2.08,7.54A2.08,2.08,0,0,1,8.68,176.77Z"/></g><g class="cls-38"><path class="cls-39" d="M294.05,204.58a.49.49,0,0,0-.68-.09l-4.61,3.56a.49.49,0,0,0-.09.68l.08.11c-3.21-.28-9-4.31-12.42-8.66s-5.78-11-5.24-14.22l.08.11a.48.48,0,0,0,.68.08l4.61-3.56a.47.47,0,0,0,.09-.68l-9-11.65a.49.49,0,0,0-.68-.09l-4.61,3.56a.49.49,0,0,0-.09.68h0c-2.45,2.54-3.27,5.49-2.41,9.67.43,2.09,1.51,10.46,9.83,21.28s16.19,14,18.1,14.91c3.83,1.89,6.89,1.84,10,.12h0a.49.49,0,0,0,.68.09l4.61-3.57a.49.49,0,0,0,.09-.68Z"/><path class="cls-39" d="M322.51,198.68a10.15,10.15,0,0,0,1.38-5.09c0-4.17-2.61-7.86-6.6-10.08-3.33,4.83-9.77,8.11-17.17,8.11a24,24,0,0,1-6.66-1,9.85,9.85,0,0,0-.46,2.92c0,6.8,6.91,12.31,15.45,12.31A17.73,17.73,0,0,0,319,202.59c.75.92,2.89,2.58,8.5,2.27A10.52,10.52,0,0,1,322.51,198.68Zm-18.06,1.79a1.5,1.5,0,1,1,1.49-1.5A1.5,1.5,0,0,1,304.45,200.47Zm4.48,0a1.5,1.5,0,1,1,1.5-1.5A1.5,1.5,0,0,1,308.93,200.47Zm4.48,0a1.5,1.5,0,1,1,1.5-1.5A1.5,1.5,0,0,1,313.41,200.47Z"/><path class="cls-39" d="M275.44,189.28c7.1.4,9.81-1.71,10.76-2.88a21.06,21.06,0,0,0,6.69,3.26,24,24,0,0,0,6.66.94c7.4,0,13.84-3.27,17.17-8.11a13.15,13.15,0,0,0,2.39-7.48c0-8.61-8.75-15.59-19.56-15.59S280,166.4,280,175a13,13,0,0,0,1.75,6.45C279.67,187.41,275.44,189.28,275.44,189.28Zm26.65-6.16H297v-4.8h5.13ZM299.5,165c4,0,6.63,2.07,6.63,5.29,0,3.52-4.43,4.56-4.43,5.93v.54h-4.43v-1.29c0-1.89,3.37-3,3.37-5.08a1.7,1.7,0,0,0-1.71-1.81c-1.4,0-1.68,1.08-1.68,2.17,0,.24,0,.47,0,.7h-4.76c0-.33-.08-.64-.08-1C292.43,167.08,295.43,165,299.5,165Z"/></g><g class="cls-38"><path class="cls-39" d="M98.37,46a1.14,1.14,0,0,0-.14.54,1.5,1.5,0,0,0,.57,1.1h5.89a1.5,1.5,0,0,0,.57-1.1,1.15,1.15,0,0,0-.15-.54Z"/><path class="cls-39" d="M118.49,46a1.27,1.27,0,0,0-.14.54,1.5,1.5,0,0,0,.57,1.1h5.89a1.5,1.5,0,0,0,.57-1.1,1.27,1.27,0,0,0-.14-.54Z"/><path class="cls-39" d="M127.11,25.46l-.17-.83h-4.56a.34.34,0,0,1-.36-.32V20.83h-5.17v1.93H107V20.83H101.6v3.48a.34.34,0,0,1-.36.32H96.89l-.17.83-3,13.89a5,5,0,0,0,4.93,6h26.61a5,5,0,0,0,4.93-6ZM111.81,39a5.92,5.92,0,1,1,5.92-5.92A5.92,5.92,0,0,1,111.81,39Z"/><path class="cls-39" d="M134.83,18.89h0c-.41-2.46-1.87-4.19-4.91-5.51-1.52-.66-7.3-2.93-18.12-3s-16.6,2.29-18.12,3c-3,1.32-4.49,3-4.9,5.51h0a.36.36,0,0,0-.38.34v4.11a.37.37,0,0,0,.39.34h11.67a.37.37,0,0,0,.39-.34V19.23a.37.37,0,0,0-.39-.34h-.11c1.74-1.67,7.07-3.17,11.46-3.2s9.73,1.53,11.46,3.2h-.11a.36.36,0,0,0-.38.34v4.11a.36.36,0,0,0,.38.34h11.68a.36.36,0,0,0,.38-.34V19.23A.36.36,0,0,0,134.83,18.89Z"/><path class="cls-39" d="M111.8,28.6a4.48,4.48,0,1,0,4.48,4.48A4.48,4.48,0,0,0,111.8,28.6Z"/><path class="cls-39" d="M136.75,18.33a3.72,3.72,0,0,1,0,5.18l.75.75a4.79,4.79,0,0,0,0-6.68Z"/><path class="cls-39" d="M139.86,15.22l-.75.75a7.08,7.08,0,0,1,0,9.9l.75.75A8.13,8.13,0,0,0,139.86,15.22Z"/><path class="cls-39" d="M142.18,12.9l-.75.75a10.35,10.35,0,0,1,0,14.54l.75.75A11.41,11.41,0,0,0,142.18,12.9Z"/><path class="cls-39" d="M86.1,17.58a4.79,4.79,0,0,0,0,6.68l.75-.75a3.74,3.74,0,0,1,0-5.18Z"/><path class="cls-39" d="M83.74,15.22a8.13,8.13,0,0,0,0,11.4l.76-.75a7.06,7.06,0,0,1,0-9.9Z"/><path class="cls-39" d="M82.17,13.65l-.75-.75a11.41,11.41,0,0,0,0,16l.75-.75A10.36,10.36,0,0,1,82.17,13.65Z"/></g><g class="cls-38"><path class="cls-39" d="M414.58,166.39h-4.51v19.85h5.76V204a3.36,3.36,0,0,1-3.36,3.36h2.11a3.26,3.26,0,0,0,3.15-3.36V169.75A3.26,3.26,0,0,0,414.58,166.39Zm1.25,17.88H411.2v-4h4.63Zm0-6.15H411.2v-4h4.63Zm0-6.16H411.2v-4h4.63Z"/><path class="cls-39" d="M415.27,204V187.06H409.5V166.39H383.31a3.36,3.36,0,0,0-3.36,3.36v2.8h3.34a1.35,1.35,0,0,1,1.34,1.35v.59a1.34,1.34,0,0,1-1.34,1.35H380v3.35h3.34a1.35,1.35,0,0,1,1.34,1.35v.59a1.34,1.34,0,0,1-1.34,1.35H380v3.35h3.34a1.35,1.35,0,0,1,1.34,1.35v.59a1.35,1.35,0,0,1-1.34,1.35H380v3.35h3.34a1.34,1.34,0,0,1,1.34,1.35v.59a1.35,1.35,0,0,1-1.34,1.35H380v3.35h3.34a1.34,1.34,0,0,1,1.34,1.35v.59a1.35,1.35,0,0,1-1.34,1.35H380V204a3.36,3.36,0,0,0,3.36,3.36h28.6A3.36,3.36,0,0,0,415.27,204Zm-6.3-9.92-1.77,1.72a.21.21,0,0,1-.29,0h0a4.2,4.2,0,0,1-4.21.42c-.85-.31-4-1.58-8-5.73s-5.19-7.34-5.47-8.2a4.19,4.19,0,0,1,.56-4.2h0a.21.21,0,0,1,0-.29l1.78-1.72a.22.22,0,0,1,.29,0l4.34,4.49a.21.21,0,0,1,0,.29l-1.78,1.72a.21.21,0,0,1-.29,0l0,0c-.08,1.37,1.26,4.05,2.88,5.75s4.28,3.09,5.65,3.06l0,0a.21.21,0,0,1,0-.29l1.77-1.72a.21.21,0,0,1,.29,0l4.35,4.49A.21.21,0,0,1,409,194.08Z"/><path class="cls-39" d="M379.13,175.52h3.71a1.08,1.08,0,0,0,1.09-1.09V174a1.09,1.09,0,0,0-1.09-1.09h-3.71A1.09,1.09,0,0,0,378,174v.47A1.09,1.09,0,0,0,379.13,175.52Z"/><path class="cls-39" d="M379.13,182.16h3.71a1.08,1.08,0,0,0,1.09-1.09v-.47a1.09,1.09,0,0,0-1.09-1.09h-3.71A1.09,1.09,0,0,0,378,180.6v.47A1.09,1.09,0,0,0,379.13,182.16Z"/><path class="cls-39" d="M379.13,188.8h3.71a1.09,1.09,0,0,0,1.09-1.09v-.47a1.09,1.09,0,0,0-1.09-1.09h-3.71a1.09,1.09,0,0,0-1.09,1.09v.47A1.09,1.09,0,0,0,379.13,188.8Z"/><path class="cls-39" d="M379.13,195.44h3.71a1.09,1.09,0,0,0,1.09-1.09v-.47a1.08,1.08,0,0,0-1.09-1.09h-3.71a1.09,1.09,0,0,0-1.09,1.09v.47A1.09,1.09,0,0,0,379.13,195.44Z"/><path class="cls-39" d="M380.28,202.08h2.56a1.09,1.09,0,0,0,1.09-1.09v-.47a1.08,1.08,0,0,0-1.09-1.09h-3.71a1.09,1.09,0,0,0-1.09,1.09V201a1.09,1.09,0,0,0,1.09,1.09h1.15Z"/></g><g class="cls-38"><path class="cls-39" d="M133.34,197.13a7.09,7.09,0,0,1-7,7v2a9.12,9.12,0,0,0,9-9Z"/><path class="cls-39" d="M126.37,212.49a15.49,15.49,0,0,0,15.35-15.36h-2a13.45,13.45,0,0,1-13.32,13.33Z"/><path class="cls-39" d="M126.37,216.71v2A21.75,21.75,0,0,0,148,197.13h-2A19.71,19.71,0,0,1,126.37,216.71Z"/><path class="cls-39" d="M119.85,218.32H93.92V179.91h20.55v-5.48H92.06a1.75,1.75,0,0,0-1.75,1.75v47.54a1.75,1.75,0,0,0,1.75,1.75h29.65a1.75,1.75,0,0,0,1.75-1.75v-30.5h-3.61Zm-16.66-41.23a.32.32,0,0,1,.35-.27h6.69a.32.32,0,0,1,.35.27v.47c0,.14-.16.26-.35.26h-6.69c-.19,0-.35-.12-.35-.26Zm3.69,45.83a1.17,1.17,0,0,1,0-2.34,1.17,1.17,0,1,1,0,2.34Z"/><path class="cls-39" d="M137.21,153.24c-11.69,0-21.2,8.62-21.2,19.22v19.23h20.87a4.48,4.48,0,0,0,.62,0h2.09v-.12c10.67-1.07,18.83-9.21,18.83-19.09C158.41,161.86,148.9,153.24,137.21,153.24Zm-4.78,25.95H123v-.79a3.87,3.87,0,0,1,1.58-2.93c2.57-2.29,4.41-3.21,4.41-4.29,0-.62-.41-1.2-1.41-1.2a1.48,1.48,0,0,0-1.6,1.55v.33h-2.93a2.3,2.3,0,0,1,0-.36c0-2.32,1.61-3.84,4.86-3.84,2.69,0,4.37,1.35,4.37,3.41,0,2.45-2.49,3.66-4.83,5.34h5Zm11.4-2.32h-1.58v2.32h-3.13v-2.32H133.6v-2.46a25.15,25.15,0,0,0,3.16-6.75H140c-.24,1.8-2.57,5.19-4.13,6.79h3.26v-2.36a13.43,13.43,0,0,0,1.73-3.34h1.4v5.7h1.58Zm6.72,2.32h-2v-3.25c0-.45-.23-.77-.68-.77a.83.83,0,0,0-.85.85v3.17h-2v-7.42h2v2.58a2.39,2.39,0,0,1,1.69-.68c1.27,0,1.88.74,1.88,2Z"/><path class="cls-39" d="M106.58,200.14H108a.4.4,0,0,1,.33.19c2.69-.23,3.5-1.84,3.75-2.81l-.22-.08v-4.2a5.69,5.69,0,0,0-10,0v4.2a.88.88,0,0,1-.4.1h-.08a5.71,5.71,0,0,0,10,1.94,4.67,4.67,0,0,1-3,1.22.39.39,0,0,1-.37.26h-1.45a.4.4,0,0,1-.4-.4h0A.4.4,0,0,1,106.58,200.14Z"/><path class="cls-39" d="M96.52,205.84,95.64,211a1.44,1.44,0,0,0,1.42,1.69h19.65a1.45,1.45,0,0,0,1.42-1.69l-.88-5.13a5.65,5.65,0,0,0-3.28-4.2l-2.57-1.13a5.64,5.64,0,0,1-9,0l-2.57,1.13A5.65,5.65,0,0,0,96.52,205.84Z"/><path class="cls-39" d="M106.88,187.54a5.25,5.25,0,0,0-4.74,2.23,6.25,6.25,0,0,0-.91,2.81.85.85,0,0,1,.24-.05h0a.88.88,0,0,1,.4.1,5,5,0,0,1,.8-2.39,5.58,5.58,0,0,1,8.41,0,5,5,0,0,1,.8,2.39.87.87,0,0,1,.39-.1h0a.93.93,0,0,1,.24.05,6.38,6.38,0,0,0-.91-2.81A5.26,5.26,0,0,0,106.88,187.54Z"/><path class="cls-39" d="M100.7,193.05a2.14,2.14,0,0,0,0,3.81.8.8,0,0,1,0-.15v-3.35A.81.81,0,0,1,100.7,193.05Z"/><path class="cls-39" d="M100.86,193.45a.7.7,0,0,0,0,.25v2.76s0,.08,0,.12a.62.62,0,0,0,.53.55h.06a.54.54,0,0,0,.28-.08v-3.95a.55.55,0,0,0-.28-.09h0a.47.47,0,0,0-.17,0A.61.61,0,0,0,100.86,193.45Z"/><path class="cls-39" d="M113.1,196.86a1.87,1.87,0,0,0,1.15-1.9,1.84,1.84,0,0,0-1.18-1.91,1.07,1.07,0,0,1,.06.31v3.35A.8.8,0,0,1,113.1,196.86Z"/><path class="cls-39" d="M112.35,197.14h0l.13,0a.62.62,0,0,0,.44-.53.53.53,0,0,0,0-.12V193.7a.7.7,0,0,0,0-.25.66.66,0,0,0-.38-.39.47.47,0,0,0-.17,0h0a.58.58,0,0,0-.29.09v3.95a.52.52,0,0,0,.16.06Z"/></g><g class="cls-38"><path class="cls-39" d="M309.75,26.23a10.67,10.67,0,0,0-3.26,2.69h3.24C309.74,27.3,309.75,26.23,309.75,26.23Z"/><path class="cls-39" d="M334.61,30.91a10.3,10.3,0,0,0-4.41-4.72s.06,11.47,0,12.9c0,.72-.46,1.82-1.16,1.83h-6.86v4.91h11c1.25,0,1.92-1.07,2-2.75l.12-8.62A10.45,10.45,0,0,0,334.61,30.91Z"/><polygon class="cls-39" points="311.56 46.04 313.84 46.04 311.66 29.45 310.02 29.45 306.6 29.45 290.65 29.45 292.9 46.04 306.93 46.04 311.56 46.04"/><polygon class="cls-39" points="311.58 46.67 306.95 46.67 292.92 46.67 292.92 46.67 292.92 48.71 313.88 48.71 313.88 46.67 313.88 46.67 313.86 46.67 311.58 46.67"/><path class="cls-39" d="M294.42,14.39c0-1-.79-1.6-2-1.6-1.52,0-2.28.71-2.28,1.8a1,1,0,0,0,0,.17h1.37V14.6a.69.69,0,0,1,.75-.72c.47,0,.66.27.66.56,0,.5-.86.93-2.06,2a1.83,1.83,0,0,0-.74,1.38v.37h4.39V16.88h-2.32C293.26,16.1,294.42,15.54,294.42,14.39Z"/><path class="cls-39" d="M297.72,18.19h1.46V17.1h.74V16h-.74V13.3h-.66a6.13,6.13,0,0,1-.8,1.57V16h-1.53a8.09,8.09,0,0,0,1.93-3.18h-1.51A11.64,11.64,0,0,1,295.13,16V17.1h2.59Z"/><path class="cls-39" d="M301.48,16.72a.39.39,0,0,1,.39-.4.32.32,0,0,1,.32.36v1.53h.95V16.57c0-.6-.28-1-.87-1a1.11,1.11,0,0,0-.79.32v-1.2h-1v3.47h1Z"/><path class="cls-39" d="M295.3,24h11V15c0-5-4.44-9-9.91-9s-9.91,4-9.91,9c0,4.62,3.81,8.43,8.8,8.92Zm-7.44-9c0-4.2,3.84-7.62,8.55-7.62S305,10.83,305,15v7.62h-8.9C291.46,22.47,287.86,19.13,287.86,15Z"/><path class="cls-39" d="M312,13a1.15,1.15,0,0,1,.58.16,9.11,9.11,0,0,1,1.2-3.57c1.15-1.93,3.34-2.85,6.27-2.85s5.07.94,6.26,2.85a7.38,7.38,0,0,1,1.2,3.57,1.18,1.18,0,0,1,.58-.16h0a1.51,1.51,0,0,1,.36.06,9.51,9.51,0,0,0-1.36-4.17c-1.42-2.19-3.8-3.32-7.07-3.32s-5.66,1.13-7.08,3.32a9.36,9.36,0,0,0-1.35,4.17,1.35,1.35,0,0,1,.35-.06Z"/><path class="cls-39" d="M310.21,19.62a.66.66,0,0,1,0-.21v-5a1.34,1.34,0,0,1,.09-.45,2.73,2.73,0,0,0-1.76,2.84A2.77,2.77,0,0,0,310.21,19.62Z"/><path class="cls-39" d="M311.66,20.45h.11a1.12,1.12,0,0,0,.55-.14V13.51a1.12,1.12,0,0,0-.55-.14h0a1,1,0,0,0-.34.06,1.16,1.16,0,0,0-.75.68,1.22,1.22,0,0,0-.08.43v4.75a1.23,1.23,0,0,0,0,.2A1.16,1.16,0,0,0,311.66,20.45Z"/><path class="cls-39" d="M320,10.25a8.24,8.24,0,0,0-7.22,4.29V20.6a1.14,1.14,0,0,1-.56.15h-.11a8.25,8.25,0,0,0,7.89,6,8.53,8.53,0,0,0,5.41-1.91,10.41,10.41,0,0,0,2.78-4,1,1,0,0,1-.24,0h0l-.24,0a7.71,7.71,0,0,1-1.07,2,6.12,6.12,0,0,1-4.39,2.52h0a.56.56,0,0,1-.53.37h-2.09a.57.57,0,0,1-.58-.57h0a.58.58,0,0,1,.58-.58h2.09a.57.57,0,0,1,.47.26,5.94,5.94,0,0,0,5.09-4.16V14.54A8.22,8.22,0,0,0,320,10.25Z"/><path class="cls-39" d="M329.8,19.41a1.25,1.25,0,0,1,0,.21,2.78,2.78,0,0,0,1.69-2.82A2.73,2.73,0,0,0,329.71,14a1.34,1.34,0,0,1,.09.45Z"/><path class="cls-39" d="M328.24,13.37a1.12,1.12,0,0,0-.55.14v6.81a1.54,1.54,0,0,0,.3.11,1.07,1.07,0,0,0,.25,0h0a1,1,0,0,0,.24,0,1.19,1.19,0,0,0,.91-.94,1.23,1.23,0,0,0,0-.2V14.54a1.22,1.22,0,0,0-.09-.43,1.16,1.16,0,0,0-.75-.68.92.92,0,0,0-.33-.06Z"/><path class="cls-39" d="M320.54,40.25l7.68,0a1.31,1.31,0,0,0,1.22-1.37c.05-1.43,0-12.91,0-12.91l-2.71-1.31h0a9.34,9.34,0,0,1-13.43,0h0l-2.74,1.31s0,1.26,0,3h1.67l2.21,16.89h1.05A5.41,5.41,0,0,1,320.54,40.25Z"/><path class="cls-39" d="M321,40.92a4.82,4.82,0,0,0-4.73,4.91h5.26V40.92C321.37,40.93,321.09,40.91,321,40.92Z"/></g></g></g></svg>