<svg xmlns="http://www.w3.org/2000/svg" viewBox="0 0 750 500"><defs><style>.cls-1{fill:#08a;}.cls-2,.cls-3{fill:none;stroke-miterlimit:10;}.cls-2{stroke:#3e0074;stroke-width:3px;}.cls-3{stroke:#fff;stroke-width:2px;}.cls-4{fill:#fffdc3;}.cls-5{fill:#00c5a2;}.cls-6{fill:#74005c;}.cls-7{fill:#046575;}.cls-8{fill:#d1bb84;}.cls-9{fill:#e8cf95;}.cls-10{fill:#29b5cc;}.cls-11{fill:#aee7ed;}.cls-12{fill:#fff;}</style></defs><title>Network security</title><g id="OBJECT"><path class="cls-1" d="M126.91,318.11H114.53V305.73h12.38Zm-10.54-1.83h8.71v-8.71h-8.71Z"/><polygon class="cls-1" points="171.14 341.08 167.87 341.08 167.87 337.83 164.82 337.83 164.82 341.08 161.66 341.08 161.66 344.13 164.82 344.13 164.82 347.3 167.87 347.3 167.87 344.13 171.14 344.13 171.14 341.08"/><path class="cls-1" d="M271.8,134.71H259.42V122.33H271.8Zm-10.54-1.84H270v-8.71h-8.71Z"/><polygon class="cls-1" points="316.03 157.67 312.76 157.67 312.76 154.42 309.7 154.42 309.7 157.67 306.55 157.67 306.55 160.73 309.7 160.73 309.7 163.9 312.76 163.9 312.76 160.73 316.03 160.73 316.03 157.67"/><path class="cls-1" d="M480.17,117.45h12.38v12.38H480.17Zm10.54,1.84H482V128h8.71Z"/><polygon class="cls-1" points="435.94 152.8 439.21 152.8 439.21 149.55 442.26 149.55 442.26 152.8 445.42 152.8 445.42 155.85 442.26 155.85 442.26 159.03 439.21 159.03 439.21 155.85 435.94 155.85 435.94 152.8"/><path class="cls-1" d="M635.93,296.84h12.38v12.38H635.93Zm10.55,1.83h-8.71v8.72h8.71Z"/><polygon class="cls-1" points="591.7 332.18 594.97 332.18 594.97 328.94 598.03 328.94 598.03 332.18 601.18 332.18 601.18 335.24 598.03 335.24 598.03 338.41 594.97 338.41 594.97 335.24 591.7 335.24 591.7 332.18"/><line class="cls-2" x1="24.66" y1="247.69" x2="119.32" y2="247.69"/><polygon class="cls-2" points="221.82 339.28 195.49 293.67 221.82 248.07 274.48 248.07 300.81 293.67 274.48 339.28 221.82 339.28"/><polygon class="cls-2" points="142.44 293.2 116.11 247.6 142.44 201.99 195.1 201.99 221.43 247.6 195.1 293.2 142.44 293.2"/><polygon class="cls-2" points="221.82 247.13 195.49 201.52 221.82 155.92 274.48 155.92 300.81 201.52 274.48 247.13 221.82 247.13"/><path class="cls-1" d="M199.59,293.11a3.85,3.85,0,1,1-3.85-3.85A3.85,3.85,0,0,1,199.59,293.11Z"/><path class="cls-1" d="M225.27,247.26a3.85,3.85,0,1,1-3.85-3.85A3.85,3.85,0,0,1,225.27,247.26Z"/><path class="cls-1" d="M199,202a3.86,3.86,0,1,1-3.86-3.85A3.85,3.85,0,0,1,199,202Z"/><circle class="cls-1" cx="116.11" cy="247.6" r="3.85"/><circle class="cls-1" cx="25.1" cy="247.6" r="3.85"/><line class="cls-2" x1="107.43" y1="150.79" x2="142.66" y2="202.39"/><path class="cls-1" d="M109.7,153.69a3.85,3.85,0,1,1,.88-5.38A3.84,3.84,0,0,1,109.7,153.69Z"/><line class="cls-2" x1="192.29" y1="393.9" x2="221.86" y2="338.86"/><path class="cls-1" d="M193.81,390.54a3.85,3.85,0,1,1-5.17,1.7A3.85,3.85,0,0,1,193.81,390.54Z"/><line class="cls-2" x1="738.18" y1="238.8" x2="643.52" y2="238.8"/><polygon class="cls-2" points="541.02 330.39 567.35 284.78 541.02 239.18 488.36 239.18 462.03 284.78 488.36 330.39 541.02 330.39"/><polygon class="cls-2" points="620.4 284.31 646.73 238.71 620.4 193.1 567.74 193.1 541.41 238.71 567.74 284.31 620.4 284.31"/><polygon class="cls-2" points="541.02 238.23 567.35 192.63 541.02 147.02 488.36 147.02 462.03 192.63 488.36 238.23 541.02 238.23"/><path class="cls-1" d="M563.25,284.22a3.85,3.85,0,1,0,3.85-3.85A3.85,3.85,0,0,0,563.25,284.22Z"/><path class="cls-1" d="M734.33,238.8a3.85,3.85,0,1,0,3.85-3.85A3.85,3.85,0,0,0,734.33,238.8Z"/><path class="cls-1" d="M537.57,238.37a3.86,3.86,0,1,0,3.85-3.85A3.85,3.85,0,0,0,537.57,238.37Z"/><circle class="cls-1" cx="567.74" cy="193.1" r="3.85"/><path class="cls-1" d="M642.88,238.71a3.85,3.85,0,1,0,3.85-3.86A3.85,3.85,0,0,0,642.88,238.71Z"/><line class="cls-2" x1="655.42" y1="141.9" x2="620.18" y2="193.5"/><circle class="cls-1" cx="655.39" cy="141.67" r="3.85"/><line class="cls-2" x1="570.55" y1="385" x2="540.98" y2="329.97"/><path class="cls-1" d="M569,381.65a3.85,3.85,0,1,0,5.18,1.7A3.84,3.84,0,0,0,569,381.65Z"/><ellipse class="cls-1" cx="381.47" cy="254.34" rx="55.72" ry="55.19" transform="translate(118.56 629.95) rotate(-88.7)"/><ellipse class="cls-3" cx="381.77" cy="254.64" rx="49.4" ry="48.93" transform="translate(118.55 630.55) rotate(-88.7)"/><path class="cls-4" d="M400.86,246.29l-.92,0,.2-8.8a16.92,16.92,0,0,0-16.53-17.3l-1.51,0a16.92,16.92,0,0,0-17.3,16.53l-.2,8.8-1.29,0a4.44,4.44,0,0,0-4.54,4.34l-.51,22.2a11.67,11.67,0,0,0,11.39,11.92l23.13.52A11.65,11.65,0,0,0,404.7,273l.5-22.2A4.44,4.44,0,0,0,400.86,246.29Zm-28.49-8.61a9.47,9.47,0,0,1,9.69-9.26l.84,0a9.48,9.48,0,0,1,9.26,9.69l-.18,8-19.79-.45Z"/><path class="cls-1" d="M386.66,260.91a4.59,4.59,0,1,0-7.17,3.69l-2.4,8,4,.08,1.19,0,3.95.09-2-7.89A4.57,4.57,0,0,0,386.66,260.91Z"/><path class="cls-5" d="M381.37,278.63A14,14,0,1,1,395.56,265,14,14,0,0,1,381.37,278.63Zm.58-25.27a11.28,11.28,0,1,0,10.9,11.54A11.24,11.24,0,0,0,382,253.36Z"/><rect class="cls-6" x="382.82" y="186.48" width="1.86" height="8.69" transform="translate(4.42 -8.64) rotate(1.3)"/><rect class="cls-6" x="387.74" y="186.91" width="1.86" height="8.69" transform="translate(21.14 -38.01) rotate(5.76)"/><rect class="cls-6" x="392.61" y="187.71" width="1.86" height="8.69" transform="translate(40.28 -66.72) rotate(10.21)"/><rect class="cls-6" x="397.4" y="188.89" width="1.86" height="8.69" transform="matrix(0.97, 0.25, -0.25, 0.97, 61.88, -94.53)"/><rect class="cls-6" x="402.09" y="190.44" width="1.86" height="8.69" transform="translate(86.05 -121.27) rotate(19.12)"/><rect class="cls-6" x="406.65" y="192.35" width="1.86" height="8.69" transform="translate(112.68 -146.59) rotate(23.57)"/><rect class="cls-6" x="411.04" y="194.61" width="1.86" height="8.69" transform="translate(141.82 -170.26) rotate(28.03)"/><rect class="cls-6" x="415.24" y="197.2" width="1.86" height="8.69" transform="translate(173.37 -191.99) rotate(32.49)"/><rect class="cls-6" x="419.23" y="200.11" width="1.86" height="8.69" transform="translate(207.22 -211.47) rotate(36.94)"/><rect class="cls-6" x="422.98" y="203.32" width="1.86" height="8.69" transform="translate(243.23 -228.43) rotate(41.4)"/><rect class="cls-6" x="426.47" y="206.82" width="1.86" height="8.69" transform="translate(281.21 -242.59) rotate(45.85)"/><rect class="cls-6" x="429.68" y="210.57" width="1.86" height="8.69" transform="translate(320.95 -253.69) rotate(50.31)"/><rect class="cls-6" x="432.58" y="214.56" width="1.86" height="8.69" transform="translate(362.21 -261.48) rotate(54.77)"/><rect class="cls-6" x="435.17" y="218.76" width="1.86" height="8.69" transform="translate(404.61 -265.74) rotate(59.22)"/><rect class="cls-6" x="437.42" y="223.16" width="1.86" height="8.69" transform="translate(447.86 -266.28) rotate(63.67)"/><rect class="cls-6" x="439.33" y="227.71" width="1.86" height="8.69" transform="translate(491.62 -262.96) rotate(68.13)"/><rect class="cls-6" x="440.87" y="232.4" width="1.86" height="8.69" transform="translate(535.48 -255.66) rotate(72.59)"/><rect class="cls-6" x="442.05" y="237.2" width="1.86" height="8.69" transform="translate(579.04 -244.32) rotate(77.04)"/><rect class="cls-6" x="442.85" y="242.07" width="1.86" height="8.69" transform="translate(621.87 -228.92) rotate(81.5)"/><rect class="cls-6" x="443.27" y="246.99" width="1.86" height="8.69" transform="translate(663.55 -209.5) rotate(85.95)"/><rect class="cls-6" x="443.31" y="251.93" width="1.86" height="8.69" transform="translate(703.65 -186.14) rotate(90.41)"/><rect class="cls-6" x="442.96" y="256.85" width="1.86" height="8.69" transform="matrix(-0.08, 1, -1, -0.08, 741.75, -158.97)"/><rect class="cls-6" x="442.23" y="261.73" width="1.86" height="8.69" transform="translate(777.48 -128.16) rotate(99.32)"/><rect class="cls-6" x="441.12" y="266.55" width="1.86" height="8.69" transform="translate(810.41 -93.96) rotate(103.77)"/><rect class="cls-6" x="439.65" y="271.26" width="1.86" height="8.69" transform="translate(840.17 -56.65) rotate(108.23)"/><rect class="cls-6" x="437.81" y="275.84" width="1.86" height="8.69" transform="translate(866.46 -16.56) rotate(112.68)"/><rect class="cls-6" x="435.62" y="280.26" width="1.86" height="8.69" transform="translate(888.96 25.94) rotate(117.14)"/><rect class="cls-6" x="433.1" y="284.51" width="1.86" height="8.69" transform="translate(907.45 70.48) rotate(121.59)"/><rect class="cls-6" x="430.25" y="288.54" width="1.86" height="8.69" transform="translate(921.73 116.64) rotate(126.05)"/><rect class="cls-6" x="427.1" y="292.34" width="1.86" height="8.69" transform="translate(931.63 163.95) rotate(130.51)"/><rect class="cls-6" x="423.66" y="295.88" width="1.86" height="8.69" transform="translate(937.05 211.94) rotate(134.96)"/><rect class="cls-6" x="419.96" y="299.15" width="1.86" height="8.69" transform="translate(937.97 260.19) rotate(139.42)"/><rect class="cls-6" x="416.01" y="302.12" width="1.86" height="8.69" transform="translate(934.39 308.16) rotate(143.87)"/><rect class="cls-6" x="411.85" y="304.77" width="1.86" height="8.69" transform="translate(926.38 355.45) rotate(148.33)"/><rect class="cls-6" x="407.49" y="307.09" width="1.86" height="8.69" transform="translate(914.06 401.6) rotate(152.78)"/><rect class="cls-6" x="402.96" y="309.07" width="1.86" height="8.69" transform="translate(897.59 446.15) rotate(157.24)"/><rect class="cls-6" x="398.3" y="310.69" width="1.86" height="8.69" transform="translate(877.21 488.71) rotate(161.69)"/><rect class="cls-6" x="393.52" y="311.94" width="1.86" height="8.69" transform="translate(853.15 528.95) rotate(166.15)"/><rect class="cls-6" x="388.66" y="312.81" width="1.86" height="8.69" transform="translate(825.74 566.46) rotate(170.6)"/><rect class="cls-6" x="383.75" y="313.31" width="1.86" height="8.69" transform="translate(795.29 601.01) rotate(175.06)"/><rect class="cls-6" x="378.82" y="313.42" width="1.86" height="8.69" transform="translate(762.18 632.31) rotate(179.51)"/><rect class="cls-6" x="373.89" y="313.15" width="1.86" height="8.69" transform="translate(726.77 660.17) rotate(-176.03)"/><rect class="cls-6" x="368.99" y="312.5" width="1.86" height="8.69" transform="translate(689.41 684.49) rotate(-171.57)"/><rect class="cls-6" x="364.16" y="311.47" width="1.86" height="8.69" transform="translate(650.61 705.06) rotate(-167.12)"/><rect class="cls-6" x="359.43" y="310.07" width="1.86" height="8.69" transform="translate(610.65 721.93) rotate(-162.66)"/><rect class="cls-6" x="354.82" y="308.3" width="1.86" height="8.69" transform="translate(570.02 735.01) rotate(-158.21)"/><rect class="cls-6" x="350.36" y="306.18" width="1.86" height="8.69" transform="translate(529.03 744.39) rotate(-153.75)"/><rect class="cls-6" x="346.08" y="303.72" width="1.86" height="8.69" transform="translate(488.09 750.13) rotate(-149.3)"/><rect class="cls-6" x="342" y="300.94" width="1.86" height="8.69" transform="translate(447.51 752.34) rotate(-144.84)"/><rect class="cls-6" x="338.15" y="297.84" width="1.86" height="8.69" transform="translate(407.63 751.19) rotate(-140.39)"/><rect class="cls-6" x="334.56" y="294.46" width="1.86" height="8.69" transform="translate(368.71 746.84) rotate(-135.93)"/><rect class="cls-6" x="331.23" y="290.81" width="1.86" height="8.69" transform="matrix(-0.66, -0.75, 0.75, -0.66, 331.02, 739.51)"/><rect class="cls-6" x="328.2" y="286.91" width="1.86" height="8.69" transform="translate(294.76 729.41) rotate(-127.02)"/><rect class="cls-6" x="325.49" y="282.79" width="1.86" height="8.69" transform="translate(260.13 716.79) rotate(-122.57)"/><rect class="cls-6" x="323.1" y="278.47" width="1.86" height="8.69" transform="translate(227.26 701.88) rotate(-118.11)"/><rect class="cls-6" x="321.05" y="273.97" width="1.86" height="8.69" transform="translate(196.24 684.92) rotate(-113.66)"/><rect class="cls-6" x="319.36" y="269.33" width="1.86" height="8.69" transform="translate(167.16 666.16) rotate(-109.2)"/><rect class="cls-6" x="318.04" y="264.58" width="1.86" height="8.69" transform="translate(140.08 645.83) rotate(-104.74)"/><rect class="cls-6" x="317.08" y="259.73" width="1.86" height="8.69" transform="matrix(-0.18, -0.98, 0.98, -0.18, 114.98, 624.15)"/><rect class="cls-6" x="316.51" y="254.83" width="1.86" height="8.69" transform="translate(91.87 601.31) rotate(-95.83)"/><rect class="cls-6" x="316.32" y="249.9" width="1.86" height="8.69" transform="translate(70.7 577.5) rotate(-91.37)"/><rect class="cls-6" x="316.52" y="244.96" width="1.86" height="8.69" transform="translate(51.44 552.9) rotate(-86.92)"/><rect class="cls-6" x="317.09" y="240.06" width="1.86" height="8.69" transform="translate(34.04 527.64) rotate(-82.47)"/><rect class="cls-6" x="318.05" y="235.22" width="1.86" height="8.69" transform="translate(18.39 501.83) rotate(-78.01)"/><rect class="cls-6" x="319.38" y="230.46" width="1.86" height="8.69" transform="translate(4.43 475.55) rotate(-73.56)"/><rect class="cls-6" x="321.07" y="225.82" width="1.86" height="8.69" transform="translate(-7.9 448.86) rotate(-69.1)"/><rect class="cls-6" x="323.12" y="221.33" width="1.86" height="8.69" transform="translate(-18.66 421.87) rotate(-64.64)"/><rect class="cls-6" x="325.51" y="217.01" width="1.86" height="8.69" transform="translate(-27.91 394.56) rotate(-60.19)"/><rect class="cls-6" x="328.23" y="212.89" width="1.86" height="8.69" transform="translate(-35.7 366.95) rotate(-55.73)"/><rect class="cls-6" x="331.27" y="209" width="1.86" height="8.69" transform="translate(-42.06 339.06) rotate(-51.28)"/><rect class="cls-6" x="334.59" y="205.35" width="1.86" height="8.69" transform="translate(-46.98 310.89) rotate(-46.82)"/><rect class="cls-6" x="338.19" y="201.97" width="1.86" height="8.69" transform="translate(-50.47 282.41) rotate(-42.37)"/><rect class="cls-6" x="342.04" y="198.88" width="1.86" height="8.69" transform="translate(-52.49 253.64) rotate(-37.91)"/><rect class="cls-6" x="346.12" y="196.1" width="1.86" height="8.69" transform="translate(-53 224.56) rotate(-33.46)"/><rect class="cls-6" x="350.41" y="193.64" width="1.86" height="8.69" transform="translate(-51.94 195.16) rotate(-29)"/><rect class="cls-6" x="354.87" y="191.53" width="1.86" height="8.69" transform="translate(-49.22 165.5) rotate(-24.55)"/><rect class="cls-6" x="359.48" y="189.76" width="1.86" height="8.69" transform="translate(-44.75 135.62) rotate(-20.09)"/><rect class="cls-6" x="364.21" y="188.36" width="1.86" height="8.69" transform="translate(-38.43 105.55) rotate(-15.64)"/><rect class="cls-6" x="369.04" y="187.34" width="1.86" height="8.69" transform="translate(-30.14 75.36) rotate(-11.18)"/><rect class="cls-6" x="373.94" y="186.69" width="1.86" height="8.69" transform="translate(-19.8 45.23) rotate(-6.73)"/><rect class="cls-6" x="378.87" y="186.42" width="1.86" height="8.69" transform="translate(-7.25 15.18) rotate(-2.27)"/><path class="cls-1" d="M370.67,344l-6.31,6.3v7.21a2.37,2.37,0,1,0,1.74,0v-6.53l6.31-6.31V328.68h-1.74Z"/><path class="cls-1" d="M388.53,345.6l6.31,6.31v6.53a2.38,2.38,0,0,0,.93,4.57,2.37,2.37,0,0,0,.8-4.61v-7.21l-6.31-6.31V329.53h-1.73Z"/><path class="cls-1" d="M379.6,328.68v21a2.39,2.39,0,1,0,1.73,0v-21Z"/><path class="cls-1" d="M393.68,336.59h21a2.39,2.39,0,1,0,0-1.74h-21Z"/><path class="cls-1" d="M366.51,336.09h-21a2.39,2.39,0,1,1,0-1.74h21Z"/><path class="cls-1" d="M392.51,165l6.31-6.31v-7.2a2.38,2.38,0,1,0-3.19-2.24,2.4,2.4,0,0,0,1.45,2.2V158l-6.31,6.31v16.07h1.74Z"/><path class="cls-1" d="M374.65,163.43l-6.31-6.31V150.6a2.39,2.39,0,1,0-1.73,0v7.2l6.31,6.31V179.5h1.73Z"/><path class="cls-1" d="M383.58,180.36v-21a2.38,2.38,0,1,0-1.73,0v21Z"/><path class="cls-1" d="M369.51,172.45h-21a2.39,2.39,0,1,0,0,1.73h21Z"/><path class="cls-1" d="M396.68,173h21a2.39,2.39,0,1,1,0,1.73h-21Z"/><path class="cls-7" d="M144.42,225.15h7.66a3,3,0,0,1,3,3v39.68a0,0,0,0,1,0,0H141.38a0,0,0,0,1,0,0V228.18A3,3,0,0,1,144.42,225.15Z"/><path class="cls-7" d="M153.93,228.75h27.78a3.4,3.4,0,0,1,3.4,3.4v35.72a0,0,0,0,1,0,0H153.93a0,0,0,0,1,0,0V228.75A0,0,0,0,1,153.93,228.75Z"/><path class="cls-8" d="M148.29,231.53h39.95a1.19,1.19,0,0,1,1.19,1.19v31.54a0,0,0,0,1,0,0H147.1a0,0,0,0,1,0,0V232.71A1.19,1.19,0,0,1,148.29,231.53Z"/><path class="cls-4" d="M150.07,231.53H190a1.19,1.19,0,0,1,1.19,1.19v31.54a0,0,0,0,1,0,0H148.88a0,0,0,0,1,0,0V232.71A1.19,1.19,0,0,1,150.07,231.53Z"/><path class="cls-9" d="M188.33,235.31H152.78a.49.49,0,0,1-.49-.49h0a.49.49,0,0,1,.49-.48h35.55a.49.49,0,0,1,.48.48h0A.49.49,0,0,1,188.33,235.31Z"/><path class="cls-9" d="M188.33,238.21H152.78a.48.48,0,0,1-.49-.48h0a.49.49,0,0,1,.49-.49h35.55a.49.49,0,0,1,.48.49h0A.48.48,0,0,1,188.33,238.21Z"/><path class="cls-9" d="M188.33,240.85H152.78a.48.48,0,0,1-.49-.48h0a.49.49,0,0,1,.49-.49h35.55a.49.49,0,0,1,.48.49h0A.48.48,0,0,1,188.33,240.85Z"/><path class="cls-1" d="M192.06,267.86h-49.8l10.41-27.05a4.19,4.19,0,0,1,3.91-2.69h45.11a1.24,1.24,0,0,1,1.16,1.69Z"/><path class="cls-1" d="M275.93,185.18s-12.84-5.27-17-15.13H239.32c-4.12,9.86-17,15.13-17,15.13C218.69,225.07,249,234.24,249,234.24h.38S279.59,225.07,275.93,185.18Z"/><path class="cls-5" d="M270.8,188.12S260.53,183.9,257.23,176H241.52c-3.3,7.89-13.58,12.11-13.58,12.11C225,220,249.22,227.36,249.22,227.36h.3S273.73,220,270.8,188.12Z"/><ellipse class="cls-1" cx="249.79" cy="200.54" rx="16.51" ry="16.28"/><path class="cls-4" d="M237.16,204l6.34,6a2.89,2.89,0,0,0,4,0l14-12.89a2.9,2.9,0,0,0,.15-4.11l-.41-.44a2.9,2.9,0,0,0-4.09-.14l-10,9.28a2.91,2.91,0,0,1-4-.06l-1.89-1.86a2.9,2.9,0,0,0-4.38.35h0A2.92,2.92,0,0,0,237.16,204Z"/><path class="cls-1" d="M249.85,291.45l.25-6.06L244,284.17l3.68-4.47-3.91-4.63-5.23,3.18-1.06-5.75h-6.06l-1,6.19-6.34-3.86-3.91,4.63,3.67,4.48-6.14,1.21.24,6.06,6.52.92-3.69,5,4.27,4.29,5.11-3.5,1.11,6.09h6.06l.86-5.5,4.58,3.15,4.28-4.3-3.46-4.72c.06-.12.12-.24.17-.37ZM234,295.9a7.38,7.38,0,1,1,7.38-7.38A7.38,7.38,0,0,1,234,295.9Z"/><path class="cls-10" d="M267.24,315.68l3.57-3.29L268,308.22l4.61-.45.41-4.84-4.76-1.16,2.66-3.86-3.44-3.43-4.05,3-1.4-5.78-4.84.41-.46,4.62-4.17-2.79-3.29,3.57,3.17,4.21-4.94.76v4.85l4.87.91-2.81,4.08,3.43,3.43,3.6-2.62.81,4.38h4.86l.71-4.64.31-.11Zm-11.52-6.48a5.91,5.91,0,1,1,8.36,0A5.91,5.91,0,0,1,255.72,309.2Z"/><circle class="cls-1" cx="514.88" cy="205.19" r="8.61"/><path class="cls-1" d="M529,194.2,526.57,198l-.08-.08a16,16,0,0,0-23.11-.08L501,194.06a20.47,20.47,0,0,1,28,.07Z"/><path class="cls-1" d="M533.63,186.8l-2.92,4.56a24.29,24.29,0,0,0-31.49,0l-2.92-4.56a31.26,31.26,0,0,1,37.33,0Z"/><path class="cls-1" d="M538.71,178.86l-3.26,5.1c-4.65-4.47-12-7.37-20.19-7.37-8.44,0-15.91,3-20.55,7.73l-3.29-5.14c5.92-4.75,14.42-7.73,23.84-7.73C524.48,171.45,532.8,174.3,538.71,178.86Z"/><path class="cls-11" d="M185.3,145a15,15,0,0,0-5.09.9,15,15,0,0,0-27.64,3.48,12.87,12.87,0,1,0-5.7,24.41c.34,0,.67,0,1-.05v.05h39.92a12.21,12.21,0,0,0,7.21-2.32,12,12,0,0,0,1.54-1.3,12.35,12.35,0,0,0,3.57-7.74,13.67,13.67,0,0,0,.2-2.41A15,15,0,0,0,185.3,145Z"/><path class="cls-11" d="M611.47,134.63a13,13,0,1,0-16.58,12.45v5.85a1.07,1.07,0,0,0,.54.92l.28.16a1,1,0,0,1,.1,1.76l-.48.35a1,1,0,0,0-.44.85v1a1,1,0,0,0,.74,1,1.05,1.05,0,0,1,.35,1.82l-.43.34a1,1,0,0,0-.39.82v1.34a1,1,0,0,1-.39.81l-1.66,1.36a1,1,0,0,0-.38.81V168a1,1,0,0,0,1,1.05h6.35a1.06,1.06,0,0,0,.74-.31l2.18-2.18a1,1,0,0,0,.31-.74V146.65A13,13,0,0,0,611.47,134.63ZM598.7,125a2.64,2.64,0,1,1-2.64,2.64A2.64,2.64,0,0,1,598.7,125Z"/><path class="cls-11" d="M620.49,146.69h4.41a1.6,1.6,0,1,0,1.4-2.38,1.59,1.59,0,0,0-1.44.91h-5l-4.25,4.25H605.36v1.47h10.88Z"/><path class="cls-11" d="M626.88,164.91a1.61,1.61,0,0,0-1.4.83h-4.41l-4.25-4.25H605.94V163h10.27l4.25,4.25h5a1.6,1.6,0,1,0,1.45-2.3Z"/><path class="cls-11" d="M621,157.8a1.6,1.6,0,1,0-1.42-2.32h-14.2V157h14.21A1.59,1.59,0,0,0,621,157.8Z"/><path class="cls-11" d="M581.82,149.63l-4.25-4.25h-5a1.61,1.61,0,1,0-.05,1.47H577l4.25,4.25h10.88v-1.47Z"/><path class="cls-11" d="M576.39,165.9H572a1.6,1.6,0,1,0,0,1.47h5l4.24-4.25h10.28v-1.47H580.64Z"/><path class="cls-11" d="M576.48,154.76a1.6,1.6,0,1,0,1.4,2.35h14.21v-1.47H577.9A1.59,1.59,0,0,0,576.48,154.76Z"/><path class="cls-5" d="M535.73,288.35H494.82a5.25,5.25,0,0,1-.56,0,5,5,0,0,1-3.19-8.49l20.28-21.56a5.43,5.43,0,0,1,7.85,0l20.29,21.56a5,5,0,0,1-3.19,8.49Z"/><path class="cls-4" d="M502.69,272.93H528a4.47,4.47,0,0,1,4.47,4.47v19.06a0,0,0,0,1,0,0H498.22a0,0,0,0,1,0,0V277.4A4.47,4.47,0,0,1,502.69,272.93Z"/><path class="cls-1" d="M535,312h-39.6a6,6,0,0,1-6-6V283.72c0-3.29,2.67,3.7,6,3.7H535c3.29,0,6-7,6-3.7v22.34A6,6,0,0,1,535,312Z"/><path class="cls-5" d="M505.21,310.34l30.62-22.92S518.16,308.18,505.21,310.34Z"/><path class="cls-5" d="M526.41,309.83l-31.58-22.32S513.27,308,526.41,309.83Z"/><path class="cls-1" d="M519.73,280.31a4.3,4.3,0,1,1-4.29-4.29A4.29,4.29,0,0,1,519.73,280.31Z"/><rect class="cls-1" x="513.03" y="283.68" width="1.4" height="1.97"/><rect class="cls-1" x="514.69" y="284.01" width="1.4" height="1.97"/><rect class="cls-1" x="516.36" y="283.64" width="1.4" height="1.97"/><path class="cls-4" d="M512.6,279.91l2.11.87a.91.91,0,0,1-.85.86C513.06,281.71,512.34,281.07,512.6,279.91Z"/><path class="cls-4" d="M518.26,279.93l-2.12.87a.94.94,0,0,0,.85.87C517.79,281.73,518.51,281.1,518.26,279.93Z"/><polygon class="cls-1" points="515.37 281.77 514.91 282.81 515.88 282.81 515.37 281.77"/><polygon class="cls-1" points="511.98 278.79 510.01 278.42 508.9 276.66 508.44 276.92 509.47 279.09 511.83 279.51 511.98 278.79"/><polygon class="cls-1" points="511.96 282.85 509.99 283.23 508.87 284.98 508.42 284.72 509.45 282.56 511.81 282.13 511.96 282.85"/><polygon class="cls-1" points="511.75 280.26 508.6 280.21 506.3 281.59 506.52 282.01 508.91 280.96 511.93 281.24 511.75 280.26"/><polygon class="cls-1" points="518.62 278.77 520.59 278.39 521.7 276.64 522.16 276.9 521.13 279.07 518.77 279.49 518.62 278.77"/><polygon class="cls-1" points="518.64 282.83 520.61 283.21 521.73 284.96 522.18 284.7 521.15 282.53 518.79 282.11 518.64 282.83"/><polygon class="cls-1" points="518.85 280.24 522 280.19 524.3 281.57 524.08 281.99 521.69 280.94 518.67 281.22 518.85 280.24"/><rect class="cls-1" x="574.53" y="205.73" width="41.15" height="64.71" rx="4.92"/><rect class="cls-5" x="574.53" y="215.5" width="41.15" height="44.73"/><rect class="cls-4" x="580.54" y="221.67" width="5.26" height="5.13"/><rect class="cls-4" x="593.22" y="221.67" width="5.26" height="5.13"/><rect class="cls-4" x="604.75" y="221.67" width="5.26" height="5.13"/><rect class="cls-4" x="580.54" y="233.58" width="5.26" height="5.13"/><rect class="cls-4" x="593.22" y="233.58" width="5.26" height="5.13"/><rect class="cls-4" x="604.75" y="233.58" width="5.26" height="5.13"/><rect class="cls-4" x="580.54" y="245.3" width="5.26" height="5.13"/><rect class="cls-4" x="593.22" y="245.3" width="5.26" height="5.13"/><rect class="cls-4" x="604.75" y="245.3" width="5.26" height="5.13"/><path class="cls-12" d="M601.61,211.52h-12.3a.72.72,0,0,1-.73-.73h0a.72.72,0,0,1,.73-.72h12.3a.72.72,0,0,1,.72.72h0A.72.72,0,0,1,601.61,211.52Z"/><path class="cls-12" d="M598.08,265.25a2.91,2.91,0,1,1-2.9-2.9A2.9,2.9,0,0,1,598.08,265.25Z"/><polygon class="cls-11" points="90.67 181.63 95.96 190.46 86.5 194.71 90.67 181.63"/><polygon class="cls-11" points="77.44 223.36 74.67 213.44 84.91 211.83 77.44 223.36"/><path class="cls-11" d="M98.88,189.17l-4.5,6.51a11.16,11.16,0,0,1-12.47,18l-4.64,6.69a19.14,19.14,0,0,0,21.61-31.21Z"/><path class="cls-11" d="M76.71,209a11.16,11.16,0,0,1,9.67-16.75,12.19,12.19,0,0,1,1.82.16L93,185.51a19,19,0,0,0-7-1.34,19.14,19.14,0,0,0-14.21,32Z"/><path class="cls-11" d="M693.49,212.53l-13.11-15.46a16.57,16.57,0,1,0-4.82,3.88l13.21,15.58a2.93,2.93,0,0,0,4.14.34l.23-.2A2.93,2.93,0,0,0,693.49,212.53Zm-36.41-26.37A10.83,10.83,0,1,1,667.91,197,10.82,10.82,0,0,1,657.08,186.16Z"/></g></svg>