<svg xmlns="http://www.w3.org/2000/svg" xmlns:xlink="http://www.w3.org/1999/xlink" viewBox="0 0 2412.29 1782.71"><defs><style>.cls-1{mask:url(#mask);filter:url(#luminosity-noclip-5);}.cls-2,.cls-4,.cls-6,.cls-8{mix-blend-mode:multiply;}.cls-2{fill:url(#linear-gradient);}.cls-3{mask:url(#mask-2);filter:url(#luminosity-noclip-6);}.cls-4{fill:url(#linear-gradient-2);}.cls-5,.cls-7{mask:url(#mask-3);}.cls-5{filter:url(#luminosity-noclip-7);}.cls-6{fill:url(#linear-gradient-3);}.cls-7{filter:url(#luminosity-noclip-8);}.cls-8{fill:url(#linear-gradient-4);}.cls-9{isolation:isolate;}.cls-10,.cls-45{mix-blend-mode:hard-light;}.cls-10{fill:url(#linear-gradient-5);}.cls-11{fill:#e0e0e0;}.cls-12{fill:#d9d9d9;}.cls-13{fill:#b8b8b8;}.cls-14{opacity:0.43;}.cls-15{fill:#ff5157;}.cls-16{opacity:0.22;}.cls-17{fill:url(#linear-gradient-6);}.cls-18{fill:url(#linear-gradient-7);}.cls-19{fill:url(#linear-gradient-8);}.cls-20{fill:url(#linear-gradient-9);}.cls-21{fill:#932066;}.cls-22{fill:#0064b5;}.cls-23{fill:#004e8c;}.cls-24{fill:url(#linear-gradient-10);}.cls-25{fill:#fff;}.cls-26{mask:url(#mask-5);}.cls-27{fill:url(#linear-gradient-11);}.cls-28{mask:url(#mask-6);}.cls-29{fill:url(#linear-gradient-12);}.cls-30{mask:url(#mask-7);}.cls-31{fill:url(#linear-gradient-13);}.cls-32{mask:url(#mask-8);}.cls-33{fill:url(#linear-gradient-14);}.cls-34{fill:#c5c6cf;}.cls-35{fill:#e2e3ed;}.cls-36{fill:#eea987;}.cls-37{fill:#e6d3cd;}.cls-38{fill:#3c4145;}.cls-39{fill:#003474;}.cls-40{fill:#eea886;}.cls-41{fill:#163342;}.cls-42{fill:#a77860;}.cls-43{fill:#ffc955;}.cls-44{fill:#efaa88;}.cls-45{fill:url(#linear-gradient-15);}.cls-46{opacity:0.76;}.cls-47{fill:url(#linear-gradient-16);}.cls-48{fill:url(#linear-gradient-17);}.cls-49{fill:url(#linear-gradient-18);}.cls-50{fill:url(#linear-gradient-19);}.cls-51{fill:#007bde;}.cls-52{fill:url(#linear-gradient-20);}.cls-53{fill:url(#linear-gradient-21);}.cls-54{fill:url(#linear-gradient-22);}.cls-55{fill:url(#linear-gradient-23);}.cls-56{fill:#db9c7c;}.cls-57{fill:#4c5385;}.cls-58{fill:#ead8cf;}.cls-59{fill:#da9b5b;}.cls-60{fill:#424773;}.cls-61{fill:#292c47;}.cls-62{fill:#353a3d;}.cls-63{fill:#e2d2ca;}.cls-64{fill:#323657;}.cls-65{fill:#81807e;}.cls-66{fill:#2d3133;}.cls-67{fill:#decbc4;}.cls-68{fill:#495055;}.cls-69{fill:#51565c;}.cls-70{fill:#f5e2d9;}.cls-71{fill:#ad9f99;}.cls-72{fill:#69737a;}.cls-73{fill:#d9c9c2;}.cls-74{filter:url(#luminosity-noclip-3);}.cls-75{filter:url(#luminosity-noclip-2);}.cls-76{filter:url(#luminosity-noclip);}</style><filter id="luminosity-noclip" x="35.75" y="-8974.71" width="99.79" height="32766" filterUnits="userSpaceOnUse" color-interpolation-filters="sRGB"><feFlood flood-color="#fff" result="bg"/><feBlend in="SourceGraphic" in2="bg"/></filter><mask id="mask" x="35.75" y="-8974.71" width="99.79" height="32766" maskUnits="userSpaceOnUse"><g class="cls-76"/></mask><linearGradient id="linear-gradient" x1="80.73" y1="591.03" x2="89.14" y2="997.23" gradientUnits="userSpaceOnUse"><stop offset="0" stop-color="#fff"/><stop offset="1"/></linearGradient><filter id="luminosity-noclip-2" x="0" y="-8974.71" width="41.59" height="32766" filterUnits="userSpaceOnUse" color-interpolation-filters="sRGB"><feFlood flood-color="#fff" result="bg"/><feBlend in="SourceGraphic" in2="bg"/></filter><mask id="mask-2" x="0" y="-8974.71" width="41.59" height="32766" maskUnits="userSpaceOnUse"><g class="cls-75"/></mask><linearGradient id="linear-gradient-2" x1="15.91" y1="592.37" x2="24.32" y2="998.57" xlink:href="#linear-gradient"/><filter id="luminosity-noclip-3" x="2076.82" y="-8974.71" width="84.72" height="32766" filterUnits="userSpaceOnUse" color-interpolation-filters="sRGB"><feFlood flood-color="#fff" result="bg"/><feBlend in="SourceGraphic" in2="bg"/></filter><mask id="mask-3" x="2076.82" y="-8974.71" width="84.72" height="32766" maskUnits="userSpaceOnUse"><g class="cls-74"/></mask><linearGradient id="linear-gradient-3" x1="2165.82" y1="-90.48" x2="2068.36" y2="274.1" gradientTransform="translate(4238.36 167.99) rotate(-180)" xlink:href="#linear-gradient"/><linearGradient id="linear-gradient-4" x1="2151.53" y1="-65.55" x2="2076.05" y2="216.81" gradientTransform="translate(4238.36 110.97) rotate(-180)" xlink:href="#linear-gradient"/><linearGradient id="linear-gradient-5" x1="534.91" y1="581.32" x2="534.91" y2="2325.48" gradientUnits="userSpaceOnUse"><stop offset="0" stop-color="#626e7a"/><stop offset="1" stop-color="#f5f5f5"/></linearGradient><linearGradient id="linear-gradient-6" x1="588.65" y1="1049.71" x2="2163.57" y2="1049.71" gradientUnits="userSpaceOnUse"><stop offset="0" stop-color="#40d5e6"/><stop offset="1" stop-color="#57f"/></linearGradient><linearGradient id="linear-gradient-7" x1="1478.21" y1="550.68" x2="2039.62" y2="550.68" gradientUnits="userSpaceOnUse"><stop offset="0" stop-color="#8fd6ff"/><stop offset="1" stop-color="#bfebfe"/></linearGradient><linearGradient id="linear-gradient-8" x1="1468.88" y1="478.6" x2="2028.46" y2="478.6" xlink:href="#linear-gradient-7"/><linearGradient id="linear-gradient-9" x1="1572.92" y1="300.9" x2="1256.51" y2="1202.38" gradientUnits="userSpaceOnUse"><stop offset="0" stop-color="#c6cbcf"/><stop offset="1" stop-color="#f8f1fe"/></linearGradient><linearGradient id="linear-gradient-10" x1="1733.23" y1="1225.1" x2="2307.11" y2="2037.56" xlink:href="#linear-gradient-9"/><filter id="luminosity-noclip-5" x="35.75" y="804.08" width="99.79" height="48.5" filterUnits="userSpaceOnUse" color-interpolation-filters="sRGB"><feFlood flood-color="#fff" result="bg"/><feBlend in="SourceGraphic" in2="bg"/></filter><mask id="mask-5" x="35.75" y="804.08" width="99.79" height="48.5" maskUnits="userSpaceOnUse"><g class="cls-1"><polygon class="cls-2" points="59.13 852.59 135.54 852.59 112.15 804.08 35.75 804.08 59.13 852.59"/></g></mask><linearGradient id="linear-gradient-11" x1="80.73" y1="591.03" x2="89.14" y2="997.23" xlink:href="#linear-gradient-6"/><filter id="luminosity-noclip-6" x="0" y="804.08" width="41.59" height="48.5" filterUnits="userSpaceOnUse" color-interpolation-filters="sRGB"><feFlood flood-color="#fff" result="bg"/><feBlend in="SourceGraphic" in2="bg"/></filter><mask id="mask-6" x="0" y="804.08" width="41.59" height="48.5" maskUnits="userSpaceOnUse"><g class="cls-3"><polygon class="cls-4" points="23.39 852.59 41.59 852.59 18.2 804.08 0 804.08 23.39 852.59"/></g></mask><linearGradient id="linear-gradient-12" x1="15.91" y1="592.37" x2="24.32" y2="998.57" xlink:href="#linear-gradient-6"/><filter id="luminosity-noclip-7" x="2076.82" y="67.66" width="84.72" height="32.68" filterUnits="userSpaceOnUse" color-interpolation-filters="sRGB"><feFlood flood-color="#fff" result="bg"/><feBlend in="SourceGraphic" in2="bg"/></filter><mask id="mask-7" x="2076.82" y="67.66" width="84.72" height="32.68" maskUnits="userSpaceOnUse"><g class="cls-5"><rect class="cls-6" x="2076.82" y="67.66" width="84.72" height="32.68" transform="translate(4238.36 167.99) rotate(180)"/></g></mask><linearGradient id="linear-gradient-13" x1="2165.82" y1="-90.48" x2="2068.36" y2="274.1" gradientTransform="translate(4238.36 167.99) rotate(-180)" xlink:href="#linear-gradient-6"/><filter id="luminosity-noclip-8" x="2076.82" y="52.41" width="84.72" height="6.15" filterUnits="userSpaceOnUse" color-interpolation-filters="sRGB"><feFlood flood-color="#fff" result="bg"/><feBlend in="SourceGraphic" in2="bg"/></filter><mask id="mask-8" x="2076.82" y="52.41" width="84.72" height="6.15" maskUnits="userSpaceOnUse"><g class="cls-7"><rect class="cls-8" x="2076.82" y="52.41" width="84.72" height="6.15" transform="translate(4238.36 110.97) rotate(180)"/></g></mask><linearGradient id="linear-gradient-14" x1="2151.53" y1="-65.55" x2="2076.05" y2="216.81" gradientTransform="translate(4238.36 110.97) rotate(-180)" xlink:href="#linear-gradient-6"/><linearGradient id="linear-gradient-15" x1="534.91" y1="1118.63" x2="534.91" y2="3606.09" gradientUnits="userSpaceOnUse"><stop offset="0" stop-color="#44607d"/><stop offset="1" stop-color="#f5f5f5"/></linearGradient><linearGradient id="linear-gradient-16" x1="507.92" y1="912.26" x2="527.62" y2="912.26" gradientUnits="userSpaceOnUse"><stop offset="0" stop-color="#d5e4ff"/><stop offset="1" stop-color="#edfffe"/></linearGradient><linearGradient id="linear-gradient-17" x1="542.5" y1="897.67" x2="562.19" y2="897.67" xlink:href="#linear-gradient-16"/><linearGradient id="linear-gradient-18" x1="578.79" y1="905.3" x2="598.48" y2="905.3" xlink:href="#linear-gradient-16"/><linearGradient id="linear-gradient-19" x1="616.07" y1="923.03" x2="635.76" y2="923.03" xlink:href="#linear-gradient-16"/><linearGradient id="linear-gradient-20" x1="654.02" y1="930.28" x2="673.72" y2="930.28" xlink:href="#linear-gradient-16"/><linearGradient id="linear-gradient-21" x1="688.6" y1="903.26" x2="708.29" y2="903.26" xlink:href="#linear-gradient-16"/><linearGradient id="linear-gradient-22" x1="724.88" y1="914.96" x2="744.58" y2="914.96" xlink:href="#linear-gradient-16"/><linearGradient id="linear-gradient-23" x1="762.17" y1="886.6" x2="781.86" y2="886.6" xlink:href="#linear-gradient-16"/></defs><title>OCR</title><g class="cls-9"><g id="Слой_1" data-name="Слой 1"><rect class="cls-10" x="235.56" y="636.94" width="598.71" height="52.47" rx="23.29"/><rect class="cls-11" x="979.41" y="812.97" width="5.53" height="580.67"/><rect class="cls-11" x="1372.93" y="812.97" width="5.54" height="580.67"/><rect class="cls-11" x="1766.45" y="812.97" width="5.53" height="580.67"/><rect class="cls-12" x="588.65" y="741.41" width="94.26" height="15.14"/><rect class="cls-12" x="588.65" y="769.39" width="133.7" height="15.14"/><rect class="cls-12" x="977.93" y="741.41" width="110.66" height="15.14"/><rect class="cls-12" x="977.93" y="769.39" width="70.76" height="15.14"/><rect class="cls-12" x="1378.47" y="741.41" width="68.57" height="15.14"/><rect class="cls-12" x="1378.47" y="769.39" width="79.92" height="15.14"/><rect class="cls-12" x="1771.99" y="741.41" width="99.89" height="15.14"/><rect class="cls-12" x="1771.99" y="769.39" width="79.93" height="15.14"/><rect class="cls-13" x="1024.37" y="1415.37" width="62.61" height="20.18"/><rect class="cls-13" x="1378.47" y="1428.03" width="62.61" height="20.18"/><rect class="cls-13" x="1771.99" y="1428.03" width="62.61" height="20.18"/><rect class="cls-13" x="2165.51" y="1428.03" width="62.61" height="20.18"/><g class="cls-14"><path class="cls-15" d="M2026.37,1221.1c-122.74,0-229.44-53.06-340.67-108.37-137.33-68.29-279.32-138.9-468.52-119.56-120.81,12.34-196.64,61.54-263.54,104.95-60.58,39.3-117.85,73.87-195.41,76.82-125.36,4.77-168.85-48.7-169.58-52v-34.31h0c.16.59,27.53,60.6,169.44,59.89,69.89-.35,121.47-33.82,181.19-72.57,69.41-45,148.08-96.07,275.22-109.06,196.78-20.12,342.26,52.22,482.94,122.18,147.21,73.2,287.68,141.85,465.3,82.29v28.21C2112.11,1216.59,2071.62,1221.1,2026.37,1221.1Z"/></g><g class="cls-16"><path class="cls-17" d="M1289.61,1214.53c-90.6,0-162.45-60.93-232.8-120.57-53.34-45.23-108.69-91.47-172.57-114.28-195-69.6-294.69,57.5-295.59,58.62V999.63c1.06-1.32,18.85-24.42,70.32-46.48,46.86-20.08,125.49-36.1,233.94,1.62,68.71,23.9,125.77,72.28,180.95,119.07,112,94.9,208.62,176.87,376.52,48.48,127.16-97.24,247-189.9,365-223.76,115.36-33.11,235.63-8.87,348.2,103.71l-.83,35.11c-239.14-240.19-442.76-88-696.34,105.9C1399.23,1194.64,1341.36,1214.52,1289.61,1214.53Z"/></g><polygon class="cls-18" points="1482.21 674.25 1478.21 669.56 1544.5 613.09 1584.76 613.09 1676.11 535.27 1733.24 583.94 1775.37 583.94 1796.66 602.08 1862.82 545.72 1896.4 545.72 2035.62 427.11 2039.62 431.8 1898.67 551.88 1865.09 551.88 1796.66 610.17 1773.1 590.1 1730.97 590.1 1676.11 543.36 1587.03 619.25 1546.77 619.25 1482.21 674.25"/><polygon class="cls-19" points="1491.79 596.25 1468.88 596.25 1468.88 590.09 1489.23 590.09 1523.64 555.68 1548.65 580.7 1608.4 520.94 1626.78 539.32 1687.36 478.74 1723.67 515.04 1765.06 515.04 1828.95 451.16 1884.04 451.16 1924.78 410.43 1974.63 410.43 2024.11 360.95 2028.46 365.31 1977.19 416.59 1927.33 416.59 1886.6 457.32 1831.5 457.32 1767.61 521.21 1721.12 521.21 1687.36 487.45 1626.78 548.03 1608.4 529.66 1548.65 589.41 1523.64 564.4 1491.79 596.25"/><path class="cls-20" d="M2103.61,610.25c0-.13-.08-.26-.11-.4-58.92-205.48-206-381.11-409.14-471.49h0a740.35,740.35,0,0,0-391.55-58.73l-.24,0-.13,0a735.87,735.87,0,0,0-179.2,45.8,3.42,3.42,0,0,0-.34.13c-210.12,82.63-379.6,260.49-442.77,495.23-106,394,127.34,799.15,521.16,905.14,202.24,54.41,407.44,19.38,573.61-80.89l31,43.09,146.19-105.28-35.29-49a735.18,735.18,0,0,0,189.65-329.22C2142.58,870.37,2139.31,734.78,2103.61,610.25ZM1562.86,1285c-261.11,93.58-548.66-42.22-642.23-303.34-91.84-256.25,37.25-538,288.91-636.81,4.76-1.86,9.57-3.68,14.43-5.42a500.61,500.61,0,0,1,374.24,14.21c120.6,53.87,219.91,155,268,289.13q5.65,15.84,10.24,31.8C1948.57,926.82,1813.41,1195.2,1562.86,1285Z"/><path class="cls-21" d="M2249.07,568.38,2103.5,609.85l-227.06,64.72q-4.57-16-10.24-31.8c-48.08-134.17-147.39-235.26-268-289.13l96.13-215.28h0l10.11-22.65L1756.14,0C2001,108.92,2178.19,320.69,2249.07,568.38Z"/><path class="cls-22" d="M1704.47,115.71l-10.11,22.65-96.15,215.28a501.08,501.08,0,0,0-266.46-40l-29-234-3-24.54a760.15,760.15,0,0,1,291.87,20.58A751.75,751.75,0,0,1,1704.47,115.71Z"/><path class="cls-23" d="M1331.75,313.68A503.65,503.65,0,0,0,1224,339.43q-7.29,2.61-14.43,5.42l-86.32-219.42L1097.08,59a806,806,0,0,1,196.8-50.34l.15,0,5.73,46.38,3,24.54Z"/><polygon class="cls-24" points="2274.57 1782.71 1983.47 1782.71 1781.17 1501.76 1876.05 1433.44 1972.88 1363.73 2021.1 1430.71 2274.57 1782.71"/><rect class="cls-25" x="2123.2" y="1277.82" width="79.46" height="5.57" transform="translate(4325.87 2561.21) rotate(180)"/><rect class="cls-25" x="2123.2" y="1288.32" width="79.46" height="23.42" transform="translate(4325.87 2600.06) rotate(180)"/><rect class="cls-25" x="2085.87" y="1319.61" width="46.88" height="3.5" transform="translate(4218.62 2642.72) rotate(180)"/><rect class="cls-25" x="2085.87" y="1324.64" width="46.88" height="9.48" transform="translate(4218.62 2658.76) rotate(180)"/><rect class="cls-25" x="2215.72" y="1247.8" width="3.5" height="65.62" transform="translate(4434.93 2561.21) rotate(180)"/><g class="cls-26"><polygon class="cls-27" points="59.13 852.59 135.54 852.59 112.15 804.08 35.75 804.08 59.13 852.59"/></g><g class="cls-28"><polygon class="cls-29" points="23.39 852.59 41.59 852.59 18.2 804.08 0 804.08 23.39 852.59"/></g><g class="cls-30"><rect class="cls-31" x="2076.82" y="67.66" width="84.72" height="32.68" transform="translate(4238.36 167.99) rotate(180)"/></g><g class="cls-32"><rect class="cls-33" x="2076.82" y="52.41" width="84.72" height="6.15" transform="translate(4238.36 110.97) rotate(180)"/></g><polygon class="cls-34" points="2061.37 1146.04 2384.34 1125.27 2386.11 1314.08 2095.48 1314.08 2061.37 1146.04"/><polygon class="cls-35" points="2075.36 1128.45 2384.34 1125.27 2386.11 1314.08 2095.48 1314.08 2075.36 1128.45"/><path class="cls-36" d="M2070.46,908.63s7.35,8.08,10.24,4.52,6.17-8.61,6.17-8.61Z"/><path class="cls-36" d="M2056,831.4l9.45,43.94c-2.91-3.57-8-9.29-9.67-7.59-2.36,2.42,5.53,14.41,6.88,19.58,1.24,4.73,2.86,12.11,4.9,16.48l3.58,7.19,15.78-6.46s-.73-31.32-1.33-38.38c-1-11.46-23-36.31-25.17-36.57C2056.51,829.13,2056,831.4,2056,831.4Z"/><path class="cls-37" d="M2379.47,1663.1s4.45,10.71,8.2,15,18.1,11.84,18.17,24.45c.09,13.68-24.19,9.89-33.68,9.39s-10.21-7.81-14.21-15.56-8-6.43-8.78-12.68,3.06-20.23,3.06-20.23Z"/><path class="cls-37" d="M2155.72,1665.55s-13.22,13.89-26.65,16.8-22.81,6.62-22.91,14.59,38.63,13.22,54,5.18c22.93-12,25.26-8.37,27.8-14.37s-3.05-22-2.89-23.92C2185.28,1661.47,2155.72,1665.55,2155.72,1665.55Z"/><path class="cls-38" d="M2191,1264.55s-13.9,100.9-19.57,135c-6.63,39.88-8.88,72.83-10.73,93.47-2.33,26-6.79,162.48-8.42,170.07s36.34,3.8,36.34,3.8,27.54-177,34.47-204.66c6.46-25.75,24.21-131.89,30.09-124.86s42.86,131.21,47.22,151.52,46.41,179.27,46.41,179.27,31.43,6.76,39.42.39c0,0-27.42-146-30.2-184.11-1.06-14.51-9.66-173-34.19-237.15C2308.88,1213.38,2191,1264.55,2191,1264.55Z"/><path class="cls-39" d="M2231.75,1022.57s-36.76,7.6-41.12,11.46c-4.73,4.12-13.08,44.37-13.58,55.59s4.43,58.05,9.16,75.5,3.66,108.49,1.54,122.81c0,0,73.73,14.42,146.49,5,0,0-12.58-79.07-9.66-103,3.73-30.63,12.7-101.18,12.7-101.18s-9.72-47.5-16.2-53-51.51-14.4-51.51-14.4Z"/><path class="cls-40" d="M2246.94,908.92s-44.21-16.36-41.44,42.39,13.12,64.73,42.2,56.53,31.53-45.29,35.31-63.13S2261.4,911.48,2246.94,908.92Z"/><path class="cls-40" d="M2224.47,1031.88s23,18.62,45.1-10.53c0,0-1-23.66,5.79-45.75s-46.3,29.46-46.3,29.46c.56.39.67,2.6.35,5.68a61.75,61.75,0,0,1-1.71,9.13C2225.77,1027.25,2226.22,1025.94,2224.47,1031.88Z"/><path class="cls-41" d="M2276.87,973.85s.12-15.7-6.4-17.14-9.89,7.63-9.89,7.63l-5.26-.28s4.7-15.91-1.52-19.56-43.45-.44-48.12-5.79,2.1-37.16,12.26-40.29,37.9-9.45,55.51,6.24c0,0,15.79.1,15.75,19C2289.18,936.17,2282.18,965.34,2276.87,973.85Z"/><path class="cls-42" d="M2227.7,1019.87c34.27-5.76,39.4-25.25,39.47-25.56-13.32,17.18-37.76,16.43-37.76,16.43A61.75,61.75,0,0,1,2227.7,1019.87Z"/><path class="cls-40" d="M2263.08,950.05c2-5.18,13-4.53,11.85,3.68s-10.24,20.85-13.9,18.48S2260.39,957.18,2263.08,950.05Z"/><path class="cls-40" d="M2281.49,1023.86s-20.73,41.9-51.24,38.51-12.83-32.63-9.91-37.29C2220.34,1025.08,2238.65,1013.33,2281.49,1023.86Z"/><path class="cls-39" d="M2088.93,990c-8.61-16.78-27.56-81.55-27.56-81.55l26.82-5.61s14.26,32.6,21,55.15c3.31,11,7.75,21.79,8.74,23.53s46.67,36.33,51.64,38.87,24.11,9.17,33.26,18.46,4.69,22,4.69,22c-19.4,24.94-55.22-7.49-55.22-7.49S2101,1013.54,2088.93,990Z"/><path class="cls-43" d="M2133.66,1038s42.32,46.22,43.78,63.35c1,12.22,8.66-36.76,8.66-36.76Z"/><rect class="cls-21" x="2095.48" y="1114.46" width="316.81" height="199.62" transform="translate(4507.77 2428.54) rotate(180)"/><path class="cls-44" d="M2363,1324.11s1.5-3.66,1.37-5.59c0,0-.49-3.48-.69-6a18.74,18.74,0,0,1-.08-1.94c.1-1.87.87-6-.16-10.53s-6.31-20.34-6.31-20.34l-14.23,2.12-12.37-1.68s-9.22,26.91-8.75,31.28a10.9,10.9,0,0,0,.2,1.23c.75,3.66,2.85,6.07,3.47,7.94.23.69,3,7.37,5,8a7.06,7.06,0,0,0,6.79-1s5.68,1.5,9.27-.14c0,0,5.19,1.55,9.08-1.77C2355.67,1325.78,2361.12,1326.76,2363,1324.11Z"/><path class="cls-39" d="M2300.85,1034.73c-4.82,1.87-9.93,13.53-6.13,36.4,4.07,24.54,12.17,35,15.43,40.75s23.39,44,23.31,49.62c-.2,14.73.15,53.61-.32,56.58-.79,5.09-4.07,63.66-4.07,63.66l31.09,7.53s6.13-66.06,8.9-86c1.11-8,3.52-30,.74-51.88-2.67-21.13-18-67.82-20-71.53S2332.71,1022.39,2300.85,1034.73Z"/><rect class="cls-45" x="235.56" y="740.62" width="598.71" height="708.4" rx="54.7"/><g class="cls-46"><path class="cls-25" d="M449.78,850.36A87.23,87.23,0,1,0,285.5,909.11c.66,1.85,1.38,3.67,2.14,5.44a87.24,87.24,0,0,0,162.14-64.19Zm-60.11,91a65.43,65.43,0,0,1-71.87-19.2,64.74,64.74,0,0,1-10.13-16.28q-.87-2-1.62-4.08a65.41,65.41,0,1,1,83.62,39.56Z"/></g><polygon class="cls-25" points="617.51 1111.64 708.97 1116.8 781.86 1016.24 776.93 1012.67 705.99 1110.53 614.89 1105.39 510.45 1224.5 401.1 1200.81 293.06 1302.75 297.23 1307.18 402.94 1207.43 512.66 1231.21 617.51 1111.64"/><path class="cls-25" d="M527.42,1224.42a16.23,16.23,0,1,1-19.3-12.43A16.24,16.24,0,0,1,527.42,1224.42Z"/><path class="cls-25" d="M632,1106.1a16.23,16.23,0,1,1-19.3-12.42A16.23,16.23,0,0,1,632,1106.1Z"/><path class="cls-25" d="M722.46,1109.73a16.23,16.23,0,1,1-19.3-12.43A16.21,16.21,0,0,1,722.46,1109.73Z"/><path class="cls-25" d="M417.8,1202.19a16.23,16.23,0,1,1-19.3-12.43A16.24,16.24,0,0,1,417.8,1202.19Z"/><rect class="cls-25" x="385.7" y="1265.96" width="66.45" height="12.8"/><rect class="cls-25" x="431.91" y="1134.65" width="66.45" height="12.8"/><rect class="cls-25" x="569.76" y="1226.15" width="66.45" height="12.8"/><rect class="cls-25" x="629.36" y="1046.44" width="66.45" height="12.8"/><rect class="cls-25" x="725.88" y="1153.53" width="66.45" height="12.8"/><rect class="cls-47" x="507.92" y="857.52" width="19.69" height="109.48"/><rect class="cls-48" x="542.5" y="828.33" width="19.69" height="138.67"/><rect class="cls-49" x="578.79" y="843.6" width="19.7" height="123.4"/><rect class="cls-50" x="616.07" y="879.06" width="19.69" height="87.95"/><rect class="cls-15" x="507.92" y="897.57" width="19.69" height="69.43"/><rect class="cls-51" x="542.5" y="879.06" width="19.69" height="87.95"/><rect class="cls-15" x="578.79" y="888.74" width="19.7" height="78.26"/><rect class="cls-51" x="616.07" y="912.26" width="19.69" height="54.74"/><rect class="cls-52" x="654.02" y="893.55" width="19.69" height="73.45"/><rect class="cls-53" x="688.6" y="839.53" width="19.69" height="127.47"/><rect class="cls-54" x="724.88" y="862.91" width="19.69" height="104.09"/><rect class="cls-55" x="762.17" y="806.19" width="19.69" height="160.81"/><rect class="cls-51" x="654.02" y="927.87" width="19.69" height="39.13"/><rect class="cls-15" x="688.6" y="908.68" width="19.69" height="58.32"/><rect class="cls-51" x="724.88" y="914.96" width="19.69" height="52.05"/><rect class="cls-15" x="762.17" y="847.49" width="19.69" height="119.51"/><path class="cls-40" d="M171.66,1258.22s3.06,5,3.45,9.1c.3,3.24,3,8.08,4.2,10.75s5,14.77,5.11,17.92c.06,1.29-2.82,9.4-2.41,12s1.89,7.73-.44,8.07-5-3.87-5-3.87a3.42,3.42,0,0,1-1.75,3.3c-3.84,1.78-5.87.21-5.87.21s-1.41,2.63-3.19,3c-3.91.79-5.83-.78-5.83-.78a7.07,7.07,0,0,1-4.43,1.42,5.81,5.81,0,0,1-4.91-3.06s-4.38.89-5.65-1.16-1.05-4.22-1.58-6.07-.13-18.58,5.55-30.63-1.44-23.79-1.44-23.79Z"/><path class="cls-56" d="M177.22,1310.62s.39-15-3.57-18.2-4.39,2.22-4.39,2.22.53-5.36-3.78-6.08-4.5,5.64-4.5,5.64a4.18,4.18,0,0,0-5.25-3.28c-4.53.85-3.45,6.11-3.45,6.11s-4.33-5.16-7.14-.2c-4.75,8.38-.17,18.27-.17,18.27s1.33,2.27,5.65,1.16c0,0,2.89,5.82,9.34,1.64,0,0,6.61,3.64,9-2.2C169,1315.7,176.27,1319.17,177.22,1310.62Z"/><path class="cls-57" d="M222.58,1042s-25.69,85.64-34.37,117.23c-2.73,9.91-9.32,104.52-10.48,108.33s-33.76,9-33.76,9,3.95-118.36,4.32-124.82,36-138.63,46.31-143.35c7.76-3.53,11.85-.61,21.63,6.65C229.94,1025.24,222.58,1042,222.58,1042Z"/><path class="cls-44" d="M541.12,905.66s-.56,3.33-1.52,4.66c0,0-1.92,2.3-3.19,4a13.61,13.61,0,0,0-.92,1.37c-.78,1.4-2.06,4.71-4.86,7.55s-13.71,11.88-13.71,11.88l-9.35-7.94-9.71-4.35s5.44-23.62,7.74-26.57a9.31,9.31,0,0,1,.7-.8c2.2-2.31,4.8-3.11,6.08-4.19.48-.39,5.47-4,7.25-3.52a6,6,0,0,1,4.49,3.74s4.78,1.47,6.64,4.27c0,0,4.46,1.22,5.78,5.37C536.54,901.14,540.92,902.88,541.12,905.66Z"/><path class="cls-58" d="M359.86,1064.93l6.64-2.45s-8.28-19.44-11.89-19a90.76,90.76,0,0,0-9.36,1.92Z"/><path class="cls-59" d="M361.38,1068.28c-.85-.63-14.11-26.07-14.11-26.07l-28.34,3.85,15.31,30.14Z"/><path class="cls-60" d="M201.73,1626.73s-2.34,16.26-2.63,18.7S173,1644,173,1644L171,1624.64S198.51,1624.44,201.73,1626.73Z"/><path class="cls-61" d="M199.37,1643.37s8.16,9.79,16.06,14.06,20.3,6,25,10.38c3.37,3.19,12.27,16.93-20.52,16.65s-48.6,1.94-52.11-3.32,5.08-38.88,5.08-38.88S180.62,1645.06,199.37,1643.37Z"/><path class="cls-60" d="M386.33,1626.73s-2.34,16.26-2.63,18.7-26.06-1.44-26.06-1.44l-2.09-19.35S383.11,1624.44,386.33,1626.73Z"/><path class="cls-61" d="M384,1643.37s8.16,9.79,16.06,14.06,37,7.78,41.62,12.2c3.37,3.19,9,16-37.17,14.83-32.78-.85-48.6,1.94-52.11-3.32s5.08-38.88,5.08-38.88S364.77,1645.25,384,1643.37Z"/><path class="cls-61" d="M223.07,1209s-24.21,38.45-22.41,73.22-8.77,72.73-12.41,109c-4.05,40.49-20.64,136.35-21.25,158s2.58,90.82,2.58,90.82l33.21.76s27.89-167.57,35.12-184.67,43-139,44.25-152.68S223.07,1209,223.07,1209Z"/><path class="cls-61" d="M350.5,1214.18s18.25,95.3,20.65,116.57,4,103,5.22,116.28,11.25,173.63,14.45,193.79H348.36S315.77,1524,315.77,1468.69,290.59,1348.5,274.34,1312s-53.46-37.34-63.46-105C210.88,1207,337,1192.72,350.5,1214.18Z"/><path class="cls-40" d="M263.46,885.61s32.5-12.13,47.48,12.6,13.54,74.25-2.84,80.34-41,2.91-49.37-12.57-16-37.85-15.59-52.81S254.93,889.93,263.46,885.61Z"/><path class="cls-40" d="M304.57,979.68s-1.35,8.78.88,13.1-42.09,4.43-42.09,4.43-3.6-23.5-10.42-43.37S304.57,979.68,304.57,979.68Z"/><path class="cls-62" d="M252.94,953.84s3.06,5,15.54,3.09,27.73-18.57,32.95-20.4,5.26-4.88,5.26-4.88l3.26,4.77,5.54.35s-5.05-14.87,2.57-20.93-7.91-48.11-48-34.11c0,0-30.76,8.48-29.65,26S246.05,945.13,252.94,953.84Z"/><path class="cls-63" d="M308.09,992.26s-.15-8.26-3.89-9-41.31-4.41-45.9-2.6v9.62S267.15,995.68,308.09,992.26Z"/><path class="cls-40" d="M305.86,925.28c-.7-2.93-8.16-11.32-11-2.34s4.32,21.06,8.32,20S307.64,932.72,305.86,925.28Z"/><path class="cls-64" d="M457.19,1089.81h-.06C457.38,1089.92,457.42,1089.93,457.19,1089.81Z"/><path class="cls-57" d="M370.22,1004.76c-25.75-3.4-62.14-12.5-62.14-12.5l-49.78-2s-45.7,10.06-63.7,18.18c-1.7.77-1.71,40.77-6.39,51.26l14.92,31.48s8.61,62.35,10.4,90.08c.82,12.73-17.77,119.37-17.77,119.37s19.92,5.87,53.9,9.61,118.89-1.35,119.42-5.36-16.44-149.45-17.19-157c-1.15-11.56,4-73,4-73,7.85-6.08,76.74-38.06,95.53-54.72,5-4.46,26.26-25.13,32.29-32.27,21.37-25.27,38.89-46.94,41-51.61,2.42-2.66-23.22-16.6-25.55-17.38-2-.67-30.92,36.75-42,48.8-5,5.36-25.57,20.35-25.57,20.35S386.34,1005.68,370.22,1004.76Z"/><path class="cls-62" d="M254.21,888.53s-41.43,3.24-1.27,65.31Z"/><path class="cls-62" d="M781.71,1635.75s-8.72,13-21,15.87-24.29,7.31-24.38,15,35.38,12.33,49.38,4.54c20.9-11.62,23-8.11,25.34-13.92s-2.78-21.34-2.63-23.19C808.65,1631.8,781.71,1635.75,781.71,1635.75Z"/><path class="cls-65" d="M783.07,1629.31s-1.59,6.31-1.36,6.44,27.58,3.39,26.75-1.67c-.67-4.1-1.63-8.56-1.63-8.56Z"/><path class="cls-62" d="M873.72,1634.89s-6.22,12.48-16.85,16.73c-11.37,4.55-20.48,9.77-20.28,17.3s27.79,15.15,47.85.71c12.67-9.13,16.69-9.17,18.72-14.92s-3.53-20.67-3.45-22.48C899.8,1630,873.72,1634.89,873.72,1634.89Z"/><path class="cls-65" d="M873.41,1628.4s.08,6.37.31,6.49,26.66,2.29,26-2.66a40.36,40.36,0,0,0-2.57-8.68Z"/><path class="cls-66" d="M776.53,1247S752,1355.29,746.37,1388.27c-4.77,28.08-8.58,57.31-6.29,77.58,2.83,25.09,38.35,155.12,36.86,162.48s37.17,1.18,37.17,1.18-27-145-21.62-172c4-20,39-152.82,44.38-146s12,125.36,16,145,16.18,175.16,16.18,175.16,27.28,4,34.56-2.14c0,0,3.32-132.77.79-169.66-1-14.06,16.47-168.58-5.89-230.79C886.69,1196.19,776.53,1247,776.53,1247Z"/><path class="cls-67" d="M669.67,1148.56c17.5-2.45,72.54,21.93,77.55,20.09,3.44-1.26,11.51-27.56,17.27-47.47,3.42-11.78,6-21.32,6.38-22.11l0,0a117.87,117.87,0,0,0,.19,21.36c.07.76.16,1.54.24,2.33,0,.21.06.41.08.62a104.36,104.36,0,0,0,2.48,13.32c1.75,6.75,2.57,15.63,2.88,25v0c0,.08,0,.14,0,.22s0,.43,0,.65,0,.17,0,.26c.49,17-.69,35.43-1.18,45.21-.76,15.16,4.22,22,4.36,22.17h0l5.27-.74,3.81-.54h0l5.09-.71,20-2.81,7.23-1,1.71-.25,12.65-1.77,35.66-5,3.91-.55,1.61-.23,13.45-1.89,6.08-.85h0s5.16-36.61,5.56-56.4c.36-18.18,10.09-55.08,11.67-61l0-.12a.94.94,0,0,1,0-.16c0-.1.05-.19.07-.26a.65.65,0,0,1,0-.13,0,0,0,0,1,0,0v0a.15.15,0,0,0,0-.06s29.1,30.57,34.75,43.92c1.72,4,7,15,13.69,28.46,4.59-8.75,7.46-14.83,7.46-16.35,0-.19,0-.39,0-.6-.43-13.19-14.26-66.68-25.17-101.63-8.47-17-15.77-30.8-18.12-32.48-3.55-2.55-18.49-9-31.53-14.12l-1.27-.5-3.58-1.41-1.72-.66-.93-.35-.74-.28h0c-6.52-2.48-11.48-4.22-12.5-4.28-.17,0-.44,0-.81,0s-1,0-1.65.08c-8.06.47-32.12,2.72-39.86,3.46l-2.41.23h0l-9.24,4.22h0l-.51.24c-3.36,1.53-7.24,3.58-11.34,5.83-8,4.41-16.94,9.56-24.31,13.07s-17.12,8.23-18,8.91L729.53,1137,666,1125.39Z"/><path class="cls-68" d="M780,1230.2s-2.68,3.21-3.45,16.8c0,0,110.32-12.87,122-17.94,0,0,.45-15-2-15.24C893.77,1213.54,780,1230.2,780,1230.2Z"/><path class="cls-40" d="M874.06,991.61c-.34,17.32-33.86,26.79-33.86,26.79s-14-17.58-10.68-19.27c1.32-.66,1.85-3.28,2-6.22a61.91,61.91,0,0,0-.19-7.85c-.1-1.23-.2-2-.2-2S835.94,978,842,972c10.64-10.53,25.28-24,25.31-18.65a4.57,4.57,0,0,1-.13,1C864.65,966.41,874.06,991.61,874.06,991.61Z"/><path class="cls-62" d="M871.28,1216.48s2.41,15.18,2.62,19.14l5.1-1s-1.4-16.06-2.23-18.76Z"/><path class="cls-62" d="M789.19,1228.43s-1.94,13.8-2,19l5.4-.71s1.1-17.23,1.72-19Z"/><path class="cls-42" d="M861.15,966.24h0c-.07.1-1.49,2.23-3.91,5.28-5.15,6.47-14.83,17.1-25.7,21.38a61.91,61.91,0,0,0-.19-7.85,17,17,0,0,1-3.33-.41A102.4,102.4,0,0,1,835.31,974l6.73-2Z"/><path class="cls-40" d="M867.59,953.55c-2.9,6.31-5.66,10.88-6.44,12.69h0a22.52,22.52,0,0,1-3.91,5.28c-5.53,6-15.8,13.8-25.89,13.53a17,17,0,0,1-3.33-.41c-4.08-.89-8.89-2.78-11.54-8-20.91-40.94-5.77-74.43-5.77-74.43s57.18-16.17,66.13,1C883.12,915.37,874.4,938.73,867.59,953.55Z"/><path class="cls-41" d="M810.71,902.25s-5.31-.29-6.63-10.36,1.33-12.7,1.33-12.7S829,869.3,837.5,868s29.32-2.52,34.21,3.07c0,0,11.87-2.76,15.1,16.95,5.13,31.26-17.48,61.62-17.48,61.62s.19-20.42-4.31-23.13-8.4,3.73-8.4,3.73l-9.21,1.65s14-30.22-2.79-31.34S820.32,904,810.71,902.25Z"/><path class="cls-40" d="M856.88,922.12c.87-9,17.15-12.44,16.06-3s-9.11,18.49-12.81,18.17S856.21,929,856.88,922.12Z"/><path class="cls-38" d="M969.84,1151.66c0-.19,0-.39,0-.6-.32-13.16-6.79-65.85-17.7-100.79-5.29-17-6.52-28.82-8.57-30.29-3.55-2.55-35.14-11.9-48.55-17.15l-1.27-.5-3.58-1.41-1.72-.66-.93-.35-.74-.28-.07.07a215,215,0,0,0-14.8,18.91c-13.85,19.69-31.88,51.57-29.12,81,.89,9.45,2,23,3.82,38.25.16,1.3.32,2.61.49,3.93.45,3.51.94,7.09,1.47,10.71q.48,3.26,1,6.56c3.67,22.83,15.16,38.39,25.36,57l.27.47c0,.09.1.18.14.27.22.39.44.79.65,1.19l1,2c.2.38.4.76.59,1.14,2,3.75,3.86,7.58,5.72,11.43,1.2,2.48,2.37,5,3.52,7.46l.36.77,4.29,10c.88,2.06,1.84,4.28,2.8,6.52l2,4.58c.57,1.31,1.11,2.58,1.63,3.79,1.16,2.7,2.17,5.07,2.87,6.72.52,1.23.88,2.07,1,2.36,3.51,8.78,6,15.56,7.21,18.73l.72,2L945,1275.91c6.7-3.35,3.2-21.41.68-28.47a161.69,161.69,0,0,0-8.36-18.65q-2-4-4.24-8.06c11.05-19.3,22.23-39.2,29.32-52.72C967,1159.26,969.84,1153.18,969.84,1151.66Zm-56.12-55.23,0-.12a.94.94,0,0,1,0-.16c0-.09.05-.17.07-.26a.65.65,0,0,1,0-.13,0,0,0,0,1,0,0v0s17.17,26.83,15.88,50.14c-.2,3.63-3.81,12.8-9.06,24.55v0c-1.91,4.29-4,8.91-6.3,13.74-.09-.2-.17-.41-.26-.61-3.28-8-5.41-15.53-5.41-22.1C908.76,1161.43,910.21,1110.29,913.72,1096.43Z"/><path class="cls-38" d="M646.22,1112.78l79.91,17.4,38.09-99.62c.84-.66,11.77-6.54,19-10,7.52-3.59,17-8,25.5-11.91,4-1.87,7.84-3.61,11-5.08l.26.2s-4.71,15.71-10.82,54.91v0c-.21,1.31-.41,2.65-.62,4,0,.16-.05.32-.07.48-.14.91-.28,1.82-.42,2.76a3.06,3.06,0,0,1-.05.32l-.27,1.89q-.35,2.32-.69,4.74c-2.72,19.08-6.54,51.56-10.21,84.34h0c-2.9,25.84-9.51,52.36-11.61,72.15v0a137.21,137.21,0,0,1-2.75,14.87c-.14.66-.3,1.33-.46,2-5.91,25-17.39,60.33-17.39,60.33l-3.34-3.09-9.9-9.14a8,8,0,0,1-2.23-8.28c5.49-17.71,24.16-80.4,27.57-124.48a0,0,0,0,0,0,0c1.07-13.85-3-26.9-5.33-39.26l-.12.32c-2,5.46-4.14,11.41-6.33,17.19h0c-5.89,15.54-11.92,29.93-14.43,30.85-5.58,2-110.8-26.72-111.53-30.85Z"/><path class="cls-69" d="M877.46,1042.59l-16.31,9.2,7,7.11-18.55,100.17c-3.79-23.48-5.51-45.78-6.79-59.45-4.26-45.51,41.16-96.85,44-100,2.18.83,4.54,1.75,7,2.71Z"/><path class="cls-69" d="M820.28,1003.35s-6.09,19.9-13.19,69.58c-2.72,19.08-6.54,51.56-10.22,84.34l-3.79-93.81,7.77-8.42-6.91-8.63,14.78-37.74,11-5.09Z"/><path class="cls-70" d="M887.59,999.82l-13.53-8.21s-.38,7.42-33.86,26.79l9.51,26.78Z"/><path class="cls-70" d="M831.29,995.35s.53,8,8.91,23l-18.56,24.19-1.36-39.24Z"/><path class="cls-64" d="M840.25,1018.4s3.6,14.38,2.3,18.41c0,0-7.91,2.88-13.59-.72A63,63,0,0,1,840.25,1018.4Z"/><path class="cls-71" d="M821.65,1225.9c-2-10.15-.09-40.57,0-41.86l1.72.11c0,.31-2,31.48,0,41.41Z"/><path class="cls-72" d="M835.74,1221.22s-16.24,1.94-21.6,3.28l.7,18.19,21.26-2.27Z"/><path class="cls-64" d="M832.18,1034.8s-18.1,45.72-15.15,96.89c3.07,53.06,8.09,72.3,8.09,72.3l11.16,14,4.92-17.21s-15-67.64-5.31-133.47c1.76-11.92,4.36-34.53,4.36-34.53Z"/><path class="cls-40" d="M886.59,1250.72s-3.89,7.77-7.77,9.06-9.55,7.61-9.55,7.61l27.35,14.4s7.29-14.24,7.61-23.3S886.59,1250.72,886.59,1250.72Z"/><path class="cls-67" d="M884,1251.44l-1.81,3.65s17.37,12.7,22.05,13.51l1.61-4.85Z"/><path class="cls-38" d="M882.18,1251.6s13,10.77,24,15.73l36.9-66.36L924,1164S883,1245.13,882.18,1251.6Z"/><path class="cls-66" d="M772,1099.21c-.61,12.27-.52,23.18-.52,23.18h0c0,.06,0,.39,0,.94,0-.21,0-.41-.08-.62-2,5.46-4.14,11.41-6.33,17.19a187,187,0,0,1-.5-18.73c.89-34.43,11.71-52.48,11.71-52.48C773.72,1074.7,772.53,1087.57,772,1099.21Z"/><path class="cls-66" d="M937.3,1228.79l-29.54,35.68,25.3-43.74Q935.25,1224.8,937.3,1228.79Z"/><path class="cls-73" d="M722.77,1184.06h-68.2a10.13,10.13,0,0,1-9.84-7.74L615.11,1054a10.13,10.13,0,0,1,9.84-12.52h68.2a10.13,10.13,0,0,1,9.84,7.75l29.63,122.31A10.13,10.13,0,0,1,722.77,1184.06Z"/><path class="cls-40" d="M639.36,1150.06c3.33-3.09,9.77-4.88,15.28-8.57s.91-7.48.91-7.48c5.67-1.94,5.06-4.53,4.33-6.29-1-2.38-7.17-1.7-7.17-1.7a61,61,0,0,0,7.83-2.24c2.28-1,1.51-5-2-6.25s-17.81,2.27-17.81,2.27,2.33-1.14,9.38-4.68,8.61-6.76,4.45-8.31c-2.89-1.07-8.58,1.18-19.48,8.51-8.21,5.52-7.54,6.24-7.54,6.24S635.37,1153.75,639.36,1150.06Z"/></g></g></svg>