<svg xmlns="http://www.w3.org/2000/svg" xmlns:xlink="http://www.w3.org/1999/xlink" viewBox="0 0 260.83 300.93"><defs><style>.cls-1{isolation:isolate;}.cls-2{fill:#5de8f5;}.cls-3{fill:url(#linear-gradient);}.cls-4{fill:#00aba9;}.cls-5{fill:#fff;}.cls-6{fill:url(#linear-gradient-2);}.cls-7{fill:url(#linear-gradient-3);}.cls-8{fill:#9799ef;}.cls-9{fill:url(#linear-gradient-4);}.cls-10{fill:url(#linear-gradient-5);}.cls-11{fill:#a9445e;}.cls-12{mix-blend-mode:multiply;}.cls-13{fill:url(#linear-gradient-6);}.cls-14{fill:url(#linear-gradient-7);}.cls-15{fill:url(#linear-gradient-8);}.cls-16{fill:url(#linear-gradient-9);}.cls-17{fill:url(#linear-gradient-10);}.cls-18{fill:url(#linear-gradient-11);}.cls-19{fill:url(#linear-gradient-12);}.cls-20{fill:url(#linear-gradient-13);}.cls-21{fill:url(#linear-gradient-14);}.cls-22{fill:url(#linear-gradient-15);}.cls-23{fill:url(#linear-gradient-16);}.cls-24{fill:url(#linear-gradient-17);}.cls-25{fill:url(#linear-gradient-18);}.cls-26{fill:url(#linear-gradient-19);}.cls-27{fill:url(#linear-gradient-20);}.cls-28{fill:url(#linear-gradient-21);}.cls-29{fill:url(#linear-gradient-22);}.cls-30{fill:url(#linear-gradient-23);}.cls-31{fill:url(#linear-gradient-24);}.cls-32{fill:url(#linear-gradient-25);}.cls-33{fill:url(#linear-gradient-26);}.cls-34{fill:url(#linear-gradient-27);}.cls-35{fill:url(#linear-gradient-28);}.cls-36{fill:url(#linear-gradient-29);}.cls-37{fill:url(#linear-gradient-30);}.cls-38{fill:url(#linear-gradient-31);}.cls-39{fill:url(#linear-gradient-32);}.cls-40{fill:url(#linear-gradient-33);}.cls-41{fill:url(#linear-gradient-34);}.cls-42{fill:url(#linear-gradient-35);}.cls-43{fill:#d4d5ff;}.cls-44{fill:#b0e0ff;}.cls-45{fill:#5e6ad9;}.cls-46{fill:url(#linear-gradient-36);}.cls-47{fill:url(#linear-gradient-37);}.cls-48{fill:url(#linear-gradient-38);}.cls-49{fill:#fcf9ff;}.cls-50{fill:url(#linear-gradient-39);}.cls-51{fill:url(#linear-gradient-40);}.cls-52{fill:#4135c4;}.cls-53{fill:#3a2fb3;}.cls-54{fill:#fed5de;}.cls-55{fill:#16003b;}.cls-56{fill:url(#linear-gradient-41);}.cls-57{fill:url(#linear-gradient-42);}.cls-58{fill:url(#linear-gradient-43);}.cls-59{fill:url(#linear-gradient-44);}.cls-60{fill:url(#linear-gradient-45);}.cls-61{fill:url(#linear-gradient-46);}.cls-62{fill:url(#linear-gradient-47);}.cls-63{fill:url(#linear-gradient-48);}.cls-64{fill:url(#linear-gradient-49);}.cls-65{fill:url(#linear-gradient-50);}.cls-66{fill:url(#linear-gradient-51);}.cls-67{fill:url(#linear-gradient-52);}.cls-68{fill:url(#linear-gradient-53);}.cls-69{fill:url(#linear-gradient-54);}.cls-70{fill:url(#linear-gradient-55);}.cls-71{fill:url(#linear-gradient-56);}.cls-72{fill:url(#linear-gradient-57);}.cls-73{fill:url(#linear-gradient-58);}.cls-74{fill:url(#linear-gradient-59);}.cls-75{fill:url(#linear-gradient-60);}.cls-76{fill:url(#linear-gradient-61);}.cls-77{fill:url(#linear-gradient-62);}</style><linearGradient id="linear-gradient" x1="33.56" y1="258.62" x2="37.87" y2="258.62" gradientUnits="userSpaceOnUse"><stop offset="0" stop-color="#5de8f5"/><stop offset="1" stop-color="#5e6ad9"/></linearGradient><linearGradient id="linear-gradient-2" x1="166.7" y1="107.07" x2="114.52" y2="52.19" gradientUnits="userSpaceOnUse"><stop offset="0" stop-color="#78c8ff"/><stop offset="0.51" stop-color="#f0f9ff"/><stop offset="1" stop-color="#d4d5ff"/></linearGradient><linearGradient id="linear-gradient-3" x1="126.06" y1="71.12" x2="80.54" y2="10.22" xlink:href="#linear-gradient-2"/><linearGradient id="linear-gradient-4" x1="74.16" y1="179.09" x2="188.9" y2="177.43" gradientUnits="userSpaceOnUse"><stop offset="0" stop-color="#baf9ff"/><stop offset="1" stop-color="#b2b7f7"/></linearGradient><linearGradient id="linear-gradient-5" x1="76.62" y1="195.98" x2="182.96" y2="195.98" xlink:href="#linear-gradient"/><linearGradient id="linear-gradient-6" x1="94.35" y1="177.36" x2="165.26" y2="177.36" xlink:href="#linear-gradient-4"/><linearGradient id="linear-gradient-7" x1="96.39" y1="177.36" x2="163.21" y2="177.36" xlink:href="#linear-gradient"/><linearGradient id="linear-gradient-8" x1="94.34" y1="188.54" x2="165.26" y2="188.54" xlink:href="#linear-gradient"/><linearGradient id="linear-gradient-9" x1="112.86" y1="177.68" x2="146.72" y2="177.68" gradientUnits="userSpaceOnUse"><stop offset="0" stop-color="#8c1b3d"/><stop offset="0.23" stop-color="#8d1e3f"/><stop offset="0.4" stop-color="#8e2747"/><stop offset="0.54" stop-color="#913753"/><stop offset="0.68" stop-color="#954d64"/><stop offset="0.8" stop-color="#9b6a7b"/><stop offset="0.92" stop-color="#a18d96"/><stop offset="1" stop-color="#a6a8ab"/></linearGradient><linearGradient id="linear-gradient-10" x1="129.79" y1="96.2" x2="129.79" y2="-10.68" gradientUnits="userSpaceOnUse"><stop offset="0" stop-color="#54e1fb"/><stop offset="0.02" stop-color="#5ee3fb" stop-opacity="0.94"/><stop offset="0.09" stop-color="#7fe9fc" stop-opacity="0.75"/><stop offset="0.17" stop-color="#9eeefd" stop-opacity="0.57"/><stop offset="0.25" stop-color="#b8f3fd" stop-opacity="0.42"/><stop offset="0.33" stop-color="#cef6fe" stop-opacity="0.29"/><stop offset="0.42" stop-color="#e0fafe" stop-opacity="0.18"/><stop offset="0.52" stop-color="#eefcff" stop-opacity="0.1"/><stop offset="0.64" stop-color="#f8feff" stop-opacity="0.04"/><stop offset="0.77" stop-color="#fdffff" stop-opacity="0.01"/><stop offset="1" stop-color="#fff" stop-opacity="0"/></linearGradient><linearGradient id="linear-gradient-11" x1="56.25" y1="204.58" x2="203.33" y2="204.58" xlink:href="#linear-gradient"/><linearGradient id="linear-gradient-12" x1="127.8" y1="220.8" x2="130.02" y2="32.33" xlink:href="#linear-gradient-10"/><linearGradient id="linear-gradient-13" x1="121.38" y1="128.47" x2="122.33" y2="128.47" gradientUnits="userSpaceOnUse"><stop offset="0" stop-color="#fff"/><stop offset="1" stop-color="#44d4ee"/></linearGradient><linearGradient id="linear-gradient-14" x1="147.44" y1="117.26" x2="148.38" y2="117.26" xlink:href="#linear-gradient-13"/><linearGradient id="linear-gradient-15" x1="157.68" y1="111.97" x2="158.62" y2="111.97" xlink:href="#linear-gradient-13"/><linearGradient id="linear-gradient-16" x1="121.17" y1="134.12" x2="122.79" y2="134.12" xlink:href="#linear-gradient-13"/><linearGradient id="linear-gradient-17" x1="127.23" y1="175.23" x2="128.17" y2="175.23" xlink:href="#linear-gradient-13"/><linearGradient id="linear-gradient-18" x1="127.02" y1="180.89" x2="128.64" y2="180.89" xlink:href="#linear-gradient-13"/><linearGradient id="linear-gradient-19" x1="144.51" y1="154.42" x2="145.45" y2="154.42" xlink:href="#linear-gradient-13"/><linearGradient id="linear-gradient-20" x1="144.3" y1="160.08" x2="145.92" y2="160.08" xlink:href="#linear-gradient-13"/><linearGradient id="linear-gradient-21" x1="114.16" y1="155.43" x2="115.1" y2="155.43" xlink:href="#linear-gradient-13"/><linearGradient id="linear-gradient-22" x1="113.95" y1="161.09" x2="115.57" y2="161.09" xlink:href="#linear-gradient-13"/><linearGradient id="linear-gradient-23" x1="152.26" y1="128.38" x2="153.2" y2="128.38" xlink:href="#linear-gradient-13"/><linearGradient id="linear-gradient-24" x1="152.05" y1="137.67" x2="153.67" y2="137.67" xlink:href="#linear-gradient-13"/><linearGradient id="linear-gradient-25" x1="104.85" y1="128.47" x2="106.47" y2="128.47" xlink:href="#linear-gradient-13"/><linearGradient id="linear-gradient-26" x1="113.95" y1="143.75" x2="115.57" y2="143.75" xlink:href="#linear-gradient-13"/><linearGradient id="linear-gradient-27" x1="138.18" y1="142.93" x2="139.13" y2="142.93" xlink:href="#linear-gradient-13"/><linearGradient id="linear-gradient-28" x1="135.2" y1="170.97" x2="136.14" y2="170.97" xlink:href="#linear-gradient-13"/><linearGradient id="linear-gradient-29" x1="120.91" y1="165.49" x2="121.85" y2="165.49" xlink:href="#linear-gradient-13"/><linearGradient id="linear-gradient-30" x1="105.19" y1="117.26" x2="106.13" y2="117.26" xlink:href="#linear-gradient-13"/><linearGradient id="linear-gradient-31" x1="114.29" y1="124.79" x2="115.23" y2="124.79" xlink:href="#linear-gradient-13"/><linearGradient id="linear-gradient-32" x1="130.22" y1="148.9" x2="131.16" y2="148.9" xlink:href="#linear-gradient-13"/><linearGradient id="linear-gradient-33" x1="130.22" y1="116.04" x2="131.16" y2="116.04" xlink:href="#linear-gradient-13"/><linearGradient id="linear-gradient-34" x1="135.2" y1="122.35" x2="136.14" y2="122.35" xlink:href="#linear-gradient-13"/><linearGradient id="linear-gradient-35" x1="5.51" y1="245.73" x2="68.93" y2="245.73" xlink:href="#linear-gradient"/><linearGradient id="linear-gradient-36" x1="52.66" y1="102.31" x2="68.01" y2="102.31" xlink:href="#linear-gradient"/><linearGradient id="linear-gradient-37" x1="16.63" y1="242.5" x2="58.61" y2="242.5" xlink:href="#linear-gradient"/><linearGradient id="linear-gradient-38" x1="16.63" y1="238.51" x2="58.61" y2="238.51" xlink:href="#linear-gradient-4"/><linearGradient id="linear-gradient-39" x1="17.67" y1="297.69" x2="31.54" y2="297.69" gradientUnits="userSpaceOnUse"><stop offset="0" stop-color="#f1f2f2"/><stop offset="1" stop-color="#d1d3d4"/></linearGradient><linearGradient id="linear-gradient-40" x1="2.42" y1="291.71" x2="13.23" y2="291.71" xlink:href="#linear-gradient-39"/><linearGradient id="linear-gradient-41" x1="2738.71" y1="258.62" x2="2743.01" y2="258.62" gradientTransform="matrix(-1, 0, 0, 1, 2965.97, 0)" xlink:href="#linear-gradient"/><linearGradient id="linear-gradient-42" x1="2710.66" y1="245.73" x2="2774.07" y2="245.73" gradientTransform="matrix(-1, 0, 0, 1, 2965.97, 0)" xlink:href="#linear-gradient"/><linearGradient id="linear-gradient-43" x1="202.7" y1="241.6" x2="244.68" y2="241.6" xlink:href="#linear-gradient"/><linearGradient id="linear-gradient-44" x1="202.7" y1="237.61" x2="244.68" y2="237.61" xlink:href="#linear-gradient-4"/><linearGradient id="linear-gradient-45" x1="229.29" y1="297.69" x2="243.15" y2="297.69" xlink:href="#linear-gradient-39"/><linearGradient id="linear-gradient-46" x1="247.6" y1="291.71" x2="258.41" y2="291.71" xlink:href="#linear-gradient-39"/><linearGradient id="linear-gradient-47" x1="18.95" y1="138.9" x2="70.44" y2="138.9" xlink:href="#linear-gradient"/><linearGradient id="linear-gradient-48" x1="29.35" y1="156.78" x2="38.33" y2="156.78" xlink:href="#linear-gradient"/><linearGradient id="linear-gradient-49" x1="226.68" y1="159.67" x2="233.59" y2="159.67" xlink:href="#linear-gradient"/><linearGradient id="linear-gradient-50" x1="198.96" y1="140.57" x2="235.11" y2="140.57" xlink:href="#linear-gradient"/><linearGradient id="linear-gradient-51" x1="199.82" y1="107.3" x2="201.48" y2="107.3" xlink:href="#linear-gradient"/><linearGradient id="linear-gradient-52" x1="190.05" y1="103.09" x2="204.18" y2="103.09" xlink:href="#linear-gradient"/><linearGradient id="linear-gradient-53" x1="195.63" y1="101.37" x2="200.36" y2="101.37" xlink:href="#linear-gradient"/><linearGradient id="linear-gradient-54" x1="193.51" y1="101.08" x2="206.27" y2="101.08" xlink:href="#linear-gradient"/><linearGradient id="linear-gradient-55" x1="189.93" y1="99.56" x2="209.66" y2="99.56" xlink:href="#linear-gradient"/><linearGradient id="linear-gradient-56" x1="30.35" y1="98.42" x2="34.87" y2="98.42" xlink:href="#linear-gradient"/><linearGradient id="linear-gradient-57" x1="30.35" y1="100.84" x2="31.92" y2="100.84" xlink:href="#linear-gradient"/><linearGradient id="linear-gradient-58" x1="30.41" y1="124.46" x2="31.98" y2="124.46" xlink:href="#linear-gradient"/><linearGradient id="linear-gradient-59" x1="24.15" y1="119.23" x2="35.83" y2="119.23" xlink:href="#linear-gradient"/><linearGradient id="linear-gradient-60" x1="29.55" y1="109.08" x2="39.45" y2="109.08" xlink:href="#linear-gradient"/><linearGradient id="linear-gradient-61" x1="33.32" y1="100.02" x2="39.9" y2="100.02" xlink:href="#linear-gradient"/><linearGradient id="linear-gradient-62" x1="24.42" y1="108.75" x2="31.92" y2="108.75" xlink:href="#linear-gradient"/></defs><title>Optical character recognition</title><g class="cls-1"><g id="OBJECTS"><rect class="cls-2" x="200.51" y="201.5" width="0.92" height="48.97" transform="translate(-95.4 286.2) rotate(-59.84)"/><path class="cls-3" d="M37.83,235v0a.88.88,0,0,1-.09.2l0,0a.9.9,0,0,1-.16.18l-.15.11a.6.6,0,0,1-.13.09,1.7,1.7,0,0,1-.41.18l-.16.05-.21,0-.25.05h-.06l-.35,0h-.06l-.34,0h-.06a1.91,1.91,0,0,1-.33-.06H35a1.4,1.4,0,0,1-.29-.09l0,0a1.87,1.87,0,0,1-.32-.15,1,1,0,0,1-.62-.86l-.13,46.52a1.06,1.06,0,0,0,.62.86,2.09,2.09,0,0,0,.3.14h0l0,0,.18.06.11,0H35l.21,0h.94l.18,0,.07,0,.21-.05.11,0,0,0a3,3,0,0,0,.41-.18h0l.11-.08.14-.11h0l.13-.14,0,0a.08.08,0,0,0,0,0l0,0,.06-.12v0a.24.24,0,0,0,0-.08s0-.08,0-.12v0l.13-46.51A.78.78,0,0,1,37.83,235Z"/><path class="cls-4" d="M37.25,233.91a3.2,3.2,0,0,0-3,0,.9.9,0,0,0,0,1.7,3.2,3.2,0,0,0,2.95,0A.9.9,0,0,0,37.25,233.91Z"/><rect class="cls-2" x="35.38" y="225.53" width="48.97" height="0.92" transform="translate(-105.32 60.55) rotate(-30.12)"/><path class="cls-2" d="M130.15,240.69a11.14,11.14,0,0,1-5.48-1.32l-88.28-51a3.66,3.66,0,0,1,0-6.88l87.7-51a12.12,12.12,0,0,1,11,0l88.27,51a3.66,3.66,0,0,1,0,6.88l-87.69,51A11.15,11.15,0,0,1,130.15,240.69Zm-.61-110.54a10.24,10.24,0,0,0-5,1.2l-87.7,51A3.23,3.23,0,0,0,34.89,185a3.27,3.27,0,0,0,2,2.65l88.27,51a11.14,11.14,0,0,0,10.06,0l87.69-51a3.26,3.26,0,0,0,1.94-2.64,3.29,3.29,0,0,0-2-2.65l-88.28-51A10.31,10.31,0,0,0,129.54,130.15Z"/><path class="cls-5" d="M202,179.94l-69.38-40.05a6.82,6.82,0,0,0-6.19,0L57.54,180c-1.71,1-1.7,2.59,0,3.58l69.38,40.06a6.82,6.82,0,0,0,6.19,0l68.93-40.06C203.77,182.54,203.76,180.94,202,179.94Z"/><path class="cls-2" d="M127.6,106.49a20.11,20.11,0,0,1-8.73-2,4.22,4.22,0,0,0-2.25-.44,20,20,0,0,1-16.2-5.55c-2.33-.39-8.11-1.88-11-7.06a6.31,6.31,0,0,0-2.2-2.33c-5.44-3.39-6.74-9-3.47-15a.58.58,0,0,0,0-.52c-4.6-11.14,3.9-16.1,6.61-17.36a2.26,2.26,0,0,0,1-2.17c0-.2-.44-6.37,3.62-10.79,2.54-2.77,6.19-4.21,10.83-4.27a2.31,2.31,0,0,0,1.43-.83,1.77,1.77,0,0,0,.3-.78c.75-3.87,3.9-8,10.5-8h0a1.35,1.35,0,0,0,.77-.24c1.81-1.32,8.26-5.24,15.38-.47a2,2,0,0,0,1.55.22c8.33-2,14.61.89,17.1,7.87,4.73-.13,9.95,2.1,10.95,8.75a.46.46,0,0,0,.29.32,10.42,10.42,0,0,1,7,9.68.82.82,0,0,0,.21.58c1.6,1.29,5.12,5,3.27,11.35a3,3,0,0,0,.62,2.77h0a8.52,8.52,0,0,1,.63,10.8,4.12,4.12,0,0,0-.63,2.38c.05,4.75-2.74,8.58-7.66,10.48a5.37,5.37,0,0,0-2.38,1.8,11.71,11.71,0,0,1-9.67,5.2,3.09,3.09,0,0,0-2,.68A17.29,17.29,0,0,1,138.38,105a6,6,0,0,0-3.25.17A23.38,23.38,0,0,1,127.6,106.49Z"/><path class="cls-6" d="M101.42,96.59s-10.81-7.09-4.6-22.48a4.82,4.82,0,0,0,.3-2.6,7.61,7.61,0,0,1,4.33-8.59,2.47,2.47,0,0,0,1.32-2.1c.13-2.73,1.5-8.38,10.4-10a3.68,3.68,0,0,0,2.3-1.4c1.3-1.75,4.45-4.72,10.25-3.36a2.47,2.47,0,0,0,2.41-.8c1.55-1.77,5.19-4.71,11.76-3.76a2,2,0,0,0,1.84-.75c1.28-1.62,4.36-4.49,8.94-2.13a3.21,3.21,0,0,0,1.72.34c2.35-.17,8.44,0,9.47,6.94a2.53,2.53,0,0,0,1.58,2,8.41,8.41,0,0,1,5.69,7.79,2.81,2.81,0,0,0,1,2.16c1.53,1.23,4,4.12,2.57,9.15a5.1,5.1,0,0,0,1,4.71c1.52,1.74,2.86,4.62.47,8.3a6.31,6.31,0,0,0-1,3.54c0,2.4-.84,6.4-6.33,8.53a7.26,7.26,0,0,0-3.3,2.51,9.73,9.73,0,0,1-8,4.34,5.07,5.07,0,0,0-3.37,1.17,15.25,15.25,0,0,1-13.46,3,8.18,8.18,0,0,0-4.36.23,19.47,19.47,0,0,1-14.69-.59,6.24,6.24,0,0,0-3.37-.62A17.75,17.75,0,0,1,101.42,96.59Z"/><path class="cls-7" d="M96.82,74.11a4.82,4.82,0,0,0,.3-2.6,7.61,7.61,0,0,1,4.33-8.59,2.47,2.47,0,0,0,1.32-2.1c.13-2.73,1.5-8.38,10.4-10a3.68,3.68,0,0,0,2.3-1.4c1.3-1.75,4.45-4.72,10.25-3.36a2.47,2.47,0,0,0,2.41-.8c1.55-1.77,5.19-4.71,11.76-3.76a2,2,0,0,0,1.84-.75c1.28-1.62,4.36-4.49,8.94-2.13a3.36,3.36,0,0,0,.75.27c-2.54-9.79-11.24-8.83-15-7.89a4.06,4.06,0,0,1-3.21-.51,10.94,10.94,0,0,0-13,.41,3.37,3.37,0,0,1-2,.65c-6.68,0-8.16,4.72-8.47,6.31a3.9,3.9,0,0,1-.68,1.64,4.33,4.33,0,0,1-3,1.65C92.57,41.25,93.54,54,93.54,54a4.33,4.33,0,0,1-2.21,4.16c-8.88,4.1-6.76,11.78-5.56,14.67a2.71,2.71,0,0,1-.15,2.31c-3.73,6.84.09,10.6,2.74,12.25a8.44,8.44,0,0,1,2.93,3.09c3,5.48,10.13,6.11,10.13,6.11S90.61,89.5,96.82,74.11Z"/><path class="cls-8" d="M174.72,80.25a7.05,7.05,0,0,0-.51-9,4.47,4.47,0,0,1-.92-4.13c1.55-5.34-1.08-8.43-2.78-9.8a2.2,2.2,0,0,1-.75-1.69,9,9,0,0,0-6.09-8.36,1.93,1.93,0,0,1-1.19-1.44.26.26,0,0,1,0-.07h0c-1.17-7.5-8-7.57-10.12-7.42a2.67,2.67,0,0,1-.4,0h0c-2.82-9.93-11.88-8.87-15.68-7.93a3.43,3.43,0,0,1-2.71-.43,11.55,11.55,0,0,0-13.71.43,2.75,2.75,0,0,1-1.63.52h0c-7.19,0-8.76,5.22-9.07,6.82a3.33,3.33,0,0,1-.57,1.39,3.77,3.77,0,0,1-2.5,1.4c-4.26,0-7.57,1.32-9.85,3.8a10.64,10.64,0,0,0-1.36,1.86l0,.05A14.89,14.89,0,0,0,92.92,54a3.67,3.67,0,0,1-1.86,3.56c-5.11,2.37-6.73,5.91-7,9.07a.66.66,0,0,0,0,.34,14.66,14.66,0,0,0,1.12,6.07,2,2,0,0,1-.12,1.77c-1.37,2.53-3.84,8.85,3,13.08a7.75,7.75,0,0,1,2.71,2.86C93.61,96,99.87,97,101.13,97.19a18.24,18.24,0,0,0,15.33,5.45,5.75,5.75,0,0,1,3,.57,18.55,18.55,0,0,0,8.1,1.82,21.94,21.94,0,0,0,7.05-1.2,7.52,7.52,0,0,1,4-.21,15.88,15.88,0,0,0,14-3.13,4.54,4.54,0,0,1,3-1,10.4,10.4,0,0,0,8.47-4.6,6.7,6.7,0,0,1,3-2.29,14.47,14.47,0,0,0,1.85-.88h0a9,9,0,0,0,4.85-8.23,5.76,5.76,0,0,1,.87-3.19h0ZM91.83,90.18a9,9,0,0,0-2.61-3h.11a4.47,4.47,0,0,0,2.45-.65c1.19-.78,1.82-2.17,1.87-4.15A.63.63,0,0,0,93,81.8a.63.63,0,0,0-.64.61,3.62,3.62,0,0,1-1.3,3.13c-1.43.93-3.67.17-4.12,0-2.16-2-3.47-5.23-.82-10.1a3.29,3.29,0,0,0,.18-2.85,14.46,14.46,0,0,1-1-3.57,6.42,6.42,0,0,0,2.33,1.56,5.68,5.68,0,0,0,2,.38,5.3,5.3,0,0,0,2.17-.47c2.72-1.22,3.63-4.17,2.39-7.69a.63.63,0,0,0-1.18.42c.39,1.08,1.4,4.73-1.72,6.14a4.17,4.17,0,0,1-3.22.06,5.38,5.38,0,0,1-2.84-2.64c.22-2.85,1.72-6,6.28-8.06a4.83,4.83,0,0,0,2.35-2.89,4.58,4.58,0,0,0,2,1.31,4.69,4.69,0,0,0,1.46.22c1.77,0,3.83-.86,6.15-2.58a.63.63,0,0,0,.13-.87.63.63,0,0,0-.88-.13c-2.6,1.93-4.84,2.68-6.47,2.17a3.68,3.68,0,0,1-2.19-2.08,13.83,13.83,0,0,1,1.67-7,7.83,7.83,0,0,1,3.85-1.79c2-.29,3.29.6,4.82,1.64a15.08,15.08,0,0,0,2.77,1.59,7.28,7.28,0,0,0,2.68.54,5,5,0,0,0,2.87-.84.62.62,0,0,0-.72-1,4.67,4.67,0,0,1-4.37.16,13.89,13.89,0,0,1-2.54-1.47c-1.58-1.07-3.23-2.19-5.69-1.84a9,9,0,0,0-1.34.32,12.53,12.53,0,0,1,7.89-2.41,5.13,5.13,0,0,0,3.09-1.49,7.61,7.61,0,0,0,7.85-.89,4,4,0,0,1,2.87-.8,2,2,0,0,1,1.29.92,5.49,5.49,0,0,1,.5,1.12,4.35,4.35,0,0,0,1.16,2,2.8,2.8,0,0,0,1.85.66,6.72,6.72,0,0,0,3.84-1.59.61.61,0,0,0,.13-.87.62.62,0,0,0-.87-.14c-1.3,1-3.07,1.9-4.15,1a3.46,3.46,0,0,1-.79-1.46,7.24,7.24,0,0,0-.62-1.37,3.22,3.22,0,0,0-2.09-1.46,5.2,5.2,0,0,0-3.83,1,6.4,6.4,0,0,1-6.4.88,4.74,4.74,0,0,0,.43-1.27c.33-1.75,1.77-5.81,7.84-5.81h0a4,4,0,0,0,2.36-.76A10.38,10.38,0,0,1,132.82,31a4.4,4.4,0,0,0,1.82.7c.09,0,4.83,1.31,4.77,7.51a.63.63,0,0,0,.62.63h0a.63.63,0,0,0,.63-.62c0-4.32-2-6.58-3.65-7.72,8.72-1.94,12.11,2.62,13.43,6.32l-.22-.09-.43-.16a4,4,0,0,0-.45-.15l-.42-.11a3.29,3.29,0,0,0-.43-.09,2.76,2.76,0,0,0-.4-.06l-.4,0h-.76l-.39,0-.33,0-.37.07-.3.08-.37.11-.27.1-.35.14-.24.12L144,38l-.22.13-.31.19-.2.14-.29.21-.17.14-.26.21-.17.16-.22.2-.17.17c-.06.06-.12.13-.18.18l-.18.21-.12.13-.25.3a1.36,1.36,0,0,1-1.26.52,16.42,16.42,0,0,0-5,0,4.13,4.13,0,0,0-1.56-3.4,6.36,6.36,0,0,0-4.33-1.59H129c-2,0-5.49-.36-6-2.69a.64.64,0,0,0-.74-.49.62.62,0,0,0-.48.74c.5,2.38,3,3.69,7.2,3.69h.1a5.15,5.15,0,0,1,3.49,1.26,2.78,2.78,0,0,1,1.1,2.75,12.12,12.12,0,0,0-6.06,3.7,1.84,1.84,0,0,1-1.8.61,10.6,10.6,0,0,0-7.44.65,4.14,4.14,0,0,0-3.15-2.91,7.66,7.66,0,0,0-3.08.29c-2.07.47-3.38.66-4.07-.62a.63.63,0,0,0-.84-.26.64.64,0,0,0-.26.85c1.18,2.2,3.54,1.67,5.44,1.25a6.83,6.83,0,0,1,2.55-.29,2.91,2.91,0,0,1,2.29,2.36A10.51,10.51,0,0,0,115,49a3.07,3.07,0,0,1-1.91,1.17,17.56,17.56,0,0,0-5.17,1.74,6.52,6.52,0,0,1-2.36-.46,5.44,5.44,0,0,1-2-1.67,12.06,12.06,0,0,0-1.23-1.25A4.72,4.72,0,0,0,97,47.66a.62.62,0,0,0,.57,1.11,3.62,3.62,0,0,1,3.94.71,10.66,10.66,0,0,1,1.09,1.13,6.58,6.58,0,0,0,2.46,2,7.6,7.6,0,0,0,1.2.36,10.23,10.23,0,0,0-3.62,5.11h0c0,.07-.85,1.73-3.69,2.08a5.32,5.32,0,0,1-1.69-.1,8.52,8.52,0,0,0-7.53,2,.62.62,0,1,0,.85.91A7.19,7.19,0,0,1,97,61.29a6.37,6.37,0,0,0,2.09.12,6.82,6.82,0,0,0,3.09-1.1l0,.48a1.84,1.84,0,0,1-1,1.57,9.88,9.88,0,0,0-2.4,1.69,7.76,7.76,0,0,0-1.07,1.27A7.31,7.31,0,0,0,97,66.63a8.56,8.56,0,0,0-.64,3.12,10.36,10.36,0,0,0,.15,1.87,3.55,3.55,0,0,1,.06.56,4.06,4.06,0,0,1-.32,1.69c-.17.43-.32.85-.47,1.27,0,.12-.09.24-.13.36-.1.3-.19.6-.28.89l-.12.38c0,.1-.06.2-.08.3A5.93,5.93,0,0,1,88,78.51a.63.63,0,0,0-.49,1.15,8.17,8.17,0,0,0,3.24.71,7,7,0,0,0,4-1.25c0,.09,0,.17-.05.26,0,.28-.09.55-.13.82,0,.12,0,.24,0,.35,0,.27-.06.54-.08.8a2.45,2.45,0,0,0,0,.27c0,.35,0,.69,0,1a1.09,1.09,0,0,0,0,.18c0,.27,0,.54,0,.81,0,.1,0,.2,0,.3s0,.46,0,.69,0,.18,0,.27c0,.3.06.6.1.89h0q.07.45.15.87a2.21,2.21,0,0,1,0,.25c0,.2.09.4.14.6l.06.25c.06.22.12.44.19.65a.57.57,0,0,0,0,.14c.08.26.16.51.25.75a1.34,1.34,0,0,0,.07.18l.21.55.09.21.24.52.07.16c.1.21.21.43.32.64a.56.56,0,0,1,.05.08l.29.52.1.16.26.43.1.14c.23.36.47.7.71,1L98,94c.09.12.18.24.28.35l.09.11c.1.13.21.25.31.37l0,0,.35.38.06.06.18.19C97,94.89,93.63,93.44,91.83,90.18Zm78.76-1.31a9.85,9.85,0,0,0,.51-4.3c-.35-3.21-2.28-6.23-5.73-9a.62.62,0,1,0-.78,1c3.18,2.53,4.95,5.25,5.27,8.11a8.88,8.88,0,0,1-1.56,6,12.87,12.87,0,0,1-1.62.77,8.11,8.11,0,0,0-2.49,1.53,3.62,3.62,0,0,0-.54-1.23,6.07,6.07,0,0,0-3.35-2.15,5.58,5.58,0,0,0,2.81-2.75c1.07-2.46.3-4.94-.38-7.14l-.14-.44a9.88,9.88,0,0,1,1.4-8.58,6.83,6.83,0,0,0,1.35-6.15c-.75-2.49-3.13-4.62-6.52-5.85a.62.62,0,0,0-.43,1.17c3,1.08,5.13,3,5.76,5A5.61,5.61,0,0,1,163,69.92a11.13,11.13,0,0,0-1.58,9.68l.14.44c.65,2.08,1.31,4.24.42,6.27S158.81,89,157.16,89h0c-.27,0-.54-.06-.83-.07a15.07,15.07,0,0,0-1.88,0c-.92.06-3.19.08-4.32-1.21a3.57,3.57,0,0,1-.64-2.85,11.15,11.15,0,0,0,2.67.35,5.89,5.89,0,0,0,3-.71A3.47,3.47,0,0,0,156.81,82a8.63,8.63,0,0,0-.13-2.74q-.08-.41-.12-.81a10.94,10.94,0,0,1,.59-5.17,9.11,9.11,0,0,1,1.26-2.13,10.61,10.61,0,0,0,1.34-2.26c1.19-3.1-1.06-5.59-3.56-6.9a.63.63,0,0,0-.58,1.11c1,.51,4.1,2.41,3,5.35a9,9,0,0,1-1.18,2A10.2,10.2,0,0,0,156,72.84a12.08,12.08,0,0,0-.66,5.75c0,.29.08.57.12.86a7.23,7.23,0,0,1,.14,2.34,2.22,2.22,0,0,1-1.09,1.66,6.74,6.74,0,0,1-4.81.19,3.57,3.57,0,0,0-.26-1.83,5.17,5.17,0,0,0-2.77-2.52,1.88,1.88,0,0,1-.67-1.41,2.22,2.22,0,0,1,.54-1.77,7.11,7.11,0,0,1,3-1.35,10.63,10.63,0,0,0,2.74-1.08,4.14,4.14,0,0,0,1.84-2.27c.55-1.91-.55-3.54-1.52-5-.23-.35-.46-.69-.65-1a9.62,9.62,0,0,1-1.24-5.86A11.4,11.4,0,0,1,151,58a8.56,8.56,0,0,0,.4-2.46c-.06-3.15-2.34-5.54-6.11-6.39a.62.62,0,0,0-.27,1.22c1.52.34,5.06,1.53,5.13,5.19a7.52,7.52,0,0,1-.35,2.12,11.91,11.91,0,0,0-.37,1.76,10.9,10.9,0,0,0,1.4,6.63c.21.35.45.71.7,1.08.85,1.28,1.74,2.59,1.35,3.94a2.91,2.91,0,0,1-1.31,1.57,9.44,9.44,0,0,1-2.42.93,8.16,8.16,0,0,0-3.46,1.63,3.45,3.45,0,0,0-.94,2.79,3.94,3.94,0,0,0,.12.7,13.51,13.51,0,0,0-1.72-.27c-1.26-.1-4.31-.53-5.38-2.21a3.15,3.15,0,0,1-.07-2.94,5.77,5.77,0,0,1,1.86-2.48c6.8-5.52,3.58-11.27,1.88-13.49a.62.62,0,0,0-.87-.11.61.61,0,0,0-.12.87c4.28,5.58.79,9.76-1.68,11.77a7,7,0,0,0-2.24,3,4.39,4.39,0,0,0,.18,4C138,79,141.24,79.51,143,79.66a9.16,9.16,0,0,1,2.57.54,4.42,4.42,0,0,1,2.65,2.08,2.15,2.15,0,0,1,.1,1.55v0h0a.25.25,0,0,0,0,.07,5.12,5.12,0,0,0,.84,4.6c1.44,1.65,4,1.73,5.34,1.63a14.5,14.5,0,0,1,1.72,0c4.12.23,5.74,1.35,6.37,2.25a2.35,2.35,0,0,1,.42,1.82,9,9,0,0,1-7.37,4,5.74,5.74,0,0,0-2.82.68c-.34-2.72-2.2-4.82-5.24-5.86a17.09,17.09,0,0,0-4.84-.68c-.58,0-1.16,0-1.73-.09-2-.17-3.87-.5-4.63-1.87a3.74,3.74,0,0,1-.24-2.45c0-.29.1-.58.15-.88a10.22,10.22,0,0,0,.27-2.1c0-3.32-2.57-5-4.84-6.53a20,20,0,0,1-2.42-1.78,9.1,9.1,0,0,1-2.94-8.56,5.26,5.26,0,0,0,1,1.57,7.25,7.25,0,0,0,5.4,2.21,8.22,8.22,0,0,0,1-.06.62.62,0,1,0-.14-1.24,6.17,6.17,0,0,1-5.32-1.74,4.15,4.15,0,0,1-.86-3.87c.06-.26.13-.54.2-.83.58-2.28,1.29-5.11-.36-7.19a7,7,0,0,0-3.08-2.15.63.63,0,0,0-.8.37.62.62,0,0,0,.37.8,5.77,5.77,0,0,1,2.53,1.75c1.27,1.6.67,4,.13,6.11-.06.28-.13.54-.19.8-2.27,4.75-1.43,9.58,2.26,13a20.57,20.57,0,0,0,2.57,1.9c2.2,1.46,4.29,2.84,4.29,5.49a9.62,9.62,0,0,1-.25,1.87c-.06.3-.12.61-.17.92A5,5,0,0,0,135.3,91c1.19,2.13,4.18,2.38,5.61,2.5.6,0,1.19.07,1.79.1a16,16,0,0,1,4.49.61c1.66.57,4.39,2,4.45,5.5a14.65,14.65,0,0,1-12.22,2.77,5.85,5.85,0,0,0-3.28-5.19l-1-.47a10,10,0,0,1-2.06-1.16,6.25,6.25,0,0,1-1.89-3.11,14.15,14.15,0,0,1-.39-2.4,10.53,10.53,0,0,0-.85-3.67,8.15,8.15,0,0,0-3.1-3.35,11.36,11.36,0,0,0-3.78-1.44,7.84,7.84,0,0,0,1.5-6.17.63.63,0,0,0-.71-.53.62.62,0,0,0-.52.71,6.75,6.75,0,0,1-1.85,6l-.11.1a12.86,12.86,0,0,1-5.93,3,.63.63,0,0,0-.48.74.61.61,0,0,0,.61.5l.12,0a14.91,14.91,0,0,0,6.35-3.22,10.22,10.22,0,0,1,4.15,1.4A6.89,6.89,0,0,1,128.83,87a9.7,9.7,0,0,1,.73,3.26A15,15,0,0,0,130,92.9a7.29,7.29,0,0,0,2.31,3.74A10.73,10.73,0,0,0,134.62,98c.32.15.64.29.94.45a4.65,4.65,0,0,1,2.61,3.88,8.74,8.74,0,0,0-3.92.36,18.86,18.86,0,0,1-14.22-.56,2.52,2.52,0,0,0-.29-.12c1.91-.86,4.26-2.47,4.74-5.29A5.71,5.71,0,0,0,123.3,92a6.13,6.13,0,0,0-4.68-2.11c-.51,0-1,0-1.58,0-2.05,0-4.17.1-5.86-1a2.66,2.66,0,0,1-1-1,2.75,2.75,0,0,1,.24-2.61,7.66,7.66,0,0,1,5-3.46.62.62,0,0,0,.56-.68.63.63,0,0,0-.69-.56,8.84,8.84,0,0,0-5.91,4.09,4,4,0,0,0-.28,3.75A3.74,3.74,0,0,0,110.51,90c2,1.26,4.33,1.2,6.56,1.15.52,0,1,0,1.54,0a4.85,4.85,0,0,1,3.73,1.66,4.44,4.44,0,0,1,.91,3.68c-.53,3.09-4,4.47-5.57,4.94a5.32,5.32,0,0,0-.69,0,4.92,4.92,0,0,0-.67,0,17.25,17.25,0,0,1-11.22-2.57l.27,0a4.51,4.51,0,0,0,3.3-1.42,3.75,3.75,0,0,0,.92-3.41c-.43-1.86-1.89-2.72-3.19-3.47-.38-.23-.76-.45-1.12-.7a6.4,6.4,0,0,1-2-8.77.62.62,0,0,0-.18-.86.62.62,0,0,0-.86.17,7.64,7.64,0,0,0,2.33,10.48,14,14,0,0,0,1.2.75c1.23.72,2.29,1.35,2.6,2.68a2.46,2.46,0,0,1-.62,2.28,3.29,3.29,0,0,1-2.85,1,6.7,6.7,0,0,1-3.09-1.47h0l0,0h0a14.77,14.77,0,0,1-4.42-5.24,16.05,16.05,0,0,1-1.8-6.61s0-.06,0-.09c0-.25,0-.5,0-.75V83c0-.18,0-.36,0-.54s0-.38,0-.57,0-.27,0-.41,0-.48.08-.72,0-.24,0-.35c0-.27.08-.53.13-.8s0-.23.07-.35c0-.27.11-.54.17-.82l.09-.38c.07-.27.15-.55.23-.83s.07-.26.11-.4c.09-.29.19-.58.29-.88l.12-.37q.19-.54.42-1.11a4.65,4.65,0,0,1,4.16-.88,6.36,6.36,0,0,1,2.57,2.17c.26.3.51.6.78.89a8.28,8.28,0,0,0,6.06,2.75,8.78,8.78,0,0,0,5.29-1.87c3.09-2.33,5-6.71,2.48-10.22a.61.61,0,0,0-.87-.14.62.62,0,0,0-.14.87c2.07,2.87.4,6.52-2.23,8.49a6.91,6.91,0,0,1-9.68-.74c-.25-.26-.49-.55-.74-.84a7.32,7.32,0,0,0-3.11-2.54,5.54,5.54,0,0,0-4.13.34.92.92,0,0,1,0-.16c0-.16,0-.33,0-.49a6,6,0,0,0-.08-.73,7.91,7.91,0,0,1-.13-1.29,7.19,7.19,0,0,1,.45-2.79.29.29,0,0,0,.1,0,6.12,6.12,0,0,1,3.72-.73c1.91.22,3.14,1.31,4.45,2.47a15.84,15.84,0,0,0,2.67,2,5.68,5.68,0,0,0,2.85.77,5.88,5.88,0,0,0,3.48-1.17.62.62,0,0,0-.73-1,4.45,4.45,0,0,1-5,.33,15.69,15.69,0,0,1-2.45-1.87c-1.4-1.24-2.84-2.51-5.13-2.78a7.51,7.51,0,0,0-3,.26,7.22,7.22,0,0,1,1.25-1.21,9.24,9.24,0,0,1,1.43-.9,1.22,1.22,0,0,0,.19-.12c1.72-1.16,4.16-.9,5.9-.24.63.24,1.27.53,1.88.81s1.42.66,2.17.92a9.74,9.74,0,0,0,3.3.62,6.19,6.19,0,0,0,3.89-1.27,5,5,0,0,0,2.08-4.61A4.9,4.9,0,0,0,118,55.8a.62.62,0,1,0-.46,1.15,3.6,3.6,0,0,1,2.4,2.8,3.7,3.7,0,0,1-1.6,3.45c-2,1.57-4.63,1-6,.47-.7-.25-1.4-.57-2.07-.88s-1.29-.59-2-.85a8.89,8.89,0,0,0-5-.49,2.89,2.89,0,0,0,.1-.6,9.08,9.08,0,0,1,4.86-7.73h0a16.44,16.44,0,0,1,5-1.72,4.48,4.48,0,0,0,1.15-.4h.06a5.16,5.16,0,0,1,5.47.41l.45.32c2,1.46,3.94,2.84,6.6,2.84a7.57,7.57,0,0,0,1-.07,11.46,11.46,0,0,0,7.27-4.36.63.63,0,1,0-1-.78,10.22,10.22,0,0,1-6.45,3.91c-2.74.34-4.6-1-6.75-2.55l-.45-.33a6.33,6.33,0,0,0-4.26-1.2c1.46-1.66,4.32-3.67,9.14-2.54a3.07,3.07,0,0,0,2.84-.82,23.66,23.66,0,0,1,6.55-.27c1.91.21,4.32,1.06,5.37,2.84a4,4,0,0,1,.07,3.72c-.65,1.58-2.08,2.15-3.73,2.82a6.36,6.36,0,0,0-3.93,4.42,8.91,8.91,0,0,0,2,7.67.63.63,0,0,0,.48.23.62.62,0,0,0,.4-.15.63.63,0,0,0,.08-.88A7.71,7.71,0,0,1,134,59.65a5.08,5.08,0,0,1,3.18-3.58c1.75-.7,3.57-1.43,4.42-3.49a5.26,5.26,0,0,0-.15-4.84c-1.29-2.17-4.1-3.2-6.3-3.44a23.92,23.92,0,0,0-5.14,0c1.89-1.49,5-2.94,9.83-2.25a2.63,2.63,0,0,0,2.21-.75,9.34,9.34,0,0,1,5.27,1.39c2,1.29,2.67,3.29,3.38,5.42s1.36,4.11,3.26,5.64a20.59,20.59,0,0,0,6.39,3c4.26,1.45,7.95,2.71,8.13,8a.63.63,0,0,0,.63.6h0a.63.63,0,0,0,.6-.65c-.22-6.12-4.67-7.64-9-9.11a19.7,19.7,0,0,1-6-2.83c-1.61-1.3-2.22-3.13-2.86-5.07-.74-2.23-1.5-4.55-3.89-6.07a10.41,10.41,0,0,0-4.83-1.56,5.92,5.92,0,0,1,7.27-1,2.77,2.77,0,0,0,.43.18,2.72,2.72,0,0,0,.38.11l.08,0h0a2.14,2.14,0,0,0,.43.07c1.13.27,4.73,1.83,4.81,10.88a.63.63,0,0,0,.63.62h0a.62.62,0,0,0,.62-.63C157.71,44,156,41,154.3,39.55c2.63.22,6.2,1.44,6.94,6.41a.06.06,0,0,1,0,0h0s1,4.33-2.71,6.61a.62.62,0,0,0-.21.86.65.65,0,0,0,.54.3.55.55,0,0,0,.32-.1A7.1,7.1,0,0,0,162.58,48a2.72,2.72,0,0,0,.63.34,9.5,9.5,0,0,1,3.38,2.27,4.4,4.4,0,0,1-1.72,4.87.62.62,0,0,0-.11.87.63.63,0,0,0,.5.24.6.6,0,0,0,.38-.13,5.87,5.87,0,0,0,2.3-3.71,7.78,7.78,0,0,1,.57,2.83,3.45,3.45,0,0,0,1.22,2.63,7.29,7.29,0,0,1,2.74,5.06c-.13.55-1.09,3.86-6,3.86a.57.57,0,0,0-.13,0,.62.62,0,1,0,0,1.24h.14a7.48,7.48,0,0,0,5.76-2.18c0,.17-.08.33-.13.51A5.72,5.72,0,0,0,173.26,72a5.68,5.68,0,0,1,.64,7.16A2.49,2.49,0,0,1,172.16,77a10.64,10.64,0,0,1,.05-1.5,5.81,5.81,0,0,0-.46-3.37,5.61,5.61,0,0,0-4.55-2.77.62.62,0,0,0-.69.54.63.63,0,0,0,.54.7,4.45,4.45,0,0,1,3.59,2.1,4.71,4.71,0,0,1,.32,2.71,11.43,11.43,0,0,0,0,1.67,3.67,3.67,0,0,0,2.37,3.17,7.2,7.2,0,0,0-.69,3.19A7.6,7.6,0,0,1,170.59,88.87Z"/><path class="cls-9" d="M182,177l-50.16-29a4.92,4.92,0,0,0-4.48,0L77.55,177c-1.23.71-1.22,1.88,0,2.59l50.16,29a4.92,4.92,0,0,0,4.48,0l49.83-29A1.37,1.37,0,0,0,182,177Z"/><path class="cls-10" d="M182.91,178.62s0,0,0,0a1.4,1.4,0,0,1-.15.3l0,.05a1.62,1.62,0,0,1-.25.28,1.25,1.25,0,0,1-.22.16,1.43,1.43,0,0,1-.2.14l-49.83,29a3.55,3.55,0,0,1-.44.21l-.13.05-.29.09L131,209c-.13,0-.26.05-.39.06l-.09,0a4.71,4.71,0,0,1-.53,0h-.09a4.53,4.53,0,0,1-.52,0h-.08a4.17,4.17,0,0,1-.51-.09l-.09,0-.44-.13-.08,0a3.54,3.54,0,0,1-.48-.23l-50.16-29a1.58,1.58,0,0,1-.94-1.3v4.6a1.6,1.6,0,0,0,.93,1.31l50.17,29a4.71,4.71,0,0,0,.45.22h0l.08,0,.28.1.16,0,.09,0,.08,0,.31,0,.11,0h.08l.12,0h.64l.35,0h.13l.27,0,.12,0,.31-.07.17-.05.13,0,.12,0a3.1,3.1,0,0,0,.45-.21l49.83-29,0,0a1.53,1.53,0,0,0,.16-.11c.07-.06.16-.11.22-.17h0l.2-.21,0,0a.21.21,0,0,1,0-.06.35.35,0,0,0,0-.08.76.76,0,0,0,.09-.18,0,0,0,0,1,0,0,.08.08,0,0,1,0,0l0-.11a1.1,1.1,0,0,0,0-.18v-4.64A1.26,1.26,0,0,1,182.91,178.62Z"/><polygon class="cls-11" points="129.66 153.68 128.64 154.27 126.85 155.31 124.79 156.51 123 157.55 120.94 158.75 119.15 159.79 117.09 160.98 115.3 162.02 113.24 163.22 111.45 164.26 109.39 165.46 107.6 166.5 105.55 167.69 103.75 168.73 101.7 169.93 99.9 170.97 97.84 172.17 96.05 173.21 93.99 174.4 92.2 175.44 90.15 176.64 88.35 177.68 87.33 178.28 88.36 178.87 90.16 179.91 92.23 181.11 94.04 182.15 96.11 183.34 97.91 184.38 99.98 185.58 101.79 186.62 103.86 187.82 105.66 188.86 107.73 190.05 109.53 191.09 111.61 192.29 113.41 193.33 115.48 194.53 117.29 195.57 119.36 196.76 121.16 197.81 123.23 199 125.03 200.04 127.11 201.24 128.91 202.28 129.94 202.87 172.26 178.28 129.66 153.68"/><g class="cls-12"><polygon class="cls-11" points="171.24 178.87 169.45 179.91 173.27 182.12 175.06 181.07 171.24 178.87"/><polygon class="cls-11" points="165.6 182.15 169.42 184.35 171.21 183.31 167.39 181.11 165.6 182.15"/><polygon class="cls-11" points="136.29 153.11 134.48 152.07 130.69 154.27 132.49 155.31 136.29 153.11"/><polygon class="cls-11" points="128.64 154.27 124.82 152.07 123.03 153.11 126.85 155.31 128.64 154.27"/><polygon class="cls-11" points="136.37 157.55 140.16 155.34 138.36 154.3 134.56 156.51 136.37 157.55"/><polygon class="cls-11" points="124.79 156.51 120.97 154.3 119.18 155.34 123 157.55 124.79 156.51"/><polygon class="cls-11" points="140.24 159.79 144.03 157.58 142.23 156.54 138.44 158.75 140.24 159.79"/><polygon class="cls-11" points="120.94 158.75 117.12 156.54 115.33 157.58 119.15 159.79 120.94 158.75"/><polygon class="cls-11" points="117.09 160.98 113.27 158.78 111.48 159.82 115.3 162.02 117.09 160.98"/><polygon class="cls-11" points="113.24 163.22 109.42 161.01 107.63 162.05 111.45 164.26 113.24 163.22"/><polygon class="cls-11" points="151.86 166.5 155.66 164.29 153.85 163.25 150.06 165.46 151.86 166.5"/><polygon class="cls-11" points="109.39 165.46 105.57 163.25 103.78 164.29 107.6 166.5 109.39 165.46"/><polygon class="cls-11" points="155.74 168.74 159.53 166.53 157.73 165.49 153.94 167.69 155.74 168.74"/><polygon class="cls-11" points="105.55 167.69 101.72 165.49 99.93 166.53 103.75 168.73 105.55 167.69"/><polygon class="cls-11" points="159.61 170.97 163.41 168.77 161.6 167.72 157.81 169.93 159.61 170.97"/><polygon class="cls-11" points="101.7 169.93 97.88 167.72 96.08 168.76 99.9 170.97 101.7 169.93"/><polygon class="cls-11" points="163.49 173.21 167.28 171 165.48 169.96 161.68 172.17 163.49 173.21"/><polygon class="cls-11" points="97.84 172.17 94.02 169.96 92.23 171 96.05 173.21 97.84 172.17"/><polygon class="cls-11" points="167.36 175.44 171.16 173.24 169.35 172.2 165.56 174.4 167.36 175.44"/><polygon class="cls-11" points="171.24 177.68 175.03 175.48 173.23 174.44 169.43 176.64 171.24 177.68"/><polygon class="cls-11" points="92.23 181.11 88.44 183.31 90.24 184.35 94.04 182.15 92.23 181.11"/><polygon class="cls-11" points="161.75 184.38 165.57 186.59 167.37 185.55 163.54 183.34 161.75 184.38"/><polygon class="cls-11" points="96.11 183.34 92.31 185.55 94.12 186.59 97.91 184.38 96.11 183.34"/><polygon class="cls-11" points="157.9 186.62 161.72 188.83 163.52 187.78 159.7 185.58 157.9 186.62"/><polygon class="cls-11" points="99.98 185.58 96.19 187.78 97.99 188.83 101.79 186.62 99.98 185.58"/><polygon class="cls-11" points="154.06 188.86 157.88 191.06 159.67 190.02 155.85 187.82 154.06 188.86"/><polygon class="cls-11" points="150.21 191.09 154.03 193.3 155.82 192.26 152 190.05 150.21 191.09"/><polygon class="cls-11" points="146.36 193.33 150.18 195.54 151.97 194.5 148.15 192.29 146.36 193.33"/><polygon class="cls-11" points="142.51 195.57 146.33 197.77 148.12 196.73 144.3 194.53 142.51 195.57"/><polygon class="cls-11" points="115.48 194.53 111.69 196.73 113.49 197.78 117.29 195.57 115.48 194.53"/><polygon class="cls-11" points="138.66 197.81 142.48 200.01 144.27 198.97 140.45 196.76 138.66 197.81"/><polygon class="cls-11" points="134.81 200.04 138.63 202.25 140.42 201.21 136.6 199 134.81 200.04"/><polygon class="cls-11" points="130.96 202.28 134.78 204.49 136.57 203.44 132.75 201.24 130.96 202.28"/><polygon class="cls-11" points="144.11 162.02 147.91 159.82 146.1 158.78 142.31 160.98 144.11 162.02"/><polygon class="cls-11" points="147.99 164.26 151.78 162.05 149.98 161.01 146.18 163.22 147.99 164.26"/><polygon class="cls-11" points="88.36 178.87 84.56 181.07 86.37 182.12 90.16 179.91 88.36 178.87"/><polygon class="cls-11" points="107.73 190.05 103.94 192.26 105.74 193.3 109.53 191.09 107.73 190.05"/><polygon class="cls-11" points="103.86 187.82 100.06 190.02 101.86 191.06 105.66 188.86 103.86 187.82"/><polygon class="cls-11" points="111.61 192.29 107.81 194.5 109.62 195.54 113.41 193.33 111.61 192.29"/><polygon class="cls-11" points="123.31 203.44 125.11 204.49 128.91 202.28 127.11 201.24 123.31 203.44"/><polygon class="cls-11" points="123.23 199 119.44 201.21 121.24 202.25 125.03 200.04 123.23 199"/><polygon class="cls-11" points="119.36 196.76 115.56 198.97 117.36 200.01 121.16 197.81 119.36 196.76"/><polygon class="cls-11" points="93.99 174.4 90.17 172.2 88.38 173.24 92.2 175.44 93.99 174.4"/><polygon class="cls-11" points="90.15 176.64 86.33 174.44 84.53 175.48 88.35 177.68 90.15 176.64"/></g><path class="cls-13" d="M164.28,176,132,157.38a5.11,5.11,0,0,0-4.66,0L95.3,176c-1.28.75-1.28,2,0,2.71l32.26,18.62a5.13,5.13,0,0,0,4.67,0l32.05-18.62C165.58,178,165.57,176.75,164.28,176Z"/><path class="cls-14" d="M129.91,196.89a4.9,4.9,0,0,1-2.38-.58L97.5,179a1.93,1.93,0,0,1-1.11-1.62,1.91,1.91,0,0,1,1.1-1.61l29.83-17.34a5.17,5.17,0,0,1,4.75,0l30,17.34a1.73,1.73,0,0,1,0,3.23l-29.82,17.34A4.93,4.93,0,0,1,129.91,196.89Zm-.22-38.23a4.07,4.07,0,0,0-2,.46L97.91,176.46a1.15,1.15,0,0,0-.69.89,1.16,1.16,0,0,0,.7.9l30,17.34a4.45,4.45,0,0,0,3.93,0l29.83-17.34a1.16,1.16,0,0,0,.68-.89c0-.32-.25-.64-.7-.9l-30-17.34A4.15,4.15,0,0,0,129.69,158.66Z"/><path class="cls-15" d="M165.2,177.7s0,0,0,0a1.53,1.53,0,0,1-.16.31l0,0a1.82,1.82,0,0,1-.27.29,2.29,2.29,0,0,1-.23.17l-.2.15-32.05,18.62a2.77,2.77,0,0,1-.46.22l-.13,0c-.1,0-.21.06-.31.09l-.33.09-.4.06-.1,0a5.07,5.07,0,0,1-.55,0h-.09a4.93,4.93,0,0,1-.55,0h-.08a4.51,4.51,0,0,1-.53-.09l-.1,0-.45-.14-.09,0a4.59,4.59,0,0,1-.5-.24L95.32,178.71a1.64,1.64,0,0,1-1-1.36v1.84a1.66,1.66,0,0,0,1,1.36l32.27,18.63a3.38,3.38,0,0,0,.47.22h0l.08,0,.29.1.17,0,.09,0,.08,0,.33.06h.2l.12,0h.66l.37,0h.14l.28,0,.12,0,.33-.08.18,0,.13-.05.13-.05a2.43,2.43,0,0,0,.46-.22l32-18.62,0,0a1,1,0,0,0,.17-.12l.23-.17,0,0A1.45,1.45,0,0,0,165,180l0-.05,0-.05.06-.09.09-.19v0a0,0,0,0,0,0,0,.56.56,0,0,0,0-.12,1.37,1.37,0,0,0,0-.19v-1.87A1.28,1.28,0,0,1,165.2,177.7Z"/><path class="cls-16" d="M141.72,170.75c-6.63-3.83-17.35-3.83-23.94,0s-6.55,10,.08,13.87,17.35,3.83,23.94,0S148.36,174.58,141.72,170.75Z"/><path class="cls-17" d="M175.64,11C150.16-3.67,109-3.68,83.63,11s-25.18,38.58.3,53.29,66.7,14.73,92,0S201.13,25.76,175.64,11Z"/><path class="cls-18" d="M202.06,183.53l-68.93,40.06a6.82,6.82,0,0,1-6.19,0L57.56,183.53a2.22,2.22,0,0,1-1.28-1.69v0l0,2.94a2.18,2.18,0,0,0,1.29,1.8l69.38,40.06a4.55,4.55,0,0,0,.63.3l0,0,.1,0,.39.13.22.06.13,0,.11,0,.44.08.15,0h.11l.16,0,.43,0h.45l.49,0h0l.13,0,.38-.05.16,0,.43-.11.24-.06.17-.07.18-.06a5.71,5.71,0,0,0,.61-.29l68.93-40.06,0,0,.22-.16c.1-.08.22-.15.31-.23l0,0a1.9,1.9,0,0,0,.28-.29.43.43,0,0,1,0-.07l.05-.07a.83.83,0,0,0,.08-.12,1.87,1.87,0,0,0,.12-.25s0,0,0,0a.09.09,0,0,0,0-.05,1,1,0,0,0,0-.16,1.07,1.07,0,0,0,0-.25v-3A2.18,2.18,0,0,1,202.06,183.53Z"/><path class="cls-19" d="M192.89,47H66.81s46.3,132.33,46.43,132.69a10.05,10.05,0,0,0,4.62,4.9c6.63,3.83,17.35,3.83,23.94,0a9.57,9.57,0,0,0,4.63-5.12C146.51,179.23,192.89,47,192.89,47Z"/><path class="cls-20" d="M121.85,130.7a.47.47,0,0,1-.47-.47V126.7a.47.47,0,0,1,.47-.47.48.48,0,0,1,.48.47v3.53A.48.48,0,0,1,121.85,130.7Z"/><path class="cls-21" d="M147.91,120.88a.47.47,0,0,1-.47-.47v-6.3a.47.47,0,1,1,.94,0v6.3A.47.47,0,0,1,147.91,120.88Z"/><path class="cls-22" d="M158.15,118.87a.47.47,0,0,1-.47-.47V105.54a.47.47,0,0,1,.94,0V118.4A.47.47,0,0,1,158.15,118.87Z"/><path class="cls-23" d="M122.79,134.12a.81.81,0,1,1-.81-.81A.82.82,0,0,1,122.79,134.12Z"/><path class="cls-24" d="M127.7,177.47a.48.48,0,0,1-.47-.48v-3.52a.47.47,0,0,1,.94,0V177A.48.48,0,0,1,127.7,177.47Z"/><path class="cls-25" d="M128.64,180.89a.81.81,0,1,1-.81-.81A.81.81,0,0,1,128.64,180.89Z"/><path class="cls-26" d="M145,156.66a.47.47,0,0,1-.47-.48v-3.52a.47.47,0,0,1,.94,0v3.52A.47.47,0,0,1,145,156.66Z"/><path class="cls-27" d="M145.92,160.08a.81.81,0,1,1-.81-.81A.81.81,0,0,1,145.92,160.08Z"/><path class="cls-28" d="M114.63,157.67a.47.47,0,0,1-.47-.47v-3.53a.47.47,0,0,1,.94,0v3.53A.47.47,0,0,1,114.63,157.67Z"/><path class="cls-29" d="M115.57,161.09a.81.81,0,1,1-.81-.81A.81.81,0,0,1,115.57,161.09Z"/><path class="cls-30" d="M152.73,134.24a.47.47,0,0,1-.47-.47V123a.47.47,0,1,1,.94,0v10.77A.47.47,0,0,1,152.73,134.24Z"/><path class="cls-31" d="M153.67,137.67a.81.81,0,1,1-.81-.82A.81.81,0,0,1,153.67,137.67Z"/><path class="cls-32" d="M106.47,128.47a.81.81,0,1,1-.81-.82A.81.81,0,0,1,106.47,128.47Z"/><circle class="cls-33" cx="114.76" cy="143.75" r="0.81"/><path class="cls-34" d="M138.66,151.5a.48.48,0,0,1-.48-.47V134.84a.48.48,0,0,1,.48-.47.47.47,0,0,1,.47.47V151A.47.47,0,0,1,138.66,151.5Z"/><path class="cls-35" d="M135.67,179.54a.47.47,0,0,1-.47-.47v-16.2a.47.47,0,1,1,.94,0v16.2A.47.47,0,0,1,135.67,179.54Z"/><path class="cls-36" d="M121.38,174.05a.47.47,0,0,1-.47-.47V157.39a.47.47,0,0,1,.94,0v16.19A.47.47,0,0,1,121.38,174.05Z"/><path class="cls-37" d="M105.66,125.83a.48.48,0,0,1-.47-.48V109.16a.47.47,0,0,1,.94,0v16.19A.48.48,0,0,1,105.66,125.83Z"/><path class="cls-38" d="M114.76,141.76a.47.47,0,0,1-.47-.47v-33a.47.47,0,1,1,.94,0v33A.47.47,0,0,1,114.76,141.76Z"/><path class="cls-39" d="M130.69,165.87a.47.47,0,0,1-.47-.47v-33a.47.47,0,0,1,.94,0v33A.47.47,0,0,1,130.69,165.87Z"/><path class="cls-40" d="M130.69,119.52a.47.47,0,0,1-.47-.47v-6a.47.47,0,1,1,.94,0v6A.47.47,0,0,1,130.69,119.52Z"/><path class="cls-41" d="M135.67,125.83a.47.47,0,0,1-.47-.47v-6a.47.47,0,0,1,.94,0v6A.47.47,0,0,1,135.67,125.83Z"/><path class="cls-2" d="M84,212a6.48,6.48,0,0,0-5.88,0c-1.62.94-1.61,2.47,0,3.41a6.48,6.48,0,0,0,5.88,0C85.6,214.45,85.59,212.92,84,212Z"/><path class="cls-2" d="M182.73,212a6.48,6.48,0,0,0-5.88,0c-1.62.94-1.61,2.47,0,3.41a6.48,6.48,0,0,0,5.88,0C184.36,214.45,184.35,212.92,182.73,212Z"/><path class="cls-5" d="M68.12,245.89,26.39,221.8a4.3,4.3,0,0,0-3.89,0L6.31,231.21a1.19,1.19,0,0,0,0,2.25l41.72,24.09a4.3,4.3,0,0,0,3.89,0l16.19-9.41A1.19,1.19,0,0,0,68.12,245.89Z"/><path class="cls-42" d="M68.88,247.31a0,0,0,0,1,0,0,1,1,0,0,1-.13.25l0,0a1.6,1.6,0,0,1-.22.24l0,0a2.75,2.75,0,0,1-.33.23l-16.19,9.41a2.64,2.64,0,0,1-.38.18l-.11,0-.26.08-.27.07-.34.06H50.5a3.54,3.54,0,0,1-.46,0H50l-.45,0h-.07l-.44-.07-.08,0a2.4,2.4,0,0,1-.38-.12l-.07,0a2.71,2.71,0,0,1-.42-.2L6.33,233.46a1.35,1.35,0,0,1-.81-1.13v1.12a1.37,1.37,0,0,0,.81,1.13l41.73,24.09a2,2,0,0,0,.39.19h0l.07,0,.24.09.14,0,.07,0,.07,0,.28,0,.1,0h.16l.28,0h.28l.3,0h.12l.23,0,.1,0,.28-.06.14,0,.12,0,.1,0a3.54,3.54,0,0,0,.39-.19l16.19-9.4,0,0a1.69,1.69,0,0,0,.29-.22l0,0,0,0a1.54,1.54,0,0,0,.17-.19l0,0,0,0,.05-.07a.77.77,0,0,0,.07-.16v0l0-.1c0-.05,0-.11,0-.16V247A1,1,0,0,1,68.88,247.31Z"/><path class="cls-5" d="M20.45,175l-.09,31L45.87,220.7l.09-31Zm4.29,30.72-2.29-1.32,0-12.39,2.28,1.32Zm3.81,2.2-2.29-1.32,0-9.72,2.29,1.32Zm3.81,2.2-2.29-1.32,0-15.32,2.29,1.32Zm3.81,2.2L33.88,211l.06-18.75,2.28,1.32Zm3.81,2.2-2.29-1.32.05-16.28L40,198.21Zm3.81,2.2-2.28-1.32,0-13.82,2.28,1.32Z"/><polygon class="cls-43" points="37.74 196.89 37.69 213.17 39.98 214.49 40.03 198.21 37.74 196.89"/><polygon class="cls-43" points="22.45 204.37 24.74 205.69 24.77 193.3 22.49 191.98 22.45 204.37"/><polygon class="cls-43" points="30.07 208.77 32.36 210.09 32.4 194.77 30.11 193.45 30.07 208.77"/><polygon class="cls-44" points="26.26 206.57 28.55 207.89 28.58 198.17 26.29 196.85 26.26 206.57"/><polygon class="cls-44" points="41.55 201.55 41.51 215.37 43.79 216.69 43.83 202.87 41.55 201.55"/><polygon class="cls-44" points="33.88 210.97 36.17 212.29 36.22 193.54 33.94 192.22 33.88 210.97"/><polygon class="cls-45" points="48.71 197.25 58.97 203.17 58.98 201.89 48.71 195.97 48.71 197.25"/><polygon class="cls-45" points="48.72 192.05 48.72 194.62 74.73 209.64 74.74 207.07 48.72 192.05"/><path class="cls-44" d="M76.26,204.54l-57.16-33c-1.07-.62-1.94-.12-1.94,1.1l-.09,32.47A4.25,4.25,0,0,0,19,208.46l57.16,33c1.07.62,1.94.12,2-1.11l.09-32.46A4.26,4.26,0,0,0,76.26,204.54ZM48.72,192.05l26,15v2.57l-26-15ZM70.78,216l-1.12-1.32-1.12,0,.22-1.31-.9-1.54,1.25.51.56-1,.56,1.63,1.25.94-.91.49ZM66,213.2l-1.12-1.33-1.12,0,.22-1.31-.9-1.53,1.25.51.56-1,.56,1.62,1.25.94-.91.49Zm-4.79-2.77-1.12-1.32-1.12,0,.22-1.31-.9-1.54,1.25.51.56-1,.56,1.63,1.25.93-.91.49ZM48.71,196,59,201.89v1.28l-10.26-5.92Zm7.7,11.71-1.11-1.33-1.13,0,.22-1.31-.9-1.53,1.25.51.57-1,.55,1.63,1.25.93-.91.49ZM50,201.27l.57-1,.55,1.62,1.25.93-.9.5.2,1.55-1.11-1.32-1.12,0,.21-1.31-.9-1.54Zm-1.27,4.88L63.94,215v.95L48.68,207.1ZM45.87,220.7,20.36,206l.09-31L46,189.7Zm28.86,16.78L48.64,222.41v-.95l26.1,15.06Zm0-2.19-26.1-15.07v-.95l26.09,15.07Zm0-2.19L48.65,218v-1l26.1,15.07Zm0-2.18L48.66,215.85v-.95L74.75,230Zm0-2.19-26.1-15.07v-.95l26.1,15.07Zm0-2.19L48.67,211.48v-.95l26.1,15.06Zm0-2.18-26.1-15.07v-.95L74.77,223.4Z"/><polygon class="cls-45" points="48.64 220.22 74.74 235.29 74.74 234.34 48.65 219.27 48.64 220.22"/><polygon class="cls-45" points="63.94 214.96 48.68 206.15 48.68 207.1 63.94 215.91 63.94 214.96"/><polygon class="cls-45" points="48.66 215.85 74.75 230.92 74.75 229.97 48.66 214.9 48.66 215.85"/><polygon class="cls-45" points="48.66 213.66 74.76 228.73 74.76 227.78 48.66 212.71 48.66 213.66"/><polygon class="cls-45" points="48.64 222.41 74.73 237.48 74.73 236.52 48.64 221.46 48.64 222.41"/><polygon class="cls-45" points="48.65 218.04 74.75 233.1 74.75 232.15 48.65 217.08 48.65 218.04"/><polygon class="cls-45" points="48.67 211.48 74.76 226.54 74.77 225.59 48.67 210.53 48.67 211.48"/><polygon class="cls-45" points="48.68 208.34 48.67 209.29 74.77 224.36 74.77 223.4 48.68 208.34"/><polygon class="cls-5" points="51.07 201.92 50.52 200.29 49.95 201.27 48.7 200.76 49.6 202.3 49.39 203.61 50.51 203.58 51.62 204.9 51.41 203.35 52.32 202.85 51.07 201.92"/><polygon class="cls-5" points="55.86 204.69 55.3 203.06 54.74 204.04 53.49 203.53 54.39 205.06 54.17 206.37 55.3 206.34 56.41 207.67 56.2 206.11 57.11 205.62 55.86 204.69"/><polygon class="cls-5" points="60.65 207.45 60.09 205.82 59.53 206.8 58.28 206.29 59.18 207.83 58.96 209.14 60.09 209.11 61.2 210.43 60.99 208.88 61.9 208.38 60.65 207.45"/><polygon class="cls-5" points="65.44 210.22 64.88 208.59 64.32 209.57 63.07 209.06 63.97 210.59 63.75 211.9 64.87 211.87 65.99 213.2 65.78 211.64 66.69 211.15 65.44 210.22"/><polygon class="cls-5" points="71.48 213.92 70.23 212.98 69.67 211.35 69.11 212.34 67.86 211.82 68.76 213.36 68.54 214.67 69.66 214.64 70.78 215.96 70.57 214.41 71.48 213.92"/><path class="cls-45" d="M76.27,203.14l-57.16-33c-1.74-1-3.17-.2-3.17,1.8l-.09,32.47A6.92,6.92,0,0,0,19,209.86l57.16,33c1.75,1,3.17.2,3.17-1.8l.1-32.47A7,7,0,0,0,76.27,203.14Zm1.84,37.21c0,1.23-.88,1.73-2,1.11L19,208.46a4.25,4.25,0,0,1-1.93-3.35l.09-32.47c0-1.22.87-1.72,1.94-1.1l57.16,33a4.26,4.26,0,0,1,1.94,3.35Z"/><path class="cls-46" d="M63.94,93.18h0a4.73,4.73,0,0,1,.59-.16l.32-.07.43-.07.24,0a2.9,2.9,0,0,1,.51,0,.41.41,0,0,1,.11,0,3.66,3.66,0,0,1,.59.07l.14,0,.44.13.14.05a3.54,3.54,0,0,1,.52.25h0l-1.74-1,0,0a2.93,2.93,0,0,0-.4-.19l-.08,0-.13,0L65.41,92l-.23-.06-.14,0-.08,0-.48,0H64l-.13,0-.24,0-.22,0-.2.05-.33.07-.17,0-.41.13h0l-.49.19a1.76,1.76,0,0,0-.2.09l-.19.08-.73.38a8.9,8.9,0,0,0-.76.49l-.24.17-.5.38-.28.22-.45.4-.27.25-.17.16-.17.18c-.18.18-.35.37-.53.56s-.11.12-.17.19l-.13.16-.31.37-.2.25-.16.21-.22.3-.15.21-.25.36-.15.23-.06.1c-.15.22-.28.45-.42.67l0,0s-.05.09-.08.14l-.27.48-.12.23-.12.24-.1.21c-.09.19-.18.38-.26.57l0,.1v0c-.1.24-.2.48-.29.72,0,0,0,.09,0,.13l-.09.26c0,.12-.09.24-.13.36l-.09.28c0,.11-.06.22-.1.33l-.06.2-.09.37c0,.13-.07.27-.1.41l0,.14c0,.09,0,.19-.05.29s-.08.43-.11.64a1,1,0,0,0,0,.17c0,.14,0,.27,0,.4l0,.28a8.72,8.72,0,0,0,0,.88c0,2.52.89,4.29,2.32,5.12l1.74,1c-1.43-.83-2.32-2.6-2.33-5.12a8.77,8.77,0,0,1,0-.88c0-.09,0-.19,0-.28s0-.38.07-.57.07-.43.11-.64l.09-.44c0-.13.06-.27.1-.4s.09-.38.15-.57.07-.22.1-.33l.21-.64a2.77,2.77,0,0,1,.1-.26c.11-.29.22-.59.35-.88l0-.09c.12-.26.24-.52.37-.78l.12-.24c.12-.24.25-.48.39-.71a.64.64,0,0,1,.08-.14c.16-.28.32-.55.5-.82l.15-.23.4-.57.22-.3.36-.46c.1-.12.2-.25.31-.37l.3-.35c.17-.19.35-.38.53-.56s.23-.23.34-.34l.27-.25.45-.4.27-.22.5-.38a2.2,2.2,0,0,1,.25-.17,8.9,8.9,0,0,1,.76-.49c.24-.14.49-.26.73-.38l.19-.08C63.49,93.35,63.72,93.26,63.94,93.18Z"/><path class="cls-5" d="M62.34,93.92a17.5,17.5,0,0,0-8,13.76c0,5.06,3.59,7.1,8,4.56s8-8.7,7.94-13.76S66.74,91.38,62.34,93.92Z"/><path class="cls-2" d="M66.13,102.14c0-1.31-.79-2-1.82-1.58l-.48.2-.14.07a2,2,0,0,0-.7.76l-.63,1.16-.64-.42a.64.64,0,0,0-.7,0l-.14.09-.48.36a5,5,0,0,0-1.8,3.67v3.19l7.53-4.35Z"/><path class="cls-2" d="M62.34,97.17a4.24,4.24,0,0,0-1.91,3.32c0,1.22.87,1.72,1.93,1.1a4.23,4.23,0,0,0,1.91-3.32C64.27,97.05,63.4,96.56,62.34,97.17Z"/><path class="cls-47" d="M58.59,243.94h0a.54.54,0,0,1,0,.11l0,0-.09.1-.09.06-.07.06-10.59,6.14a.88.88,0,0,1-.24.11l-.09,0a.2.2,0,0,1-.11,0l-.15,0h-.49l-.19,0h0l-.16-.05h0l-.18-.09L17,233.67a.57.57,0,0,1-.35-.49v1.17a.58.58,0,0,0,.35.49l29,16.77.17.08h0l.11,0h.13l.11,0h.68l.12,0,.07,0h0l.23-.1,10.6-6.15h0l.06,0,.08-.06h0l.08-.08v0l0,0a.16.16,0,0,0,0-.07h0a.08.08,0,0,0,0,0,.2.2,0,0,0,0-.07h0v-1.17A.59.59,0,0,1,58.59,243.94Z"/><path class="cls-48" d="M58.26,243.33a.52.52,0,0,1,0,1l-10.59,6.14a1.84,1.84,0,0,1-1.68,0L17,233.68c-.46-.27-.47-.7,0-1l10.6-6.15a1.84,1.84,0,0,1,1.68,0Z"/><polygon class="cls-49" points="35.03 239.03 36.39 239.82 34.86 240.71 33.5 239.92 35.03 239.03"/><polygon class="cls-49" points="33.27 238.01 34.63 238.8 33.1 239.69 31.74 238.9 33.27 238.01"/><polygon class="cls-49" points="39.91 241.85 38.39 242.74 37.02 241.95 38.55 241.07 39.91 241.85"/><g class="cls-1"><polygon class="cls-49" points="45.11 238.22 46.83 239.22 45.3 240.1 43.58 239.11 45.11 238.22"/><polygon class="cls-49" points="47.33 239.51 49.05 240.5 47.53 241.39 45.81 240.4 47.33 239.51"/></g><polygon class="cls-49" points="45.62 240.69 44.1 241.57 42.73 240.79 44.26 239.9 45.62 240.69"/><polygon class="cls-49" points="43.88 239.68 42.36 240.57 41 239.78 42.52 238.9 43.88 239.68"/><polygon class="cls-49" points="42.48 241.15 40.96 242.04 39.59 241.25 41.12 240.37 42.48 241.15"/><polygon class="cls-49" points="40.78 237.89 42.15 238.68 40.62 239.57 39.26 238.78 40.78 237.89"/><polygon class="cls-49" points="40.72 240.13 39.2 241.02 37.83 240.23 39.36 239.35 40.72 240.13"/><polygon class="cls-49" points="38.15 240.84 36.63 241.72 35.26 240.94 36.79 240.05 38.15 240.84"/><polygon class="cls-49" points="42.89 236.94 44.61 237.93 43.08 238.82 41.36 237.83 42.89 236.94"/><polygon class="cls-49" points="39.05 236.89 40.41 237.68 38.89 238.56 37.52 237.77 39.05 236.89"/><path class="cls-5" d="M37.37,242.88h0l-1.53.88h0l-9.4-5.44,1.52-.88Zm-11.53-9.16-4.24-2.45-1.53.89h0l4.24,2.45,1-.56Zm2.4-3.08L25.46,229l-1.53.89h0l2.79,1.61,1.52-.89Zm-4.33,6.22h0l2,1.15,1.53-.88h0l-2-1.15ZM36.32,244h0l2,1.15,1.12-.65.41-.24-2-1.15ZM34,231.8l-1.53.89h0l1.72,1,1.52-.89h0Zm-4.95-2.86-1.72-1-1.53.89,1.72,1,1.53-.88Zm18.28,10.57-1.52.89,1.72,1,1.52-.89Zm-6.66-3.86-1.53.89,1.72,1,1.52-.89Zm2.22,1.29-1.53.89,1.72,1,1.53-.89Zm-6.67-3.86-1.53.89,1.72,1,1.53-.88Zm8.89,5.15-1.53.88,1.72,1,1.53-.89Zm-23.2-2.52h0l1.37.79,1.52-.89h0l-1.36-.79Zm12.4,2.49h0l1.36.78,1.53-.88h0l-1.36-.79Zm-5.47-5.45h0l1.36.79,1.53-.89h0l-1.37-.78Zm-7.39.92-1.53.88,1.36.79,1.53-.88h0Zm10.65-.8-1.53.89,1.37.79,1.52-.89ZM39.2,241l1.52-.89-1.36-.78-1.53.88Zm-14.5-6.19h0l1.36.79,1.53-.89h0l-1.37-.79Zm4.33.31h0l1.36.79,1.53-.89h0l-1.36-.78Zm-.81,1.72h0l1.36.79,1.53-.88h0L29.74,236ZM37.44,240l1.52-.88h0l-1.36-.79-1.53.88h0Zm-4.89-2.82h0l1.36.79,1.53-.89h0l-1.36-.79Zm-6.09-1.33h0l1.36.78,1.53-.88h0L28,235Zm.64-4.1h0l1.36.79,1.53-.89h0l-1.36-.79Zm-9.18,1.65,1.37.79,1.52-.89-1.36-.78Zm21.13,3.49-1.53.88,1.37.79,1.52-.88Zm-5.95,2.8,1.53-.89L33.27,238l-1.53.89Zm5.29,3.05,1.52-.88-1.36-.79L37,242Zm2,1.87-1.53.89.5.28.87.5,1.52-.88Zm-5.51-3.9,1.53-.89L35,239l-1.53.89Zm5.93-2.82-1.53.89,1.36.79,1.53-.89Zm1.73,1-1.52.88,1.36.79,1.53-.89ZM41,242l1.52-.89-1.36-.79-1.52.89Zm6.61,1.54.56-.32,1-.56h0l-1.37-.79-1.52.89h0l1.36.78ZM42.31,245h0l1.36.79,1.52-.89h0l-1.36-.79Zm1.95-5.11-1.53.89,1.37.78,1.52-.88Zm-7.64,1.82,1.53-.88-1.36-.79-1.53.89Zm17.85,1.37,1.72,1,.94-.55-1.72-1h0Zm-13.59,3.58h0l1.36.79.83-.48h0l-1.36-.79ZM31.74,230l.93-.54h0l-1.71-1L30,229h0ZM34,231.23l.94-.54-1.72-1-.93.54h0Zm-5.33,3.68,1.53-.88h0l-1.36-.79-1.12.65-.41.23Zm12.94-.36h0l-1.72-1h0l-.94.55,1.72,1Zm-6.37.11h0l-1.36-.78-1.53.88h0l.58.33.78.46h0Zm3.24-.29-1.52.89h0l1.71,1,1.53-.89Zm4.42,2,.93-.55-1.72-1-.93.54h0ZM32.15,237l1.53-.89h0l-1.36-.79-1.53.89h0Zm13.86.17h0l-1.72-1-.93.55,1.72,1h0l.26-.15Zm-14.67,1.55,1.53-.89L31.5,237h0l-1.52.88Zm16.9-.27h0l-1.72-1-.94.54h0l1.72,1Zm3.51,3.12.93-.55h0L51,240l-.93.54h0Zm-.47.27h0l-1.72-1h0l-.56.33-1,.56h0l1.72,1Zm2.69,1,.93-.54h0l-1.72-1-.93.55Zm-11.25.26,1.53-.89-1.37-.79-1.52.89h0Zm-2.58.7,1-.56.56-.33-1.36-.78-1.53.88Zm4.34.31,1.53-.88-1.37-.79-1.52.89h0Zm-2.57.71,1.52-.89h0l-1.36-.79-1.53.89h0Zm5-.06.89-.51-.68-.4-.69-.39h0l-1.52.88,1.36.79ZM50.25,243l4,2.3,1-.56.56-.33-4-2.3-1.53.89Zm-.42,1.92,2.49,1.44,1.53-.88h0L51.36,244l-1.53.88Zm-2.95.57,3.48,2,1.52-.88h0l-3.48-2-1.52.89Zm-.8,2h0l-1.36-.79-.83.48,1.36.79Zm-2.48-.14-.82.48,1.36.79.82-.48-1.36-.79Zm.67-1.15,4.2,2.43,1.52-.89-4.2-2.42-1.52.88Zm1.3,2.29-.82.48,1.36.79.83-.48h0l-1.37-.79ZM30.45,228.12h0l-1.72-1-.93.54h0l1.72,1Zm.82,2.1h0l-1.72-1-1.53.89h0l1.72,1Zm2.22,1.29h0l-1.72-1-1.52.89h0l1.71,1Zm2.7,1,.93-.54-1-.58L35.4,231l-.93.54Zm-9.69-.61-3-1.74-1.53.89.81.46,2.2,1.27Zm12.84,1.35h0l-1.72-1-.93.54h0l1.72,1Zm-12.47.63L28.4,233,27,232.22l-1,.56-.56.33Zm10.07,1.78h0l-1.37-.79-1.52.89h0l1.36.78Zm1.73,1h0l-1.36-.79-1.53.89.69.39.68.4h0l.56-.33Zm12.16,7-1.36-.79L48,243.8l1.36.79,1.52-.89Zm-3.47-2h0l-1-.57L46,240.9h0l-.77.45-.76.44,1.36.79h0l.89-.52Zm2.16-1.46.94-.54-1.72-1-.93.55h0Z"/><path class="cls-50" d="M23.72,295.26s5.11-1.42,7-.48c0,0,2.68,1.48-1.78,3.73a20.22,20.22,0,0,1-5.59,1.69s-3.5,1.77-5.24-.22a2.62,2.62,0,0,1,.48-3.46Z"/><path class="cls-51" d="M6.49,290.08s3.73-2.84,5.61-2.7c0,0,2.69.33-.23,3.65a18.23,18.23,0,0,1-4,3.22s-2.3,2.61-4.37,1.55a2.33,2.33,0,0,1-.75-3Z"/><path class="cls-52" d="M5.07,264.05l9.21,15.54a4.62,4.62,0,0,1,.59,1.56l3,15.48A3,3,0,0,0,21.43,299h0a3,3,0,0,0,2.34-3.33l-2.2-16.52a8,8,0,0,0-.34-1.45l-4.81-14.11Z"/><path class="cls-53" d="M3.58,262.23,2.3,292.09a1.68,1.68,0,0,0,2.64,1.45l1.63-1.14a3.75,3.75,0,0,0,1.58-2.73l2-17-5.11-8.62Z"/><path class="cls-11" d="M6.62,264.82a4.88,4.88,0,0,1-3.52-4.7V235.18s-.08-4.85,6.5-4.07l4.85,2.43,12.76,10.19a2.82,2.82,0,0,0,2.3.56l10.41-2,.93,3L30.72,249a7.35,7.35,0,0,1-4.67-.41l-8.87-3.91a.86.86,0,0,0-1.2.82l.68,16.92a2.6,2.6,0,0,1-1.31,2.37C14,265.53,11.32,266.15,6.62,264.82Z"/><path class="cls-11" d="M3.1,235.18l-3,12.91a2.45,2.45,0,0,0,.38,2L3.1,253.9Z"/><polygon class="cls-11" points="9.6 231.11 10.94 230.77 14.32 232.33 14.45 233.54 9.6 231.11"/><path class="cls-54" d="M47.32,241.73l-.17,0-.7-.1-1.93-.28-.76-.11a2.19,2.19,0,0,0-1.08.11l-2.76,1,.93,3a7.12,7.12,0,0,0,1.92.39,1.89,1.89,0,0,0,1.94-2.16l-.14-1h2.65A.39.39,0,0,0,47.32,241.73Z"/><path class="cls-54" d="M16.58,230.07l-1.66.46-.61,1.79-3.37-1.56-.29-1.14s-3.7-2.54-2.84-8.78c0,0,.12-4.16,5.59-4.53,0,0,6.69.06,5.32,5.63C18.72,221.94,20.45,228.58,16.58,230.07Z"/><path class="cls-55" d="M18.72,221.94a3.06,3.06,0,0,1-2.66.79l0,2.54-1.1.23c.75-3.2-1.23-2.77-1.23-2.77-3,.77-1.56,3.87-1.56,3.87,2.43,4.78-1.54,3-1.54,3s-3.7-2.54-2.84-8.78c0,0,.12-4.16,5.59-4.53C13.4,216.31,20.09,216.37,18.72,221.94Z"/><path class="cls-56" d="M223,235v0l.1.2,0,0a.9.9,0,0,0,.16.18.83.83,0,0,0,.15.11.6.6,0,0,0,.13.09,1.7,1.7,0,0,0,.41.18l.15.05.21,0,.26.05h.06l.35,0h.06l.34,0h.05a1.86,1.86,0,0,0,.34-.06h.06a1.61,1.61,0,0,0,.29-.09l0,0a1.87,1.87,0,0,0,.32-.15,1,1,0,0,0,.61-.86l.14,46.52a1.06,1.06,0,0,1-.62.86l-.3.14h0l-.05,0-.18.06-.11,0h-.11l-.21,0h-.94l-.18,0-.08,0-.2-.05-.12,0,0,0a2.2,2.2,0,0,1-.41-.18h0l-.1-.08s-.11-.07-.15-.11h0l-.13-.14,0,0,0,0,0,0a.34.34,0,0,1-.06-.12v0a.24.24,0,0,1,0-.08.5.5,0,0,1,0-.12v0L223,234.77A.52.52,0,0,0,223,235Z"/><path class="cls-4" d="M223.58,233.91a3.2,3.2,0,0,1,2.95,0,.9.9,0,0,1,0,1.7,3.2,3.2,0,0,1-3,0C222.75,235.14,222.76,234.38,223.58,233.91Z"/><path class="cls-5" d="M192.71,245.89l41.72-24.09a4.3,4.3,0,0,1,3.89,0l16.19,9.41a1.19,1.19,0,0,1,0,2.25l-41.72,24.09a4.3,4.3,0,0,1-3.89,0l-16.19-9.41A1.19,1.19,0,0,1,192.71,245.89Z"/><path class="cls-57" d="M192,247.31v0a1,1,0,0,0,.14.25.13.13,0,0,0,0,0,1.6,1.6,0,0,0,.22.24l0,0a2.13,2.13,0,0,0,.33.23l16.19,9.41a2.64,2.64,0,0,0,.38.18l.11,0,.26.08.27.07.34.06h.08a3.46,3.46,0,0,0,.46,0h.07c.16,0,.31,0,.46,0h.07l.44-.07.08,0a2.4,2.4,0,0,0,.38-.12l.07,0a3.23,3.23,0,0,0,.42-.2l41.72-24.09a1.37,1.37,0,0,0,.81-1.13v1.12a1.33,1.33,0,0,1-.81,1.13l-41.72,24.09a1.84,1.84,0,0,1-.4.19h0l-.07,0-.24.09-.14,0-.08,0-.07,0-.27,0-.1,0h-.17l-.27,0h-.28l-.31,0h-.11l-.24,0-.09,0-.28-.06-.15,0-.11,0-.1,0a3.54,3.54,0,0,1-.39-.19l-16.19-9.4,0,0a2.32,2.32,0,0,1-.3-.22l0,0,0,0a1,1,0,0,1-.17-.19l0,0,0,0-.05-.07a.8.8,0,0,1-.08-.16v0l0-.1a.88.88,0,0,1,0-.16V247A1,1,0,0,0,192,247.31Z"/><path class="cls-58" d="M202.72,243h0a.37.37,0,0,0,.05.11l0,0a.44.44,0,0,0,.09.11l.08.06.08.05,10.59,6.15.23.1.09,0,.12,0,.15,0h.49a.63.63,0,0,0,.19,0h0l.17-.05h0l.18-.08,29-16.77a.62.62,0,0,0,.35-.49v1.16a.59.59,0,0,1-.35.49l-29,16.77-.17.08h0l-.1,0-.06,0h-.07l-.12,0h-.53l-.1,0h0l-.11,0h-.07l0,0a.87.87,0,0,1-.24-.1l-10.59-6.15h0l-.06-.05-.09-.06h0l-.07-.08h0v0l0,0,0-.06h0v0s0,0,0,0a.17.17,0,0,0,0-.07h0v-1.16A.5.5,0,0,0,202.72,243Z"/><path class="cls-59" d="M203.05,242.44c-.46.27-.47.7,0,1l10.59,6.15a1.84,1.84,0,0,0,1.68,0l29-16.77a.52.52,0,0,0,0-1l-10.59-6.14a1.84,1.84,0,0,0-1.68,0Z"/><polygon class="cls-5" points="233.82 226.95 232.79 226.36 231.47 227.12 232.5 227.72 233.82 226.95"/><polygon class="cls-5" points="232.15 227.92 231.12 227.33 229.8 228.09 230.83 228.69 232.15 227.92"/><polygon class="cls-5" points="230.48 228.89 229.46 228.29 228.13 229.06 229.16 229.66 230.48 228.89"/><polygon class="cls-5" points="228.81 229.86 227.79 229.26 226.47 230.03 227.49 230.62 228.81 229.86"/><polygon class="cls-5" points="227.15 230.83 226.12 230.23 224.8 231 225.82 231.59 227.15 230.83"/><polygon class="cls-5" points="225.48 231.79 224.45 231.2 223.13 231.97 224.16 232.56 225.48 231.79"/><polygon class="cls-5" points="223.81 232.76 222.78 232.17 221.46 232.94 222.49 233.53 223.81 232.76"/><polygon class="cls-5" points="222.14 233.73 221.12 233.14 219.79 233.91 220.82 234.5 222.14 233.73"/><polygon class="cls-5" points="220.47 234.7 219.45 234.11 218.13 234.88 219.15 235.47 220.47 234.7"/><polygon class="cls-5" points="218.81 235.67 217.78 235.08 216.46 235.85 217.48 236.44 218.81 235.67"/><polygon class="cls-5" points="217.14 236.64 216.11 236.05 214.79 236.82 215.82 237.41 217.14 236.64"/><polygon class="cls-5" points="215.47 237.61 214.44 237.02 213.12 237.79 214.15 238.38 215.47 237.61"/><polygon class="cls-5" points="213.8 238.58 212.78 237.99 211.45 238.76 212.48 239.35 213.8 238.58"/><polygon class="cls-5" points="212.13 239.55 211.11 238.96 209.79 239.73 210.81 240.32 212.13 239.55"/><polygon class="cls-5" points="210.46 240.52 209.44 239.93 208.12 240.69 209.14 241.29 210.46 240.52"/><polygon class="cls-5" points="208.8 241.49 207.77 240.9 206.45 241.66 207.47 242.26 208.8 241.49"/><polygon class="cls-5" points="206.1 241.87 204.78 242.63 205.81 243.23 207.13 242.46 206.1 241.87"/><polygon class="cls-5" points="233.24 229.39 235.64 228 234.1 227.11 231.7 228.5 233.24 229.39"/><polygon class="cls-5" points="229.73 229.65 231.27 230.54 232.94 229.57 231.4 228.68 229.73 229.65"/><polygon class="cls-5" points="227.73 230.81 229.27 231.7 230.94 230.73 229.4 229.84 227.73 230.81"/><polygon class="cls-5" points="225.74 231.97 227.28 232.86 228.94 231.89 227.4 231 225.74 231.97"/><polygon class="cls-5" points="223.74 233.13 225.28 234.02 226.95 233.05 225.41 232.16 223.74 233.13"/><polygon class="cls-5" points="221.74 234.29 223.28 235.18 224.95 234.21 223.41 233.32 221.74 234.29"/><polygon class="cls-5" points="219.74 235.45 221.28 236.34 222.95 235.37 221.41 234.48 219.74 235.45"/><polygon class="cls-5" points="217.74 236.61 219.28 237.5 220.95 236.53 219.41 235.64 217.74 236.61"/><polygon class="cls-5" points="215.75 237.77 217.29 238.66 218.96 237.69 217.41 236.81 215.75 237.77"/><polygon class="cls-5" points="213.75 238.94 215.29 239.82 216.96 238.85 215.42 237.97 213.75 238.94"/><polygon class="cls-5" points="211.75 240.1 213.29 240.99 214.96 240.01 213.42 239.13 211.75 240.1"/><polygon class="cls-5" points="209.75 241.26 211.29 242.15 212.96 241.18 211.42 240.29 209.75 241.26"/><polygon class="cls-5" points="207.75 242.42 209.29 243.31 210.96 242.34 209.42 241.45 207.75 242.42"/><polygon class="cls-5" points="207.41 242.62 206.09 243.39 207.63 244.28 208.95 243.51 207.41 242.62"/><polygon class="cls-5" points="235.26 230.32 237.46 229.05 235.92 228.16 233.73 229.43 235.26 230.32"/><polygon class="cls-5" points="231.81 230.55 233.35 231.43 235.02 230.47 233.48 229.58 231.81 230.55"/><polygon class="cls-5" points="233.06 231.6 231.52 230.72 229.85 231.69 231.39 232.57 233.06 231.6"/><polygon class="cls-5" points="227.89 232.83 229.43 233.71 231.09 232.75 229.56 231.86 227.89 232.83"/><polygon class="cls-5" points="225.93 233.97 227.47 234.85 229.13 233.88 227.59 233 225.93 233.97"/><polygon class="cls-5" points="223.97 235.1 225.5 235.99 227.17 235.02 225.63 234.14 223.97 235.1"/><polygon class="cls-5" points="222.01 236.25 223.54 237.13 225.21 236.16 223.67 235.28 222.01 236.25"/><polygon class="cls-5" points="220.04 237.38 221.58 238.27 223.25 237.3 221.71 236.42 220.04 237.38"/><polygon class="cls-5" points="218.08 238.53 219.62 239.41 221.29 238.44 219.75 237.56 218.08 238.53"/><polygon class="cls-5" points="216.12 239.66 217.66 240.55 219.33 239.58 217.79 238.7 216.12 239.66"/><polygon class="cls-5" points="214.16 240.81 215.7 241.69 217.37 240.72 215.83 239.84 214.16 240.81"/><polygon class="cls-5" points="212.2 241.94 213.74 242.83 215.4 241.86 213.87 240.98 212.2 241.94"/><polygon class="cls-5" points="213.44 243 211.9 242.12 210.24 243.09 211.77 243.97 213.44 243"/><polygon class="cls-5" points="209.91 243.28 207.91 244.44 209.44 245.33 211.44 244.16 209.91 243.28"/><polygon class="cls-5" points="236.57 231.67 239.28 230.1 237.74 229.21 235.03 230.78 236.57 231.67"/><polygon class="cls-5" points="236.25 231.86 234.71 230.97 233.04 231.94 234.58 232.83 236.25 231.86"/><polygon class="cls-5" points="234.25 233.02 232.71 232.13 231.04 233.1 232.58 233.99 234.25 233.02"/><polygon class="cls-5" points="232.25 234.18 230.71 233.29 229.04 234.26 230.58 235.15 232.25 234.18"/><polygon class="cls-5" points="230.25 235.34 228.71 234.45 227.04 235.42 228.58 236.31 230.25 235.34"/><polygon class="cls-5" points="228.25 236.5 226.72 235.61 225.05 236.58 226.59 237.47 228.25 236.5"/><polygon class="cls-5" points="226.26 237.66 224.72 236.78 223.05 237.75 224.59 238.63 226.26 237.66"/><polygon class="cls-5" points="224.26 238.82 222.72 237.94 221.05 238.91 222.59 239.79 224.26 238.82"/><polygon class="cls-5" points="222.26 239.99 220.72 239.1 219.06 240.07 220.59 240.96 222.26 239.99"/><polygon class="cls-5" points="220.27 241.15 218.73 240.26 217.06 241.23 218.6 242.12 220.27 241.15"/><polygon class="cls-5" points="218.27 242.31 216.73 241.42 215.06 242.39 216.6 243.28 218.27 242.31"/><polygon class="cls-5" points="216.27 243.47 214.73 242.58 213.06 243.55 214.6 244.44 216.27 243.47"/><polygon class="cls-5" points="212.78 243.71 209.72 245.49 211.26 246.38 214.32 244.6 212.78 243.71"/><polygon class="cls-5" points="237.1 233.48 241.1 231.16 239.57 230.27 235.56 232.6 237.1 233.48"/><polygon class="cls-5" points="236.74 233.69 235.21 232.8 233.54 233.77 235.07 234.66 236.74 233.69"/><polygon class="cls-5" points="234.76 234.84 233.22 233.96 231.55 234.93 233.09 235.81 234.76 234.84"/><polygon class="cls-5" points="232.77 236 231.23 235.11 229.56 236.08 231.1 236.97 232.77 236"/><polygon class="cls-5" points="230.78 237.15 229.24 236.27 227.58 237.24 229.11 238.12 230.78 237.15"/><polygon class="cls-5" points="228.79 238.31 227.26 237.42 225.59 238.39 227.13 239.28 228.79 238.31"/><polygon class="cls-5" points="226.81 239.46 225.27 238.58 223.6 239.54 225.14 240.43 226.81 239.46"/><polygon class="cls-5" points="224.82 240.62 223.28 239.73 221.61 240.7 223.15 241.59 224.82 240.62"/><polygon class="cls-5" points="222.83 241.77 221.29 240.88 219.63 241.85 221.16 242.74 222.83 241.77"/><polygon class="cls-5" points="220.84 242.93 219.31 242.04 217.64 243.01 219.18 243.9 220.84 242.93"/><polygon class="cls-5" points="218.85 244.09 217.31 243.2 215.64 244.17 217.18 245.06 218.85 244.09"/><polygon class="cls-5" points="215.31 244.35 211.54 246.54 213.08 247.43 216.84 245.24 215.31 244.35"/><polygon class="cls-5" points="238.02 234.08 239.88 233 239.19 232.6 237.33 233.68 238.02 234.08"/><polygon class="cls-5" points="242.24 231.81 240.38 232.89 241.07 233.29 242.93 232.21 242.24 231.81"/><polygon class="cls-5" points="238.19 234.17 238.87 234.57 240.73 233.49 240.04 233.09 238.19 234.17"/><polygon class="cls-5" points="235.99 235.45 236.68 235.85 238.53 234.77 237.84 234.37 235.99 235.45"/><polygon class="cls-5" points="233.07 236.16 234.61 237.05 236.28 236.08 234.74 235.19 233.07 236.16"/><polygon class="cls-5" points="231.07 237.32 232.61 238.21 234.28 237.24 232.74 236.35 231.07 237.32"/><polygon class="cls-5" points="221.45 242.91 222.99 243.8 232.26 238.41 230.72 237.52 221.45 242.91"/><polygon class="cls-5" points="219.38 244.11 220.92 245 222.59 244.03 221.05 243.14 219.38 244.11"/><polygon class="cls-5" points="217.38 245.28 218.92 246.16 220.59 245.19 219.05 244.31 217.38 245.28"/><polygon class="cls-5" points="215.38 246.44 216.92 247.33 218.59 246.36 217.05 245.47 215.38 246.44"/><polygon class="cls-5" points="213.38 247.6 214.92 248.49 216.59 247.52 215.05 246.63 213.38 247.6"/><path class="cls-60" d="M237.11,295.26s-5.11-1.42-7-.48c0,0-2.69,1.48,1.78,3.73a20.21,20.21,0,0,0,5.58,1.69S241,302,242.69,300a2.62,2.62,0,0,0-.47-3.46Z"/><path class="cls-61" d="M254.33,290.08s-3.73-2.84-5.6-2.7c0,0-2.69.33.23,3.65a18.23,18.23,0,0,0,4,3.22s2.29,2.61,4.37,1.55a2.34,2.34,0,0,0,.75-3Z"/><path class="cls-52" d="M255.76,264.05l-9.21,15.54a4.62,4.62,0,0,0-.59,1.56l-3,15.48A3,3,0,0,1,239.4,299h0a3,3,0,0,1-2.35-3.33l2.21-16.52a8,8,0,0,1,.34-1.45l4.81-14.11Z"/><path class="cls-53" d="M257.24,262.23l1.29,29.86a1.68,1.68,0,0,1-2.64,1.45l-1.63-1.14a3.69,3.69,0,0,1-1.58-2.73l-2-17,5.11-8.62Z"/><path class="cls-11" d="M254.21,264.82a4.87,4.87,0,0,0,3.51-4.7V235.18s.09-4.85-6.49-4.07l-4.85,2.43-12.76,10.19a2.84,2.84,0,0,1-2.3.56l-10.41-2-.93,3L230.11,249a7.35,7.35,0,0,0,4.67-.41l8.87-3.91a.86.86,0,0,1,1.2.82l-.68,16.92a2.57,2.57,0,0,0,1.31,2.37C246.87,265.53,249.51,266.15,254.21,264.82Z"/><path class="cls-11" d="M257.72,235.18l3,12.91a2.53,2.53,0,0,1-.38,2l-2.66,3.81Z"/><polygon class="cls-11" points="251.23 231.11 249.88 230.77 246.51 232.33 246.38 233.54 251.23 231.11"/><path class="cls-54" d="M213.5,241.73l.18,0,.7-.1,1.92-.28.77-.11a2.19,2.19,0,0,1,1.08.11l2.76,1-.93,3a7.12,7.12,0,0,1-1.92.39,1.88,1.88,0,0,1-1.94-2.16l.14-1H213.6A.39.39,0,0,1,213.5,241.73Z"/><path class="cls-54" d="M244.25,230.07l1.66.46.6,1.79,3.37-1.56.29-1.14s3.7-2.54,2.85-8.78c0,0-.12-4.16-5.59-4.53,0,0-6.69.06-5.32,5.63C242.11,221.94,240.38,228.58,244.25,230.07Z"/><path class="cls-55" d="M242.11,221.94a3.05,3.05,0,0,0,2.66.79l0,2.54,1.1.23c-.75-3.2,1.23-2.77,1.23-2.77,3,.77,1.56,3.87,1.56,3.87-2.44,4.78,1.53,3,1.53,3s3.7-2.54,2.85-8.78c0,0-.12-4.16-5.59-4.53C247.43,216.31,240.74,216.37,242.11,221.94Z"/><polygon class="cls-43" points="236.78 182.77 236.8 189.87 235.57 190.57 235.56 183.48 236.78 182.77"/><polygon class="cls-11" points="234.95 185.25 234.96 190.93 233.74 191.63 233.72 185.96 234.95 185.25"/><polygon class="cls-45" points="238 205.64 238 206.57 212.42 221.34 212.42 220.41 238 205.64"/><polygon class="cls-43" points="231.27 188.38 231.29 193.05 230.06 193.76 230.05 189.09 231.27 188.38"/><polygon class="cls-11" points="229.44 190.56 229.45 194.11 228.22 194.82 228.21 191.27 229.44 190.56"/><polygon class="cls-44" points="233.1 183.74 233.13 191.99 231.9 192.7 231.88 184.45 233.1 183.74"/><polygon class="cls-45" points="237.98 201.36 237.99 202.29 212.41 217.06 212.41 216.12 237.98 201.36"/><polygon class="cls-44" points="227.59 189 227.61 195.18 226.38 195.88 226.36 189.71 227.59 189"/><polygon class="cls-11" points="223.91 192.06 223.93 197.3 222.71 198 222.69 192.76 223.91 192.06"/><polygon class="cls-45" points="237.97 194.93 237.97 195.86 212.39 210.63 212.39 209.7 237.97 194.93"/><polygon class="cls-43" points="225.74 186.9 225.77 196.24 224.54 196.94 224.51 187.61 225.74 186.9"/><polygon class="cls-44" points="222.07 189.82 222.09 198.36 220.87 199.07 220.84 190.53 222.07 189.82"/><polygon class="cls-45" points="237.97 197.07 237.97 198 212.4 212.77 212.4 211.84 237.97 197.07"/><polygon class="cls-11" points="218.4 195.04 218.41 200.48 217.19 201.19 217.17 195.75 218.4 195.04"/><path class="cls-5" d="M237.92,178.22,212.34,193l0,12.09L238,190.31Zm-24.41,25.09,0-7.09,1.22-.71,0,7.1Zm1.84-1.06,0-9.33,1.23-.71,0,9.33Zm1.84-1.06,0-5.44,1.23-.71v5.44Zm1.84-1.06,0-4.07,1.23-.71v4.07Zm1.84-1.06,0-8.54,1.23-.71,0,8.54ZM222.7,198v-5.24l1.22-.7,0,5.24Zm1.84-1.06,0-9.33,1.23-.71,0,9.34Zm1.84-1.06,0-6.17,1.23-.71,0,6.17Zm1.84-1.06v-3.55l1.23-.7v3.54Zm1.84-1.06v-4.67l1.22-.71,0,4.67Zm1.84-1.06,0-8.25,1.22-.71,0,8.25Zm1.84-1.07,0-5.67,1.23-.7v5.67Zm1.83-1.06,0-7.09,1.23-.71,0,7.1Z"/><polygon class="cls-44" points="216.55 192.21 216.57 201.54 215.35 202.25 215.32 192.92 216.55 192.21"/><polygon class="cls-45" points="207.56 220.17 207.56 220.63 186.5 232.79 186.5 232.33 207.56 220.17"/><polygon class="cls-45" points="207.56 218.63 207.56 219.1 186.5 231.26 186.5 230.79 207.56 218.63"/><polygon class="cls-11" points="194.3 216.26 194.7 216.95 195.59 216.59 194.95 217.68 195.1 218.6 194.31 218.59 193.51 219.52 193.66 218.42 193.02 218.07 193.91 217.41 194.3 216.26"/><polygon class="cls-45" points="207.55 217.1 207.56 217.56 186.49 229.72 186.49 229.26 207.55 217.1"/><polygon class="cls-45" points="207.55 215.56 207.55 216.03 186.49 228.19 186.49 227.72 207.55 215.56"/><polygon class="cls-11" points="191.03 218.15 191.43 218.84 192.31 218.48 191.68 219.57 191.83 220.5 191.03 220.47 190.24 221.41 190.39 220.31 189.75 219.96 190.63 219.3 191.03 218.15"/><polygon class="cls-45" points="207.57 223.24 207.57 223.71 186.51 235.87 186.51 235.4 207.57 223.24"/><polygon class="cls-45" points="207.54 214.03 207.55 214.5 186.49 226.66 186.48 226.19 207.54 214.03"/><polygon class="cls-11" points="187.75 220.04 188.15 220.73 189.04 220.37 188.4 221.46 188.56 222.38 187.76 222.36 186.97 223.3 187.12 222.2 186.47 221.85 187.36 221.19 187.75 220.04"/><path class="cls-5" d="M209.63,194.56l-25,14.43.08,30.39,25-14.44Zm-15.72,22.85.39-1.15.4.69.89-.36-.64,1.09.15.92h-.79l-.8.93.15-1.1-.64-.35Zm-3.28,1.89.4-1.15.4.69.89-.36-.65,1.09.16.93-.8,0-.79.94.15-1.1-.65-.35Zm-3.27,1.89.39-1.15.4.69.89-.36-.64,1.09.16.93-.8,0-.79.94.15-1.1-.65-.35Zm-.88,3.46,21.06-12.16V213l-21.06,12.16Zm0,2v-.47L207.55,214v.47l-21.06,12.16Zm0,1.06,21.06-12.16V216l-21.06,12.16Zm0,1.54,21.06-12.16v.47l-21.07,12.16Zm0,1.53,21.06-12.16v.47L186.5,231.26Zm0,1.54,21.06-12.16v.46L186.5,232.79Zm0,1.53,21.06-12.16v.47l-21.06,12.16Zm0,2v-.46l12.16-7,8.9-5.14v.47Z"/><polygon class="cls-45" points="207.57 221.7 186.51 233.86 186.51 234.33 207.57 222.17 207.57 221.7"/><path class="cls-45" d="M242.42,175.21c0-2-1.4-2.75-3.11-1.77l-56,32.35a6.81,6.81,0,0,0-3.09,5.34l.09,31.82c0,2,1.4,2.75,3.11,1.77l56-32.35a6.81,6.81,0,0,0,3.09-5.34Zm-3,35.79-56,32.35c-1,.6-1.9.12-1.9-1.09l-.09-31.82a4.19,4.19,0,0,1,1.89-3.28l56-32.35c1.05-.6,1.9-.11,1.9,1.09l.09,31.82A4.14,4.14,0,0,1,239.42,211Z"/><polygon class="cls-45" points="237.98 199.22 212.4 213.98 212.4 214.91 237.98 200.15 237.98 199.22"/><polygon class="cls-43" points="220.24 195.35 220.25 199.42 219.03 200.13 219.01 196.06 220.24 195.35"/><path class="cls-44" d="M241.22,175.9c0-1.2-.85-1.69-1.9-1.09l-56,32.35a4.19,4.19,0,0,0-1.89,3.28l.09,31.82c0,1.21.86,1.69,1.9,1.09l56-32.35a4.14,4.14,0,0,0,1.89-3.28Zm-56.51,63.48L184.63,209l25-14.43.08,30.38ZM212.34,193l25.58-14.77,0,12.09-25.57,14.77Zm0,14.56,15-8.63v.93l-14.94,8.63Zm0,2.15L238,194.93v.93l-25.58,14.77Zm0,3.07v-.93L238,197.07V198h0L212.4,212.77Zm0,2.14V214L238,199.21v.94h0L212.4,214.91Zm0,1.21L238,201.36v.93l-25.58,14.77Zm0,2.15L238,203.5v.93L212.42,219.2Zm0,2.14L238,205.64v.94l-25.58,14.76Zm0,3.07v-.93L238,207.78v.94Z"/><polygon class="cls-45" points="238 207.78 238 208.72 212.43 223.48 212.43 222.55 238 207.78"/><polygon class="cls-45" points="237.99 203.5 237.99 204.43 212.42 219.2 212.41 218.27 237.99 203.5"/><polygon class="cls-45" points="227.33 198.92 227.34 199.85 212.39 208.48 212.38 207.55 227.33 198.92"/><polygon class="cls-43" points="214.71 195.51 214.73 202.61 213.51 203.31 213.49 196.22 214.71 195.51"/><polygon class="cls-45" points="207.54 212.5 207.54 212.96 186.48 225.12 186.48 224.65 207.54 212.5"/><path class="cls-43" d="M189.26,210c1.73-1,3.14-.19,3.15,1.8a6.92,6.92,0,0,1-3.13,5.42c-1.74,1-3.15.2-3.15-1.79A6.89,6.89,0,0,1,189.26,210Zm0,6.68a5.84,5.84,0,0,0,2.65-4.61c0-1.69-1.2-2.37-2.67-1.52a5.88,5.88,0,0,0-2.66,4.6c0,1.7,1.2,2.38,2.68,1.53"/><path class="cls-44" d="M189.26,211v2.55l-1.58-.89A4.66,4.66,0,0,1,189.26,211Z"/><path class="cls-11" d="M189.26,211c1.23-.7,2.23-.14,2.23,1.27a4.5,4.5,0,0,1-.65,2.18,4.55,4.55,0,0,1-1.56,1.66c-1.23.7-2.23.14-2.23-1.27a4.49,4.49,0,0,1,.64-2.18l1.58.89Z"/><path class="cls-11" d="M197.13,206.47c1.23-.71,2.23-.14,2.23,1.26L197.14,209Z"/><path class="cls-44" d="M197.13,206.47V209l2.22-1.28a4.44,4.44,0,0,1-.64,2.18,4.54,4.54,0,0,1-1.57,1.65c-1.23.71-2.22.14-2.23-1.27A4.9,4.9,0,0,1,197.13,206.47Z"/><path class="cls-43" d="M197.13,205.41c1.74-1,3.15-.2,3.15,1.79a6.87,6.87,0,0,1-3.13,5.43c-1.73,1-3.14.19-3.15-1.8A6.92,6.92,0,0,1,197.13,205.41Zm0,6.67a5.88,5.88,0,0,0,2.66-4.6c0-1.69-1.2-2.37-2.67-1.52a5.82,5.82,0,0,0-2.66,4.6c0,1.69,1.2,2.37,2.67,1.52"/><path class="cls-11" d="M205.06,201.89a1.58,1.58,0,0,1,1.57-.16l-1.56,2.71Z"/><path class="cls-43" d="M205.06,200.84c1.73-1,3.14-.2,3.15,1.79a6.9,6.9,0,0,1-3.13,5.42c-1.73,1-3.15.2-3.15-1.8A6.88,6.88,0,0,1,205.06,200.84Zm0,6.66a5.82,5.82,0,0,0,2.65-4.6c0-1.69-1.2-2.37-2.67-1.52a5.84,5.84,0,0,0-2.65,4.6c0,1.69,1.2,2.37,2.67,1.52"/><path class="cls-44" d="M205.06,201.89v2.55l1.56-2.71a1.53,1.53,0,0,1,.66,1.43,4.43,4.43,0,0,1-.65,2.18,4.52,4.52,0,0,1-1.56,1.65c-1.23.71-2.23.14-2.23-1.27A4.84,4.84,0,0,1,205.06,201.89Z"/><path class="cls-62" d="M67.33,121.41h0l.45-.13.25,0,.32,0,.18,0H69a3.06,3.06,0,0,1,.45.06l.11,0,.33.1.11,0a2.09,2.09,0,0,1,.4.19h0l-3-1.73,0,0-.3-.15-.06,0-.11,0-.16,0-.17,0-.11,0h-.06a2.2,2.2,0,0,0-.36,0h0a.27.27,0,0,0-.09,0h-.39l-.18,0-.17,0-.15,0-.25.05-.14,0-.31.1h0l-.38.14-.15.07-.14.07a6,6,0,0,0-.56.29l-38.1,22c-.2.11-.39.23-.59.36l-.18.14-.38.29-.21.17-.35.3-.2.19-.13.12-.13.14-.41.43-.13.14-.1.13-.23.28-.16.19-.12.17-.17.22-.11.16c-.07.09-.13.19-.19.28l-.12.17a.35.35,0,0,1-.05.08c-.11.17-.21.34-.31.51l0,0-.06.11-.21.37-.09.17-.09.19-.08.15-.2.44,0,.07v0c-.08.18-.15.37-.22.55a.42.42,0,0,0,0,.1,1.59,1.59,0,0,0-.07.2c0,.09-.07.18-.1.27s0,.15-.07.22l-.07.25a.88.88,0,0,0,0,.15c0,.1-.05.19-.07.29s-.05.2-.08.31a.36.36,0,0,1,0,.1,1.85,1.85,0,0,0,0,.23c0,.16-.06.32-.08.49l0,.13,0,.3a1.5,1.5,0,0,1,0,.22c0,.23,0,.45,0,.67,0,1.92.69,3.28,1.78,3.91l3,1.73c-1.09-.64-1.77-2-1.77-3.91,0-.22,0-.45,0-.67a1.8,1.8,0,0,0,0-.22l.06-.44c0-.16,0-.32.08-.49s0-.22.07-.33.05-.2.07-.31l.12-.43c0-.09.05-.17.07-.25s.11-.33.17-.49a1.18,1.18,0,0,1,.07-.2c.08-.23.17-.45.27-.67l0-.08c.09-.19.18-.39.28-.59l.09-.18.3-.55.06-.1c.12-.22.25-.42.38-.63l.12-.17.3-.44.17-.23.28-.35c.07-.1.15-.19.23-.29l.24-.26c.13-.15.26-.29.4-.43s.17-.18.26-.26l.21-.19a3.17,3.17,0,0,1,.34-.3l.21-.18c.12-.1.25-.19.38-.28a1.33,1.33,0,0,1,.19-.14L28,144l38.1-22c.19-.11.38-.2.56-.29l.15-.06A3.77,3.77,0,0,1,67.33,121.41Z"/><polygon class="cls-63" points="29.35 153.77 35.35 158.05 38.33 159.78 32.32 155.5 29.35 153.77"/><path class="cls-5" d="M66.1,122,28,144a13.35,13.35,0,0,0-6.07,10.52c0,3.87,2.74,5.42,6.11,3.48l4.28-2.47,6,4.28,6-11.19L66.14,136a13.36,13.36,0,0,0,6.07-10.52C72.2,121.59,69.47,120,66.1,122Z"/><path class="cls-2" d="M30.24,148.3a4,4,0,0,0-1.83,3.17c0,1.16.83,1.63,1.84,1.05a4,4,0,0,0,1.83-3.17C32.08,148.18,31.25,147.71,30.24,148.3Z"/><path class="cls-2" d="M36.41,144.74a4,4,0,0,0-1.83,3.16c0,1.17.83,1.64,1.84,1a4,4,0,0,0,1.83-3.17C38.25,144.62,37.43,144.15,36.41,144.74Z"/><path class="cls-2" d="M42.58,141.17a4.07,4.07,0,0,0-1.83,3.17c0,1.17.83,1.64,1.85,1a4,4,0,0,0,1.83-3.17C44.42,141.06,43.6,140.59,42.58,141.17Z"/><path class="cls-2" d="M48.76,137.61a4,4,0,0,0-1.83,3.17c0,1.16.82,1.63,1.84,1.05a4.07,4.07,0,0,0,1.83-3.17C50.59,137.5,49.77,137,48.76,137.61Z"/><path class="cls-64" d="M233.51,163s0-.08-.09-.13l0-.08c0-.06-.07-.11-.1-.18l-.08-.12-.13-.23-.09-.14-.3-.53-.06-.11-.29-.53-.12-.23-.12-.22c-.05-.11-.11-.22-.17-.33l-.12-.25-.12-.25-.34-.69a2,2,0,0,0-.1-.21l-.38-.84,0-.12c-.11-.24-.21-.48-.32-.73s-.08-.22-.13-.33-.15-.36-.22-.55l-.15-.38-.19-.51-.27-.76-2.84,1.65c.07.21.14.41.22.62a1.21,1.21,0,0,0,0,.14l.19.51c0,.09.07.19.11.28s0,.07,0,.11l.22.54c0,.09.07.18.1.26l0,.07c.11.25.21.49.32.73,0,0,0,.08,0,.11h0c.13.29.26.57.38.85l0,.06.07.14q.16.36.33.69l.06.13a.75.75,0,0,1,.07.12l.12.25c.06.11.12.22.17.33l.12.22.06.12.06.11.3.54a.47.47,0,0,0,.05.1l.3.53,0,0,.06.1.14.23.07.12c0,.07.08.12.11.18l.05.08a.92.92,0,0,0,.09.13l0,.05.05.08,2.85-1.65-.06-.08Z"/><path class="cls-65" d="M235.11,150.08a1.77,1.77,0,0,1,0-.23.28.28,0,0,1,0-.09v-.13l0-.23,0-.21v0h0c0-.09,0-.17-.05-.25a1.84,1.84,0,0,0-.05-.25v-.08a1.62,1.62,0,0,0,0-.19c0-.09-.05-.18-.07-.27l0-.09V148a.74.74,0,0,1,0-.14c0-.09-.06-.19-.1-.28a.56.56,0,0,0,0-.12l0-.07s0-.07,0-.11l-.11-.3-.06-.14,0-.07,0-.09-.14-.33-.07-.13,0-.1A.61.61,0,0,1,234,146l-.18-.35,0-.08-.09-.18-.14-.27-.08-.14c0-.1-.11-.2-.17-.3s-.07-.12-.1-.19a.35.35,0,0,1-.05-.08c-.23-.39-.48-.78-.74-1.18l-.06-.08-.07-.11c-.21-.31-.43-.62-.67-.94l0,0-.15-.2-.39-.5-.06-.08c-.05-.08-.12-.15-.17-.22l-.35-.43-.09-.11-.17-.19-.37-.44-.12-.14-.14-.16-.43-.47-.16-.18-.1-.1q-.31-.34-.66-.69l-.1-.11,0,0-.86-.85-.09-.09-.14-.13-.85-.79L226,136l0,0-1.07-.92a.52.52,0,0,0-.11-.1l-.12-.1-1.15-.94,0,0-.07-.06c-.38-.3-.77-.59-1.16-.88l-.13-.1-.08,0c-.4-.3-.8-.59-1.22-.87l-.11-.08-.14-.1-1.28-.84h0c-.42-.27-.85-.53-1.27-.78l-.16-.1-.33-.19c-.37-.22-.74-.42-1.1-.62l-.09,0-1.07-.56a2.53,2.53,0,0,1-.23-.12h0l-1.28-.6h0c-.11-.06-.22-.1-.33-.15l-.87-.37-.07,0-.42-.15-.7-.27-.11,0-.41-.13-.63-.21-.12,0-.39-.11-.58-.16-.13,0-.38-.09-.53-.12-.13,0c-.12,0-.24,0-.36-.06l-.49-.08-.13,0-.35,0-.46,0-.12,0h-.88l-.29,0-.43,0h-.12a1.81,1.81,0,0,1-.23,0l-.46.07-.13,0-.16,0-.52.14-.16,0-.09,0a5.56,5.56,0,0,0-.74.34L199,128.09a4.5,4.5,0,0,1,.74-.33l.25-.09.52-.14.29-.06a3.4,3.4,0,0,1,.46-.06l.35,0,.43,0h.84l.45,0,.46.05.48,0,.49.09.49.08.53.12.51.12.57.16.52.15.63.21.51.17c.24.08.47.18.71.27l.49.18.87.37.36.16c.43.19.85.39,1.29.61l.26.13,1.06.55,1.19.66.49.29,1.26.77,0,0c.43.28.86.56,1.28.85l.25.17c.41.28.82.57,1.22.87l.21.15c.39.29.78.58,1.15.88l.11.08,1.15.94.23.2c.36.3.72.61,1.06.92l.16.14.85.79.23.22.86.85.12.13q.34.34.66.69l.26.28.43.47.26.3.37.44.26.3.34.43.24.3.39.5c0,.08.11.15.17.23.23.32.46.63.67.95l.13.19c.26.39.51.78.73,1.17a2.54,2.54,0,0,1,.16.28c.06.1.12.2.17.3s.15.26.22.4l.09.18c.1.19.18.37.27.55l0,.1c.09.18.17.37.24.55l0,.07.21.55,0,.07a5.6,5.6,0,0,1,.17.54l0,.07a5.36,5.36,0,0,1,.14.54v0c0,.19.08.37.11.55v0a4.6,4.6,0,0,1,.06.52v0c0,.18,0,.35,0,.52a5.49,5.49,0,0,1,0,.58v0a4.51,4.51,0,0,1-.09.53v0a4,4,0,0,1-.15.49v0c0,.13-.11.25-.17.37l-.09.17-.15.24-.12.15c0,.07-.12.14-.18.21l-.13.14-.23.2-.12.1a3.51,3.51,0,0,1-.4.27l2.84-1.65a3.51,3.51,0,0,0,.4-.27l.12-.1a2.25,2.25,0,0,0,.24-.21l.12-.13.19-.21.11-.16.08-.11a.75.75,0,0,1,.07-.12l.09-.17.06-.1.11-.27v0h0c0-.09.06-.18.09-.27l.06-.21v0c0-.07,0-.15,0-.23a1.85,1.85,0,0,0,0-.23v-.09s0-.09,0-.13a1.48,1.48,0,0,0,0-.21,1.7,1.7,0,0,0,0-.22v-.22Z"/><path class="cls-5" d="M232.27,151.93c0-5.67-7.85-14.81-17.56-20.42s-17.61-5.56-17.63.11,7.85,14.82,17.57,20.43a43.41,43.41,0,0,0,4.52,2.27,40.07,40.07,0,0,0,11,10.12l.61.35a42.57,42.57,0,0,1-4.06-8.58C230.11,156.31,232.26,154.89,232.27,151.93Z"/><path class="cls-2" d="M206.13,134.58c-.95-.55-1.71-.11-1.72,1a3.75,3.75,0,0,0,1.7,2.94c.95.55,1.71.11,1.72-1A3.75,3.75,0,0,0,206.13,134.58Z"/><path class="cls-2" d="M214.68,139.52c-.94-.55-1.71-.11-1.71,1a3.7,3.7,0,0,0,1.7,2.95c.94.55,1.71.11,1.71-1A3.75,3.75,0,0,0,214.68,139.52Z"/><path class="cls-2" d="M223.23,144.46c-.94-.55-1.71-.11-1.71,1a3.75,3.75,0,0,0,1.7,2.95c.95.54,1.72.11,1.72-1A3.74,3.74,0,0,0,223.23,144.46Z"/><path class="cls-66" d="M200.85,107.3a2.07,2.07,0,0,0,.63-.59l-1,.6a2.07,2.07,0,0,1-.63.59Z"/><path class="cls-67" d="M202.91,111.14h-.16l-.43-.07h-.07a4.05,4.05,0,0,1-.5-.12l-.14,0-.38-.12-.15,0-.44-.16-.07,0-.5-.22a.61.61,0,0,1-.14-.07l-.37-.17-.17-.09-.46-.26c-.29-.16-.56-.34-.84-.52l-.05,0c-.27-.19-.53-.38-.79-.59h0c-.26-.21-.52-.43-.77-.66h0q-.37-.33-.72-.69l0,0c-.22-.23-.44-.46-.64-.7l-.06-.08c-.2-.23-.39-.47-.58-.71l-.07-.09c-.19-.25-.37-.51-.54-.77l-.18-.28c-.12-.19-.24-.38-.35-.58l-.1-.17c-.15-.26-.29-.52-.42-.79h0c-.14-.3-.28-.6-.41-.9l0-.05c-.13-.3-.24-.6-.35-.9l0-.07c-.11-.29-.2-.59-.29-.9v0c-.09-.31-.16-.63-.23-.94v-.06c-.07-.3-.12-.6-.16-.9l0-.09c0-.3-.07-.59-.09-.89V97.2c0-.31,0-.63,0-1a8.77,8.77,0,0,1,0-.9v0c0-.28.06-.54.11-.79a.13.13,0,0,1,0-.06,5.4,5.4,0,0,1,.17-.72h0a5,5,0,0,1,.21-.58l.06-.15c.06-.14.13-.26.2-.39l.1-.19a3.72,3.72,0,0,1,.33-.45l.08-.08a2.94,2.94,0,0,1,.3-.31l.12-.1a3.36,3.36,0,0,1,.43-.31l-1,.6a4.25,4.25,0,0,0-.43.31l-.11.09a2.34,2.34,0,0,0-.31.32.3.3,0,0,0-.08.08,3.79,3.79,0,0,0-.3.4s0,0,0,0l-.11.19-.15.27,0,.12a1.16,1.16,0,0,0-.06.15.87.87,0,0,0-.07.17c-.05.13-.1.27-.14.41h0c0,.13-.08.27-.11.41l-.06.31v.09l-.06.41c0,.11,0,.23,0,.34V96l0,.41c0,.14,0,.29,0,.43v0c0,.14,0,.28,0,.43s0,.3,0,.45v.07a.22.22,0,0,1,0,.08c0,.09,0,.19,0,.28s0,.29,0,.44a.88.88,0,0,1,0,.17l0,.09c0,.06,0,.11,0,.17s.05.28.07.42.05.21.07.31v.12c0,.14.06.28.1.42s.07.27.11.41v.09l.09.31.13.4.07.19,0,.07,0,.1c0,.13.09.25.14.37l.13.34a.59.59,0,0,1,0,.08l0,.06.09.2a3.73,3.73,0,0,0,.16.35c.05.12.11.23.16.34h0l.22.43.2.35.1.17a.41.41,0,0,0,.05.09l.3.49.18.27,0,0,.45.64.07.1.07.09.18.23c.09.11.18.23.28.34l.12.14.06.07.1.13.3.33.24.24,0,0,0,0,.34.34.35.32h0l.37.33.39.31h0l0,0c.12.09.23.19.36.28l.4.28,0,0,.05,0,.32.21.42.25.1.06.34.19.12.07.18.09.14.07.21.1.15.07.07,0,.42.18h0l.07,0,.34.13.1,0,.15,0,.17.06.21,0,.14,0,.06,0a3.15,3.15,0,0,0,.42.09h.09l.34,0h.09l.17,0,.18,0h.26l.82,3.22,1-.6-.82-3.22A3.4,3.4,0,0,1,202.91,111.14Z"/><path class="cls-68" d="M197,101.7h0a5.44,5.44,0,0,1-.19-.61h0c0-.21-.09-.43-.12-.65v0c0-.22,0-.45,0-.68a4.43,4.43,0,0,1,.05-.66v0a2.46,2.46,0,0,1,.14-.52h0a1.66,1.66,0,0,1,.19-.35l.06-.06a1.09,1.09,0,0,1,.25-.23l-1,.6a1.09,1.09,0,0,0-.25.23l-.06.06,0,.07-.09.16-.05.12h0v0s0,.09-.05.14,0,.1,0,.16l0,.15v.07s0,.06,0,.09a1.1,1.1,0,0,0,0,.18s0,.12,0,.18,0,.13,0,.19v0a1.28,1.28,0,0,0,0,.19,1.21,1.21,0,0,0,0,.19,1.09,1.09,0,0,0,0,.18s0,.08,0,.12v.06c0,.05,0,.11,0,.16l0,.16,0,.16,0,.13h0l0,.15a.65.65,0,0,1,0,.13.65.65,0,0,1,0,.13l.05.12a.19.19,0,0,0,0,.07h0v0s0,.07,0,.11a1,1,0,0,1,0,.1l0,.1a1.17,1.17,0,0,1,.05.11l.06.11h0l.1.18c0,.08.1.16.16.24a.22.22,0,0,0,.05.08l0,0,0,.05.08.11.08.09.07.09a.6.6,0,0,0,.08.08l0,0h0l.06.06.09.09.09.08.09.08.08.07h0v0l.1.07.11.07.1.07.11.07h0l.09,0,.1.05.1,0,.1,0,.05,0h0l0,0,.09,0,.09,0,.09,0,.09,0h.4l.13,0,.16-.07,1-.6a.87.87,0,0,1-.32.11h0a1.37,1.37,0,0,1-.35,0h0a2.34,2.34,0,0,1-.4-.1h0a4,4,0,0,1-.43-.2,3.65,3.65,0,0,1-.45-.32h0a4.86,4.86,0,0,1-.41-.38h0a4.09,4.09,0,0,1-.37-.44v0c-.11-.15-.21-.32-.31-.49h0A4.79,4.79,0,0,1,197,101.7Z"/><path class="cls-69" d="M206.11,108.15h-.17l-.18,0h0l-.19-.09-.19-.13h0a.69.69,0,0,1-.18-.16h0l-.16-.2h0a1.76,1.76,0,0,1-.14-.23h0a1.69,1.69,0,0,1-.11-.27h0a1.58,1.58,0,0,1-.09-.31h0a2.08,2.08,0,0,1-.06-.36h0c0-.13,0-.26,0-.4l0-7.8L201,96l-.57.33,0,0,0,0a.61.61,0,0,0-.07-.1l-.15-.2-.14-.17-.14-.16-.14-.16,0,0v0a.94.94,0,0,1-.1-.1l-.17-.16-.17-.17-.19-.16-.19-.15h0l-.21-.16-.21-.15-.23-.15-.23-.14-.06,0-.15-.08-.2-.1-.1,0,0,0,0,0-.19-.09-.19-.07h0l-.16,0-.2,0-.06,0h0l-.09,0-.2,0h-.68l-.26,0h0a1.89,1.89,0,0,0-.34.09h0a3,3,0,0,0-.37.17l-1,.6a2.09,2.09,0,0,1,.37-.17,2,2,0,0,1,.35-.1h0a2.2,2.2,0,0,1,.36,0h.48a2.63,2.63,0,0,1,.39.06h0a3.31,3.31,0,0,1,.42.12h0l.44.18h0a4.92,4.92,0,0,1,.45.24,7.89,7.89,0,0,1,.95.64h0a8.28,8.28,0,0,1,.82.75v0a7,7,0,0,1,.69.84l0,0a8.44,8.44,0,0,1,.58,1l1-.6,0-.09,2.64,1.53,0,7.79v.14a.66.66,0,0,1,0,.14s0,.08,0,.12h0a.25.25,0,0,1,0,.08s0,.07,0,.1,0,.06,0,.09,0,.06,0,.08h0a.19.19,0,0,0,0,.07.24.24,0,0,0,0,.08.14.14,0,0,0,0,.06s0,0,0,.06l0,0h0l0,.05,0,0,0,0,0,0,0,.05v0h0v0a.43.43,0,0,1,0,.07.61.61,0,0,0,.07.1l0,0h0l0,0,0,0,0,0,0,0,0,0v0h0l0,0,0,0,0,0s0,0,0,0h0l0,0,0,0,0,0,.05,0h0l0,0,0,0,0,0,0,0h.38l.07,0,.09,0h0l1-.6a.52.52,0,0,1-.16.06Z"/><path class="cls-70" d="M209.65,105.88c0-.16,0-.32,0-.48s0-.14,0-.2v-.1c0-.06,0-.12,0-.18s0-.32-.05-.48,0-.32-.07-.48h0c0-.16-.06-.31-.08-.47s-.07-.32-.1-.49a1.17,1.17,0,0,1,0-.2l0-.1c0-.06,0-.12-.05-.19s-.08-.32-.13-.49-.09-.32-.14-.48h0l-.15-.46c-.05-.16-.11-.32-.16-.47l-.09-.24,0-.07s0-.09-.05-.13-.11-.3-.18-.44l-.18-.44-.06-.13,0-.08c0-.07-.07-.15-.1-.23l-.23-.48-.21-.39,0-.07,0-.06-.48-.85-.07-.11-.43-.68c-.09-.14-.17-.28-.26-.41l-.07-.09-.15-.23c-.12-.15-.23-.32-.34-.47l-.32-.42-.05-.07,0,0c-.13-.17-.26-.34-.4-.5l-.39-.46,0,0,0,0-.38-.42c-.14-.16-.29-.31-.44-.46l-.07-.07-.09-.09L203,92.1l-.5-.47-.09-.07-.11-.09-.33-.3-.54-.44-.08-.06-.1-.07-.37-.29-.56-.39-.08-.06-.1-.06-.39-.26-.57-.35-.14-.08-.45-.25q-.28-.17-.57-.3l-.17-.08-.12,0a2.06,2.06,0,0,0-.26-.12l-.52-.23-.29-.1-.1,0-.12,0-.5-.16-.44-.12h-.05l-.48-.11-.48-.07h-.11l-.39,0h-.6l-.42,0-.35,0-.14,0h-.09a4.72,4.72,0,0,0-.67.19h0A5.51,5.51,0,0,0,191,88l-1,.6a4.93,4.93,0,0,1,.77-.36,6.36,6.36,0,0,1,.78-.2l.15,0a6.13,6.13,0,0,1,.76-.07h.06a5.93,5.93,0,0,1,.93,0h.06a7.79,7.79,0,0,1,1,.2h0a9.28,9.28,0,0,1,1.06.34l.11,0c.34.13.7.28,1.06.46l.12,0q.59.28,1.2.63c.37.22.73.45,1.09.69l.1.06c.34.24.68.48,1,.73l.1.08c.33.26.64.52,1,.79l.11.09c.31.28.61.57.9.86l.09.08c.3.31.6.63.89,1l0,0c.29.33.58.67.85,1l.05.07c.23.29.44.59.66.89l.15.22c.12.17.22.34.33.51s.29.45.43.68.4.68.58,1a.16.16,0,0,0,0,.07c.19.37.37.73.53,1.1l0,.08c.17.37.33.75.47,1.13l0,.08a20.92,20.92,0,0,1,.72,2.34l0,.1c.09.39.17.77.23,1.16h0c.06.38.1.77.14,1.15v.09c0,.39,0,.77,0,1.14s0,.59,0,.86c0,0,0,.09,0,.13,0,.25,0,.49-.08.73a.5.5,0,0,1,0,.12,6.25,6.25,0,0,1-.12.65l0,.1c-.05.2-.11.39-.17.57v0a4.32,4.32,0,0,1-.21.48l-.09.17-.15.23a2.13,2.13,0,0,1-.26.32l-.12.14a2.12,2.12,0,0,1-.42.32l1-.6a2.12,2.12,0,0,0,.42-.32l.12-.13a3.92,3.92,0,0,0,.25-.32l.07-.08.09-.16L209,110a.79.79,0,0,1,0-.09,3.52,3.52,0,0,0,.17-.39h0v0q.06-.17.12-.36c0-.06,0-.14.05-.21l0-.1a.19.19,0,0,1,0-.08c0-.14.06-.27.08-.42a.77.77,0,0,0,0-.15.5.5,0,0,0,0-.12l0-.17c0-.15,0-.3,0-.46a.38.38,0,0,0,0-.1s0-.09,0-.13,0-.18,0-.28,0-.36,0-.54v0C209.66,106.18,209.66,106,209.65,105.88Z"/><path class="cls-5" d="M198.05,89.71c-6.63-3.83-10.94-1.22-11,5.43s4.24,14.25,10.8,18a12.29,12.29,0,0,0,5.26,1.81l-.82-3.22a9.62,9.62,0,0,1-4.43-1.43,16.17,16.17,0,0,1-7.85-13.49c0-5.12,3.23-7,8-4.3s7.93,8,7.92,12.92c0,2.91-.59,3.63-1.42,3.15a2.22,2.22,0,0,1-1-2.1l0-7.79L200,96.64v1.25a8,8,0,0,0-3.09-3.25c-2.67-1.54-4.94-.34-5,3.54s2.29,7.75,4.92,9.27c1.73,1,2.91.87,3.61-.14a7,7,0,0,0,3.26,4.11c2.8,1.62,4.9.24,4.92-4.49C208.65,100.67,204.37,93.36,198.05,89.71Zm-.25,14.81a4.76,4.76,0,0,1-2.17-4.19c0-1.87.92-2.39,2.19-1.66a4.78,4.78,0,0,1,2.2,4.19C200,104.77,199.07,105.26,197.8,104.52Z"/><polygon class="cls-71" points="33.31 97.11 30.35 98.83 31.91 99.73 34.87 98.02 33.31 97.11"/><polygon class="cls-72" points="31.91 99.73 30.35 98.83 30.36 101.95 31.92 102.86 31.91 99.73"/><polygon class="cls-73" points="30.41 122.48 30.42 125.52 31.98 126.43 31.97 123.39 30.41 122.48"/><path class="cls-74" d="M35.52,114.53,34,113.62a.7.7,0,0,1,.31.66,2.19,2.19,0,0,1,0,.36h0a1.82,1.82,0,0,1-.11.38h0c-.06.12-.12.25-.2.38h0a3.88,3.88,0,0,1-.27.38l0,0a3.91,3.91,0,0,1-.35.36.52.52,0,0,1-.11.1c-.1.1-.21.19-.33.29l-.16.13-.38.28-.18.12c-.2.13-.41.26-.64.39a11.16,11.16,0,0,1-1.25.62l-.16.07a10.83,10.83,0,0,1-1.13.39l-.25.06a6.69,6.69,0,0,1-.75.16l-.17,0c-.26,0-.52.06-.76.07h-.66a5.11,5.11,0,0,1-.58-.07l-1.6,5.07,1.57.91,1.59-5.07h0l.53.07h.67a6.77,6.77,0,0,0,.76-.08h0l.13,0a6.69,6.69,0,0,0,.75-.16l.14,0,.11,0c.37-.11.75-.24,1.13-.39l.06,0,.1,0a11.16,11.16,0,0,0,1.25-.62c.23-.13.44-.26.64-.4l.18-.12.38-.27.17-.13.33-.29.11-.1,0,0,.26-.27.05-.07,0,0,.06-.07.11-.14.08-.12,0,0v0l0,0a.47.47,0,0,1,0-.1l0-.09,0-.09,0,0h0l0,0,0-.09,0-.11,0-.12h0s0-.09,0-.13a1.85,1.85,0,0,0,0-.23.93.93,0,0,0-.08-.41A.56.56,0,0,0,35.52,114.53Z"/><path class="cls-75" d="M37.22,108.84l.4,0h.79l.14,0a3,3,0,0,1,.43.09l.05,0a2.65,2.65,0,0,1,.42.18l-1.56-.91h0a1.51,1.51,0,0,0-.22-.11l-.17-.06,0,0h0l-.3-.07h-.23l-.15,0h-.46l-.18,0-.41,0h-.1l-.09,0c-.36.06-.73.14-1.1.24l-.06,0-.15,0-.54.16-.21.06-.71.23-.64.21-.21.07-.47.14-.19.05a6.24,6.24,0,0,1-.64.14,2.71,2.71,0,0,1-.37.05h0a1.87,1.87,0,0,1-.34,0h0a.72.72,0,0,1-.27-.1l1.56.91h0l.08,0,.09,0,.09,0h0l.15,0h.2l.34,0h0a6.24,6.24,0,0,0,.64-.14h0l.14,0c.15,0,.31-.08.47-.14l.22-.06.59-.2.75-.24.21-.06.54-.16.21-.06c.37-.1.74-.18,1.1-.24Z"/><path class="cls-76" d="M36.1,100.57l.24-.09c.38-.14.75-.25,1.11-.35l.38-.08a8.27,8.27,0,0,1,.82-.14l.25,0a5.6,5.6,0,0,1,1,0L38.34,99l-.16,0a5.8,5.8,0,0,0-.59,0l-.25,0-.25,0-.26,0a5.78,5.78,0,0,0-.57.12,2.74,2.74,0,0,0-.37.08l-.12,0c-.32.09-.66.2-1,.32l-.23.09-.36.14-.86.39,1.56.9C35.29,100.9,35.7,100.72,36.1,100.57Z"/><path class="cls-77" d="M25.62,114.63l1.56.91c-.73-.42-1.2-1.3-1.2-2.91a9,9,0,0,1,.08-1.14l0-.16c.06-.37.14-.73.24-1.11l0-.07a10.58,10.58,0,0,1,.44-1.22h0a12.59,12.59,0,0,1,.64-1.27h0a12.13,12.13,0,0,1,.78-1.19l.09-.12c.27-.35.56-.7.87-1l.29-.31c.25-.26.52-.53.8-.79l.36-.32c.4-.35.82-.69,1.28-1h0L30.35,102c-.45.33-.87.67-1.27,1l-.36.33c-.15.14-.32.28-.46.42l-.35.36c-.09.11-.19.21-.28.31l-.19.2q-.29.33-.54.66l-.14.19-.09.11-.18.25c-.11.16-.22.32-.32.49s-.19.3-.28.45h0c-.08.14-.16.28-.23.42s-.15.29-.22.43-.13.28-.19.42h0a4.07,4.07,0,0,0-.18.44c-.06.15-.11.3-.16.45s-.07.22-.11.33a.24.24,0,0,1,0,.08l0,.09c0,.19-.09.38-.13.56a3.54,3.54,0,0,0-.08.45l0,.16a.52.52,0,0,1,0,.11,9,9,0,0,0-.06,1C24.42,113.33,24.89,114.21,25.62,114.63Z"/><path class="cls-5" d="M40.65,112c0-7.33-9.83.61-9.83-2.43,0-1,.73-2.21,2.78-3.4a8.83,8.83,0,0,1,4.8-1.23l1.5-5a10.19,10.19,0,0,0-5,1.22V98l-3,1.71v3.13c-4,2.88-6,6.65-5.94,9.77,0,7.38,9.84-.6,9.85,2.56,0,1-.78,2.07-2.81,3.24a9,9,0,0,1-5.71,1.34l-1.59,5.07c1.43.31,3.78-.21,6.25-1.45v3l3-1.71v-3.15C38.79,118.69,40.66,115,40.65,112Z"/></g></g></svg>