<?xml version="1.0" encoding="utf-8"?>
<!DOCTYPE svg PUBLIC "-//W3C//DTD SVG 1.1//EN" "http://www.w3.org/Graphics/SVG/1.1/DTD/svg11.dtd">
<svg xmlns="http://www.w3.org/2000/svg" xmlns:xlink="http://www.w3.org/1999/xlink" version="1.1" baseProfile="full" width="666.667" height="666.667" viewBox="0 0 666.67 666.67" enable-background="new 0 0 666.67 666.67" xml:space="preserve">
	<rect x="0" y="0" fill="#5DC6BE" fill-opacity="1" stroke-linejoin="round" width="666.667" height="666.667"/>
	<path fill="#43ADAD" fill-opacity="1" stroke-linejoin="round" d="M 22.4121,156.933C 23.8627,156.552 24.9551,155.227 24.9551,153.645C 24.9551,153.015 24.7701,152.436 24.4695,151.935L 36.0176,140.388L 36.0176,160.988L 22.4121,174.592M 20.8568,56.3582L 20.8568,41.2604L 33.2116,53.6113C 32.8476,54.1484 32.6348,54.7923 32.6348,55.4785C 32.6348,57.3541 34.1419,58.8862 36.0176,58.8862L 36.0176,71.5417M 37.7213,75.6653L 49.4955,87.4395C 49.0657,88.0111 48.8021,88.7155 48.8021,89.4858C 48.8021,91.1414 49.9765,92.5253 51.5423,92.8281L 51.5423,122.467L 37.7213,136.288M 18.166,259.501C 18.166,261.377 19.6719,262.859 21.5729,262.859C 22.1875,262.859 22.7597,262.683 23.2597,262.396L 45.6172,284.732L 45.6172,316.684C 44.0111,316.957 42.7787,318.351 42.7787,320.032C 42.7787,321.911 44.3092,323.44 46.1849,323.44C 48.0364,323.44 49.5671,321.911 49.5671,320.032C 49.5671,318.56 48.6204,317.315 47.3209,316.84L 47.3209,284.04L 24.4857,261.183C 24.776,260.689 24.9551,260.12 24.9551,259.501C 24.9551,257.92 23.8627,256.597 22.4121,256.217L 22.4121,215.821L 62.7643,256.161L 62.7643,289.96C 61.0287,290.109 59.6549,291.513 59.6549,293.288C 59.6549,295.164 61.1843,296.696 63.0599,296.696C 63.5664,296.696 64.0411,296.577 64.4707,296.377L 93.0305,324.937L 93.0305,348.068C 91.1777,348.068 89.6484,349.599 89.6484,351.475C 89.6484,353.351 91.1777,354.88 93.0305,354.88C 94.9316,354.88 96.4361,353.351 96.4361,351.475C 96.4361,350.219 95.7527,349.128 94.7344,348.537L 94.7344,324.245L 65.804,295.268C 66.2025,294.708 66.4427,294.028 66.4427,293.288C 66.4427,291.917 65.6335,290.764 64.4681,290.239L 64.4681,255.469L 22.4121,213.401L 22.4121,180.968C 23.4388,180.38 24.1413,179.285 24.1413,178.021C 24.1413,177.247 23.8704,176.54 23.4323,175.967L 37.7213,161.679L 37.7213,138.684L 53.2455,123.159L 53.2455,92.7064C 54.6016,92.2565 55.5905,90.989 55.5905,89.4858C 55.5905,87.61 54.0599,86.0807 52.1836,86.0807C 51.6985,86.0807 51.2403,86.1868 50.8243,86.3711L 37.7213,73.2473L 37.7213,58.4102C 38.7324,57.8177 39.4225,56.7311 39.4225,55.4785C 39.4225,53.6504 37.8932,52.1211 36.0176,52.1211C 35.4655,52.1211 34.9531,52.2663 34.4935,52.5L 20.8568,38.8672L 20.8568,0L 19.1536,0L 19.1536,37.1647L 0,18.017L 0,20.4102L 19.1536,39.558L 19.1536,57.0983L 36.0176,73.9623L 36.0176,137.992L 23.2579,150.751C 22.7584,150.464 22.1868,150.289 21.5729,150.289C 19.6719,150.289 18.166,151.771 18.166,153.645C 18.166,155.224 19.2383,156.548 20.7089,156.931L 20.7089,174.617C 18.8464,174.633 17.3541,176.155 17.3541,178.021C 17.3541,179.888 18.8464,181.411 20.7089,181.425L 20.7089,211.697L 0,190.983L 0,193.415L 20.7089,214.117L 20.7089,256.219C 19.2383,256.601 18.166,257.923 18.166,259.501 Z "/>
	<path fill="#43ADAD" fill-opacity="1" stroke-linejoin="round" d="M 113.021,51.0449L 94.0241,70.0267L 94.0241,132.314L 83.444,142.896L 83.444,155.452C 82.2473,155.824 81.3697,156.928 81.3697,158.245C 81.3697,159.88 82.6875,161.196 84.3073,161.196C 85.9408,161.196 87.2584,159.88 87.2584,158.245C 87.2584,157.06 86.5501,156.044 85.5332,155.58L 85.5332,143.759L 96.1139,133.178L 96.1139,70.9036L 115.111,51.8926L 115.111,24.584L 90.5352,0L 87.5892,0L 113.021,25.4323L 113.021,51.0449 Z "/>
	<path fill="#43ADAD" fill-opacity="1" stroke-linejoin="round" d="M 117.414,268.475C 118.724,268.003 119.661,266.752 119.661,265.277C 119.661,263.403 118.155,261.921 116.279,261.921C 114.403,261.921 112.871,263.403 112.871,265.277C 112.871,266.959 114.105,268.355 115.71,268.628L 115.71,353.805L 85.4361,384.032C 84.9401,383.751 84.3751,383.576 83.7649,383.576C 81.8893,383.576 80.3855,385.105 80.3855,386.983C 80.3855,388.86 81.8893,390.34 83.7649,390.34C 85.6432,390.34 87.1732,388.86 87.1732,386.983C 87.1732,386.341 86.9837,385.748 86.6745,385.235L 117.414,354.495L 117.414,268.475 Z "/>
	<path fill="#43ADAD" fill-opacity="1" stroke-linejoin="round" d="M 114.621,188.615L 114.621,119.423C 116.093,119.047 117.189,117.72 117.189,116.135C 117.189,114.26 115.66,112.728 113.782,112.728C 111.906,112.728 110.377,114.26 110.377,116.135C 110.377,117.712 111.462,119.031 112.92,119.416L 112.92,187.923L 87.7396,213.103L 87.7396,246.972C 86.2819,247.352 85.1967,248.655 85.1967,250.231C 85.1967,252.108 86.7259,253.639 88.6016,253.639C 90.4799,253.639 91.9844,252.108 91.9844,250.231C 91.9844,248.648 90.9076,247.339 89.4433,246.967L 89.4433,213.795L 114.621,188.615 Z "/>
	<path fill="#43ADAD" fill-opacity="1" stroke-linejoin="round" d="M 436.88,13.601L 437.54,14.2584C 437.339,14.4973 437.213,14.806 437.213,15.1478C 437.213,15.9199 437.743,16.5696 438.513,16.5696L 438.595,16.5521L 438.595,17.4544L 438.513,17.463C 437.296,17.463 436.24,16.4472 436.24,15.1478C 436.24,14.5599 436.489,14.0125 436.88,13.601 Z M 438.513,12.8737C 439.812,12.8737 440.828,13.9297 440.828,15.1478C 440.828,16.308 440.017,17.2357 438.919,17.4232L 438.919,16.4844C 439.484,16.3015 439.895,15.7748 439.895,15.1478C 439.895,14.4167 439.285,13.808 438.513,13.808C 438.237,13.808 438.009,13.9056 437.807,14.0391L 437.139,13.3718C 437.527,13.0664 438.003,12.8737 438.513,12.8737 Z M 440.625,69.9336C 440.625,70.9492 439.812,71.8021 438.799,71.8021C 437.743,71.8021 436.929,70.9492 436.929,69.9336C 436.929,68.9479 437.64,68.1484 438.595,68.0457L 438.595,68.8379C 438.053,68.9382 437.66,69.3932 437.66,69.9336C 437.66,70.543 438.148,71.03 438.799,71.03C 439.407,71.03 439.895,70.543 439.895,69.9336C 439.895,69.3679 439.468,68.8907 438.919,68.8229L 438.919,68.0377C 439.876,68.1041 440.625,68.9212 440.625,69.9336 Z M 423.364,1.42126C 423.74,1.42126 424.083,1.30927 424.369,1.12177L 436.427,13.1484C 435.915,13.668 435.589,14.3724 435.589,15.1478C 435.589,16.7722 436.929,18.0723 438.513,18.0723L 438.595,18.0639L 438.595,67.5989C 437.392,67.7031 436.443,68.7037 436.443,69.9336C 436.443,71.2331 437.499,72.2891 438.799,72.2891C 440.057,72.2891 441.153,71.2331 441.153,69.9336C 441.153,68.6771 440.127,67.657 438.919,67.5906L 438.919,18.0305C 440.319,17.8301 441.437,16.6302 441.437,15.1478C 441.437,13.5639 440.097,12.2643 438.513,12.2643C 437.827,12.2643 437.195,12.5182 436.691,12.9238L 424.639,0.904968C 424.888,0.665405 425.064,0.353516 425.157,0L 421.493,0C 421.719,0.828125 422.455,1.42126 423.364,1.42126 Z "/>
	<path fill="#43ADAD" fill-opacity="1" stroke-linejoin="round" d="M 40.1303,349.345C 39.8769,349.345 39.6445,349.407 39.4316,349.503L 38.6009,348.673C 39.0364,348.381 39.5605,348.208 40.1303,348.208C 41.5917,348.208 42.8509,349.468 42.8509,350.971C 42.8509,352.403 41.7057,353.599 40.3333,353.709L 40.3333,352.552C 41.0917,352.444 41.7141,351.789 41.7141,350.971C 41.7141,350.077 40.9831,349.345 40.1303,349.345 Z M 39.7643,353.695C 38.4004,353.513 37.3685,352.351 37.3685,350.971C 37.3685,350.225 37.6693,349.541 38.1588,349.04L 38.9453,349.825C 38.6472,350.12 38.4648,350.525 38.4648,350.971C 38.4648,351.74 39.0189,352.357 39.7643,352.524M 27.0528,404.091C 27.0528,405.499 25.9792,406.679 24.5755,406.823L 24.5755,405.659C 25.3548,405.523 25.916,404.887 25.916,404.091C 25.916,403.716 25.7728,403.385 25.5625,403.109L 26.3835,402.293C 26.7963,402.775 27.0528,403.396 27.0528,404.091 Z M 24.2911,402.467C 23.3977,402.467 22.7071,403.197 22.7071,404.091C 22.7071,404.897 23.2812,405.541 24.0475,405.665L 24.0475,406.827C 22.6608,406.697 21.5703,405.511 21.5703,404.091C 21.5703,402.548 22.7884,401.329 24.2911,401.329C 24.9479,401.329 25.5384,401.56 26.0084,401.932L 25.1804,402.757C 24.9251,402.588 24.6341,402.467 24.2911,402.467 Z M 24.0475,291.433C 22.748,291.433 21.6517,292.489 21.6517,293.748C 21.6517,295.02 22.7031,296.052 23.9661,296.095L 23.9661,297.72C 21.8112,297.676 20.0677,295.953 20.0677,293.748C 20.0677,291.595 21.8548,289.808 24.0475,289.808C 26.2403,289.808 27.9869,291.595 27.9869,293.748C 27.9869,295.811 26.4909,297.44 24.5352,297.679L 24.5352,296.048C 25.5761,295.817 26.4029,294.876 26.4029,293.748C 26.4029,292.489 25.3067,291.433 24.0475,291.433 Z M 43.5417,350.971C 43.5417,349.061 41.998,347.519 40.1303,347.519C 39.3751,347.519 38.6771,347.765 38.1016,348.176L 26.1673,336.272C 26.5149,335.869 26.7279,335.351 26.7279,334.765C 26.7279,333.521 25.7917,332.509 24.5352,332.427L 24.5352,298.695C 27.0639,298.445 29.0429,296.343 29.0429,293.748C 29.0429,291.027 26.8092,288.793 24.0475,288.793C 21.3268,288.793 19.0521,291.027 19.0521,293.748C 19.0521,296.481 21.2825,298.691 23.9661,298.735L 23.9661,332.453C 22.9029,332.652 22.0983,333.611 22.0983,334.765C 22.0983,336.065 23.1133,337.081 24.3724,337.081C 24.9029,337.081 25.3783,336.917 25.7637,336.644L 37.6588,348.539C 37.03,349.163 36.6373,350.021 36.6373,350.971C 36.6373,352.753 38.0253,354.201 39.7643,354.385L 39.7643,385.709L 39.6023,385.695C 38.3431,385.695 37.2871,386.751 37.2871,388.008C 37.2871,388.761 37.6269,389.404 38.1425,389.829L 26.4993,401.443C 25.8932,400.948 25.1289,400.639 24.2911,400.639C 22.3828,400.639 20.8392,402.183 20.8392,404.091C 20.8392,405.917 22.2552,407.392 24.0475,407.519L 24.0475,441.044C 23.1041,441.141 22.4232,441.847 22.4232,442.753C 22.4232,443.701 23.0989,444.464 24.0475,444.561L 24.0475,456.109C 22.9447,456.28 22.0983,457.283 22.0983,458.429C 22.0983,459.729 23.1133,460.785 24.3724,460.785C 25.7129,460.785 26.7279,459.729 26.7279,458.429C 26.7279,457.237 25.8119,456.201 24.5755,456.095L 24.5755,444.547C 25.3991,444.391 26.0377,443.653 26.0377,442.753C 26.0377,441.889 25.3991,441.189 24.5755,441.039L 24.5755,407.515C 26.3528,407.368 27.7839,405.903 27.7839,404.091C 27.7839,403.207 27.4343,402.409 26.8796,401.8L 38.6087,390.131C 38.9121,390.276 39.2468,390.364 39.6023,390.364C 40.942,390.364 41.9577,389.349 41.9577,388.008C 41.9577,386.993 41.2917,386.12 40.3333,385.816L 40.3333,354.401C 42.1068,354.293 43.5417,352.807 43.5417,350.971 Z "/>
	<path fill="#43ADAD" fill-opacity="1" stroke-linejoin="round" d="M 162.043,1.76111C 163.319,1.76111 164.421,1.04364 165.005,0L 159.099,0C 159.675,1.04364 160.767,1.76111 162.043,1.76111 Z "/>
	<path fill="#43ADAD" fill-opacity="1" stroke-linejoin="round" d="M 147.045,15.3223C 149.157,15.3223 150.863,16.9869 150.863,19.0176C 150.863,20.4102 150.083,21.6055 148.936,22.248L 147.777,21.0899C 148.692,20.8008 149.319,19.9916 149.319,19.0176C 149.319,17.7995 148.344,16.8652 147.045,16.8652L 146.923,16.877L 146.923,15.3347M 147.045,22.7539C 145.056,22.7539 143.389,21.0886 143.389,19.0176C 143.389,17.2272 144.685,15.7252 146.355,15.3939L 146.355,16.9869C 145.512,17.2701 144.892,18.0502 144.892,19.0176C 144.892,20.2357 145.867,21.2109 147.045,21.2109L 147.047,21.2109L 148.353,22.5156C 147.944,22.6622 147.507,22.7539 147.045,22.7539 Z M 150.863,131.96C 150.863,133.991 149.157,135.656 147.045,135.656L 147.004,135.652L 147.004,134.149L 147.045,134.153C 148.344,134.153 149.319,133.178 149.319,131.96C 149.319,131.385 149.097,130.869 148.731,130.48L 149.815,129.397C 150.461,130.066 150.863,130.963 150.863,131.96 Z M 144.892,131.96C 144.892,132.958 145.552,133.783 146.436,134.052L 146.436,135.592C 144.728,135.293 143.389,133.777 143.389,131.96C 143.389,129.889 145.056,128.223 147.045,128.223C 147.931,128.223 148.736,128.529 149.383,129.022L 148.287,130.114C 147.935,129.897 147.512,129.767 147.045,129.767C 145.867,129.767 144.892,130.742 144.892,131.96 Z M 149.725,220.292C 149.725,221.956 148.344,223.297 146.639,223.297C 145.015,223.297 143.675,221.956 143.675,220.292C 143.675,218.697 144.905,217.415 146.436,217.305L 146.436,218.525C 145.56,218.629 144.892,219.387 144.892,220.292C 144.892,221.265 145.664,222.079 146.639,222.079C 147.695,222.079 148.507,221.265 148.507,220.292C 148.507,219.433 147.876,218.701 147.004,218.539L 147.004,217.321C 148.535,217.499 149.725,218.749 149.725,220.292 Z M 146.355,0L 146.355,14.418C 144.127,14.7598 142.416,16.6953 142.416,19.0176C 142.416,21.6166 144.487,23.7285 147.045,23.7285C 147.781,23.7285 148.472,23.5508 149.096,23.2572L 169.599,43.7272C 169.035,44.2904 168.691,45.0717 168.691,45.9434C 168.691,47.6491 170.073,49.03 171.817,49.03L 171.817,103.552L 171.616,103.531C 169.909,103.531 168.528,104.912 168.528,106.658C 168.528,107.561 168.921,108.366 169.539,108.93L 150.049,128.357C 149.224,127.701 148.188,127.29 147.045,127.29C 144.487,127.29 142.416,129.401 142.416,131.96C 142.416,134.347 144.168,136.268 146.436,136.569L 146.436,216.535C 144.497,216.643 142.903,218.251 142.903,220.292C 142.903,222.403 144.608,224.111 146.639,224.111C 148.791,224.111 150.497,222.403 150.497,220.292C 150.497,218.303 148.979,216.728 147.004,216.549L 147.004,136.627L 147.045,136.631C 149.685,136.631 151.837,134.559 151.837,131.96C 151.837,130.71 151.319,129.572 150.485,128.729L 169.979,109.267C 170.453,109.565 171.012,109.745 171.616,109.745C 173.363,109.745 174.744,108.365 174.744,106.658C 174.744,105.181 173.751,103.975 172.388,103.635L 172.388,48.9727C 173.821,48.7051 174.905,47.4537 174.905,45.9434C 174.905,44.1972 173.525,42.8164 171.817,42.8164C 171.156,42.8164 170.548,43.0163 170.045,43.3582L 149.649,22.9616C 150.963,22.1211 151.837,20.6712 151.837,19.0176C 151.837,16.459 149.685,14.3471 147.045,14.3471L 146.923,14.3594L 146.923,0L 146.355,0 Z "/>
	<path fill="#43ADAD" fill-opacity="1" stroke-linejoin="round" d="M 75.8164,277.635C 75.8164,279.512 77.3229,280.993 79.1985,280.993C 81.0768,280.993 82.6061,279.512 82.6061,277.635C 82.6061,275.953 81.3751,274.559 79.7676,274.287L 79.7676,251.22L 53.748,225.2L 53.748,162.221C 55.2812,161.891 56.4375,160.531 56.4375,158.943C 56.4375,157.067 54.9083,155.537 53.0325,155.537C 51.1569,155.537 49.6251,157.067 49.6251,158.943C 49.6251,160.433 50.6504,161.711 52.0443,162.136L 52.0443,225.893L 78.0639,251.913L 78.0639,274.44C 76.7539,274.911 75.8164,276.159 75.8164,277.635 Z "/>
	<path fill="#43ADAD" fill-opacity="1" stroke-linejoin="round" d="M 629.299,350.971C 629.299,352.351 628.265,353.513 626.903,353.695L 626.903,352.524C 627.648,352.357 628.201,351.74 628.201,350.971C 628.201,350.525 628.02,350.12 627.721,349.825L 628.508,349.04C 628.997,349.541 629.299,350.225 629.299,350.971 Z M 626.536,349.345C 625.684,349.345 624.953,350.077 624.953,350.971C 624.953,351.789 625.575,352.444 626.333,352.552L 626.333,353.709C 624.961,353.599 623.815,352.403 623.815,350.971C 623.815,349.468 625.075,348.208 626.536,348.208C 627.105,348.208 627.631,348.381 628.065,348.673L 627.235,349.503C 627.023,349.407 626.789,349.345 626.536,349.345 Z M 638.68,293.748C 638.68,291.595 640.425,289.808 642.619,289.808C 644.811,289.808 646.599,291.595 646.599,293.748C 646.599,295.953 644.856,297.676 642.7,297.72L 642.7,296.095C 643.964,296.052 645.016,295.02 645.016,293.748C 645.016,292.489 643.917,291.433 642.619,291.433C 641.36,291.433 640.263,292.489 640.263,293.748C 640.263,294.876 641.089,295.817 642.132,296.048L 642.132,297.679C 640.176,297.44 638.68,295.811 638.68,293.748 Z M 640.283,402.293L 641.104,403.109C 640.893,403.385 640.751,403.716 640.751,404.091C 640.751,404.887 641.311,405.523 642.091,405.659L 642.091,406.823C 640.688,406.679 639.613,405.499 639.613,404.091C 639.613,403.396 639.869,402.775 640.283,402.293 Z M 642.375,401.329C 643.877,401.329 645.096,402.548 645.096,404.091C 645.096,405.511 644.005,406.697 642.619,406.827L 642.619,405.665C 643.385,405.541 643.96,404.897 643.96,404.091C 643.96,403.197 643.268,402.467 642.375,402.467C 642.032,402.467 641.741,402.588 641.485,402.757L 640.657,401.932C 641.129,401.56 641.719,401.329 642.375,401.329 Z M 626.536,347.519C 624.668,347.519 623.125,349.061 623.125,350.971C 623.125,352.807 624.56,354.293 626.333,354.401L 626.333,385.816C 625.375,386.12 624.709,386.993 624.709,388.008C 624.709,389.349 625.724,390.364 627.065,390.364C 627.419,390.364 627.753,390.276 628.057,390.131L 639.788,401.8C 639.233,402.409 638.883,403.207 638.883,404.091C 638.883,405.903 640.313,407.368 642.091,407.515L 642.091,441.039C 641.267,441.189 640.629,441.889 640.629,442.753C 640.629,443.653 641.267,444.391 642.091,444.547L 642.091,456.095C 640.855,456.201 639.939,457.237 639.939,458.429C 639.939,459.729 640.955,460.785 642.295,460.785C 643.553,460.785 644.568,459.729 644.568,458.429C 644.568,457.283 643.721,456.28 642.619,456.109L 642.619,444.561C 643.568,444.464 644.244,443.701 644.244,442.753C 644.244,441.847 643.563,441.141 642.619,441.044L 642.619,407.519C 644.412,407.392 645.827,405.917 645.827,404.091C 645.827,402.183 644.284,400.639 642.375,400.639C 641.537,400.639 640.773,400.948 640.167,401.443L 628.524,389.829C 629.039,389.404 629.379,388.761 629.379,388.008C 629.379,386.751 628.323,385.695 627.065,385.695L 626.903,385.709L 626.903,354.385C 628.64,354.201 630.028,352.753 630.028,350.971C 630.028,350.021 629.637,349.163 629.008,348.539L 640.903,336.644C 641.288,336.917 641.764,337.081 642.295,337.081C 643.553,337.081 644.568,336.065 644.568,334.765C 644.568,333.611 643.763,332.652 642.7,332.453L 642.7,298.735C 645.384,298.691 647.615,296.481 647.615,293.748C 647.615,291.027 645.34,288.793 642.619,288.793C 639.857,288.793 637.624,291.027 637.624,293.748C 637.624,296.343 639.603,298.445 642.132,298.695L 642.132,332.427C 640.875,332.509 639.939,333.521 639.939,334.765C 639.939,335.351 640.151,335.869 640.499,336.272L 628.565,348.176C 627.989,347.765 627.292,347.519 626.536,347.519 Z "/>
	<path fill="#43ADAD" fill-opacity="1" stroke-linejoin="round" d="M 127.033,48.183C 125.432,48.4557 124.219,49.8496 124.219,51.5305C 124.219,52.332 124.506,53.0612 124.967,53.6445L 103.853,74.2435L 103.853,98.4987C 102.383,98.8652 101.285,100.158 101.285,101.744C 101.285,103.62 102.816,105.149 104.692,105.149C 106.568,105.149 108.074,103.62 108.074,101.744C 108.074,100.158 106.995,98.8666 105.531,98.4994L 105.531,74.9336L 126.316,54.6804C 126.712,54.8444 127.145,54.9382 127.601,54.9382C 129.477,54.9382 131.008,53.4063 131.008,51.5305C 131.008,50.0547 130.055,48.8054 128.737,48.3347L 128.737,1.93555L 130.673,0L 128.279,0L 127.033,1.24548L 127.033,48.183 Z "/>
	<path fill="#43ADAD" fill-opacity="1" stroke-linejoin="round" d="M 642.196,151.935C 641.896,152.436 641.711,153.015 641.711,153.645C 641.711,155.227 642.804,156.552 644.253,156.933L 644.253,174.592L 630.648,160.988L 630.648,140.388M 628.945,136.288L 615.125,122.467L 615.125,92.8281C 616.691,92.5253 617.864,91.1414 617.864,89.4858C 617.864,88.7155 617.6,88.0111 617.171,87.4395L 628.945,75.6653M 630.648,58.8862C 632.525,58.8862 634.031,57.3541 634.031,55.4785C 634.031,54.7923 633.819,54.1484 633.455,53.6113L 645.809,41.2604L 645.809,56.3582L 630.648,71.5417M 647.513,57.0983L 647.513,39.558L 666.667,20.4102L 666.667,18.017L 647.513,37.1647L 647.513,0L 645.809,0L 645.809,38.8672L 632.173,52.5C 631.713,52.2663 631.2,52.1211 630.648,52.1211C 628.773,52.1211 627.244,53.6504 627.244,55.4785C 627.244,56.7311 627.933,57.8177 628.945,58.4102L 628.945,73.2473L 615.843,86.3711C 615.425,86.1868 614.968,86.0807 614.483,86.0807C 612.607,86.0807 611.076,87.61 611.076,89.4858C 611.076,90.989 612.065,92.2565 613.42,92.7064L 613.42,123.159L 628.945,138.684L 628.945,161.679L 643.235,175.967C 642.796,176.54 642.525,177.247 642.525,178.021C 642.525,179.285 643.228,180.38 644.253,180.968L 644.253,213.401L 602.197,255.469L 602.197,290.239C 601.032,290.764 600.224,291.917 600.224,293.288C 600.224,294.028 600.464,294.708 600.861,295.268L 571.932,324.245L 571.932,348.537C 570.915,349.128 570.231,350.219 570.231,351.475C 570.231,353.351 571.735,354.88 573.636,354.88C 575.488,354.88 577.019,353.351 577.019,351.475C 577.019,349.599 575.488,348.068 573.636,348.068L 573.636,324.937L 602.195,296.377C 602.625,296.577 603.1,296.696 603.607,296.696C 605.481,296.696 607.012,295.164 607.012,293.288C 607.012,291.513 605.639,290.109 603.903,289.96L 603.903,256.161L 644.253,215.821L 644.253,256.217C 642.804,256.597 641.711,257.92 641.711,259.501C 641.711,260.12 641.891,260.689 642.181,261.183L 619.347,284.04L 619.347,316.84C 618.045,317.315 617.099,318.56 617.099,320.032C 617.099,321.911 618.631,323.44 620.481,323.44C 622.359,323.44 623.888,321.911 623.888,320.032C 623.888,318.351 622.655,316.957 621.049,316.684L 621.049,284.732L 643.407,262.396C 643.907,262.683 644.479,262.859 645.093,262.859C 646.995,262.859 648.5,261.377 648.5,259.501C 648.5,257.923 647.428,256.601 645.957,256.219L 645.957,214.117L 666.667,193.415L 666.667,190.983L 645.957,211.697L 645.957,181.425C 647.82,181.411 649.312,179.888 649.312,178.021C 649.312,176.155 647.82,174.633 645.957,174.617L 645.957,156.931C 647.428,156.548 648.5,155.224 648.5,153.645C 648.5,151.771 646.995,150.289 645.093,150.289C 644.479,150.289 643.908,150.464 643.409,150.751L 630.648,137.992L 630.648,73.9623L 647.513,57.0983 Z "/>
	<path fill="#43ADAD" fill-opacity="1" stroke-linejoin="round" d="M 626.133,0L 626.133,9.2663C 624.98,9.66992 624.151,10.7565 624.151,12.0254C 624.151,13.6608 625.468,14.9922 627.101,14.9922C 628.721,14.9922 630.039,13.6608 630.039,12.0254C 630.039,10.8145 629.287,9.76044 628.223,9.3158L 628.223,0L 626.133,0 Z "/>
	<path fill="#43ADAD" fill-opacity="1" stroke-linejoin="round" d="M 504.624,1.76111C 505.9,1.76111 506.992,1.04364 507.568,0L 501.661,0C 502.245,1.04364 503.348,1.76111 504.624,1.76111 Z "/>
	<path fill="#43ADAD" fill-opacity="1" stroke-linejoin="round" d="M 574.683,250.231C 574.683,252.108 576.187,253.639 578.065,253.639C 579.94,253.639 581.471,252.108 581.471,250.231C 581.471,248.655 580.384,247.352 578.927,246.972L 578.927,213.103L 553.747,187.923L 553.747,119.416C 555.204,119.031 556.289,117.712 556.289,116.135C 556.289,114.26 554.76,112.728 552.884,112.728C 551.007,112.728 549.476,114.26 549.476,116.135C 549.476,117.72 550.573,119.047 552.045,119.423L 552.045,188.615L 577.223,213.795L 577.223,246.967C 575.759,247.339 574.683,248.648 574.683,250.231 Z "/>
	<path fill="#43ADAD" fill-opacity="1" stroke-linejoin="round" d="M 553.796,265.277C 553.796,263.403 552.263,261.921 550.388,261.921C 548.512,261.921 547.005,263.403 547.005,265.277C 547.005,266.752 547.943,268.003 549.252,268.475L 549.252,354.495L 579.992,385.235C 579.683,385.748 579.493,386.341 579.493,386.983C 579.493,388.86 581.024,390.34 582.901,390.34C 584.777,390.34 586.281,388.86 586.281,386.983C 586.281,385.105 584.777,383.576 582.901,383.576C 582.292,383.576 581.727,383.751 581.231,384.032L 550.956,353.805L 550.956,268.628C 552.561,268.355 553.796,266.959 553.796,265.277 Z "/>
	<path fill="#43ADAD" fill-opacity="1" stroke-linejoin="round" d="M 50.0371,0L 50.0371,59.612L 81.4309,91.0065L 81.4309,124.445C 80.3164,124.866 79.5235,125.934 79.5235,127.199C 79.5235,128.819 80.8405,130.15 82.4747,130.15C 84.11,130.15 85.4271,128.819 85.4271,127.199C 85.4271,125.934 84.6341,124.867 83.5189,124.445L 83.5189,90.1583L 52.1107,58.7643L 52.1107,0L 50.0371,0 Z "/>
	<path fill="#43ADAD" fill-opacity="1" stroke-linejoin="round" d="M 523.276,19.0176C 523.276,21.0886 521.611,22.7539 519.621,22.7539C 519.159,22.7539 518.723,22.6622 518.313,22.5156L 519.62,21.2109L 519.621,21.2109C 520.8,21.2109 521.773,20.2357 521.773,19.0176C 521.773,18.0502 521.155,17.2701 520.311,16.9869L 520.311,15.3939C 521.981,15.7252 523.276,17.2272 523.276,19.0176 Z M 515.804,19.0176C 515.804,16.9869 517.509,15.3223 519.621,15.3223L 519.744,15.3347L 519.744,16.877L 519.621,16.8652C 518.321,16.8652 517.348,17.7995 517.348,19.0176C 517.348,19.9916 517.975,20.8008 518.889,21.0899L 517.731,22.248C 516.584,21.6055 515.804,20.4102 515.804,19.0176 Z M 516.852,129.397L 517.935,130.48C 517.571,130.869 517.348,131.385 517.348,131.96C 517.348,133.178 518.321,134.153 519.621,134.153L 519.661,134.149L 519.661,135.652L 519.621,135.656C 517.509,135.656 515.804,133.991 515.804,131.96C 515.804,130.963 516.205,130.066 516.852,129.397 Z M 519.621,128.223C 521.611,128.223 523.276,129.889 523.276,131.96C 523.276,133.777 521.939,135.293 520.231,135.592L 520.231,134.052C 521.115,133.783 521.773,132.958 521.773,131.96C 521.773,130.742 520.8,129.767 519.621,129.767C 519.155,129.767 518.732,129.897 518.379,130.114L 517.284,129.022C 517.931,128.529 518.736,128.223 519.621,128.223 Z M 522.992,220.292C 522.992,221.956 521.652,223.297 520.028,223.297C 518.321,223.297 516.941,221.956 516.941,220.292C 516.941,218.749 518.132,217.499 519.661,217.321L 519.661,218.539C 518.791,218.701 518.159,219.433 518.159,220.292C 518.159,221.265 518.972,222.079 520.028,222.079C 521.003,222.079 521.773,221.265 521.773,220.292C 521.773,219.387 521.105,218.629 520.231,218.525L 520.231,217.305C 521.76,217.415 522.992,218.697 522.992,220.292 Z M 519.744,0L 519.744,14.3594L 519.621,14.3471C 516.981,14.3471 514.829,16.459 514.829,19.0176C 514.829,20.6712 515.704,22.1211 517.017,22.9616L 496.621,43.3582C 496.119,43.0163 495.511,42.8164 494.849,42.8164C 493.141,42.8164 491.76,44.1972 491.76,45.9434C 491.76,47.4537 492.845,48.7051 494.279,48.9727L 494.279,103.635C 492.917,103.975 491.923,105.181 491.923,106.658C 491.923,108.365 493.304,109.745 495.051,109.745C 495.653,109.745 496.212,109.565 496.688,109.267L 516.181,128.729C 515.348,129.572 514.829,130.71 514.829,131.96C 514.829,134.559 516.981,136.631 519.621,136.631L 519.661,136.627L 519.661,216.549C 517.688,216.728 516.169,218.303 516.169,220.292C 516.169,222.403 517.875,224.111 520.028,224.111C 522.059,224.111 523.764,222.403 523.764,220.292C 523.764,218.251 522.169,216.643 520.231,216.535L 520.231,136.569C 522.497,136.268 524.251,134.347 524.251,131.96C 524.251,129.401 522.18,127.29 519.621,127.29C 518.479,127.29 517.441,127.701 516.617,128.357L 497.128,108.93C 497.745,108.366 498.139,107.561 498.139,106.658C 498.139,104.912 496.757,103.531 495.051,103.531L 494.849,103.552L 494.849,49.03C 496.593,49.03 497.976,47.6491 497.976,45.9434C 497.976,45.0717 497.632,44.2904 497.069,43.7272L 517.571,23.2572C 518.195,23.5508 518.885,23.7285 519.621,23.7285C 522.18,23.7285 524.251,21.6166 524.251,19.0176C 524.251,16.6953 522.54,14.7598 520.311,14.418L 520.311,0L 519.744,0 Z "/>
	<path fill="#43ADAD" fill-opacity="1" stroke-linejoin="round" d="M 583.147,90.1583L 583.147,124.445C 582.032,124.867 581.24,125.934 581.24,127.199C 581.24,128.819 582.557,130.15 584.192,130.15C 585.825,130.15 587.143,128.819 587.143,127.199C 587.143,125.934 586.351,124.866 585.236,124.445L 585.236,91.0065L 616.629,59.612L 616.629,0L 614.556,0L 614.556,58.7643L 583.147,90.1583 Z "/>
	<path fill="#43ADAD" fill-opacity="1" stroke-linejoin="round" d="M 36.6276,12.0254C 36.6276,13.6608 37.9447,14.9922 39.5644,14.9922C 41.1992,14.9922 42.5163,13.6608 42.5163,12.0254C 42.5163,10.7565 41.6868,9.66992 40.5332,9.2663L 40.5332,0L 38.444,0L 38.444,9.3158C 37.3796,9.76044 36.6276,10.8145 36.6276,12.0254 Z "/>
	<path fill="#43ADAD" fill-opacity="1" stroke-linejoin="round" d="M 537.929,48.3347C 536.612,48.8054 535.659,50.0547 535.659,51.5305C 535.659,53.4063 537.189,54.9382 539.065,54.9382C 539.521,54.9382 539.955,54.8444 540.351,54.6804L 561.136,74.9336L 561.136,98.4994C 559.671,98.8666 558.592,100.158 558.592,101.744C 558.592,103.62 560.097,105.149 561.973,105.149C 563.851,105.149 565.381,103.62 565.381,101.744C 565.381,100.158 564.284,98.8652 562.813,98.4987L 562.813,74.2435L 541.699,53.6445C 542.16,53.0612 542.448,52.332 542.448,51.5305C 542.448,49.8496 541.235,48.4557 539.633,48.183L 539.633,1.24548L 538.388,0L 535.995,0L 537.929,1.93555L 537.929,48.3347 Z "/>
	<path fill="#43ADAD" fill-opacity="1" stroke-linejoin="round" d="M 551.556,51.8926L 570.552,70.9036L 570.552,133.178L 581.133,143.759L 581.133,155.58C 580.116,156.044 579.408,157.06 579.408,158.245C 579.408,159.88 580.725,161.196 582.36,161.196C 583.979,161.196 585.297,159.88 585.297,158.245C 585.297,156.928 584.419,155.824 583.223,155.452L 583.223,142.896L 572.641,132.314L 572.641,70.0267L 553.644,51.0449L 553.644,25.4323L 579.077,0L 576.132,0L 551.556,24.584L 551.556,51.8926 Z "/>
	<path fill="#43ADAD" fill-opacity="1" stroke-linejoin="round" d="M 614.623,225.893L 614.623,162.136C 616.016,161.711 617.041,160.433 617.041,158.943C 617.041,157.067 615.509,155.537 613.635,155.537C 611.757,155.537 610.229,157.067 610.229,158.943C 610.229,160.531 611.385,161.891 612.917,162.221L 612.917,225.2L 586.899,251.22L 586.899,274.287C 585.292,274.559 584.06,275.953 584.06,277.635C 584.06,279.512 585.589,280.993 587.468,280.993C 589.344,280.993 590.851,279.512 590.851,277.635C 590.851,276.159 589.913,274.911 588.603,274.44L 588.603,251.913L 614.623,225.893 Z "/>
	<path fill="#43ADAD" fill-opacity="1" stroke-linejoin="round" d="M 230.427,15.1478C 230.427,16.4472 229.371,17.463 228.153,17.463L 228.072,17.4544L 228.072,16.5521L 228.153,16.5696C 228.924,16.5696 229.452,15.9199 229.452,15.1478C 229.452,14.806 229.328,14.4973 229.127,14.2584L 229.785,13.601C 230.177,14.0125 230.427,14.5599 230.427,15.1478 Z M 226.772,15.1478C 226.772,15.7748 227.183,16.3015 227.747,16.4844L 227.747,17.4232C 226.649,17.2357 225.837,16.308 225.837,15.1478C 225.837,13.9297 226.853,12.8737 228.153,12.8737C 228.664,12.8737 229.14,13.0664 229.528,13.3718L 228.859,14.0391C 228.657,13.9056 228.429,13.808 228.153,13.808C 227.381,13.808 226.772,14.4167 226.772,15.1478 Z M 229.737,69.9336C 229.737,70.9492 228.924,71.8021 227.868,71.8021C 226.853,71.8021 226.041,70.9492 226.041,69.9336C 226.041,68.9212 226.791,68.1041 227.747,68.0377L 227.747,68.8229C 227.199,68.8907 226.772,69.3679 226.772,69.9336C 226.772,70.543 227.26,71.03 227.868,71.03C 228.519,71.03 229.005,70.543 229.005,69.9336C 229.005,69.3932 228.612,68.9382 228.072,68.8379L 228.072,68.0457C 229.025,68.1484 229.737,68.9479 229.737,69.9336 Z M 229.976,12.9238C 229.472,12.5182 228.839,12.2643 228.153,12.2643C 226.569,12.2643 225.229,13.5639 225.229,15.1478C 225.229,16.6302 226.348,17.8301 227.747,18.0305L 227.747,67.5906C 226.54,67.657 225.513,68.6771 225.513,69.9336C 225.513,71.2331 226.611,72.2891 227.868,72.2891C 229.168,72.2891 230.224,71.2331 230.224,69.9336C 230.224,68.7037 229.275,67.7031 228.072,67.5989L 228.072,18.0639L 228.153,18.0723C 229.737,18.0723 231.077,16.7722 231.077,15.1478C 231.077,14.3724 230.753,13.668 230.24,13.1484L 242.297,1.12177C 242.585,1.30927 242.927,1.42126 243.301,1.42126C 244.213,1.42126 244.947,0.828125 245.172,0L 241.508,0C 241.603,0.353516 241.779,0.665405 242.027,0.904968L 229.976,12.9238 Z "/>
	<path fill="#A0DFDF" fill-opacity="1" stroke-linejoin="round" d="M 578.307,33.2499L 578.307,24.4929L 597.645,20.5247L 597.645,29.2819L 578.307,33.2499 Z "/>
	<path fill="#A0DFDF" fill-opacity="1" stroke-linejoin="round" d="M 578.307,47.101L 578.307,38.3438L 597.645,34.3756L 597.645,43.1328L 578.307,47.101 Z "/>
	<path fill="#96DCDA" fill-opacity="1" stroke-linejoin="round" d="M 597.645,56.8959L 578.307,60.8639L 578.307,52.1068L 597.645,48.1387L 597.645,56.8959 Z "/>
	<path fill="#94DBD9" fill-opacity="1" stroke-linejoin="round" d="M 138.032,92.2623L 128.115,92.2623L 123.156,83.6725L 128.115,75.0834L 138.032,75.0834L 142.992,83.6725L 138.032,92.2623 Z "/>
	<path fill="#94DBD9" fill-opacity="1" stroke-linejoin="round" d="M 154.867,101.635L 144.948,101.635L 139.989,93.0455L 144.948,84.4557L 154.867,84.4557L 159.827,93.0455L 154.867,101.635 Z M 145.865,86.0438L 141.823,93.0455L 145.865,100.047L 153.949,100.047L 157.992,93.0455L 153.949,86.0438L 145.865,86.0438 Z "/>
	<path fill="#94DBD9" fill-opacity="1" stroke-linejoin="round" d="M 137.789,105.766L 131.07,105.766L 127.711,99.9472L 131.07,94.1283L 137.789,94.1283L 141.149,99.9472L 137.789,105.766 Z "/>
	<path fill="#29436B" fill-opacity="1" stroke-linejoin="round" d="M 474.353,476.496C 474.353,479.931 471.568,482.716 468.133,482.716C 464.697,482.716 461.912,479.931 461.912,476.496C 461.912,473.06 464.697,470.275 468.133,470.275C 471.568,470.275 474.353,473.06 474.353,476.496 Z M 490.287,478.973L 490.287,474.017L 485.701,473.248C 485.529,472.311 485.287,471.401 484.975,470.523L 488.557,467.565L 486.08,463.272L 481.721,464.899C 481.111,464.184 480.444,463.519 479.729,462.908L 481.356,458.548L 477.063,456.071L 474.105,459.653C 473.228,459.341 472.316,459.099 471.381,458.927L 470.611,454.341L 465.653,454.341L 464.884,458.927C 463.948,459.099 463.037,459.341 462.159,459.653L 459.201,456.071L 454.909,458.548L 456.535,462.908C 455.82,463.519 455.155,464.184 454.544,464.899L 450.187,463.272L 447.707,467.565L 451.291,470.523C 450.977,471.401 450.736,472.311 450.564,473.248L 445.977,474.017L 445.977,478.973L 450.564,479.745C 450.736,480.68 450.977,481.591 451.291,482.469L 447.707,485.425L 450.187,489.719L 454.544,488.092C 455.155,488.807 455.82,489.473 456.535,490.084L 454.909,494.443L 459.201,496.92L 462.159,493.339C 463.037,493.649 463.948,493.893 464.884,494.065L 465.653,498.649L 470.611,498.649L 471.381,494.065C 472.316,493.893 473.228,493.649 474.105,493.339L 477.063,496.92L 481.356,494.443L 479.729,490.084C 480.444,489.473 481.111,488.807 481.721,488.092L 486.08,489.719L 488.557,485.425L 484.975,482.469C 485.287,481.591 485.529,480.68 485.701,479.745L 490.287,478.973 Z "/>
	<path fill="#E37C17" fill-opacity="1" stroke-linejoin="round" d="M 318.977,354.493C 331.76,356.464 340.525,368.424 338.553,381.205C 336.584,393.988 324.623,402.752 311.841,400.783C 299.059,398.811 290.295,386.852 292.265,374.069C 294.236,361.287 306.196,352.523 318.977,354.493 Z M 277.677,376.487C 277.847,376.852 281.116,377.884 285.624,379.145C 285.827,383.228 286.879,387.136 288.611,390.683C 285.167,393.772 282.635,396.084 282.4,396.416C 281.644,397.48 284.972,402.721 287.771,403.744C 288.157,403.884 291.324,402.229 295.541,399.852C 298.407,402.419 301.787,404.447 305.555,405.763C 305.296,410.527 305.131,414.087 305.2,414.496C 305.42,415.783 311.479,417.136 314.18,415.88C 314.559,415.704 315.656,412.189 316.983,407.417C 321.127,407.201 325.087,406.108 328.675,404.32C 332.231,408.008 334.955,410.72 335.397,410.881C 336.796,411.393 342.725,405.512 342.725,405.512C 342.725,405.512 340.633,402.033 337.772,397.328C 340.296,394.469 342.287,391.107 343.575,387.365C 348.667,387.457 352.479,387.448 352.905,387.251C 354.255,386.623 354.289,378.271 354.289,378.271C 354.289,378.271 350.44,377.313 345.187,376.032C 344.972,372.012 343.941,368.161 342.245,364.66C 345.815,361.212 348.417,358.595 348.575,358.16C 349.085,356.761 343.204,350.832 343.204,350.832C 343.204,350.832 339.921,352.808 335.42,355.543C 332.477,352.872 328.973,350.785 325.068,349.451C 325.149,344.631 325.135,341.064 324.944,340.652C 324.316,339.303 315.964,339.268 315.964,339.268C 315.964,339.268 315.069,342.865 313.852,347.857C 309.904,348.059 306.113,349.043 302.661,350.68C 299.681,347.361 297.465,344.935 297.143,344.705C 296.077,343.951 290.836,347.28 289.815,350.077C 289.677,350.451 291.223,353.428 293.475,357.436C 290.757,360.381 288.633,363.904 287.269,367.833C 282.772,367.591 279.455,367.44 279.061,367.507C 277.775,367.727 276.423,373.787 277.677,376.487 Z "/>
	<path fill="#E37C17" fill-opacity="1" stroke-linejoin="round" d="M 317.94,361.228C 327.003,362.625 333.217,371.105 331.819,380.168C 330.421,389.231 321.943,395.445 312.88,394.047C 303.816,392.649 297.603,384.171 299,375.107C 300.397,366.044 308.877,359.829 317.94,361.228 Z "/>
	<path fill="#29436B" fill-opacity="1" stroke-linejoin="round" d="M 483.54,254.316C 483.54,257.751 480.753,260.537 477.319,260.537C 473.884,260.537 471.099,257.751 471.099,254.316C 471.099,250.881 473.884,248.096 477.319,248.096C 480.753,248.096 483.54,250.881 483.54,254.316 Z M 499.473,256.795L 499.473,251.837L 494.888,251.068C 494.716,250.132 494.473,249.221 494.161,248.343L 497.745,245.387L 495.265,241.092L 490.908,242.72C 490.297,242.004 489.632,241.339 488.917,240.728L 490.543,236.369L 486.251,233.891L 483.293,237.473C 482.415,237.163 481.504,236.919 480.569,236.748L 479.799,232.163L 474.841,232.163L 474.071,236.748C 473.136,236.919 472.225,237.163 471.347,237.473L 468.389,233.891L 464.096,236.369L 465.723,240.728C 465.008,241.339 464.341,242.004 463.731,242.72L 459.372,241.092L 456.895,245.387L 460.476,248.343C 460.165,249.221 459.921,250.132 459.751,251.068L 455.165,251.837L 455.165,256.795L 459.751,257.565C 459.921,258.5 460.165,259.412 460.476,260.289L 456.895,263.247L 459.372,267.54L 463.731,265.913C 464.341,266.628 465.008,267.295 465.723,267.905L 464.096,272.263L 468.389,274.743L 471.347,271.159C 472.225,271.471 473.136,271.713 474.071,271.885L 474.841,276.471L 479.799,276.471L 480.569,271.885C 481.504,271.713 482.415,271.471 483.293,271.159L 486.251,274.743L 490.543,272.263L 488.917,267.905C 489.632,267.295 490.297,266.628 490.908,265.913L 495.265,267.54L 497.745,263.247L 494.161,260.289C 494.473,259.412 494.716,258.5 494.888,257.565L 499.473,256.795 Z "/>
	<path fill="#FEFEFE" fill-opacity="1" stroke-linejoin="round" d="M 219.461,579.151C 219.461,579.151 241.361,527.644 240.551,486.277C 239.74,444.911 223.517,416.925 201.617,375.559C 179.717,334.192 167.188,252.268 240.573,204.007C 313.957,155.745 406.729,181.029 431.975,204.007C 468.071,236.857 476.993,284.713 476.587,295.664C 476.183,306.613 464.839,311.48 476.593,328.513C 483.533,338.571 493.728,352.304 500.915,361.865C 504.971,367.261 502.277,375.041 495.756,376.787L 487.137,379.093C 483.583,380.044 481.472,383.695 482.431,387.248C 483.721,392.029 485.279,398.155 485.511,400.704C 485.916,405.165 474.56,412.871 474.56,412.871C 474.56,412.871 483.888,417.332 479.427,423.416C 474.965,429.499 470.504,430.309 472.127,439.232C 473.749,448.155 482.671,467.621 446.576,469.244C 410.48,470.865 385.743,470.461 393.853,508.177C 401.965,545.895 407.641,579.151 407.641,579.151L 219.461,579.151 Z "/>
	<path fill="#F4F2F9" fill-opacity="1" stroke-linejoin="round" d="M 323.221,493.855C 323.221,495.487 324.529,496.817 326.164,496.817C 327.795,496.817 329.125,495.487 329.125,493.855C 329.125,492.483 328.181,491.351 326.913,491.02L 326.913,461.563L 305.012,439.661L 305.012,380.079C 306.28,379.744 307.224,378.595 307.224,377.225C 307.224,375.593 305.895,374.26 304.263,374.26C 302.629,374.26 301.299,375.593 301.299,377.225C 301.299,378.603 302.253,379.756 303.533,380.084L 303.533,440.264L 325.431,462.164L 325.431,491.015C 324.159,491.34 323.221,492.476 323.221,493.855 Z "/>
	<path fill="#F4F2F9" fill-opacity="1" stroke-linejoin="round" d="M 273.869,269.168L 273.869,250.479L 283.573,260.183L 283.573,318.136L 271.381,330.323L 271.381,314.008C 272.248,313.6 272.856,312.731 272.856,311.704C 272.856,310.283 271.697,309.137 270.289,309.137C 269.912,309.137 269.556,309.223 269.235,309.368L 262.179,302.292L 262.179,280.859M 270.816,188.433L 270.816,247.425L 272.204,248.813L 272.067,248.813L 272.067,268.431L 260.363,280.121L 260.363,303.055L 267.953,310.647C 267.807,310.971 267.721,311.327 267.721,311.704C 267.721,312.873 268.5,313.835 269.564,314.144L 269.564,332.139L 256.256,345.441L 256.256,375.261C 255.285,375.629 254.596,376.557 254.596,377.657C 254.596,379.067 255.743,380.225 257.165,380.225C 258.585,380.225 259.731,379.067 259.731,377.657C 259.731,376.557 259.041,375.629 258.072,375.261L 258.072,346.179L 269.564,334.687L 269.564,359.991C 268.561,360.343 267.84,361.288 267.84,362.392C 267.84,363.813 268.985,364.972 270.408,364.972C 271.816,364.972 272.961,363.813 272.961,362.392C 272.961,361.339 272.308,360.421 271.381,360.035L 271.381,332.869L 285.377,318.873L 285.377,259.419L 272.633,246.663L 272.633,187.728C 272.027,187.956 271.421,188.197 270.816,188.433 Z "/>
	<path fill="#F4F2F9" fill-opacity="1" stroke-linejoin="round" d="M 228.779,288.408L 228.779,312.16L 245.301,328.695L 245.301,382.859L 254.504,392.06L 254.504,402.343C 253.619,402.747 253.003,403.631 253.003,404.66C 253.003,406.083 254.149,407.227 255.571,407.227C 256.979,407.227 258.125,406.083 258.125,404.66C 258.125,403.515 257.361,402.553 256.321,402.231L 256.321,391.309L 247.119,382.107L 247.119,327.932L 230.596,311.423L 230.596,289.145L 265.037,254.705L 265.037,238.604L 257.664,231.205L 257.664,194.22C 257.057,194.519 256.453,194.829 255.848,195.139L 255.848,231.969L 263.22,239.341L 263.22,253.956L 228.779,288.408 Z "/>
	<path fill="#F4F2F9" fill-opacity="1" stroke-linejoin="round" d="M 433.291,281.409L 417.855,296.849L 417.855,287.459C 419.067,287.088 419.959,285.977 419.959,284.681C 419.959,284.253 419.863,283.849 419.699,283.481L 433.291,269.889M 416.372,342.309L 405.141,353.54L 405.141,329.869L 396.044,320.771L 416.372,300.448M 382.305,332.409L 351.511,301.597L 355.244,297.865C 355.427,297.9 355.617,297.921 355.812,297.921C 357.444,297.921 358.776,296.633 358.776,295.001C 358.776,294.795 358.753,294.592 358.712,294.397L 358.785,294.325L 358.785,242.623L 368.619,232.791L 368.619,193.067L 375.104,199.561L 375.104,298.805C 373.855,299.139 372.936,300.251 372.936,301.612C 372.936,303.247 374.245,304.577 375.876,304.577C 376.408,304.577 376.899,304.425 377.329,304.18L 393.944,320.768M 347.74,297.824C 347.999,297.384 348.159,296.877 348.159,296.332C 348.159,294.961 347.215,293.813 345.947,293.477L 345.947,238.316L 319.667,212.015L 319.667,204.865L 337.111,187.421L 337.111,214.848C 335.479,214.848 334.168,216.181 334.168,217.812C 334.168,219.444 335.479,220.797 337.111,220.797C 337.885,220.797 338.585,220.485 339.116,219.991L 355.577,236.469L 355.577,292.061C 354.056,292.184 352.848,293.448 352.848,295.001C 352.848,295.877 353.24,296.647 353.849,297.179L 350.471,300.556M 336.896,314.125L 336.896,273.112C 338.176,272.779 339.108,271.629 339.108,270.256C 339.108,268.624 337.799,267.336 336.144,267.336C 335.611,267.336 335.113,267.488 334.679,267.737L 310.079,243.139L 310.079,217.36C 311.44,217.096 312.461,215.892 312.461,214.452C 312.461,213.783 312.232,213.169 311.859,212.672L 318.185,206.347L 318.185,212.659L 344.467,238.919L 344.467,293.471C 343.193,293.8 342.253,294.953 342.253,296.332C 342.253,297.963 343.564,299.296 345.195,299.296C 345.748,299.296 346.257,299.133 346.7,298.869L 349.427,301.597M 448.364,222.167L 448.364,250.071C 446.753,250.071 445.423,251.403 445.423,253.033C 445.423,253.768 445.701,254.433 446.145,254.952L 434.772,266.327L 434.772,257.205C 435.652,256.692 436.253,255.747 436.253,254.657C 436.253,253.025 434.921,251.693 433.291,251.693C 431.659,251.693 430.349,253.025 430.349,254.657C 430.349,256.288 431.659,257.619 433.291,257.619L 433.291,267.807L 418.771,282.327C 418.275,281.951 417.663,281.72 416.995,281.72C 415.363,281.72 414.033,283.049 414.033,284.681C 414.033,286.063 415.039,287.245 416.372,287.532L 416.372,298.332L 394.992,319.719L 378.407,303.133C 378.676,302.688 378.84,302.171 378.84,301.612C 378.84,300.227 377.876,299.097 376.585,298.785L 376.585,198.917L 368.619,190.956L 368.619,179.084C 368.125,179.004 367.635,178.923 367.137,178.845L 367.137,189.475L 355.012,177.359C 354.256,177.289 353.497,177.225 352.736,177.164L 367.137,191.584L 367.137,232.188L 357.303,242.023L 357.303,292.456L 357.036,292.311L 357.036,235.869L 339.919,218.713C 340.012,218.427 340.075,218.127 340.075,217.812C 340.075,216.723 339.472,215.777 338.592,215.261L 338.592,176.516C 337.984,176.509 337.377,176.501 336.767,176.501L 336.767,185.639L 319.667,202.767L 319.667,177.221C 319.173,177.264 318.679,177.317 318.185,177.363L 318.185,204.251L 310.703,211.744C 310.341,211.584 309.943,211.491 309.521,211.491C 307.889,211.491 306.557,212.821 306.557,214.452C 306.557,215.76 307.417,216.861 308.597,217.253L 308.597,243.74L 333.625,268.768C 333.363,269.203 333.203,269.707 333.203,270.256C 333.203,271.631 334.153,272.783 335.415,273.115L 335.415,315.607L 292.668,358.337C 292.269,358.135 291.824,358.008 291.344,358.008C 289.712,358.008 288.383,359.339 288.383,360.928C 288.383,362.019 288.981,362.964 289.861,363.477L 289.861,453.297L 302.289,465.723C 301.908,466.221 301.673,466.836 301.673,467.511C 301.673,469.141 303.003,470.472 304.635,470.472C 306.265,470.472 307.576,469.141 307.576,467.511C 307.576,465.877 306.265,464.547 304.635,464.547C 304.212,464.547 303.812,464.639 303.448,464.8L 291.344,452.695L 291.344,363.892C 292.975,363.892 294.285,362.56 294.285,360.928C 294.285,360.332 294.101,359.771 293.784,359.305L 335.415,317.688L 335.415,359.467C 334.153,359.799 333.203,360.948 333.203,362.323C 333.203,362.861 333.359,363.356 333.611,363.785L 313.751,383.665L 313.751,412.195C 312.62,412.607 311.796,413.691 311.796,414.971C 311.796,416.603 313.128,417.933 314.737,417.933C 316.369,417.933 317.701,416.603 317.701,414.971C 317.701,413.508 316.629,412.296 315.232,412.059L 315.232,384.268L 334.677,364.841C 335.112,365.091 335.609,365.244 336.144,365.244C 337.799,365.244 339.108,363.955 339.108,362.323C 339.108,360.951 338.176,359.803 336.896,359.469L 336.896,316.207L 350.469,302.639L 381.263,333.451L 358.979,355.741L 358.979,385.983C 357.965,386.439 357.261,387.443 357.261,388.635C 357.261,389.277 357.472,389.869 357.817,390.357L 332.655,415.559L 332.655,436.688C 331.769,437.201 331.175,438.149 331.175,439.243C 331.175,440.873 332.483,442.204 334.137,442.204C 335.749,442.204 337.079,440.873 337.079,439.243C 337.079,437.611 335.749,436.279 334.137,436.279L 334.137,416.161L 358.976,391.321C 359.351,391.495 359.763,391.597 360.203,391.597C 361.835,391.597 363.165,390.265 363.165,388.635C 363.165,387.091 361.972,385.868 360.461,385.74L 360.461,356.344L 382.233,334.577L 382.233,396.085L 371.176,407.123L 371.176,449.631C 369.903,449.959 368.964,451.112 368.964,452.489C 368.964,454.123 370.273,455.431 371.905,455.431C 373.537,455.431 374.868,454.123 374.868,452.489C 374.868,451.111 373.915,449.957 372.636,449.631L 372.636,407.767L 383.715,396.688L 383.715,333.82L 383.353,333.459L 394.996,321.819L 403.66,330.471L 403.66,355.023L 393.743,364.94L 393.743,385.001C 392.345,385.24 391.273,386.451 391.273,387.913C 391.273,389.547 392.603,390.835 394.237,390.835C 395.868,390.835 397.179,389.547 397.179,387.913C 397.179,386.631 396.363,385.544 395.224,385.136L 395.224,365.541L 403.66,357.105L 403.66,404.552C 402.264,404.791 401.192,406.004 401.192,407.467C 401.192,409.097 402.524,410.385 404.155,410.385C 405.787,410.385 407.096,409.097 407.096,407.467C 407.096,406.183 406.281,405.096 405.141,404.685L 405.141,355.624L 417.855,342.912L 417.855,298.967L 434.772,282.055L 434.772,268.408L 447.372,255.808C 447.684,255.923 448.016,255.996 448.364,255.996C 450.019,255.996 451.327,254.665 451.327,253.033C 451.327,251.941 450.732,250.993 449.847,250.479L 449.847,224.176C 449.364,223.503 448.863,222.835 448.364,222.167 Z "/>
	<path fill="#F4F2F9" fill-opacity="1" stroke-linejoin="round" d="M 209.241,262.912C 209.784,262.912 210.284,262.755 210.719,262.5L 216.928,268.709L 216.928,309.065C 215.781,309.475 214.952,310.561 214.952,311.844C 214.952,313.476 216.284,314.808 217.916,314.808C 218.312,314.808 218.689,314.727 219.033,314.584L 237.111,332.2L 237.111,352.695C 235.837,353.016 234.899,354.139 234.899,355.519C 234.899,357.149 236.209,358.479 237.84,358.479C 239.472,358.479 240.804,357.149 240.804,355.519C 240.804,354.139 239.849,353.015 238.571,352.695L 238.571,331.6L 220.207,313.684C 220.608,313.176 220.857,312.543 220.857,311.844C 220.857,310.383 219.803,309.171 218.409,308.933L 218.409,268.109L 211.764,261.464C 212.024,261.028 212.183,260.528 212.183,259.992C 212.183,258.639 211.276,257.504 210.036,257.153L 210.036,231.405C 209.529,232.036 209.043,232.672 208.555,233.308L 208.555,257.12C 207.253,257.432 206.277,258.599 206.277,259.992C 206.277,261.583 207.609,262.912 209.241,262.912 Z "/>
	<path fill="#A0DFDF" fill-opacity="1" stroke-linejoin="round" d="M 509.984,334.737L 497.735,334.737L 491.609,324.128L 497.735,313.519L 509.984,313.519L 516.111,324.128L 509.984,334.737 Z "/>
	<path fill="#94DBD9" fill-opacity="1" stroke-linejoin="round" d="M 509.984,310.312L 497.735,310.312L 491.609,299.704L 497.735,289.095L 509.984,289.095L 516.111,299.704L 509.984,310.312 Z "/>
	<path fill="#2F627E" fill-opacity="1" stroke-linejoin="round" d="M 174.44,307.811L 174.44,297.193C 175.12,297.037 175.749,296.779 176.319,296.417L 183.827,303.927C 184.223,304.321 184.167,304.972 183.721,305.309C 181.367,307.088 178.556,308.293 175.495,308.713C 174.94,308.789 174.44,308.371 174.44,307.811 Z M 162.183,303.927L 169.692,296.417C 170.261,296.779 170.899,297.047 171.571,297.193L 171.571,307.811C 171.571,308.371 171.071,308.789 170.516,308.713C 167.453,308.295 164.641,307.095 162.287,305.309C 161.841,304.972 161.787,304.323 162.183,303.927 Z M 171.571,274.332L 171.571,284.949C 170.899,285.096 170.261,285.363 169.692,285.724L 162.184,278.216C 161.788,277.82 161.843,277.169 162.289,276.833C 164.644,275.053 167.455,273.848 170.516,273.429C 171.071,273.353 171.571,273.772 171.571,274.332 Z M 183.827,278.216L 176.319,285.724C 175.749,285.363 175.12,285.104 174.44,284.949L 174.44,274.332C 174.44,273.772 174.94,273.353 175.495,273.429C 178.556,273.848 181.367,275.053 183.721,276.833C 184.167,277.169 184.223,277.82 183.827,278.216 Z M 179.127,289.637C 178.98,288.964 178.713,288.327 178.352,287.757L 185.861,280.248C 186.256,279.853 186.907,279.908 187.244,280.353C 189.028,282.708 190.229,285.52 190.647,288.583C 190.723,289.137 190.305,289.637 189.745,289.637M 160.151,280.249L 167.659,287.757C 167.297,288.327 167.029,288.964 166.884,289.637L 156.265,289.637C 155.705,289.637 155.288,289.137 155.363,288.581C 155.783,285.521 156.988,282.709 158.767,280.355C 159.104,279.909 159.755,279.853 160.151,280.249 Z M 158.767,301.787C 156.988,299.433 155.783,296.621 155.363,293.56C 155.288,293.005 155.705,292.505 156.265,292.505L 166.884,292.505C 167.039,293.187 167.297,293.815 167.659,294.384L 160.151,301.892C 159.755,302.288 159.104,302.233 158.767,301.787 Z M 185.86,301.892L 178.352,294.384C 178.713,293.815 178.972,293.187 179.127,292.505L 189.744,292.505C 190.305,292.505 190.723,293.005 190.647,293.56C 190.228,296.621 189.023,299.433 187.244,301.787C 186.907,302.233 186.256,302.288 185.86,301.892 Z M 209.095,295.108L 209.095,287.035L 201.624,285.776C 201.349,284.251 200.952,282.769 200.444,281.339L 206.277,276.523L 202.245,269.527L 195.144,272.18C 194.145,271.008 193.06,269.931 191.896,268.932L 194.551,261.832L 187.555,257.791L 182.737,263.632C 181.307,263.124 179.825,262.728 178.3,262.444L 177.041,254.981L 168.969,254.981L 167.711,262.444C 166.185,262.728 164.703,263.124 163.273,263.632L 158.456,257.791L 151.46,261.832L 154.113,268.932C 152.943,269.931 151.864,271.008 150.865,272.18L 143.765,269.527L 139.724,276.523L 145.567,281.339C 145.057,282.769 144.661,284.251 144.377,285.776L 136.907,287.035L 136.907,295.108L 144.377,296.365C 144.661,297.891 145.057,299.373 145.567,300.804L 139.724,305.62L 143.765,312.616L 150.865,309.963C 151.864,311.125 152.943,312.212 154.113,313.211L 151.46,320.311L 158.456,324.343L 163.273,318.509C 164.703,319.019 166.185,319.415 167.711,319.691L 168.969,327.161L 177.041,327.161L 178.3,319.691C 179.825,319.415 181.307,319.019 182.737,318.509L 187.555,324.343L 194.551,320.311L 191.896,313.211C 193.06,312.212 194.145,311.125 195.144,309.963L 202.245,312.616L 206.277,305.62L 200.444,300.804C 200.952,299.373 201.349,297.891 201.624,296.365L 209.095,295.108 Z "/>
	<path fill="#94DBD9" fill-opacity="1" stroke-linejoin="round" d="M 171.113,526.259L 152.297,526.259L 150.205,513.811C 149.271,513.591 148.343,513.344 147.427,513.071L 139.393,522.803L 123.099,513.395L 127.516,501.557C 126.822,500.903 126.145,500.225 125.489,499.531L 113.653,503.948L 104.245,487.652L 113.976,479.621C 113.703,478.704 113.455,477.776 113.236,476.841L 100.787,474.749L 100.787,455.933L 113.236,453.841C 113.455,452.907 113.703,451.977 113.976,451.061L 104.245,443.029L 113.653,426.735L 125.489,431.151C 126.145,430.457 126.822,429.78 127.516,429.125L 123.099,417.288L 139.393,407.88L 147.427,417.612C 148.343,417.339 149.271,417.091 150.205,416.871L 152.297,404.423L 171.113,404.423L 173.205,416.871C 174.141,417.091 175.069,417.339 175.985,417.612L 184.017,407.88L 200.312,417.288L 195.896,429.125C 196.589,429.78 197.267,430.457 197.921,431.151L 209.759,426.735L 219.167,443.029L 209.436,451.061C 209.708,451.977 209.956,452.907 210.176,453.841L 222.624,455.933L 222.624,474.749L 210.176,476.841C 209.956,477.776 209.708,478.704 209.436,479.621L 219.167,487.652L 209.759,503.948L 197.921,499.531C 197.267,500.225 196.589,500.903 195.896,501.557L 200.312,513.395L 184.017,522.803L 175.985,513.071C 175.069,513.344 174.141,513.591 173.205,513.811L 171.113,526.259 Z M 146.233,508.969C 148.508,509.776 150.867,510.405 153.289,510.852L 155.285,522.728L 168.127,522.728L 170.121,510.852C 172.545,510.405 174.903,509.776 177.179,508.969L 184.839,518.251L 195.96,511.829L 191.747,500.54C 193.599,498.959 195.323,497.233 196.904,495.381L 208.195,499.595L 214.615,488.473L 205.333,480.813C 206.14,478.539 206.771,476.18 207.216,473.756L 219.092,471.761L 219.092,458.92L 207.216,456.925C 206.771,454.503 206.14,452.143 205.333,449.868L 214.615,442.208L 208.195,431.087L 196.904,435.301C 195.323,433.449 193.599,431.724 191.747,430.143L 195.96,418.853L 184.839,412.432L 177.179,421.713C 174.903,420.907 172.545,420.277 170.121,419.831L 168.127,407.955L 155.285,407.955L 153.289,419.831C 150.867,420.277 148.508,420.907 146.233,421.713L 138.572,412.432L 127.452,418.853L 131.665,430.143C 129.813,431.724 128.089,433.449 126.507,435.301L 115.217,431.087L 108.797,442.208L 118.078,449.868C 117.271,452.143 116.641,454.503 116.196,456.925L 104.319,458.92L 104.319,471.761L 116.196,473.756C 116.641,476.18 117.271,478.539 118.078,480.813L 108.797,488.473L 115.217,499.595L 126.507,495.381C 128.089,497.233 129.813,498.959 131.665,500.54L 127.452,511.829L 138.572,518.251L 146.233,508.969 Z "/>
	<path fill="#94DBD9" fill-opacity="1" stroke-linejoin="round" d="M 161.705,493.68C 146.056,493.68 133.367,480.991 133.367,465.341C 133.367,449.692 146.056,437.003 161.705,437.003C 177.356,437.003 190.045,449.692 190.045,465.341C 190.045,480.991 177.356,493.68 161.705,493.68 Z M 161.705,440.533C 148.027,440.533 136.897,451.663 136.897,465.341C 136.897,479.02 148.027,490.148 161.705,490.148C 175.384,490.148 186.513,479.02 186.513,465.341C 186.513,451.663 175.384,440.533 161.705,440.533 Z "/>
	<path fill="#72CFCB" fill-opacity="1" stroke-linejoin="round" d="M 453.039,564.385L 445.103,564.385L 444.221,559.136C 443.827,559.043 443.435,558.939 443.049,558.823L 439.661,562.927L 432.789,558.96L 434.652,553.968C 434.359,553.692 434.075,553.407 433.799,553.113L 428.805,554.976L 424.837,548.104L 428.941,544.716C 428.827,544.329 428.723,543.939 428.629,543.544L 423.38,542.661L 423.38,534.727L 428.629,533.844C 428.723,533.449 428.827,533.059 428.941,532.672L 424.837,529.285L 428.805,522.413L 433.799,524.275C 434.075,523.981 434.359,523.696 434.652,523.42L 432.789,518.428L 439.661,514.461L 443.049,518.565C 443.435,518.449 443.827,518.345 444.221,518.252L 445.103,513.003L 453.039,513.003L 453.92,518.252C 454.315,518.345 454.707,518.449 455.093,518.565L 458.48,514.461L 465.353,518.428L 463.491,523.42C 463.783,523.696 464.069,523.981 464.345,524.275L 469.337,522.413L 473.304,529.285L 469.2,532.672C 469.316,533.059 469.42,533.449 469.513,533.844L 474.763,534.727L 474.763,542.661L 469.513,543.544C 469.42,543.939 469.316,544.329 469.2,544.716L 473.304,548.104L 469.337,554.976L 464.345,553.113C 464.069,553.407 463.783,553.692 463.491,553.968L 465.353,558.96L 458.48,562.927L 455.093,558.823C 454.707,558.939 454.315,559.043 453.92,559.136L 453.039,564.385 Z M 442.545,557.093C 443.505,557.433 444.5,557.699 445.523,557.888L 446.363,562.897L 451.779,562.897L 452.62,557.888C 453.641,557.699 454.637,557.433 455.596,557.093L 458.827,561.008L 463.517,558.3L 461.741,553.539C 462.523,552.871 463.248,552.144 463.916,551.363L 468.677,553.14L 471.385,548.451L 467.472,545.22C 467.811,544.26 468.077,543.265 468.264,542.244L 473.273,541.403L 473.273,535.987L 468.264,535.144C 468.077,534.123 467.811,533.129 467.472,532.169L 471.385,528.937L 468.677,524.249L 463.916,526.025C 463.248,525.244 462.521,524.517 461.741,523.851L 463.517,519.088L 458.827,516.38L 455.596,520.295C 454.637,519.955 453.641,519.689 452.62,519.501L 451.779,514.492L 446.363,514.492L 445.523,519.501C 444.5,519.689 443.505,519.955 442.545,520.295L 439.315,516.38L 434.625,519.088L 436.403,523.851C 435.621,524.517 434.893,525.244 434.227,526.025L 429.465,524.249L 426.757,528.937L 430.672,532.169C 430.331,533.129 430.067,534.123 429.877,535.144L 424.868,535.987L 424.868,541.403L 429.877,542.244C 430.067,543.265 430.331,544.26 430.672,545.22L 426.757,548.451L 429.465,553.14L 434.227,551.363C 434.893,552.144 435.621,552.871 436.403,553.539L 434.625,558.3L 439.315,561.008L 442.545,557.093 Z "/>
	<path fill="#94DBD9" fill-opacity="1" stroke-linejoin="round" d="M 449.072,550.645C 442.471,550.645 437.12,545.295 437.12,538.693C 437.12,532.093 442.471,526.743 449.072,526.743C 455.671,526.743 461.024,532.093 461.024,538.693C 461.024,545.295 455.671,550.645 449.072,550.645 Z M 449.072,528.232C 443.303,528.232 438.609,532.925 438.609,538.693C 438.609,544.464 443.303,549.156 449.072,549.156C 454.84,549.156 459.533,544.464 459.533,538.693C 459.533,532.925 454.84,528.232 449.072,528.232 Z "/>
	<path fill="#29436B" fill-opacity="1" stroke-linejoin="round" d="M 251.56,196.185C 251.56,205.264 244.197,212.625 235.119,212.625C 226.04,212.625 218.679,205.264 218.679,196.185C 218.679,187.105 226.04,179.744 235.119,179.744C 244.197,179.744 251.56,187.105 251.56,196.185 Z M 293.673,202.736L 293.673,189.633L 281.555,187.597C 281.1,185.125 280.459,182.719 279.635,180.397L 289.104,172.581L 282.553,161.235L 271.033,165.532C 269.42,163.644 267.66,161.884 265.771,160.271L 270.069,148.751L 258.723,142.2L 250.907,151.669C 248.584,150.845 246.179,150.204 243.705,149.749L 241.669,137.631L 228.568,137.631L 226.532,149.749C 224.059,150.204 221.653,150.845 219.332,151.669L 211.516,142.2L 200.168,148.751L 204.468,160.271C 202.579,161.884 200.819,163.644 199.204,165.532L 187.685,161.235L 181.135,172.581L 190.604,180.397C 189.78,182.719 189.139,185.125 188.684,187.597L 176.565,189.633L 176.565,202.736L 188.684,204.772C 189.139,207.244 189.78,209.651 190.604,211.972L 181.135,219.788L 187.685,231.136L 199.204,226.836C 200.819,228.725 202.579,230.485 204.468,232.099L 200.168,243.619L 211.516,250.169L 219.332,240.7C 221.653,241.524 224.059,242.165 226.532,242.62L 228.568,254.739L 241.669,254.739L 243.705,242.62C 246.179,242.165 248.584,241.524 250.907,240.7L 258.723,250.169L 270.069,243.619L 265.771,232.099C 267.66,230.485 269.42,228.725 271.033,226.836L 282.553,231.136L 289.104,219.788L 279.635,211.972C 280.459,209.651 281.1,207.244 281.555,204.772L 293.673,202.736 Z "/>
	<path fill="#29436B" fill-opacity="1" stroke-linejoin="round" d="M 213.059,542.232C 213.059,545.667 210.273,548.452 206.837,548.452C 203.403,548.452 200.617,545.667 200.617,542.232C 200.617,538.797 203.403,536.012 206.837,536.012C 210.273,536.012 213.059,538.797 213.059,542.232 Z M 228.992,544.709L 228.992,539.752L 224.407,538.983C 224.235,538.047 223.992,537.137 223.68,536.257L 227.263,533.301L 224.784,529.008L 220.427,530.635C 219.816,529.919 219.149,529.253 218.435,528.643L 220.061,524.285L 215.768,521.805L 212.811,525.389C 211.933,525.077 211.023,524.835 210.087,524.663L 209.316,520.077L 204.36,520.077L 203.589,524.663C 202.653,524.835 201.743,525.077 200.864,525.389L 197.907,521.805L 193.613,524.285L 195.24,528.643C 194.527,529.253 193.86,529.919 193.249,530.635L 188.891,529.008L 186.412,533.301L 189.996,536.257C 189.684,537.137 189.441,538.047 189.269,538.983L 184.684,539.752L 184.684,544.709L 189.269,545.48C 189.441,546.417 189.684,547.327 189.996,548.204L 186.412,551.163L 188.891,555.456L 193.249,553.829C 193.86,554.544 194.525,555.209 195.24,555.82L 193.613,560.179L 197.907,562.657L 200.864,559.075C 201.743,559.385 202.653,559.629 203.589,559.801L 204.36,564.385L 209.316,564.385L 210.087,559.801C 211.023,559.629 211.933,559.385 212.811,559.075L 215.768,562.657L 220.061,560.179L 218.435,555.82C 219.149,555.209 219.816,554.544 220.427,553.829L 224.784,555.456L 227.263,551.163L 223.68,548.204C 223.992,547.327 224.235,546.417 224.407,545.48L 228.992,544.709 Z "/>
	<path fill="#94DBD9" fill-opacity="1" stroke-linejoin="round" d="M 184.684,370.487L 173,362.609L 161.319,370.487L 161.319,362.225L 172.991,354.355L 172.991,354.34L 173,354.348L 173.012,354.34L 173.012,354.355L 184.684,362.225L 184.684,370.487 Z "/>
	<path fill="#94DBD9" fill-opacity="1" stroke-linejoin="round" d="M 184.684,383.471L 173,375.593L 161.319,383.471L 161.319,375.209L 172.991,367.339L 172.991,367.324L 173,367.332L 173.012,367.324L 173.012,367.339L 184.684,375.209L 184.684,383.471 Z "/>
	<path fill="#94DBD9" fill-opacity="1" stroke-linejoin="round" d="M 184.684,357.419L 173,349.541L 161.319,357.419L 161.319,349.157L 172.991,341.288L 172.991,341.272L 173,341.28L 173.012,341.272L 173.012,341.288L 184.684,349.157L 184.684,357.419 Z "/>
	<path fill="#2F627E" fill-opacity="1" stroke-linejoin="round" d="M 255.173,518.619C 248.176,518.619 242.504,512.947 242.504,505.949C 242.504,498.952 248.176,493.279 255.173,493.279C 262.171,493.279 267.844,498.952 267.844,505.949C 267.844,512.947 262.171,518.619 255.173,518.619 Z M 288.635,509.693L 288.635,502.205L 281.717,501.043C 281.456,499.629 281.085,498.252 280.615,496.924L 286.024,492.461L 282.28,485.976L 275.703,488.431C 274.779,487.351 273.773,486.344 272.692,485.42L 275.147,478.843L 268.663,475.099L 264.197,480.508C 262.869,480.036 261.495,479.665 260.08,479.407L 258.917,472.488L 251.431,472.488L 250.268,479.407C 248.853,479.665 247.479,480.036 246.151,480.508L 241.685,475.099L 235.201,478.843L 237.656,485.42C 236.576,486.344 235.568,487.351 234.645,488.431L 228.068,485.976L 224.325,492.461L 229.733,496.924C 229.261,498.252 228.891,499.629 228.632,501.043L 221.713,502.205L 221.713,509.693L 228.632,510.855C 228.891,512.269 229.261,513.644 229.733,514.972L 224.325,519.437L 228.068,525.92L 234.645,523.467C 235.568,524.547 236.576,525.555 237.656,526.477L 235.201,533.055L 241.685,536.799L 246.151,531.389C 247.479,531.861 248.853,532.232 250.268,532.491L 251.431,539.409L 258.917,539.409L 260.08,532.491C 261.495,532.232 262.869,531.861 264.197,531.389L 268.663,536.799L 275.147,533.055L 272.692,526.477C 273.773,525.555 274.779,524.547 275.703,523.467L 282.28,525.92L 286.024,519.437L 280.615,514.972C 281.085,513.644 281.456,512.269 281.717,510.855L 288.635,509.693 Z "/>
	<path fill="#2F627E" fill-opacity="1" stroke-linejoin="round" d="M 519.887,485.157C 512.889,485.157 507.216,479.485 507.216,472.488C 507.216,465.491 512.889,459.817 519.887,459.817C 526.884,459.817 532.556,465.491 532.556,472.488C 532.556,479.485 526.884,485.157 519.887,485.157 Z M 553.347,476.232L 553.347,468.745L 546.428,467.583C 546.169,466.168 545.799,464.792 545.327,463.464L 550.736,459L 546.992,452.516L 540.416,454.971C 539.492,453.889 538.484,452.883 537.404,451.96L 539.859,445.383L 533.375,441.639L 528.911,447.047C 527.583,446.576 526.205,446.205 524.792,445.945L 523.631,439.028L 516.141,439.028L 514.98,445.945C 513.567,446.205 512.191,446.576 510.861,447.047L 506.399,441.639L 499.915,445.383L 502.368,451.96C 501.288,452.883 500.281,453.889 499.357,454.971L 492.78,452.516L 489.036,459L 494.445,463.464C 493.973,464.792 493.603,466.168 493.344,467.583L 486.425,468.745L 486.425,476.232L 493.344,477.393C 493.603,478.808 493.973,480.184 494.445,481.512L 489.036,485.976L 492.78,492.461L 499.357,490.007C 500.281,491.087 501.288,492.093 502.368,493.017L 499.915,499.593L 506.399,503.337L 510.861,497.928C 512.191,498.4 513.567,498.771 514.98,499.031L 516.141,505.949L 523.631,505.949L 524.792,499.031C 526.205,498.771 527.583,498.4 528.911,497.928L 533.375,503.337L 539.859,499.593L 537.404,493.017C 538.484,492.093 539.492,491.087 540.416,490.007L 546.992,492.461L 550.736,485.976L 545.327,481.512C 545.799,480.184 546.169,478.808 546.428,477.393L 553.347,476.232 Z "/>
	<path fill="#B2E5EA" fill-opacity="1" stroke-linejoin="round" d="M 474.152,172.001L 456.228,172.001L 447.265,156.479L 456.228,140.955L 474.152,140.955L 483.116,156.479L 474.152,172.001 Z M 458.116,144.225L 451.041,156.479L 458.116,168.732L 472.264,168.732L 479.339,156.479L 472.264,144.225L 458.116,144.225 Z "/>
	<path fill="#A0DFDF" fill-opacity="1" stroke-linejoin="round" d="M 501.6,187.84L 485.575,187.84L 477.56,173.961L 485.575,160.081L 501.6,160.081L 509.613,173.961L 501.6,187.84 Z "/>
	<path fill="#94DBD9" fill-opacity="1" stroke-linejoin="round" d="M 474.144,196.785L 462.189,196.785L 456.211,186.432L 462.189,176.079L 474.144,176.079L 480.123,186.432L 474.144,196.785 Z "/>
	<path fill="#5DC6BE" fill-opacity="1" stroke-linejoin="round" d="M 314.964,244.455C 320.808,241.853 327.655,244.481 330.257,250.327C 332.86,256.171 330.231,263.017 324.387,265.62C 318.541,268.221 311.695,265.593 309.092,259.749C 306.491,253.904 309.119,247.056 314.964,244.455 Z M 295.923,269.319C 296.172,269.476 298.601,268.815 301.885,267.803C 303.632,270.243 305.833,272.237 308.312,273.739C 307.415,277.015 306.769,279.448 306.756,279.745C 306.713,280.704 310.851,282.616 312.984,282.136C 313.277,282.069 314.576,279.789 316.235,276.645C 319.024,277.092 321.917,277 324.765,276.316C 326.499,279.361 327.812,281.624 328.017,281.849C 328.664,282.556 332.943,280.984 334.111,279.136C 334.275,278.876 333.555,276.271 332.479,272.797C 334.952,271.019 336.961,268.769 338.467,266.24C 342.128,267.104 344.885,267.696 345.224,267.62C 346.291,267.38 347.615,261.392 347.615,261.392C 347.615,261.392 344.94,260.077 341.305,258.308C 341.727,255.54 341.62,252.675 340.928,249.852C 344.108,247.887 346.459,246.365 346.643,246.075C 347.227,245.149 343.929,239.98 343.929,239.98C 343.929,239.98 341.173,240.919 337.42,242.216C 335.692,239.819 333.525,237.851 331.085,236.363C 331.92,232.816 332.487,230.167 332.412,229.835C 332.171,228.769 326.184,227.444 326.184,227.444C 326.184,227.444 324.943,229.969 323.251,233.447C 320.372,232.967 317.38,233.069 314.439,233.799C 312.573,230.789 311.147,228.593 310.865,228.416C 309.943,227.832 304.772,231.129 304.772,231.129C 304.772,231.129 305.649,233.705 306.88,237.271C 304.524,238.964 302.575,241.077 301.093,243.459C 297.935,242.595 295.604,241.977 295.313,241.964C 294.356,241.921 292.443,246.059 292.923,248.192C 292.987,248.477 295.124,249.701 298.107,251.28C 297.6,254.179 297.688,257.197 298.407,260.165C 295.533,261.803 293.425,263.028 293.209,263.224C 292.501,263.872 294.075,268.149 295.923,269.319 Z "/>
	<path fill="#5DC6BE" fill-opacity="1" stroke-linejoin="round" d="M 328.993,324.6C 323.392,324.705 318.765,320.251 318.66,314.648C 318.555,309.047 323.009,304.42 328.611,304.315C 334.213,304.209 338.84,308.665 338.945,314.267C 339.051,319.868 334.595,324.495 328.993,324.6 Z M 328.805,301L 328.549,301.003C 321.131,301.143 315.208,307.292 315.348,314.711C 315.416,318.304 316.879,321.657 319.468,324.151C 322.056,326.643 325.427,327.959 329.056,327.912C 336.473,327.772 342.397,321.623 342.256,314.204C 342.119,306.871 336.109,301 328.805,301 Z "/>
	<path fill="#5DC6BE" fill-opacity="1" stroke-linejoin="round" d="M 339.721,324.972C 336.913,327.889 333.136,329.537 329.088,329.613L 328.795,329.616C 324.855,329.616 321.133,328.117 318.287,325.376C 315.371,322.567 313.723,318.791 313.645,314.743C 313.489,306.385 320.16,299.459 328.517,299.301C 332.539,299.197 336.401,300.729 339.317,303.539C 342.236,306.348 343.883,310.124 343.96,314.172C 344.035,318.221 342.529,322.056 339.721,324.972 Z M 352.377,316.328C 353.125,315.808 352.273,310.777 352.273,310.777C 352.273,310.777 349.857,310.604 346.56,310.381C 346.012,307.983 344.988,305.772 343.601,303.841C 345.391,301.393 346.684,299.547 346.733,299.268C 346.895,298.373 342.735,295.417 342.735,295.417C 342.735,295.417 340.965,296.949 338.54,299.067C 336.491,297.767 334.164,296.876 331.672,296.48C 331.219,293.569 330.836,291.424 330.679,291.197C 330.16,290.449 325.128,291.301 325.128,291.301C 325.128,291.301 324.967,293.561 324.753,296.692C 322.399,297.227 320.22,298.215 318.312,299.56C 316.172,297.873 314.584,296.645 314.367,296.541C 313.647,296.197 310.839,298.749 310.516,300.54C 310.472,300.779 311.715,302.411 313.488,304.588C 312.16,306.644 311.249,308.987 310.837,311.495C 308.107,311.819 306.093,312.075 305.864,312.156C 305.112,312.421 304.931,316.211 305.968,317.705C 306.109,317.908 308.184,318.188 311.029,318.476C 311.577,320.912 312.62,323.155 314.032,325.109C 312.283,327.329 310.999,328.985 310.892,329.209C 310.549,329.929 313.1,332.736 314.891,333.06C 315.139,333.104 316.872,331.777 319.163,329.905C 321.155,331.152 323.403,332.019 325.807,332.417C 326.149,335.312 326.423,337.473 326.507,337.712C 326.773,338.464 330.561,338.644 332.056,337.607C 332.267,337.461 332.559,335.231 332.86,332.22C 335.332,331.657 337.601,330.585 339.576,329.135C 342.101,330.983 344.024,332.331 344.307,332.383C 345.203,332.544 348.157,328.384 348.157,328.384C 348.157,328.384 346.535,326.509 344.321,323.975C 345.541,321.991 346.389,319.759 346.773,317.372C 349.848,316.895 352.141,316.492 352.377,316.328 Z "/>
	<path fill="#5DC6BE" fill-opacity="1" stroke-linejoin="round" d="M 371.22,346.5C 378.319,346.5 384.076,352.255 384.076,359.356C 384.076,366.456 378.319,372.211 371.22,372.211C 364.12,372.211 358.364,366.456 358.364,359.356C 358.364,352.255 364.12,346.5 371.22,346.5 Z M 339.273,362.179C 339.457,362.543 341.353,362.784 344.372,362.932C 344.525,364.092 344.755,365.228 345.051,366.337C 342.625,367.364 341.121,368.003 340.972,368.065C 340.032,368.457 341.683,373.285 342.832,374.277C 343.14,374.543 344.984,374.032 347.824,373.007C 348.383,373.963 348.999,374.876 349.665,375.751C 347.809,377.627 346.66,378.787 346.547,378.901C 345.827,379.621 349.187,383.461 350.627,383.94C 351.015,384.069 352.527,382.896 354.765,380.865C 355.684,381.571 356.644,382.217 357.651,382.801C 356.663,385.24 356.051,386.753 355.989,386.903C 355.603,387.844 360.184,390.092 361.697,389.979C 362.104,389.949 363.048,388.284 364.331,385.548C 365.388,385.827 366.469,386.043 367.572,386.193C 367.584,388.828 367.593,390.461 367.593,390.623C 367.593,391.64 372.685,391.98 374.043,391.301C 374.408,391.119 374.648,389.221 374.796,386.203C 376.2,386.019 377.573,385.737 378.9,385.345C 379.828,387.391 380.415,388.681 380.507,388.903C 381.161,390.469 386.928,388.427 386.587,386.731C 386.536,386.473 385.956,384.991 385.011,382.667C 386.123,382.007 387.192,381.285 388.193,380.477C 389.832,382.021 390.863,382.991 391.033,383.161C 392.233,384.361 396.793,380.281 395.833,378.841C 395.688,378.624 394.587,377.472 392.828,375.68C 393.639,374.608 394.393,373.493 395.04,372.307C 397.136,373.095 398.459,373.591 398.68,373.683C 400.251,374.327 402.884,368.804 401.443,367.845C 401.225,367.7 399.765,367.063 397.453,366.087C 397.769,364.851 398.025,363.588 398.165,362.289C 400.411,362.221 401.823,362.179 402.064,362.179C 403.76,362.179 404.1,356.069 402.403,355.729C 402.145,355.679 400.555,355.643 398.043,355.619C 397.857,354.271 397.585,352.952 397.209,351.676C 399.255,350.748 400.545,350.161 400.767,350.069C 402.333,349.415 400.291,343.645 398.593,343.987C 398.337,344.039 396.855,344.62 394.531,345.565C 393.871,344.453 393.148,343.384 392.343,342.383C 393.884,340.744 394.856,339.712 395.025,339.541C 396.225,338.343 392.145,333.781 390.705,334.743C 390.488,334.887 389.336,335.988 387.543,337.748C 386.472,336.937 385.359,336.181 384.171,335.535C 384.959,333.44 385.455,332.117 385.545,331.895C 386.191,330.325 380.668,327.692 379.709,329.132C 379.564,329.351 378.925,330.809 377.952,333.123C 376.713,332.805 375.452,332.551 374.153,332.411C 374.085,330.165 374.043,328.752 374.043,328.512C 374.043,326.815 367.933,326.475 367.593,328.172C 367.543,328.429 367.507,330.024 367.483,332.532C 366.377,332.685 365.296,332.904 364.239,333.187C 363.211,330.761 362.573,329.256 362.511,329.108C 362.119,328.168 357.289,329.819 356.299,330.968C 356.032,331.277 356.541,333.12 357.568,335.96C 356.613,336.519 355.699,337.135 354.823,337.801C 352.949,335.945 351.788,334.797 351.675,334.683C 350.955,333.963 347.115,337.323 346.635,338.763C 346.505,339.149 347.679,340.661 349.708,342.901C 349.005,343.819 348.359,344.781 347.775,345.787C 345.336,344.8 343.821,344.187 343.673,344.127C 342.731,343.739 340.483,348.319 340.596,349.833C 340.627,350.241 342.291,351.184 345.027,352.468C 344.749,353.525 344.531,354.604 344.383,355.708C 341.747,355.721 340.113,355.729 339.953,355.729C 338.935,355.729 338.595,360.82 339.273,362.179 Z "/>
	<path fill="#5DC6BE" fill-opacity="1" stroke-linejoin="round" d="M 394.653,232.553C 404.695,232.553 412.837,240.695 412.837,250.737C 412.837,260.779 404.695,268.92 394.653,268.92C 384.611,268.92 376.469,260.779 376.469,250.737C 376.469,240.695 384.611,232.553 394.653,232.553 Z M 349.467,254.729C 349.725,255.247 352.408,255.585 356.677,255.796C 356.895,257.437 357.219,259.043 357.637,260.612C 354.207,262.065 352.079,262.968 351.868,263.056C 350.539,263.611 352.872,270.441 354.499,271.843C 354.936,272.22 357.543,271.499 361.561,270.047C 362.351,271.397 363.221,272.691 364.165,273.929C 361.54,276.58 359.915,278.223 359.753,278.384C 358.736,279.401 363.488,284.833 365.525,285.512C 366.072,285.695 368.211,284.035 371.379,281.164C 372.677,282.159 374.036,283.075 375.46,283.9C 374.064,287.349 373.196,289.491 373.111,289.701C 372.564,291.033 379.043,294.213 381.184,294.055C 381.76,294.011 383.093,291.656 384.909,287.787C 386.405,288.18 387.932,288.487 389.493,288.696C 389.512,292.425 389.525,294.736 389.525,294.964C 389.525,296.404 396.725,296.884 398.645,295.923C 399.163,295.665 399.503,292.981 399.712,288.712C 401.697,288.449 403.639,288.053 405.517,287.499C 406.829,290.392 407.659,292.219 407.791,292.531C 408.715,294.747 416.873,291.857 416.391,289.457C 416.317,289.095 415.496,286.997 414.159,283.711C 415.732,282.777 417.245,281.755 418.661,280.615C 420.979,282.796 422.439,284.169 422.68,284.411C 424.376,286.108 430.827,280.336 429.469,278.3C 429.263,277.991 427.705,276.361 425.217,273.827C 426.363,272.312 427.432,270.735 428.348,269.056C 431.311,270.169 433.183,270.872 433.495,271.001C 435.716,271.913 439.443,264.101 437.404,262.745C 437.095,262.54 435.031,261.637 431.76,260.259C 432.208,258.508 432.569,256.724 432.767,254.887C 435.943,254.791 437.941,254.729 438.281,254.729C 440.683,254.729 441.161,246.088 438.761,245.608C 438.399,245.535 436.145,245.485 432.593,245.451C 432.331,243.545 431.948,241.679 431.416,239.873C 434.308,238.56 436.135,237.731 436.448,237.6C 438.663,236.675 435.773,228.516 433.373,228.999C 433.011,229.072 430.913,229.893 427.627,231.231C 426.695,229.657 425.672,228.145 424.531,226.728C 426.712,224.411 428.085,222.951 428.325,222.711C 430.024,221.013 424.252,214.563 422.216,215.92C 421.908,216.127 420.279,217.684 417.744,220.172C 416.228,219.027 414.651,217.957 412.972,217.043C 414.085,214.079 414.789,212.208 414.917,211.895C 415.829,209.673 408.019,205.948 406.661,207.985C 406.457,208.295 405.555,210.359 404.175,213.631C 402.424,213.181 400.64,212.82 398.803,212.623C 398.707,209.447 398.645,207.448 398.645,207.109C 398.645,204.708 390.004,204.228 389.525,206.628C 389.452,206.992 389.401,209.247 389.367,212.796C 387.805,213.012 386.275,213.323 384.777,213.721C 383.324,210.291 382.421,208.161 382.335,207.952C 381.779,206.623 374.949,208.956 373.548,210.583C 373.171,211.02 373.892,213.627 375.344,217.644C 373.993,218.435 372.699,219.305 371.461,220.249C 368.809,217.624 367.168,215.999 367.007,215.837C 365.988,214.819 360.557,219.572 359.877,221.608C 359.695,222.156 361.356,224.295 364.227,227.463C 363.232,228.761 362.315,230.12 361.489,231.543C 358.04,230.147 355.9,229.28 355.689,229.195C 354.357,228.647 351.177,235.127 351.336,237.268C 351.379,237.843 353.735,239.177 357.603,240.993C 357.211,242.489 356.904,244.016 356.693,245.579C 352.964,245.596 350.653,245.608 350.427,245.608C 348.985,245.608 348.507,252.809 349.467,254.729 Z "/>
	<path fill="#5DC6BE" fill-opacity="1" stroke-linejoin="round" d="M 257.616,279.596L 257.616,296.308L 246.031,284.723C 249.193,281.929 253.192,280.068 257.616,279.596 Z M 273.692,284.723L 262.105,296.308L 262.105,279.596C 266.529,280.068 270.529,281.929 273.692,284.723 Z M 262.105,321.203L 262.105,307.145L 272.221,317.26C 269.323,319.389 265.869,320.801 262.105,321.203 Z M 247.501,317.26L 257.616,307.145L 257.616,321.203C 253.852,320.801 250.399,319.389 247.501,317.26 Z M 254.443,303.972L 244.184,314.231C 241.675,311.389 239.932,307.868 239.26,303.972M 265.279,303.972L 280.463,303.972C 279.791,307.868 278.047,311.389 275.539,314.231M 276.723,288.04C 279.097,291.273 280.556,295.208 280.743,299.483L 265.279,299.483M 254.443,299.483L 238.98,299.483C 239.165,295.208 240.625,291.275 243,288.04M 218.896,291.977C 219.305,292.055 221.113,292.544 223.903,293.327C 223.663,294.556 223.488,295.808 223.375,297.079C 220.441,297.119 218.644,297.18 218.473,297.264C 217.287,297.859 216.196,303.991 218.177,303.793C 218.592,303.751 220.468,303.716 223.372,303.684C 223.443,304.465 223.56,305.231 223.679,305.997C 220.824,306.752 219.088,307.247 218.944,307.371C 217.936,308.233 218.361,314.448 220.235,313.777C 220.629,313.636 222.441,313.148 225.261,312.412C 225.569,313.297 225.889,314.175 226.261,315.028C 223.711,316.473 222.169,317.388 222.061,317.543C 221.307,318.635 223.299,324.536 224.94,323.411C 225.283,323.175 226.905,322.245 229.427,320.828C 230.133,321.879 230.897,322.888 231.707,323.859C 229.665,325.957 228.44,327.268 228.38,327.448C 227.96,328.707 231.525,333.815 232.785,332.273C 233.049,331.952 234.359,330.593 236.376,328.531C 236.973,329.028 237.604,329.484 238.232,329.945C 236.749,332.493 235.871,334.072 235.856,334.261C 235.753,335.584 240.448,339.679 241.299,337.877C 241.477,337.5 242.416,335.871 243.891,333.353C 244.729,333.76 245.579,334.144 246.451,334.488C 245.667,337.321 245.223,339.063 245.256,339.251C 245.493,340.556 251.075,343.32 251.44,341.364C 251.516,340.955 252.005,339.147 252.788,336.357C 254.017,336.597 255.269,336.772 256.54,336.887C 256.581,339.819 256.641,341.616 256.727,341.787C 257.32,342.972 263.452,344.064 263.255,342.084C 263.213,341.667 263.177,339.799 263.145,336.888C 264.068,336.805 264.973,336.668 265.875,336.519C 266.491,338.864 266.896,340.356 267.015,340.675C 267.948,343.195 273.347,341.543 272.916,339.815C 272.856,339.575 272.435,337.836 271.757,335.041C 272.817,334.677 273.857,334.272 274.871,333.816C 276.059,335.921 276.825,337.252 277.021,337.531C 278.564,339.731 283.365,336.76 282.511,335.199C 282.391,334.98 281.547,333.416 280.187,330.896C 281.391,330.092 282.533,329.208 283.632,328.271C 285.36,329.957 286.472,331.024 286.737,331.236C 288.835,332.915 292.612,328.719 291.353,327.459C 291.177,327.283 289.927,326.015 287.911,323.973C 288.528,323.24 289.1,322.472 289.66,321.691C 291.749,322.912 293.088,323.679 293.396,323.82C 295.839,324.941 298.488,319.956 296.963,319.039C 296.749,318.911 295.22,317.977 292.761,316.48C 293.251,315.48 293.696,314.46 294.095,313.412C 296.428,314.063 297.916,314.463 298.251,314.521C 300.897,314.985 302.192,309.489 300.483,308.991C 300.245,308.921 298.541,308.412 295.801,307.593C 296.08,306.191 296.255,304.753 296.369,303.299C 298.788,303.269 300.332,303.236 300.669,303.199C 303.34,302.903 303.044,297.264 301.263,297.264C 301.015,297.264 299.232,297.252 296.356,297.235C 296.273,296.271 296.136,295.325 295.98,294.385C 298.324,293.769 299.813,293.364 300.133,293.247C 302.653,292.312 301.001,286.913 299.275,287.344C 299.032,287.404 297.296,287.825 294.503,288.503C 294.139,287.443 293.733,286.403 293.277,285.389C 295.383,284.201 296.715,283.435 296.993,283.24C 299.192,281.696 296.221,276.895 294.66,277.751C 294.443,277.869 292.877,278.715 290.359,280.075C 289.555,278.869 288.669,277.727 287.732,276.629C 289.419,274.901 290.485,273.788 290.697,273.524C 292.376,271.424 288.18,267.648 286.92,268.907C 286.745,269.083 285.477,270.333 283.436,272.349C 282.701,271.732 281.932,271.159 281.149,270.6C 282.371,268.511 283.137,267.172 283.279,266.863C 284.4,264.421 279.415,261.772 278.497,263.299C 278.369,263.512 277.437,265.04 275.939,267.497C 274.941,267.008 273.92,266.564 272.875,266.167C 273.525,263.833 273.924,262.345 273.983,262.009C 274.447,259.363 268.951,258.068 268.452,259.777C 268.383,260.016 267.873,261.719 267.055,264.46C 265.652,264.18 264.216,264.005 262.761,263.891C 262.732,261.472 262.699,259.928 262.661,259.591C 262.364,256.92 256.727,257.217 256.727,258.997C 256.727,259.247 256.715,261.032 256.696,263.904C 255.875,263.975 255.068,264.092 254.261,264.217C 253.508,261.364 253.013,259.631 252.889,259.485C 252.027,258.476 245.812,258.903 246.483,260.776C 246.624,261.169 247.112,262.981 247.848,265.8C 246.963,266.108 246.084,266.428 245.232,266.8C 243.787,264.248 242.873,262.708 242.717,262.6C 241.627,261.844 235.724,263.836 236.849,265.477C 237.084,265.821 238.015,267.444 239.433,269.965C 238.381,270.672 237.373,271.436 236.403,272.245C 234.304,270.204 232.993,268.977 232.812,268.917C 231.555,268.499 226.445,272.064 227.987,273.324C 228.308,273.587 229.667,274.896 231.729,276.915C 231.231,277.512 230.775,278.144 230.313,278.772C 227.765,277.289 226.189,276.412 225.999,276.397C 224.676,276.295 220.583,280.991 222.383,281.84C 222.76,282.019 224.389,282.956 226.905,284.432C 226.5,285.269 226.116,286.117 225.773,286.989C 222.939,286.205 221.197,285.76 221.011,285.795C 219.705,286.031 216.94,291.612 218.896,291.977 Z "/>
	<path fill="#2F627E" fill-opacity="1" stroke-linejoin="round" d="M 327.064,630.769L 327.067,630.769C 327.025,630.571 326.992,630.372 326.968,630.179C 326.992,630.373 327.025,630.572 327.064,630.769 Z "/>
	<path fill="#2F627E" fill-opacity="1" stroke-linejoin="round" d="M 327.268,631.551C 327.375,631.889 327.504,632.215 327.653,632.528C 327.5,632.209 327.375,631.88 327.272,631.551L 327.268,631.551 Z "/>
</svg>
