<svg xmlns="http://www.w3.org/2000/svg" xmlns:xlink="http://www.w3.org/1999/xlink" viewBox="0 0 220.33 260.46"><defs><style>.cls-1{isolation:isolate;}.cls-2{opacity:0.1;}.cls-3,.cls-4,.cls-5,.cls-7{fill:#9ffff8;}.cls-3,.cls-8{opacity:0.1;}.cls-16,.cls-5{opacity:0.46;}.cls-20,.cls-21,.cls-27,.cls-6{fill:#42e8e0;}.cls-7,.cls-9{opacity:0.37;}.cls-10,.cls-11,.cls-12,.cls-13,.cls-14,.cls-15,.cls-16,.cls-8,.cls-9{fill:#f12a5d;}.cls-11{opacity:0.56;}.cls-12{opacity:0.91;}.cls-13{opacity:0.73;}.cls-14{opacity:0.55;}.cls-15{opacity:0.19;}.cls-17{opacity:0.2;}.cls-18{fill:url(#Áåçûìÿííûé_ãðàäèåíò_16);}.cls-19,.cls-26,.cls-32,.cls-36,.cls-39,.cls-46{opacity:0.5;}.cls-19,.cls-23,.cls-26,.cls-32,.cls-36,.cls-39,.cls-43,.cls-46{mix-blend-mode:lighten;}.cls-19{fill:url(#Áåçûìÿííûé_ãðàäèåíò_23);}.cls-20{opacity:0.4;}.cls-21,.cls-40{opacity:0.8;}.cls-22{fill:url(#Áåçûìÿííûé_ãðàäèåíò_16-2);}.cls-24{fill:url(#Áåçûìÿííûé_ãðàäèåíò_89);}.cls-25{fill:#251c72;}.cls-26{fill:url(#Áåçûìÿííûé_ãðàäèåíò_23-2);}.cls-27{opacity:0.6;}.cls-28{fill:url(#Áåçûìÿííûé_ãðàäèåíò_16-3);}.cls-29{fill:url(#Áåçûìÿííûé_ãðàäèåíò_85);}.cls-30{fill:url(#Áåçûìÿííûé_ãðàäèåíò_16-4);}.cls-31{fill:url(#Áåçûìÿííûé_ãðàäèåíò_89-2);}.cls-32{fill:url(#Áåçûìÿííûé_ãðàäèåíò_23-3);}.cls-33{fill:#bcbeff;}.cls-34{fill:url(#Áåçûìÿííûé_ãðàäèåíò_16-5);}.cls-35{fill:url(#Áåçûìÿííûé_ãðàäèåíò_89-3);}.cls-36{fill:url(#Áåçûìÿííûé_ãðàäèåíò_8);}.cls-37{fill:url(#Áåçûìÿííûé_ãðàäèåíò_16-6);}.cls-38{fill:url(#Áåçûìÿííûé_ãðàäèåíò_89-4);}.cls-39{fill:url(#Áåçûìÿííûé_ãðàäèåíò_23-4);}.cls-40{fill:url(#Áåçûìÿííûé_ãðàäèåíò_160);}.cls-41{fill:url(#Áåçûìÿííûé_ãðàäèåíò_41);}.cls-42{fill:url(#Áåçûìÿííûé_ãðàäèåíò_41-2);}.cls-43{fill:url(#Áåçûìÿííûé_ãðàäèåíò_116);}.cls-44{fill:url(#Áåçûìÿííûé_ãðàäèåíò_16-7);}.cls-45{fill:url(#Áåçûìÿííûé_ãðàäèåíò_89-5);}.cls-46{fill:url(#Áåçûìÿííûé_ãðàäèåíò_23-5);}</style><radialGradient id="Áåçûìÿííûé_ãðàäèåíò_16" cx="731.38" cy="876.08" r="72.23" gradientTransform="matrix(0.78, 0, 0, -1.06, -441.54, 1151.82)" gradientUnits="userSpaceOnUse"><stop offset="0" stop-color="#c0bff6"/><stop offset="1" stop-color="#393091"/></radialGradient><radialGradient id="Áåçûìÿííûé_ãðàäèåíò_23" cx="-14" cy="582.67" r="51.89" gradientTransform="matrix(0.87, 0.5, -0.87, 0.5, 624.97, -111.65)" gradientUnits="userSpaceOnUse"><stop offset="0" stop-color="#42e8e0"/><stop offset="0.11" stop-color="#37b6bf"/><stop offset="0.22" stop-color="#2c87a1"/><stop offset="0.34" stop-color="#235f87"/><stop offset="0.46" stop-color="#1c3f72"/><stop offset="0.58" stop-color="#162561"/><stop offset="0.71" stop-color="#121355"/><stop offset="0.85" stop-color="#10084e"/><stop offset="1" stop-color="#0f054c"/></radialGradient><radialGradient id="Áåçûìÿííûé_ãðàäèåíò_16-2" cx="-622.6" cy="-187.92" r="23.89" gradientTransform="translate(605.04 485.92) rotate(16.76)" xlink:href="#Áåçûìÿííûé_ãðàäèåíò_16"/><linearGradient id="Áåçûìÿííûé_ãðàäèåíò_89" x1="-633.86" y1="-172.39" x2="-619.73" y2="-187.65" gradientTransform="translate(605.04 485.92) rotate(16.76)" gradientUnits="userSpaceOnUse"><stop offset="0" stop-color="#2fd3c7"/><stop offset="0.09" stop-color="#31b6bd"/><stop offset="0.23" stop-color="#338db0"/><stop offset="0.37" stop-color="#356ba5"/><stop offset="0.52" stop-color="#37519c"/><stop offset="0.67" stop-color="#383f96"/><stop offset="0.83" stop-color="#393492"/><stop offset="1" stop-color="#393091"/></linearGradient><radialGradient id="Áåçûìÿííûé_ãðàäèåíò_23-2" cx="2267.75" cy="3603.81" r="15.5" gradientTransform="matrix(-0.09, -1, 1, -0.09, -3328.97, 2707.26)" xlink:href="#Áåçûìÿííûé_ãðàäèåíò_23"/><radialGradient id="Áåçûìÿííûé_ãðàäèåíò_16-3" cx="-289.55" cy="-281.78" r="73.11" gradientTransform="translate(367.7 397.32) rotate(11.2)" xlink:href="#Áåçûìÿííûé_ãðàäèåíò_16"/><linearGradient id="Áåçûìÿííûé_ãðàäèåíò_85" x1="-620.89" y1="416.57" x2="-595.56" y2="416.57" gradientTransform="matrix(0.63, -0.77, 0.77, 0.63, 140.72, -629.34)" gradientUnits="userSpaceOnUse"><stop offset="0" stop-color="#706ec4"/><stop offset="0.02" stop-color="#6d6bc2"/><stop offset="0.25" stop-color="#5651ac"/><stop offset="0.49" stop-color="#463f9d"/><stop offset="0.73" stop-color="#3c3494"/><stop offset="1" stop-color="#393091"/></linearGradient><radialGradient id="Áåçûìÿííûé_ãðàäèåíò_16-4" cx="731.38" cy="225.59" r="72.23" gradientTransform="translate(-441.54 -117.48) scale(0.78 1.06)" xlink:href="#Áåçûìÿííûé_ãðàäèåíò_16"/><linearGradient id="Áåçûìÿííûé_ãðàäèåíò_89-2" x1="706.58" y1="273.92" x2="706.58" y2="201.72" gradientTransform="translate(-441.54 -117.48) scale(0.78 1.06)" xlink:href="#Áåçûìÿííûé_ãðàäèåíò_89"/><radialGradient id="Áåçûìÿííûé_ãðàäèåíò_23-3" cx="107.38" cy="121.78" r="43.5" gradientTransform="matrix(1, 0, 0, 1, 0, 0)" xlink:href="#Áåçûìÿííûé_ãðàäèåíò_23"/><radialGradient id="Áåçûìÿííûé_ãðàäèåíò_16-5" cx="130.36" cy="73.7" r="56.37" gradientTransform="matrix(1, 0, 0, 1, 0, 0)" xlink:href="#Áåçûìÿííûé_ãðàäèåíò_16"/><linearGradient id="Áåçûìÿííûé_ãðàäèåíò_89-3" x1="104.9" y1="111.68" x2="114.19" y2="45.61" gradientTransform="matrix(1, 0, 0, 1, 0, 0)" xlink:href="#Áåçûìÿííûé_ãðàäèåíò_89"/><radialGradient id="Áåçûìÿííûé_ãðàäèåíò_8" cx="99.16" cy="81.72" r="27.69" gradientTransform="translate(40.38 -27.75) rotate(22.6)" gradientUnits="userSpaceOnUse"><stop offset="0" stop-color="#42e8e0"/><stop offset="0.06" stop-color="#3ccbcd"/><stop offset="0.18" stop-color="#3098ac"/><stop offset="0.3" stop-color="#266b8f"/><stop offset="0.42" stop-color="#1e4777"/><stop offset="0.54" stop-color="#172a65"/><stop offset="0.66" stop-color="#131657"/><stop offset="0.78" stop-color="#100a50"/><stop offset="0.9" stop-color="#0f064d"/><stop offset="1" stop-color="#0f054c"/></radialGradient><radialGradient id="Áåçûìÿííûé_ãðàäèåíò_16-6" cx="-264.12" cy="-221.92" r="26.42" gradientTransform="translate(367.7 397.32) rotate(11.2)" xlink:href="#Áåçûìÿííûé_ãðàäèåíò_16"/><linearGradient id="Áåçûìÿííûé_ãðàäèåíò_89-4" x1="-278.48" y1="-203.06" x2="-261.27" y2="-221.65" gradientTransform="translate(367.7 397.32) rotate(11.2)" xlink:href="#Áåçûìÿííûé_ãðàäèåíò_89"/><radialGradient id="Áåçûìÿííûé_ãðàäèåíò_23-4" cx="148.4" cy="138.08" r="23.6" gradientTransform="matrix(1, 0, 0, 1, 0, 0)" xlink:href="#Áåçûìÿííûé_ãðàäèåíò_23"/><radialGradient id="Áåçûìÿííûé_ãðàäèåíò_160" cx="129.4" cy="-1737.1" r="22.24" gradientTransform="translate(0 2295.16) scale(1 1.28)" gradientUnits="userSpaceOnUse"><stop offset="0" stop-color="#2b237c"/><stop offset="0.31" stop-color="#251c72"/><stop offset="1" stop-color="#0f054c"/></radialGradient><linearGradient id="Áåçûìÿííûé_ãðàäèåíò_41" x1="146.9" y1="93.48" x2="115.27" y2="103.1" gradientUnits="userSpaceOnUse"><stop offset="0" stop-color="#bcbeff"/><stop offset="0.15" stop-color="#a3a7f5"/><stop offset="0.39" stop-color="#8289e8"/><stop offset="0.61" stop-color="#6a73df"/><stop offset="0.82" stop-color="#5c66d9"/><stop offset="1" stop-color="#5761d7"/></linearGradient><linearGradient id="Áåçûìÿííûé_ãðàäèåíò_41-2" x1="141.42" y1="95.49" x2="98.08" y2="100.65" xlink:href="#Áåçûìÿííûé_ãðàäèåíò_41"/><linearGradient id="Áåçûìÿííûé_ãðàäèåíò_116" x1="134.92" y1="108.23" x2="157.5" y2="70.88" gradientUnits="userSpaceOnUse"><stop offset="0" stop-color="#42e8e0"/><stop offset="0.12" stop-color="#42e2de"/><stop offset="0.27" stop-color="#41d3d7"/><stop offset="0.44" stop-color="#40b9cc"/><stop offset="0.62" stop-color="#3e94bc"/><stop offset="0.81" stop-color="#3c66a8"/><stop offset="1" stop-color="#393091"/></linearGradient><radialGradient id="Áåçûìÿííûé_ãðàäèåíò_16-7" cx="-528.02" cy="-175.63" r="23.89" gradientTransform="translate(605.04 485.92) rotate(16.76)" xlink:href="#Áåçûìÿííûé_ãðàäèåíò_16"/><linearGradient id="Áåçûìÿííûé_ãðàäèåíò_89-5" x1="-539.28" y1="-160.1" x2="-525.15" y2="-175.35" xlink:href="#Áåçûìÿííûé_ãðàäèåíò_89"/><radialGradient id="Áåçûìÿííûé_ãðàäèåíò_23-5" cx="2221.12" cy="3687.01" r="15.5" gradientTransform="matrix(-0.09, -1, 1, -0.09, -3328.97, 2707.26)" xlink:href="#Áåçûìÿííûé_ãðàäèåíò_23"/></defs><title>RPA</title><g class="cls-1"><g id="Ñëîé_1" data-name="Ñëîé 1"><g class="cls-2"><path class="cls-3" d="M219.6,185.67v-1c-.14-.73-.32-1.46-.51-2.18v1c.19.72.37,1.45.51,2.18Zm-1.15-4.36v-1c-.24-.72-.49-1.43-.77-2.14v1c.28.7.53,1.42.77,2.13Zm-1.66-4.24v-1c-.32-.7-.66-1.39-1-2.08v1c.36.69.7,1.39,1,2.09Zm-2.16-4.15v-1c-.4-.68-.81-1.35-1.25-2v1c.44.67.85,1.34,1.25,2Zm-2.62-4v-1c-.48-.66-1-1.32-1.49-2v1c.52.65,1,1.3,1.49,2ZM208.93,165v-1c-.55-.63-1.12-1.26-1.7-1.89v1c.58.62,1.15,1.25,1.7,1.89Zm-3.52-3.75v-1c-.62-.61-1.26-1.21-1.91-1.81v1c.65.6,1.29,1.2,1.91,1.81Zm-3.92-3.58v-1c-.69-.59-1.4-1.16-2.12-1.73v1c.72.57,1.43,1.15,2.12,1.73Zm-4.34-3.42v-1c-.75-.55-1.52-1.1-2.31-1.64v1c.79.54,1.56,1.08,2.31,1.64Zm-4.7-3.24v-1c-.82-.52-1.66-1-2.51-1.55v1c.85.51,1.69,1,2.51,1.56ZM187.37,148v-1c-.88-.5-1.76-1-2.66-1.46v1c.9.48,1.78,1,2.66,1.45Zm-5.43-2.86v-1q-1.4-.69-2.82-1.35v1q1.42.66,2.82,1.35Zm37.66,38.38v-1c-.14-.73-.32-1.46-.51-2.19v1.05c.19.72.37,1.45.51,2.18Zm-1.15-4.36v-1c-.24-.72-.49-1.43-.77-2.14V177c.28.7.53,1.42.77,2.13Zm-3.82-8.39v-1c-.4-.68-.81-1.36-1.25-2v1.05c.44.67.85,1.34,1.25,2Zm-2.62-4v-1c-.48-.66-1-1.31-1.49-2v1c.52.65,1,1.31,1.49,2Zm-3.08-3.89v-1.05c-.55-.63-1.12-1.26-1.7-1.88v1c.58.62,1.15,1.25,1.7,1.89Zm-3.52-3.75v-1c-.62-.61-1.26-1.21-1.91-1.81v1c.65.6,1.29,1.2,1.91,1.81Zm-3.92-3.58v-1c-.69-.58-1.4-1.16-2.12-1.73v1c.72.57,1.43,1.15,2.12,1.73Zm-14.12-9.72v-1c-.88-.49-1.76-1-2.66-1.45v1c.9.48,1.78,1,2.66,1.45Zm-5.43-2.86v-1q-1.4-.69-2.82-1.35v1.05c.95.44,1.89.89,2.82,1.34ZM219.6,181.3v-1c-.14-.73-.32-1.46-.51-2.18v1c.19.73.37,1.46.51,2.19Zm-1.15-4.36v-1c-.24-.71-.49-1.43-.77-2.13v1c.28.71.53,1.42.77,2.14ZM212,164.53v-1c-.48-.66-1-1.32-1.49-2v1c.52.65,1,1.3,1.49,2Zm-3.08-3.89v-1c-.55-.64-1.12-1.27-1.7-1.89v1c.58.62,1.15,1.25,1.7,1.88Zm-3.52-3.74v-1c-.62-.61-1.26-1.21-1.91-1.81v1c.65.59,1.29,1.2,1.91,1.81Zm-3.92-3.58v-1c-.69-.58-1.4-1.16-2.12-1.73v1c.72.57,1.43,1.15,2.12,1.73Zm-14.12-9.72v-1c-.88-.49-1.76-1-2.66-1.45v1c.9.47,1.78,1,2.66,1.45Zm-5.43-2.86v-1c-.93-.45-1.87-.9-2.82-1.34v1q1.42.66,2.82,1.35Zm37.66,38.38v-1c-.14-.74-.32-1.46-.51-2.19v1c.19.73.37,1.46.51,2.19Zm-1.15-4.36v-1c-.24-.72-.49-1.43-.77-2.14v1c.28.71.53,1.42.77,2.14Zm-9.52-16.3v-1c-.55-.63-1.12-1.26-1.7-1.88v1c.58.62,1.15,1.25,1.7,1.88Zm-3.52-3.74v-1c-.62-.61-1.26-1.22-1.91-1.81v1c.65.6,1.29,1.2,1.91,1.81Zm-3.92-3.58v-1c-.69-.59-1.4-1.16-2.12-1.73v1c.72.57,1.43,1.15,2.12,1.73Zm-43.81-18v-6.1a173.39,173.39,0,0,0-29.88-5.35v6.1a173.39,173.39,0,0,1,29.88,5.35Zm-33.8-5.67v-6.1q-5.8-.42-11.78-.48-4.41,0-8.73.11v6.1c2.88-.1,5.79-.13,8.73-.11,4,0,7.91.21,11.78.48Zm95.72,49.43v-1c-.14-.73-.32-1.46-.51-2.19v1c.19.72.37,1.45.51,2.18Zm-1.15-4.35v-1c-.24-.72-.49-1.43-.77-2.14v1c.28.71.53,1.42.77,2.14Zm-9.52-16.3v-1c-.55-.63-1.12-1.26-1.7-1.88v1c.58.63,1.15,1.26,1.7,1.89Zm-3.52-3.75v-1c-.62-.61-1.26-1.22-1.91-1.81v1c.65.6,1.29,1.2,1.91,1.81Zm14.19,22.23v-1c-.14-.73-.32-1.46-.51-2.18v1c.19.73.37,1.46.51,2.19Zm-10.67-20.66v-1c-.55-.64-1.12-1.27-1.7-1.89v1c.58.62,1.15,1.25,1.7,1.88Zm-3.52-3.74v-1c-.62-.61-1.26-1.21-1.91-1.81v1c.65.59,1.29,1.2,1.91,1.81Zm9.22,18.2V157.24c-.4-.68-.81-1.35-1.25-2v11.3c.44.67.85,1.35,1.25,2Zm-47.16-41.73v-6.09a167.83,167.83,0,0,0-39.67-8.4v6.09a166.84,166.84,0,0,1,39.67,8.4Zm-43.59-8.72V112q-5.8-.41-11.78-.47a187.46,187.46,0,0,0-31.65,2.32v6.08a188.51,188.51,0,0,1,31.65-2.32q6,.06,11.78.48Zm68.57,21v-8c-.82-.53-1.66-1.05-2.51-1.56v17.74c.85.52,1.69,1,2.51,1.56v-9.77ZM212,162.36v-14c-.48-.66-1-1.31-1.49-2v14c.52.65,1,1.3,1.49,2Zm4.78,12.53V156.26c-.32-.7-.66-1.39-1-2.08v18.63c.36.68.7,1.38,1,2.08Zm-29.42-33.7V124.9c-.88-.49-1.76-1-2.66-1.45v16.29c.9.47,1.78.95,2.66,1.45Zm21.56,10.62V140c-.55-.64-1.12-1.27-1.7-1.89v11.77c.58.62,1.15,1.25,1.7,1.89Zm-11.78.28v-22.8c-.75-.56-1.52-1.1-2.31-1.64v22.8c.79.54,1.56,1.08,2.31,1.64Zm21.3,17.27v-13.6c-.24-.72-.49-1.43-.77-2.14v14.63c.28.71.53,1.42.77,2.14v-1Zm-17-20.42V131.13c-.69-.58-1.4-1.16-2.12-1.73v17.82c.72.57,1.43,1.14,2.12,1.72Zm-30.33-30.17v-6.08c-.95-.36-1.91-.72-2.88-1.06v6.08c1,.35,1.93.7,2.88,1.06Zm-5.55-2V110.7q-1.49-.49-3-1v6.08c1,.31,2,.64,3,1ZM159.82,115V108.9c-1-.3-2-.58-3.08-.86v6.08l3.08.86Zm-6-1.6v-6.09c-1-.26-2.11-.51-3.19-.75v6.08c1.08.24,2.14.5,3.19.76Zm-6.8-1.54v-6.08a177.85,177.85,0,0,0-19.25-2.82V109a180.36,180.36,0,0,1,19.25,2.82Zm-23.17-3.14v-6.08q-5.8-.42-11.78-.48a192.24,192.24,0,0,0-20.55.89v6.08a192.28,192.28,0,0,1,20.55-.88q6,.06,11.78.47Zm95.72,63.6V156.12c-.14-.73-.32-1.46-.51-2.18v16.17c.19.73.37,1.46.51,2.19Zm-37.66-34V115.56q-1.4-.69-2.82-1.35V137q1.42.66,2.82,1.35Zm23.47,9.73V131.22c-.62-.61-1.26-1.22-1.91-1.81v16.84c.65.6,1.29,1.2,1.91,1.81Zm-132-49.4a186.34,186.34,0,0,1,38.69-3.59c59.54.6,107.23,28.18,108.23,62.07v39c-1-33.89-48.69-61.48-108.23-62.07a185.66,185.66,0,0,0-38.69,3.59v-39Z"/><path class="cls-4" d="M219.09,153.94c.19.72.37,1.45.51,2.18V172.3c-.14-.73-.32-1.46-.51-2.19V153.94Z"/><path class="cls-4" d="M219.09,171.54c.19.72.37,1.45.51,2.18v1c-.14-.73-.32-1.46-.51-2.19v-1Z"/><path class="cls-4" d="M219.09,173.71c.19.73.37,1.46.51,2.19v1c-.14-.73-.32-1.46-.51-2.18v-1Z"/><path class="cls-4" d="M219.09,175.89c.19.73.37,1.45.51,2.19v1c-.14-.73-.32-1.46-.51-2.19v-1Z"/><path class="cls-4" d="M219.09,178.09c.19.72.37,1.45.51,2.18v1c-.14-.73-.32-1.46-.51-2.19v-1Z"/><path class="cls-4" d="M219.09,180.26c.19.73.37,1.46.51,2.19v1c-.14-.73-.32-1.46-.51-2.18v-1.05Z"/><path class="cls-4" d="M219.09,182.46c.19.72.37,1.45.51,2.18v1c-.14-.73-.32-1.46-.51-2.18v-1Z"/><path class="cls-4" d="M218.45,169.36v1c-.24-.72-.49-1.43-.77-2.14V168c.28.71.53,1.42.77,2.14v-.78Z"/><path class="cls-4" d="M217.68,169.4c.28.71.53,1.42.77,2.14v1c-.24-.72-.49-1.43-.77-2.14v-1Z"/><path class="cls-4" d="M217.68,171.58c.28.71.53,1.42.77,2.14v1c-.24-.72-.49-1.43-.77-2.14v-1Z"/><path class="cls-4" d="M217.68,173.78c.28.7.53,1.42.77,2.13v1c-.24-.72-.49-1.43-.77-2.14v-1Z"/><path class="cls-4" d="M217.68,176c.28.71.53,1.42.77,2.14v1c-.24-.71-.49-1.43-.77-2.13V176Z"/><path class="cls-4" d="M217.68,178.15c.28.71.53,1.42.77,2.14v1c-.24-.71-.49-1.43-.77-2.13v-1Z"/><path class="cls-4" d="M213.38,167.67c.44.67.85,1.35,1.25,2v1c-.4-.68-.81-1.35-1.25-2v-1.05Z"/><path class="cls-4" d="M213.38,169.87c.44.67.85,1.34,1.25,2v1c-.4-.68-.81-1.35-1.25-2v-1Z"/><path class="cls-4" d="M215.77,174c.36.69.7,1.38,1,2.08v1c-.32-.7-.66-1.4-1-2.09v-1Z"/><path class="cls-4" d="M210.52,161.54c.52.65,1,1.31,1.49,2v1c-.48-.66-1-1.31-1.49-2v-1Z"/><path class="cls-4" d="M210.52,163.72c.52.65,1,1.3,1.49,2v1c-.48-.66-1-1.32-1.49-2v-1Z"/><path class="cls-4" d="M210.52,165.91c.52.65,1,1.31,1.49,2v1c-.48-.67-1-1.32-1.49-2v-1Z"/><path class="cls-4" d="M207.23,151.18c.58.62,1.15,1.25,1.7,1.89v1c-.55-.63-1.12-1.26-1.7-1.88v-1Z"/><path class="cls-4" d="M207.23,153.36c.58.62,1.15,1.25,1.7,1.88v1c-.55-.63-1.12-1.26-1.7-1.89v-1Z"/><path class="cls-4" d="M207.23,155.54c.58.62,1.15,1.25,1.7,1.88v1c-.55-.63-1.12-1.26-1.7-1.88v-1Z"/><path class="cls-4" d="M207.23,157.73c.58.62,1.15,1.25,1.7,1.89v1c-.55-.63-1.12-1.26-1.7-1.88v-1Z"/><path class="cls-4" d="M207.23,159.91c.58.62,1.15,1.25,1.7,1.88v1.05c-.55-.64-1.12-1.27-1.7-1.89v-1Z"/><path class="cls-4" d="M207.23,162.1c.58.63,1.15,1.26,1.7,1.89v1c-.55-.64-1.12-1.27-1.7-1.89v-1Z"/><path class="cls-4" d="M203.5,147.51c.65.6,1.29,1.2,1.91,1.81v1c-.62-.61-1.26-1.22-1.91-1.81v-1Z"/><path class="cls-4" d="M203.5,149.69c.65.59,1.29,1.2,1.91,1.81v1c-.62-.61-1.26-1.21-1.91-1.81v-1Z"/><path class="cls-4" d="M203.5,151.87c.65.59,1.29,1.2,1.91,1.81v1c-.62-.61-1.26-1.21-1.91-1.81v-1Z"/><path class="cls-4" d="M203.5,154.06c.65.6,1.29,1.2,1.91,1.81v1c-.62-.61-1.26-1.22-1.91-1.81v-1Z"/><path class="cls-4" d="M203.5,156.24c.65.6,1.29,1.2,1.91,1.81v1c-.62-.61-1.26-1.21-1.91-1.81v-1Z"/><path class="cls-4" d="M203.5,158.43c.65.6,1.29,1.2,1.91,1.81v1c-.62-.61-1.26-1.21-1.91-1.81v-1Z"/><path class="cls-4" d="M199.37,148.37c.72.57,1.43,1.14,2.12,1.73v1c-.69-.58-1.4-1.16-2.12-1.73v-1Z"/><path class="cls-4" d="M199.37,150.56c.72.57,1.43,1.15,2.12,1.73v1c-.69-.58-1.4-1.16-2.12-1.73v-1Z"/><path class="cls-4" d="M199.37,152.74c.72.57,1.43,1.15,2.12,1.73v1c-.69-.58-1.4-1.16-2.12-1.73v-1Z"/><path class="cls-4" d="M199.37,154.94c.72.57,1.43,1.14,2.12,1.73v1c-.69-.58-1.4-1.16-2.12-1.73v-1Z"/><path class="cls-4" d="M194.84,151.6c.79.54,1.56,1.09,2.31,1.64v1c-.75-.56-1.52-1.1-2.31-1.64v-1Z"/><path class="cls-4" d="M192.45,147.81v1c-.82-.53-1.66-1-2.51-1.56v-.81c.85.52,1.69,1,2.51,1.56v-.23Z"/><path class="cls-4" d="M189.94,148.45c.85.51,1.69,1,2.51,1.55v1c-.82-.53-1.66-1.05-2.51-1.56v-1Z"/><path class="cls-4" d="M184.71,141.12c.9.48,1.78,1,2.66,1.45v1c-.88-.49-1.76-1-2.66-1.45v-1Z"/><path class="cls-4" d="M184.71,143.3c.9.47,1.78,1,2.66,1.45v1c-.88-.49-1.76-1-2.66-1.45v-1Z"/><path class="cls-4" d="M184.71,145.49c.9.48,1.78,1,2.66,1.46v1c-.88-.49-1.76-1-2.66-1.45v-1Z"/><path class="cls-4" d="M179.12,138.37c.95.44,1.89.89,2.82,1.34v1q-1.4-.69-2.82-1.35v-1Z"/><path class="cls-4" d="M179.12,140.54q1.42.66,2.82,1.35v1c-.93-.45-1.87-.9-2.82-1.34v-1.05Z"/><path class="cls-4" d="M179.12,142.74q1.42.66,2.82,1.35v1q-1.4-.69-2.82-1.35v-1Z"/><path class="cls-4" d="M217.68,153.62c.28.71.53,1.42.77,2.14v14.38c-.24-.72-.49-1.43-.77-2.14V153.62Z"/><path class="cls-4" d="M215.77,154.18c.36.69.7,1.38,1,2.08v18.63c-.32-.7-.66-1.4-1-2.08V154.18Z"/><path class="cls-4" d="M213.38,155.22c.44.67.85,1.34,1.25,2v11.31c-.4-.68-.81-1.36-1.25-2v-11.3Z"/><path class="cls-4" d="M210.52,146.39c.52.65,1,1.3,1.49,2v14c-.48-.67-1-1.32-1.49-2v-14Z"/><path class="cls-4" d="M207.23,138.15c.58.62,1.15,1.25,1.7,1.89v11.77c-.55-.64-1.12-1.27-1.7-1.89V138.15Z"/><path class="cls-4" d="M203.5,129.41c.65.59,1.29,1.2,1.91,1.81v16.84c-.62-.61-1.26-1.21-1.91-1.81V129.41Z"/><path class="cls-4" d="M199.37,129.4c.72.57,1.43,1.15,2.12,1.73v17.81c-.69-.58-1.4-1.15-2.12-1.72V129.4Z"/><path class="cls-4" d="M194.84,127.65c.79.54,1.56,1.08,2.31,1.64v22.8c-.75-.56-1.52-1.1-2.31-1.64v-22.8Z"/><path class="cls-4" d="M189.94,129.55c.85.51,1.69,1,2.51,1.56V148c-.82-.52-1.66-1-2.51-1.56V129.55Z"/><path class="cls-4" d="M184.71,123.45c.9.47,1.78,1,2.66,1.45v16.29c-.88-.5-1.76-1-2.66-1.45V123.45Z"/><path class="cls-4" d="M179.12,114.21q1.42.66,2.82,1.35v22.77q-1.4-.69-2.82-1.35V114.21Z"/><path class="cls-5" d="M123.88,106.44v-1.7q-5.8-.4-11.78-.47c-1.52,0-3,0-4.52,0V106c1.5,0,3,0,4.52,0q6,.06,11.78.48ZM91.55,103a192.24,192.24,0,0,1,20.55-.89q6,.06,11.78.48v6.08q-5.8-.4-11.78-.47a192.28,192.28,0,0,0-20.55.88V103Z"/><path class="cls-5" d="M123.88,115.9v-1.69q-5.8-.42-11.78-.48-5.25,0-10.38.18v1.69q5.13-.22,10.38-.17,6,.06,11.78.47Zm-43.43-2a187.46,187.46,0,0,1,31.65-2.32q6,.06,11.78.47v6.09q-5.8-.42-11.78-.48a188.51,188.51,0,0,0-31.65,2.32v-6.08Z"/><path class="cls-5" d="M123.88,125.37v-1.69q-4.81-.34-9.75-.45v1.69q4.94.1,9.75.45ZM103.37,121q4.32-.15,8.73-.11,6,.06,11.78.48v6.1c-3.87-.27-7.8-.44-11.78-.48-2.94,0-5.85,0-8.73.11V121Z"/><path class="cls-6" d="M127.8,121.71a173.39,173.39,0,0,1,29.88,5.35v6.1a173.39,173.39,0,0,0-29.88-5.35v-6.1Z"/><path class="cls-6" d="M127.8,112.33a167.83,167.83,0,0,1,39.67,8.4v6.09a166.84,166.84,0,0,0-39.67-8.4v-6.09Z"/><path class="cls-6" d="M127.8,102.94a177.85,177.85,0,0,1,19.25,2.82v6.08A180.36,180.36,0,0,0,127.8,109v-6.08Z"/><path class="cls-6" d="M150.66,106.54c1.08.24,2.14.49,3.19.75v6.09c-1-.26-2.11-.52-3.19-.76v-6.08Z"/><path class="cls-6" d="M156.74,108c1,.28,2.06.56,3.08.86V115l-3.08-.86V108Z"/><path class="cls-6" d="M162.61,109.74q1.51.47,3,1v6.09c-1-.33-2-.66-3-1v-6.08Z"/><path class="cls-6" d="M168.28,111.63c1,.34,1.93.7,2.88,1.06v6.08c-.95-.36-1.91-.71-2.88-1.06v-6.08Z"/><path class="cls-4" d="M107.58,104.27c1.5,0,3,0,4.52,0q6,.06,11.78.47v1.7q-5.8-.42-11.78-.48c-1.52,0-3,0-4.52,0v-1.7Z"/><path class="cls-4" d="M101.72,113.91q5.13-.22,10.38-.18,6,.06,11.78.48v1.69q-5.8-.41-11.78-.47-5.25-.06-10.38.17v-1.69Z"/><path class="cls-4" d="M114.13,123.23q4.94.1,9.75.45v1.69q-4.81-.34-9.75-.45v-1.69Z"/><path class="cls-3" d="M29.76,134.57c2.56-1.72,3.1-5.64,1.32-6-2.06-.46-4.52,3.83-3.35,5.8.4.66,1.17.75,2,.23Zm-26,23c1.11-2.52,1.25-6.6.44-6.3s-1.82,6.53-1,6.9c.08,0,.27,0,.56-.6ZM0,192.34c0-.37,0-.75,0-1.12.56-18.35,14.7-34.74,36.84-46.07l.24.29.55-.69h0l.55-.68c-6.6-8-8.17-9.85-12.19-2.48-1.86,3.64-3.56,5.11-5.05,4.38-8.37-5.44-8.37-5.44-10.6,1.13-3.71,12.6-3.71,12.6-4.77,13-1.29.4-2,.62-2.88,5C1.14,175,1.14,175,.68,179.51a20.81,20.81,0,0,1-.52,3.35L0,182.52v9.82Zm0,4.95v-39c0-.38,0-.75,0-1.13C.65,136.46,18.55,118.26,45.71,107v39C15.49,159.58.11,176.83,0,197.29Z"/><path class="cls-7" d="M37.66,144.74ZM16,156.38v-1.69c-.39.37-.78.74-1.16,1.12v1.69L16,156.38Zm0-3.33v-1.71a62.68,62.68,0,0,0-6.39,7V160a62.68,62.68,0,0,1,6.39-7ZM0,192.34v-7.89l.1.26a29.61,29.61,0,0,0,.69-4.51c.65-6,1.13-8.65,2.18-14.5.68-3.25,1.07-3.37,2.35-3.8,1.13-.56,1.13-.56,5.6-14.41,1.67-4.85,1.67-4.85,9.31.12,1.34.66,3.56.25,6.6-5.49,3-5.44,3.66-4.64,10,3C14.72,156.48.58,172.87,0,191.22c0,.37,0,.75,0,1.12Z"/><path class="cls-4" d="M0,184.45l.1.26a29.61,29.61,0,0,0,.69-4.51c.65-6,1.13-8.65,2.18-14.5.67-3.19,1-3.32,2.35-3.8,1.13-.56,1.13-.56,5.6-14.41,1.67-4.85,1.67-4.85,9.31.12,1.34.66,3.56.25,6.6-5.49,3-5.44,3.66-4.64,10,3l.24.29.55-.69h0l.55-.68-4.93-6c-.37-.38-3.71-3.47-7.84,4.63-2.51,4.61-2.51,4.61-10.44-.68-3-1.5-4.79,5-7.24,14-1.07,3.71-1.73,3.94-3,4.39-1,.54-2,1.1-4,18.72a30.47,30.47,0,0,1-.49,3.64L0,182.52v1.93Z"/><path class="cls-4" d="M3.79,151.81c.49-1,.74-.54.84-.2.56,1.84-.74,6.81-1.4,6.52s-.23-4.65.56-6.32Z"/><path class="cls-4" d="M29.76,128.84c1.91-1,2.79.6,2.18,2.68-.76,2.6-3.32,4.31-4.21,2.82s.28-4.43,2-5.5Z"/><path class="cls-4" d="M9.62,158.31a62.68,62.68,0,0,1,6.39-7v1.71a62.68,62.68,0,0,0-6.39,7v-1.71Z"/><path class="cls-4" d="M14.85,155.81c.38-.38.77-.75,1.16-1.12v1.69l-1.16,1.12v-1.69Z"/></g><g class="cls-2"><g class="cls-1"><g class="cls-1"><path class="cls-8" d="M12.72,221.82v-27a81.31,81.31,0,0,0,19,14.88v27a81.31,81.31,0,0,1-19-14.88Zm-6.18-34.1v26.11A40,40,0,0,1,0,192.34v-9.82c0-.11.09-.27.12-.39.39-1.65.8-3.35,1.35-3.93.24.14.73.43,1.62,4.41a10.87,10.87,0,0,0,.72,2.29c.28.56.5.82.77.89l1.8.15.34,1.79Zm38.2,60.4v-39C17.56,197.57,0,179.06,0,158.28v39C1.53,219,15.33,234.66,44.74,248.12Z"/><path class="cls-9" d="M.79,196v-1.69a40.37,40.37,0,0,0,3.76,10.44v1.69A40.37,40.37,0,0,1,.79,196Zm0-3.32V191a39.34,39.34,0,0,0,2.49,7.78v1.69a39.46,39.46,0,0,1-2.49-7.77Zm5.75,21.18V187.72l-1.67-.13c-.33-.12-1.18-.44-2-4.28-.57-2.63-.92-3-1.12-3.26C1.47,180.19,1,181,.2,184l-.2.48v7.89a40,40,0,0,0,6.54,21.49Z"/><path class="cls-10" d="M6.54,187.72l-1.67-.13c-1-.22-1.62-2.45-2-4.28-1-4.73-1.39-4.14-2.66.66a2.7,2.7,0,0,1-.2.48v-1.93l.09-.27a.08.08,0,0,0,0-.05,13.47,13.47,0,0,1,1.18-3.81c.57-.89,1.44,2.64,1.69,3.74a9.46,9.46,0,0,0,1.22,3.41c.21.24.21.24,2.18.4l.34,1.79Z"/><path class="cls-8" d="M79.84,253.09V251c1.22.2,2.44.39,3.67.57v2.12c-1.23-.18-2.45-.36-3.67-.56Zm7.38,1V252q1.88.22,3.78.42v2.12q-1.91-.19-3.78-.42Zm7.59.76v-2.12q1.91.15,3.84.27v2.12q-1.94-.12-3.84-.27Zm7.76.46v-2.12c1.3,0,2.61.09,3.92.11v2.13c-1.31,0-2.62-.06-3.92-.12Zm7.88.15v-2.12c1.31,0,2.62,0,3.92,0v2.12c-1.3,0-2.61,0-3.92,0Zm7.84-.16v-2.13c1.29-.05,2.58-.12,3.86-.2v2.13c-1.28.08-2.57.14-3.86.2Zm7.68-.48v-2.12c1.27-.11,2.54-.23,3.8-.36v2.13c-1.26.13-2.53.25-3.8.35Zm7.53-.77V252c1.24-.15,2.47-.32,3.69-.49v2.12c-1.22.18-2.45.34-3.69.5Zm7.36-1.07v-2.12c1.2-.2,2.4-.41,3.59-.64v2.13c-1.19.22-2.39.43-3.59.63Zm7.13-1.34v-2.12c1.17-.25,2.33-.5,3.48-.77v2.12c-1.15.27-2.31.53-3.48.77Zm6.92-1.61V248c1.14-.29,2.26-.59,3.37-.9v2.13c-1.11.31-2.23.61-3.37.89Zm6.67-1.85V246.1c1.1-.33,2.19-.67,3.26-1v2.13c-1.07.35-2.16.69-3.26,1Zm6.43-2.12V244c1.05-.37,2.08-.75,3.1-1.14V245c-1,.39-2.05.77-3.1,1.14Zm6.15-2.34v-2.13c1-.41,2-.82,3-1.25v2.12c-1,.43-2,.85-3,1.26ZM180,241.2v-2.12c.95-.45,1.88-.9,2.8-1.36v2.12c-.92.46-1.85.92-2.8,1.36Zm5.54-2.78v-2.13c.89-.48,1.77-1,2.63-1.46V237c-.86.5-1.74,1-2.63,1.47Zm5.18-3v-2.13c.84-.51,1.67-1,2.48-1.57v2.12c-.81.54-1.64,1.06-2.48,1.58Zm4.85-3.19v-2.12c.77-.55,1.53-1.1,2.28-1.66v2.13q-1.12.84-2.28,1.65ZM200,228.9v-2.13c.72-.58,1.42-1.16,2.1-1.75v2.12c-.68.59-1.38,1.18-2.1,1.76Zm4.08-3.54v-2.13c.65-.6,1.28-1.21,1.88-1.82v2.12c-.6.62-1.23,1.23-1.88,1.83Zm3.67-3.7v-2.13c.58-.63,1.13-1.26,1.67-1.9v2.12c-.54.64-1.09,1.28-1.67,1.91Zm3.23-3.84v-2.13c.51-.65,1-1.32,1.46-2v2.12c-.47.67-.95,1.33-1.46,2Zm2.79-4V211.7c.43-.68.84-1.36,1.22-2v2.12c-.38.69-.79,1.37-1.22,2Zm2.32-4.11v-2.12c.35-.7.68-1.41,1-2.12v2.13c-.3.71-.63,1.41-1,2.11Zm1.84-4.24v-2.13c.26-.71.5-1.43.72-2.15v2.12q-.33,1.08-.72,2.16Zm1.33-4.35V199c.17-.73.33-1.47.46-2.21v2.13c-.13.74-.29,1.47-.46,2.21ZM79.84,249.27v-2.12c1.22.2,2.44.38,3.67.56v2.12c-1.23-.17-2.45-.36-3.67-.56Zm7.38,1V248.2q1.88.23,3.78.42v2.12q-1.91-.18-3.78-.42Zm7.59.77V249q1.91.16,3.84.27v2.13q-1.94-.12-3.84-.27Zm7.76.46v-2.12c1.3,0,2.61.08,3.92.11v2.12c-1.31,0-2.62-.06-3.92-.11Zm7.88.15v-2.13c1.31,0,2.62,0,3.92,0v2.12c-1.3,0-2.61,0-3.92,0Zm7.84-.17v-2.12c1.29-.06,2.58-.12,3.86-.2v2.12c-1.28.08-2.57.15-3.86.2Zm7.68-.48v-2.12c1.27-.1,2.54-.22,3.8-.35v2.12c-1.26.13-2.53.25-3.8.35Zm7.53-.77v-2.12c1.24-.16,2.47-.32,3.69-.5v2.12c-1.22.18-2.45.35-3.69.5Zm7.36-1.06v-2.13c1.2-.2,2.4-.41,3.59-.63v2.12c-1.19.22-2.39.44-3.59.64Zm7.13-1.34v-2.13c1.17-.24,2.33-.5,3.48-.76v2.12c-1.15.27-2.31.52-3.48.77Zm6.92-1.61v-2.12c1.14-.29,2.26-.59,3.37-.9v2.12c-1.11.31-2.23.61-3.37.9Zm6.67-1.86v-2.12c1.1-.34,2.19-.68,3.26-1v2.12c-1.07.35-2.16.7-3.26,1ZM168,242.3v-2.12c1.05-.38,2.08-.76,3.1-1.15v2.13c-1,.39-2.05.77-3.1,1.14Zm6.15-2.35v-2.12c1-.41,2-.83,3-1.26v2.13c-1,.42-2,.84-3,1.25Zm5.84-2.56v-2.13c.95-.44,1.88-.9,2.8-1.36V236c-.92.47-1.85.92-2.8,1.37Zm5.54-2.79v-2.12c.89-.48,1.77-1,2.63-1.47v2.13c-.86.49-1.74,1-2.63,1.46Zm5.18-3V229.5c.84-.52,1.67-1,2.48-1.58v2.13c-.81.53-1.64,1-2.48,1.57Zm4.85-3.18v-2.13q1.16-.81,2.28-1.65v2.12c-.75.56-1.51,1.11-2.28,1.66Zm4.46-3.36V223c.72-.58,1.42-1.17,2.1-1.76v2.13c-.68.59-1.38,1.17-2.1,1.75Zm4.08-3.54v-2.12c.65-.6,1.28-1.21,1.88-1.83v2.13c-.6.61-1.23,1.22-1.88,1.82Zm3.67-3.7v-2.12c.58-.63,1.13-1.27,1.67-1.91v2.13c-.54.64-1.09,1.27-1.67,1.9ZM211,214v-2.12c.51-.66,1-1.32,1.46-2V212c-.47.67-.95,1.33-1.46,2Zm2.79-4v-2.13c.43-.67.84-1.35,1.22-2V208c-.38.68-.79,1.36-1.22,2Zm2.32-4.11v-2.13c.35-.7.68-1.4,1-2.11v2.12c-.3.71-.63,1.42-1,2.12Zm1.84-4.25v-2.12c.26-.72.5-1.43.72-2.16v2.13c-.22.72-.46,1.44-.72,2.15Zm1.33-4.35v-2.12c.17-.74.33-1.47.46-2.21v2.12c-.13.74-.29,1.48-.46,2.21ZM79.84,245.46v-2.13c1.22.2,2.44.39,3.67.57V246c-1.23-.18-2.45-.36-3.67-.56Zm7.38,1v-2.12q1.88.23,3.78.42v2.12q-1.91-.19-3.78-.42Zm7.59.76v-2.12q1.91.15,3.84.27v2.12q-1.94-.12-3.84-.27Zm7.76.46v-2.12c1.3,0,2.61.09,3.92.11v2.13c-1.31,0-2.62-.06-3.92-.12Zm7.88.15v-2.12c1.31,0,2.62,0,3.92,0v2.12c-1.3,0-2.61,0-3.92,0Zm7.84-.16v-2.13c1.29-.05,2.58-.12,3.86-.2v2.13c-1.28.08-2.57.14-3.86.2Zm7.68-.48v-2.12c1.27-.11,2.54-.23,3.8-.36v2.13c-1.26.13-2.53.25-3.8.35Zm7.53-.78v-2.12c1.24-.15,2.47-.32,3.69-.49V246c-1.22.18-2.45.34-3.69.49Zm7.36-1.06v-2.12c1.2-.2,2.4-.41,3.59-.64v2.13c-1.19.22-2.39.43-3.59.63Zm7.13-1.34v-2.12c1.17-.25,2.33-.5,3.48-.77v2.12c-1.15.27-2.31.53-3.48.77Zm6.92-1.61v-2.12c1.14-.29,2.26-.59,3.37-.9v2.13c-1.11.31-2.23.61-3.37.89Zm6.67-1.85v-2.13c1.1-.33,2.19-.67,3.26-1v2.13c-1.07.35-2.16.69-3.26,1Zm6.43-2.12v-2.12c1.05-.37,2.08-.75,3.1-1.14v2.12c-1,.39-2.05.77-3.1,1.14Zm6.15-2.34V234c1-.41,2-.82,3-1.25v2.12c-1,.43-2,.85-3,1.26Zm5.84-2.57v-2.12c.95-.45,1.88-.9,2.8-1.36v2.12c-.92.46-1.85.92-2.8,1.36Zm5.54-2.78v-2.13c.89-.48,1.77-1,2.63-1.46v2.12c-.86.5-1.74,1-2.63,1.47Zm5.18-3v-2.13c.84-.51,1.67-1,2.48-1.57v2.12c-.81.53-1.64,1.06-2.48,1.58Zm4.85-3.19V222.5c.77-.55,1.53-1.1,2.28-1.66V223q-1.12.84-2.28,1.65Zm4.46-3.35v-2.13c.72-.58,1.42-1.16,2.1-1.75v2.12c-.68.59-1.38,1.18-2.1,1.76Zm4.08-3.54V215.6c.65-.6,1.28-1.21,1.88-1.82v2.12c-.6.62-1.23,1.22-1.88,1.83Zm3.67-3.7V211.9c.58-.63,1.13-1.26,1.67-1.9v2.12c-.54.64-1.09,1.28-1.67,1.91Zm3.23-3.84v-2.13c.51-.65,1-1.32,1.46-2v2.12c-.47.67-.95,1.33-1.46,2Zm2.79-4v-2.12c.43-.68.84-1.36,1.22-2v2.12c-.38.69-.79,1.37-1.22,2Zm2.32-4.11V200c.35-.7.68-1.41,1-2.12V200c-.3.71-.63,1.41-1,2.11Zm1.84-4.24v-2.13c.26-.71.5-1.43.72-2.15v2.12q-.33,1.08-.72,2.16Zm1.33-4.35v-2.13c.17-.73.33-1.47.46-2.21v2.13c-.13.74-.29,1.47-.46,2.21Zm-78.43,48v-5c1.2-.2,2.4-.41,3.59-.63v5c-1.19.23-2.39.44-3.59.64Zm70.28-35.38v-5q.75-1,1.44-2v5c-.46.66-.94,1.32-1.44,2ZM180,229.63v-5.49c.95-.44,1.88-.9,2.8-1.36v5.49c-.92.46-1.85.92-2.8,1.36Zm5.74-2.89v-5.49c.89-.48,1.77-1,2.63-1.47v5.49l-2.63,1.47ZM133.5,242.52v-6.37c1.24-.15,2.47-.32,3.69-.49V242c-1.22.18-2.45.34-3.69.49Zm80.4-40.42v-6.37c.42-.68.83-1.36,1.21-2v6.37c-.38.69-.79,1.37-1.21,2Zm-65.91,38v-6.8c1.17-.25,2.33-.5,3.48-.77v6.8c-1.15.27-2.31.53-3.48.77Zm59.92-30.18v-6.8c.58-.63,1.13-1.26,1.67-1.91V208c-.54.64-1.09,1.27-1.67,1.9ZM174.16,232.2v-7.42c1-.41,2-.83,3-1.25v7.41c-1,.43-2,.85-3,1.26Zm16.77-8.46v-7.42c.83-.51,1.65-1,2.45-1.56v7.41c-.8.53-1.62,1.05-2.45,1.57ZM126,243.3v-8.39c1.27-.1,2.54-.22,3.8-.35V243c-1.26.13-2.53.24-3.8.35ZM216.21,198v-8.39q.51-1,1-2.1v8.39q-.45,1-1,2.1ZM79.84,241.52v-9.43c1.22.2,2.44.38,3.67.56v9.43c-1.23-.18-2.45-.36-3.67-.56Zm75.07-3v-9.88c1.14-.29,2.26-.59,3.37-.9v9.88c-1.11.31-2.23.61-3.37.9Zm49.35-24.86v-9.88c.65-.61,1.27-1.22,1.88-1.84v9.88c-.61.62-1.23,1.23-1.88,1.84ZM168,234.54V224.12c1.05-.37,2.08-.75,3.1-1.14V233.4c-1,.39-2.05.77-3.1,1.14Zm27.74-14V210.14c.77-.55,1.53-1.11,2.28-1.67v10.42c-.75.56-1.51,1.12-2.28,1.67Zm-77.46,23.21V233c1.29-.05,2.58-.12,3.86-.2v10.81c-1.28.08-2.57.15-3.86.2Zm99.73-50V182.92c.26-.72.5-1.45.72-2.17v10.81c-.22.73-.46,1.45-.72,2.17ZM87.22,242.57V229.65q1.88.22,3.78.42V243q-1.91-.19-3.78-.42Zm23.23,1.37V231c1.31,0,2.62,0,3.92,0V243.9c-1.3,0-2.61,0-3.92,0Zm51.13-7.29V223.73c1.1-.33,2.19-.67,3.26-1v12.93c-1.07.35-2.16.69-3.26,1Zm38.62-19.47V204.26c.71-.57,1.41-1.16,2.08-1.74v12.92c-.67.59-1.37,1.17-2.08,1.74Zm19.13-27.8V176.46c.17-.74.32-1.47.45-2.21v12.92c-.13.74-.28,1.47-.45,2.21ZM102.57,243.79V228.5c1.3.05,2.61.09,3.92.11v15.3c-1.31,0-2.62-.07-3.92-.12Zm-7.76-.46V226.54q1.91.15,3.84.27V243.6q-1.94-.12-3.84-.27ZM220.31,160c-1.62,34.61-51.57,62.08-112.06,61.48a185,185,0,0,1-35.92-3.82v39a184.22,184.22,0,0,0,35.92,3.81c60.49.61,110.44-26.86,112.06-61.47V160Z"/><path class="cls-10" d="M3.28,198.73A39.34,39.34,0,0,1,.79,191v1.7a39.46,39.46,0,0,0,2.49,7.77v-1.69Z"/><path class="cls-10" d="M4.55,204.72A40.37,40.37,0,0,1,.79,194.28V196a40.37,40.37,0,0,0,3.76,10.44v-1.69Z"/><path class="cls-9" d="M15,220.27v-2.75c.56.55,1.12,1.09,1.71,1.62v2.75c-.59-.53-1.15-1.07-1.71-1.62Zm3.5,3.21v-2.75c.61.52,1.23,1,1.86,1.55V225c-.63-.52-1.25-1-1.86-1.56Zm3.81,3.08v-2.75c.66.5,1.34,1,2,1.48v2.76c-.69-.49-1.37-1-2-1.49Zm4.12,2.94v-2.76c.72.48,1.44.95,2.18,1.42v2.75c-.74-.46-1.46-.93-2.18-1.41ZM15,214.77V212c.56.55,1.12,1.09,1.71,1.62v2.76c-.59-.54-1.15-1.08-1.71-1.62Zm3.5,3.21v-2.76q.91.79,1.86,1.56v2.75c-.63-.51-1.25-1-1.86-1.55Zm3.81,3.07V218.3c.66.5,1.34,1,2,1.49v2.75c-.69-.49-1.37-1-2-1.49ZM26.4,224v-2.75c.72.48,1.44.95,2.18,1.41v2.76c-.74-.47-1.46-.94-2.18-1.42ZM15,209.26v-2.75c.56.54,1.12,1.08,1.71,1.62v2.75c-.59-.53-1.15-1.07-1.71-1.62Zm3.5,3.21v-2.75c.61.52,1.23,1,1.86,1.55V214c-.63-.51-1.25-1-1.86-1.55Zm3.81,3.08v-2.76c.66.5,1.34,1,2,1.49V217c-.69-.49-1.37-1-2-1.48Zm4.12,2.93v-2.75c.72.48,1.44,1,2.18,1.42v2.75c-.74-.47-1.46-.94-2.18-1.42ZM15,203.75V201c.56.54,1.12,1.08,1.71,1.62v2.75c-.59-.53-1.15-1.07-1.71-1.62Zm3.5,3.21v-2.75c.61.52,1.23,1,1.86,1.55v2.76q-.95-.77-1.86-1.56ZM22.28,210v-2.75c.66.5,1.34,1,2,1.48v2.76c-.69-.49-1.37-1-2-1.49ZM26.4,213v-2.76c.72.48,1.44.95,2.18,1.42v2.75c-.74-.46-1.46-.93-2.18-1.41Zm5.35-3.27a81.31,81.31,0,0,1-19-14.88v27a81.31,81.31,0,0,0,19,14.88v-27Z"/><path class="cls-11" d="M16.68,202.62c-.59-.54-1.15-1.08-1.71-1.62v2.75c.56.55,1.12,1.09,1.71,1.62v-2.75Z"/><path class="cls-10" d="M20.33,205.76c-.63-.51-1.25-1-1.86-1.55V207q.91.79,1.86,1.56v-2.76Z"/><path class="cls-11" d="M24.31,208.77c-.69-.49-1.37-1-2-1.48V210c.66.5,1.34,1,2,1.49v-2.76Z"/><path class="cls-11" d="M28.58,211.64c-.74-.47-1.46-.94-2.18-1.42V213c.72.48,1.44,1,2.18,1.41v-2.75Z"/><path class="cls-11" d="M16.68,208.13c-.59-.54-1.15-1.08-1.71-1.62v2.75c.56.55,1.12,1.09,1.71,1.62v-2.75Z"/><path class="cls-10" d="M20.33,211.27c-.63-.51-1.25-1-1.86-1.55v2.75c.61.52,1.23,1,1.86,1.55v-2.75Z"/><path class="cls-11" d="M24.31,214.28c-.69-.49-1.37-1-2-1.49v2.76c.66.5,1.34,1,2,1.48v-2.75Z"/><path class="cls-11" d="M28.58,217.15c-.74-.47-1.46-.94-2.18-1.42v2.75c.72.48,1.44,1,2.18,1.42v-2.75Z"/><path class="cls-10" d="M16.68,213.63c-.59-.53-1.15-1.07-1.71-1.62v2.76c.56.54,1.12,1.08,1.71,1.62v-2.76Z"/><path class="cls-11" d="M20.33,216.78q-.95-.76-1.86-1.56V218c.61.52,1.23,1,1.86,1.55v-2.75Z"/><path class="cls-11" d="M24.31,219.79c-.69-.49-1.37-1-2-1.49v2.75c.66.5,1.34,1,2,1.49v-2.75Z"/><path class="cls-10" d="M28.58,222.65c-.74-.46-1.46-.93-2.18-1.41V224c.72.48,1.44.95,2.18,1.42v-2.76Z"/><path class="cls-11" d="M16.68,219.14c-.59-.53-1.15-1.07-1.71-1.62v2.75c.56.55,1.12,1.09,1.71,1.62v-2.75Z"/><path class="cls-10" d="M20.33,222.28c-.63-.51-1.25-1-1.86-1.55v2.75c.61.53,1.23,1,1.86,1.56v-2.76Z"/><path class="cls-11" d="M24.31,225.29c-.69-.49-1.37-1-2-1.48v2.75c.66.5,1.34,1,2,1.49v-2.76Z"/><path class="cls-11" d="M28.58,228.16c-.74-.47-1.46-.94-2.18-1.42v2.76c.72.48,1.44.95,2.18,1.41v-2.75Z"/><path class="cls-10" d="M83.51,232.65c-1.23-.18-2.45-.36-3.67-.56v9.43c1.22.2,2.44.38,3.67.56v-9.43Z"/><path class="cls-10" d="M91,230.07q-1.91-.19-3.78-.42v12.92q1.88.23,3.78.42V230.07Z"/><path class="cls-10" d="M98.65,226.81q-1.94-.12-3.84-.27v16.79q1.91.15,3.84.27V226.81Z"/><path class="cls-10" d="M106.49,228.61c-1.31,0-2.62-.06-3.92-.11v15.29c1.3.05,2.61.09,3.92.12v-15.3Z"/><path class="cls-10" d="M114.37,231c-1.3,0-2.61,0-3.92,0v12.92c1.31,0,2.62,0,3.92,0V231Z"/><path class="cls-12" d="M122.15,232.76c-1.28.08-2.57.15-3.86.2v10.81c1.29-.05,2.58-.12,3.86-.2V232.76Z"/><path class="cls-12" d="M129.77,234.56c-1.26.13-2.53.25-3.8.35v8.39c1.27-.11,2.54-.22,3.8-.35-1.26.13-2.53.24-3.8.35,1.27-.11,2.54-.22,3.8-.35v-8.39Z"/><path class="cls-13" d="M137.19,235.66c-1.22.17-2.45.34-3.69.49v6.37c1.24-.15,2.47-.31,3.69-.49v-6.37Z"/><path class="cls-13" d="M144.45,235.86c-1.19.22-2.39.43-3.59.63v5c1.2-.2,2.4-.41,3.59-.64v-5Z"/><path class="cls-14" d="M151.47,232.55c-1.15.27-2.31.52-3.48.77v6.8c1.17-.24,2.33-.5,3.48-.77v-6.8Z"/><path class="cls-14" d="M158.28,227.73c-1.11.31-2.23.61-3.37.9v9.88c1.14-.29,2.26-.59,3.37-.9v-9.88Z"/><path class="cls-9" d="M164.84,222.7c-1.07.36-2.16.7-3.26,1v12.92c1.1-.33,2.19-.67,3.26-1V222.7Z"/><path class="cls-9" d="M171.11,223c-1,.39-2.05.77-3.1,1.14v10.42c1.05-.37,2.08-.75,3.1-1.14V223Z"/><path class="cls-15" d="M177.12,223.53c-1,.42-2,.84-3,1.25v7.42c1-.41,2-.83,3-1.26v-7.41Z"/><path class="cls-15" d="M182.8,222.78c-.92.46-1.85.92-2.8,1.36v5.49c.95-.44,1.88-.9,2.8-1.36v-5.49Z"/><path class="cls-10" d="M219.78,174.25c-.13.74-.28,1.47-.45,2.21v12.92c.17-.74.32-1.47.45-2.21V174.25Z"/><path class="cls-12" d="M218.74,180.75c-.22.72-.46,1.45-.72,2.17v10.81c.26-.72.5-1.44.72-2.17V180.75Z"/><path class="cls-12" d="M217.17,187.48q-.45,1.07-1,2.1V198q.51-1,1-2.1v-8.39Z"/><path class="cls-13" d="M215.11,193.68c-.38.69-.79,1.37-1.21,2v6.37c.42-.68.83-1.36,1.21-2v-6.37Z"/><path class="cls-13" d="M212.58,199.14q-.69,1-1.44,2v5c.5-.65,1-1.31,1.44-2v-5Z"/><path class="cls-14" d="M209.58,201.23c-.54.65-1.09,1.28-1.67,1.91v6.8c.58-.63,1.13-1.26,1.67-1.9v-6.81Z"/><path class="cls-14" d="M206.14,201.93c-.61.62-1.23,1.23-1.88,1.84v9.88c.65-.61,1.27-1.22,1.88-1.84v-9.88Z"/><path class="cls-9" d="M202.28,202.52c-.67.58-1.37,1.17-2.08,1.74v12.92c.71-.57,1.41-1.15,2.08-1.74V202.52Z"/><path class="cls-9" d="M198,208.47c-.75.56-1.51,1.12-2.28,1.67v10.42c.77-.55,1.53-1.11,2.28-1.67V208.47Z"/><path class="cls-15" d="M193.38,214.76c-.8.53-1.62,1.05-2.45,1.56v7.42c.83-.52,1.65-1,2.45-1.57v-7.41Z"/><path class="cls-15" d="M188.37,219.78c-.86.5-1.74,1-2.63,1.47v5.49l2.63-1.47v-5.49Z"/><path class="cls-10" d="M129.77,243c-1.26.13-2.53.24-3.8.35,1.27-.11,2.54-.22,3.8-.35Z"/><path class="cls-15" d="M83.51,243.9c-1.23-.18-2.45-.37-3.67-.57v2.13c1.22.2,2.44.38,3.67.56V243.9Z"/><path class="cls-15" d="M98.65,245.42q-1.94-.12-3.84-.27v2.12q1.91.15,3.84.27v-2.12Z"/><path class="cls-15" d="M106.49,245.72c-1.31,0-2.62-.06-3.92-.11v2.12c1.3.06,2.61.09,3.92.12v-2.13Z"/><path class="cls-15" d="M114.37,245.72c-1.3,0-2.61,0-3.92,0v2.12c1.31,0,2.62,0,3.92,0v-2.12Z"/><path class="cls-15" d="M122.15,245.39c-1.28.08-2.57.15-3.86.2v2.13c1.29-.06,2.58-.12,3.86-.2v-2.13Z"/><path class="cls-15" d="M137.19,243.85c-1.22.17-2.45.34-3.69.49v2.12c1.24-.15,2.47-.31,3.69-.49v-2.12Z"/><path class="cls-15" d="M144.45,242.64c-1.19.23-2.39.44-3.59.64v2.12c1.2-.2,2.4-.41,3.59-.63v-2.13Z"/><path class="cls-15" d="M151.47,241.17c-1.15.27-2.31.52-3.48.77v2.12c1.17-.24,2.33-.5,3.48-.77v-2.12Z"/><path class="cls-15" d="M158.28,239.43c-1.11.31-2.23.61-3.37.9v2.12c1.14-.28,2.26-.58,3.37-.89v-2.13Z"/><path class="cls-15" d="M164.84,237.44c-1.07.36-2.16.7-3.26,1v2.13c1.1-.34,2.19-.68,3.26-1v-2.13Z"/><path class="cls-15" d="M177.12,232.76c-1,.43-2,.84-3,1.25v2.13c1-.41,2-.83,3-1.26v-2.12Z"/><path class="cls-15" d="M182.8,230.09c-.92.46-1.85.91-2.8,1.36v2.12c.95-.44,1.88-.9,2.8-1.36v-2.12Z"/><path class="cls-15" d="M188.17,227.2c-.86.49-1.74,1-2.63,1.46v2.13c.89-.48,1.77-1,2.63-1.47V227.2Z"/><path class="cls-15" d="M193.2,224.11c-.81.53-1.64,1.06-2.48,1.57v2.13c.84-.52,1.67-1.05,2.48-1.58v-2.12Z"/><path class="cls-15" d="M197.85,220.84c-.75.56-1.51,1.11-2.28,1.66v2.12q1.16-.81,2.28-1.65v-2.13Z"/><path class="cls-15" d="M202.13,217.39c-.68.59-1.38,1.17-2.1,1.75v2.13c.72-.58,1.42-1.17,2.1-1.76v-2.12Z"/><path class="cls-15" d="M206,213.78c-.6.61-1.23,1.22-1.88,1.82v2.13c.65-.61,1.28-1.21,1.88-1.83v-2.12Z"/><path class="cls-15" d="M212.47,206.08c-.47.66-.95,1.33-1.46,2v2.13c.51-.66,1-1.32,1.46-2v-2.12Z"/><path class="cls-15" d="M215,202c-.38.68-.79,1.36-1.22,2v2.12c.43-.67.84-1.35,1.22-2V202Z"/><path class="cls-15" d="M217.1,197.84c-.3.71-.63,1.42-1,2.12v2.12c.35-.7.68-1.4,1-2.11v-2.13Z"/><path class="cls-15" d="M218.68,193.56c-.22.72-.46,1.44-.72,2.15v2.13q.39-1.08.72-2.16v-2.12Z"/><path class="cls-15" d="M83.51,247.71c-1.23-.18-2.45-.36-3.67-.56v2.12c1.22.2,2.44.39,3.67.56v-2.12Z"/><path class="cls-15" d="M91,248.62q-1.91-.19-3.78-.42v2.12q1.88.24,3.78.42v-2.12Z"/><path class="cls-15" d="M98.65,249.23q-1.94-.1-3.84-.27v2.13q1.91.15,3.84.27v-2.13Z"/><path class="cls-15" d="M106.49,249.54c-1.31,0-2.62-.06-3.92-.11v2.12c1.3,0,2.61.09,3.92.11v-2.12Z"/><path class="cls-15" d="M114.37,249.53c-1.3,0-2.61,0-3.92,0v2.13c1.31,0,2.62,0,3.92,0v-2.12Z"/><path class="cls-15" d="M122.15,249.21c-1.28.08-2.57.14-3.86.2v2.12c1.29-.05,2.58-.12,3.86-.2v-2.12Z"/><path class="cls-15" d="M137.19,247.66c-1.22.18-2.45.34-3.69.5v2.12c1.24-.15,2.47-.32,3.69-.5v-2.12Z"/><path class="cls-15" d="M151.47,245c-1.15.26-2.31.52-3.48.76v2.13c1.17-.25,2.33-.5,3.48-.77V245Z"/><path class="cls-15" d="M158.28,243.25c-1.11.31-2.23.61-3.37.9v2.12c1.14-.29,2.26-.59,3.37-.9v-2.12Z"/><path class="cls-15" d="M164.84,241.26c-1.07.35-2.16.69-3.26,1v2.12c1.1-.33,2.19-.68,3.26-1v-2.12Z"/><path class="cls-15" d="M177.12,236.57c-1,.43-2,.85-3,1.26V240c1-.41,2-.83,3-1.25v-2.13Z"/><path class="cls-15" d="M182.8,233.9c-.92.46-1.85.92-2.8,1.36v2.13c.95-.45,1.88-.9,2.8-1.37V233.9Z"/><path class="cls-15" d="M197.85,224.66q-1.12.84-2.28,1.65v2.13c.77-.55,1.53-1.1,2.28-1.66v-2.12Z"/><path class="cls-15" d="M202.13,221.2c-.68.59-1.38,1.18-2.1,1.76v2.12c.72-.58,1.42-1.16,2.1-1.75V221.2Z"/><path class="cls-15" d="M206,217.59c-.6.62-1.23,1.23-1.88,1.83v2.12c.65-.6,1.28-1.21,1.88-1.82v-2.13Z"/><path class="cls-15" d="M212.47,209.89c-.47.67-.95,1.33-1.46,2V214c.51-.66,1-1.32,1.46-2v-2.12Z"/><path class="cls-15" d="M217.1,201.66c-.3.71-.63,1.41-1,2.11v2.13c.35-.7.68-1.41,1-2.12v-2.12Z"/><path class="cls-15" d="M218.68,197.37c-.22.73-.46,1.44-.72,2.16v2.12c.26-.71.5-1.43.72-2.15v-2.13Z"/><path class="cls-15" d="M219.75,193c-.13.74-.29,1.47-.46,2.21v2.12c.17-.73.33-1.47.46-2.21V193Z"/><path class="cls-15" d="M83.51,251.53c-1.23-.18-2.45-.37-3.67-.57v2.13c1.22.2,2.44.38,3.67.56v-2.12Z"/><path class="cls-15" d="M91,252.44q-1.91-.19-3.78-.42v2.12q1.88.23,3.78.42v-2.12Z"/><path class="cls-15" d="M122.15,253c-1.28.08-2.57.15-3.86.2v2.13c1.29-.06,2.58-.12,3.86-.2V253Z"/><path class="cls-15" d="M129.77,252.39c-1.26.13-2.53.25-3.8.36v2.12c1.27-.1,2.54-.22,3.8-.35v-2.13Z"/><path class="cls-15" d="M137.19,251.48c-1.22.17-2.45.34-3.69.49v2.13c1.24-.16,2.47-.32,3.69-.5v-2.12Z"/><path class="cls-15" d="M144.45,250.27c-1.19.23-2.39.44-3.59.64V253c1.2-.2,2.4-.41,3.59-.63v-2.13Z"/><path class="cls-15" d="M151.47,248.8c-1.15.27-2.31.52-3.48.77v2.12c1.17-.24,2.33-.5,3.48-.77V248.8Z"/><path class="cls-15" d="M164.84,245.07c-1.07.36-2.16.7-3.26,1v2.13c1.1-.34,2.19-.68,3.26-1v-2.13Z"/><path class="cls-15" d="M171.11,242.85c-1,.39-2.05.77-3.1,1.14v2.12c1.05-.37,2.08-.75,3.1-1.14v-2.12Z"/><path class="cls-15" d="M182.8,237.72c-.92.46-1.85.91-2.8,1.36v2.12c.95-.44,1.88-.9,2.8-1.36v-2.12Z"/><path class="cls-15" d="M188.17,234.83c-.86.49-1.74,1-2.63,1.46v2.13c.89-.48,1.77-1,2.63-1.47v-2.12Z"/><path class="cls-15" d="M193.2,231.74c-.81.53-1.64,1.06-2.48,1.57v2.13c.84-.52,1.67-1,2.48-1.58v-2.12Z"/><path class="cls-15" d="M197.85,228.47c-.75.56-1.51,1.11-2.28,1.66v2.12q1.16-.81,2.28-1.65v-2.13Z"/><path class="cls-15" d="M202.13,225c-.68.59-1.38,1.17-2.1,1.75v2.13c.72-.58,1.42-1.17,2.1-1.76V225Z"/><path class="cls-15" d="M209.45,217.63c-.54.64-1.09,1.27-1.67,1.9v2.13c.58-.63,1.13-1.27,1.67-1.91v-2.12Z"/><path class="cls-15" d="M212.47,213.71c-.47.66-.95,1.33-1.46,2v2.13c.51-.66,1-1.32,1.46-2v-2.12Z"/><path class="cls-15" d="M215,209.66c-.38.68-.79,1.36-1.22,2v2.12c.43-.67.84-1.35,1.22-2v-2.12Z"/><path class="cls-15" d="M217.1,205.47c-.3.71-.63,1.42-1,2.12v2.12c.35-.7.68-1.4,1-2.11v-2.13Z"/><path class="cls-15" d="M218.68,201.19c-.22.72-.46,1.44-.72,2.15v2.13q.39-1.08.72-2.16v-2.12Z"/><path class="cls-15" d="M219.75,196.78c-.13.74-.29,1.48-.46,2.21v2.13c.17-.74.33-1.47.46-2.21v-2.13Z"/><path class="cls-10" d="M91,244.81q-1.91-.19-3.78-.42v2.12q1.88.23,3.78.42v-2.12Z"/><path class="cls-10" d="M129.77,244.76c-1.26.13-2.53.25-3.8.36v2.12c1.27-.1,2.54-.22,3.8-.35v-2.13Z"/><path class="cls-10" d="M171.11,235.22c-1,.39-2.05.77-3.1,1.14v2.12c1.05-.37,2.08-.75,3.1-1.14v-2.12Z"/><path class="cls-10" d="M209.45,210c-.54.64-1.09,1.27-1.67,1.9V214c.58-.63,1.13-1.27,1.67-1.91V210Z"/><path class="cls-10" d="M219.75,189.15c-.13.74-.29,1.48-.46,2.21v2.13c.17-.74.33-1.47.46-2.21v-2.13Z"/><path class="cls-10" d="M129.77,248.58c-1.26.13-2.53.25-3.8.35v2.12c1.27-.1,2.54-.22,3.8-.35v-2.12Z"/><path class="cls-10" d="M144.45,246.46c-1.19.22-2.39.43-3.59.63v2.13c1.2-.2,2.4-.42,3.59-.64v-2.12Z"/><path class="cls-10" d="M171.11,239c-1,.39-2.05.77-3.1,1.15v2.12c1.05-.37,2.08-.75,3.1-1.14V239Z"/><path class="cls-10" d="M188.17,231c-.86.5-1.74,1-2.63,1.47v2.12c.89-.48,1.77-1,2.63-1.46V231Z"/><path class="cls-10" d="M193.2,227.92c-.81.54-1.64,1.06-2.48,1.58v2.12c.84-.52,1.67-1,2.48-1.57v-2.13Z"/><path class="cls-10" d="M209.45,213.81c-.54.64-1.09,1.28-1.67,1.91v2.12c.58-.63,1.13-1.26,1.67-1.9v-2.13Z"/><path class="cls-10" d="M215,205.84c-.38.69-.79,1.37-1.22,2V210c.43-.68.84-1.36,1.22-2v-2.13Z"/><path class="cls-10" d="M98.65,253.05q-1.94-.12-3.84-.27v2.12q1.91.15,3.84.27v-2.12Z"/><path class="cls-10" d="M106.49,253.35c-1.31,0-2.62-.06-3.92-.11v2.12c1.3.06,2.61.09,3.92.12v-2.13Z"/><path class="cls-10" d="M114.37,253.35c-1.3,0-2.61,0-3.92,0v2.12c1.31,0,2.62,0,3.92,0v-2.12Z"/><path class="cls-10" d="M158.28,247.06c-1.11.31-2.23.61-3.37.9v2.12c1.14-.28,2.26-.58,3.37-.89v-2.13Z"/><path class="cls-10" d="M177.12,240.39c-1,.43-2,.84-3,1.25v2.13c1-.41,2-.83,3-1.26v-2.12Z"/><path class="cls-10" d="M206,221.41c-.6.61-1.23,1.22-1.88,1.82v2.13c.65-.6,1.28-1.21,1.88-1.83v-2.12Z"/></g></g></g><path class="cls-8" d="M219.6,144.19v-1c-.14-.73-.32-1.46-.51-2.18v1c.19.73.37,1.45.51,2.19Zm-1.15-4.36v-1c-.24-.72-.49-1.43-.77-2.14v1c.28.71.53,1.42.77,2.14Zm-1.66-4.25v-1c-.32-.69-.66-1.39-1-2.08v1c.36.69.7,1.38,1,2.08Zm-2.16-4.15v-1c-.4-.68-.81-1.36-1.25-2v1c.44.67.85,1.34,1.25,2Zm-2.62-4v-1c-.48-.67-1-1.32-1.49-2v1c.52.65,1,1.31,1.49,2Zm-3.08-3.89v-1c-.55-.64-1.12-1.27-1.7-1.89v1c.58.62,1.15,1.25,1.7,1.88Zm-3.52-3.74v-1c-.62-.61-1.26-1.21-1.91-1.81v1c.65.59,1.29,1.2,1.91,1.81Zm-3.92-3.58v-1c-.69-.58-1.4-1.16-2.12-1.73v1c.72.57,1.43,1.14,2.12,1.73Zm-4.34-3.43v-1q-1.12-.84-2.31-1.65v1c.79.54,1.56,1.09,2.31,1.64Zm-4.7-3.23v-1c-.82-.53-1.66-1-2.51-1.56v1c.85.51,1.69,1,2.51,1.56Zm-5.08-3.06v-1c-.88-.49-1.76-1-2.66-1.45v1c.9.47,1.78.95,2.66,1.45Zm-5.43-2.86v-1q-1.4-.69-2.82-1.35v1q1.42.66,2.82,1.35ZM219.6,142v-1c-.14-.73-.32-1.46-.51-2.18v1c.19.73.37,1.46.51,2.19Zm-1.15-4.36V136.6c-.24-.71-.49-1.42-.77-2.13v1c.28.71.53,1.42.77,2.14Zm-3.82-8.39v-1c-.4-.68-.81-1.35-1.25-2v1c.44.67.85,1.35,1.25,2Zm-2.62-4v-1c-.48-.66-1-1.32-1.49-2v1c.52.65,1,1.3,1.49,2Zm-3.08-3.89v-1c-.55-.64-1.12-1.26-1.7-1.89v1c.58.62,1.15,1.25,1.7,1.88Zm-3.52-3.74v-1c-.62-.61-1.26-1.21-1.91-1.81v1c.65.59,1.29,1.2,1.91,1.81ZM201.49,114v-1c-.69-.58-1.4-1.15-2.12-1.72v1c.72.57,1.43,1.15,2.12,1.73Zm-14.12-9.72v-1c-.88-.49-1.76-1-2.66-1.45v1c.9.47,1.78,1,2.66,1.45Zm-5.43-2.86v-1q-1.4-.69-2.82-1.35v1q1.42.66,2.82,1.35Zm37.66,38.36v-1c-.14-.74-.32-1.46-.51-2.19v1c.19.72.37,1.45.51,2.18Zm-1.15-4.36v-1c-.24-.72-.49-1.43-.77-2.14v1c.28.7.53,1.42.77,2.13ZM212,123.05v-1c-.48-.66-1-1.32-1.49-2v1c.52.65,1,1.31,1.49,2Zm-3.08-3.89v-1c-.55-.63-1.12-1.26-1.7-1.88v1c.58.62,1.15,1.25,1.7,1.89Zm-3.52-3.75v-1c-.62-.61-1.26-1.22-1.91-1.81v1c.65.6,1.29,1.2,1.91,1.81Zm-3.92-3.58v-1c-.69-.59-1.4-1.16-2.12-1.73v1c.72.56,1.43,1.14,2.12,1.72Zm-14.12-9.72v-1c-.88-.49-1.76-1-2.66-1.45v1c.9.48,1.78,1,2.66,1.45Zm-5.43-2.86v-1q-1.4-.69-2.82-1.35v1c.95.44,1.89.89,2.82,1.34Zm37.66,38.38v-1c-.14-.73-.32-1.46-.51-2.18v1c.19.72.37,1.45.51,2.18Zm-1.15-4.35v-1.05c-.24-.71-.49-1.43-.77-2.13v1c.28.71.53,1.42.77,2.14ZM208.93,117v-1c-.55-.64-1.12-1.27-1.7-1.89v1c.58.63,1.15,1.26,1.7,1.89Zm-3.52-3.75v-1c-.62-.61-1.26-1.21-1.91-1.81v1c.65.6,1.29,1.2,1.91,1.81Zm-3.92-3.57v-1c-.69-.58-1.4-1.16-2.12-1.73v1.05c.72.57,1.43,1.14,2.12,1.73Zm-43.81-18v-6.1a173.39,173.39,0,0,0-29.88-5.35v6.1a173.39,173.39,0,0,1,29.88,5.35ZM123.88,86v-6.1q-5.8-.42-11.78-.48-4.41,0-8.73.11v6.1q4.32-.15,8.73-.11,6,.06,11.78.48Zm95.72,49.43v-1c-.14-.73-.32-1.46-.51-2.18v1c.19.72.37,1.45.51,2.18Zm-1.15-4.36v-1c-.24-.71-.49-1.42-.77-2.13v1c.28.71.53,1.42.77,2.14Zm-9.52-16.29v-1c-.55-.64-1.12-1.26-1.7-1.89v1c.58.62,1.15,1.25,1.7,1.89ZM205.41,111v-1c-.62-.61-1.26-1.21-1.91-1.81v1c.65.6,1.29,1.2,1.91,1.81Zm14.19,22.22v-1c-.14-.74-.32-1.46-.51-2.19v1c.19.72.37,1.45.51,2.18Zm-10.67-20.65v-1c-.55-.63-1.12-1.26-1.7-1.88v1c.58.62,1.15,1.25,1.7,1.89Zm-3.52-3.75v-1c-.62-.61-1.26-1.22-1.91-1.81v1c.65.6,1.29,1.2,1.91,1.81Zm9.22,18.2v-11.3c-.4-.68-.81-1.35-1.25-2V125c.44.67.85,1.34,1.25,2ZM167.47,85.33V79.25a166.84,166.84,0,0,0-39.67-8.4v6.08a167.34,167.34,0,0,1,39.67,8.4Zm-43.59-8.72V70.53q-5.8-.42-11.78-.48a188.51,188.51,0,0,0-31.65,2.32v6.08a188.52,188.52,0,0,1,31.65-2.31q6,.06,11.78.47Zm68.57,21v-8c-.82-.52-1.66-1-2.51-1.55v17.74c.85.51,1.69,1,2.51,1.56V97.6ZM212,120.87v-14c-.48-.66-1-1.32-1.49-2v14c.52.65,1,1.31,1.49,2Zm4.78,12.53V114.78c-.32-.7-.66-1.4-1-2.09v18.63c.36.69.7,1.38,1,2.08ZM187.37,99.7V83.42c-.88-.5-1.76-1-2.66-1.46V98.25c.9.48,1.78,1,2.66,1.45Zm21.56,10.62V98.55c-.55-.63-1.12-1.26-1.7-1.88v11.77c.58.62,1.15,1.25,1.7,1.88Zm-11.78.28V87.8c-.75-.55-1.52-1.1-2.31-1.64V109c.79.54,1.56,1.09,2.31,1.64Zm21.3,17.28V114.27c-.24-.71-.49-1.43-.77-2.13v14.63c.28.7.53,1.42.77,2.13v-1Zm-17-20.42V89.64c-.69-.58-1.4-1.16-2.12-1.72v17.81c.72.57,1.43,1.15,2.12,1.73ZM171.16,77.29V71.21c-.95-.37-1.91-.72-2.88-1.07v6.08c1,.35,1.93.71,2.88,1.07Zm-5.55-2V69.22l-3-1v6.08l3,1Zm-5.79-1.8V67.41l-3.08-.86v6.09c1,.27,2.06.56,3.08.86Zm-6-1.61V65.81l-3.19-.76v6.09c1.08.24,2.14.49,3.19.75Zm-6.8-1.53V64.28a180.34,180.34,0,0,0-19.25-2.83v6.09a177.85,177.85,0,0,1,19.25,2.82Zm-23.17-3.14V61.14q-5.8-.42-11.78-.48a192.24,192.24,0,0,0-20.55.89v6.08a192.24,192.24,0,0,1,20.55-.89q6,.06,11.78.48Zm95.72,63.59V114.64c-.14-.74-.32-1.46-.51-2.19v16.18c.19.72.37,1.45.51,2.18Zm-37.66-34V74.08q-1.4-.69-2.82-1.35V95.5c.95.44,1.89.88,2.82,1.34Zm23.47,9.74V89.73c-.62-.61-1.26-1.21-1.91-1.81v16.85c.65.59,1.29,1.2,1.91,1.81Zm-132-49.4a185.66,185.66,0,0,1,38.69-3.59c59.54.59,107.23,28.18,108.23,62.07v39c-1-33.89-48.69-61.47-108.23-62.07a185.65,185.65,0,0,0-38.69,3.6v-39Z"/><path class="cls-10" d="M219.09,112.45c.19.73.37,1.45.51,2.19v16.17c-.14-.73-.32-1.46-.51-2.18V112.45Z"/><path class="cls-10" d="M219.09,130.05c.19.73.37,1.45.51,2.19v1c-.14-.73-.32-1.46-.51-2.18v-1Z"/><path class="cls-10" d="M219.09,132.23c.19.72.37,1.45.51,2.18v1c-.14-.73-.32-1.46-.51-2.18v-1Z"/><path class="cls-10" d="M219.09,134.41c.19.72.37,1.45.51,2.18v1c-.14-.73-.32-1.46-.51-2.18v-1Z"/><path class="cls-10" d="M219.09,136.6c.19.73.37,1.45.51,2.19v1c-.14-.73-.32-1.46-.51-2.18v-1Z"/><path class="cls-10" d="M219.09,138.78c.19.72.37,1.45.51,2.18v1c-.14-.73-.32-1.46-.51-2.19v-1Z"/><path class="cls-10" d="M219.09,141c.19.72.37,1.45.51,2.18v1c-.14-.74-.32-1.46-.51-2.19v-1Z"/><path class="cls-10" d="M218.45,127.88v1c-.24-.71-.49-1.43-.77-2.13v-.26c.28.71.53,1.42.77,2.14v-.77Z"/><path class="cls-10" d="M217.68,127.92c.28.71.53,1.42.77,2.13v1c-.24-.72-.49-1.43-.77-2.14v-1Z"/><path class="cls-10" d="M217.68,130.1c.28.7.53,1.42.77,2.13v1.05c-.24-.72-.49-1.43-.77-2.14v-1Z"/><path class="cls-10" d="M217.68,132.29c.28.71.53,1.42.77,2.14v1c-.24-.71-.49-1.43-.77-2.13v-1Z"/><path class="cls-10" d="M217.68,134.47c.28.71.53,1.42.77,2.13v1.05c-.24-.72-.49-1.43-.77-2.14v-1Z"/><path class="cls-10" d="M217.68,136.66c.28.71.53,1.42.77,2.14v1c-.24-.72-.49-1.43-.77-2.14v-1Z"/><path class="cls-10" d="M213.38,126.19c.44.67.85,1.34,1.25,2v1c-.4-.68-.81-1.36-1.25-2v-1Z"/><path class="cls-10" d="M213.38,128.39c.44.66.85,1.34,1.25,2v1c-.4-.68-.81-1.35-1.25-2v-1Z"/><path class="cls-10" d="M215.77,132.47c.36.69.7,1.39,1,2.08v1c-.32-.7-.66-1.39-1-2.08v-1Z"/><path class="cls-10" d="M210.52,120.05c.52.65,1,1.31,1.49,2v1c-.48-.66-1-1.32-1.49-2v-1Z"/><path class="cls-10" d="M210.52,122.23c.52.65,1,1.31,1.49,2v1c-.48-.66-1-1.31-1.49-2v-1Z"/><path class="cls-10" d="M210.52,124.43c.52.65,1,1.3,1.49,2v1c-.48-.66-1-1.32-1.49-2v-1Z"/><path class="cls-10" d="M207.23,109.7c.58.62,1.15,1.25,1.7,1.88v1c-.55-.64-1.12-1.27-1.7-1.89v-1Z"/><path class="cls-10" d="M207.23,111.87c.58.63,1.15,1.25,1.7,1.89v1c-.55-.64-1.12-1.27-1.7-1.89v-1Z"/><path class="cls-10" d="M207.23,114.05c.58.62,1.15,1.25,1.7,1.89v1c-.55-.63-1.12-1.26-1.7-1.89v-1Z"/><path class="cls-10" d="M207.23,116.25c.58.62,1.15,1.25,1.7,1.88v1c-.55-.64-1.12-1.27-1.7-1.89v-1Z"/><path class="cls-10" d="M207.23,118.42c.58.63,1.15,1.25,1.7,1.89v1c-.55-.63-1.12-1.26-1.7-1.88v-1Z"/><path class="cls-10" d="M207.23,120.62c.58.62,1.15,1.25,1.7,1.89v1c-.55-.63-1.12-1.26-1.7-1.88v-1Z"/><path class="cls-10" d="M203.5,106c.65.59,1.29,1.2,1.91,1.81v1c-.62-.61-1.26-1.21-1.91-1.81v-1Z"/><path class="cls-10" d="M203.5,108.2c.65.6,1.29,1.2,1.91,1.81v1c-.62-.61-1.26-1.21-1.91-1.81v-1Z"/><path class="cls-10" d="M203.5,110.38c.65.6,1.29,1.2,1.91,1.81v1c-.62-.61-1.26-1.21-1.91-1.81v-1Z"/><path class="cls-10" d="M203.5,112.58c.65.59,1.29,1.2,1.91,1.81v1c-.62-.61-1.26-1.21-1.91-1.81v-1Z"/><path class="cls-10" d="M203.5,114.75c.65.6,1.29,1.2,1.91,1.81v1c-.62-.61-1.26-1.22-1.91-1.81v-1Z"/><path class="cls-10" d="M203.5,117c.65.6,1.29,1.2,1.91,1.81v1c-.62-.61-1.26-1.22-1.91-1.81v-1Z"/><path class="cls-10" d="M199.37,106.88c.72.57,1.43,1.15,2.12,1.73v1c-.69-.59-1.4-1.16-2.12-1.73v-1.05Z"/><path class="cls-10" d="M199.37,109.08c.72.57,1.43,1.14,2.12,1.73v1c-.69-.58-1.4-1.16-2.12-1.73v-1Z"/><path class="cls-10" d="M199.37,111.26c.72.57,1.43,1.14,2.12,1.72v1c-.69-.58-1.4-1.16-2.12-1.73v-1Z"/><path class="cls-10" d="M199.37,113.45c.72.57,1.43,1.15,2.12,1.73v1c-.69-.59-1.4-1.16-2.12-1.73v-1Z"/><path class="cls-10" d="M194.84,110.11q1.18.81,2.31,1.65v1c-.75-.55-1.52-1.1-2.31-1.64v-1Z"/><path class="cls-10" d="M192.45,106.32v1.05c-.82-.53-1.66-1.05-2.51-1.56V105c.85.51,1.69,1,2.51,1.56v-.24Z"/><path class="cls-10" d="M189.94,107c.85.51,1.69,1,2.51,1.56v1c-.82-.53-1.66-1-2.51-1.56v-1Z"/><path class="cls-10" d="M184.71,99.64c.9.47,1.78,1,2.66,1.45v1c-.88-.49-1.76-1-2.66-1.45v-1Z"/><path class="cls-10" d="M184.71,101.81c.9.48,1.78,1,2.66,1.45v1c-.88-.49-1.76-1-2.66-1.45v-1Z"/><path class="cls-10" d="M184.71,104c.9.48,1.78,1,2.66,1.45v1c-.88-.5-1.76-1-2.66-1.45v-1Z"/><path class="cls-10" d="M179.12,96.88q1.42.66,2.82,1.35v1c-.93-.45-1.87-.9-2.82-1.34v-1Z"/><path class="cls-10" d="M179.12,99.06q1.42.66,2.82,1.35v1q-1.4-.69-2.82-1.35v-1Z"/><path class="cls-10" d="M179.12,101.25q1.42.66,2.82,1.35v1q-1.4-.69-2.82-1.35v-1Z"/><path class="cls-10" d="M217.68,112.14c.28.7.53,1.42.77,2.13v14.38c-.24-.72-.49-1.43-.77-2.14V112.14Z"/><path class="cls-10" d="M215.77,112.69c.36.69.7,1.39,1,2.09V133.4c-.32-.7-.66-1.39-1-2.08V112.69Z"/><path class="cls-10" d="M213.38,113.74c.44.67.85,1.34,1.25,2v11.3c-.4-.68-.81-1.35-1.25-2v-11.3Z"/><path class="cls-10" d="M210.52,104.9c.52.65,1,1.31,1.49,2v14c-.48-.66-1-1.32-1.49-2v-14Z"/><path class="cls-10" d="M207.23,96.67c.58.62,1.15,1.25,1.7,1.88v11.77c-.55-.63-1.12-1.26-1.7-1.88V96.67Z"/><path class="cls-10" d="M203.5,87.92c.65.6,1.29,1.2,1.91,1.81v16.85c-.62-.61-1.26-1.22-1.91-1.81V87.92Z"/><path class="cls-10" d="M199.37,87.92c.72.56,1.43,1.14,2.12,1.72v17.82c-.69-.58-1.4-1.16-2.12-1.73V87.92Z"/><path class="cls-10" d="M194.84,86.16c.79.54,1.56,1.09,2.31,1.64v22.8c-.75-.55-1.52-1.1-2.31-1.64V86.16Z"/><path class="cls-10" d="M189.94,88.07c.85.51,1.69,1,2.51,1.55v16.94c-.82-.53-1.66-1-2.51-1.56V88.07Z"/><path class="cls-10" d="M184.71,82c.9.48,1.78,1,2.66,1.46V99.7c-.88-.49-1.76-1-2.66-1.45V82Z"/><path class="cls-10" d="M179.12,72.73q1.42.66,2.82,1.35V96.84c-.93-.46-1.87-.9-2.82-1.34V72.73Z"/><path class="cls-16" d="M123.88,65V63.26q-5.8-.42-11.78-.48c-1.52,0-3,0-4.52,0v1.69c1.5,0,3,0,4.52,0,4,0,7.91.21,11.78.48Zm-32.33-3.4a192.24,192.24,0,0,1,20.55-.89q6,.06,11.78.48v6.08q-5.8-.42-11.78-.48a192.24,192.24,0,0,0-20.55.89V61.55Z"/><path class="cls-16" d="M123.88,74.42v-1.7q-5.8-.41-11.78-.47-5.25-.06-10.38.17v1.69c3.42-.15,6.88-.2,10.38-.17q6,.06,11.78.48Zm-43.43-2a188.51,188.51,0,0,1,31.65-2.32q6,.06,11.78.48v6.08q-5.8-.4-11.78-.47a188.52,188.52,0,0,0-31.65,2.31V72.37Z"/><path class="cls-16" d="M123.88,83.88V82.19q-4.81-.34-9.75-.44v1.69q4.94.09,9.75.44Zm-20.51-4.34q4.32-.15,8.73-.11,6,.06,11.78.48V86q-5.8-.42-11.78-.48-4.41,0-8.73.11v-6.1Z"/><path class="cls-10" d="M127.8,80.23a173.39,173.39,0,0,1,29.88,5.35v6.1a173.39,173.39,0,0,0-29.88-5.35v-6.1Z"/><path class="cls-10" d="M127.8,70.85a166.84,166.84,0,0,1,39.67,8.4v6.08a167.34,167.34,0,0,0-39.67-8.4V70.85Z"/><path class="cls-10" d="M127.8,61.45a180.34,180.34,0,0,1,19.25,2.83v6.08a177.85,177.85,0,0,0-19.25-2.82V61.45Z"/><path class="cls-10" d="M150.66,65.05l3.19.76v6.08c-1-.26-2.11-.51-3.19-.75V65.05Z"/><path class="cls-10" d="M156.74,66.55l3.08.86V73.5c-1-.3-2-.59-3.08-.86V66.55Z"/><path class="cls-10" d="M162.61,68.25l3,1V75.3l-3-1V68.25Z"/><path class="cls-10" d="M168.28,70.14c1,.35,1.93.7,2.88,1.07v6.08c-.95-.36-1.91-.72-2.88-1.07V70.14Z"/><path class="cls-10" d="M107.58,62.79c1.5,0,3,0,4.52,0q6,.06,11.78.48V65c-3.87-.27-7.8-.44-11.78-.48-1.52,0-3,0-4.52,0V62.79Z"/><path class="cls-10" d="M101.72,72.42q5.13-.23,10.38-.17,6,.06,11.78.47v1.7q-5.8-.42-11.78-.48c-3.5,0-7,0-10.38.17V72.42Z"/><path class="cls-10" d="M114.13,81.75q4.94.09,9.75.44v1.69q-4.81-.34-9.75-.44V81.75Z"/><path class="cls-8" d="M29.76,93.08c2.56-1.72,3.1-5.63,1.32-6-2.06-.45-4.52,3.83-3.35,5.81.4.66,1.17.74,2,.22Zm-26,23c1.11-2.53,1.25-6.6.44-6.3s-1.82,6.53-1,6.89c.08,0,.27,0,.56-.59ZM0,150.86c0-.38,0-.75,0-1.13.56-18.35,14.7-34.74,36.84-46.06l.24.29.55-.7h0l.55-.69C31.61,94.62,30,92.73,26,100.1c-1.86,3.63-3.56,5.11-5.05,4.37C12.6,99,12.6,99,10.37,105.61c-3.71,12.59-3.71,12.59-4.77,13-1.29.39-2,.61-2.88,5-1.58,9.81-1.58,9.81-2,14.38a20.86,20.86,0,0,1-.52,3.34L0,141v9.82Zm0,4.95v-39c0-.37,0-.75,0-1.12C.65,95,18.55,76.77,45.71,65.52v39C15.49,118.1.11,135.35,0,155.81Z"/><path class="cls-9" d="M37.66,103.26ZM16,114.9v-1.69c-.39.37-.78.74-1.16,1.12V116c.38-.38.77-.75,1.16-1.12Zm0-3.33v-1.71a62.6,62.6,0,0,0-6.39,7v1.71a62.6,62.6,0,0,1,6.39-7ZM0,150.86V143l.1.27a30,30,0,0,0,.69-4.51c.65-6,1.13-8.65,2.18-14.5.68-3.25,1.07-3.38,2.35-3.81,1.13-.56,1.13-.56,5.6-14.41,1.67-4.84,1.67-4.84,9.31.12,1.34.67,3.56.25,6.6-5.48,3-5.45,3.66-4.64,10,3C14.72,115,.58,131.38,0,149.73c0,.38,0,.75,0,1.13Z"/><path class="cls-10" d="M0,143l.1.27a30,30,0,0,0,.69-4.51c.65-6,1.13-8.65,2.18-14.5.67-3.2,1-3.33,2.35-3.81,1.13-.56,1.13-.56,5.6-14.41,1.67-4.84,1.67-4.84,9.31.12,1.34.67,3.56.25,6.6-5.48,3-5.45,3.66-4.64,10,3l.24.29.55-.7h0l.55-.69c-1.48-1.79-3.46-4.17-4.93-6-.37-.38-3.71-3.46-7.84,4.63-2.51,4.61-2.51,4.61-10.44-.68-3-1.5-4.79,5-7.24,14-1.07,3.71-1.73,3.93-3,4.38-1,.55-2,1.11-4,18.72a30.93,30.93,0,0,1-.49,3.65L0,141V143Z"/><path class="cls-10" d="M3.79,110.33c.49-1,.74-.54.84-.2.56,1.83-.74,6.81-1.4,6.51S3,112,3.79,110.33Z"/><path class="cls-10" d="M29.76,87.36c1.91-1,2.79.6,2.18,2.68-.76,2.59-3.32,4.31-4.21,2.82s.28-4.44,2-5.5Z"/><path class="cls-10" d="M9.62,116.82a62.6,62.6,0,0,1,6.39-7v1.71a62.6,62.6,0,0,0-6.39,7v-1.71Z"/><path class="cls-10" d="M14.85,114.33c.38-.38.77-.75,1.16-1.12v1.69c-.39.37-.78.74-1.16,1.12v-1.69Z"/><g class="cls-1"><g class="cls-1"><path class="cls-8" d="M12.72,180.34v-27a81.83,81.83,0,0,0,19,14.88v27a81.31,81.31,0,0,1-19-14.88Zm-6.18-34.1v26.1A40,40,0,0,1,0,150.86V141c0-.12.09-.27.12-.39.39-1.65.8-3.36,1.35-3.93.24.14.73.43,1.62,4.4a10.66,10.66,0,0,0,.72,2.29c.28.57.5.83.77.9l1.8.15.34,1.79Zm38.2,60.39v-39C17.56,156.09,0,137.58,0,116.79v39c1.53,21.69,15.33,37.36,44.74,50.82Z"/><path class="cls-9" d="M.79,154.49V152.8a40.44,40.44,0,0,0,3.76,10.43v1.69A40.3,40.3,0,0,1,.79,154.49Zm0-3.33v-1.69a39.25,39.25,0,0,0,2.49,7.77v1.69a39.25,39.25,0,0,1-2.49-7.77Zm5.75,21.18v-26.1l-1.67-.13c-.33-.12-1.18-.44-2-4.28-.57-2.63-.92-3-1.12-3.27-.27.15-.75.94-1.54,3.92L0,143v7.9a40,40,0,0,0,6.54,21.48Z"/><path class="cls-10" d="M6.54,146.24l-1.67-.13c-1-.22-1.62-2.45-2-4.28-1-4.73-1.39-4.15-2.66.65A2.7,2.7,0,0,1,0,143V141l.09-.27,0-.05a13.28,13.28,0,0,1,1.18-3.81c.57-.9,1.44,2.63,1.69,3.73a9.39,9.39,0,0,0,1.22,3.41c.21.24.21.24,2.18.41l.34,1.79Z"/><path class="cls-8" d="M79.84,211.6v-2.12c1.22.2,2.44.39,3.67.56v2.12c-1.23-.17-2.45-.36-3.67-.56Zm7.38,1.05v-2.12q1.88.22,3.78.42v2.12q-1.91-.18-3.78-.42Zm7.59.77v-2.13q1.91.17,3.84.27v2.13q-1.94-.12-3.84-.27Zm7.76.46v-2.12c1.3.05,2.61.09,3.92.11V214c-1.31,0-2.62-.06-3.92-.11Zm7.88.15v-2.12c1.31,0,2.62,0,3.92,0V214c-1.3,0-2.61.05-3.92.05Zm7.84-.17v-2.12c1.29-.06,2.58-.12,3.86-.2v2.12c-1.28.08-2.57.15-3.86.2Zm7.68-.47v-2.13c1.27-.1,2.54-.22,3.8-.35V213c-1.26.13-2.53.25-3.8.36Zm7.53-.78v-2.12c1.24-.16,2.47-.32,3.69-.5v2.13c-1.22.17-2.45.34-3.69.49Zm7.36-1.06v-2.13c1.2-.2,2.4-.41,3.59-.63v2.12c-1.19.22-2.39.44-3.59.64Zm7.13-1.34v-2.12l3.48-.77v2.12c-1.15.27-2.31.52-3.48.77Zm6.92-1.61v-2.12c1.14-.29,2.26-.59,3.37-.9v2.12c-1.11.31-2.23.61-3.37.9Zm6.67-1.86v-2.12c1.1-.34,2.19-.68,3.26-1v2.12c-1.07.36-2.16.7-3.26,1Zm6.43-2.11v-2.12c1.05-.37,2.08-.76,3.1-1.15v2.13c-1,.39-2.05.77-3.1,1.14Zm6.15-2.35v-2.12c1-.41,2-.83,3-1.26V201c-1,.43-2,.84-3,1.25Zm5.84-2.56v-2.13c.95-.44,1.88-.89,2.8-1.36v2.13c-.92.46-1.85.91-2.8,1.36Zm5.54-2.79v-2.12c.89-.48,1.77-1,2.63-1.47v2.13c-.86.49-1.74,1-2.63,1.46Zm5.18-3v-2.12c.84-.52,1.67-1,2.48-1.58v2.13c-.81.53-1.64,1.05-2.48,1.57Zm4.85-3.18v-2.13q1.16-.81,2.28-1.65v2.12c-.75.56-1.51,1.11-2.28,1.66Zm4.46-3.36v-2.12c.72-.58,1.42-1.16,2.1-1.76v2.13c-.68.59-1.38,1.17-2.1,1.75Zm4.08-3.54v-2.12c.65-.6,1.28-1.21,1.88-1.83v2.13c-.6.61-1.23,1.22-1.88,1.82Zm3.67-3.7v-2.12c.58-.63,1.13-1.26,1.67-1.9v2.12c-.54.64-1.09,1.27-1.67,1.9Zm3.23-3.84v-2.12c.51-.66,1-1.32,1.46-2v2.13c-.47.66-.95,1.32-1.46,2Zm2.79-4v-2.13c.43-.67.84-1.35,1.22-2v2.13c-.38.68-.79,1.36-1.22,2Zm2.32-4.11V166.1c.35-.7.68-1.4,1-2.11v2.12c-.3.71-.63,1.42-1,2.12ZM218,164v-2.12q.39-1.06.72-2.16v2.13c-.22.72-.46,1.44-.72,2.15Zm1.33-4.35v-2.12c.17-.73.33-1.47.46-2.21v2.12c-.13.74-.29,1.48-.46,2.21ZM79.84,207.79v-2.13c1.22.2,2.44.39,3.67.57v2.12c-1.23-.18-2.45-.36-3.67-.56Zm7.38,1.05v-2.12c1.25.15,2.51.29,3.78.41v2.13q-1.91-.19-3.78-.42Zm7.59.76v-2.12q1.91.15,3.84.27v2.12q-1.94-.12-3.84-.27Zm7.76.46v-2.12c1.3.05,2.61.09,3.92.11v2.13c-1.31,0-2.62-.06-3.92-.12Zm7.88.15v-2.12c1.31,0,2.62,0,3.92,0v2.12c-1.3,0-2.61,0-3.92,0Zm7.84-.16v-2.13c1.29,0,2.58-.12,3.86-.2v2.13c-1.28.08-2.57.14-3.86.2Zm7.68-.48v-2.12c1.27-.11,2.54-.23,3.8-.36v2.13c-1.26.13-2.53.25-3.8.35Zm7.53-.78v-2.12c1.24-.15,2.47-.32,3.69-.49v2.12c-1.22.18-2.45.34-3.69.49Zm7.36-1.06v-2.12c1.2-.2,2.4-.41,3.59-.64v2.13c-1.19.22-2.39.43-3.59.63Zm7.13-1.34v-2.12c1.17-.25,2.33-.5,3.48-.77v2.12c-1.15.27-2.31.53-3.48.77Zm6.92-1.61v-2.12c1.14-.29,2.26-.59,3.37-.9v2.13c-1.11.31-2.23.61-3.37.89Zm6.67-1.85V200.8c1.1-.33,2.19-.67,3.26-1v2.13c-1.07.35-2.16.69-3.26,1Zm6.43-2.12v-2.12c1.05-.37,2.08-.75,3.1-1.14v2.12c-1,.39-2.05.77-3.1,1.14Zm6.15-2.34v-2.13c1-.41,2-.82,3-1.25v2.12c-1,.43-2,.85-3,1.26ZM180,195.9v-2.12c.95-.45,1.88-.9,2.8-1.36v2.12c-.92.46-1.85.92-2.8,1.36Zm5.54-2.78V191c.89-.48,1.77-1,2.63-1.46v2.12c-.86.5-1.74,1-2.63,1.47Zm5.18-3V188c.84-.51,1.67-1,2.48-1.57v2.12c-.81.53-1.64,1.06-2.48,1.58Zm4.85-3.19v-2.12c.77-.55,1.53-1.1,2.28-1.66v2.13c-.75.55-1.51,1.11-2.28,1.65ZM200,183.6v-2.13c.72-.58,1.42-1.16,2.1-1.75v2.12c-.68.59-1.38,1.18-2.1,1.76Zm4.08-3.54v-2.13c.65-.6,1.28-1.21,1.88-1.82v2.12c-.6.62-1.23,1.22-1.88,1.83Zm3.67-3.7v-2.13c.58-.63,1.13-1.26,1.67-1.9v2.12c-.54.64-1.09,1.28-1.67,1.91Zm3.23-3.84v-2.13c.51-.65,1-1.32,1.46-2v2.12c-.47.67-.95,1.33-1.46,2Zm2.79-4V166.4c.43-.68.84-1.36,1.22-2v2.12c-.38.69-.79,1.37-1.22,2Zm2.32-4.11v-2.12c.35-.7.68-1.41,1-2.12v2.13c-.3.71-.63,1.41-1,2.11Zm1.84-4.24V158c.26-.71.5-1.43.72-2.15V158q-.33,1.08-.72,2.16Zm1.33-4.35v-2.13c.17-.73.33-1.47.46-2.21v2.13c-.13.74-.29,1.47-.46,2.21ZM79.84,204v-2.12c1.22.2,2.44.39,3.67.56v2.12c-1.23-.17-2.45-.36-3.67-.56ZM87.22,205V202.9q1.88.22,3.78.42v2.12q-1.91-.18-3.78-.42Zm7.59.77v-2.13q1.91.17,3.84.27v2.13q-1.94-.12-3.84-.27Zm7.76.46v-2.12c1.3.05,2.61.09,3.92.11v2.12c-1.31,0-2.62-.06-3.92-.11Zm7.88.15v-2.12c1.31,0,2.62,0,3.92-.05v2.12c-1.3,0-2.61.05-3.92.05Zm7.84-.17v-2.12c1.29-.06,2.58-.12,3.86-.2V206c-1.28.08-2.57.15-3.86.2Zm7.68-.47v-2.13c1.27-.1,2.54-.22,3.8-.35v2.12c-1.26.13-2.53.25-3.8.36Zm7.53-.78v-2.12c1.24-.16,2.47-.32,3.69-.5v2.13c-1.22.17-2.45.34-3.69.49Zm7.36-1.06v-2.13c1.2-.2,2.4-.41,3.59-.63v2.12c-1.19.22-2.39.44-3.59.64Zm7.13-1.34v-2.13c1.17-.24,2.33-.5,3.48-.76v2.12c-1.15.27-2.31.52-3.48.77Zm6.92-1.61v-2.12c1.14-.29,2.26-.59,3.37-.9v2.12c-1.11.31-2.23.61-3.37.9Zm6.67-1.86V197c1.1-.34,2.19-.68,3.26-1v2.12c-1.07.35-2.16.7-3.26,1ZM168,197v-2.12c1.05-.37,2.08-.76,3.1-1.15v2.13c-1,.39-2.05.77-3.1,1.14Zm6.15-2.35v-2.12c1-.41,2-.83,3-1.26v2.13c-1,.43-2,.84-3,1.25Zm5.84-2.56V190c.95-.44,1.88-.89,2.8-1.36v2.13c-.92.46-1.85.91-2.8,1.36Zm5.54-2.79v-2.12c.89-.48,1.77-1,2.63-1.47v2.13c-.86.49-1.74,1-2.63,1.46Zm5.18-3V184.2c.84-.52,1.67-1,2.48-1.58v2.13c-.81.53-1.64,1.05-2.48,1.57Zm4.85-3.18V181q1.16-.81,2.28-1.65v2.12c-.75.56-1.51,1.11-2.28,1.66Zm4.46-3.36v-2.12c.72-.58,1.42-1.16,2.1-1.76V178c-.68.59-1.38,1.17-2.1,1.75Zm4.08-3.54v-2.12c.65-.6,1.28-1.21,1.88-1.83v2.13c-.6.61-1.23,1.22-1.88,1.82Zm3.67-3.7v-2.12c.58-.63,1.13-1.26,1.67-1.9v2.12c-.54.64-1.09,1.27-1.67,1.9ZM211,168.7v-2.12c.51-.66,1-1.32,1.46-2v2.12c-.47.67-.95,1.33-1.46,2Zm2.79-4v-2.13c.43-.67.84-1.35,1.22-2v2.13c-.38.68-.79,1.36-1.22,2Zm2.32-4.11v-2.13c.35-.7.68-1.4,1-2.11v2.12c-.3.71-.63,1.42-1,2.12Zm1.84-4.25v-2.12q.39-1.06.72-2.16v2.13c-.22.72-.46,1.44-.72,2.15Zm1.33-4.35v-2.12c.17-.73.33-1.47.46-2.21v2.12c-.13.74-.29,1.48-.46,2.21Zm-78.43,48v-5c1.2-.2,2.4-.41,3.59-.64v5c-1.19.22-2.39.43-3.59.63Zm70.28-35.37v-5c.5-.65,1-1.31,1.44-2v5q-.69,1-1.44,2ZM180,188.15v-5.49c.95-.45,1.88-.9,2.8-1.36v5.48c-.92.47-1.85.92-2.8,1.37Zm5.74-2.9v-5.49c.89-.48,1.77-1,2.63-1.47v5.49c-.86.5-1.74,1-2.63,1.47ZM133.5,201v-6.37c1.24-.16,2.47-.32,3.69-.5v6.37c-1.22.18-2.45.35-3.69.5Zm80.4-40.43v-6.37c.42-.67.83-1.36,1.21-2v6.37c-.38.69-.79,1.37-1.21,2Zm-65.91,38v-6.81c1.17-.24,2.33-.5,3.48-.76v6.8c-1.15.27-2.31.52-3.48.77Zm59.92-30.18v-6.81c.58-.62,1.13-1.26,1.67-1.9v6.8c-.54.64-1.09,1.28-1.67,1.91Zm-33.75,22.25V183.3c1-.41,2-.83,3-1.26v7.42c-1,.42-2,.84-3,1.25Zm16.77-8.46v-7.41c.83-.52,1.65-1,2.45-1.57v7.42c-.8.53-1.62,1.05-2.45,1.56Zm-65,19.56v-8.38c1.27-.11,2.54-.22,3.8-.35v8.38c-1.26.13-2.53.25-3.8.35Zm90.24-45.33V148.1c.34-.7.66-1.4,1-2.11v8.39q-.45,1.06-1,2.1ZM79.84,200V190.6c1.22.2,2.44.39,3.67.56v9.43c-1.23-.17-2.45-.36-3.67-.56Zm75.07-3v-9.88c1.14-.29,2.26-.59,3.37-.9v9.88c-1.11.31-2.23.61-3.37.9Zm49.35-24.87v-9.88c.65-.6,1.27-1.22,1.88-1.84v9.88c-.61.62-1.23,1.24-1.88,1.84ZM168,193.06V182.64c1.05-.37,2.08-.75,3.1-1.14v10.42c-1,.39-2.05.77-3.1,1.14Zm27.74-14V168.65c.77-.55,1.53-1.1,2.28-1.67V177.4c-.75.57-1.51,1.12-2.28,1.67Zm-77.46,23.22V191.47c1.29-.05,2.58-.12,3.86-.2v10.82c-1.28.08-2.57.15-3.86.2Zm99.73-50V141.43c.26-.72.5-1.44.72-2.17v10.82c-.22.73-.46,1.45-.72,2.17ZM87.22,201.08V188.16q1.88.22,3.78.42V201.5q-1.91-.19-3.78-.42Zm23.23,1.38V189.54c1.31,0,2.62,0,3.92,0v12.92c-1.3,0-2.61.05-3.92.05Zm51.13-7.29V182.25c1.1-.33,2.19-.68,3.26-1v12.92c-1.07.35-2.16.7-3.26,1ZM200.2,175.7V162.78c.71-.58,1.41-1.16,2.08-1.75V174c-.67.59-1.37,1.17-2.08,1.75Zm19.13-27.81V135c.17-.73.32-1.47.45-2.21v12.92c-.13.74-.28,1.48-.45,2.21ZM102.57,202.31V187c1.3.05,2.61.09,3.92.12v15.29c-1.31,0-2.62-.06-3.92-.11Zm-7.76-.46V185.06c1.27.1,2.55.19,3.84.26v16.79c-1.29-.07-2.57-.16-3.84-.26Zm125.5-83.37c-1.62,34.61-51.57,62.08-112.06,61.47a183.44,183.44,0,0,1-35.92-3.82v39A185,185,0,0,0,108.25,219c60.49.6,110.44-26.87,112.06-61.48v-39Z"/><path class="cls-10" d="M3.28,157.24a39.25,39.25,0,0,1-2.49-7.77v1.69a39.25,39.25,0,0,0,2.49,7.77v-1.69Z"/><path class="cls-10" d="M4.55,163.23A40.44,40.44,0,0,1,.79,152.8v1.69a40.3,40.3,0,0,0,3.76,10.43v-1.69Z"/><path class="cls-9" d="M15,178.79V176c.56.54,1.12,1.08,1.71,1.62v2.75c-.59-.54-1.15-1.08-1.71-1.62Zm3.5,3.21v-2.76q.91.8,1.86,1.56v2.75c-.63-.51-1.25-1-1.86-1.55Zm3.81,3.08v-2.76c.66.5,1.34,1,2,1.49v2.75c-.69-.49-1.37-1-2-1.48ZM26.4,188v-2.75c.72.48,1.44,1,2.18,1.41v2.76c-.74-.47-1.46-.94-2.18-1.42ZM15,173.28v-2.75c.56.54,1.12,1.08,1.71,1.62v2.75c-.59-.53-1.15-1.07-1.71-1.62Zm3.5,3.21v-2.75c.61.52,1.23,1,1.86,1.55v2.76c-.63-.52-1.25-1-1.86-1.56Zm3.81,3.08v-2.75c.66.5,1.34,1,2,1.48v2.76c-.69-.49-1.37-1-2-1.49Zm4.12,2.94v-2.76c.72.48,1.44.95,2.18,1.42v2.75c-.74-.46-1.46-.94-2.18-1.41ZM15,167.78V165c.56.55,1.12,1.09,1.71,1.62v2.76c-.59-.54-1.15-1.08-1.71-1.62Zm3.5,3.2v-2.75c.61.53,1.23,1,1.86,1.56v2.75q-.95-.76-1.86-1.56Zm3.81,3.08v-2.75c.66.5,1.34,1,2,1.49v2.75c-.69-.49-1.37-1-2-1.49ZM26.4,177v-2.75c.72.47,1.44.95,2.18,1.41v2.75c-.74-.46-1.46-.93-2.18-1.41ZM15,162.27v-2.76c.56.55,1.12,1.09,1.71,1.62v2.76c-.59-.54-1.15-1.08-1.71-1.62Zm3.5,3.21v-2.76q.91.79,1.86,1.56V167c-.63-.51-1.25-1-1.86-1.55Zm3.81,3.08V165.8c.66.5,1.34,1,2,1.49V170c-.69-.49-1.37-1-2-1.48Zm4.12,2.93v-2.75c.72.48,1.44.95,2.18,1.41v2.76c-.74-.47-1.46-.94-2.18-1.42Zm5.35-3.26a81.83,81.83,0,0,1-19-14.88v27a81.31,81.31,0,0,0,19,14.88v-27Z"/><path class="cls-11" d="M16.68,161.13c-.59-.53-1.15-1.07-1.71-1.62v2.76c.56.54,1.12,1.08,1.71,1.62v-2.76Z"/><path class="cls-10" d="M20.33,164.28q-.95-.76-1.86-1.56v2.76c.61.52,1.23,1,1.86,1.55v-2.75Z"/><path class="cls-11" d="M24.31,167.29c-.69-.49-1.37-1-2-1.49v2.76c.66.5,1.34,1,2,1.48v-2.75Z"/><path class="cls-11" d="M28.58,170.15c-.74-.46-1.46-.93-2.18-1.41v2.75c.72.48,1.44.95,2.18,1.42v-2.76Z"/><path class="cls-11" d="M16.68,166.64c-.59-.53-1.15-1.07-1.71-1.62v2.76c.56.54,1.12,1.08,1.71,1.62v-2.76Z"/><path class="cls-10" d="M20.33,169.79c-.63-.52-1.25-1-1.86-1.56V171q.91.79,1.86,1.56v-2.75Z"/><path class="cls-11" d="M24.31,172.8c-.69-.49-1.37-1-2-1.49v2.75c.66.5,1.34,1,2,1.49V172.8Z"/><path class="cls-11" d="M28.58,175.66c-.74-.46-1.46-.94-2.18-1.41V177c.72.48,1.44.95,2.18,1.41v-2.75Z"/><path class="cls-10" d="M16.68,172.15c-.59-.54-1.15-1.08-1.71-1.62v2.75c.56.55,1.12,1.09,1.71,1.62v-2.75Z"/><path class="cls-11" d="M20.33,175.29c-.63-.51-1.25-1-1.86-1.55v2.75c.61.53,1.23,1,1.86,1.56v-2.76Z"/><path class="cls-11" d="M24.31,178.3c-.69-.49-1.37-1-2-1.48v2.75c.66.5,1.34,1,2,1.49V178.3Z"/><path class="cls-10" d="M28.58,181.17c-.74-.47-1.46-.94-2.18-1.42v2.76c.72.47,1.44,1,2.18,1.41v-2.75Z"/><path class="cls-11" d="M16.68,177.66c-.59-.54-1.15-1.08-1.71-1.62v2.75c.56.54,1.12,1.08,1.71,1.62v-2.75Z"/><path class="cls-10" d="M20.33,180.8q-.95-.77-1.86-1.56V182c.61.52,1.23,1,1.86,1.55V180.8Z"/><path class="cls-11" d="M24.31,183.81c-.69-.49-1.37-1-2-1.49v2.76c.66.5,1.34,1,2,1.48v-2.75Z"/><path class="cls-11" d="M28.58,186.67c-.74-.46-1.46-.93-2.18-1.41V188c.72.48,1.44,1,2.18,1.42v-2.76Z"/><path class="cls-10" d="M83.51,191.16c-1.23-.17-2.45-.36-3.67-.56V200c1.22.2,2.44.39,3.67.56v-9.43Z"/><path class="cls-10" d="M91,188.58q-1.91-.2-3.78-.42v12.92q1.88.22,3.78.42V188.58Z"/><path class="cls-10" d="M98.65,185.32c-1.29-.07-2.57-.16-3.84-.26v16.79c1.27.1,2.55.19,3.84.26V185.32Z"/><path class="cls-10" d="M106.49,187.13c-1.31,0-2.62-.07-3.92-.12v15.3c1.3.05,2.61.09,3.92.11V187.13Z"/><path class="cls-10" d="M114.37,189.49c-1.3,0-2.61,0-3.92,0v12.92c1.31,0,2.62,0,3.92-.05V189.49Z"/><path class="cls-12" d="M122.15,191.27c-1.28.08-2.57.15-3.86.2v10.82c1.29,0,2.58-.12,3.86-.2V191.27Z"/><path class="cls-12" d="M129.77,193.08c-1.26.13-2.53.24-3.8.35v8.38c1.27-.1,2.54-.22,3.8-.35-1.26.13-2.53.25-3.8.35,1.27-.1,2.54-.22,3.8-.35v-8.38Z"/><path class="cls-13" d="M137.19,194.17c-1.22.18-2.45.34-3.69.5V201c1.24-.15,2.47-.32,3.69-.5v-6.37Z"/><path class="cls-13" d="M144.45,194.37c-1.19.23-2.39.44-3.59.64v5c1.2-.2,2.4-.41,3.59-.63v-5Z"/><path class="cls-14" d="M151.47,191.07c-1.15.26-2.31.52-3.48.76v6.81c1.17-.25,2.33-.5,3.48-.77v-6.8Z"/><path class="cls-14" d="M158.28,186.25c-1.11.31-2.23.61-3.37.9V197c1.14-.29,2.26-.59,3.37-.9v-9.88Z"/><path class="cls-9" d="M164.84,181.22c-1.07.35-2.16.7-3.26,1v12.92c1.1-.33,2.19-.68,3.26-1V181.22Z"/><path class="cls-9" d="M171.11,181.5c-1,.39-2.05.77-3.1,1.14v10.42c1.05-.37,2.08-.75,3.1-1.14V181.5Z"/><path class="cls-15" d="M177.12,182c-1,.43-2,.85-3,1.26v7.41c1-.41,2-.83,3-1.25V182Z"/><path class="cls-15" d="M182.8,181.3c-.92.46-1.85.91-2.8,1.36v5.49c.95-.45,1.88-.9,2.8-1.37V181.3Z"/><path class="cls-10" d="M219.78,132.76c-.13.74-.28,1.48-.45,2.21v12.92c.17-.73.32-1.47.45-2.21V132.76Z"/><path class="cls-12" d="M218.74,139.26c-.22.73-.46,1.45-.72,2.17v10.82c.26-.72.5-1.44.72-2.17V139.26Z"/><path class="cls-12" d="M217.17,146c-.3.71-.62,1.41-1,2.11v8.38q.51-1,1-2.1V146Z"/><path class="cls-13" d="M215.11,152.2c-.38.68-.79,1.37-1.21,2v6.37c.42-.67.83-1.35,1.21-2V152.2Z"/><path class="cls-13" d="M212.58,157.66c-.46.66-.94,1.32-1.44,2v5q.75-1,1.44-2v-5Z"/><path class="cls-14" d="M209.58,159.75c-.54.64-1.09,1.28-1.67,1.9v6.81c.58-.63,1.13-1.27,1.67-1.91v-6.8Z"/><path class="cls-14" d="M206.14,160.44c-.61.62-1.23,1.24-1.88,1.84v9.88c.65-.6,1.27-1.22,1.88-1.84v-9.88Z"/><path class="cls-9" d="M202.28,161c-.67.59-1.37,1.17-2.08,1.75V175.7c.71-.58,1.41-1.16,2.08-1.75V161Z"/><path class="cls-9" d="M198,167c-.75.57-1.51,1.12-2.28,1.67v10.42c.77-.55,1.53-1.1,2.28-1.67V167Z"/><path class="cls-15" d="M193.38,173.27c-.8.53-1.62,1-2.45,1.57v7.41c.83-.51,1.65-1,2.45-1.56v-7.42Z"/><path class="cls-15" d="M188.37,178.29c-.86.5-1.74,1-2.63,1.47v5.49c.89-.48,1.77-1,2.63-1.47v-5.49Z"/><path class="cls-10" d="M129.77,201.46c-1.26.13-2.53.25-3.8.35,1.27-.1,2.54-.22,3.8-.35Z"/><path class="cls-15" d="M83.51,202.41c-1.23-.17-2.45-.36-3.67-.56V204c1.22.2,2.44.39,3.67.56v-2.12Z"/><path class="cls-15" d="M98.65,203.93q-1.94-.1-3.84-.27v2.13q1.91.15,3.84.27v-2.13Z"/><path class="cls-15" d="M106.49,204.24c-1.31,0-2.62-.06-3.92-.11v2.12c1.3.05,2.61.09,3.92.11v-2.12Z"/><path class="cls-15" d="M114.37,204.23c-1.3,0-2.61,0-3.92.05v2.12c1.31,0,2.62,0,3.92-.05v-2.12Z"/><path class="cls-15" d="M122.15,203.91c-1.28.08-2.57.14-3.86.2v2.12c1.29,0,2.58-.12,3.86-.2v-2.12Z"/><path class="cls-15" d="M137.19,202.36c-1.22.18-2.45.34-3.69.5V205c1.24-.15,2.47-.32,3.69-.49v-2.13Z"/><path class="cls-15" d="M144.45,201.16c-1.19.22-2.39.43-3.59.63v2.13c1.2-.2,2.4-.42,3.59-.64v-2.12Z"/><path class="cls-15" d="M151.47,199.69c-1.15.26-2.31.52-3.48.76v2.13c1.17-.25,2.33-.5,3.48-.77v-2.12Z"/><path class="cls-15" d="M158.28,198c-1.11.31-2.23.61-3.37.9V201c1.14-.29,2.26-.59,3.37-.9V198Z"/><path class="cls-15" d="M164.84,196c-1.07.35-2.16.69-3.26,1v2.12c1.1-.33,2.19-.68,3.26-1V196Z"/><path class="cls-15" d="M177.12,191.27c-1,.43-2,.85-3,1.26v2.12c1-.41,2-.82,3-1.25v-2.13Z"/><path class="cls-15" d="M182.8,188.6c-.92.47-1.85.92-2.8,1.36v2.13c.95-.45,1.88-.9,2.8-1.36V188.6Z"/><path class="cls-15" d="M188.17,185.71c-.86.5-1.74,1-2.63,1.47v2.12c.89-.48,1.77-1,2.63-1.46v-2.13Z"/><path class="cls-15" d="M193.2,182.62c-.81.54-1.64,1.06-2.48,1.58v2.12c.84-.52,1.67-1,2.48-1.57v-2.13Z"/><path class="cls-15" d="M197.85,179.36q-1.12.84-2.28,1.65v2.13c.77-.55,1.53-1.1,2.28-1.66v-2.12Z"/><path class="cls-15" d="M202.13,175.9c-.68.6-1.38,1.18-2.1,1.76v2.12c.72-.58,1.42-1.16,2.1-1.75V175.9Z"/><path class="cls-15" d="M206,172.29c-.6.62-1.23,1.23-1.88,1.83v2.12c.65-.6,1.28-1.21,1.88-1.82v-2.13Z"/><path class="cls-15" d="M212.47,164.59c-.47.67-.95,1.33-1.46,2v2.12c.51-.66,1-1.32,1.46-2v-2.12Z"/><path class="cls-15" d="M215,160.54c-.38.69-.79,1.37-1.22,2v2.13c.43-.68.84-1.36,1.22-2v-2.13Z"/><path class="cls-15" d="M217.1,156.36c-.3.71-.63,1.41-1,2.11v2.13c.35-.7.68-1.41,1-2.12v-2.12Z"/><path class="cls-15" d="M218.68,152.07q-.33,1.1-.72,2.16v2.12c.26-.71.5-1.43.72-2.15v-2.13Z"/><path class="cls-15" d="M83.51,206.23c-1.23-.18-2.45-.37-3.67-.57v2.13c1.22.2,2.44.38,3.67.56v-2.12Z"/><path class="cls-15" d="M91,207.13c-1.27-.12-2.53-.26-3.78-.41v2.12q1.88.22,3.78.42v-2.12Z"/><path class="cls-15" d="M98.65,207.75q-1.94-.12-3.84-.27v2.12q1.91.15,3.84.27v-2.12Z"/><path class="cls-15" d="M106.49,208.05c-1.31,0-2.62-.06-3.92-.11v2.12c1.3.06,2.61.09,3.92.12v-2.13Z"/><path class="cls-15" d="M114.37,208.05c-1.3,0-2.61,0-3.92,0v2.12c1.31,0,2.62,0,3.92,0v-2.12Z"/><path class="cls-15" d="M122.15,207.72c-1.28.08-2.57.15-3.86.2v2.13c1.29-.06,2.58-.12,3.86-.2v-2.13Z"/><path class="cls-15" d="M137.19,206.18c-1.22.17-2.45.34-3.69.49v2.12c1.24-.15,2.47-.31,3.69-.49v-2.12Z"/><path class="cls-15" d="M151.47,203.5c-1.15.27-2.31.52-3.48.77v2.12c1.17-.24,2.33-.5,3.48-.77V203.5Z"/><path class="cls-15" d="M158.28,201.76c-1.11.31-2.23.61-3.37.9v2.12c1.14-.28,2.26-.58,3.37-.89v-2.13Z"/><path class="cls-15" d="M164.84,199.77c-1.07.36-2.16.7-3.26,1v2.13c1.1-.34,2.19-.68,3.26-1v-2.13Z"/><path class="cls-15" d="M177.12,195.09c-1,.43-2,.84-3,1.25v2.13c1-.41,2-.83,3-1.26v-2.12Z"/><path class="cls-15" d="M182.8,192.42c-.92.46-1.85.91-2.8,1.36v2.12c.95-.44,1.88-.9,2.8-1.36v-2.12Z"/><path class="cls-15" d="M197.85,183.17c-.75.56-1.51,1.11-2.28,1.66V187c.77-.54,1.53-1.1,2.28-1.65v-2.13Z"/><path class="cls-15" d="M202.13,179.72c-.68.59-1.38,1.17-2.1,1.75v2.13c.72-.58,1.42-1.17,2.1-1.76v-2.12Z"/><path class="cls-15" d="M206,176.11c-.6.61-1.23,1.22-1.88,1.82v2.13c.65-.61,1.28-1.21,1.88-1.83v-2.12Z"/><path class="cls-15" d="M212.47,168.41c-.47.66-.95,1.33-1.46,2v2.13c.51-.66,1-1.32,1.46-2v-2.12Z"/><path class="cls-15" d="M217.1,160.17c-.3.71-.63,1.42-1,2.12v2.12c.35-.7.68-1.4,1-2.11v-2.13Z"/><path class="cls-15" d="M218.68,155.89c-.22.72-.46,1.44-.72,2.15v2.13q.39-1.08.72-2.16v-2.12Z"/><path class="cls-15" d="M219.75,151.48c-.13.74-.29,1.48-.46,2.21v2.13c.17-.74.33-1.47.46-2.21v-2.13Z"/><path class="cls-15" d="M83.51,210c-1.23-.17-2.45-.36-3.67-.56v2.12c1.22.2,2.44.39,3.67.56V210Z"/><path class="cls-15" d="M91,211q-1.91-.19-3.78-.42v2.12q1.88.24,3.78.42V211Z"/><path class="cls-15" d="M122.15,211.54c-1.28.08-2.57.14-3.86.2v2.12c1.29-.05,2.58-.12,3.86-.2v-2.12Z"/><path class="cls-15" d="M129.77,210.91c-1.26.13-2.53.25-3.8.35v2.13c1.27-.11,2.54-.23,3.8-.36v-2.12Z"/><path class="cls-15" d="M137.19,210c-1.22.18-2.45.34-3.69.5v2.12c1.24-.15,2.47-.32,3.69-.49V210Z"/><path class="cls-15" d="M144.45,208.79c-1.19.22-2.39.43-3.59.63v2.13c1.2-.2,2.4-.42,3.59-.64v-2.12Z"/><path class="cls-15" d="M151.47,207.32l-3.48.77v2.12c1.17-.25,2.33-.5,3.48-.77v-2.12Z"/><path class="cls-15" d="M164.84,203.59c-1.07.35-2.16.69-3.26,1v2.12c1.1-.33,2.19-.67,3.26-1v-2.12Z"/><path class="cls-15" d="M171.11,201.36c-1,.39-2.05.78-3.1,1.15v2.12c1.05-.37,2.08-.75,3.1-1.14v-2.13Z"/><path class="cls-15" d="M182.8,196.23c-.92.47-1.85.92-2.8,1.36v2.13c.95-.45,1.88-.9,2.8-1.36v-2.13Z"/><path class="cls-15" d="M188.17,193.34c-.86.5-1.74,1-2.63,1.47v2.12c.89-.48,1.77-1,2.63-1.46v-2.13Z"/><path class="cls-15" d="M193.2,190.25c-.81.54-1.64,1.06-2.48,1.58V194c.84-.52,1.67-1,2.48-1.57v-2.13Z"/><path class="cls-15" d="M197.85,187q-1.12.84-2.28,1.65v2.13c.77-.55,1.53-1.1,2.28-1.66V187Z"/><path class="cls-15" d="M202.13,183.53c-.68.6-1.38,1.18-2.1,1.76v2.12c.72-.58,1.42-1.16,2.1-1.75v-2.13Z"/><path class="cls-15" d="M209.45,176.15c-.54.64-1.09,1.27-1.67,1.9v2.12c.58-.63,1.13-1.26,1.67-1.9v-2.12Z"/><path class="cls-15" d="M212.47,172.22c-.47.67-.95,1.33-1.46,2v2.12c.51-.66,1-1.32,1.46-2v-2.13Z"/><path class="cls-15" d="M215,168.17c-.38.69-.79,1.37-1.22,2v2.13c.43-.68.84-1.36,1.22-2v-2.13Z"/><path class="cls-15" d="M217.1,164c-.3.71-.63,1.41-1,2.11v2.13c.35-.7.68-1.41,1-2.12V164Z"/><path class="cls-15" d="M218.68,159.7q-.33,1.1-.72,2.16V164c.26-.71.5-1.43.72-2.15V159.7Z"/><path class="cls-15" d="M219.75,155.3c-.13.74-.29,1.48-.46,2.21v2.12c.17-.73.33-1.47.46-2.21V155.3Z"/><path class="cls-10" d="M91,203.32q-1.91-.19-3.78-.42V205q1.88.24,3.78.42v-2.12Z"/><path class="cls-10" d="M129.77,203.28c-1.26.13-2.53.25-3.8.35v2.13c1.27-.11,2.54-.23,3.8-.36v-2.12Z"/><path class="cls-10" d="M171.11,193.73c-1,.39-2.05.78-3.1,1.15V197c1.05-.37,2.08-.75,3.1-1.14v-2.13Z"/><path class="cls-10" d="M209.45,168.52c-.54.64-1.09,1.27-1.67,1.9v2.12c.58-.63,1.13-1.26,1.67-1.9v-2.12Z"/><path class="cls-10" d="M219.75,147.67c-.13.74-.29,1.48-.46,2.21V152c.17-.73.33-1.47.46-2.21v-2.12Z"/><path class="cls-10" d="M129.77,207.09c-1.26.13-2.53.25-3.8.36v2.12c1.27-.1,2.54-.22,3.8-.35v-2.13Z"/><path class="cls-10" d="M144.45,205c-1.19.23-2.39.44-3.59.64v2.12c1.2-.2,2.4-.41,3.59-.63V205Z"/><path class="cls-10" d="M171.11,197.55c-1,.39-2.05.77-3.1,1.14v2.12c1.05-.37,2.08-.75,3.1-1.14v-2.12Z"/><path class="cls-10" d="M188.17,189.53c-.86.49-1.74,1-2.63,1.46v2.13c.89-.48,1.77-1,2.63-1.47v-2.12Z"/><path class="cls-10" d="M193.2,186.44c-.81.53-1.64,1.06-2.48,1.57v2.13c.84-.52,1.67-1,2.48-1.58v-2.12Z"/><path class="cls-10" d="M209.45,172.33c-.54.64-1.09,1.27-1.67,1.9v2.13c.58-.63,1.13-1.27,1.67-1.91v-2.12Z"/><path class="cls-10" d="M215,164.36c-.38.68-.79,1.36-1.22,2v2.12c.43-.67.84-1.35,1.22-2v-2.12Z"/><path class="cls-10" d="M98.65,211.56q-1.94-.1-3.84-.27v2.13q1.91.15,3.84.27v-2.13Z"/><path class="cls-10" d="M106.49,211.87c-1.31,0-2.62-.06-3.92-.11v2.12c1.3.05,2.61.09,3.92.11v-2.12Z"/><path class="cls-10" d="M114.37,211.86c-1.3,0-2.61,0-3.92,0V214c1.31,0,2.62,0,3.92-.05v-2.12Z"/><path class="cls-10" d="M158.28,205.58c-1.11.31-2.23.61-3.37.9v2.12c1.14-.29,2.26-.59,3.37-.9v-2.12Z"/><path class="cls-10" d="M177.12,198.9c-1,.43-2,.85-3,1.26v2.12c1-.41,2-.82,3-1.25V198.9Z"/><path class="cls-10" d="M206,179.92c-.6.62-1.23,1.23-1.88,1.83v2.12c.65-.6,1.28-1.21,1.88-1.82v-2.13Z"/></g></g><g class="cls-17"><path class="cls-18" d="M141,217.21c0-24.59-14.64-44.52-32.7-44.52s-32.7,19.93-32.7,44.52,14.64,31.95,32.7,31.95S141,241.79,141,217.21Z"/></g><ellipse class="cls-19" cx="108.25" cy="172.69" rx="63.55" ry="36.69"/><path class="cls-20" d="M144.78,83.56a1.89,1.89,0,1,0-2.67-.08A1.89,1.89,0,0,0,144.78,83.56Z"/><path class="cls-6" d="M166.7,81.92a1.9,1.9,0,1,0-2.68-.08A1.88,1.88,0,0,0,166.7,81.92Z"/><path class="cls-20" d="M161.29,52.56a2,2,0,1,0-2.88-.09A2,2,0,0,0,161.29,52.56Z"/><path class="cls-20" d="M159,58.36a1.22,1.22,0,1,0-1.72-.06A1.22,1.22,0,0,0,159,58.36Z"/><path class="cls-21" d="M156.48,55.35a.78.78,0,0,0,0-1.11.79.79,0,0,0-1.11,0,.78.78,0,0,0,0,1.1A.77.77,0,0,0,156.48,55.35Z"/><path class="cls-21" d="M161.71,72.7a.79.79,0,0,0,0-1.11.78.78,0,0,0-1.14,1.07A.79.79,0,0,0,161.71,72.7Z"/><path class="cls-20" d="M150.66,50.29a.23.23,0,0,0,0-.33.23.23,0,1,0-.34.32A.23.23,0,0,0,150.66,50.29Z"/><path class="cls-21" d="M152.09,60.12a.23.23,0,1,0-.34,0A.24.24,0,0,0,152.09,60.12Z"/><path class="cls-21" d="M155.15,78.85a.24.24,0,1,0-.33,0A.24.24,0,0,0,155.15,78.85Z"/><path class="cls-21" d="M153,75.86a.23.23,0,1,0-.33,0A.23.23,0,0,0,153,75.86Z"/><path class="cls-20" d="M144.89,61.46a2.89,2.89,0,1,0-4.09-.13A2.9,2.9,0,0,0,144.89,61.46Z"/><path class="cls-6" d="M129.32,67.08a1.44,1.44,0,1,0-2-.06A1.43,1.43,0,0,0,129.32,67.08Z"/><path class="cls-20" d="M155.33,67.05a1.44,1.44,0,1,0-2-.06A1.44,1.44,0,0,0,155.33,67.05Z"/><path class="cls-20" d="M144.89,43.32a1.44,1.44,0,1,0-2-.07A1.45,1.45,0,0,0,144.89,43.32Z"/><path class="cls-20" d="M126.71,53.65a1.44,1.44,0,1,0-2-.06A1.44,1.44,0,0,0,126.71,53.65Z"/><path class="cls-20" d="M176.08,58.13a1.44,1.44,0,1,0-2-.06A1.43,1.43,0,0,0,176.08,58.13Z"/><path class="cls-20" d="M165.68,33a1.44,1.44,0,1,0-2-.06A1.44,1.44,0,0,0,165.68,33Z"/><path class="cls-6" d="M184.62,35.65a.69.69,0,0,0,0-1,.69.69,0,1,0,0,1Z"/><path class="cls-20" d="M149.08,78.71a.84.84,0,1,0-1.19,0A.84.84,0,0,0,149.08,78.71Z"/><path class="cls-6" d="M147.45,54.83a.85.85,0,0,0,0-1.19.84.84,0,1,0,0,1.19Z"/><path class="cls-6" d="M136.65,54.51a.57.57,0,1,0-.78-.83.56.56,0,0,0,0,.8A.57.57,0,0,0,136.65,54.51Z"/><path class="cls-6" d="M135,54.47a.82.82,0,0,0,0-1.17.83.83,0,0,0-1.17,0A.83.83,0,0,0,135,54.47Z"/><path class="cls-6" d="M134.75,56.43a.46.46,0,0,0,0-.64.45.45,0,0,0-.65,0,.46.46,0,0,0,0,.64A.45.45,0,0,0,134.75,56.43Z"/><path class="cls-20" d="M142.68,70a.59.59,0,0,0-.81-.87.59.59,0,0,0,0,.84A.6.6,0,0,0,142.68,70Z"/><path class="cls-20" d="M160,72.45a.6.6,0,0,0,0-.84.6.6,0,1,0,0,.84Z"/><path class="cls-6" d="M146.36,71a1.46,1.46,0,1,0-2-2.13,1.46,1.46,0,0,0,2,2.13Z"/><path class="cls-22" d="M65.88,133.12c-1.34,4.45-8.54,13.09-13,11.75s-4.47-12.15-3.13-16.6a8.41,8.41,0,1,1,16.11,4.85Z"/><g class="cls-23"><path class="cls-24" d="M65.88,133.12c-1.34,4.45-8.54,13.09-13,11.75s-4.47-12.15-3.13-16.6a8.41,8.41,0,1,1,16.11,4.85Z"/></g><path class="cls-25" d="M57.31,122.7A8.13,8.13,0,0,1,64,125.79c1.35,1.92.55,3.65-1.79,3.86a8.15,8.15,0,0,1-6.67-3.1C54.18,124.63,55,122.9,57.31,122.7Z"/><path class="cls-26" d="M57.31,122.7A8.13,8.13,0,0,1,64,125.79c1.35,1.92.55,3.65-1.79,3.86a8.15,8.15,0,0,1-6.67-3.1C54.18,124.63,55,122.9,57.31,122.7Z"/><path class="cls-6" d="M54.88,124.87a3.21,3.21,0,0,1,1.77-.65,8.14,8.14,0,0,1,6.68,3.1A3.33,3.33,0,0,1,64,129c.85-.71.91-1.91,0-3.2a8.13,8.13,0,0,0-6.68-3.09C55.7,122.84,54.82,123.71,54.88,124.87Z"/><path class="cls-27" d="M65.15,120.42a.67.67,0,0,0-.68.65.67.67,0,0,0,1.33,0A.66.66,0,0,0,65.15,120.42Z"/><path class="cls-6" d="M58.9,115.8a1.68,1.68,0,1,0,1.64,1.72A1.68,1.68,0,0,0,58.9,115.8Z"/><path class="cls-27" d="M68.48,112a.94.94,0,1,0,.91,1A.93.93,0,0,0,68.48,112Z"/><path class="cls-6" d="M64.73,112.78a.64.64,0,0,0,0,1.28.64.64,0,1,0,0-1.28Z"/><path class="cls-6" d="M65.44,111.34a.44.44,0,1,0,0,.88.44.44,0,0,0,0-.88Z"/><path class="cls-27" d="M60,123.68a.93.93,0,0,0-.95.91.93.93,0,1,0,1.86,0A.93.93,0,0,0,60,123.68Z"/><path class="cls-6" d="M62.86,123.37a1.39,1.39,0,1,0,1.35,1.42A1.38,1.38,0,0,0,62.86,123.37Z"/><circle class="cls-28" cx="77.79" cy="105.13" r="12.67"/><g class="cls-23"><circle class="cls-29" cx="77.79" cy="105.13" r="12.67" transform="translate(-11.92 9.97) rotate(-6.81)"/></g><path class="cls-30" d="M141,128.13c0,24.59-14.64,44.52-32.7,44.52s-32.7-19.93-32.7-44.52,14.64-31.95,32.7-31.95S141,103.55,141,128.13Z"/><g class="cls-23"><path class="cls-31" d="M141,128.13c0,24.59-14.64,44.52-32.7,44.52s-32.7-19.93-32.7-44.52,14.64-31.95,32.7-31.95S141,103.55,141,128.13Z"/></g><ellipse class="cls-25" cx="108.25" cy="109.4" rx="22.32" ry="12.89"/><ellipse class="cls-32" cx="108.25" cy="109.4" rx="22.32" ry="12.89"/><path class="cls-6" d="M92.47,103.72c8.71-5,22.84-5,31.56,0,3.6,2.08,5.71,4.69,6.34,7.4.89-3.85-1.22-7.88-6.34-10.83-8.72-5-22.85-5-31.56,0-5.12,2.95-7.23,7-6.34,10.82C86.76,108.41,88.87,105.8,92.47,103.72Z"/><path class="cls-33" d="M98.51,61.79c0,6-4.21,13.3-9.41,16.3s-9.41.57-9.41-5.43,4.21-13.3,9.41-16.31S98.51,55.79,98.51,61.79Z"/><circle class="cls-34" cx="109.55" cy="78.64" r="33.35"/><g class="cls-23"><circle class="cls-35" cx="109.55" cy="78.64" r="33.35"/></g><ellipse class="cls-25" cx="89.63" cy="87.17" rx="8.47" ry="14.67" transform="translate(-26.61 41.14) rotate(-22.6)"/><ellipse class="cls-36" cx="89.63" cy="87.17" rx="8.47" ry="14.67" transform="translate(-26.61 41.14) rotate(-22.6)"/><path class="cls-6" d="M94.8,88.76c-.31,2.38-2.11,3.13-4,1.67a8.32,8.32,0,0,1-2.89-7c.31-2.38,2.1-3.13,4-1.67A8.34,8.34,0,0,1,94.8,88.76Z"/><path class="cls-6" d="M90.61,98.09c-5.26-4-8.83-12.6-8-19.16a8.09,8.09,0,0,1,2.82-5.67c-2.74.26-4.82,2.59-5.35,6.63-.85,6.56,2.72,15.13,8,19.15,3.12,2.38,6.12,2.63,8.23,1.07A8.33,8.33,0,0,1,90.61,98.09Z"/><path class="cls-6" d="M88.54,98.83c-5.26-4-8.83-12.59-8-19.15.4-3,1.67-5.11,3.45-6.06-2,.83-3.47,3-3.9,6.27-.85,6.56,2.72,15.13,8,19.15,2.82,2.16,5.56,2.56,7.61,1.46C93.7,101.32,91.15,100.83,88.54,98.83Z"/><circle class="cls-37" cx="144.19" cy="136.6" r="12.67"/><g class="cls-23"><circle class="cls-38" cx="144.19" cy="136.6" r="12.67"/></g><path class="cls-25" d="M156.37,136.84a12.4,12.4,0,0,1-5.6,9.7c-3.09,1.78-5.6.34-5.6-3.23a12.38,12.38,0,0,1,5.6-9.7C153.86,131.82,156.37,133.27,156.37,136.84Z"/><path class="cls-39" d="M156.37,136.84a12.4,12.4,0,0,1-5.6,9.7c-3.09,1.78-5.6.34-5.6-3.23a12.38,12.38,0,0,1,5.6-9.7C153.86,131.82,156.37,133.27,156.37,136.84Z"/><path class="cls-6" d="M153.4,132.85a4.8,4.8,0,0,1,.74,2.78,12.35,12.35,0,0,1-5.6,9.7,4.93,4.93,0,0,1-2.62.76c1,1.38,2.77,1.65,4.85.45a12.4,12.4,0,0,0,5.6-9.7C156.37,134.37,155.16,132.92,153.4,132.85Z"/><polygon class="cls-25" points="137.7 90.84 125.61 97.82 125.61 83.87 137.7 76.89 137.7 90.84"/><polygon class="cls-40" points="135.9 77.93 135.9 89.87 125.61 95.81 125.61 97.82 137.7 90.84 137.7 76.89 135.9 77.93"/><polygon class="cls-6" points="127.92 87.68 126.84 88.3 126.84 87.05 127.92 86.43 127.92 87.68"/><polygon class="cls-6" points="130.22 84.75 129.14 85.38 129.14 84.13 130.22 83.5 130.22 84.75"/><polygon class="cls-6" points="132.52 85.03 131.43 85.65 131.43 84.4 132.52 83.78 132.52 85.03"/><polygon class="cls-6" points="132.52 88.3 131.43 88.93 131.43 87.68 132.52 87.05 132.52 88.3"/><polygon class="cls-6" points="131.13 90.82 130.05 91.45 130.05 90.2 131.13 89.58 131.13 90.82"/><polygon class="cls-6" points="134.89 86.94 133.8 87.56 133.8 86.31 134.89 85.69 134.89 86.94"/><polygon class="cls-41" points="147.43 87.17 148.76 84.87 147.43 84.11 135.35 91.09 135.35 105.04 136.68 105.8 138 103.51 147.43 98.06 147.43 87.17"/><polygon class="cls-42" points="148.76 98.82 136.68 105.8 136.68 91.85 148.76 84.87 148.76 98.82"/><polygon class="cls-43" points="148.76 98.82 136.68 105.8 136.68 91.85 148.76 84.87 148.76 98.82"/><polygon class="cls-6" points="134.57 86.73 134.34 86.52 147.7 72.24 185.7 72.24 199.72 58.22 199.72 1.08 200.04 1.08 200.04 58.35 200 58.4 185.84 72.56 147.83 72.56 134.57 86.73"/><polygon class="cls-6" points="199.77 44.01 193.18 37.41 193.18 13.9 193.5 13.9 193.5 37.28 200 43.78 199.77 44.01"/><polygon class="cls-6" points="159.23 72.51 159 72.29 166.48 64.81 182.73 64.81 190.53 57.01 190.76 57.24 182.86 65.13 166.61 65.13 159.23 72.51"/><path class="cls-6" d="M190.64,58.21a1.09,1.09,0,1,1,1.09-1.08A1.09,1.09,0,0,1,190.64,58.21Z"/><path class="cls-6" d="M179.7,50.92a1.09,1.09,0,1,1,1.09-1.09A1.08,1.08,0,0,1,179.7,50.92Z"/><circle class="cls-6" cx="188.37" cy="39.16" r="1.08"/><circle class="cls-6" cx="184.09" cy="12.04" r="1.08"/><path class="cls-6" d="M193.34,15a1.08,1.08,0,1,1,1.08-1.08A1.08,1.08,0,0,1,193.34,15Z"/><path class="cls-6" d="M199.88,2.17a1.09,1.09,0,0,1,0-2.17A1.09,1.09,0,0,1,201,1.08,1.09,1.09,0,0,1,199.88,2.17Z"/><path class="cls-6" d="M148.16,47.48a1.08,1.08,0,1,1,1.08-1.08A1.08,1.08,0,0,1,148.16,47.48Z"/><polygon class="cls-6" points="127.54 87.37 127.22 87.37 127.22 81.04 127.27 81 142.4 65.63 142.4 43.83 142.44 43.78 154.94 31.28 179.57 31.28 183.93 26.92 183.93 12.04 184.25 12.04 184.25 27.05 184.21 27.1 179.71 31.6 155.08 31.6 142.72 43.96 142.72 65.76 142.67 65.81 127.54 81.17 127.54 87.37"/><polygon class="cls-6" points="142.67 60.66 142.44 60.43 148 54.88 148 46.4 148.32 46.4 148.32 55.01 148.27 55.06 142.67 60.66"/><polygon class="cls-6" points="129.79 84.65 129.56 84.42 164.31 49.67 179.46 49.67 179.46 49.99 164.44 49.99 129.79 84.65"/><polygon class="cls-6" points="158.05 56.32 157.74 56.32 157.74 45.25 157.78 45.2 163.99 39 188.37 39 188.37 39.32 164.12 39.32 158.05 45.38 158.05 56.32"/><path class="cls-44" d="M152.89,172.16c-1.34,4.45-8.53,13.09-13,11.75s-4.46-12.15-3.12-16.6a8.41,8.41,0,1,1,16.1,4.85Z"/><g class="cls-23"><path class="cls-45" d="M152.89,172.16c-1.34,4.45-8.53,13.09-13,11.75s-4.46-12.15-3.12-16.6a8.41,8.41,0,1,1,16.1,4.85Z"/></g><path class="cls-25" d="M144.33,161.73a8.12,8.12,0,0,1,6.67,3.1c1.35,1.92.55,3.64-1.79,3.85a8.12,8.12,0,0,1-6.67-3.09C141.19,163.67,142,161.94,144.33,161.73Z"/><path class="cls-46" d="M144.33,161.73a8.12,8.12,0,0,1,6.67,3.1c1.35,1.92.55,3.64-1.79,3.85a8.12,8.12,0,0,1-6.67-3.09C141.19,163.67,142,161.94,144.33,161.73Z"/><path class="cls-6" d="M141.89,163.91a3.17,3.17,0,0,1,1.78-.65,8.12,8.12,0,0,1,6.67,3.1A3.15,3.15,0,0,1,151,168c.85-.71.92-1.91,0-3.2a8.12,8.12,0,0,0-6.67-3.1C142.71,161.88,141.83,162.75,141.89,163.91Z"/><path class="cls-27" d="M150.93,156.39a.66.66,0,1,0-.93,0A.65.65,0,0,0,150.93,156.39Z"/><path class="cls-6" d="M158.63,155.3a1.67,1.67,0,1,0-2.37-.07A1.67,1.67,0,0,0,158.63,155.3Z"/><path class="cls-27" d="M154.44,164.71a.94.94,0,0,0-1.28-1.37.94.94,0,0,0,1.28,1.37Z"/><circle class="cls-6" cx="156.15" cy="161.08" r="0.64"/><path class="cls-6" d="M157.09,163.07a.43.43,0,0,0,0-.62.45.45,0,0,0-.62,0,.44.44,0,0,0,0,.62A.43.43,0,0,0,157.09,163.07Z"/><path class="cls-27" d="M152.29,150.49a.93.93,0,1,0-1.31,0A.92.92,0,0,0,152.29,150.49Z"/><path class="cls-6" d="M150.5,152.68a1.39,1.39,0,1,0-2-.06A1.38,1.38,0,0,0,150.5,152.68Z"/></g></g></svg>