<svg xmlns="http://www.w3.org/2000/svg" xmlns:xlink="http://www.w3.org/1999/xlink" viewBox="0 0 412.11 358.65"><defs><style>.cls-1{isolation:isolate;}.cls-114,.cls-2{opacity:0.5;}.cls-108,.cls-109,.cls-110,.cls-111,.cls-112,.cls-113,.cls-114,.cls-115,.cls-116,.cls-117,.cls-118,.cls-119,.cls-120,.cls-121,.cls-2,.cls-56,.cls-58,.cls-59,.cls-6,.cls-60,.cls-78,.cls-79,.cls-87,.cls-88{mix-blend-mode:color-dodge;}.cls-2{fill:url(#radial-gradient);}.cls-101,.cls-102,.cls-103,.cls-104,.cls-105,.cls-107,.cls-122,.cls-124,.cls-3,.cls-5,.cls-77,.cls-86{mix-blend-mode:screen;}.cls-3{fill:url(#linear-gradient);}.cls-4{fill:url(#New_Gradient_Swatch_copy_7);}.cls-5{fill:url(#Radial_Gradient_1);}.cls-7{fill:url(#linear-gradient-2);}.cls-8{fill:url(#linear-gradient-3);}.cls-9{fill:url(#linear-gradient-4);}.cls-10{fill:url(#linear-gradient-5);}.cls-11{fill:url(#linear-gradient-6);}.cls-12{fill:url(#linear-gradient-7);}.cls-13{fill:url(#linear-gradient-8);}.cls-14{fill:url(#linear-gradient-9);}.cls-15{fill:url(#linear-gradient-10);}.cls-16{fill:url(#linear-gradient-11);}.cls-17{fill:url(#linear-gradient-12);}.cls-18{fill:url(#linear-gradient-13);}.cls-19{fill:url(#linear-gradient-14);}.cls-20{fill:url(#linear-gradient-15);}.cls-21{fill:url(#linear-gradient-16);}.cls-22{fill:url(#linear-gradient-17);}.cls-23{fill:url(#linear-gradient-18);}.cls-24{fill:url(#linear-gradient-19);}.cls-25{fill:url(#linear-gradient-20);}.cls-26{fill:url(#linear-gradient-21);}.cls-27{fill:url(#linear-gradient-22);}.cls-28{fill:url(#linear-gradient-23);}.cls-29{fill:url(#linear-gradient-24);}.cls-30{fill:url(#linear-gradient-25);}.cls-31{fill:url(#linear-gradient-26);}.cls-32{fill:url(#linear-gradient-27);}.cls-33{fill:url(#linear-gradient-28);}.cls-34{fill:url(#linear-gradient-29);}.cls-35{fill:url(#linear-gradient-30);}.cls-36{fill:url(#linear-gradient-31);}.cls-37{fill:url(#linear-gradient-32);}.cls-38{fill:url(#linear-gradient-33);}.cls-39{fill:url(#linear-gradient-34);}.cls-40{fill:url(#linear-gradient-35);}.cls-41{fill:url(#linear-gradient-36);}.cls-42{fill:url(#linear-gradient-37);}.cls-43{fill:url(#linear-gradient-38);}.cls-44{fill:url(#linear-gradient-39);}.cls-45{fill:url(#linear-gradient-40);}.cls-46{fill:url(#linear-gradient-41);}.cls-47{fill:url(#linear-gradient-42);}.cls-48{fill:url(#linear-gradient-43);}.cls-49{fill:url(#linear-gradient-44);}.cls-50{fill:url(#linear-gradient-45);}.cls-51{fill:url(#linear-gradient-46);}.cls-52{fill:url(#linear-gradient-47);}.cls-53{fill:url(#linear-gradient-48);}.cls-54{fill:url(#linear-gradient-49);}.cls-55{fill:#c7005b;}.cls-108,.cls-56{opacity:0.8;}.cls-108,.cls-109,.cls-110,.cls-111,.cls-112,.cls-113,.cls-114,.cls-115,.cls-57{fill:#7c1dc9;}.cls-58{fill:url(#radial-gradient-2);}.cls-59{fill:url(#radial-gradient-3);}.cls-60{fill:url(#radial-gradient-4);}.cls-61,.cls-75{opacity:0.2;}.cls-62{opacity:0;}.cls-63{opacity:0.09;}.cls-64{opacity:0.18;}.cls-65{opacity:0.27;}.cls-66{opacity:0.36;}.cls-67{opacity:0.45;}.cls-68{opacity:0.55;}.cls-69{opacity:0.64;}.cls-70{opacity:0.73;}.cls-71{opacity:0.82;}.cls-72{opacity:0.91;}.cls-73{fill:url(#linear-gradient-50);}.cls-74{fill:url(#linear-gradient-51);}.cls-75{fill:url(#linear-gradient-52);}.cls-76{fill:#45008b;}.cls-77{fill:url(#Radial_Gradient_1-2);}.cls-78{fill:url(#New_Gradient_Swatch_copy);}.cls-79{fill:url(#New_Gradient_Swatch_copy-2);}.cls-80{fill:url(#linear-gradient-53);}.cls-81{fill:url(#linear-gradient-54);}.cls-82{fill:url(#linear-gradient-55);}.cls-83{fill:#211c98;}.cls-84{fill:url(#New_Gradient_Swatch_copy_38);}.cls-85{fill:url(#linear-gradient-56);}.cls-86{fill:url(#Radial_Gradient_1-3);}.cls-87{fill:url(#radial-gradient-5);}.cls-88{fill:url(#radial-gradient-6);}.cls-89{fill:url(#linear-gradient-57);}.cls-90{fill:url(#linear-gradient-58);}.cls-91{fill:#211c6a;}.cls-92{fill:url(#linear-gradient-59);}.cls-93{fill:url(#linear-gradient-60);}.cls-94{fill:url(#linear-gradient-61);}.cls-95{fill:#c7bcd6;}.cls-96{fill:url(#linear-gradient-62);}.cls-97{fill:#127390;}.cls-98{fill:url(#New_Gradient_Swatch_copy_7-2);}.cls-99{fill:url(#New_Gradient_Swatch_copy_7-3);}.cls-100{fill:#b086cc;}.cls-101{fill:url(#Radial_Gradient_1-4);}.cls-102{fill:url(#Radial_Gradient_1-5);}.cls-103{fill:url(#Radial_Gradient_1-6);}.cls-104{fill:url(#Radial_Gradient_1-7);}.cls-105{fill:url(#Radial_Gradient_1-8);}.cls-106{fill:#e0ecf7;}.cls-109{opacity:0.6;}.cls-110{opacity:0.4;}.cls-111{opacity:0.25;}.cls-112{opacity:0.15;}.cls-113{opacity:0.3;}.cls-116{fill:url(#radial-gradient-7);}.cls-117{fill:url(#radial-gradient-8);}.cls-118{fill:url(#radial-gradient-9);}.cls-119{fill:url(#radial-gradient-10);}.cls-120{fill:url(#radial-gradient-11);}.cls-121{fill:url(#radial-gradient-12);}.cls-122,.cls-124{opacity:0.1;}.cls-122{fill:url(#New_Gradient_Swatch_copy_7-4);}.cls-123{fill:#06bbd3;}.cls-124{fill:url(#New_Gradient_Swatch_copy_7-5);}</style><radialGradient id="radial-gradient" cx="11612.74" cy="-438.93" r="194.55" gradientTransform="matrix(-0.81, 0, 0, 0.81, 9602.39, 533.78)" gradientUnits="userSpaceOnUse"><stop offset="0" stop-color="#fa45c1"/><stop offset="0.21" stop-color="#cb389d"/><stop offset="0.67" stop-color="#571843"/><stop offset="1"/></radialGradient><linearGradient id="linear-gradient" x1="182.22" y1="84.74" x2="87.6" y2="84.74" gradientUnits="userSpaceOnUse"><stop offset="0" stop-color="#1bb0d4"/><stop offset="0.05" stop-color="#189dbd"/><stop offset="0.18" stop-color="#12738b"/><stop offset="0.31" stop-color="#0c5060"/><stop offset="0.45" stop-color="#08333e"/><stop offset="0.58" stop-color="#041d23"/><stop offset="0.72" stop-color="#020d0f"/><stop offset="0.85" stop-color="#000304"/><stop offset="1"/></linearGradient><linearGradient id="New_Gradient_Swatch_copy_7" x1="226.2" y1="190.8" x2="142.06" y2="44.5" gradientUnits="userSpaceOnUse"><stop offset="0.04" stop-color="#138bbd"/><stop offset="0.23" stop-color="#169ac7"/><stop offset="0.59" stop-color="#1fc3df"/><stop offset="1" stop-color="#2af6ff"/></linearGradient><radialGradient id="Radial_Gradient_1" cx="180.16" cy="110.74" r="49.93" gradientUnits="userSpaceOnUse"><stop offset="0" stop-color="#fff"/><stop offset="1"/></radialGradient><linearGradient id="linear-gradient-2" x1="165.96" y1="88.13" x2="172.14" y2="88.13" gradientUnits="userSpaceOnUse"><stop offset="0" stop-color="#fff"/><stop offset="0.94" stop-color="#9ec3e5"/></linearGradient><linearGradient id="linear-gradient-3" x1="162.39" y1="101.38" x2="168.54" y2="101.38" xlink:href="#linear-gradient-2"/><linearGradient id="linear-gradient-4" x1="161.34" y1="89.64" x2="168.21" y2="89.64" xlink:href="#linear-gradient-2"/><linearGradient id="linear-gradient-5" x1="160.99" y1="95.92" x2="164.49" y2="95.92" xlink:href="#linear-gradient-2"/><linearGradient id="linear-gradient-6" x1="150.04" y1="94.21" x2="155.72" y2="94.21" xlink:href="#linear-gradient-2"/><linearGradient id="linear-gradient-7" x1="166.31" y1="99.39" x2="171.18" y2="99.39" xlink:href="#linear-gradient-2"/><linearGradient id="linear-gradient-8" x1="164.18" y1="93.88" x2="167.07" y2="93.88" xlink:href="#linear-gradient-2"/><linearGradient id="linear-gradient-9" x1="173.96" y1="91.4" x2="175.54" y2="91.4" xlink:href="#linear-gradient-2"/><linearGradient id="linear-gradient-10" x1="156.48" y1="90.35" x2="162.36" y2="90.35" xlink:href="#linear-gradient-2"/><linearGradient id="linear-gradient-11" x1="170.04" y1="95.12" x2="178.7" y2="95.12" xlink:href="#linear-gradient-2"/><linearGradient id="linear-gradient-12" x1="151.81" y1="91.81" x2="159.2" y2="91.81" xlink:href="#linear-gradient-2"/><linearGradient id="linear-gradient-13" x1="153.59" y1="80.93" x2="159.37" y2="80.93" xlink:href="#linear-gradient-2"/><linearGradient id="linear-gradient-14" x1="161.19" y1="84.47" x2="164.13" y2="84.47" xlink:href="#linear-gradient-2"/><linearGradient id="linear-gradient-15" x1="157.54" y1="97.71" x2="160.59" y2="97.71" xlink:href="#linear-gradient-2"/><linearGradient id="linear-gradient-16" x1="177.08" y1="106.5" x2="184.96" y2="106.5" xlink:href="#linear-gradient-2"/><linearGradient id="linear-gradient-17" x1="145.43" y1="90.77" x2="148.22" y2="90.77" xlink:href="#linear-gradient-2"/><linearGradient id="linear-gradient-18" x1="139.73" y1="75.14" x2="152.12" y2="75.14" xlink:href="#linear-gradient-2"/><linearGradient id="linear-gradient-19" x1="178.91" y1="102.31" x2="181.82" y2="102.31" xlink:href="#linear-gradient-2"/><linearGradient id="linear-gradient-20" x1="180.53" y1="102.55" x2="194.14" y2="102.55" xlink:href="#linear-gradient-2"/><linearGradient id="linear-gradient-21" x1="168.9" y1="98.09" x2="177.11" y2="98.09" xlink:href="#linear-gradient-2"/><linearGradient id="linear-gradient-22" x1="177.36" y1="94.78" x2="183.9" y2="94.78" xlink:href="#linear-gradient-2"/><linearGradient id="linear-gradient-23" x1="145.43" y1="87.45" x2="149.99" y2="87.45" xlink:href="#linear-gradient-2"/><linearGradient id="linear-gradient-24" x1="173" y1="102.51" x2="175.28" y2="102.51" xlink:href="#linear-gradient-2"/><linearGradient id="linear-gradient-25" x1="145.43" y1="85.01" x2="154.65" y2="85.01" xlink:href="#linear-gradient-2"/><linearGradient id="linear-gradient-26" x1="170.24" y1="109.9" x2="177.64" y2="109.9" xlink:href="#linear-gradient-2"/><linearGradient id="linear-gradient-27" x1="145.43" y1="82.62" x2="159.52" y2="82.62" xlink:href="#linear-gradient-2"/><linearGradient id="linear-gradient-28" x1="162.39" y1="116.46" x2="168.54" y2="116.46" xlink:href="#linear-gradient-2"/><linearGradient id="linear-gradient-29" x1="161.34" y1="104.72" x2="168.21" y2="104.72" xlink:href="#linear-gradient-2"/><linearGradient id="linear-gradient-30" x1="160.99" y1="111" x2="164.49" y2="111" xlink:href="#linear-gradient-2"/><linearGradient id="linear-gradient-31" x1="150.04" y1="109.28" x2="155.72" y2="109.28" xlink:href="#linear-gradient-2"/><linearGradient id="linear-gradient-32" x1="166.31" y1="114.47" x2="171.18" y2="114.47" xlink:href="#linear-gradient-2"/><linearGradient id="linear-gradient-33" x1="164.18" y1="108.96" x2="167.07" y2="108.96" xlink:href="#linear-gradient-2"/><linearGradient id="linear-gradient-34" x1="156.48" y1="105.42" x2="162.36" y2="105.42" xlink:href="#linear-gradient-2"/><linearGradient id="linear-gradient-35" x1="151.81" y1="106.89" x2="159.2" y2="106.89" xlink:href="#linear-gradient-2"/><linearGradient id="linear-gradient-36" x1="157.54" y1="112.79" x2="160.59" y2="112.79" xlink:href="#linear-gradient-2"/><linearGradient id="linear-gradient-37" x1="177.08" y1="121.58" x2="184.96" y2="121.58" xlink:href="#linear-gradient-2"/><linearGradient id="linear-gradient-38" x1="145.43" y1="105.84" x2="148.22" y2="105.84" xlink:href="#linear-gradient-2"/><linearGradient id="linear-gradient-39" x1="178.91" y1="117.39" x2="181.82" y2="117.39" xlink:href="#linear-gradient-2"/><linearGradient id="linear-gradient-40" x1="168.9" y1="113.16" x2="177.11" y2="113.16" xlink:href="#linear-gradient-2"/><linearGradient id="linear-gradient-41" x1="145.43" y1="102.53" x2="149.99" y2="102.53" xlink:href="#linear-gradient-2"/><linearGradient id="linear-gradient-42" x1="173" y1="117.59" x2="175.28" y2="117.59" xlink:href="#linear-gradient-2"/><linearGradient id="linear-gradient-43" x1="145.43" y1="100.08" x2="154.65" y2="100.08" xlink:href="#linear-gradient-2"/><linearGradient id="linear-gradient-44" x1="160" y1="117.81" x2="162.89" y2="117.81" xlink:href="#linear-gradient-2"/><linearGradient id="linear-gradient-45" x1="152.3" y1="114.27" x2="158.18" y2="114.27" xlink:href="#linear-gradient-2"/><linearGradient id="linear-gradient-46" x1="174.72" y1="126.24" x2="177.64" y2="126.24" xlink:href="#linear-gradient-2"/><linearGradient id="linear-gradient-47" x1="164.71" y1="122.01" x2="172.93" y2="122.01" xlink:href="#linear-gradient-2"/><linearGradient id="linear-gradient-48" x1="141.25" y1="108.93" x2="150.47" y2="108.93" xlink:href="#linear-gradient-2"/><linearGradient id="linear-gradient-49" x1="145.43" y1="97.69" x2="159.52" y2="97.69" xlink:href="#linear-gradient-2"/><radialGradient id="radial-gradient-2" cx="537.35" cy="637.07" r="15.86" gradientTransform="matrix(-0.54, 0.84, 0.84, 0.54, -82.4, -755.06)" gradientUnits="userSpaceOnUse"><stop offset="0.09" stop-color="#fff"/><stop offset="0.1" stop-color="#e2dee7"/><stop offset="0.12" stop-color="#b0a5bf"/><stop offset="0.14" stop-color="#86749c"/><stop offset="0.16" stop-color="#634c80"/><stop offset="0.17" stop-color="#482d69"/><stop offset="0.19" stop-color="#35175a"/><stop offset="0.21" stop-color="#290a50"/><stop offset="0.23" stop-color="#25054d"/><stop offset="0.27" stop-color="#1d043c"/><stop offset="0.34" stop-color="#120226"/><stop offset="0.42" stop-color="#0a0115"/><stop offset="0.51" stop-color="#040109"/><stop offset="0.65" stop-color="#010002"/><stop offset="1"/></radialGradient><radialGradient id="radial-gradient-3" cx="526.38" cy="630.2" r="12.01" gradientTransform="matrix(-0.71, 0.71, 0.71, 0.71, 73.18, -781.76)" xlink:href="#radial-gradient-2"/><radialGradient id="radial-gradient-4" cx="517.48" cy="624.81" r="9.01" gradientTransform="matrix(0.47, 0.88, 0.88, -0.47, -655.15, -130.12)" xlink:href="#radial-gradient-2"/><linearGradient id="linear-gradient-50" x1="102.38" y1="245.45" x2="365.31" y2="245.45" gradientUnits="userSpaceOnUse"><stop offset="0.06" stop-color="#200041"/><stop offset="0.26" stop-color="#210243"/><stop offset="0.36" stop-color="#25084b"/><stop offset="0.43" stop-color="#2c1358"/><stop offset="0.47" stop-color="#311b61"/><stop offset="0.48" stop-color="#351f65"/><stop offset="0.5" stop-color="#422c73"/><stop offset="0.51" stop-color="#584188"/><stop offset="0.52" stop-color="#765fa7"/><stop offset="0.53" stop-color="#8770b8"/><stop offset="0.54" stop-color="#7e67ae"/><stop offset="0.56" stop-color="#5c468d"/><stop offset="0.59" stop-color="#442e75"/><stop offset="0.61" stop-color="#362066"/><stop offset="0.63" stop-color="#311b61"/><stop offset="0.67" stop-color="#2a1155"/><stop offset="0.75" stop-color="#230446"/><stop offset="0.81" stop-color="#200041"/><stop offset="1" stop-color="#200041"/></linearGradient><linearGradient id="linear-gradient-51" x1="88.33" y1="238.57" x2="341.29" y2="238.57" gradientUnits="userSpaceOnUse"><stop offset="0" stop-color="#311b61"/><stop offset="0.2" stop-color="#290f52"/><stop offset="0.49" stop-color="#200041"/><stop offset="1" stop-color="#0f001f"/></linearGradient><linearGradient id="linear-gradient-52" x1="104.14" y1="280.66" x2="367.07" y2="280.66" xlink:href="#linear-gradient-50"/><radialGradient id="Radial_Gradient_1-2" cx="224.66" cy="283.46" r="94.93" xlink:href="#Radial_Gradient_1"/><radialGradient id="New_Gradient_Swatch_copy" cx="1399.51" cy="-1243" r="46.1" gradientTransform="matrix(1, 0, 0, 0.66, -1150.8, 1139.66)" gradientUnits="userSpaceOnUse"><stop offset="0" stop-color="#972a74"/><stop offset="0.04" stop-color="#8a266a"/><stop offset="0.19" stop-color="#601b4a"/><stop offset="0.35" stop-color="#3d112f"/><stop offset="0.51" stop-color="#230a1b"/><stop offset="0.67" stop-color="#0f040c"/><stop offset="0.83" stop-color="#040103"/><stop offset="1"/></radialGradient><radialGradient id="New_Gradient_Swatch_copy-2" cx="1178.25" cy="-1953.87" r="35.36" gradientTransform="matrix(1, 0, 0, 0.59, -984.33, 1358.39)" xlink:href="#New_Gradient_Swatch_copy"/><linearGradient id="linear-gradient-53" x1="-577.81" y1="435.36" x2="-655.83" y2="376.38" gradientTransform="matrix(0.87, 0.5, -1.5, 0.29, 1340.05, 434.74)" gradientUnits="userSpaceOnUse"><stop offset="0" stop-color="#3d065f"/><stop offset="1" stop-color="#260556"/></linearGradient><linearGradient id="linear-gradient-54" x1="5100.48" y1="-1.05" x2="4837.32" y2="227.54" gradientTransform="matrix(-1, 0, 0, 1, 5202.01, 0)" gradientUnits="userSpaceOnUse"><stop offset="0.19" stop-color="#3d065f"/><stop offset="0.93" stop-color="#3d065f"/></linearGradient><linearGradient id="linear-gradient-55" x1="5097.7" y1="1.37" x2="4838.96" y2="226.11" gradientTransform="matrix(-1, 0, 0, 1, 5202.01, 0)" xlink:href="#linear-gradient-51"/><linearGradient id="New_Gradient_Swatch_copy_38" x1="170.52" y1="28.77" x2="352.93" y2="243.82" gradientUnits="userSpaceOnUse"><stop offset="0" stop-color="#7c1dc9"/><stop offset="0.03" stop-color="#741bbd"/><stop offset="0.16" stop-color="#56148b"/><stop offset="0.3" stop-color="#3b0e60"/><stop offset="0.43" stop-color="#26093e"/><stop offset="0.57" stop-color="#150523"/><stop offset="0.71" stop-color="#09020f"/><stop offset="0.85" stop-color="#020104"/><stop offset="1"/></linearGradient><linearGradient id="linear-gradient-56" x1="1364.02" y1="254.33" x2="1234.66" y2="47.63" gradientTransform="translate(-985.58)" xlink:href="#linear-gradient-50"/><radialGradient id="Radial_Gradient_1-3" cx="1327.11" cy="127.34" r="21.98" gradientTransform="translate(-985.58)" xlink:href="#Radial_Gradient_1"/><radialGradient id="radial-gradient-5" cx="284.18" cy="7495.27" r="10.31" gradientTransform="matrix(0, 1, -0.66, 0, 5318.72, -160.21)" xlink:href="#New_Gradient_Swatch_copy"/><radialGradient id="radial-gradient-6" cx="192.76" cy="55.56" r="55.56" gradientUnits="userSpaceOnUse"><stop offset="0" stop-color="#dc3daa"/><stop offset="0.07" stop-color="#bd3492"/><stop offset="0.2" stop-color="#8b276b"/><stop offset="0.33" stop-color="#601b4a"/><stop offset="0.46" stop-color="#3e1130"/><stop offset="0.59" stop-color="#230a1b"/><stop offset="0.72" stop-color="#0f040c"/><stop offset="0.86" stop-color="#040103"/><stop offset="1"/></radialGradient><linearGradient id="linear-gradient-57" x1="267.52" y1="187.4" x2="222.29" y2="236.64" gradientUnits="userSpaceOnUse"><stop offset="0" stop-color="#3d065f"/><stop offset="1" stop-color="#12054e"/><stop offset="1" stop-color="#10054d"/></linearGradient><linearGradient id="linear-gradient-58" x1="207.93" y1="200.49" x2="207.93" y2="220.62" gradientUnits="userSpaceOnUse"><stop offset="0" stop-color="#3d065f"/><stop offset="1" stop-color="#521b9a"/></linearGradient><linearGradient id="linear-gradient-59" x1="223.46" y1="209.08" x2="223.46" y2="230.96" xlink:href="#linear-gradient-58"/><linearGradient id="linear-gradient-60" x1="238.99" y1="218.91" x2="238.99" y2="236.25" xlink:href="#linear-gradient-58"/><linearGradient id="linear-gradient-61" x1="254.53" y1="227.58" x2="254.53" y2="242.99" xlink:href="#linear-gradient-58"/><linearGradient id="linear-gradient-62" x1="261.99" y1="245.44" x2="264.82" y2="262.94" xlink:href="#linear-gradient-58"/><linearGradient id="New_Gradient_Swatch_copy_7-2" x1="323.43" y1="205.03" x2="266.43" y2="133.03" xlink:href="#New_Gradient_Swatch_copy_7"/><linearGradient id="New_Gradient_Swatch_copy_7-3" x1="232.85" y1="161.34" x2="199.35" y2="103.09" xlink:href="#New_Gradient_Swatch_copy_7"/><radialGradient id="Radial_Gradient_1-4" cx="304.46" cy="181.05" r="19.88" xlink:href="#Radial_Gradient_1"/><radialGradient id="Radial_Gradient_1-5" cx="214.52" cy="129.46" r="19.88" xlink:href="#Radial_Gradient_1"/><radialGradient id="Radial_Gradient_1-6" cx="267.16" cy="97.8" r="17.89" xlink:href="#Radial_Gradient_1"/><radialGradient id="Radial_Gradient_1-7" cx="265.54" cy="187.4" r="17.89" xlink:href="#Radial_Gradient_1"/><radialGradient id="Radial_Gradient_1-8" cx="265.99" cy="130.57" r="16.5" xlink:href="#Radial_Gradient_1"/><radialGradient id="radial-gradient-7" cx="280.2" cy="340.94" r="13.2" gradientUnits="userSpaceOnUse"><stop offset="0.09" stop-color="#ff63ce"/><stop offset="0.09" stop-color="#fd62cd"/><stop offset="0.11" stop-color="#c54aac"/><stop offset="0.13" stop-color="#94358f"/><stop offset="0.15" stop-color="#6c2477"/><stop offset="0.17" stop-color="#4d1665"/><stop offset="0.19" stop-color="#370d58"/><stop offset="0.21" stop-color="#2a0750"/><stop offset="0.23" stop-color="#25054d"/><stop offset="0.27" stop-color="#1d043c"/><stop offset="0.34" stop-color="#120226"/><stop offset="0.42" stop-color="#0a0115"/><stop offset="0.51" stop-color="#040109"/><stop offset="0.65" stop-color="#010002"/><stop offset="1"/></radialGradient><radialGradient id="radial-gradient-8" cx="154.85" cy="281.24" r="13.2" xlink:href="#radial-gradient-7"/><radialGradient id="radial-gradient-9" cx="114.85" cy="160.49" r="13.2" xlink:href="#radial-gradient-7"/><radialGradient id="radial-gradient-10" cx="10561.91" cy="6537.48" r="15.86" gradientTransform="matrix(-0.33, -0.94, -0.94, 0.33, 10032.3, 8029.76)" xlink:href="#radial-gradient-2"/><radialGradient id="radial-gradient-11" cx="10550.94" cy="6530.61" r="12.01" gradientTransform="matrix(0.7, -0.71, -0.71, -0.7, -2408.75, 12311.79)" xlink:href="#radial-gradient-2"/><radialGradient id="radial-gradient-12" cx="10542.04" cy="6525.22" r="9.01" gradientTransform="matrix(-0.47, -0.88, -0.88, 0.47, 11129.85, 6433.2)" xlink:href="#radial-gradient-2"/><linearGradient id="New_Gradient_Swatch_copy_7-4" x1="9986.58" y1="5991.17" x2="9944.84" y2="5991.17" gradientTransform="translate(10352.28 6164.32) rotate(180)" xlink:href="#New_Gradient_Swatch_copy_7"/><linearGradient id="New_Gradient_Swatch_copy_7-5" x1="9992.08" y1="6031.31" x2="9950.34" y2="6031.31" gradientTransform="translate(-9575.96 -5898.29)" xlink:href="#New_Gradient_Swatch_copy_7"/></defs><title>Softtware development</title><g class="cls-1"><g id="Layer_1" data-name="Layer 1"><ellipse class="cls-2" cx="232.08" cy="178.64" rx="156.99" ry="157.41"/><polygon class="cls-3" points="182.22 137.16 87.6 82.53 87.6 32.33 182.22 86.96 182.22 137.16"/><polygon class="cls-4" points="227.47 163.16 132.85 108.53 132.85 58.33 227.47 112.96 227.47 163.16"/><polygon class="cls-5" points="132.85 58.33 132.85 60.31 226.21 114.21 226.21 162.44 227.47 163.16 227.47 112.96 132.85 58.33"/><g class="cls-6"><polygon class="cls-7" points="165.96 87.27 172.14 90.81 172.14 88.99 165.96 85.45 165.96 87.27"/><polygon class="cls-8" points="168.54 102.25 162.39 98.7 162.39 100.52 168.54 104.07 168.54 102.25"/><polygon class="cls-9" points="168.21 92.5 168.21 90.68 161.34 86.78 161.34 88.61 168.21 92.5"/><polygon class="cls-10" points="161 94 161 95.83 164.49 97.84 164.49 96.02 161 94"/><polygon class="cls-11" points="155.72 96.72 155.72 94.9 150.04 91.69 150.04 93.51 155.72 96.72"/><polygon class="cls-12" points="171.18 99.88 166.31 97.07 166.31 98.9 171.18 101.71 171.18 99.88"/><polygon class="cls-13" points="164.18 92.15 164.18 93.97 167.07 95.62 167.07 93.8 164.18 92.15"/><polygon class="cls-14" points="173.97 90.03 173.97 91.86 175.54 92.77 175.54 90.95 173.97 90.03"/><polygon class="cls-15" points="162.36 92.94 162.36 91.11 156.48 87.76 156.48 89.58 162.36 92.94"/><polygon class="cls-16" points="170.04 91.72 170.04 93.55 178.7 98.51 178.7 96.68 170.04 91.72"/><polygon class="cls-17" points="159.2 94.79 159.2 92.97 151.81 88.83 151.81 90.66 159.2 94.79"/><polygon class="cls-18" points="153.59 78.37 153.59 80.19 159.37 83.5 159.37 81.68 153.59 78.37"/><polygon class="cls-19" points="164.13 84.4 161.19 82.72 161.19 84.55 164.13 86.23 164.13 84.4"/><polygon class="cls-20" points="160.59 97.66 157.54 95.93 157.54 97.76 160.59 99.48 160.59 97.66"/><polygon class="cls-21" points="177.08 105.12 184.96 109.7 184.96 107.88 177.08 103.3 177.08 105.12"/><polygon class="cls-22" points="148.22 90.66 145.43 89.05 145.43 90.88 148.22 92.48 148.22 90.66"/><polygon class="cls-23" points="139.73 70.7 139.73 72.53 152.12 79.59 152.12 77.76 139.73 70.7"/><polygon class="cls-24" points="178.91 102.38 181.82 104.08 181.82 102.25 178.91 100.55 178.91 102.38"/><polygon class="cls-25" points="180.53 99.55 194.14 107.37 194.14 105.54 180.53 97.73 180.53 99.55"/><polygon class="cls-26" points="168.9 96.66 177.11 101.34 177.11 99.51 168.9 94.83 168.9 96.66"/><polygon class="cls-27" points="177.36 91.99 177.36 93.82 183.9 97.56 183.9 95.73 177.36 91.99"/><polygon class="cls-28" points="149.99 87.81 145.43 85.26 145.43 87.08 149.99 89.64 149.99 87.81"/><polygon class="cls-29" points="175.28 102.26 173 100.94 173 102.76 175.28 104.08 175.28 102.26"/><polygon class="cls-30" points="154.65 86.72 145.43 81.47 145.43 83.29 154.65 88.55 154.65 86.72"/><polygon class="cls-31" points="170.24 108.7 177.64 112.92 177.64 111.09 170.24 106.87 170.24 108.7"/><polygon class="cls-32" points="159.52 85.74 145.43 77.67 145.43 79.5 159.52 87.56 159.52 85.74"/></g><g class="cls-6"><polygon class="cls-33" points="168.54 117.32 162.39 113.77 162.39 115.6 168.54 119.15 168.54 117.32"/><polygon class="cls-34" points="168.21 107.58 168.21 105.75 161.34 101.86 161.34 103.69 168.21 107.58"/><polygon class="cls-35" points="161 109.08 161 110.91 164.49 112.92 164.49 111.1 161 109.08"/><polygon class="cls-36" points="155.72 111.8 155.72 109.98 150.04 106.77 150.04 108.59 155.72 111.8"/><polygon class="cls-37" points="171.18 114.96 166.31 112.15 166.31 113.98 171.18 116.79 171.18 114.96"/><polygon class="cls-38" points="164.18 107.23 164.18 109.05 167.07 110.7 167.07 108.87 164.18 107.23"/><polygon class="cls-39" points="162.36 108.01 162.36 106.19 156.48 102.84 156.48 104.66 162.36 108.01"/><polygon class="cls-40" points="159.2 109.87 159.2 108.04 151.81 103.91 151.81 105.74 159.2 109.87"/><polygon class="cls-41" points="160.59 112.73 157.54 111.01 157.54 112.83 160.59 114.56 160.59 112.73"/><polygon class="cls-42" points="177.08 120.2 184.96 124.78 184.96 122.95 177.08 118.37 177.08 120.2"/><polygon class="cls-43" points="148.22 105.73 145.43 104.13 145.43 105.96 148.22 107.56 148.22 105.73"/><polygon class="cls-44" points="178.91 117.45 181.82 119.15 181.82 117.33 178.91 115.63 178.91 117.45"/><polygon class="cls-45" points="168.9 111.74 177.11 116.42 177.11 114.59 168.9 109.91 168.9 111.74"/><polygon class="cls-46" points="149.99 102.89 145.43 100.34 145.43 102.16 149.99 104.72 149.99 102.89"/><polygon class="cls-47" points="175.28 117.33 173 116.01 173 117.84 175.28 119.16 175.28 117.33"/><polygon class="cls-48" points="154.65 101.8 145.43 96.54 145.43 98.37 154.65 103.62 154.65 101.8"/><polygon class="cls-49" points="160 116.07 160 117.9 162.89 119.54 162.89 117.72 160 116.07"/><polygon class="cls-50" points="158.18 116.86 158.18 115.03 152.3 111.68 152.3 113.51 158.18 116.86"/><polygon class="cls-51" points="174.72 126.3 177.64 128 177.64 126.17 174.72 124.47 174.72 126.3"/><polygon class="cls-52" points="164.72 120.58 172.93 125.26 172.93 123.44 164.72 118.76 164.72 120.58"/><polygon class="cls-53" points="150.47 110.64 141.25 105.39 141.25 107.21 150.47 112.47 150.47 110.64"/><polygon class="cls-54" points="159.52 100.81 145.43 92.75 145.43 94.57 159.52 102.64 159.52 100.81"/></g><g class="cls-6"><path class="cls-55" d="M245.77,358.65a19.13,19.13,0,0,1-2.26-.19.45.45,0,1,1,.13-.89,15.46,15.46,0,0,0,2.15.18.45.45,0,0,1,.44.46.46.46,0,0,1-.45.44Z"/><path class="cls-55" d="M247.55,358.15a.45.45,0,0,1,.39-.5,13.23,13.23,0,0,0,2.1-.42.45.45,0,0,1,.25.86,13,13,0,0,1-2.25.45h0A.45.45,0,0,1,247.55,358.15Z"/><path class="cls-55" d="M241.28,358a15.44,15.44,0,0,1-2.14-.77.45.45,0,0,1,.36-.82,15,15,0,0,0,2,.73.44.44,0,0,1,.31.55.43.43,0,0,1-.43.32Z"/><path class="cls-55" d="M251.84,357a.47.47,0,0,1,.18-.62l1.92-1.11a.44.44,0,0,1,.61.17.43.43,0,0,1-.16.61l-1.92,1.11-.26-.37.22.39a.42.42,0,0,1-.21.06A.44.44,0,0,1,251.84,357Z"/><path class="cls-55" d="M237.14,356.15,235.22,355a.44.44,0,0,1-.16-.61.43.43,0,0,1,.61-.16l1.92,1.1a.45.45,0,0,1,.16.62.44.44,0,0,1-.39.22A.46.46,0,0,1,237.14,356.15Z"/><path class="cls-55" d="M255.7,354.8a.45.45,0,0,1,.16-.61l1.92-1.11a.44.44,0,0,1,.61.16.43.43,0,0,1-.16.61L256.31,355a.46.46,0,0,1-.22.06A.44.44,0,0,1,255.7,354.8Z"/><path class="cls-55" d="M233.3,353.93l-1.92-1.11a.45.45,0,0,1,.45-.77l1.92,1.11a.45.45,0,0,1-.23.83A.46.46,0,0,1,233.3,353.93Z"/><path class="cls-55" d="M259.54,352.58a.45.45,0,0,1,.16-.61l1.92-1.11a.46.46,0,0,1,.62.16.44.44,0,0,1-.17.61l-1.92,1.11a.46.46,0,0,1-.22.06A.44.44,0,0,1,259.54,352.58Z"/><path class="cls-55" d="M229.46,351.72l-1.92-1.11a.45.45,0,0,1,.45-.78l1.92,1.11a.44.44,0,0,1,.16.61.43.43,0,0,1-.39.23A.46.46,0,0,1,229.46,351.72Z"/><path class="cls-55" d="M263.38,350.36a.45.45,0,0,1,.16-.61l1.92-1.11a.46.46,0,0,1,.62.17.45.45,0,0,1-.17.61L264,350.53a.46.46,0,0,1-.22.06A.43.43,0,0,1,263.38,350.36Z"/><path class="cls-55" d="M225.62,349.5l-1.92-1.11a.45.45,0,0,1,.45-.78l1.92,1.11a.45.45,0,0,1,.16.61.43.43,0,0,1-.39.23A.46.46,0,0,1,225.62,349.5Z"/><path class="cls-55" d="M267.22,348.14a.45.45,0,0,1,.16-.61l1.93-1.1a.44.44,0,0,1,.61.16.45.45,0,0,1-.17.61l-1.92,1.11a.46.46,0,0,1-.22.06A.43.43,0,0,1,267.22,348.14Z"/><path class="cls-55" d="M221.78,347.28l-1.92-1.11a.44.44,0,0,1-.17-.61.45.45,0,0,1,.62-.16l1.92,1.11a.45.45,0,0,1,.16.61.44.44,0,0,1-.39.22A.46.46,0,0,1,221.78,347.28Z"/><path class="cls-55" d="M271.06,345.93a.44.44,0,0,1,.17-.61l1.92-1.11a.45.45,0,0,1,.61.16.44.44,0,0,1-.17.61l-1.92,1.11a.43.43,0,0,1-.22.06A.46.46,0,0,1,271.06,345.93Z"/><path class="cls-55" d="M217.94,345.06,216,344a.44.44,0,0,1-.17-.61.45.45,0,0,1,.62-.16l1.92,1.11a.45.45,0,0,1,.16.61.44.44,0,0,1-.39.22A.46.46,0,0,1,217.94,345.06Z"/><path class="cls-55" d="M274.9,343.71a.45.45,0,0,1,.17-.61L277,342a.45.45,0,1,1,.44.78l-1.92,1.1a.35.35,0,0,1-.22.06A.46.46,0,0,1,274.9,343.71Z"/><path class="cls-55" d="M214.1,342.85l-1.92-1.11a.45.45,0,0,1-.17-.61.46.46,0,0,1,.62-.17l1.92,1.11a.45.45,0,0,1,.16.61.43.43,0,0,1-.39.23A.46.46,0,0,1,214.1,342.85Z"/><path class="cls-55" d="M281.24,312.54l-1.92-1.1a.45.45,0,0,1,.45-.78l1.92,1.11a.45.45,0,0,1,.16.61.44.44,0,0,1-.39.22A.37.37,0,0,1,281.24,312.54Z"/><path class="cls-55" d="M277.4,310.33l-1.92-1.11a.45.45,0,0,1-.17-.61.46.46,0,0,1,.62-.17l1.92,1.11a.45.45,0,0,1,.16.61.43.43,0,0,1-.39.23A.46.46,0,0,1,277.4,310.33Z"/><path class="cls-55" d="M273.56,308.11,271.64,307a.45.45,0,1,1,.45-.77l1.92,1.1a.46.46,0,0,1,.16.62.44.44,0,0,1-.39.22A.46.46,0,0,1,273.56,308.11Z"/><path class="cls-55" d="M128.32,196l-1.92-1.1a.45.45,0,0,1,.45-.78l1.92,1.11a.44.44,0,0,1,.16.61.45.45,0,0,1-.38.23A.39.39,0,0,1,128.32,196Z"/><path class="cls-55" d="M124.48,193.81l-1.92-1.11a.45.45,0,0,1,.45-.78l1.92,1.11a.45.45,0,0,1,.16.61.43.43,0,0,1-.38.23A.46.46,0,0,1,124.48,193.81Z"/><path class="cls-55" d="M120.64,191.59l-1.92-1.11a.44.44,0,0,1-.16-.61.43.43,0,0,1,.61-.16l1.92,1.11a.45.45,0,0,1-.23.83A.46.46,0,0,1,120.64,191.59Z"/><path class="cls-55" d="M278.74,341.49a.45.45,0,0,1,.17-.61l1.92-1.11a.45.45,0,1,1,.44.78l-1.92,1.11a.43.43,0,0,1-.22.06A.45.45,0,0,1,278.74,341.49Z"/><path class="cls-55" d="M61.24,195.33a.46.46,0,0,1,.17-.62l1.92-1.1a.44.44,0,1,1,.44.77l-1.92,1.11a.43.43,0,0,1-.22.06A.47.47,0,0,1,61.24,195.33Z"/><path class="cls-55" d="M65.08,193.11a.44.44,0,0,1,.17-.61l1.92-1.11a.45.45,0,0,1,.61.16.44.44,0,0,1-.17.61l-1.92,1.11a.43.43,0,0,1-.22.06A.46.46,0,0,1,65.08,193.11Z"/><path class="cls-55" d="M68.92,190.89a.45.45,0,0,1,.17-.61L71,189.17a.45.45,0,1,1,.44.78l-1.92,1.1a.35.35,0,0,1-.22.06A.46.46,0,0,1,68.92,190.89Z"/><path class="cls-55" d="M324.9,312.83a.44.44,0,0,1,.17-.61l1.92-1.11a.45.45,0,0,1,.61.16.44.44,0,0,1-.17.61L325.51,313a.43.43,0,0,1-.22.06A.47.47,0,0,1,324.9,312.83Z"/><path class="cls-55" d="M328.74,310.61a.45.45,0,0,1,.17-.61l1.92-1.11a.45.45,0,1,1,.44.78l-1.92,1.1a.35.35,0,0,1-.22.06A.47.47,0,0,1,328.74,310.61Z"/><path class="cls-55" d="M332.58,308.39a.45.45,0,0,1,.17-.61l1.92-1.11a.45.45,0,0,1,.61.17.45.45,0,0,1-.16.61l-1.93,1.11a.43.43,0,0,1-.22.06A.46.46,0,0,1,332.58,308.39Z"/><path class="cls-55" d="M155.47,280.22a.45.45,0,0,1,.16-.61l1.92-1.11a.44.44,0,0,1,.61.17.44.44,0,0,1-.16.61l-1.92,1.11a.46.46,0,0,1-.22.06A.43.43,0,0,1,155.47,280.22Z"/><path class="cls-55" d="M159.31,278a.46.46,0,0,1,.16-.62l1.92-1.1a.44.44,0,0,1,.61.16.43.43,0,0,1-.16.61l-1.92,1.11a.46.46,0,0,1-.22.06A.44.44,0,0,1,159.31,278Z"/><path class="cls-55" d="M163.15,275.79a.45.45,0,0,1,.16-.61l1.92-1.11a.46.46,0,0,1,.62.16.44.44,0,0,1-.17.61L163.76,276a.46.46,0,0,1-.22.06A.44.44,0,0,1,163.15,275.79Z"/><path class="cls-55" d="M163.66,171.23l-1.92-1.11a.45.45,0,0,1-.16-.61.44.44,0,0,1,.61-.16l1.92,1.11a.43.43,0,0,1,.16.61.44.44,0,0,1-.38.22A.46.46,0,0,1,163.66,171.23ZM159.82,169l-1.92-1.1a.45.45,0,0,1,.45-.78l1.92,1.11a.43.43,0,0,1,.16.61.45.45,0,0,1-.38.23A.39.39,0,0,1,159.82,169ZM156,166.8l-1.92-1.11a.45.45,0,0,1,.45-.78l1.92,1.11a.45.45,0,0,1,.16.61.43.43,0,0,1-.38.23A.46.46,0,0,1,156,166.8Zm-3.84-2.22-1.92-1.11a.45.45,0,0,1,.45-.77l1.92,1.11a.45.45,0,0,1-.22.83A.46.46,0,0,1,152.14,164.58Zm-3.84-2.22-1.92-1.11a.44.44,0,0,1-.16-.61.45.45,0,0,1,.61-.16l1.92,1.11a.45.45,0,0,1-.23.83A.46.46,0,0,1,148.3,162.36Zm-34.21-1.19a.45.45,0,0,1,.16-.61l1.92-1.11a.46.46,0,0,1,.62.16.46.46,0,0,1-.17.62l-1.92,1.1a.37.37,0,0,1-.22.06A.44.44,0,0,1,114.09,161.17Zm30.37-1L142.54,159a.45.45,0,0,1,.45-.78l1.92,1.11a.44.44,0,0,1,.16.61.43.43,0,0,1-.39.23A.46.46,0,0,1,144.46,160.15ZM117.93,159a.45.45,0,0,1,.16-.61l1.93-1.11a.45.45,0,0,1,.44.78l-1.92,1.11a.43.43,0,0,1-.22.06A.43.43,0,0,1,117.93,159Zm22.69-1-1.92-1.11a.44.44,0,0,1-.16-.61.43.43,0,0,1,.61-.16l1.92,1.1a.45.45,0,0,1,.16.61.43.43,0,0,1-.39.23A.46.46,0,0,1,140.62,157.93Zm46.11,26.63-1.92-1.11a.45.45,0,0,1,.45-.78l1.92,1.11a.45.45,0,0,1,.16.61.43.43,0,0,1-.39.23A.46.46,0,0,1,186.73,184.56Zm-3.84-2.22L181,181.23a.44.44,0,0,1-.16-.61.43.43,0,0,1,.61-.16l1.92,1.1a.45.45,0,0,1,.16.62.44.44,0,0,1-.39.22A.46.46,0,0,1,182.89,182.34Zm-3.84-2.22L177.13,179a.43.43,0,0,1-.16-.61.44.44,0,0,1,.61-.16l1.92,1.11a.45.45,0,0,1,.16.61.44.44,0,0,1-.39.22A.46.46,0,0,1,179.05,180.12Zm-3.84-2.21-1.92-1.11a.45.45,0,0,1-.17-.61.46.46,0,0,1,.62-.17l1.92,1.11a.45.45,0,0,1,.16.61.43.43,0,0,1-.39.23A.46.46,0,0,1,175.21,177.91Zm-3.84-2.22-1.92-1.11a.45.45,0,0,1-.17-.61.46.46,0,0,1,.62-.17l1.92,1.11a.45.45,0,0,1,.16.61.43.43,0,0,1-.39.23A.46.46,0,0,1,171.37,175.69Zm-3.84-2.22-1.92-1.11a.45.45,0,0,1-.17-.61.44.44,0,0,1,.61-.16L168,172.7a.45.45,0,0,1,.16.61.44.44,0,0,1-.39.22A.46.46,0,0,1,167.53,173.47Zm-45.76-16.73a.46.46,0,0,1,.17-.62l1.92-1.11a.44.44,0,0,1,.6.18.45.45,0,0,1-.17.61l-1.91,1.1a.43.43,0,0,1-.22.06A.46.46,0,0,1,121.77,156.74Zm15-.94a15.17,15.17,0,0,0-2-.73.45.45,0,1,1,.24-.86,15.12,15.12,0,0,1,2.15.77.44.44,0,0,1,.23.59.46.46,0,0,1-.41.27A.58.58,0,0,1,136.79,155.8Zm-11.1-1.12a.45.45,0,0,1,.31-.56,12.87,12.87,0,0,1,2.24-.45.45.45,0,1,1,.11.89,13.23,13.23,0,0,0-2.1.42l-.13,0A.46.46,0,0,1,125.69,154.68Zm7-.05a19.48,19.48,0,0,0-2.15-.18.43.43,0,0,1-.44-.45.45.45,0,0,1,.45-.44,19.11,19.11,0,0,1,2.27.18.46.46,0,0,1,.38.51.45.45,0,0,1-.44.38Z"/><path class="cls-55" d="M133.5,317.24a17.23,17.23,0,0,1-2.27-.19.44.44,0,1,1,.13-.88,19.68,19.68,0,0,0,2.15.18.43.43,0,0,1,.44.45.44.44,0,0,1-.45.44Zm1.78-.5a.43.43,0,0,1,.39-.49,13.46,13.46,0,0,0,2.1-.42.44.44,0,0,1,.55.3.45.45,0,0,1-.3.56,14,14,0,0,1-2.25.44h-.05A.44.44,0,0,1,135.28,316.74Zm-6.27-.16a15.58,15.58,0,0,1-2.15-.77.45.45,0,1,1,.37-.81,15,15,0,0,0,2,.72.44.44,0,0,1,.31.55.45.45,0,0,1-.43.33Zm10.55-1a.46.46,0,0,1,.19-.62l1.92-1.11a.45.45,0,1,1,.44.78l-1.94,1.12-.24-.38.23.39a.54.54,0,0,1-.21.05A.45.45,0,0,1,139.56,315.62Zm-14.69-.87L123,313.64a.45.45,0,1,1,.44-.78l1.92,1.11a.45.45,0,0,1-.22.84A.43.43,0,0,1,124.87,314.75Zm18.55-1.36a.45.45,0,0,1,.17-.61l1.92-1.11a.45.45,0,1,1,.44.78L144,313.56a.43.43,0,0,1-.22.06A.46.46,0,0,1,143.42,313.39ZM121,312.53l-1.92-1.11a.45.45,0,1,1,.44-.78l1.92,1.11a.45.45,0,0,1-.22.84A.43.43,0,0,1,121,312.53Zm26.23-1.35a.46.46,0,0,1,.17-.62l1.92-1.1a.45.45,0,0,1,.61.16.45.45,0,0,1-.16.61l-1.92,1.11a.49.49,0,0,1-.23.06A.47.47,0,0,1,147.26,311.18Zm-30.07-.87-1.92-1.11a.44.44,0,0,1-.17-.61.44.44,0,0,1,.61-.16l1.92,1.11a.44.44,0,0,1,.17.61.47.47,0,0,1-.39.22A.43.43,0,0,1,117.19,310.31ZM151.1,309a.44.44,0,0,1,.17-.61l1.92-1.11a.44.44,0,0,1,.61.16.45.45,0,0,1-.16.61l-1.92,1.11a.49.49,0,0,1-.23.06A.47.47,0,0,1,151.1,309Zm-37.75-.87-1.93-1.1a.46.46,0,0,1-.16-.62.45.45,0,0,1,.61-.16l1.92,1.11a.45.45,0,0,1,.17.61.47.47,0,0,1-.39.22A.43.43,0,0,1,113.35,308.09Zm41.59-1.35a.45.45,0,0,1,.17-.61L157,305a.45.45,0,0,1,.61.16.46.46,0,0,1-.16.62l-1.92,1.1a.4.4,0,0,1-.23.06A.47.47,0,0,1,154.94,306.74Zm-45.44-.86-1.92-1.11a.45.45,0,0,1-.16-.61A.45.45,0,0,1,108,304L110,305.1a.45.45,0,0,1,.17.61.46.46,0,0,1-.39.23A.49.49,0,0,1,109.5,305.88Zm49.29-1.36a.44.44,0,0,1,.16-.61l1.92-1.11a.45.45,0,0,1,.45.78l-1.92,1.11a.46.46,0,0,1-.23.06A.43.43,0,0,1,158.79,304.52Zm-53.13-.86-1.92-1.11a.45.45,0,0,1-.16-.61.43.43,0,0,1,.61-.16l1.92,1.1a.45.45,0,0,1,.16.62.44.44,0,0,1-.38.22A.46.46,0,0,1,105.66,303.66Zm57-1.35a.45.45,0,0,1,.16-.62l1.92-1.1a.45.45,0,1,1,.45.77l-1.92,1.11a.46.46,0,0,1-.23.06A.44.44,0,0,1,162.63,302.31Zm-60.81-.87-1.92-1.11a.45.45,0,0,1-.16-.61.44.44,0,0,1,.61-.16l1.92,1.11a.43.43,0,0,1,.16.61.44.44,0,0,1-.38.22A.46.46,0,0,1,101.82,301.44Zm64.65-1.35a.44.44,0,0,1,.16-.61l1.92-1.11a.45.45,0,0,1,.45.77l-1.92,1.11a.46.46,0,0,1-.23.06A.44.44,0,0,1,166.47,300.09ZM98,299.23l-.61-.36a10.55,10.55,0,0,1-1.3-.88.45.45,0,0,1-.08-.63.46.46,0,0,1,.63-.07,10.72,10.72,0,0,0,1.19.8l.62.36a.44.44,0,0,1,.16.61.43.43,0,0,1-.38.23A.46.46,0,0,1,98,299.23Zm72.33-1.35a.45.45,0,0,1,.15-.62,4.82,4.82,0,0,0,1.5-1.34.45.45,0,0,1,.74.51,6,6,0,0,1-1.77,1.6.53.53,0,0,1-.24.06A.43.43,0,0,1,170.31,297.88Zm-75.85-1.6a4.45,4.45,0,0,1-.77-2.31.45.45,0,1,1,.89,0,3.57,3.57,0,0,0,.63,1.84.46.46,0,0,1-.13.62.45.45,0,0,1-.25.07A.44.44,0,0,1,94.46,296.28Zm78.07-2.17a3.57,3.57,0,0,0-.63-1.84.45.45,0,0,1,.12-.62.44.44,0,0,1,.62.13,4.32,4.32,0,0,1,.78,2.3.44.44,0,0,1-.43.46h0A.45.45,0,0,1,172.53,294.11Zm-78-1.86a.45.45,0,0,1-.11-.63A5.9,5.9,0,0,1,96.21,290a.45.45,0,0,1,.46.77,4.87,4.87,0,0,0-1.51,1.34.47.47,0,0,1-.37.19A.44.44,0,0,1,94.54,292.25Zm75.94-1.48a10.53,10.53,0,0,0-1.18-.79l-.64-.37a.45.45,0,0,1-.16-.61.45.45,0,0,1,.61-.16l.64.36a11,11,0,0,1,1.28.87.45.45,0,0,1,.08.63.46.46,0,0,1-.36.17A.41.41,0,0,1,170.48,290.77ZM98,289.53a.45.45,0,0,1,.16-.61l1.92-1.11a.45.45,0,0,1,.45.78l-1.92,1.1a.46.46,0,0,1-.22.06A.44.44,0,0,1,98,289.53Zm68.77-1-1.92-1.1a.46.46,0,0,1-.16-.62.45.45,0,0,1,.61-.16l1.92,1.11a.45.45,0,0,1,.17.61.47.47,0,0,1-.39.22A.49.49,0,0,1,166.74,288.5Zm-64.93-1.19a.45.45,0,0,1,.16-.61l1.92-1.11a.46.46,0,0,1,.62.17.45.45,0,0,1-.17.61l-1.92,1.11a.46.46,0,0,1-.22.06A.43.43,0,0,1,101.81,287.31Zm61.09-1L161,285.18a.45.45,0,0,1-.16-.61.45.45,0,0,1,.61-.17l1.92,1.11a.45.45,0,0,1,.17.61.46.46,0,0,1-.39.23A.46.46,0,0,1,162.9,286.29Zm-57.25-1.19a.46.46,0,0,1,.16-.62l1.92-1.11a.46.46,0,0,1,.62.17.45.45,0,0,1-.17.61l-1.92,1.11a.46.46,0,0,1-.22.06A.44.44,0,0,1,105.65,285.1Zm53.41-1L157.14,283a.45.45,0,0,1-.16-.61.44.44,0,0,1,.61-.16l1.92,1.1a.46.46,0,0,1,.17.62.47.47,0,0,1-.39.22A.46.46,0,0,1,159.06,284.07Zm-49.57-1.19a.44.44,0,0,1,.17-.61l1.92-1.11a.44.44,0,1,1,.44.77L110.1,283a.43.43,0,0,1-.22.06A.46.46,0,0,1,109.49,282.88Zm45.73-1-1.92-1.11a.45.45,0,0,1-.16-.61.44.44,0,0,1,.61-.16l1.92,1.11a.43.43,0,0,1,.16.61.44.44,0,0,1-.38.22A.46.46,0,0,1,155.22,281.85Zm-41.89-1.19a.45.45,0,0,1,.17-.61l1.92-1.11a.45.45,0,1,1,.44.78l-1.92,1.1a.43.43,0,0,1-.22.06A.46.46,0,0,1,113.33,280.66Zm38.05-1-1.92-1.1a.45.45,0,0,1-.16-.62.45.45,0,0,1,.61-.16l1.92,1.11a.43.43,0,0,1,.16.61.44.44,0,0,1-.38.22A.38.38,0,0,1,151.38,279.63Zm-34.21-1.19a.45.45,0,0,1,.17-.61l1.92-1.11a.45.45,0,1,1,.44.78l-1.92,1.11a.43.43,0,0,1-.22.06A.46.46,0,0,1,117.17,278.44Zm30.37-1-1.92-1.11a.45.45,0,0,1,.45-.78l1.92,1.11a.44.44,0,0,1,.16.61.43.43,0,0,1-.38.23A.46.46,0,0,1,147.54,277.42ZM121,276.23a.46.46,0,0,1,.17-.62l1.92-1.1a.44.44,0,1,1,.44.77l-1.92,1.11a.43.43,0,0,1-.22.06A.46.46,0,0,1,121,276.23Zm22.69-1-1.92-1.11a.44.44,0,0,1-.16-.61.43.43,0,0,1,.61-.16l1.92,1.1a.45.45,0,0,1,.16.62.44.44,0,0,1-.38.22A.46.46,0,0,1,143.7,275.2ZM124.85,274a.44.44,0,0,1,.17-.61l1.87-1.09,0,0a.42.42,0,0,1,.6.17.45.45,0,0,1-.17.61l-1.91,1.1a.43.43,0,0,1-.22.06A.47.47,0,0,1,124.85,274Zm15-.94a13.88,13.88,0,0,0-2-.72.47.47,0,0,1-.31-.56.45.45,0,0,1,.55-.31,15.12,15.12,0,0,1,2.15.77.45.45,0,0,1-.18.86A.39.39,0,0,1,139.87,273.07ZM128.77,272a.45.45,0,0,1,.31-.56,13.87,13.87,0,0,1,2.24-.45.46.46,0,0,1,.5.39.45.45,0,0,1-.39.5,13.23,13.23,0,0,0-2.1.42l-.13,0A.46.46,0,0,1,128.77,272Zm7-.05a17.3,17.3,0,0,0-2.15-.17.45.45,0,0,1-.44-.46.43.43,0,0,1,.46-.44,17.22,17.22,0,0,1,2.26.19.43.43,0,0,1,.38.5.44.44,0,0,1-.44.39Z"/><path class="cls-55" d="M190.3,349.72a19.45,19.45,0,0,1-2.27-.18.45.45,0,0,1-.37-.51.44.44,0,0,1,.5-.38,19.66,19.66,0,0,0,2.16.18.45.45,0,1,1,0,.89Zm1.78-.5a.43.43,0,0,1,.39-.49,13.46,13.46,0,0,0,2.1-.42.44.44,0,0,1,.55.3.45.45,0,0,1-.3.56,15.18,15.18,0,0,1-2.25.45h0A.44.44,0,0,1,192.08,349.22Zm-6.27-.16a15.58,15.58,0,0,1-2.15-.77.45.45,0,0,1-.22-.59.43.43,0,0,1,.59-.22,15,15,0,0,0,2,.72.45.45,0,0,1-.12.88Zm10.56-1a.46.46,0,0,1,.18-.62l1.92-1.11a.45.45,0,0,1,.45.78L197,348.26l-.25-.37.22.39a.41.41,0,0,1-.21.05A.43.43,0,0,1,196.37,348.1Zm-14.7-.87-1.92-1.11a.44.44,0,0,1-.16-.61.44.44,0,0,1,.61-.17l1.92,1.11a.44.44,0,0,1,.16.61.43.43,0,0,1-.39.23A.46.46,0,0,1,181.67,347.23Zm18.56-1.36a.45.45,0,0,1,.16-.61l1.92-1.11a.45.45,0,0,1,.45.78L200.84,346a.46.46,0,0,1-.23.06A.43.43,0,0,1,200.23,345.87Zm-22.4-.86-1.92-1.11a.45.45,0,1,1,.45-.77l1.92,1.1a.46.46,0,0,1,.16.62.44.44,0,0,1-.39.22A.46.46,0,0,1,177.83,345Zm26.24-1.35a.44.44,0,0,1,.16-.61l1.92-1.11a.45.45,0,0,1,.45.77l-1.92,1.11a.46.46,0,0,1-.22.06A.44.44,0,0,1,204.07,343.66ZM174,342.79l-1.92-1.11a.44.44,0,0,1-.17-.61.45.45,0,0,1,.62-.16l1.92,1.11a.45.45,0,0,1,.16.61.44.44,0,0,1-.39.22A.46.46,0,0,1,174,342.79Zm33.92-1.35a.44.44,0,0,1,.16-.61l1.92-1.11a.45.45,0,1,1,.45.77l-1.92,1.11a.46.46,0,0,1-.22.06A.44.44,0,0,1,207.91,341.44Zm-37.76-.87-1.92-1.11a.44.44,0,0,1-.17-.61.45.45,0,0,1,.62-.16l1.92,1.11a.45.45,0,0,1,.16.61.44.44,0,0,1-.39.22A.37.37,0,0,1,170.15,340.57Zm41.6-1.35a.45.45,0,0,1,.16-.61l1.92-1.11a.44.44,0,0,1,.61.17.44.44,0,0,1-.16.61l-1.92,1.11a.46.46,0,0,1-.22.06A.43.43,0,0,1,211.75,339.22Zm-45.44-.86-1.92-1.11a.45.45,0,0,1,.44-.78l1.92,1.11a.45.45,0,0,1,.17.61.43.43,0,0,1-.39.23A.43.43,0,0,1,166.31,338.36ZM215.59,337a.46.46,0,0,1,.16-.62l1.92-1.1a.45.45,0,1,1,.45.77l-1.92,1.11a.46.46,0,0,1-.22.06A.44.44,0,0,1,215.59,337Zm-53.12-.87L160.55,335a.45.45,0,0,1-.17-.61.44.44,0,0,1,.61-.16l1.92,1.1a.45.45,0,0,1-.22.84A.43.43,0,0,1,162.47,336.14Zm57-1.35a.45.45,0,0,1,.16-.61l1.92-1.11a.46.46,0,0,1,.62.16.44.44,0,0,1-.17.61L220,335a.46.46,0,0,1-.22.06A.44.44,0,0,1,219.43,334.79Zm-60.8-.87-1.92-1.11a.44.44,0,1,1,.44-.77l1.92,1.11a.44.44,0,0,1,.17.61.47.47,0,0,1-.39.22A.43.43,0,0,1,158.63,333.92Zm64.64-1.35a.45.45,0,0,1,.16-.61l1.92-1.11a.46.46,0,0,1,.62.16.46.46,0,0,1-.17.62l-1.92,1.1a.37.37,0,0,1-.22.06A.44.44,0,0,1,223.27,332.57Zm-68.48-.87-.62-.35a10.55,10.55,0,0,1-1.3-.88.44.44,0,0,1-.07-.63.44.44,0,0,1,.62-.07,10,10,0,0,0,1.2.8l.61.36a.45.45,0,0,1,.17.61.47.47,0,0,1-.39.23A.36.36,0,0,1,154.79,331.7Zm72.33-1.34a.44.44,0,0,1,.14-.61,5,5,0,0,0,1.51-1.35.45.45,0,0,1,.73.51,5.88,5.88,0,0,1-1.77,1.6.48.48,0,0,1-.23.07A.44.44,0,0,1,227.12,330.36Zm-75.86-1.6a4.42,4.42,0,0,1-.77-2.31.45.45,0,0,1,.44-.46.5.5,0,0,1,.46.44,3.46,3.46,0,0,0,.62,1.84.44.44,0,0,1-.13.62.42.42,0,0,1-.24.07A.46.46,0,0,1,151.26,328.76Zm78.07-2.17a3.57,3.57,0,0,0-.63-1.84.45.45,0,0,1,.75-.49,4.49,4.49,0,0,1,.78,2.3.44.44,0,0,1-.44.46h0A.45.45,0,0,1,229.33,326.59Zm-78-1.86a.45.45,0,0,1-.1-.63,5.86,5.86,0,0,1,1.77-1.59.46.46,0,0,1,.62.15.45.45,0,0,1-.16.62,4.94,4.94,0,0,0-1.5,1.34.47.47,0,0,1-.37.19A.5.5,0,0,1,151.34,324.73Zm75.94-1.48a9.69,9.69,0,0,0-1.18-.79l-.63-.37a.45.45,0,1,1,.45-.77l.63.36a10.37,10.37,0,0,1,1.29.87.45.45,0,0,1-.28.8A.42.42,0,0,1,227.28,323.25ZM154.78,322a.43.43,0,0,1,.16-.61l1.92-1.11a.45.45,0,1,1,.45.77l-1.92,1.11a.46.46,0,0,1-.23.06A.44.44,0,0,1,154.78,322Zm68.77-1-1.92-1.1a.45.45,0,0,1,.45-.78l1.92,1.11a.45.45,0,0,1-.23.83A.37.37,0,0,1,223.55,321Zm-64.93-1.19a.44.44,0,0,1,.16-.61l1.92-1.11a.45.45,0,0,1,.45.78L159.23,320a.46.46,0,0,1-.23.06A.43.43,0,0,1,158.62,319.79Zm61.09-1-1.92-1.11a.43.43,0,0,1-.16-.61.44.44,0,0,1,.61-.17l1.92,1.11a.45.45,0,0,1,.16.61.43.43,0,0,1-.39.23A.46.46,0,0,1,219.71,318.77Zm-57.25-1.2a.45.45,0,0,1,.16-.61l1.92-1.1a.45.45,0,1,1,.45.77l-1.92,1.11a.46.46,0,0,1-.23.06A.43.43,0,0,1,162.46,317.57Zm53.41-1L214,315.44a.45.45,0,0,1-.17-.61.45.45,0,0,1,.62-.16l1.92,1.1a.46.46,0,0,1,.16.62.44.44,0,0,1-.39.22A.46.46,0,0,1,215.87,316.55Zm-49.57-1.19a.44.44,0,0,1,.16-.61l1.92-1.11a.45.45,0,1,1,.45.77l-1.92,1.11a.46.46,0,0,1-.23.06A.44.44,0,0,1,166.3,315.36Zm45.73-1-1.92-1.11a.44.44,0,0,1-.17-.61.45.45,0,0,1,.62-.16l1.92,1.11a.45.45,0,0,1,.16.61.44.44,0,0,1-.39.22A.46.46,0,0,1,212,314.33Zm-41.89-1.19a.44.44,0,0,1,.16-.61l1.92-1.11a.45.45,0,0,1,.45.78l-1.92,1.1a.38.38,0,0,1-.23.06A.44.44,0,0,1,170.14,313.14Zm38.05-1L206.27,311a.45.45,0,0,1,.44-.78l1.93,1.11a.45.45,0,0,1,.16.61.43.43,0,0,1-.39.23A.43.43,0,0,1,208.19,312.12ZM174,310.92a.44.44,0,0,1,.16-.61l1.92-1.11a.45.45,0,0,1,.45.78l-1.92,1.11a.46.46,0,0,1-.23.06A.43.43,0,0,1,174,310.92Zm30.37-1-1.92-1.11a.45.45,0,0,1,.44-.78l1.92,1.11a.45.45,0,0,1-.22.84A.43.43,0,0,1,204.35,309.9Zm-26.53-1.19a.45.45,0,0,1,.16-.62l1.92-1.1a.45.45,0,1,1,.45.77l-1.92,1.11a.46.46,0,0,1-.22.06A.44.44,0,0,1,177.82,308.71Zm22.69-1-1.92-1.11a.44.44,0,1,1,.44-.77l1.92,1.11a.44.44,0,0,1-.22.83A.43.43,0,0,1,200.51,307.68Zm-18.85-1.19a.44.44,0,0,1,.16-.61l1.92-1.11a.43.43,0,0,1,.6.17.45.45,0,0,1-.17.61l-1.9,1.1a.46.46,0,0,1-.22.06A.44.44,0,0,1,181.66,306.49Zm15-.94a15,15,0,0,0-2-.72.45.45,0,0,1,.24-.87,15.58,15.58,0,0,1,2.15.77.45.45,0,0,1-.18.86A.41.41,0,0,1,196.67,305.55Zm-11.09-1.12a.45.45,0,0,1,.3-.56,15.18,15.18,0,0,1,2.25-.45.45.45,0,0,1,.49.39.44.44,0,0,1-.39.5,13.46,13.46,0,0,0-2.1.42l-.12,0A.44.44,0,0,1,185.58,304.43Zm7-.05a17.46,17.46,0,0,0-2.16-.17.46.46,0,0,1-.44-.46.45.45,0,0,1,.46-.44,17.52,17.52,0,0,1,2.27.19.43.43,0,0,1,.37.5.44.44,0,0,1-.44.39Z"/><path class="cls-55" d="M359.53,317.26a19.12,19.12,0,0,1-2.27-.19.45.45,0,0,1-.38-.51.46.46,0,0,1,.51-.38,15.72,15.72,0,0,0,2.15.18.45.45,0,0,1,0,.9Zm1.77-.5a.46.46,0,0,1,.4-.5,12.08,12.08,0,0,0,2.09-.42.45.45,0,0,1,.26.86,13,13,0,0,1-2.25.45h-.05A.44.44,0,0,1,361.3,316.76ZM355,316.6a15.58,15.58,0,0,1-2.15-.77.45.45,0,1,1,.37-.82,15,15,0,0,0,2,.73.44.44,0,0,1,.31.55.46.46,0,0,1-.43.33Zm10.55-1a.46.46,0,0,1,.19-.62l1.92-1.11a.44.44,0,1,1,.44.77l-1.95,1.13a.42.42,0,0,1-.21.06A.47.47,0,0,1,365.59,315.64Zm-14.69-.88L349,313.65a.44.44,0,1,1,.44-.77l1.92,1.11a.44.44,0,0,1,.17.61.47.47,0,0,1-.39.22A.43.43,0,0,1,350.9,314.76Zm18.55-1.35a.44.44,0,0,1,.17-.61l1.92-1.11a.45.45,0,1,1,.45.77l-1.93,1.11a.43.43,0,0,1-.22.06A.47.47,0,0,1,369.45,313.41Zm-22.39-.87-1.93-1.1a.46.46,0,0,1-.16-.62.45.45,0,0,1,.61-.16l1.92,1.11a.45.45,0,0,1,.17.61.47.47,0,0,1-.39.22A.35.35,0,0,1,347.06,312.54Zm26.23-1.35a.45.45,0,0,1,.17-.61l1.92-1.11a.45.45,0,0,1,.61.17.45.45,0,0,1-.16.61l-1.92,1.11a.49.49,0,0,1-.23.06A.46.46,0,0,1,373.29,311.19Zm-30.08-.86-1.92-1.11a.45.45,0,0,1-.16-.61.45.45,0,0,1,.61-.17l1.92,1.11a.45.45,0,0,1,.17.61.46.46,0,0,1-.39.23A.49.49,0,0,1,343.21,310.33ZM377.13,309a.45.45,0,0,1,.17-.61l1.92-1.11a.45.45,0,0,1,.61.17.45.45,0,0,1-.16.61l-1.92,1.11a.49.49,0,0,1-.23.06A.46.46,0,0,1,377.13,309Zm-37.76-.86L337.45,307a.45.45,0,0,1-.16-.61.44.44,0,0,1,.61-.16l1.92,1.1a.46.46,0,0,1,.17.62.47.47,0,0,1-.39.22A.49.49,0,0,1,339.37,308.11ZM381,306.76a.43.43,0,0,1,.16-.61l1.92-1.11a.44.44,0,0,1,.61.16.45.45,0,0,1-.16.61l-1.92,1.11a.46.46,0,0,1-.23.06A.44.44,0,0,1,381,306.76Zm-45.45-.87-1.92-1.11a.45.45,0,1,1,.45-.77l1.92,1.11a.45.45,0,0,1,.17.61.47.47,0,0,1-.39.22A.46.46,0,0,1,335.53,305.89Zm49.29-1.35a.44.44,0,0,1,.16-.61l1.92-1.11a.45.45,0,0,1,.45.78l-1.92,1.1a.38.38,0,0,1-.23.06A.44.44,0,0,1,384.82,304.54Zm-53.13-.86-1.92-1.11a.45.45,0,0,1,.45-.78l1.92,1.11a.43.43,0,0,1,.16.61.43.43,0,0,1-.38.23A.46.46,0,0,1,331.69,303.68Zm57-1.36a.44.44,0,0,1,.16-.61l1.92-1.11a.45.45,0,0,1,.45.78l-1.92,1.11a.46.46,0,0,1-.23.06A.43.43,0,0,1,388.66,302.32Zm-60.81-.86-1.92-1.11a.45.45,0,0,1,.45-.78l1.92,1.11a.45.45,0,0,1,.16.61.43.43,0,0,1-.38.23A.46.46,0,0,1,327.85,301.46Zm64.65-1.35a.45.45,0,0,1,.16-.62l1.92-1.1a.45.45,0,0,1,.45.77l-1.92,1.11a.46.46,0,0,1-.23.06A.44.44,0,0,1,392.5,300.11ZM324,299.24l-.61-.35a11.06,11.06,0,0,1-1.31-.88.46.46,0,0,1-.07-.63.45.45,0,0,1,.63-.07,10,10,0,0,0,1.2.8l.61.36a.45.45,0,0,1-.22.83A.46.46,0,0,1,324,299.24Zm72.33-1.34a.45.45,0,0,1,.15-.62,4.84,4.84,0,0,0,1.5-1.35.45.45,0,0,1,.74.52,5.88,5.88,0,0,1-1.77,1.6.53.53,0,0,1-.24.06A.47.47,0,0,1,396.34,297.9Zm-75.85-1.61a4.42,4.42,0,0,1-.77-2.31.45.45,0,0,1,.44-.46.44.44,0,0,1,.45.44,3.57,3.57,0,0,0,.63,1.84.46.46,0,0,1-.13.62.45.45,0,0,1-.25.07A.44.44,0,0,1,320.49,296.29Zm78.07-2.16a3.57,3.57,0,0,0-.63-1.84.44.44,0,0,1,.13-.62.45.45,0,0,1,.62.12,4.53,4.53,0,0,1,.78,2.31.46.46,0,0,1-.44.46h0A.45.45,0,0,1,398.56,294.13Zm-78-1.87a.45.45,0,0,1-.11-.62,5.9,5.9,0,0,1,1.78-1.59.44.44,0,0,1,.61.15.45.45,0,0,1-.15.62,5,5,0,0,0-1.51,1.34.44.44,0,0,1-.36.19A.43.43,0,0,1,320.57,292.26Zm75.94-1.47a8.66,8.66,0,0,0-1.18-.79l-.63-.37a.45.45,0,1,1,.44-.78l.64.37a10.56,10.56,0,0,1,1.28.86.45.45,0,0,1,.08.63.43.43,0,0,1-.35.17A.47.47,0,0,1,396.51,290.79ZM324,289.55a.46.46,0,0,1,.17-.62l1.92-1.1a.44.44,0,1,1,.44.77l-1.92,1.11a.43.43,0,0,1-.22.06A.46.46,0,0,1,324,289.55Zm68.78-1-1.92-1.11a.44.44,0,1,1,.44-.77l1.92,1.11a.44.44,0,0,1,.17.61.47.47,0,0,1-.39.22A.43.43,0,0,1,392.78,288.52Zm-64.94-1.19a.44.44,0,0,1,.17-.61l1.92-1.11a.44.44,0,1,1,.44.77l-1.92,1.11a.43.43,0,0,1-.22.06A.47.47,0,0,1,327.84,287.33Zm61.1-1L387,285.2a.46.46,0,0,1-.17-.62.44.44,0,0,1,.61-.16l1.92,1.11a.45.45,0,0,1,.17.61.46.46,0,0,1-.39.22A.43.43,0,0,1,388.94,286.3Zm-57.26-1.19a.45.45,0,0,1,.17-.61l1.92-1.11a.45.45,0,1,1,.44.78l-1.92,1.1a.36.36,0,0,1-.22.07A.47.47,0,0,1,331.68,285.11Zm53.41-1L383.17,283a.45.45,0,0,1-.16-.61.45.45,0,0,1,.61-.17l1.92,1.11a.45.45,0,0,1,.17.61.46.46,0,0,1-.39.23A.49.49,0,0,1,385.09,284.09Zm-49.57-1.2a.45.45,0,0,1,.17-.61l1.92-1.11a.45.45,0,0,1,.61.17.45.45,0,0,1-.16.61l-1.93,1.11a.43.43,0,0,1-.22.06A.45.45,0,0,1,335.52,282.89Zm45.73-1-1.92-1.11a.45.45,0,0,1,.45-.78l1.92,1.11a.46.46,0,0,1,.17.62.47.47,0,0,1-.39.22A.49.49,0,0,1,381.25,281.87Zm-41.89-1.19a.44.44,0,0,1,.17-.61l1.92-1.11a.44.44,0,0,1,.61.16.45.45,0,0,1-.16.61L340,280.84a.49.49,0,0,1-.23.06A.47.47,0,0,1,339.36,280.68Zm38.05-1-1.92-1.11a.45.45,0,0,1-.16-.61.44.44,0,0,1,.61-.16l1.92,1.11a.44.44,0,0,1,.17.61.47.47,0,0,1-.39.22A.46.46,0,0,1,377.41,279.65Zm-34.21-1.19a.44.44,0,0,1,.17-.61l1.92-1.11a.45.45,0,1,1,.45.77l-1.92,1.11a.49.49,0,0,1-.23.06A.47.47,0,0,1,343.2,278.46Zm30.37-1-1.92-1.1a.46.46,0,0,1-.16-.62.44.44,0,0,1,.61-.16l1.92,1.11a.45.45,0,0,1,.17.61.47.47,0,0,1-.39.22A.38.38,0,0,1,373.57,277.43ZM347,276.24a.45.45,0,0,1,.17-.61l1.92-1.11a.45.45,0,0,1,.61.17.45.45,0,0,1-.16.61l-1.92,1.11a.46.46,0,0,1-.23.06A.46.46,0,0,1,347,276.24Zm22.69-1-1.92-1.11a.45.45,0,0,1-.16-.61.45.45,0,0,1,.61-.17l1.92,1.11a.44.44,0,0,1,.16.61.43.43,0,0,1-.38.23A.46.46,0,0,1,369.73,275.22ZM350.89,274a.44.44,0,0,1,.16-.61l1.92-1.1.22.38-.22-.39a.44.44,0,0,1,.6.17.46.46,0,0,1-.17.62l-1.9,1.1a.46.46,0,0,1-.23.06A.43.43,0,0,1,350.89,274Zm15-.93a13.77,13.77,0,0,0-2-.73.45.45,0,1,1,.24-.86,15.44,15.44,0,0,1,2.14.77.44.44,0,0,1,.23.59.44.44,0,0,1-.41.26A.57.57,0,0,1,365.9,273.09ZM354.8,272a.45.45,0,0,1,.31-.55,12.87,12.87,0,0,1,2.24-.45.45.45,0,0,1,.5.39.46.46,0,0,1-.39.5,13.23,13.23,0,0,0-2.1.42l-.13,0A.46.46,0,0,1,354.8,272Zm7,0a19.48,19.48,0,0,0-2.15-.18.44.44,0,0,1-.44-.45.44.44,0,0,1,.46-.44,17.21,17.21,0,0,1,2.26.18.45.45,0,0,1,.38.51.44.44,0,0,1-.44.38Z"/><path class="cls-55" d="M304,350a17.36,17.36,0,0,1-2.27-.18.45.45,0,1,1,.13-.89,15.72,15.72,0,0,0,2.15.18.45.45,0,1,1,0,.89Zm1.77-.5a.45.45,0,0,1,.4-.49,13.46,13.46,0,0,0,2.1-.42.44.44,0,0,1,.55.3.45.45,0,0,1-.3.56,14,14,0,0,1-2.25.45h-.05A.46.46,0,0,1,305.76,349.45Zm-6.26-.15a15.6,15.6,0,0,1-2.15-.78.45.45,0,1,1,.37-.81,15,15,0,0,0,2,.72.45.45,0,0,1,.31.55.44.44,0,0,1-.43.33Zm10.55-1a.47.47,0,0,1,.19-.62l1.92-1.11a.45.45,0,0,1,.61.17.45.45,0,0,1-.16.61l-2,1.13a.42.42,0,0,1-.21.06A.47.47,0,0,1,310.05,348.33Zm-14.69-.87-1.92-1.11a.45.45,0,0,1,.44-.78l1.92,1.11a.45.45,0,0,1,.17.61.46.46,0,0,1-.39.23A.43.43,0,0,1,295.36,347.46Zm18.55-1.35a.46.46,0,0,1,.17-.62l1.92-1.1a.44.44,0,0,1,.61.16.45.45,0,0,1-.16.61l-1.92,1.11a.49.49,0,0,1-.23.06A.47.47,0,0,1,313.91,346.11Zm-22.39-.87-1.92-1.11a.44.44,0,1,1,.44-.77l1.92,1.11a.44.44,0,0,1,.17.61.46.46,0,0,1-.39.22A.43.43,0,0,1,291.52,345.24Zm26.23-1.35a.44.44,0,0,1,.17-.61l1.92-1.11a.45.45,0,0,1,.45.77l-1.92,1.11a.46.46,0,0,1-.23.06A.47.47,0,0,1,317.75,343.89ZM287.68,343l-1.92-1.11a.44.44,0,1,1,.44-.77l1.92,1.11a.45.45,0,0,1,.17.61.47.47,0,0,1-.39.22A.43.43,0,0,1,287.68,343Zm33.92-1.35a.43.43,0,0,1,.16-.61l1.92-1.11a.44.44,0,0,1,.61.17.45.45,0,0,1-.16.61l-1.92,1.1a.39.39,0,0,1-.23.07A.45.45,0,0,1,321.6,341.67Zm-37.76-.86-1.92-1.11a.45.45,0,0,1,.44-.78l1.92,1.11a.45.45,0,0,1,.17.61.46.46,0,0,1-.39.23A.43.43,0,0,1,283.84,340.81Zm41.6-1.36a.45.45,0,0,1,.16-.61l1.92-1.11a.45.45,0,0,1,.45.78l-1.92,1.11a.46.46,0,0,1-.23.06A.43.43,0,0,1,325.44,339.45ZM280,338.59l-1.92-1.11a.45.45,0,0,1-.16-.61.44.44,0,0,1,.61-.16l1.92,1.1a.46.46,0,0,1,.17.62.47.47,0,0,1-.39.22A.49.49,0,0,1,280,338.59Zm49.29-1.35a.44.44,0,0,1,.16-.61l1.92-1.11a.45.45,0,0,1,.45.77l-1.92,1.11a.46.46,0,0,1-.23.06A.44.44,0,0,1,329.28,337.24Zm-53.13-.87-1.92-1.11a.45.45,0,0,1-.16-.61.44.44,0,0,1,.61-.16l1.92,1.11a.44.44,0,0,1,.17.61.47.47,0,0,1-.39.22A.46.46,0,0,1,276.15,336.37Zm57-1.35a.44.44,0,0,1,.16-.61l1.92-1.11a.45.45,0,0,1,.61.16.44.44,0,0,1-.16.61l-1.92,1.11a.46.46,0,0,1-.23.06A.44.44,0,0,1,333.12,335Zm-60.81-.87-1.92-1.1a.46.46,0,0,1-.16-.62.44.44,0,0,1,.61-.16l1.92,1.11a.43.43,0,0,1,.16.61.44.44,0,0,1-.38.22A.38.38,0,0,1,272.31,334.15ZM337,332.8a.44.44,0,0,1,.16-.61l1.92-1.11a.45.45,0,0,1,.45.78L337.57,333a.46.46,0,0,1-.23.06A.43.43,0,0,1,337,332.8Zm-68.49-.86-.61-.36a10.68,10.68,0,0,1-1.31-.88.45.45,0,0,1,.56-.7,10,10,0,0,0,1.2.81l.61.35a.44.44,0,0,1,.16.61.43.43,0,0,1-.38.23A.46.46,0,0,1,268.47,331.94Zm72.33-1.35A.44.44,0,0,1,341,330a5,5,0,0,0,1.5-1.35.46.46,0,0,1,.63-.11.45.45,0,0,1,.11.62,5.76,5.76,0,0,1-1.77,1.6.44.44,0,0,1-.24.07A.45.45,0,0,1,340.8,330.59ZM265,329a4.42,4.42,0,0,1-.77-2.31.45.45,0,0,1,.44-.46.46.46,0,0,1,.46.44,3.46,3.46,0,0,0,.62,1.84.46.46,0,0,1-.13.62.45.45,0,0,1-.25.07A.44.44,0,0,1,265,329ZM343,326.82a3.57,3.57,0,0,0-.63-1.84.44.44,0,0,1,.13-.62.45.45,0,0,1,.62.13,4.52,4.52,0,0,1,.78,2.3.46.46,0,0,1-.44.47h0A.46.46,0,0,1,343,326.82ZM265,325a.45.45,0,0,1-.11-.62,5.77,5.77,0,0,1,1.78-1.59.43.43,0,0,1,.61.15.44.44,0,0,1-.15.61,5.12,5.12,0,0,0-1.51,1.34.41.41,0,0,1-.36.19A.42.42,0,0,1,265,325ZM341,323.48a11,11,0,0,0-1.18-.79l-.63-.36a.46.46,0,0,1-.17-.62.46.46,0,0,1,.62-.16l.63.37a10.56,10.56,0,0,1,1.28.86.45.45,0,0,1,.08.63.46.46,0,0,1-.35.17A.42.42,0,0,1,341,323.48Zm-72.51-1.24a.45.45,0,0,1,.17-.61l1.92-1.11a.45.45,0,1,1,.44.78l-1.92,1.11a.43.43,0,0,1-.22.06A.45.45,0,0,1,268.46,322.24Zm68.78-1-1.92-1.11a.45.45,0,0,1-.17-.61.46.46,0,0,1,.62-.17l1.92,1.11a.45.45,0,0,1,.16.61.43.43,0,0,1-.39.23A.46.46,0,0,1,337.24,321.22ZM272.3,320a.46.46,0,0,1,.17-.62l1.92-1.11a.45.45,0,1,1,.44.78l-1.92,1.11a.43.43,0,0,1-.22.06A.47.47,0,0,1,272.3,320Zm61.1-1-1.92-1.11a.44.44,0,1,1,.44-.77l1.92,1.1a.46.46,0,0,1,.17.62.44.44,0,0,1-.39.22A.43.43,0,0,1,333.4,319Zm-57.26-1.19a.44.44,0,0,1,.17-.61l1.92-1.11a.45.45,0,0,1,.61.16.44.44,0,0,1-.17.61L276.75,318a.43.43,0,0,1-.22.06A.47.47,0,0,1,276.14,317.81Zm53.42-1-1.92-1.11a.44.44,0,1,1,.44-.77L330,316a.44.44,0,0,1,.17.61.47.47,0,0,1-.39.22A.43.43,0,0,1,329.56,316.78ZM280,315.59a.45.45,0,0,1,.17-.61l1.92-1.11a.44.44,0,0,1,.61.16.46.46,0,0,1-.16.62l-1.92,1.1a.49.49,0,0,1-.23.06A.47.47,0,0,1,280,315.59Zm45.74-1-1.92-1.11a.45.45,0,1,1,.44-.78l1.92,1.11a.45.45,0,0,1,.17.61.46.46,0,0,1-.39.23A.43.43,0,0,1,325.72,314.57Zm-41.9-1.2a.45.45,0,0,1,.17-.61l1.92-1.11a.45.45,0,0,1,.61.17.45.45,0,0,1-.16.61l-1.92,1.11a.46.46,0,0,1-.23.06A.46.46,0,0,1,283.82,313.37Zm38.05-1L320,311.24a.45.45,0,0,1-.16-.61.45.45,0,0,1,.61-.17l1.92,1.11a.45.45,0,0,1,.17.61.46.46,0,0,1-.39.23A.49.49,0,0,1,321.87,312.35Zm-34.2-1.19a.45.45,0,0,1,.16-.62l1.92-1.1a.44.44,0,0,1,.61.16.45.45,0,0,1-.16.61l-1.92,1.11a.46.46,0,0,1-.23.06A.44.44,0,0,1,287.67,311.16Zm30.36-1L316.11,309a.45.45,0,0,1-.16-.61.44.44,0,0,1,.61-.16l1.92,1.11a.44.44,0,0,1,.17.61.47.47,0,0,1-.39.22A.49.49,0,0,1,318,310.13Zm-26.52-1.19a.43.43,0,0,1,.16-.61l1.92-1.11a.45.45,0,0,1,.45.77l-1.92,1.11a.46.46,0,0,1-.23.06A.44.44,0,0,1,291.51,308.94Zm22.68-1-1.92-1.11a.45.45,0,0,1-.16-.61.44.44,0,0,1,.61-.16l1.92,1.11a.45.45,0,0,1,.17.61.47.47,0,0,1-.39.22A.49.49,0,0,1,314.19,307.91Zm-18.84-1.19a.44.44,0,0,1,.16-.61l1.92-1.11.22.39-.22-.39a.44.44,0,0,1,.6.17.46.46,0,0,1-.17.62l-1.9,1.09a.39.39,0,0,1-.23.07A.45.45,0,0,1,295.35,306.72Zm15-.94a15,15,0,0,0-2-.72.44.44,0,0,1-.31-.55.43.43,0,0,1,.55-.31,16,16,0,0,1,2.15.76.45.45,0,0,1,.22.59.43.43,0,0,1-.41.27A.39.39,0,0,1,310.36,305.78Zm-11.1-1.12a.44.44,0,0,1,.31-.55,13.87,13.87,0,0,1,2.24-.46.46.46,0,0,1,.5.4.45.45,0,0,1-.39.49,13.23,13.23,0,0,0-2.1.42.27.27,0,0,1-.13,0A.45.45,0,0,1,299.26,304.66Zm7,0a15.46,15.46,0,0,0-2.15-.18.45.45,0,0,1-.44-.46.44.44,0,0,1,.46-.44,19.13,19.13,0,0,1,2.26.19.45.45,0,0,1-.06.89Z"/><path class="cls-55" d="M95.35,200.18a17.38,17.38,0,0,1-2.27-.19.44.44,0,1,1,.13-.88,19.68,19.68,0,0,0,2.15.18.43.43,0,0,1,.44.45.44.44,0,0,1-.45.44Zm1.77-.5a.46.46,0,0,1,.4-.5,12.4,12.4,0,0,0,2.1-.41.43.43,0,0,1,.55.3.45.45,0,0,1-.3.56,14,14,0,0,1-2.25.44h-.05A.46.46,0,0,1,97.12,199.68Zm-6.26-.16a15.58,15.58,0,0,1-2.15-.77.45.45,0,0,1,.37-.82,13.77,13.77,0,0,0,2,.73.45.45,0,0,1-.12.88Zm10.55-1a.46.46,0,0,1,.19-.62l1.92-1.11a.45.45,0,0,1,.61.16.46.46,0,0,1-.16.62l-2,1.13a.54.54,0,0,1-.21,0A.46.46,0,0,1,101.41,198.56Zm-14.69-.88-1.92-1.1a.45.45,0,1,1,.44-.78l1.92,1.11a.45.45,0,0,1,.17.61.48.48,0,0,1-.39.23A.36.36,0,0,1,86.72,197.68Zm18.55-1.35a.45.45,0,0,1,.17-.61l1.92-1.11a.45.45,0,0,1,.61.17.45.45,0,0,1-.16.61l-1.92,1.11a.49.49,0,0,1-.23.06A.46.46,0,0,1,105.27,196.33Zm-22.39-.86L81,194.36a.45.45,0,1,1,.44-.78l1.92,1.11a.45.45,0,0,1-.22.84A.43.43,0,0,1,82.88,195.47Zm26.23-1.35a.46.46,0,0,1,.17-.62l1.92-1.11a.45.45,0,0,1,.45.78l-1.92,1.11a.46.46,0,0,1-.23.06A.47.47,0,0,1,109.11,194.12ZM79,193.25l-1.92-1.11a.45.45,0,0,1-.17-.61.44.44,0,0,1,.61-.16l1.92,1.11a.44.44,0,0,1,.17.61.47.47,0,0,1-.39.22A.43.43,0,0,1,79,193.25ZM113,191.9a.44.44,0,0,1,.17-.61l1.92-1.11a.45.45,0,0,1,.45.77l-1.92,1.11a.46.46,0,0,1-.23.06A.47.47,0,0,1,113,191.9ZM75.2,191l-1.93-1.11a.45.45,0,0,1-.16-.61.44.44,0,0,1,.61-.16l1.92,1.11a.44.44,0,0,1,.17.61.47.47,0,0,1-.39.22A.43.43,0,0,1,75.2,191Zm41.6-1.35a.44.44,0,0,1,.16-.61l1.92-1.11a.45.45,0,0,1,.45.78l-1.92,1.1a.46.46,0,0,1-.23.06A.44.44,0,0,1,116.8,189.68Zm-45.45-.86-1.92-1.11a.45.45,0,0,1-.16-.61.45.45,0,0,1,.61-.17L71.8,188a.45.45,0,0,1,.17.61.46.46,0,0,1-.39.23A.49.49,0,0,1,71.35,188.82Zm49.29-1.36a.45.45,0,0,1,.16-.61l1.92-1.11a.45.45,0,0,1,.45.78l-1.92,1.11a.46.46,0,0,1-.23.06A.43.43,0,0,1,120.64,187.46Zm-53.13-.86-1.92-1.11a.45.45,0,0,1-.16-.61.45.45,0,0,1,.61-.17L68,185.82a.45.45,0,0,1,.17.61.46.46,0,0,1-.39.23A.46.46,0,0,1,67.51,186.6Zm57-1.35a.45.45,0,0,1,.16-.62l1.92-1.1a.45.45,0,0,1,.45.77l-1.92,1.11a.46.46,0,0,1-.23.06A.44.44,0,0,1,124.48,185.25Zm-60.81-.87-1.92-1.11a.45.45,0,0,1-.16-.61.44.44,0,0,1,.61-.16l1.92,1.11a.43.43,0,0,1,.16.61.44.44,0,0,1-.38.22A.46.46,0,0,1,63.67,184.38ZM128.32,183a.44.44,0,0,1,.16-.61l1.92-1.11a.45.45,0,0,1,.61.16.44.44,0,0,1-.16.61l-1.92,1.11a.46.46,0,0,1-.23.06A.44.44,0,0,1,128.32,183Zm-68.49-.87-.61-.35a10.68,10.68,0,0,1-1.31-.88.45.45,0,1,1,.56-.7,10,10,0,0,0,1.2.8l.61.36a.43.43,0,0,1,.16.61.44.44,0,0,1-.38.22A.38.38,0,0,1,59.83,182.16Zm72.33-1.34a.45.45,0,0,1,.15-.62,4.82,4.82,0,0,0,1.5-1.34.45.45,0,0,1,.74.51,5.88,5.88,0,0,1-1.77,1.6.53.53,0,0,1-.24.06A.44.44,0,0,1,132.16,180.82Zm-75.85-1.61a4.39,4.39,0,0,1-.77-2.3.45.45,0,0,1,.9,0,3.52,3.52,0,0,0,.62,1.85.45.45,0,0,1-.13.61.46.46,0,0,1-.25.08A.43.43,0,0,1,56.31,179.21Zm78.07-2.16a3.57,3.57,0,0,0-.63-1.84.45.45,0,1,1,.75-.49,4.49,4.49,0,0,1,.78,2.3.45.45,0,0,1-.44.46h0A.45.45,0,0,1,134.38,177.05Zm-78-1.86a.46.46,0,0,1-.11-.63A5.9,5.9,0,0,1,58.06,173a.45.45,0,0,1,.46.77A5,5,0,0,0,57,175.08a.44.44,0,0,1-.36.19A.5.5,0,0,1,56.39,175.19Zm75.94-1.48a9.69,9.69,0,0,0-1.18-.79l-.63-.37a.44.44,0,0,1-.17-.61.45.45,0,0,1,.62-.16l.63.36a9.55,9.55,0,0,1,1.28.87.45.45,0,0,1,.08.63.46.46,0,0,1-.35.17A.42.42,0,0,1,132.33,173.71Zm-72.51-1.24a.44.44,0,0,1,.17-.61l1.92-1.11a.45.45,0,0,1,.61.16.44.44,0,0,1-.17.61l-1.92,1.11a.43.43,0,0,1-.22.06A.46.46,0,0,1,59.82,172.47Zm68.78-1-1.92-1.1a.46.46,0,0,1-.17-.62.45.45,0,0,1,.61-.16l1.93,1.11a.45.45,0,0,1,.16.61.44.44,0,0,1-.39.22A.37.37,0,0,1,128.6,171.44Zm-64.94-1.19a.45.45,0,0,1,.17-.61l1.92-1.11a.45.45,0,1,1,.44.78l-1.92,1.11a.43.43,0,0,1-.22.06A.46.46,0,0,1,63.66,170.25Zm61.1-1-1.92-1.11a.45.45,0,1,1,.44-.78l1.92,1.11a.45.45,0,0,1,.17.61.43.43,0,0,1-.39.23A.43.43,0,0,1,124.76,169.23ZM67.5,168a.45.45,0,0,1,.17-.61l1.92-1.11a.45.45,0,0,1,.44.78l-1.92,1.11a.43.43,0,0,1-.22.06A.46.46,0,0,1,67.5,168Zm53.42-1L119,165.9a.45.45,0,0,1-.17-.61.44.44,0,0,1,.61-.16l1.92,1.1a.46.46,0,0,1,.17.62.47.47,0,0,1-.39.22A.43.43,0,0,1,120.92,167Zm-49.58-1.19a.44.44,0,0,1,.17-.61l1.92-1.11a.44.44,0,0,1,.61.16.45.45,0,0,1-.16.61L72,166a.43.43,0,0,1-.22.06A.47.47,0,0,1,71.34,165.82Zm45.74-1-1.92-1.11a.44.44,0,1,1,.44-.77l1.92,1.11a.44.44,0,0,1,.17.61.47.47,0,0,1-.39.22A.43.43,0,0,1,117.08,164.79Zm-41.9-1.19a.45.45,0,0,1,.17-.61l1.92-1.11a.45.45,0,0,1,.45.77l-1.92,1.11a.46.46,0,0,1-.23.06A.47.47,0,0,1,75.18,163.6Zm38.05-1-1.92-1.1a.46.46,0,0,1-.16-.62.45.45,0,0,1,.61-.16l1.92,1.11a.45.45,0,0,1,.17.61.48.48,0,0,1-.39.23A.41.41,0,0,1,113.23,162.57ZM79,161.38a.43.43,0,0,1,.16-.61l1.92-1.11a.45.45,0,0,1,.61.17.45.45,0,0,1-.16.61l-1.92,1.11a.46.46,0,0,1-.23.06A.43.43,0,0,1,79,161.38Zm30.36-1-1.92-1.11a.45.45,0,0,1-.16-.61.45.45,0,0,1,.61-.17l1.92,1.11a.45.45,0,0,1,.17.61.46.46,0,0,1-.39.23A.49.49,0,0,1,109.39,160.36Zm-26.52-1.2a.44.44,0,0,1,.16-.61L85,157.44a.45.45,0,0,1,.45.78l-1.92,1.11a.46.46,0,0,1-.23.06A.43.43,0,0,1,82.87,159.16Zm22.68-1L103.63,157a.45.45,0,0,1-.16-.61.43.43,0,0,1,.61-.16l1.92,1.11a.44.44,0,0,1,.17.61.47.47,0,0,1-.39.22A.49.49,0,0,1,105.55,158.14ZM86.71,157a.44.44,0,0,1,.16-.61l1.92-1.11.22.39-.22-.39a.42.42,0,0,1,.6.17.45.45,0,0,1-.17.61l-1.9,1.1a.46.46,0,0,1-.23.06A.44.44,0,0,1,86.71,157Zm15-.94a13.75,13.75,0,0,0-2-.72.45.45,0,0,1-.31-.56.45.45,0,0,1,.55-.31,16.07,16.07,0,0,1,2.15.77.45.45,0,0,1,.22.59.43.43,0,0,1-.41.27A.58.58,0,0,1,101.72,156Zm-11.1-1.12a.45.45,0,0,1,.31-.56,13.87,13.87,0,0,1,2.24-.45.46.46,0,0,1,.5.39.45.45,0,0,1-.39.5,13.23,13.23,0,0,0-2.1.42l-.13,0A.46.46,0,0,1,90.62,154.89Zm7,0a17.15,17.15,0,0,0-2.15-.17.45.45,0,0,1-.44-.46.44.44,0,0,1,.46-.44,17.22,17.22,0,0,1,2.26.19.43.43,0,0,1,.38.5.44.44,0,0,1-.44.39Z"/><path class="cls-55" d="M39.81,232.88a19.3,19.3,0,0,1-2.27-.19.46.46,0,0,1-.38-.51.47.47,0,0,1,.51-.38,15.72,15.72,0,0,0,2.15.18.45.45,0,0,1,0,.9Zm1.78-.5a.44.44,0,0,1,.39-.5,13.46,13.46,0,0,0,2.1-.42.44.44,0,0,1,.55.31.45.45,0,0,1-.3.55,13,13,0,0,1-2.25.45h0A.44.44,0,0,1,41.59,232.38Zm-6.27-.16a15.58,15.58,0,0,1-2.15-.77.45.45,0,0,1,.37-.82,15,15,0,0,0,2,.73.44.44,0,0,1,.31.55.43.43,0,0,1-.43.32Zm10.56-1a.46.46,0,0,1,.18-.63l1.92-1.1a.44.44,0,0,1,.61.16.45.45,0,0,1-.16.61l-2,1.13a.42.42,0,0,1-.21.06A.45.45,0,0,1,45.88,231.26Zm-14.7-.88-1.92-1.11a.44.44,0,1,1,.44-.77l1.92,1.11a.44.44,0,0,1,.17.61.46.46,0,0,1-.39.22A.43.43,0,0,1,31.18,230.38ZM49.74,229a.43.43,0,0,1,.16-.61l1.92-1.11a.44.44,0,0,1,.61.16.45.45,0,0,1-.16.61l-1.92,1.11a.46.46,0,0,1-.23.06A.44.44,0,0,1,49.74,229Zm-22.4-.87-1.92-1.1a.45.45,0,1,1,.44-.78l1.92,1.11A.45.45,0,0,1,28,228a.46.46,0,0,1-.39.22A.43.43,0,0,1,27.34,228.16Zm26.24-1.35a.43.43,0,0,1,.16-.61l1.92-1.11a.45.45,0,0,1,.61.16.46.46,0,0,1-.16.62L54.19,227A.46.46,0,0,1,54,227,.43.43,0,0,1,53.58,226.81ZM23.5,226l-1.92-1.11a.45.45,0,1,1,.44-.78l1.92,1.11a.45.45,0,0,1,.17.61.46.46,0,0,1-.39.23A.43.43,0,0,1,23.5,226Zm33.92-1.36a.45.45,0,0,1,.16-.61l1.92-1.11a.45.45,0,0,1,.45.78L58,224.76a.46.46,0,0,1-.23.06A.43.43,0,0,1,57.42,224.59Zm-37.76-.86-1.92-1.11a.45.45,0,0,1-.17-.61.44.44,0,0,1,.61-.16L20.1,223a.45.45,0,0,1-.22.84A.43.43,0,0,1,19.66,223.73Zm41.6-1.35a.44.44,0,0,1,.16-.61l1.92-1.11a.45.45,0,1,1,.45.77l-1.92,1.11a.46.46,0,0,1-.23.06A.44.44,0,0,1,61.26,222.38Zm-45.44-.87L13.9,220.4a.44.44,0,1,1,.44-.77l1.92,1.11a.44.44,0,0,1,.17.61.47.47,0,0,1-.39.22A.43.43,0,0,1,15.82,221.51Zm49.28-1.35a.44.44,0,0,1,.16-.61l1.92-1.11a.45.45,0,0,1,.45.78l-1.92,1.1a.46.46,0,0,1-.23.06A.44.44,0,0,1,65.1,220.16ZM12,219.29l-1.92-1.1a.46.46,0,0,1-.16-.62.45.45,0,0,1,.61-.16l1.92,1.11a.45.45,0,0,1,.17.61.48.48,0,0,1-.39.23A.41.41,0,0,1,12,219.29Zm57-1.35a.44.44,0,0,1,.16-.61L71,216.22a.45.45,0,0,1,.45.78l-1.92,1.11a.46.46,0,0,1-.22.06A.43.43,0,0,1,68.94,217.94Zm-60.81-.86L6.21,216a.45.45,0,0,1-.16-.61.45.45,0,0,1,.61-.17l1.92,1.11a.45.45,0,0,1,.17.61.46.46,0,0,1-.39.23A.46.46,0,0,1,8.13,217.08Zm64.65-1.35a.45.45,0,0,1,.16-.62l1.92-1.1a.45.45,0,0,1,.45.77l-1.92,1.11a.46.46,0,0,1-.22.06A.44.44,0,0,1,72.78,215.73Zm-68.49-.87-.61-.35a10.92,10.92,0,0,1-1.3-.88A.45.45,0,0,1,2.3,213a.44.44,0,0,1,.63-.07,10,10,0,0,0,1.2.8l.61.36a.44.44,0,0,1,.17.61.47.47,0,0,1-.39.22A.46.46,0,0,1,4.29,214.86Zm72.33-1.34a.45.45,0,0,1,.15-.62,5,5,0,0,0,1.51-1.35.45.45,0,0,1,.62-.11.46.46,0,0,1,.11.63,5.73,5.73,0,0,1-1.77,1.59.41.41,0,0,1-.23.07A.47.47,0,0,1,76.62,213.52ZM.77,211.91A4.42,4.42,0,0,1,0,209.6a.45.45,0,0,1,.44-.46.45.45,0,0,1,.46.44,3.46,3.46,0,0,0,.62,1.84.46.46,0,0,1-.13.62.45.45,0,0,1-.25.07A.44.44,0,0,1,.77,211.91Zm78.07-2.16a3.54,3.54,0,0,0-.63-1.84.44.44,0,0,1,.13-.62.45.45,0,0,1,.62.12,4.53,4.53,0,0,1,.78,2.31.46.46,0,0,1-.44.46h0A.45.45,0,0,1,78.84,209.75Zm-78-1.87a.45.45,0,0,1-.11-.62,6,6,0,0,1,1.78-1.59.44.44,0,0,1,.61.15.45.45,0,0,1-.15.62,4.94,4.94,0,0,0-1.5,1.34.47.47,0,0,1-.37.19A.43.43,0,0,1,.85,207.88Zm75.94-1.47a9.72,9.72,0,0,0-1.18-.8l-.63-.36a.45.45,0,0,1-.17-.61.46.46,0,0,1,.62-.17l.63.37a10.56,10.56,0,0,1,1.28.86.45.45,0,0,1,.08.63.43.43,0,0,1-.35.17A.47.47,0,0,1,76.79,206.41ZM4.28,205.17a.46.46,0,0,1,.17-.62l1.92-1.1a.44.44,0,1,1,.44.77l-1.92,1.11a.43.43,0,0,1-.22.06A.47.47,0,0,1,4.28,205.17Zm68.78-1L71.14,203a.45.45,0,0,1-.17-.61.45.45,0,0,1,.62-.16l1.92,1.11a.45.45,0,0,1,.16.61.44.44,0,0,1-.39.22A.46.46,0,0,1,73.06,204.14ZM8.12,203a.44.44,0,0,1,.17-.61l1.92-1.11a.45.45,0,0,1,.45.77l-1.92,1.11a.49.49,0,0,1-.23.06A.47.47,0,0,1,8.12,203Zm61.1-1-1.92-1.11a.44.44,0,1,1,.44-.77l1.93,1.11a.45.45,0,0,1,.16.61.44.44,0,0,1-.39.22A.46.46,0,0,1,69.22,201.92ZM12,200.73a.45.45,0,0,1,.17-.61L14.05,199a.45.45,0,0,1,.61.16.46.46,0,0,1-.16.62l-1.92,1.1a.4.4,0,0,1-.23.06A.47.47,0,0,1,12,200.73Zm53.42-1-1.92-1.11a.45.45,0,0,1,.44-.78l1.92,1.11a.45.45,0,0,1,.17.61.43.43,0,0,1-.39.23A.43.43,0,0,1,65.38,199.71Zm-49.58-1.2a.45.45,0,0,1,.17-.61l1.92-1.11a.45.45,0,0,1,.61.17.45.45,0,0,1-.16.61l-1.92,1.11a.49.49,0,0,1-.23.06A.46.46,0,0,1,15.8,198.51Zm45.74-1-1.92-1.11a.45.45,0,1,1,.44-.78L62,196.71a.46.46,0,0,1,.17.62.47.47,0,0,1-.39.22A.43.43,0,0,1,61.54,197.49ZM19.65,196.3a.45.45,0,0,1,.16-.62l1.92-1.1a.44.44,0,0,1,.61.16.45.45,0,0,1-.16.61l-1.92,1.11a.46.46,0,0,1-.23.06A.44.44,0,0,1,19.65,196.3Zm38.05-1-1.92-1.11a.44.44,0,1,1,.44-.77l1.92,1.11a.44.44,0,0,1,.17.61.47.47,0,0,1-.39.22A.43.43,0,0,1,57.7,195.27Zm-34.21-1.19a.44.44,0,0,1,.16-.61l1.92-1.11a.45.45,0,1,1,.45.77l-1.92,1.11a.46.46,0,0,1-.23.06A.44.44,0,0,1,23.49,194.08Zm30.37-1L51.94,192a.46.46,0,0,1-.17-.62.44.44,0,0,1,.61-.16l1.92,1.11a.45.45,0,0,1,.17.61.47.47,0,0,1-.39.22A.43.43,0,0,1,53.86,193.05Zm-26.53-1.19a.44.44,0,0,1,.16-.61l1.92-1.11a.45.45,0,0,1,.45.78L27.94,192a.39.39,0,0,1-.23.07A.45.45,0,0,1,27.33,191.86Zm22.68-1-1.92-1.11a.45.45,0,0,1-.16-.61.45.45,0,0,1,.61-.17l1.92,1.11a.45.45,0,0,1,.17.61.46.46,0,0,1-.39.23A.49.49,0,0,1,50,190.84Zm-18.84-1.2a.45.45,0,0,1,.16-.61l1.92-1.1.22.38-.22-.39a.44.44,0,0,1,.6.17.46.46,0,0,1-.17.62l-1.9,1.1a.46.46,0,0,1-.23.06A.43.43,0,0,1,31.17,189.64Zm15-.94a15,15,0,0,0-2-.72.45.45,0,0,1,.24-.86,16.07,16.07,0,0,1,2.15.77.45.45,0,0,1,.22.59.44.44,0,0,1-.41.26A.39.39,0,0,1,46.18,188.7Zm-11.09-1.12a.44.44,0,0,1,.3-.55,12.87,12.87,0,0,1,2.24-.45.44.44,0,0,1,.5.39.46.46,0,0,1-.39.5,12.2,12.2,0,0,0-2.1.42l-.12,0A.44.44,0,0,1,35.09,187.58Zm6.95,0a17.16,17.16,0,0,0-2.15-.18.45.45,0,0,1-.44-.45.43.43,0,0,1,.46-.44,17.21,17.21,0,0,1,2.26.18.45.45,0,0,1,.38.51.44.44,0,0,1-.44.38Z"/><path class="cls-55" d="M44.91,200.71l2.48,1.43-12.67,7.32a10.87,10.87,0,0,1-5.25,1.47,9.22,9.22,0,0,1-4.9-1.17c-1.52-.87-2.28-1.81-2.3-2.83s.85-2,2.57-3l.11,0,2.39,1.38q-1.68,1-1.86,1.83c-.12.57.2,1.08,1,1.52a4.25,4.25,0,0,0,2.61.42A7.84,7.84,0,0,0,32.24,208Z"/><path class="cls-55" d="M45.68,216.49a2.29,2.29,0,0,0,1.35-1.6A3.39,3.39,0,0,0,46,212.64,6.23,6.23,0,0,1,44,209.22c-.08-1,.55-1.89,1.91-2.68a9.22,9.22,0,0,1,5-1.11,11.12,11.12,0,0,1,5.24,1.48c1.65,1,2.46,2,2.44,3.2s-.79,2.18-2.29,3l-.09,0-2.4-1.38a3.08,3.08,0,0,0,1.73-1.93c.11-.68-.32-1.3-1.3-1.86a5.5,5.5,0,0,0-3-.77,5.81,5.81,0,0,0-2.82.75,1.79,1.79,0,0,0-1.1,1.57,4.39,4.39,0,0,0,1.27,2.36,5.12,5.12,0,0,1,1.65,3.34c0,1-.72,1.89-2.1,2.69a8.91,8.91,0,0,1-5,1.13A11.35,11.35,0,0,1,38,217.5a5.07,5.07,0,0,1-2.77-3.23c-.26-1.22.49-2.32,2.24-3.28l.1,0,2.39,1.38c-1.22.7-1.79,1.41-1.73,2.12s.61,1.36,1.64,2a6,6,0,0,0,3,.82A5.67,5.67,0,0,0,45.68,216.49Z"/><path class="cls-55" d="M88.62,175l0,.06a8.85,8.85,0,0,1-4.37,1.22,8.29,8.29,0,0,1-4.3-1.15c-1.38-.8-2-1.7-1.92-2.71s1-2,2.63-3l3.88-2.24a10.84,10.84,0,0,1,5.1-1.53,8.41,8.41,0,0,1,4.66,1.08c1.38.8,2.07,1.62,2.06,2.49s-.72,1.71-2.15,2.55l-.08,0-1.86-1.07c1-.6,1.56-1.16,1.65-1.66s-.27-1-1.1-1.48a4.61,4.61,0,0,0-2.85-.52,8.77,8.77,0,0,0-3.44,1.22l-3.92,2.26c-1.22.71-1.93,1.38-2.12,2s.12,1.2,1,1.67a4.37,4.37,0,0,0,2.49.63,7,7,0,0,0,2.85-1Z"/><path class="cls-55" d="M98.48,177.05l3.3,1.91-1.67,1L96.8,178l-4.36,2.52-1.92-1.11,4.37-2.52L91.58,175l1.67-1L96.56,176l4.15-2.4,1.92,1.1Z"/><path class="cls-55" d="M108.38,182.77l3.3,1.91-1.67,1-3.31-1.91-4.36,2.52-1.92-1.1,4.37-2.52-3.31-1.91,1.67-1,3.31,1.91,4.15-2.4,1.92,1.11Z"/><path class="cls-55" d="M186.53,327.48l0,.06a11.13,11.13,0,0,1-5.54,1.55,10.49,10.49,0,0,1-5.44-1.46c-1.76-1-2.57-2.15-2.45-3.43s1.24-2.53,3.33-3.74l4.93-2.85a14,14,0,0,1,6.47-1.94,10.87,10.87,0,0,1,5.91,1.37c1.75,1,2.62,2.07,2.61,3.16s-.92,2.17-2.72,3.24l-.11,0-2.36-1.36q1.92-1.14,2.1-2.1c.12-.64-.34-1.26-1.4-1.87a5.8,5.8,0,0,0-3.61-.66,11.17,11.17,0,0,0-4.37,1.54l-5,2.87c-1.55.89-2.44,1.74-2.69,2.55s.16,1.51,1.2,2.12a5.56,5.56,0,0,0,3.16.79,8.73,8.73,0,0,0,3.62-1.23Z"/><path class="cls-55" d="M194.33,332.43,192,331.07l-5.78,2.43-1.71-1,5.79-2.43-2.42-1.39,1.59-.92,2.66,1.54,5.22-2.2-2.59-1.49,1.59-.92,2.83,1.64,5.88-2.46,1.7,1-5.87,2.47,2.35,1.36,5.89-2.46,1.69,1-5.87,2.47,2.2,1.27-1.59.91-2.45-1.41-5.22,2.2,2.39,1.37-1.59.92L196,333.41l-5.79,2.43-1.7-1Zm-.53-2.14,2.36,1.36,5.22-2.19L199,328.09Z"/><path class="cls-55" d="M119.13,286.26l-5.62,3.25-2-1.15,14.21-8.21,4.7,2.71c1.34.77,2,1.6,2,2.5s-.68,1.71-2,2.45a8.54,8.54,0,0,1-4.26,1.15,8.36,8.36,0,0,1-4.32-1.14Zm1.51-.87,2.7,1.56a4.14,4.14,0,0,0,2.5.54,6.36,6.36,0,0,0,2.57-.82,2.75,2.75,0,0,0,1.43-1.49c.15-.53-.15-1-.91-1.45l-2.71-1.56Z"/><path class="cls-55" d="M132.1,300.24l-2-1.14,6.28-3.63-5.49-3.16-6.28,3.62-2-1.15,14.22-8.21,2,1.15-6.43,3.72,5.48,3.16,6.44-3.71,2,1.14Z"/><path class="cls-55" d="M142.5,299.75,136.88,303l-2-1.15,14.21-8.21,4.7,2.71c1.34.77,2,1.61,2,2.5s-.68,1.71-2,2.46a8.64,8.64,0,0,1-4.26,1.14,8.36,8.36,0,0,1-4.32-1.14Zm1.51-.86,2.7,1.56a4.19,4.19,0,0,0,2.5.53,6.11,6.11,0,0,0,2.56-.81,2.82,2.82,0,0,0,1.44-1.5c.15-.53-.15-1-.91-1.45l-2.71-1.56Z"/><path class="cls-55" d="M294.77,323.39l0,.05a9.47,9.47,0,0,1-4.61,1.29,8.69,8.69,0,0,1-4.52-1.21c-1.46-.84-2.14-1.8-2-2.86s1-2.1,2.76-3.11l4.1-2.36a11.33,11.33,0,0,1,5.38-1.61,9,9,0,0,1,4.91,1.13c1.45.85,2.18,1.72,2.17,2.63s-.77,1.8-2.27,2.69l-.09,0-2-1.13c1.06-.64,1.64-1.22,1.74-1.75s-.29-1.05-1.16-1.55a4.82,4.82,0,0,0-3-.55,9.29,9.29,0,0,0-3.63,1.28l-4.13,2.38c-1.28.75-2,1.45-2.23,2.12s.13,1.26,1,1.77a4.57,4.57,0,0,0,2.62.65,7.3,7.3,0,0,0,3-1Z"/><path class="cls-55" d="M303.07,329.06a1.9,1.9,0,0,0,1.12-1.33,2.76,2.76,0,0,0-.89-1.88,5.11,5.11,0,0,1-1.59-2.83c-.07-.84.46-1.58,1.59-2.23a7.5,7.5,0,0,1,4.12-.92,9.17,9.17,0,0,1,4.35,1.22c1.38.8,2.05,1.68,2,2.67a3,3,0,0,1-1.9,2.5l-.08,0-2-1.15a2.51,2.51,0,0,0,1.43-1.6c.1-.56-.26-1.08-1.07-1.55a4.63,4.63,0,0,0-2.45-.64,4.88,4.88,0,0,0-2.35.63,1.47,1.47,0,0,0-.91,1.31,3.69,3.69,0,0,0,1,2,4.21,4.21,0,0,1,1.38,2.77c0,.83-.6,1.57-1.75,2.24a7.42,7.42,0,0,1-4.14.94,9.68,9.68,0,0,1-4.36-1.29,4.28,4.28,0,0,1-2.3-2.68c-.21-1,.41-1.93,1.87-2.73l.08,0,2,1.15c-1,.58-1.48,1.17-1.44,1.76s.51,1.13,1.37,1.63a5,5,0,0,0,2.47.68A4.65,4.65,0,0,0,303.07,329.06Z"/><path class="cls-55" d="M314.16,335.46c.69-.4,1.07-.84,1.12-1.33a2.83,2.83,0,0,0-.89-1.87,5.17,5.17,0,0,1-1.59-2.84c-.07-.83.46-1.58,1.59-2.23a7.49,7.49,0,0,1,4.11-.92,9.17,9.17,0,0,1,4.36,1.22c1.37.8,2.05,1.68,2,2.67a3,3,0,0,1-1.9,2.5l-.08,0-2-1.15a2.52,2.52,0,0,0,1.43-1.59c.1-.57-.26-1.09-1.07-1.56a4.76,4.76,0,0,0-2.46-.64,4.87,4.87,0,0,0-2.34.63,1.48,1.48,0,0,0-.91,1.31,3.66,3.66,0,0,0,1.05,2,4.3,4.3,0,0,1,1.38,2.77c0,.83-.6,1.57-1.75,2.24a7.44,7.44,0,0,1-4.14.94,9.4,9.4,0,0,1-4.36-1.29,4.19,4.19,0,0,1-2.3-2.68q-.31-1.53,1.86-2.73l.08,0,2,1.15c-1,.58-1.49,1.17-1.44,1.76s.51,1.13,1.37,1.63a5,5,0,0,0,2.46.68A4.66,4.66,0,0,0,314.16,335.46Z"/><path class="cls-55" d="M345.74,285,341,287.7l-1.54-.89,11-6.37,3.45,2c1,.6,1.6,1.23,1.63,1.87s-.45,1.26-1.46,1.84a5.14,5.14,0,0,1-1.91.64,6.59,6.59,0,0,1-2.16-.08,1.06,1.06,0,0,1,.25,1.24,3.12,3.12,0,0,1-1.29,1.17l-1,.55a4.57,4.57,0,0,0-.84.61.87.87,0,0,0-.33.6l-.18.1-1.59-.92a.88.88,0,0,1,.42-.63,9.64,9.64,0,0,1,1-.66l.93-.53c.62-.36,1-.72,1-1.09s-.13-.7-.62-1Zm1.17-.67,1.83,1.06a3.4,3.4,0,0,0,1.89.5,3.91,3.91,0,0,0,1.87-.57c.64-.36,1-.73,1-1.1s-.2-.72-.79-1.06l-1.91-1.1Z"/><path class="cls-55" d="M366.22,289.53l-7.65,4.41a6.76,6.76,0,0,1-3.61.95,7.15,7.15,0,0,1-3.5-1c-1-.6-1.59-1.27-1.62-2s.52-1.42,1.66-2.08l7.64-4.41,1.54.88L353,290.74c-.79.46-1.2.91-1.25,1.34s.24.83.85,1.18a3.86,3.86,0,0,0,2.06.52,4.83,4.83,0,0,0,2.34-.72l7.65-4.42Z"/><path class="cls-55" d="M357.14,297l11-6.37,3.09,1.79c1.05.6,1.62,1.21,1.71,1.84s-.35,1.22-1.34,1.79a4.44,4.44,0,0,1-1.79.57,5.4,5.4,0,0,1-2-.13,1.18,1.18,0,0,1,.45,1.34,2.58,2.58,0,0,1-1.25,1.28,5.89,5.89,0,0,1-3.18.84,6.49,6.49,0,0,1-3.19-.92Zm6.69-2.08-4,2.3,2,1.14a3.14,3.14,0,0,0,1.77.44,4,4,0,0,0,1.89-.57,2.26,2.26,0,0,0,1.1-1.08q.16-.54-.63-1Zm1.11-.64,1.7,1a3.06,3.06,0,0,0,1.65.43,3.58,3.58,0,0,0,1.77-.52c.6-.35.91-.7.91-1.05s-.29-.69-.87-1l-1.55-.89Z"/><path class="cls-55" d="M374,300.23l0,0,7.63-1.78,1.71,1-10.32,2.19-4,2.29-1.54-.88,4.07-2.35,3.73-5.88,1.74,1Z"/></g><g class="cls-56"><path class="cls-57" d="M310.08,70a10.94,10.94,0,0,1-2.78-3.61,9.31,9.31,0,0,1-.82-3.82V60.21a4.51,4.51,0,0,0-.44-2,3.26,3.26,0,0,0-1.33-1.4V54.48c.6.35,1,.4,1.33.15a2,2,0,0,0,.44-1.54V50.76a4.14,4.14,0,0,1,.82-2.86c.55-.59,1.48-.73,2.78-.4l.56,2.13a1,1,0,0,0-1.2.57,4.92,4.92,0,0,0-.35,2.07V54.6a3.28,3.28,0,0,1-.45,1.86,1.48,1.48,0,0,1-1.34.67,7.33,7.33,0,0,1,1.34,2.24,6.53,6.53,0,0,1,.45,2.35v2.33a8.33,8.33,0,0,0,.35,2.47,4.66,4.66,0,0,0,1.2,2Z"/><path class="cls-57" d="M361.1,95.49a1,1,0,0,0,1.2-.57,4.74,4.74,0,0,0,.35-2.07V90.52a3.2,3.2,0,0,1,.46-1.84,1.54,1.54,0,0,1,1.4-.63,7.71,7.71,0,0,1-1.4-2.25,6.73,6.73,0,0,1-.46-2.4V81.07a8.06,8.06,0,0,0-.35-2.47,4.66,4.66,0,0,0-1.2-2l.56-1.48a10.9,10.9,0,0,1,2.77,3.61,9.09,9.09,0,0,1,.83,3.81v2.33a4.71,4.71,0,0,0,.43,2,3.3,3.3,0,0,0,1.35,1.4v2.31q-.92-.54-1.35-.15a2,2,0,0,0-.43,1.52v2.33a4.09,4.09,0,0,1-.83,2.86c-.55.6-1.47.74-2.77.41Z"/></g><circle class="cls-58" cx="160.24" cy="42.25" r="15.86" transform="translate(45.89 162.19) rotate(-61.14)"/><circle class="cls-59" cx="149" cy="35.83" r="12.01" transform="translate(71.27 167.9) rotate(-73.04)"/><path class="cls-60" d="M144.3,38.48a9,9,0,1,0-12.19-3.68A9,9,0,0,0,144.3,38.48Z"/><g class="cls-61"><path class="cls-62" d="M243.22,326.4a26.75,26.75,0,0,1-13.37-3.22L88.21,241.4c-4.88-2.81-7.68-7.27-7.68-12.22,0-5.43,3.37-10.49,9.25-13.88l80.38-46.41a33,33,0,0,1,16.24-4.13A26.78,26.78,0,0,1,199.77,168l141.64,81.77c4.88,2.82,7.67,7.27,7.67,12.23,0,5.43-3.36,10.48-9.24,13.87l-80.38,46.41A32.85,32.85,0,0,1,243.22,326.4Z"/><path class="cls-63" d="M170.51,169.51a32.24,32.24,0,0,1,16.2-4,31.09,31.09,0,0,1,6.63.81,26.65,26.65,0,0,1,6.62,2.61l141.1,81.47c4.85,2.8,7.38,7.24,7.09,12.07a14.34,14.34,0,0,1-.85,3.9c-1.23,3.45-4.72,7.12-8.69,9.41l-79.24,45.75a32.5,32.5,0,0,1-3.45,1.7,33.8,33.8,0,0,1-12.53,2.48,26.22,26.22,0,0,1-13.19-3.13L88.56,240.79c-4.86-2.81-7.38-7.26-7.06-12.09a13.89,13.89,0,0,1,.67-3.37c1.13-3.65,4.75-7.56,8.91-10Z"/><path class="cls-64" d="M170.87,170.12a31.46,31.46,0,0,1,16.14-3.9,27.6,27.6,0,0,1,13.13,3.62L340.7,251c4.83,2.79,7.1,7.21,6.51,11.91a15.17,15.17,0,0,1-1,3.73c-1.2,3.06-5.22,7-8.79,9l-78.1,45.09a36.73,36.73,0,0,1-3.38,1.69A33,33,0,0,1,243.56,325a25.58,25.58,0,0,1-13-3L88.92,240.18c-4.86-2.81-7.1-7.25-6.46-12a17,17,0,0,1,.86-3.21c1.13-3.25,5.32-7.41,9.07-9.57Z"/><path class="cls-65" d="M171.22,170.73A30.09,30.09,0,0,1,193.85,168a36,36,0,0,1,6.48,2.77l140,80.84c4.81,2.78,6.82,7.18,5.92,11.76A17.36,17.36,0,0,1,345,266.9c-1.16,2.69-5.72,6.82-8.9,8.65L259.18,320a37.1,37.1,0,0,1-3.33,1.69,32.73,32.73,0,0,1-12.12,2.59,25.06,25.06,0,0,1-12.82-2.92L89.27,239.56c-4.84-2.79-6.82-7.23-5.84-11.83a20.46,20.46,0,0,1,1-3.06c1.1-2.85,5.89-7.25,9.22-9.17Z"/><path class="cls-66" d="M171.57,171.35a29,29,0,0,1,22.53-2.51,40.55,40.55,0,0,1,6.41,2.85L340,252.22c4.79,2.76,6.56,7.13,5.35,11.6a21.17,21.17,0,0,1-1.45,3.36c-1.09,2.32-6.21,6.66-9,8.27l-75.82,43.77c-.7.41-2.49,1.35-3.27,1.68a32,32,0,0,1-11.9,2.64,24.42,24.42,0,0,1-12.65-2.82L89.63,239c-4.83-2.79-6.56-7.21-5.24-11.7a26.48,26.48,0,0,1,1.23-2.9c1-2.47,6.46-7.11,9.38-8.79Z"/><path class="cls-67" d="M171.93,172a28.05,28.05,0,0,1,22.43-2.28,51.78,51.78,0,0,1,6.34,2.93l138.94,80.22c4.76,2.75,6.3,7.1,4.76,11.45a28.36,28.36,0,0,1-1.64,3.18c-1,2-6.72,6.51-9.1,7.88L259,318.46c-.61.35-2.55,1.39-3.21,1.68a31.81,31.81,0,0,1-11.7,2.69,23.91,23.91,0,0,1-12.46-2.72L90,238.33c-4.82-2.78-6.3-7.18-4.63-11.57.36-.93,1-1.77,1.42-2.74,1-2.08,7-7,9.53-8.4Z"/><path class="cls-68" d="M172.28,172.58a27.16,27.16,0,0,1,22.33-2.06,66,66,0,0,1,6.27,3l138.41,79.91c4.73,2.73,6,7.05,4.17,11.29a12,12,0,0,1-1.84,3c-.56,1.74-7.21,6.36-9.2,7.51l-73.53,42.45c-.5.29-2.6,1.43-3.15,1.68a31.36,31.36,0,0,1-11.49,2.74A23.39,23.39,0,0,1,232,319.5L90.33,237.72c-4.8-2.77-6-7.17-4-11.44a12.11,12.11,0,0,1,1.6-2.59c.51-1.84,7.61-6.8,9.69-8Z"/><path class="cls-69" d="M172.64,173.19a26.22,26.22,0,0,1,22.22-1.82c.87.28,5.49,2.68,6.2,3.09l137.87,79.6c4.72,2.72,5.82,7,3.6,11.13a12.27,12.27,0,0,1-2,2.82c-.46,1.39-7.71,6.21-9.3,7.12l-72.39,41.8c-.41.23-2.65,1.47-3.09,1.67a31,31,0,0,1-11.29,2.8,22.7,22.7,0,0,1-12.09-2.52L90.69,237.11c-4.79-2.77-5.82-7.16-3.41-11.31a12.8,12.8,0,0,1,1.79-2.44c.41-1.47,8.18-6.65,9.84-7.61Z"/><path class="cls-70" d="M173,173.8a27.7,27.7,0,0,1,15.87-3.2,28.1,28.1,0,0,1,6.26,1.61c.65.22,5.59,2.87,6.13,3.18l137.33,79.28c4.69,2.71,5.59,7,3,11a12.8,12.8,0,0,1-2.24,2.63c-.34,1.05-8.21,6.06-9.4,6.75L258.7,316.17c-.3.17-2.7,1.51-3,1.66a30.12,30.12,0,0,1-11.08,2.85,22.17,22.17,0,0,1-11.91-2.41L91,236.49c-4.78-2.76-5.59-7.15-2.8-11.18a13.25,13.25,0,0,1,2-2.27c.31-1.11,8.75-6.5,10-7.22Z"/><path class="cls-71" d="M173.35,174.42a27,27,0,0,1,15.82-3.09,27.94,27.94,0,0,1,6.2,1.72c.43.16,5.7,3.06,6.06,3.26l136.79,79c4.67,2.69,5.37,7,2.43,10.82a13.06,13.06,0,0,1-2.43,2.45c-.23.7-8.71,5.91-9.5,6.36L258.6,315.4c-.2.12-2.75,1.56-3,1.66A29.79,29.79,0,0,1,244.76,320,21.66,21.66,0,0,1,233,317.65L91.4,235.88c-4.77-2.75-5.38-7.16-2.19-11a13.19,13.19,0,0,1,2.16-2.12c.21-.74,9.32-6.35,10.16-6.83Z"/><path class="cls-72" d="M173.7,175a26.47,26.47,0,0,1,15.77-3,27.18,27.18,0,0,1,6.15,1.84c.22.08,5.82,3.23,6,3.34L337.87,255.9c4.64,2.68,5.15,7,1.85,10.67a14,14,0,0,1-2.64,2.27c-.11.34-9.2,5.75-9.6,6l-69,39.82c-.1.06-2.8,1.6-2.91,1.65a29.35,29.35,0,0,1-10.67,3c-4.29.27-8.5-.45-11.54-2.21L91.75,235.27c-4.76-2.75-5.17-7.19-1.58-10.92a14.73,14.73,0,0,1,2.35-2c.1-.37,9.9-6.19,10.31-6.43Z"/><path d="M233.74,316.43,92.11,234.65c-5.6-3.23-4.9-8.87,1.56-12.6l80.38-46.41c6.46-3.72,16.23-4.13,21.83-.9l141.63,81.77c5.6,3.23,4.89,8.87-1.56,12.6l-80.39,46.41C249.11,319.25,239.34,319.66,233.74,316.43Z"/></g><path class="cls-73" d="M233.74,316.3,92.11,234.52c-2.5-1.44-3.74-3.35-3.78-5.37v-7c0-2.44,1.85,1.81,5.34-.21l80.38-46.41c6.46-3.72,16.23-4.13,21.83-.9l141.63,81.77c1.87,1.08,3.22-3.49,3.71-2,.16.49.06,6.91.07,7.41,0,2.51-1.76,5.16-5.34,7.23l-80.39,46.41C249.11,319.12,239.34,319.53,233.74,316.3Z"/><path class="cls-74" d="M233.74,309.41,92.11,227.64c-5.6-3.23-4.9-8.87,1.56-12.6l80.38-46.41c6.46-3.73,16.23-4.14,21.83-.91L337.51,249.5c5.6,3.23,4.89,8.87-1.56,12.6l-80.39,46.41C249.11,312.23,239.34,312.64,233.74,309.41Z"/><path class="cls-75" d="M341.28,265.52c0,2.47-1.8,5.08-5.33,7.12l-80.38,46.41c-6.46,3.73-16.23,4.14-21.83.91L92.11,238.18c-2.71-1.56-3.93-3.69-3.75-5.89a2.21,2.21,0,0,0,0,.39v7c0,2,1.28,3.93,3.78,5.37l141.63,81.77c5.6,3.23,15.37,2.83,21.83-.9L336,279.53c3.58-2.07,5.39-4.73,5.34-7.24C341.28,271.87,341.35,267.25,341.28,265.52Z"/><path class="cls-76" d="M243.22,308.76a16.52,16.52,0,0,1-8.06-1.8L93.52,225.19c-.88-.51-2.36-1.58-2.36-3s1.47-3.25,3.93-4.67l80.38-46.41a22.49,22.49,0,0,1,10.93-2.71,16.52,16.52,0,0,1,8.06,1.8L336.1,252c.88.51,2.36,1.58,2.36,3s-1.47,3.26-3.93,4.68l-80.38,46.41A22.48,22.48,0,0,1,243.22,308.76Z"/><path class="cls-77" d="M336,260.93l-80.39,46.41c-6.45,3.72-16.22,4.13-21.82.9L92.11,226.47c-2.32-1.34-3.55-3.1-3.74-5-.29,2.28.93,4.51,3.74,6.13l141.63,81.77c5.6,3.23,15.37,2.82,21.82-.9L336,262.1c3.78-2.19,5.57-5,5.3-7.64C341,256.73,339.17,259.07,336,260.93Z"/><ellipse class="cls-78" cx="248.68" cy="314.53" rx="46.1" ry="30.6" transform="translate(-100.89 118.14) rotate(-22.34)"/><ellipse class="cls-79" cx="193.86" cy="204.54" rx="35.36" ry="20.88" transform="translate(-55.99 74.18) rotate(-18.98)"/><path class="cls-80" d="M199.58,275.94l-43.72-25.17c-2-1.15-1.75-3.16.55-4.49l22.16-12.88c2.3-1.33,5.78-1.47,7.78-.32l43.72,25.17c2,1.15,1.75,3.16-.56,4.49l-22.15,12.88C205.06,277,201.57,277.1,199.58,275.94Z"/><path class="cls-81" d="M335.27,248.41,198.8,169.58c-5.28-3.06-9.57-11.24-9.57-18.28V44.24c0-7,4.29-10.28,9.57-7.23l136.47,78.83c5.28,3,9.57,11.24,9.57,18.28V241.18C344.84,248.22,340.55,251.46,335.27,248.41Z"/><path class="cls-82" d="M339.07,247.45a5.62,5.62,0,0,1-2.74-.87L199.86,167.75c-4.62-2.67-8.51-10.2-8.51-16.45V44.24c0-2.89,1-6.27,3.65-6.27a5.62,5.62,0,0,1,2.74.87l136.47,78.83c4.61,2.67,8.51,10.2,8.51,16.45V241.18C342.72,244.07,341.76,247.45,339.07,247.45Z"/><path class="cls-83" d="M336.5,242.91l-135-78c-4.25-2.7-6.88-8.1-6.88-13.62V43.72a1.69,1.69,0,0,1,2.55-1.46l.3.17L332.58,120.5c5.06,2.91,6.88,8.1,6.88,13.62V241.45a1.84,1.84,0,0,1-2.74,1.59Z"/><path class="cls-84" d="M332.58,120.5,197.46,42.43l-.3-.17a1.69,1.69,0,0,0-2.55,1.46V151.3c0,5.52,2.63,10.92,6.88,13.62l135,78,.22.13a1.84,1.84,0,0,0,2.74-1.59V134.12C339.46,128.6,337.64,123.41,332.58,120.5Zm5.81,121a.76.76,0,0,1-.76.76.7.7,0,0,1-.37-.11L202,164c-3.84-2.44-6.35-7.43-6.35-12.69V43.72a.63.63,0,0,1,.63-.62.61.61,0,0,1,.31.09L332,121.43c5.25,3,6.35,8.57,6.35,12.69Z"/><path class="cls-85" d="M338,114.4,201.51,35.57a6.45,6.45,0,0,0-5.6-.82c-.2.07-2.86,1.49-3,1.59h0c1.63-.79,3.7-.64,6,.66l136.47,78.83c5.28,3,9.57,11.24,9.57,18.28V241.18c0,4.4-1.67,7.31-4.21,8.14a1.59,1.59,0,0,0,.84-.29c.12-.07,3-1.7,3.13-1.78,1.82-1.27,2.95-3.89,2.95-7.51V132.68C347.55,125.64,343.26,117.45,338,114.4Z"/><path class="cls-86" d="M335.73,115.62,199.26,36.78c-2.17-1.25-4.16-1.43-5.76-.74a7.13,7.13,0,0,1,4.61,1.08L334.58,116c5.28,3.05,9.57,11.23,9.57,18.28v107c0,4.16-1.5,7-3.81,8,3-.47,5-3.5,5-8.31V133.89C345.29,126.85,341,118.67,335.73,115.62Z"/><ellipse class="cls-87" cx="343.25" cy="123.75" rx="6.84" ry="10.31" transform="translate(-21.28 139.76) rotate(-22.34)"/><circle class="cls-88" cx="192.76" cy="55.56" r="55.56"/><path class="cls-89" d="M249,257.05l-69.39-40c-2.29-1.32-2-3.64.65-5.17l23-13.57c2.65-1.53,6.67-1.7,9-.37L282,237.73c2.3,1.33,2,3.65-.64,5.18l-23.44,13.77C255.26,258.21,251.25,258.37,249,257.05Z"/><path class="cls-90" d="M219.73,204.83l-.88-2.47h0a2.47,2.47,0,0,0-1.31-1.59l-6.38-3.68a7.22,7.22,0,0,0-6.53,0l-6.34,3.66a3,3,0,0,0-1.33,1.77l-.86,2.28a2.28,2.28,0,0,0,1.14,3.22l7.09,4.09a8,8,0,0,0,7.26,0l7-4.07A2.2,2.2,0,0,0,219.73,204.83Z"/><path class="cls-91" d="M198.65,204.45,204.8,208a6.94,6.94,0,0,0,6.29,0l6.11-3.52c1.73-1,1.72-2.63,0-3.64L211,197.3a6.93,6.93,0,0,0-6.3,0l-6.11,3.52C196.9,201.81,196.91,203.44,198.65,204.45Z"/><path class="cls-92" d="M235.26,213.4l-.88-2.47h0a2.45,2.45,0,0,0-1.32-1.58l-6.37-3.68a7.21,7.21,0,0,0-6.54,0l-6.34,3.66a2.91,2.91,0,0,0-1.32,1.77l-.87,2.28a2.28,2.28,0,0,0,1.14,3.22l7.09,4.1a8.06,8.06,0,0,0,7.27,0l7-4.07A2.2,2.2,0,0,0,235.26,213.4Z"/><path class="cls-91" d="M214.19,213l6.14,3.55a7,7,0,0,0,6.3,0l6.1-3.53c1.73-1,1.72-2.63,0-3.63l-6.14-3.55a7,7,0,0,0-6.3,0l-6.1,3.52C212.43,210.38,212.44,212,214.19,213Z"/><path class="cls-93" d="M250.79,222l-.87-2.47h0a2.5,2.5,0,0,0-1.31-1.59l-6.38-3.68a7.21,7.21,0,0,0-6.54,0l-6.34,3.66a2.91,2.91,0,0,0-1.32,1.77l-.87,2.28a2.29,2.29,0,0,0,1.14,3.22l7.09,4.09a8,8,0,0,0,7.27,0l7-4.06A2.2,2.2,0,0,0,250.79,222Z"/><path class="cls-91" d="M229.72,221.59l6.14,3.55a7,7,0,0,0,6.3,0l6.1-3.52c1.74-1,1.73-2.63,0-3.64l-6.14-3.55a7,7,0,0,0-6.3,0L229.7,218C228,219,228,220.59,229.72,221.59Z"/><path class="cls-94" d="M266.33,230.55l-.88-2.47h0a2.5,2.5,0,0,0-1.31-1.59l-6.38-3.68a7.24,7.24,0,0,0-6.54,0l-6.33,3.66a2.93,2.93,0,0,0-1.33,1.77l-.86,2.28a2.27,2.27,0,0,0,1.14,3.22l7.08,4.09a8.06,8.06,0,0,0,7.27,0l7-4.07C266.73,232.9,266.92,231.93,266.33,230.55Z"/><path class="cls-91" d="M245.25,230.17l6.14,3.54a7,7,0,0,0,6.3,0l6.11-3.52c1.73-1,1.72-2.63,0-3.64L257.63,223a6.91,6.91,0,0,0-6.29,0l-6.11,3.52C243.5,227.53,243.51,229.16,245.25,230.17Z"/><path class="cls-95" d="M206.07,201.55l-.19-.08,0,0,.13.11,3,3.84-2,1.17-3.91-5.83,1.62-.94,10.1,2.26-2,1.16Z"/><path class="cls-95" d="M225.64,213.35a6.78,6.78,0,0,1-3.11,1,5,5,0,0,1-2.75-.64c-.82-.48-1.19-1-1.12-1.6s.63-1.19,1.67-1.79l1.84-1.06a6.71,6.71,0,0,1,3.1-1,4.88,4.88,0,0,1,2.77.64c.81.47,1.18,1,1.11,1.6s-.63,1.19-1.67,1.79Zm.69-2c.66-.38,1-.73,1.13-1s-.07-.59-.5-.83a2.34,2.34,0,0,0-1.44-.29,4.64,4.64,0,0,0-1.79.66l-2.24,1.29c-.66.38-1,.72-1.13,1s.07.59.5.84a2.32,2.32,0,0,0,1.44.28,4.69,4.69,0,0,0,1.8-.66Z"/><path class="cls-95" d="M236,222.62l-1.35-.78,6.76-3.9-1.64-.95,1-.57,3.27,1.56Z"/><path class="cls-95" d="M253.48,225.66l2-1.15,4.14,6-1.62.94L247.66,229l2-1.15,7,1.84.17.08.06,0-.13-.11Z"/><path class="cls-83" d="M249.69,239.22l-.88-2.47h0a2.52,2.52,0,0,0-1.32-1.59l-51-29.49a7.21,7.21,0,0,0-6.54,0l-6.34,3.66a2.91,2.91,0,0,0-1.32,1.77l-.87,2.28a2.29,2.29,0,0,0,1.14,3.22l51.68,29.91a8,8,0,0,0,7.26,0l7.05-4.07A2.2,2.2,0,0,0,249.69,239.22Z"/><path class="cls-83" d="M184,213l50.73,29.36a7,7,0,0,0,6.3,0l6.1-3.52c1.73-1,1.72-2.63,0-3.64l-50.73-29.36a7,7,0,0,0-6.3,0l-6.1,3.52C182.27,210.38,182.28,212,184,213Z"/><path class="cls-96" d="M281.86,239l-.88-2.47h0a2.48,2.48,0,0,0-1.32-1.58l-6.37-3.69a7.24,7.24,0,0,0-6.54,0l-22.67,12.95a3,3,0,0,0-1.33,1.77l-.86,2.28a2.28,2.28,0,0,0,1.14,3.22l7.09,4.09a8,8,0,0,0,7.26,0l23.38-13.36A2.2,2.2,0,0,0,281.86,239Z"/><path class="cls-97" d="M244.46,247.93l6.14,3.54a7,7,0,0,0,6.3,0l22.43-12.81c1.73-1,1.72-2.63,0-3.63l-6.14-3.55a7,7,0,0,0-6.3,0l-22.43,12.81C242.7,245.29,242.71,246.92,244.46,247.93Z"/><path class="cls-95" d="M258.84,239.75l-1.25-.73-.9.52,1.45.84-.38.22-1.93-1.11,2.85-1.64,1.91,1.1-.38.22-1.44-.83-.8.46,1.25.73Z"/><path class="cls-95" d="M260.65,239.83l-.28.19a2.26,2.26,0,0,1,.52,0,1.29,1.29,0,0,1,.44.16c.23.13.33.26.32.41s-.15.31-.44.47l-1.32.76-.48-.27,1.32-.76c.16-.1.24-.18.24-.26s-.06-.15-.2-.23a1,1,0,0,0-.66-.11l-1.53.88-.48-.28,2.11-1.21Z"/><path class="cls-95" d="M263.6,240.94l-.51.3.38.22-.35.2-.38-.22-1.17.67c-.09,0-.13.1-.13.14s0,.09.1.12l.08,0,.09,0-.3.23-.2,0-.19-.09c-.17-.1-.26-.21-.26-.33s.12-.24.33-.36l1.17-.68-.32-.18.35-.21.32.19.52-.3Z"/><path class="cls-95" d="M262.65,243.47c-.3-.17-.44-.37-.43-.59a.84.84,0,0,1,.49-.59l.08,0a2.24,2.24,0,0,1,1-.29,1.86,1.86,0,0,1,1,.21c.29.17.42.35.4.53s-.17.37-.47.53l-.27.17-1.33-.77h0a.52.52,0,0,0-.27.33c0,.11.06.21.22.31a1.72,1.72,0,0,0,.38.16l.4.08-.16.26a1.79,1.79,0,0,1-.49-.08A1.92,1.92,0,0,1,262.65,243.47Zm1.76-1.08a.74.74,0,0,0-.43-.09,1.48,1.48,0,0,0-.5.13h0l.84.48.05,0a.38.38,0,0,0,.22-.24C264.61,242.56,264.55,242.47,264.41,242.39Z"/><path class="cls-95" d="M266.65,243.79l-.19-.12a.86.86,0,0,0-.29-.11,1.06,1.06,0,0,0-.31,0l-1.47.85-.48-.28,2.11-1.22.44.25-.28.2a1.46,1.46,0,0,1,.46,0,.81.81,0,0,1,.39.12.18.18,0,0,1,.07.05l0,0Z"/><polygon class="cls-98" points="323.29 201.92 285.62 180.17 285.62 160.19 323.29 181.94 323.29 201.92"/><polygon class="cls-99" points="233.36 150.33 195.69 128.58 195.69 108.59 233.36 130.35 233.36 150.33"/><path class="cls-97" d="M282.22,113.39l-31-17.92c-2.65-1.53-4.79-5.63-4.79-9.16h0c0-3.53,2.14-5.15,4.79-3.63l31,17.93c2.65,1.52,4.79,5.62,4.79,9.15h0C287,113.29,284.87,114.92,282.22,113.39Z"/><path class="cls-97" d="M280.6,203l-31-17.92c-2.65-1.53-4.79-5.63-4.79-9.16h0c0-3.53,2.14-5.16,4.79-3.63l31,17.92c2.65,1.53,4.79,5.63,4.79,9.16h0C285.39,202.9,283.25,204.53,280.6,203Z"/><polygon class="cls-100" points="306.57 166.25 306.57 155.77 284.49 143.19 284 144.06 305.57 156.35 305.57 165.68 303.42 164.43 305.84 170.68 308.27 167.24 306.57 166.25"/><polygon class="cls-100" points="266.12 116.54 268.55 113.09 266.64 111.99 266.64 106.14 265.64 105.84 265.64 111.42 263.69 110.29 266.12 116.54"/><polygon class="cls-100" points="227.64 125.95 230.07 122.51 228.33 121.5 228.33 111.94 246.12 122.19 246.62 121.33 227.33 110.2 227.33 120.92 225.21 119.7 227.64 125.95"/><polygon class="cls-100" points="303.07 194.41 225.64 149.77 225.64 146.33 224.64 146.03 224.64 150.35 265.64 173.98 265.64 176.21 263.69 175.08 266.12 181.33 268.55 177.89 266.64 176.79 266.64 174.56 303.32 195.71 304.07 196.14 304.07 191.37 303.07 191.07 303.07 194.41"/><polygon class="cls-97" points="266 148.59 246.93 121.84 266 117.11 285.06 143.85 266 148.59"/><polygon class="cls-101" points="285.62 160.19 285.62 160.97 322.79 182.44 322.79 201.63 323.29 201.92 323.29 181.94 285.62 160.19"/><polygon class="cls-102" points="195.69 108.59 195.69 109.38 232.86 130.85 232.86 150.04 233.36 150.33 233.36 130.35 195.69 108.59"/><path class="cls-103" d="M282.22,100.61l-31-17.93c-1.6-.92-3-.69-3.88.41a3,3,0,0,1,3.38.09l31,17.93c2.65,1.52,4.79,5.62,4.79,9.15a5.17,5.17,0,0,1-.91,3.22,4.5,4.5,0,0,0,1.41-3.72C287,106.23,284.87,102.13,282.22,100.61Z"/><path class="cls-104" d="M280.6,190.21l-31-17.92c-1.6-.92-3-.69-3.88.41a3,3,0,0,1,3.38.09l31,17.92c2.65,1.53,4.79,5.63,4.79,9.16a5.17,5.17,0,0,1-.91,3.22,4.52,4.52,0,0,0,1.41-3.72C285.39,195.84,283.25,191.74,280.6,190.21Z"/><polygon class="cls-105" points="265.5 117.61 284.33 144.03 285.06 143.85 266 117.11 246.93 121.84 247.16 122.16 265.5 117.61"/><g class="cls-6"><polygon class="cls-106" points="215.55 125.84 219.83 128.29 219.83 127.02 215.55 124.57 215.55 125.84"/><polygon class="cls-106" points="217.34 136.2 213.08 133.74 213.08 135.01 217.34 137.46 217.34 136.2"/><polygon class="cls-106" points="217.11 129.46 217.11 128.19 212.35 125.5 212.35 126.76 217.11 129.46"/><polygon class="cls-106" points="212.11 130.49 212.11 131.76 214.53 133.15 214.53 131.89 212.11 130.49"/><polygon class="cls-106" points="208.46 132.38 208.46 131.12 204.53 128.89 204.53 130.16 208.46 132.38"/><polygon class="cls-106" points="219.16 134.56 215.79 132.62 215.79 133.88 219.16 135.83 219.16 134.56"/><polygon class="cls-106" points="214.32 129.21 214.32 130.47 216.32 131.61 216.32 130.35 214.32 129.21"/><polygon class="cls-106" points="221.09 127.75 221.09 129.01 222.18 129.64 222.18 128.38 221.09 127.75"/><polygon class="cls-106" points="213.06 129.75 213.06 128.49 208.99 126.17 208.99 127.44 213.06 129.75"/><polygon class="cls-106" points="218.37 128.91 218.37 130.18 224.37 133.61 224.37 132.35 218.37 128.91"/><polygon class="cls-106" points="210.87 131.04 210.87 129.78 205.76 126.92 205.76 128.18 210.87 131.04"/><polygon class="cls-106" points="206.99 119.67 206.99 120.94 210.99 123.23 210.99 121.96 206.99 119.67"/><polygon class="cls-106" points="214.28 123.85 212.25 122.69 212.25 123.95 214.28 125.11 214.28 123.85"/><polygon class="cls-106" points="211.84 133.02 209.72 131.83 209.72 133.09 211.84 134.29 211.84 133.02"/><polygon class="cls-106" points="223.25 138.19 228.7 141.36 228.7 140.1 223.25 136.93 223.25 138.19"/><polygon class="cls-106" points="203.27 128.18 201.34 127.07 201.34 128.33 203.27 129.44 203.27 128.18"/><polygon class="cls-106" points="197.39 114.36 197.39 115.63 205.97 120.52 205.97 119.25 197.39 114.36"/><polygon class="cls-106" points="224.51 136.29 226.53 137.47 226.53 136.2 224.51 135.03 224.51 136.29"/><polygon class="cls-106" points="225.63 134.34 231.43 137.74 231.43 136.48 225.63 133.07 225.63 134.34"/><polygon class="cls-106" points="217.58 132.33 223.26 135.57 223.26 134.31 217.58 131.07 217.58 132.33"/><polygon class="cls-106" points="223.44 129.1 223.44 130.37 227.97 132.96 227.97 131.69 223.44 129.1"/><polygon class="cls-106" points="204.5 126.21 201.34 124.44 201.34 125.71 204.5 127.47 204.5 126.21"/><polygon class="cls-106" points="222 136.21 220.42 135.29 220.42 136.56 222 137.47 222 136.21"/><polygon class="cls-106" points="207.72 125.45 201.34 121.82 201.34 123.08 207.72 126.72 207.72 125.45"/><polygon class="cls-106" points="211.09 124.77 201.34 119.19 201.34 120.45 211.09 126.04 211.09 124.77"/></g><g class="cls-107"><path class="cls-95" d="M264.18,127.48l-1.52-.88v-1.53l1.52.88Zm0,9.66-1.52-.88V128.5l1.52.88Z"/><path class="cls-95" d="M266.37,138.41v-6.47l-1-.6v-1.29l1,.6v-.91c0-.85.21-1.4.61-1.63a1.78,1.78,0,0,1,1.71.3,3.79,3.79,0,0,1,.45.29c.15.11.32.25.5.4l-.15,1.26-.28-.21-.33-.21c-.33-.19-.58-.22-.74-.1s-.25.38-.25.78v.9l1.38.8v1.29l-1.38-.8v6.47Z"/></g><path class="cls-108" d="M355,215.23l3.31,1.92v-7.61L355,207.62Zm5.25,3,3.31,1.92v-14l-3.31-1.92ZM365.45,201v20.29l3.31,1.92v-20.3Z"/><path class="cls-108" d="M184.13,53.77a7.26,7.26,0,0,0-.07-.92l1.54-.19a13.66,13.66,0,0,0-.7-2.32l-1.74-.53a12.49,12.49,0,0,0-1.09-1.87l.42-1.76a14.11,14.11,0,0,0-1.67-1.77l-.94,1.22a8.68,8.68,0,0,0-.77-.52,6,6,0,0,0-.77-.37l-.94-2.3a4.71,4.71,0,0,0-1.67-.17l.42,2.25a2.38,2.38,0,0,0-1.09.62l-1.75-1.49a4.52,4.52,0,0,0-.69,1.52l1.53,2a5.63,5.63,0,0,0-.06.84,7.22,7.22,0,0,0,.06.92l-1.53.2a13.61,13.61,0,0,0,.69,2.32l1.75.52a11.36,11.36,0,0,0,1.09,1.88l-.42,1.76a13.33,13.33,0,0,0,1.67,1.76l.94-1.21c.25.19.51.36.77.52a6.75,6.75,0,0,0,.77.37l.94,2.3a4.92,4.92,0,0,0,1.67.17l-.42-2.25a2.43,2.43,0,0,0,1.09-.62l1.74,1.49a4.53,4.53,0,0,0,.7-1.52l-1.54-2A5.73,5.73,0,0,0,184.13,53.77Zm-5-.58a4.44,4.44,0,0,1-2-3.48c0-1.28.9-1.79,2-1.15a4.44,4.44,0,0,1,2,3.48C181.12,53.32,180.22,53.83,179.11,53.19Z"/><g class="cls-56"><path class="cls-57" d="M159.14,144.42a.55.55,0,0,1-.2-.2.5.5,0,0,1-.08-.28v-1.26a.33.33,0,0,1,.08-.26.52.52,0,0,1,.27-.11l3.39-.65-3.39-4.56a3.09,3.09,0,0,1-.27-.42.81.81,0,0,1-.08-.38v-1.24c0-.11,0-.17.07-.2s.12,0,.21,0a1,1,0,0,1,.28.3l4.75,6.46a2.59,2.59,0,0,1,.31.52,1.12,1.12,0,0,1,.09.44V143a.5.5,0,0,1-.09.33.6.6,0,0,1-.31.15l-4.75,1A.28.28,0,0,1,159.14,144.42Z"/><path class="cls-57" d="M157,145.41l-.91-.53a.84.84,0,0,1-.29-.27,1.25,1.25,0,0,1-.15-.31l-4.79-15.91a.63.63,0,0,1,0-.19.19.19,0,0,1,.09-.19s.12,0,.21,0l.91.53a.86.86,0,0,1,.28.26,2.62,2.62,0,0,1,.17.33L157.23,145a.68.68,0,0,1,0,.19.2.2,0,0,1-.09.2A.19.19,0,0,1,157,145.41Z"/><path class="cls-57" d="M149,138.54a.87.87,0,0,1-.28-.29l-4.75-6.47a2.75,2.75,0,0,1-.31-.5,1,1,0,0,1-.1-.45v-.38a.55.55,0,0,1,.09-.34.56.56,0,0,1,.32-.15l4.75-1a.31.31,0,0,1,.28,0,.56.56,0,0,1,.19.21.52.52,0,0,1,.09.29v1.24a.35.35,0,0,1-.09.28.49.49,0,0,1-.26.11l-3.39.65,3.39,4.56a2.86,2.86,0,0,1,.26.42.81.81,0,0,1,.09.37v1.25q0,.15-.09.18A.19.19,0,0,1,149,138.54Z"/></g><polygon class="cls-108" points="130.04 130.99 130.04 118.7 136.68 128.68 130.04 130.99 130.04 130.99"/><polygon class="cls-109" points="121.01 125.82 121.01 113.53 127.64 123.51 121.01 125.82 121.01 125.82"/><polygon class="cls-110" points="111.97 120.66 111.97 108.36 118.61 118.34 111.97 120.66 111.97 120.66"/><polygon class="cls-111" points="102.93 115.48 102.93 103.19 109.57 113.17 102.93 115.48 102.93 115.48"/><polygon class="cls-112" points="93.89 110.32 93.89 98.02 100.53 108 93.89 110.32 93.89 110.32"/><polygon class="cls-108" points="320.37 57.74 320.37 70.03 313.73 60.05 320.37 57.74 320.37 57.74"/><polygon class="cls-109" points="329.4 62.91 329.4 75.2 322.77 65.22 329.4 62.91 329.4 62.91"/><polygon class="cls-110" points="338.44 68.08 338.44 80.37 331.81 70.39 338.44 68.08 338.44 68.08"/><polygon class="cls-111" points="347.48 73.25 347.48 85.54 340.84 75.56 347.48 73.25 347.48 73.25"/><polygon class="cls-112" points="356.52 78.42 356.52 90.71 349.88 80.73 356.52 78.42 356.52 78.42"/><g class="cls-56"><polygon class="cls-109" points="64.46 259.84 68.93 262.42 71.09 261.17 66.62 258.59 64.46 259.84"/><polygon class="cls-108" points="67.8 257.91 72.26 260.49 74.66 259.11 70.19 256.53 67.8 257.91"/><polygon class="cls-113" points="57.79 263.69 62.26 266.27 63.94 265.3 59.47 262.72 57.79 263.69"/><polygon class="cls-112" points="55.52 265.01 59.99 267.6 60.86 267.16 56.39 264.58 55.52 265.01"/><polygon class="cls-114" points="61.12 261.76 65.59 264.35 67.52 263.23 63.05 260.65 61.12 261.76"/><polygon class="cls-115" points="67.45 253.6 79.58 260.61 81.87 252.28 67.45 253.6"/></g><circle class="cls-116" cx="280.2" cy="340.94" r="13.2"/><circle class="cls-117" cx="154.85" cy="281.24" r="13.2"/><circle class="cls-118" cx="114.85" cy="160.49" r="13.2"/><circle class="cls-119" cx="376.41" cy="216.32" r="15.86" transform="translate(-29.06 61.16) rotate(-8.95)"/><circle class="cls-120" cx="387.64" cy="222.74" r="12.01" transform="translate(61.25 528.26) rotate(-72.99)"/><path class="cls-121" d="M392.34,220.09a9,9,0,1,0,12.19,3.68A9,9,0,0,0,392.34,220.09Z"/><polygon class="cls-122" points="375.22 152.72 412.11 174.02 412.11 193.59 375.22 172.29 375.22 152.72"/><polygon class="cls-123" points="375.71 172.72 363.62 155.76 375.71 152.76 387.8 169.72 375.71 172.72"/><polygon class="cls-124" points="406.61 148.06 369.72 126.76 369.72 117.97 406.61 139.27 406.61 148.06"/><path class="cls-123" d="M374,129.11,353,117a7.78,7.78,0,0,1-3.24-6.2h0c0-2.39,1.45-3.49,3.24-2.46l21,12.14a7.77,7.77,0,0,1,3.24,6.2h0C377.25,129,375.8,130.14,374,129.11Z"/></g></g></svg>