<svg xmlns="http://www.w3.org/2000/svg" xmlns:xlink="http://www.w3.org/1999/xlink" viewBox="0 0 412.11 326.32"><defs><style>.cls-1{isolation:isolate;}.cls-111,.cls-2{opacity:0.5;}.cls-105,.cls-106,.cls-107,.cls-108,.cls-109,.cls-110,.cls-111,.cls-112,.cls-2,.cls-56,.cls-6,.cls-75,.cls-76,.cls-84,.cls-85{mix-blend-mode:color-dodge;}.cls-2{fill:url(#radial-gradient);}.cls-3{fill:#71ccd4;}.cls-100,.cls-101,.cls-102,.cls-104,.cls-113,.cls-115,.cls-3,.cls-5,.cls-74,.cls-83,.cls-98,.cls-99{mix-blend-mode:screen;}.cls-4{fill:url(#New_Gradient_Swatch_copy_7);}.cls-5{fill:url(#Radial_Gradient_1);}.cls-7{fill:url(#linear-gradient);}.cls-8{fill:url(#linear-gradient-2);}.cls-9{fill:url(#linear-gradient-3);}.cls-10{fill:url(#linear-gradient-4);}.cls-11{fill:url(#linear-gradient-5);}.cls-12{fill:url(#linear-gradient-6);}.cls-13{fill:url(#linear-gradient-7);}.cls-14{fill:url(#linear-gradient-8);}.cls-15{fill:url(#linear-gradient-9);}.cls-16{fill:url(#linear-gradient-10);}.cls-17{fill:url(#linear-gradient-11);}.cls-18{fill:url(#linear-gradient-12);}.cls-19{fill:url(#linear-gradient-13);}.cls-20{fill:url(#linear-gradient-14);}.cls-21{fill:url(#linear-gradient-15);}.cls-22{fill:url(#linear-gradient-16);}.cls-23{fill:url(#linear-gradient-17);}.cls-24{fill:url(#linear-gradient-18);}.cls-25{fill:url(#linear-gradient-19);}.cls-26{fill:url(#linear-gradient-20);}.cls-27{fill:url(#linear-gradient-21);}.cls-28{fill:url(#linear-gradient-22);}.cls-29{fill:url(#linear-gradient-23);}.cls-30{fill:url(#linear-gradient-24);}.cls-31{fill:url(#linear-gradient-25);}.cls-32{fill:url(#linear-gradient-26);}.cls-33{fill:url(#linear-gradient-27);}.cls-34{fill:url(#linear-gradient-28);}.cls-35{fill:url(#linear-gradient-29);}.cls-36{fill:url(#linear-gradient-30);}.cls-37{fill:url(#linear-gradient-31);}.cls-38{fill:url(#linear-gradient-32);}.cls-39{fill:url(#linear-gradient-33);}.cls-40{fill:url(#linear-gradient-34);}.cls-41{fill:url(#linear-gradient-35);}.cls-42{fill:url(#linear-gradient-36);}.cls-43{fill:url(#linear-gradient-37);}.cls-44{fill:url(#linear-gradient-38);}.cls-45{fill:url(#linear-gradient-39);}.cls-46{fill:url(#linear-gradient-40);}.cls-47{fill:url(#linear-gradient-41);}.cls-48{fill:url(#linear-gradient-42);}.cls-49{fill:url(#linear-gradient-43);}.cls-50{fill:url(#linear-gradient-44);}.cls-51{fill:url(#linear-gradient-45);}.cls-52{fill:url(#linear-gradient-46);}.cls-53{fill:url(#linear-gradient-47);}.cls-54{fill:url(#linear-gradient-48);}.cls-55{fill:#c7005b;}.cls-105,.cls-56{opacity:0.8;}.cls-105,.cls-106,.cls-107,.cls-108,.cls-109,.cls-110,.cls-111,.cls-112,.cls-57{fill:#7c1dc9;}.cls-58,.cls-72{opacity:0.2;}.cls-59{opacity:0;}.cls-60{opacity:0.09;}.cls-61{opacity:0.18;}.cls-62{opacity:0.27;}.cls-63{opacity:0.36;}.cls-64{opacity:0.45;}.cls-65{opacity:0.55;}.cls-66{opacity:0.64;}.cls-67{opacity:0.73;}.cls-68{opacity:0.82;}.cls-69{opacity:0.91;}.cls-70{fill:url(#linear-gradient-49);}.cls-71{fill:url(#linear-gradient-50);}.cls-72{fill:url(#linear-gradient-51);}.cls-73{fill:#45008b;}.cls-74{fill:url(#Radial_Gradient_1-2);}.cls-75{fill:url(#New_Gradient_Swatch_copy);}.cls-76{fill:url(#New_Gradient_Swatch_copy-2);}.cls-77{fill:url(#linear-gradient-52);}.cls-78{fill:url(#linear-gradient-53);}.cls-79{fill:url(#linear-gradient-54);}.cls-80{fill:#211c98;}.cls-81{fill:url(#New_Gradient_Swatch_copy_38);}.cls-82{fill:url(#linear-gradient-55);}.cls-83{fill:url(#Radial_Gradient_1-3);}.cls-84{fill:url(#radial-gradient-2);}.cls-85{fill:url(#radial-gradient-3);}.cls-86{fill:url(#linear-gradient-56);}.cls-87{fill:url(#linear-gradient-57);}.cls-88{fill:#211c6a;}.cls-89{fill:url(#linear-gradient-58);}.cls-90{fill:url(#linear-gradient-59);}.cls-91{fill:url(#linear-gradient-60);}.cls-92{fill:#c7bcd6;}.cls-93{fill:url(#linear-gradient-61);}.cls-94{fill:#127390;}.cls-95{fill:url(#New_Gradient_Swatch_copy_7-2);}.cls-96{fill:url(#New_Gradient_Swatch_copy_7-3);}.cls-97{fill:#b086cc;}.cls-98{fill:url(#Radial_Gradient_1-4);}.cls-99{fill:url(#Radial_Gradient_1-5);}.cls-100{fill:url(#Radial_Gradient_1-6);}.cls-101{fill:url(#Radial_Gradient_1-7);}.cls-102{fill:url(#Radial_Gradient_1-8);}.cls-103{fill:#e0ecf7;}.cls-106{opacity:0.6;}.cls-107{opacity:0.4;}.cls-108{opacity:0.25;}.cls-109{opacity:0.15;}.cls-110{opacity:0.3;}.cls-113,.cls-115{opacity:0.1;}.cls-113{fill:url(#New_Gradient_Swatch_copy_7-4);}.cls-114{fill:#06bbd3;}.cls-115{fill:url(#New_Gradient_Swatch_copy_7-5);}</style><radialGradient id="radial-gradient" cx="11337.81" cy="-608.57" r="194.55" gradientTransform="matrix(-0.42, 0, 0, 0.43, 4983.22, 438.94)" gradientUnits="userSpaceOnUse"><stop offset="0" stop-color="#fa45c1"/><stop offset="0.21" stop-color="#cb389d"/><stop offset="0.67" stop-color="#571843"/><stop offset="1"/></radialGradient><linearGradient id="New_Gradient_Swatch_copy_7" x1="226.2" y1="158.47" x2="142.06" y2="12.17" gradientUnits="userSpaceOnUse"><stop offset="0.04" stop-color="#138bbd"/><stop offset="0.23" stop-color="#169ac7"/><stop offset="0.59" stop-color="#1fc3df"/><stop offset="1" stop-color="#2af6ff"/></linearGradient><radialGradient id="Radial_Gradient_1" cx="180.16" cy="78.42" r="49.93" gradientUnits="userSpaceOnUse"><stop offset="0" stop-color="#fff"/><stop offset="1"/></radialGradient><linearGradient id="linear-gradient" x1="165.96" y1="55.8" x2="172.14" y2="55.8" gradientUnits="userSpaceOnUse"><stop offset="0" stop-color="#fff"/><stop offset="0.94" stop-color="#9ec3e5"/></linearGradient><linearGradient id="linear-gradient-2" x1="162.39" y1="69.06" x2="168.54" y2="69.06" xlink:href="#linear-gradient"/><linearGradient id="linear-gradient-3" x1="161.34" y1="57.31" x2="168.21" y2="57.31" xlink:href="#linear-gradient"/><linearGradient id="linear-gradient-4" x1="160.99" y1="63.6" x2="164.49" y2="63.6" xlink:href="#linear-gradient"/><linearGradient id="linear-gradient-5" x1="150.04" y1="61.88" x2="155.72" y2="61.88" xlink:href="#linear-gradient"/><linearGradient id="linear-gradient-6" x1="166.31" y1="67.06" x2="171.18" y2="67.06" xlink:href="#linear-gradient"/><linearGradient id="linear-gradient-7" x1="164.18" y1="61.56" x2="167.07" y2="61.56" xlink:href="#linear-gradient"/><linearGradient id="linear-gradient-8" x1="173.96" y1="59.07" x2="175.54" y2="59.07" xlink:href="#linear-gradient"/><linearGradient id="linear-gradient-9" x1="156.48" y1="58.02" x2="162.36" y2="58.02" xlink:href="#linear-gradient"/><linearGradient id="linear-gradient-10" x1="170.04" y1="62.79" x2="178.7" y2="62.79" xlink:href="#linear-gradient"/><linearGradient id="linear-gradient-11" x1="151.81" y1="59.48" x2="159.2" y2="59.48" xlink:href="#linear-gradient"/><linearGradient id="linear-gradient-12" x1="153.59" y1="48.61" x2="159.37" y2="48.61" xlink:href="#linear-gradient"/><linearGradient id="linear-gradient-13" x1="161.19" y1="52.15" x2="164.13" y2="52.15" xlink:href="#linear-gradient"/><linearGradient id="linear-gradient-14" x1="157.54" y1="65.38" x2="160.59" y2="65.38" xlink:href="#linear-gradient"/><linearGradient id="linear-gradient-15" x1="177.08" y1="74.17" x2="184.96" y2="74.17" xlink:href="#linear-gradient"/><linearGradient id="linear-gradient-16" x1="145.43" y1="58.44" x2="148.22" y2="58.44" xlink:href="#linear-gradient"/><linearGradient id="linear-gradient-17" x1="139.73" y1="42.81" x2="152.12" y2="42.81" xlink:href="#linear-gradient"/><linearGradient id="linear-gradient-18" x1="178.91" y1="69.98" x2="181.82" y2="69.98" xlink:href="#linear-gradient"/><linearGradient id="linear-gradient-19" x1="180.53" y1="70.22" x2="194.14" y2="70.22" xlink:href="#linear-gradient"/><linearGradient id="linear-gradient-20" x1="168.9" y1="65.76" x2="177.11" y2="65.76" xlink:href="#linear-gradient"/><linearGradient id="linear-gradient-21" x1="177.36" y1="62.45" x2="183.9" y2="62.45" xlink:href="#linear-gradient"/><linearGradient id="linear-gradient-22" x1="145.43" y1="55.12" x2="149.99" y2="55.12" xlink:href="#linear-gradient"/><linearGradient id="linear-gradient-23" x1="173" y1="70.18" x2="175.28" y2="70.18" xlink:href="#linear-gradient"/><linearGradient id="linear-gradient-24" x1="145.43" y1="52.68" x2="154.65" y2="52.68" xlink:href="#linear-gradient"/><linearGradient id="linear-gradient-25" x1="170.24" y1="77.57" x2="177.64" y2="77.57" xlink:href="#linear-gradient"/><linearGradient id="linear-gradient-26" x1="145.43" y1="50.29" x2="159.52" y2="50.29" xlink:href="#linear-gradient"/><linearGradient id="linear-gradient-27" x1="162.39" y1="84.13" x2="168.54" y2="84.13" xlink:href="#linear-gradient"/><linearGradient id="linear-gradient-28" x1="161.34" y1="72.39" x2="168.21" y2="72.39" xlink:href="#linear-gradient"/><linearGradient id="linear-gradient-29" x1="160.99" y1="78.67" x2="164.49" y2="78.67" xlink:href="#linear-gradient"/><linearGradient id="linear-gradient-30" x1="150.04" y1="76.96" x2="155.72" y2="76.96" xlink:href="#linear-gradient"/><linearGradient id="linear-gradient-31" x1="166.31" y1="82.14" x2="171.18" y2="82.14" xlink:href="#linear-gradient"/><linearGradient id="linear-gradient-32" x1="164.18" y1="76.63" x2="167.07" y2="76.63" xlink:href="#linear-gradient"/><linearGradient id="linear-gradient-33" x1="156.48" y1="73.1" x2="162.36" y2="73.1" xlink:href="#linear-gradient"/><linearGradient id="linear-gradient-34" x1="151.81" y1="74.56" x2="159.2" y2="74.56" xlink:href="#linear-gradient"/><linearGradient id="linear-gradient-35" x1="157.54" y1="80.46" x2="160.59" y2="80.46" xlink:href="#linear-gradient"/><linearGradient id="linear-gradient-36" x1="177.08" y1="89.25" x2="184.96" y2="89.25" xlink:href="#linear-gradient"/><linearGradient id="linear-gradient-37" x1="145.43" y1="73.52" x2="148.22" y2="73.52" xlink:href="#linear-gradient"/><linearGradient id="linear-gradient-38" x1="178.91" y1="85.06" x2="181.82" y2="85.06" xlink:href="#linear-gradient"/><linearGradient id="linear-gradient-39" x1="168.9" y1="80.84" x2="177.11" y2="80.84" xlink:href="#linear-gradient"/><linearGradient id="linear-gradient-40" x1="145.43" y1="70.2" x2="149.99" y2="70.2" xlink:href="#linear-gradient"/><linearGradient id="linear-gradient-41" x1="173" y1="85.26" x2="175.28" y2="85.26" xlink:href="#linear-gradient"/><linearGradient id="linear-gradient-42" x1="145.43" y1="67.75" x2="154.65" y2="67.75" xlink:href="#linear-gradient"/><linearGradient id="linear-gradient-43" x1="160" y1="85.48" x2="162.89" y2="85.48" xlink:href="#linear-gradient"/><linearGradient id="linear-gradient-44" x1="152.3" y1="81.94" x2="158.18" y2="81.94" xlink:href="#linear-gradient"/><linearGradient id="linear-gradient-45" x1="174.72" y1="93.91" x2="177.64" y2="93.91" xlink:href="#linear-gradient"/><linearGradient id="linear-gradient-46" x1="164.71" y1="89.68" x2="172.93" y2="89.68" xlink:href="#linear-gradient"/><linearGradient id="linear-gradient-47" x1="141.25" y1="76.6" x2="150.47" y2="76.6" xlink:href="#linear-gradient"/><linearGradient id="linear-gradient-48" x1="145.43" y1="65.37" x2="159.52" y2="65.37" xlink:href="#linear-gradient"/><linearGradient id="linear-gradient-49" x1="102.38" y1="213.12" x2="365.31" y2="213.12" gradientUnits="userSpaceOnUse"><stop offset="0.06" stop-color="#200041"/><stop offset="0.26" stop-color="#210243"/><stop offset="0.36" stop-color="#25084b"/><stop offset="0.43" stop-color="#2c1358"/><stop offset="0.47" stop-color="#311b61"/><stop offset="0.48" stop-color="#351f65"/><stop offset="0.5" stop-color="#422c73"/><stop offset="0.51" stop-color="#584188"/><stop offset="0.52" stop-color="#765fa7"/><stop offset="0.53" stop-color="#8770b8"/><stop offset="0.54" stop-color="#7e67ae"/><stop offset="0.56" stop-color="#5c468d"/><stop offset="0.59" stop-color="#442e75"/><stop offset="0.61" stop-color="#362066"/><stop offset="0.63" stop-color="#311b61"/><stop offset="0.67" stop-color="#2a1155"/><stop offset="0.75" stop-color="#230446"/><stop offset="0.81" stop-color="#200041"/><stop offset="1" stop-color="#200041"/></linearGradient><linearGradient id="linear-gradient-50" x1="88.33" y1="206.24" x2="341.29" y2="206.24" gradientUnits="userSpaceOnUse"><stop offset="0" stop-color="#311b61"/><stop offset="0.2" stop-color="#290f52"/><stop offset="0.49" stop-color="#200041"/><stop offset="1" stop-color="#0f001f"/></linearGradient><linearGradient id="linear-gradient-51" x1="104.14" y1="248.33" x2="367.07" y2="248.33" xlink:href="#linear-gradient-49"/><radialGradient id="Radial_Gradient_1-2" cx="224.66" cy="251.13" r="94.93" xlink:href="#Radial_Gradient_1"/><radialGradient id="New_Gradient_Swatch_copy" cx="1521.86" cy="-1437.13" r="46.1" gradientTransform="matrix(0.26, 0, 0, 0.18, -157.85, 533.62)" gradientUnits="userSpaceOnUse"><stop offset="0" stop-color="#972a74"/><stop offset="0.04" stop-color="#8a266a"/><stop offset="0.19" stop-color="#601b4a"/><stop offset="0.35" stop-color="#3d112f"/><stop offset="0.51" stop-color="#230a1b"/><stop offset="0.67" stop-color="#0f040c"/><stop offset="0.83" stop-color="#040103"/><stop offset="1"/></radialGradient><radialGradient id="New_Gradient_Swatch_copy-2" cx="1178.25" cy="-1986.2" r="35.36" gradientTransform="matrix(1, 0, 0, 0.59, -984.33, 1345.15)" xlink:href="#New_Gradient_Swatch_copy"/><linearGradient id="linear-gradient-52" x1="-577.81" y1="403.04" x2="-655.83" y2="344.06" gradientTransform="matrix(0.87, 0.5, -1.5, 0.29, 1291.55, 411.74)" gradientUnits="userSpaceOnUse"><stop offset="0" stop-color="#3d065f"/><stop offset="1" stop-color="#260556"/></linearGradient><linearGradient id="linear-gradient-53" x1="5100.48" y1="-33.37" x2="4837.32" y2="195.21" gradientTransform="matrix(-1, 0, 0, 1, 5202.01, 0)" gradientUnits="userSpaceOnUse"><stop offset="0.19" stop-color="#3d065f"/><stop offset="0.93" stop-color="#3d065f"/></linearGradient><linearGradient id="linear-gradient-54" x1="5097.7" y1="-30.96" x2="4838.96" y2="193.78" gradientTransform="matrix(-1, 0, 0, 1, 5202.01, 0)" xlink:href="#linear-gradient-50"/><linearGradient id="New_Gradient_Swatch_copy_38" x1="170.52" y1="-3.56" x2="352.93" y2="211.49" gradientUnits="userSpaceOnUse"><stop offset="0" stop-color="#7c1dc9"/><stop offset="0.03" stop-color="#741bbd"/><stop offset="0.16" stop-color="#56148b"/><stop offset="0.3" stop-color="#3b0e60"/><stop offset="0.43" stop-color="#26093e"/><stop offset="0.57" stop-color="#150523"/><stop offset="0.71" stop-color="#09020f"/><stop offset="0.85" stop-color="#020104"/><stop offset="1"/></linearGradient><linearGradient id="linear-gradient-55" x1="1364.02" y1="222" x2="1234.66" y2="15.3" gradientTransform="translate(-985.58)" xlink:href="#linear-gradient-49"/><radialGradient id="Radial_Gradient_1-3" cx="1327.11" cy="95.01" r="21.98" gradientTransform="translate(-985.58)" xlink:href="#Radial_Gradient_1"/><radialGradient id="radial-gradient-2" cx="285.06" cy="7471.62" r="10.31" gradientTransform="matrix(0, 1, -0.66, 0, 5298.03, -190.41)" xlink:href="#New_Gradient_Swatch_copy"/><radialGradient id="radial-gradient-3" cx="324.24" cy="-288.46" r="55.56" gradientTransform="translate(148.41 57.82) scale(0.16 0.15)" gradientUnits="userSpaceOnUse"><stop offset="0" stop-color="#dc3daa"/><stop offset="0.07" stop-color="#bd3492"/><stop offset="0.2" stop-color="#8b276b"/><stop offset="0.33" stop-color="#601b4a"/><stop offset="0.46" stop-color="#3e1130"/><stop offset="0.59" stop-color="#230a1b"/><stop offset="0.72" stop-color="#0f040c"/><stop offset="0.86" stop-color="#040103"/><stop offset="1"/></radialGradient><linearGradient id="linear-gradient-56" x1="267.52" y1="155.07" x2="222.29" y2="204.31" gradientUnits="userSpaceOnUse"><stop offset="0" stop-color="#3d065f"/><stop offset="1" stop-color="#12054e"/><stop offset="1" stop-color="#10054d"/></linearGradient><linearGradient id="linear-gradient-57" x1="207.93" y1="168.17" x2="207.93" y2="188.29" gradientUnits="userSpaceOnUse"><stop offset="0" stop-color="#3d065f"/><stop offset="1" stop-color="#521b9a"/></linearGradient><linearGradient id="linear-gradient-58" x1="223.46" y1="176.75" x2="223.46" y2="198.63" xlink:href="#linear-gradient-57"/><linearGradient id="linear-gradient-59" x1="238.99" y1="186.58" x2="238.99" y2="203.92" xlink:href="#linear-gradient-57"/><linearGradient id="linear-gradient-60" x1="254.53" y1="195.25" x2="254.53" y2="210.67" xlink:href="#linear-gradient-57"/><linearGradient id="linear-gradient-61" x1="261.99" y1="213.12" x2="264.82" y2="230.62" xlink:href="#linear-gradient-57"/><linearGradient id="New_Gradient_Swatch_copy_7-2" x1="323.43" y1="172.7" x2="266.43" y2="100.7" xlink:href="#New_Gradient_Swatch_copy_7"/><linearGradient id="New_Gradient_Swatch_copy_7-3" x1="232.85" y1="129.01" x2="199.35" y2="70.76" xlink:href="#New_Gradient_Swatch_copy_7"/><radialGradient id="Radial_Gradient_1-4" cx="304.46" cy="148.73" r="19.88" xlink:href="#Radial_Gradient_1"/><radialGradient id="Radial_Gradient_1-5" cx="214.52" cy="97.14" r="19.88" xlink:href="#Radial_Gradient_1"/><radialGradient id="Radial_Gradient_1-6" cx="267.16" cy="65.47" r="17.89" xlink:href="#Radial_Gradient_1"/><radialGradient id="Radial_Gradient_1-7" cx="265.54" cy="155.08" r="17.89" xlink:href="#Radial_Gradient_1"/><radialGradient id="Radial_Gradient_1-8" cx="265.99" cy="98.24" r="16.5" xlink:href="#Radial_Gradient_1"/><linearGradient id="New_Gradient_Swatch_copy_7-4" x1="9986.58" y1="5958.84" x2="9944.84" y2="5958.84" gradientTransform="translate(10352.28 6099.67) rotate(180)" xlink:href="#New_Gradient_Swatch_copy_7"/><linearGradient id="New_Gradient_Swatch_copy_7-5" x1="9992.08" y1="5998.98" x2="9950.34" y2="5998.98" gradientTransform="translate(-9575.96 -5898.29)" xlink:href="#New_Gradient_Swatch_copy_7"/></defs><title>Software development</title><g class="cls-1"><g id="Layer_1" data-name="Layer 1"><ellipse class="cls-2" cx="265.14" cy="174.94" rx="80.96" ry="84.4"/><polygon class="cls-3" points="182.22 104.83 87.6 50.2 87.6 0 182.22 54.63 182.22 104.83"/><polygon class="cls-4" points="227.47 130.83 132.85 76.2 132.85 26 227.47 80.63 227.47 130.83"/><polygon class="cls-5" points="132.85 26 132.85 27.98 226.21 81.89 226.21 130.11 227.47 130.83 227.47 80.63 132.85 26"/><g class="cls-6"><polygon class="cls-7" points="165.96 54.95 172.14 58.49 172.14 56.66 165.96 53.12 165.96 54.95"/><polygon class="cls-8" points="168.54 69.92 162.39 66.37 162.39 68.19 168.54 71.75 168.54 69.92"/><polygon class="cls-9" points="168.21 60.17 168.21 58.35 161.34 54.45 161.34 56.28 168.21 60.17"/><polygon class="cls-10" points="161 61.67 161 63.5 164.49 65.52 164.49 63.69 161 61.67"/><polygon class="cls-11" points="155.72 64.4 155.72 62.57 150.04 59.36 150.04 61.19 155.72 64.4"/><polygon class="cls-12" points="171.18 67.55 166.31 64.75 166.31 66.57 171.18 69.38 171.18 67.55"/><polygon class="cls-13" points="164.18 59.82 164.18 61.65 167.07 63.29 167.07 61.47 164.18 59.82"/><polygon class="cls-14" points="173.97 57.7 173.97 59.53 175.54 60.44 175.54 58.62 173.97 57.7"/><polygon class="cls-15" points="162.36 60.61 162.36 58.78 156.48 55.43 156.48 57.26 162.36 60.61"/><polygon class="cls-16" points="170.04 59.39 170.04 61.22 178.7 66.18 178.7 64.36 170.04 59.39"/><polygon class="cls-17" points="159.2 62.46 159.2 60.64 151.81 56.51 151.81 58.33 159.2 62.46"/><polygon class="cls-18" points="153.59 46.04 153.59 47.87 159.37 51.17 159.37 49.35 153.59 46.04"/><polygon class="cls-19" points="164.13 52.08 161.19 50.39 161.19 52.22 164.13 53.9 164.13 52.08"/><polygon class="cls-20" points="160.59 65.33 157.54 63.6 157.54 65.43 160.59 67.16 160.59 65.33"/><polygon class="cls-21" points="177.08 72.79 184.96 77.37 184.96 75.55 177.08 70.97 177.08 72.79"/><polygon class="cls-22" points="148.22 58.33 145.43 56.73 145.43 58.55 148.22 60.15 148.22 58.33"/><polygon class="cls-23" points="139.73 38.37 139.73 40.2 152.12 47.26 152.12 45.43 139.73 38.37"/><polygon class="cls-24" points="178.91 70.05 181.82 71.75 181.82 69.92 178.91 68.22 178.91 70.05"/><polygon class="cls-25" points="180.53 67.23 194.14 75.04 194.14 73.22 180.53 65.4 180.53 67.23"/><polygon class="cls-26" points="168.9 64.33 177.11 69.01 177.11 67.18 168.9 62.51 168.9 64.33"/><polygon class="cls-27" points="177.36 59.66 177.36 61.49 183.9 65.23 183.9 63.41 177.36 59.66"/><polygon class="cls-28" points="149.99 55.48 145.43 52.93 145.43 54.76 149.99 57.31 149.99 55.48"/><polygon class="cls-29" points="175.28 69.93 173 68.61 173 70.43 175.28 71.75 175.28 69.93"/><polygon class="cls-30" points="154.65 54.39 145.43 49.14 145.43 50.96 154.65 56.22 154.65 54.39"/><polygon class="cls-31" points="170.24 76.37 177.64 80.59 177.64 78.77 170.24 74.55 170.24 76.37"/><polygon class="cls-32" points="159.52 53.41 145.43 45.34 145.43 47.17 159.52 55.23 159.52 53.41"/></g><g class="cls-6"><polygon class="cls-33" points="168.54 85 162.39 81.44 162.39 83.27 168.54 86.82 168.54 85"/><polygon class="cls-34" points="168.21 75.25 168.21 73.43 161.34 69.53 161.34 71.36 168.21 75.25"/><polygon class="cls-35" points="161 76.75 161 78.58 164.49 80.59 164.49 78.77 161 76.75"/><polygon class="cls-36" points="155.72 79.47 155.72 77.65 150.04 74.44 150.04 76.26 155.72 79.47"/><polygon class="cls-37" points="171.18 82.63 166.31 79.82 166.31 81.65 171.18 84.46 171.18 82.63"/><polygon class="cls-38" points="164.18 74.9 164.18 76.72 167.07 78.37 167.07 76.54 164.18 74.9"/><polygon class="cls-39" points="162.36 75.68 162.36 73.86 156.48 70.51 156.48 72.33 162.36 75.68"/><polygon class="cls-40" points="159.2 77.54 159.2 75.72 151.81 71.58 151.81 73.41 159.2 77.54"/><polygon class="cls-41" points="160.59 80.41 157.54 78.68 157.54 80.51 160.59 82.23 160.59 80.41"/><polygon class="cls-42" points="177.08 87.87 184.96 92.45 184.96 90.63 177.08 86.05 177.08 87.87"/><polygon class="cls-43" points="148.22 73.41 145.43 71.8 145.43 73.63 148.22 75.23 148.22 73.41"/><polygon class="cls-44" points="178.91 85.13 181.82 86.83 181.82 85 178.91 83.3 178.91 85.13"/><polygon class="cls-45" points="168.9 79.41 177.11 84.09 177.11 82.26 168.9 77.58 168.9 79.41"/><polygon class="cls-46" points="149.99 70.56 145.43 68.01 145.43 69.83 149.99 72.39 149.99 70.56"/><polygon class="cls-47" points="175.28 85.01 173 83.69 173 85.51 175.28 86.83 175.28 85.01"/><polygon class="cls-48" points="154.65 69.47 145.43 64.21 145.43 66.04 154.65 71.3 154.65 69.47"/><polygon class="cls-49" points="160 83.74 160 85.57 162.89 87.22 162.89 85.39 160 83.74"/><polygon class="cls-50" points="158.18 84.53 158.18 82.7 152.3 79.35 152.3 81.18 158.18 84.53"/><polygon class="cls-51" points="174.72 93.97 177.64 95.67 177.64 93.84 174.72 92.14 174.72 93.97"/><polygon class="cls-52" points="164.72 88.25 172.93 92.93 172.93 91.11 164.72 86.43 164.72 88.25"/><polygon class="cls-53" points="150.47 78.31 141.25 73.06 141.25 74.89 150.47 80.14 150.47 78.31"/><polygon class="cls-54" points="159.52 68.49 145.43 60.42 145.43 62.25 159.52 70.31 159.52 68.49"/></g><g class="cls-6"><path class="cls-55" d="M245.77,326.32a19.13,19.13,0,0,1-2.26-.19.44.44,0,0,1-.38-.51.46.46,0,0,1,.51-.38,15.46,15.46,0,0,0,2.15.18.45.45,0,0,1,.44.46.46.46,0,0,1-.45.44Z"/><path class="cls-55" d="M247.55,325.82a.45.45,0,0,1,.39-.5,13.23,13.23,0,0,0,2.1-.42.45.45,0,0,1,.25.86,13,13,0,0,1-2.25.45h0A.44.44,0,0,1,247.55,325.82Z"/><path class="cls-55" d="M241.28,325.66a15.44,15.44,0,0,1-2.14-.77.45.45,0,0,1,.36-.82,15,15,0,0,0,2,.73.45.45,0,0,1-.12.88Z"/><path class="cls-55" d="M251.84,324.7a.48.48,0,0,1,.18-.63l1.92-1.1a.44.44,0,0,1,.61.16.43.43,0,0,1-.16.61l-1.92,1.11-.26-.37.22.39a.42.42,0,0,1-.21.06A.45.45,0,0,1,251.84,324.7Z"/><path class="cls-55" d="M237.14,323.82l-1.92-1.11a.45.45,0,1,1,.45-.77l1.92,1.11a.45.45,0,0,1-.23.83A.46.46,0,0,1,237.14,323.82Z"/><path class="cls-55" d="M255.7,322.47a.45.45,0,0,1,.16-.61l1.92-1.11a.45.45,0,0,1,.61.16.43.43,0,0,1-.16.61l-1.92,1.11a.46.46,0,0,1-.22.06A.44.44,0,0,1,255.7,322.47Z"/><path class="cls-55" d="M233.3,321.6l-1.92-1.1a.45.45,0,0,1-.16-.62.44.44,0,0,1,.61-.16l1.92,1.11a.45.45,0,0,1-.23.83A.37.37,0,0,1,233.3,321.6Z"/><path class="cls-55" d="M259.54,320.25a.45.45,0,0,1,.16-.61l1.92-1.11a.46.46,0,0,1,.62.16.46.46,0,0,1-.17.62l-1.92,1.11a.46.46,0,0,1-.22.06A.43.43,0,0,1,259.54,320.25Z"/><path class="cls-55" d="M229.46,319.39l-1.92-1.11a.45.45,0,0,1,.45-.78l1.92,1.11a.45.45,0,0,1,.16.61.43.43,0,0,1-.39.23A.46.46,0,0,1,229.46,319.39Z"/><path class="cls-55" d="M263.38,318a.45.45,0,0,1,.16-.61l1.92-1.11a.46.46,0,0,1,.62.17.45.45,0,0,1-.17.61L264,318.2a.46.46,0,0,1-.22.06A.43.43,0,0,1,263.38,318Z"/><path class="cls-55" d="M225.62,317.17l-1.92-1.11a.45.45,0,0,1,.45-.77l1.92,1.11a.45.45,0,0,1-.23.83A.46.46,0,0,1,225.62,317.17Z"/><path class="cls-55" d="M267.22,315.82a.45.45,0,0,1,.16-.61l1.93-1.11a.44.44,0,1,1,.44.77L267.83,316a.46.46,0,0,1-.22.06A.44.44,0,0,1,267.22,315.82Z"/><path class="cls-55" d="M221.78,315l-1.92-1.11a.44.44,0,0,1-.17-.61.45.45,0,0,1,.62-.16l1.92,1.11a.45.45,0,0,1,.16.61.44.44,0,0,1-.39.22A.46.46,0,0,1,221.78,315Z"/><path class="cls-55" d="M271.06,313.6a.45.45,0,0,1,.17-.61l1.92-1.11a.45.45,0,0,1,.61.16.44.44,0,0,1-.17.61l-1.92,1.11a.43.43,0,0,1-.22.06A.46.46,0,0,1,271.06,313.6Z"/><path class="cls-55" d="M217.94,312.73l-1.92-1.1a.46.46,0,0,1-.17-.62.46.46,0,0,1,.62-.16l1.92,1.11a.45.45,0,0,1-.23.84A.38.38,0,0,1,217.94,312.73Z"/><path class="cls-55" d="M274.9,311.38a.45.45,0,0,1,.17-.61l1.92-1.11a.45.45,0,0,1,.44.78l-1.92,1.11a.43.43,0,0,1-.22.06A.45.45,0,0,1,274.9,311.38Z"/><path class="cls-55" d="M214.1,310.52l-1.92-1.11a.45.45,0,0,1-.17-.61.46.46,0,0,1,.62-.17l1.92,1.11a.45.45,0,0,1,.16.61.43.43,0,0,1-.39.23A.46.46,0,0,1,214.1,310.52Z"/><path class="cls-55" d="M281.24,280.22l-1.92-1.11a.44.44,0,0,1-.16-.61.44.44,0,0,1,.61-.17l1.92,1.11a.45.45,0,0,1,.16.61.43.43,0,0,1-.39.23A.46.46,0,0,1,281.24,280.22Z"/><path class="cls-55" d="M277.4,278l-1.92-1.11a.45.45,0,0,1-.17-.61.46.46,0,0,1,.62-.17l1.92,1.11a.45.45,0,0,1,.16.61.43.43,0,0,1-.39.23A.46.46,0,0,1,277.4,278Z"/><path class="cls-55" d="M273.56,275.78l-1.92-1.11a.45.45,0,0,1-.17-.61.45.45,0,0,1,.62-.16L274,275a.45.45,0,0,1,.16.61.44.44,0,0,1-.39.22A.46.46,0,0,1,273.56,275.78Z"/><path class="cls-55" d="M128.32,163.7l-1.92-1.11a.45.45,0,0,1,.45-.78l1.92,1.11a.44.44,0,0,1,.16.61.43.43,0,0,1-.38.23A.46.46,0,0,1,128.32,163.7Z"/><path class="cls-55" d="M124.48,161.48l-1.92-1.11a.44.44,0,0,1-.16-.61.43.43,0,0,1,.61-.16l1.92,1.1a.45.45,0,0,1,.16.62.44.44,0,0,1-.38.22A.46.46,0,0,1,124.48,161.48Z"/><path class="cls-55" d="M120.64,159.26l-1.92-1.11a.45.45,0,1,1,.45-.77l1.92,1.11a.45.45,0,0,1-.23.83A.46.46,0,0,1,120.64,159.26Z"/><path class="cls-55" d="M278.74,309.16a.45.45,0,0,1,.17-.61l1.92-1.11a.46.46,0,0,1,.61.17.45.45,0,0,1-.17.61l-1.92,1.11a.43.43,0,0,1-.22.06A.45.45,0,0,1,278.74,309.16Z"/><path class="cls-55" d="M61.24,163a.44.44,0,0,1,.17-.61l1.92-1.11a.44.44,0,1,1,.44.77l-1.92,1.11a.43.43,0,0,1-.22.06A.47.47,0,0,1,61.24,163Z"/><path class="cls-55" d="M65.08,160.78a.45.45,0,0,1,.17-.61l1.92-1.11a.45.45,0,1,1,.44.78l-1.92,1.1a.43.43,0,0,1-.22.06A.46.46,0,0,1,65.08,160.78Z"/><path class="cls-55" d="M68.92,158.56a.45.45,0,0,1,.17-.61L71,156.84a.45.45,0,0,1,.44.78l-1.92,1.11a.43.43,0,0,1-.22.06A.45.45,0,0,1,68.92,158.56Z"/><path class="cls-55" d="M324.9,280.5a.45.45,0,0,1,.17-.61l1.92-1.11a.45.45,0,0,1,.61.16.44.44,0,0,1-.17.61l-1.92,1.11a.43.43,0,0,1-.22.06A.47.47,0,0,1,324.9,280.5Z"/><path class="cls-55" d="M328.74,278.28a.45.45,0,0,1,.17-.61l1.92-1.11a.45.45,0,1,1,.44.78l-1.92,1.11a.43.43,0,0,1-.22.06A.46.46,0,0,1,328.74,278.28Z"/><path class="cls-55" d="M332.58,276.06a.45.45,0,0,1,.17-.61l1.92-1.11a.45.45,0,0,1,.45.78l-1.93,1.11a.43.43,0,0,1-.22.06A.46.46,0,0,1,332.58,276.06Z"/><path class="cls-55" d="M155.47,247.9a.45.45,0,0,1,.16-.62l1.92-1.11a.44.44,0,0,1,.61.17.43.43,0,0,1-.16.61l-1.92,1.11a.46.46,0,0,1-.22.06A.44.44,0,0,1,155.47,247.9Z"/><path class="cls-55" d="M159.31,245.68a.45.45,0,0,1,.16-.61l1.92-1.11a.45.45,0,0,1,.61.16.43.43,0,0,1-.16.61l-1.92,1.11a.46.46,0,0,1-.22.06A.44.44,0,0,1,159.31,245.68Z"/><path class="cls-55" d="M163.15,243.46a.45.45,0,0,1,.16-.61l1.92-1.11a.46.46,0,0,1,.62.16.46.46,0,0,1-.17.62l-1.92,1.1a.46.46,0,0,1-.22.06A.44.44,0,0,1,163.15,243.46Z"/><path class="cls-55" d="M163.66,138.9l-1.92-1.1a.46.46,0,0,1-.16-.62.45.45,0,0,1,.61-.16l1.92,1.11a.43.43,0,0,1,.16.61.44.44,0,0,1-.38.22A.38.38,0,0,1,163.66,138.9Zm-3.84-2.21-1.92-1.11a.45.45,0,0,1,.45-.78l1.92,1.11a.43.43,0,0,1,.16.61.43.43,0,0,1-.38.23A.46.46,0,0,1,159.82,136.69ZM156,134.47l-1.92-1.11a.44.44,0,0,1-.16-.61.43.43,0,0,1,.61-.16l1.92,1.1a.45.45,0,0,1,.16.62.44.44,0,0,1-.38.22A.46.46,0,0,1,156,134.47Zm-3.84-2.22-1.92-1.11a.45.45,0,0,1,.45-.77l1.92,1.11a.45.45,0,0,1-.22.83A.46.46,0,0,1,152.14,132.25ZM148.3,130l-1.92-1.1a.45.45,0,0,1-.16-.62.45.45,0,0,1,.61-.16l1.92,1.11a.45.45,0,0,1-.23.83A.37.37,0,0,1,148.3,130Zm-34.21-1.19a.45.45,0,0,1,.16-.61l1.92-1.11a.46.46,0,0,1,.62.17.45.45,0,0,1-.17.61L114.7,129a.46.46,0,0,1-.22.06A.43.43,0,0,1,114.09,128.84Zm30.37-1-1.92-1.11a.45.45,0,0,1,.45-.78l1.92,1.11a.45.45,0,0,1,.16.61.43.43,0,0,1-.39.23A.46.46,0,0,1,144.46,127.82Zm-26.53-1.19a.46.46,0,0,1,.16-.62L120,124.9a.45.45,0,0,1,.44.78l-1.92,1.11a.43.43,0,0,1-.22.06A.44.44,0,0,1,117.93,126.63Zm22.69-1-1.92-1.11a.45.45,0,1,1,.45-.77l1.92,1.11a.45.45,0,0,1-.23.83A.46.46,0,0,1,140.62,125.6Zm46.11,26.63-1.92-1.11a.44.44,0,0,1-.16-.61.43.43,0,0,1,.61-.16l1.92,1.1a.45.45,0,0,1,.16.62.44.44,0,0,1-.39.22A.46.46,0,0,1,186.73,152.23ZM182.89,150,181,148.9a.45.45,0,1,1,.45-.77l1.92,1.11a.45.45,0,0,1-.23.83A.46.46,0,0,1,182.89,150Zm-3.84-2.22-1.92-1.1a.45.45,0,0,1-.16-.62.44.44,0,0,1,.61-.16L179.5,147a.45.45,0,0,1-.23.84A.38.38,0,0,1,179.05,147.79Zm-3.84-2.21-1.92-1.11a.45.45,0,0,1-.17-.61.46.46,0,0,1,.62-.17l1.92,1.11a.45.45,0,0,1,.16.61.43.43,0,0,1-.39.23A.46.46,0,0,1,175.21,145.58Zm-3.84-2.22-1.92-1.11a.45.45,0,1,1,.45-.77l1.92,1.1a.46.46,0,0,1,.16.62.44.44,0,0,1-.39.22A.46.46,0,0,1,171.37,143.36Zm-3.84-2.22L165.61,140a.44.44,0,1,1,.44-.77l1.93,1.11a.45.45,0,0,1,.16.61.44.44,0,0,1-.39.22A.46.46,0,0,1,167.53,141.14Zm-45.76-16.73a.44.44,0,0,1,.17-.61l1.92-1.11a.43.43,0,0,1,.6.17.45.45,0,0,1-.17.61l-1.91,1.1a.43.43,0,0,1-.22.06A.46.46,0,0,1,121.77,124.41Zm15-.94a13.88,13.88,0,0,0-2-.72.46.46,0,0,1-.31-.56.45.45,0,0,1,.55-.31,15.12,15.12,0,0,1,2.15.77.45.45,0,0,1,.23.59.46.46,0,0,1-.41.27A.39.39,0,0,1,136.79,123.47Zm-11.1-1.12a.45.45,0,0,1,.31-.56,13.87,13.87,0,0,1,2.24-.45.46.46,0,0,1,.5.39.45.45,0,0,1-.39.5,13.23,13.23,0,0,0-2.1.42l-.13,0A.46.46,0,0,1,125.69,122.35Zm7,0a17.3,17.3,0,0,0-2.15-.17.45.45,0,0,1-.44-.46.45.45,0,0,1,.45-.44,17.23,17.23,0,0,1,2.27.19.45.45,0,0,1-.06.89Z"/><path class="cls-55" d="M133.5,284.91a19.11,19.11,0,0,1-2.27-.18.46.46,0,0,1-.38-.51.45.45,0,0,1,.51-.38,19.68,19.68,0,0,0,2.15.18.45.45,0,1,1,0,.89Zm1.78-.5a.44.44,0,0,1,.39-.49,13.46,13.46,0,0,0,2.1-.42.44.44,0,0,1,.55.3.45.45,0,0,1-.3.56,15.18,15.18,0,0,1-2.25.45h-.05A.44.44,0,0,1,135.28,284.41Zm-6.27-.16a15.58,15.58,0,0,1-2.15-.77.44.44,0,0,1-.23-.59.46.46,0,0,1,.6-.22,15,15,0,0,0,2,.72.45.45,0,0,1-.12.88A.25.25,0,0,1,129,284.25Zm10.55-1a.46.46,0,0,1,.19-.62l1.92-1.11a.45.45,0,1,1,.44.78l-1.94,1.12-.24-.38.23.39a.41.41,0,0,1-.21,0A.45.45,0,0,1,139.56,283.29Zm-14.69-.87L123,281.31a.45.45,0,1,1,.44-.78l1.92,1.11a.45.45,0,0,1-.22.84A.43.43,0,0,1,124.87,282.42Zm18.55-1.36a.45.45,0,0,1,.17-.61l1.92-1.11a.45.45,0,0,1,.61.17.45.45,0,0,1-.17.61L144,281.23a.43.43,0,0,1-.22.06A.46.46,0,0,1,143.42,281.06ZM121,280.2l-1.92-1.11a.44.44,0,1,1,.44-.77l1.92,1.1a.45.45,0,0,1-.22.84A.43.43,0,0,1,121,280.2Zm26.23-1.35a.44.44,0,0,1,.17-.61l1.92-1.11a.45.45,0,0,1,.61.16.45.45,0,0,1-.16.61L147.88,279a.49.49,0,0,1-.23.06A.47.47,0,0,1,147.26,278.85ZM117.19,278l-1.92-1.11a.44.44,0,1,1,.44-.77l1.92,1.11a.45.45,0,0,1,.17.61.47.47,0,0,1-.39.22A.43.43,0,0,1,117.19,278Zm33.91-1.35a.45.45,0,0,1,.17-.61l1.92-1.11a.45.45,0,0,1,.61.16.46.46,0,0,1-.16.62l-1.92,1.1a.49.49,0,0,1-.23.06A.47.47,0,0,1,151.1,276.63Zm-37.75-.86-1.93-1.11a.45.45,0,0,1-.16-.61.45.45,0,0,1,.61-.17l1.92,1.11a.45.45,0,0,1,.17.61.46.46,0,0,1-.39.23A.43.43,0,0,1,113.35,275.77Zm41.59-1.36a.45.45,0,0,1,.17-.61l1.92-1.11a.44.44,0,0,1,.61.17.45.45,0,0,1-.16.61l-1.92,1.11a.49.49,0,0,1-.23.06A.46.46,0,0,1,154.94,274.41Zm-45.44-.86-1.92-1.11a.45.45,0,0,1-.16-.61.45.45,0,0,1,.61-.17l1.92,1.11a.46.46,0,0,1,.17.62.47.47,0,0,1-.39.22A.49.49,0,0,1,109.5,273.55Zm49.29-1.35a.45.45,0,0,1,.16-.62l1.92-1.11a.45.45,0,0,1,.45.78l-1.92,1.11a.46.46,0,0,1-.23.06A.44.44,0,0,1,158.79,272.2Zm-53.13-.87-1.92-1.11a.45.45,0,0,1-.16-.61.44.44,0,0,1,.61-.16l1.92,1.11a.43.43,0,0,1,.16.61.44.44,0,0,1-.38.22A.46.46,0,0,1,105.66,271.33Zm57-1.35a.44.44,0,0,1,.16-.61l1.92-1.11a.45.45,0,0,1,.45.77l-1.92,1.11a.46.46,0,0,1-.23.06A.44.44,0,0,1,162.63,270Zm-60.81-.87L99.9,268a.46.46,0,0,1-.16-.62.44.44,0,0,1,.61-.16l1.92,1.11a.43.43,0,0,1,.16.61.44.44,0,0,1-.38.22A.38.38,0,0,1,101.82,269.11Zm64.65-1.35a.44.44,0,0,1,.16-.61l1.92-1.11a.45.45,0,0,1,.45.78l-1.92,1.1a.38.38,0,0,1-.23.06A.44.44,0,0,1,166.47,267.76ZM98,266.9l-.61-.36a10.55,10.55,0,0,1-1.3-.88A.45.45,0,0,1,96,265a.46.46,0,0,1,.63-.07,9.54,9.54,0,0,0,1.19.81l.62.35a.45.45,0,0,1,.16.61.43.43,0,0,1-.38.23A.46.46,0,0,1,98,266.9Zm72.33-1.35a.44.44,0,0,1,.15-.61,5,5,0,0,0,1.5-1.35.45.45,0,0,1,.74.51,6,6,0,0,1-1.77,1.6.55.55,0,0,1-.24.07A.44.44,0,0,1,170.31,265.55ZM94.46,264a4.42,4.42,0,0,1-.77-2.31.45.45,0,1,1,.89,0,3.57,3.57,0,0,0,.63,1.84.46.46,0,0,1-.13.62.45.45,0,0,1-.25.07A.44.44,0,0,1,94.46,264Zm78.07-2.17a3.57,3.57,0,0,0-.63-1.84.45.45,0,0,1,.12-.62.44.44,0,0,1,.62.13,4.32,4.32,0,0,1,.78,2.3.43.43,0,0,1-.43.46h0A.45.45,0,0,1,172.53,261.78Zm-78-1.86a.45.45,0,0,1-.11-.63,6,6,0,0,1,1.78-1.59.45.45,0,0,1,.61.16.44.44,0,0,1-.15.61,4.87,4.87,0,0,0-1.51,1.34.44.44,0,0,1-.37.19A.44.44,0,0,1,94.54,259.92Zm75.94-1.48a10.53,10.53,0,0,0-1.18-.79l-.64-.37a.45.45,0,1,1,.45-.77l.64.37a9.85,9.85,0,0,1,1.28.86.45.45,0,0,1,.08.63.46.46,0,0,1-.36.17A.41.41,0,0,1,170.48,258.44ZM98,257.2a.45.45,0,0,1,.16-.61l1.92-1.11a.44.44,0,0,1,.61.17.44.44,0,0,1-.16.61l-1.92,1.11a.44.44,0,0,1-.61-.17Zm68.77-1-1.92-1.11a.45.45,0,0,1-.16-.61.45.45,0,0,1,.61-.17l1.92,1.11a.45.45,0,0,1,.17.61.46.46,0,0,1-.39.23A.49.49,0,0,1,166.74,256.18ZM101.81,255a.45.45,0,0,1,.16-.61l1.92-1.11a.46.46,0,0,1,.62.17.45.45,0,0,1-.17.61l-1.92,1.11a.46.46,0,0,1-.22.06A.43.43,0,0,1,101.81,255Zm61.09-1L161,252.85a.45.45,0,0,1-.16-.61.45.45,0,0,1,.61-.17l1.92,1.11a.45.45,0,0,1,.17.61.46.46,0,0,1-.39.23A.46.46,0,0,1,162.9,254Zm-57.25-1.19a.45.45,0,0,1,.16-.61l1.92-1.11a.45.45,0,0,1,.62.16.45.45,0,0,1-.17.61l-1.92,1.11a.46.46,0,0,1-.22.06A.44.44,0,0,1,105.65,252.77Zm53.41-1-1.92-1.11A.45.45,0,0,1,157,250a.45.45,0,0,1,.61-.16l1.92,1.11a.44.44,0,0,1,.17.61.47.47,0,0,1-.39.22A.46.46,0,0,1,159.06,251.74Zm-49.57-1.19a.45.45,0,0,1,.17-.61l1.92-1.11a.45.45,0,0,1,.61.16.44.44,0,0,1-.17.61l-1.92,1.11a.43.43,0,0,1-.22.06A.46.46,0,0,1,109.49,250.55Zm45.73-1-1.92-1.11a.45.45,0,0,1,.45-.77l1.92,1.11a.43.43,0,0,1,.16.61.44.44,0,0,1-.38.22A.46.46,0,0,1,155.22,249.52Zm-41.89-1.19a.45.45,0,0,1,.17-.61l1.92-1.11a.45.45,0,1,1,.44.78l-1.92,1.11a.43.43,0,0,1-.22.06A.45.45,0,0,1,113.33,248.33Zm38.05-1-1.92-1.11a.45.45,0,0,1,.45-.78l1.92,1.11a.43.43,0,0,1,.16.61.43.43,0,0,1-.38.23A.46.46,0,0,1,151.38,247.31Zm-34.21-1.19a.46.46,0,0,1,.17-.62l1.92-1.11a.45.45,0,0,1,.44.78l-1.92,1.11a.43.43,0,0,1-.22.06A.47.47,0,0,1,117.17,246.12Zm30.37-1L145.62,244a.45.45,0,0,1,.45-.78l1.92,1.11a.45.45,0,0,1,.16.61.43.43,0,0,1-.38.23A.46.46,0,0,1,147.54,245.09ZM121,243.9a.44.44,0,0,1,.17-.61l1.92-1.11a.44.44,0,1,1,.44.77l-1.92,1.11a.43.43,0,0,1-.22.06A.46.46,0,0,1,121,243.9Zm22.69-1-1.92-1.11a.45.45,0,1,1,.45-.77l1.92,1.11a.45.45,0,0,1-.22.83A.46.46,0,0,1,143.7,242.87Zm-18.85-1.19a.45.45,0,0,1,.17-.61l1.87-1.08,0,0a.44.44,0,0,1,.6.17.47.47,0,0,1-.17.62l-1.91,1.09a.43.43,0,0,1-.22.06A.47.47,0,0,1,124.85,241.68Zm15-.94a15.16,15.16,0,0,0-2-.72.46.46,0,0,1-.31-.55.45.45,0,0,1,.55-.31,14,14,0,0,1,2.15.76.45.45,0,0,1-.18.86A.39.39,0,0,1,139.87,240.74Zm-11.1-1.12a.45.45,0,0,1,.31-.56,15,15,0,0,1,2.24-.45.46.46,0,0,1,.5.39.45.45,0,0,1-.39.5,13.23,13.23,0,0,0-2.1.42.3.3,0,0,1-.13,0A.46.46,0,0,1,128.77,239.62Zm7-.05a17.3,17.3,0,0,0-2.15-.17.45.45,0,0,1-.44-.46.44.44,0,0,1,.46-.44,19.13,19.13,0,0,1,2.26.19.45.45,0,0,1-.06.89Z"/><path class="cls-55" d="M190.3,317.39a17.5,17.5,0,0,1-2.27-.18.45.45,0,0,1-.37-.51.44.44,0,0,1,.5-.38,15.73,15.73,0,0,0,2.16.18.45.45,0,1,1,0,.89Zm1.78-.5a.44.44,0,0,1,.39-.49,13.46,13.46,0,0,0,2.1-.42.45.45,0,0,1,.25.86,14,14,0,0,1-2.25.45h0A.44.44,0,0,1,192.08,316.89Zm-6.27-.15a15.6,15.6,0,0,1-2.15-.78.45.45,0,0,1-.22-.59.44.44,0,0,1,.59-.22,15,15,0,0,0,2,.72.45.45,0,0,1,.31.55.44.44,0,0,1-.43.33Zm10.56-1a.46.46,0,0,1,.18-.62l1.92-1.11a.45.45,0,0,1,.45.78L197,315.93l-.25-.37.22.39a.42.42,0,0,1-.21.06A.44.44,0,0,1,196.37,315.77Zm-14.7-.87-1.92-1.11a.43.43,0,0,1-.16-.61.44.44,0,0,1,.61-.17l1.92,1.11a.45.45,0,0,1,.16.61.43.43,0,0,1-.39.23A.46.46,0,0,1,181.67,314.9Zm18.56-1.35a.45.45,0,0,1,.16-.62l1.92-1.1a.45.45,0,1,1,.45.77l-1.92,1.11a.46.46,0,0,1-.23.06A.44.44,0,0,1,200.23,313.55Zm-22.4-.87-1.92-1.11a.43.43,0,0,1-.16-.61.44.44,0,0,1,.61-.16l1.92,1.11a.45.45,0,0,1,.16.61.44.44,0,0,1-.39.22A.46.46,0,0,1,177.83,312.68Zm26.24-1.35a.44.44,0,0,1,.16-.61l1.92-1.11a.45.45,0,1,1,.45.77l-1.92,1.11a.46.46,0,0,1-.22.06A.44.44,0,0,1,204.07,311.33ZM174,310.46l-1.92-1.11a.44.44,0,0,1-.17-.61.45.45,0,0,1,.62-.16l1.92,1.11a.45.45,0,0,1,.16.61.44.44,0,0,1-.39.22A.46.46,0,0,1,174,310.46Zm33.92-1.35a.44.44,0,0,1,.16-.61l1.92-1.11a.45.45,0,0,1,.61.16.45.45,0,0,1-.16.62l-1.92,1.1a.38.38,0,0,1-.22.07A.45.45,0,0,1,207.91,309.11Zm-37.76-.86-1.92-1.11a.45.45,0,0,1-.17-.61.46.46,0,0,1,.62-.17l1.92,1.11a.45.45,0,0,1,.16.61.43.43,0,0,1-.39.23A.46.46,0,0,1,170.15,308.25Zm41.6-1.36a.45.45,0,0,1,.16-.61l1.92-1.11a.44.44,0,0,1,.61.17.43.43,0,0,1-.16.61l-1.92,1.11a.46.46,0,0,1-.22.06A.43.43,0,0,1,211.75,306.89ZM166.31,306l-1.92-1.11a.45.45,0,0,1,.44-.78l1.92,1.11a.45.45,0,0,1,.17.61.43.43,0,0,1-.39.23A.43.43,0,0,1,166.31,306Zm49.28-1.35a.45.45,0,0,1,.16-.61l1.92-1.11a.44.44,0,0,1,.61.16.43.43,0,0,1-.16.61l-1.92,1.11a.46.46,0,0,1-.22.06A.44.44,0,0,1,215.59,304.68Zm-53.12-.87-1.92-1.11a.44.44,0,1,1,.44-.77l1.92,1.11a.44.44,0,0,1,.17.61.46.46,0,0,1-.39.22A.43.43,0,0,1,162.47,303.81Zm57-1.35a.45.45,0,0,1,.16-.61l1.92-1.11a.46.46,0,0,1,.62.16.44.44,0,0,1-.17.61L220,302.62a.46.46,0,0,1-.22.06A.44.44,0,0,1,219.43,302.46Zm-60.8-.87-1.92-1.11a.44.44,0,1,1,.44-.77l1.92,1.11a.45.45,0,0,1,.17.61.47.47,0,0,1-.39.22A.35.35,0,0,1,158.63,301.59Zm64.64-1.35a.45.45,0,0,1,.16-.61l1.92-1.11a.46.46,0,0,1,.62.17.45.45,0,0,1-.17.61l-1.92,1.11a.46.46,0,0,1-.22.06A.43.43,0,0,1,223.27,300.24Zm-68.48-.86-.62-.36a10.55,10.55,0,0,1-1.3-.88.44.44,0,0,1-.07-.63.44.44,0,0,1,.62-.07,11.39,11.39,0,0,0,1.2.81l.61.35a.45.45,0,0,1-.22.84A.43.43,0,0,1,154.79,299.38ZM227.12,298a.44.44,0,0,1,.14-.61,5,5,0,0,0,1.51-1.35.45.45,0,0,1,.73.51,5.88,5.88,0,0,1-1.77,1.6.39.39,0,0,1-.23.07A.44.44,0,0,1,227.12,298Zm-75.86-1.6a4.42,4.42,0,0,1-.77-2.31.45.45,0,0,1,.44-.46.5.5,0,0,1,.46.44,3.46,3.46,0,0,0,.62,1.84.44.44,0,0,1-.13.62.42.42,0,0,1-.24.07A.46.46,0,0,1,151.26,296.43Zm78.07-2.17a3.57,3.57,0,0,0-.63-1.84.45.45,0,0,1,.75-.49,4.49,4.49,0,0,1,.78,2.3.46.46,0,0,1-.44.47h0A.46.46,0,0,1,229.33,294.26Zm-78-1.86a.45.45,0,0,1-.1-.63,6,6,0,0,1,1.77-1.59.46.46,0,0,1,.62.16.45.45,0,0,1-.16.61,4.94,4.94,0,0,0-1.5,1.34.44.44,0,0,1-.37.19A.5.5,0,0,1,151.34,292.4Zm75.94-1.48a11,11,0,0,0-1.18-.79l-.63-.36a.45.45,0,0,1-.16-.62.45.45,0,0,1,.61-.16l.63.37a9.33,9.33,0,0,1,1.29.86.45.45,0,0,1-.28.8A.42.42,0,0,1,227.28,290.92Zm-72.5-1.24a.43.43,0,0,1,.16-.61l1.92-1.11a.45.45,0,0,1,.61.16.46.46,0,0,1-.16.62l-1.92,1.11a.46.46,0,0,1-.23.06A.43.43,0,0,1,154.78,289.68Zm68.77-1-1.92-1.11a.44.44,0,0,1-.16-.61.44.44,0,0,1,.61-.17l1.92,1.11a.44.44,0,0,1,.16.61.43.43,0,0,1-.39.23A.46.46,0,0,1,223.55,288.66Zm-64.93-1.2a.45.45,0,0,1,.16-.61l1.92-1.11a.45.45,0,0,1,.45.78l-1.92,1.11a.46.46,0,0,1-.23.06A.43.43,0,0,1,158.62,287.46Zm61.09-1-1.92-1.11a.43.43,0,0,1-.16-.61.44.44,0,0,1,.61-.16l1.92,1.1a.46.46,0,0,1,.16.62.44.44,0,0,1-.39.22A.46.46,0,0,1,219.71,286.44Zm-57.25-1.19a.44.44,0,0,1,.16-.61l1.92-1.11a.45.45,0,0,1,.45.77l-1.92,1.11a.46.46,0,0,1-.23.06A.44.44,0,0,1,162.46,285.25Zm53.41-1L214,283.11a.44.44,0,0,1-.17-.61.45.45,0,0,1,.62-.16l1.92,1.11a.45.45,0,0,1,.16.61.44.44,0,0,1-.39.22A.46.46,0,0,1,215.87,284.22ZM166.3,283a.44.44,0,0,1,.16-.61l1.92-1.11a.45.45,0,0,1,.61.16.44.44,0,0,1-.16.61l-1.92,1.11a.46.46,0,0,1-.23.06A.44.44,0,0,1,166.3,283ZM212,282l-1.92-1.1a.46.46,0,0,1-.17-.62.46.46,0,0,1,.62-.16l1.92,1.11a.45.45,0,0,1-.23.84A.38.38,0,0,1,212,282Zm-41.89-1.19a.44.44,0,0,1,.16-.61l1.92-1.11a.45.45,0,0,1,.45.78L170.75,281a.46.46,0,0,1-.23.06A.43.43,0,0,1,170.14,280.81Zm38.05-1-1.92-1.11a.45.45,0,0,1,.44-.78l1.93,1.11a.45.45,0,0,1,.16.61.43.43,0,0,1-.39.23A.43.43,0,0,1,208.19,279.79ZM174,278.59a.45.45,0,0,1,.16-.61l1.92-1.11a.45.45,0,0,1,.45.78l-1.92,1.11a.46.46,0,0,1-.23.06A.43.43,0,0,1,174,278.59Zm30.37-1-1.92-1.11a.45.45,0,0,1-.17-.61.44.44,0,0,1,.61-.16l1.92,1.11a.44.44,0,0,1,.17.61.46.46,0,0,1-.39.22A.43.43,0,0,1,204.35,277.57Zm-26.53-1.19a.44.44,0,0,1,.16-.61l1.92-1.11a.45.45,0,0,1,.45.77l-1.92,1.11a.46.46,0,0,1-.22.06A.44.44,0,0,1,177.82,276.38Zm22.69-1-1.92-1.11a.44.44,0,1,1,.44-.77l1.92,1.11a.44.44,0,0,1-.22.83A.43.43,0,0,1,200.51,275.35Zm-18.85-1.19a.44.44,0,0,1,.16-.61l1.92-1.11a.44.44,0,0,1,.6.17.46.46,0,0,1-.17.62l-1.9,1.09a.46.46,0,0,1-.22.06A.44.44,0,0,1,181.66,274.16Zm15-.94a15,15,0,0,0-2-.72.45.45,0,0,1-.31-.55.44.44,0,0,1,.55-.31,15.56,15.56,0,0,1,2.15.76.45.45,0,0,1-.18.86A.41.41,0,0,1,196.67,273.22Zm-11.09-1.12a.45.45,0,0,1,.3-.56,15.18,15.18,0,0,1,2.25-.45.45.45,0,0,1,.49.39.44.44,0,0,1-.39.5,13.46,13.46,0,0,0-2.1.42.25.25,0,0,1-.12,0A.43.43,0,0,1,185.58,272.1Zm7-.05a17.46,17.46,0,0,0-2.16-.17.46.46,0,0,1-.44-.46.45.45,0,0,1,.46-.44,19.48,19.48,0,0,1,2.27.19.45.45,0,0,1-.07.89Z"/><path class="cls-55" d="M359.53,284.93a17.23,17.23,0,0,1-2.27-.19.44.44,0,1,1,.13-.88,17.45,17.45,0,0,0,2.15.17.45.45,0,0,1,0,.9Zm1.77-.5a.46.46,0,0,1,.4-.5,12.09,12.09,0,0,0,2.09-.41.44.44,0,1,1,.26.85,13,13,0,0,1-2.25.45h-.05A.45.45,0,0,1,361.3,284.43Zm-6.26-.16a15.58,15.58,0,0,1-2.15-.77.45.45,0,0,1-.23-.59.46.46,0,0,1,.6-.23,13.77,13.77,0,0,0,2,.73.44.44,0,0,1,.31.55.46.46,0,0,1-.43.33Zm10.55-1a.46.46,0,0,1,.19-.62l1.92-1.11a.45.45,0,0,1,.61.16.44.44,0,0,1-.17.61l-1.95,1.13a.42.42,0,0,1-.21.06A.47.47,0,0,1,365.59,283.31Zm-14.69-.88L349,281.32a.44.44,0,1,1,.44-.77l1.92,1.11a.45.45,0,0,1,.17.61.47.47,0,0,1-.39.22A.43.43,0,0,1,350.9,282.43Zm18.55-1.35a.45.45,0,0,1,.17-.61l1.92-1.11a.45.45,0,0,1,.61.16.46.46,0,0,1-.16.62l-1.93,1.1a.35.35,0,0,1-.22.06A.47.47,0,0,1,369.45,281.08Zm-22.39-.86-1.93-1.11a.45.45,0,0,1-.16-.61.45.45,0,0,1,.61-.17l1.92,1.11a.45.45,0,0,1,.17.61.46.46,0,0,1-.39.23A.43.43,0,0,1,347.06,280.22Zm26.23-1.36a.45.45,0,0,1,.17-.61l1.92-1.11a.45.45,0,0,1,.45.78L373.91,279a.49.49,0,0,1-.23.06A.46.46,0,0,1,373.29,278.86ZM343.21,278l-1.92-1.11a.45.45,0,0,1,.45-.78l1.92,1.11a.46.46,0,0,1,.17.62.47.47,0,0,1-.39.22A.49.49,0,0,1,343.21,278Zm33.92-1.35a.46.46,0,0,1,.17-.62l1.92-1.1a.44.44,0,0,1,.61.16.45.45,0,0,1-.16.61l-1.92,1.11a.49.49,0,0,1-.23.06A.47.47,0,0,1,377.13,276.65Zm-37.76-.87-1.92-1.11a.45.45,0,0,1-.16-.61.44.44,0,0,1,.61-.16l1.92,1.11a.44.44,0,0,1,.17.61.47.47,0,0,1-.39.22A.49.49,0,0,1,339.37,275.78ZM381,274.43a.43.43,0,0,1,.16-.61l1.92-1.11a.45.45,0,0,1,.45.77l-1.92,1.11a.46.46,0,0,1-.23.06A.44.44,0,0,1,381,274.43Zm-45.45-.87-1.92-1.1a.46.46,0,0,1-.16-.62.45.45,0,0,1,.61-.16l1.92,1.11a.45.45,0,0,1,.17.61.47.47,0,0,1-.39.22A.38.38,0,0,1,335.53,273.56Zm49.29-1.35a.44.44,0,0,1,.16-.61l1.92-1.11a.45.45,0,0,1,.45.78l-1.92,1.11a.46.46,0,0,1-.23.06A.43.43,0,0,1,384.82,272.21Zm-53.13-.86-1.92-1.11a.45.45,0,0,1,.45-.78l1.92,1.11a.44.44,0,0,1,.16.61.43.43,0,0,1-.38.23A.46.46,0,0,1,331.69,271.35Zm57-1.36a.45.45,0,0,1,.16-.61l1.92-1.11a.45.45,0,0,1,.61.17.44.44,0,0,1-.16.61l-1.92,1.11a.46.46,0,0,1-.23.06A.43.43,0,0,1,388.66,270Zm-60.81-.86L325.93,268a.44.44,0,0,1-.16-.61.43.43,0,0,1,.61-.16l1.92,1.1a.45.45,0,0,1,.16.62.44.44,0,0,1-.38.22A.46.46,0,0,1,327.85,269.13Zm64.65-1.35a.44.44,0,0,1,.16-.61l1.92-1.11a.45.45,0,0,1,.45.77l-1.92,1.11a.46.46,0,0,1-.23.06A.44.44,0,0,1,392.5,267.78ZM324,266.91l-.61-.35a11.06,11.06,0,0,1-1.31-.88.46.46,0,0,1-.07-.63.45.45,0,0,1,.63-.07,10,10,0,0,0,1.2.8l.61.36a.45.45,0,0,1-.22.83A.46.46,0,0,1,324,266.91Zm72.33-1.34a.45.45,0,0,1,.15-.62,4.84,4.84,0,0,0,1.5-1.35.45.45,0,0,1,.74.52,5.88,5.88,0,0,1-1.77,1.6.53.53,0,0,1-.24.06A.44.44,0,0,1,396.34,265.57ZM320.49,264a4.42,4.42,0,0,1-.77-2.3.44.44,0,0,1,.44-.46.43.43,0,0,1,.45.43,3.57,3.57,0,0,0,.63,1.84.46.46,0,0,1-.13.62.46.46,0,0,1-.25.08A.45.45,0,0,1,320.49,264Zm78.07-2.16a3.57,3.57,0,0,0-.63-1.84.45.45,0,0,1,.75-.49,4.49,4.49,0,0,1,.78,2.3.45.45,0,0,1-.44.46h0A.45.45,0,0,1,398.56,261.8Zm-78-1.86a.46.46,0,0,1-.11-.63,5.9,5.9,0,0,1,1.78-1.59.45.45,0,0,1,.46.77,5,5,0,0,0-1.51,1.34.44.44,0,0,1-.36.19A.5.5,0,0,1,320.57,259.94Zm75.94-1.48a9.69,9.69,0,0,0-1.18-.79l-.63-.37a.45.45,0,0,1-.17-.61.44.44,0,0,1,.61-.16l.64.36a9.55,9.55,0,0,1,1.28.87.45.45,0,0,1,.08.63.46.46,0,0,1-.35.17A.48.48,0,0,1,396.51,258.46ZM324,257.22a.44.44,0,0,1,.17-.61l1.92-1.11a.44.44,0,1,1,.44.77l-1.92,1.11a.43.43,0,0,1-.22.06A.46.46,0,0,1,324,257.22Zm68.78-1-1.92-1.11a.44.44,0,1,1,.44-.77l1.92,1.11a.44.44,0,0,1,.17.61.47.47,0,0,1-.39.22A.43.43,0,0,1,392.78,256.19ZM327.84,255a.45.45,0,0,1,.17-.61l1.92-1.11a.45.45,0,0,1,.61.16.44.44,0,0,1-.17.61l-1.92,1.11a.35.35,0,0,1-.22.06A.47.47,0,0,1,327.84,255Zm61.1-1L387,252.87a.45.45,0,0,1-.17-.61.44.44,0,0,1,.61-.17l1.92,1.11a.45.45,0,0,1-.22.84A.43.43,0,0,1,388.94,254Zm-57.26-1.2a.45.45,0,0,1,.17-.61l1.92-1.11a.45.45,0,0,1,.44.78L332.29,253a.43.43,0,0,1-.22.06A.45.45,0,0,1,331.68,252.78Zm53.41-1-1.92-1.11A.45.45,0,0,1,383,250a.45.45,0,0,1,.61-.17l1.92,1.11a.45.45,0,0,1,.17.61.46.46,0,0,1-.39.23A.49.49,0,0,1,385.09,251.76Zm-49.57-1.19a.46.46,0,0,1,.17-.62l1.92-1.1a.43.43,0,0,1,.61.16.45.45,0,0,1-.16.61l-1.93,1.11a.43.43,0,0,1-.22.06A.46.46,0,0,1,335.52,250.57Zm45.73-1-1.92-1.11a.45.45,0,0,1-.16-.61.44.44,0,0,1,.61-.16l1.92,1.11a.44.44,0,0,1,.17.61.47.47,0,0,1-.39.22A.49.49,0,0,1,381.25,249.54Zm-41.89-1.19a.44.44,0,0,1,.17-.61l1.92-1.11a.45.45,0,0,1,.45.77L340,248.51a.49.49,0,0,1-.23.06A.47.47,0,0,1,339.36,248.35Zm38.05-1-1.92-1.11a.45.45,0,1,1,.45-.77l1.92,1.11a.45.45,0,0,1,.17.61.47.47,0,0,1-.39.22A.46.46,0,0,1,377.41,247.32Zm-34.21-1.19a.45.45,0,0,1,.17-.61l1.92-1.11a.45.45,0,0,1,.61.16.46.46,0,0,1-.16.62l-1.92,1.1a.4.4,0,0,1-.23.06A.47.47,0,0,1,343.2,246.13Zm30.37-1L371.65,244a.45.45,0,0,1-.16-.61.45.45,0,0,1,.61-.17l1.92,1.11a.45.45,0,0,1,.17.61.46.46,0,0,1-.39.23A.46.46,0,0,1,373.57,245.11ZM347,243.91a.45.45,0,0,1,.17-.61l1.92-1.11a.45.45,0,0,1,.61.17.45.45,0,0,1-.16.61l-1.92,1.11a.46.46,0,0,1-.23.06A.46.46,0,0,1,347,243.91Zm22.69-1-1.92-1.11a.45.45,0,0,1-.16-.61.45.45,0,0,1,.61-.17l1.92,1.11a.45.45,0,0,1,.16.62.44.44,0,0,1-.38.22A.46.46,0,0,1,369.73,242.89Zm-18.84-1.19a.43.43,0,0,1,.16-.61L353,240l.22.38L353,240a.42.42,0,0,1,.6.17.45.45,0,0,1-.17.61l-1.9,1.1a.46.46,0,0,1-.23.06A.44.44,0,0,1,350.89,241.7Zm15-.94a15,15,0,0,0-2-.73.45.45,0,1,1,.24-.86,15.44,15.44,0,0,1,2.14.77.45.45,0,0,1-.18.86A.58.58,0,0,1,365.9,240.76Zm-11.1-1.12a.45.45,0,0,1,.31-.56,13.87,13.87,0,0,1,2.24-.45.45.45,0,0,1,.11.89,13.23,13.23,0,0,0-2.1.42l-.13,0A.46.46,0,0,1,354.8,239.64Zm7,0a17.3,17.3,0,0,0-2.15-.17.45.45,0,0,1-.44-.46.44.44,0,0,1,.46-.44,19.11,19.11,0,0,1,2.26.18.45.45,0,0,1-.06.9Z"/><path class="cls-55" d="M304,317.63a19.3,19.3,0,0,1-2.27-.19.46.46,0,0,1-.38-.51.47.47,0,0,1,.51-.38,15.72,15.72,0,0,0,2.15.18.45.45,0,0,1,0,.9Zm1.77-.5a.46.46,0,0,1,.4-.5,13.46,13.46,0,0,0,2.1-.42.44.44,0,0,1,.55.31.45.45,0,0,1-.3.55,13,13,0,0,1-2.25.45h-.05A.46.46,0,0,1,305.76,317.13ZM299.5,317a15.58,15.58,0,0,1-2.15-.77.45.45,0,0,1-.22-.6.44.44,0,0,1,.59-.22,13.75,13.75,0,0,0,2,.72.45.45,0,0,1,.31.56.44.44,0,0,1-.43.32Zm10.55-1a.47.47,0,0,1,.19-.62l1.92-1.11a.45.45,0,0,1,.61.17.45.45,0,0,1-.16.61l-2,1.13a.42.42,0,0,1-.21.06A.47.47,0,0,1,310.05,316Zm-14.69-.87L293.44,314a.45.45,0,0,1-.17-.61.44.44,0,0,1,.61-.16l1.92,1.1a.46.46,0,0,1,.17.62.47.47,0,0,1-.39.22A.43.43,0,0,1,295.36,315.13Zm18.55-1.35a.44.44,0,0,1,.17-.61l1.92-1.11a.44.44,0,0,1,.61.16.45.45,0,0,1-.16.61l-1.92,1.11a.49.49,0,0,1-.23.06A.47.47,0,0,1,313.91,313.78Zm-22.39-.87-1.92-1.11A.44.44,0,1,1,290,311l1.92,1.11a.44.44,0,0,1,.17.61.46.46,0,0,1-.39.22A.43.43,0,0,1,291.52,312.91Zm26.23-1.35a.45.45,0,0,1,.17-.61l1.92-1.11a.45.45,0,0,1,.45.77l-1.92,1.11a.38.38,0,0,1-.23.06A.47.47,0,0,1,317.75,311.56Zm-30.07-.86-1.92-1.11a.45.45,0,1,1,.44-.78l1.92,1.11a.45.45,0,0,1,.17.61.46.46,0,0,1-.39.23A.43.43,0,0,1,287.68,310.7Zm33.92-1.36a.43.43,0,0,1,.16-.61l1.92-1.11a.45.45,0,0,1,.45.78l-1.92,1.11a.46.46,0,0,1-.23.06A.43.43,0,0,1,321.6,309.34Zm-37.76-.86-1.92-1.11a.45.45,0,0,1,.44-.78l1.92,1.11a.45.45,0,0,1,.17.61.46.46,0,0,1-.39.23A.43.43,0,0,1,283.84,308.48Zm41.6-1.35a.45.45,0,0,1,.16-.62l1.92-1.1a.45.45,0,0,1,.45.77l-1.92,1.11a.46.46,0,0,1-.23.06A.44.44,0,0,1,325.44,307.13ZM280,306.26l-1.92-1.11a.45.45,0,0,1-.16-.61.44.44,0,0,1,.61-.16l1.92,1.11a.44.44,0,0,1,.17.61.47.47,0,0,1-.39.22A.49.49,0,0,1,280,306.26Zm49.29-1.35a.44.44,0,0,1,.16-.61l1.92-1.11a.45.45,0,0,1,.61.16.44.44,0,0,1-.16.61l-1.92,1.11a.46.46,0,0,1-.23.06A.44.44,0,0,1,329.28,304.91ZM276.15,304l-1.92-1.11a.45.45,0,0,1-.16-.61.44.44,0,0,1,.61-.16l1.92,1.11a.45.45,0,0,1,.17.61.47.47,0,0,1-.39.22A.46.46,0,0,1,276.15,304Zm57-1.35a.44.44,0,0,1,.16-.61L335.2,301a.45.45,0,0,1,.45.78l-1.92,1.1a.38.38,0,0,1-.23.06A.44.44,0,0,1,333.12,302.69Zm-60.81-.86-1.92-1.11a.45.45,0,0,1-.16-.61.45.45,0,0,1,.61-.17l1.92,1.11a.43.43,0,0,1,.16.61.43.43,0,0,1-.38.23A.46.46,0,0,1,272.31,301.83ZM337,300.47a.45.45,0,0,1,.16-.61l1.92-1.11a.45.45,0,0,1,.45.78l-1.92,1.11a.46.46,0,0,1-.23.06A.43.43,0,0,1,337,300.47Zm-68.49-.86-.61-.36a10.64,10.64,0,0,1-1.31-.87.46.46,0,0,1-.07-.63.45.45,0,0,1,.63-.08,9,9,0,0,0,1.2.81l.61.35a.45.45,0,0,1,.16.62.44.44,0,0,1-.38.22A.46.46,0,0,1,268.47,299.61Zm72.33-1.35a.44.44,0,0,1,.15-.61,5,5,0,0,0,1.5-1.35.45.45,0,0,1,.74.52,5.86,5.86,0,0,1-1.77,1.59.44.44,0,0,1-.24.07A.45.45,0,0,1,340.8,298.26ZM265,296.66a4.42,4.42,0,0,1-.77-2.31.45.45,0,0,1,.44-.46.46.46,0,0,1,.46.44,3.46,3.46,0,0,0,.62,1.84.46.46,0,0,1-.13.62.45.45,0,0,1-.25.07A.44.44,0,0,1,265,296.66ZM343,294.49a3.57,3.57,0,0,0-.63-1.84.44.44,0,0,1,.13-.62.45.45,0,0,1,.62.13,4.53,4.53,0,0,1,.78,2.31.46.46,0,0,1-.44.46h0A.45.45,0,0,1,343,294.49Zm-78-1.86a.45.45,0,0,1-.11-.62,5.77,5.77,0,0,1,1.78-1.59.44.44,0,1,1,.46.76,5.14,5.14,0,0,0-1.51,1.35.43.43,0,0,1-.36.18A.42.42,0,0,1,265,292.63ZM341,291.16a9.72,9.72,0,0,0-1.18-.8l-.63-.36a.45.45,0,0,1-.17-.61.46.46,0,0,1,.62-.17l.63.37a10.56,10.56,0,0,1,1.28.86.45.45,0,0,1,.08.63.46.46,0,0,1-.35.17A.47.47,0,0,1,341,291.16Zm-72.51-1.25a.45.45,0,0,1,.17-.61l1.92-1.11a.45.45,0,1,1,.44.78l-1.92,1.11a.43.43,0,0,1-.22.06A.45.45,0,0,1,268.46,289.91Zm68.78-1-1.92-1.11a.45.45,0,0,1-.17-.61.46.46,0,0,1,.62-.17l1.92,1.11a.46.46,0,0,1,.16.62.44.44,0,0,1-.39.22A.46.46,0,0,1,337.24,288.89ZM272.3,287.7a.44.44,0,0,1,.17-.61l1.92-1.11a.44.44,0,1,1,.44.77l-1.92,1.11a.43.43,0,0,1-.22.06A.47.47,0,0,1,272.3,287.7Zm61.1-1-1.92-1.11a.44.44,0,1,1,.44-.77l1.92,1.11a.44.44,0,0,1-.22.83A.43.43,0,0,1,333.4,286.67Zm-57.26-1.19a.44.44,0,0,1,.17-.61l1.92-1.11a.45.45,0,0,1,.61.16.44.44,0,0,1-.17.61l-1.92,1.11a.43.43,0,0,1-.22.06A.47.47,0,0,1,276.14,285.48Zm53.42-1-1.92-1.1a.46.46,0,0,1-.17-.62.44.44,0,0,1,.61-.16l1.92,1.11a.45.45,0,0,1,.17.61.47.47,0,0,1-.39.22A.35.35,0,0,1,329.56,284.45ZM280,283.26a.45.45,0,0,1,.17-.61l1.92-1.11a.44.44,0,0,1,.61.17.45.45,0,0,1-.16.61l-1.92,1.11a.49.49,0,0,1-.23.06A.46.46,0,0,1,280,283.26Zm45.74-1-1.92-1.11a.45.45,0,0,1,.44-.78l1.92,1.11a.45.45,0,0,1,.17.61.46.46,0,0,1-.39.23A.43.43,0,0,1,325.72,282.24Zm-41.9-1.19a.46.46,0,0,1,.17-.62l1.92-1.11a.45.45,0,0,1,.61.17.45.45,0,0,1-.16.61l-1.92,1.11a.46.46,0,0,1-.23.06A.47.47,0,0,1,283.82,281.05Zm38.05-1L320,278.91a.45.45,0,0,1-.16-.61.43.43,0,0,1,.61-.16l1.92,1.1a.46.46,0,0,1,.17.62.47.47,0,0,1-.39.22A.49.49,0,0,1,321.87,280Zm-34.2-1.19a.43.43,0,0,1,.16-.61l1.92-1.11a.44.44,0,0,1,.61.16.45.45,0,0,1-.16.61L288.28,279a.46.46,0,0,1-.23.06A.44.44,0,0,1,287.67,278.83Zm30.36-1-1.92-1.11a.45.45,0,0,1-.16-.61.44.44,0,0,1,.61-.16l1.92,1.11a.44.44,0,0,1,.17.61.47.47,0,0,1-.39.22A.49.49,0,0,1,318,277.8Zm-26.52-1.19a.43.43,0,0,1,.16-.61l1.92-1.11a.45.45,0,0,1,.45.77l-1.92,1.11a.46.46,0,0,1-.23.06A.44.44,0,0,1,291.51,276.61Zm22.68-1-1.92-1.11a.46.46,0,0,1-.16-.62.44.44,0,0,1,.61-.16l1.92,1.11a.45.45,0,0,1,.17.61.46.46,0,0,1-.39.23A.49.49,0,0,1,314.19,275.59Zm-18.84-1.2a.44.44,0,0,1,.16-.61l1.92-1.11.22.39-.22-.39a.44.44,0,0,1,.6.17.46.46,0,0,1-.17.62l-1.9,1.1a.46.46,0,0,1-.23.06A.43.43,0,0,1,295.35,274.39Zm15-.94a15,15,0,0,0-2-.72.45.45,0,1,1,.24-.86,17.57,17.57,0,0,1,2.15.76.46.46,0,0,1,.22.6.44.44,0,0,1-.41.26A.39.39,0,0,1,310.36,273.45Zm-11.1-1.12a.45.45,0,0,1,.31-.55,12.87,12.87,0,0,1,2.24-.45.44.44,0,1,1,.11.88,12.19,12.19,0,0,0-2.1.43h-.13A.45.45,0,0,1,299.26,272.33Zm7,0a15.46,15.46,0,0,0-2.15-.18.45.45,0,0,1-.44-.45.43.43,0,0,1,.46-.44,17.21,17.21,0,0,1,2.26.18.45.45,0,0,1-.06.89Z"/><path class="cls-55" d="M95.35,167.85a17.36,17.36,0,0,1-2.27-.18.46.46,0,0,1-.38-.51.46.46,0,0,1,.51-.38,19.68,19.68,0,0,0,2.15.18.45.45,0,0,1,0,.89Zm1.77-.5a.45.45,0,0,1,.4-.49,13.46,13.46,0,0,0,2.1-.42.45.45,0,0,1,.55.3.45.45,0,0,1-.3.56,15.18,15.18,0,0,1-2.25.45h-.05A.46.46,0,0,1,97.12,167.35Zm-6.26-.16a15.58,15.58,0,0,1-2.15-.77.44.44,0,0,1-.22-.59.43.43,0,0,1,.59-.22,15,15,0,0,0,2,.72.45.45,0,0,1,.31.55.44.44,0,0,1-.43.33Zm10.55-1a.46.46,0,0,1,.19-.62l1.92-1.11a.45.45,0,0,1,.61.17.45.45,0,0,1-.16.61l-2,1.13a.41.41,0,0,1-.21.05A.46.46,0,0,1,101.41,166.23Zm-14.69-.87-1.92-1.11a.45.45,0,1,1,.44-.78l1.92,1.11a.45.45,0,0,1,.17.61.46.46,0,0,1-.39.23A.43.43,0,0,1,86.72,165.36ZM105.27,164a.45.45,0,0,1,.17-.61l1.92-1.11a.45.45,0,0,1,.61.17.45.45,0,0,1-.16.61l-1.92,1.11a.49.49,0,0,1-.23.06A.46.46,0,0,1,105.27,164Zm-22.39-.86L81,162a.45.45,0,0,1-.17-.61.44.44,0,0,1,.61-.16l1.92,1.1a.45.45,0,0,1-.22.84A.43.43,0,0,1,82.88,163.14Zm26.23-1.35a.44.44,0,0,1,.17-.61l1.92-1.11a.44.44,0,0,1,.61.16.45.45,0,0,1-.16.61L109.73,162a.46.46,0,0,1-.23.06A.47.47,0,0,1,109.11,161.79ZM79,160.92l-1.92-1.11a.44.44,0,1,1,.44-.77l1.92,1.11a.44.44,0,0,1,.17.61.47.47,0,0,1-.39.22A.43.43,0,0,1,79,160.92ZM113,159.57a.45.45,0,0,1,.17-.61l1.92-1.11a.45.45,0,0,1,.45.77l-1.92,1.11a.46.46,0,0,1-.23.06A.47.47,0,0,1,113,159.57ZM75.2,158.7l-1.93-1.1a.46.46,0,0,1-.16-.62.45.45,0,0,1,.61-.16l1.92,1.11a.45.45,0,0,1,.17.61.47.47,0,0,1-.39.22A.35.35,0,0,1,75.2,158.7Zm41.6-1.35a.44.44,0,0,1,.16-.61l1.92-1.11a.45.45,0,0,1,.45.78l-1.92,1.11a.46.46,0,0,1-.23.06A.43.43,0,0,1,116.8,157.35Zm-45.45-.86-1.92-1.11a.45.45,0,0,1,.45-.78l1.92,1.11a.45.45,0,0,1,.17.61.46.46,0,0,1-.39.23A.49.49,0,0,1,71.35,156.49Zm49.29-1.35a.45.45,0,0,1,.16-.62l1.92-1.1a.45.45,0,0,1,.45.77l-1.92,1.11a.46.46,0,0,1-.23.06A.44.44,0,0,1,120.64,155.14Zm-53.13-.87-1.92-1.11a.45.45,0,0,1-.16-.61.43.43,0,0,1,.61-.16L68,153.5a.44.44,0,0,1,.17.61.47.47,0,0,1-.39.22A.46.46,0,0,1,67.51,154.27Zm57-1.35a.44.44,0,0,1,.16-.61l1.92-1.11a.45.45,0,0,1,.45.77l-1.92,1.11a.46.46,0,0,1-.23.06A.44.44,0,0,1,124.48,152.92Zm-60.81-.87-1.92-1.11a.45.45,0,0,1-.16-.61.44.44,0,0,1,.61-.16l1.92,1.11a.43.43,0,0,1,.16.61.44.44,0,0,1-.38.22A.46.46,0,0,1,63.67,152.05Zm64.65-1.35a.44.44,0,0,1,.16-.61L130.4,149a.45.45,0,0,1,.45.78l-1.92,1.1a.38.38,0,0,1-.23.06A.44.44,0,0,1,128.32,150.7Zm-68.49-.86-.61-.36a10.68,10.68,0,0,1-1.31-.88.45.45,0,1,1,.56-.7,11.39,11.39,0,0,0,1.2.81l.61.35a.43.43,0,0,1,.16.61.43.43,0,0,1-.38.23A.46.46,0,0,1,59.83,149.84Zm72.33-1.35a.44.44,0,0,1,.15-.61,5,5,0,0,0,1.5-1.35.46.46,0,0,1,.63-.11.45.45,0,0,1,.11.62,5.88,5.88,0,0,1-1.77,1.6.55.55,0,0,1-.24.07A.45.45,0,0,1,132.16,148.49Zm-75.85-1.6a4.45,4.45,0,0,1-.77-2.31.45.45,0,1,1,.9,0,3.46,3.46,0,0,0,.62,1.84.46.46,0,0,1-.13.62.45.45,0,0,1-.25.07A.44.44,0,0,1,56.31,146.89Zm78.07-2.17a3.57,3.57,0,0,0-.63-1.84.45.45,0,0,1,.75-.49,4.49,4.49,0,0,1,.78,2.3.45.45,0,0,1-.44.46h0A.45.45,0,0,1,134.38,144.72Zm-78-1.86a.46.46,0,0,1-.11-.63,6,6,0,0,1,1.78-1.59.45.45,0,0,1,.46.77A5,5,0,0,0,57,142.75a.41.41,0,0,1-.36.19A.5.5,0,0,1,56.39,142.86Zm75.94-1.48a11,11,0,0,0-1.18-.79l-.63-.37a.44.44,0,0,1-.17-.61.45.45,0,0,1,.62-.16l.63.36a10.59,10.59,0,0,1,1.28.87.45.45,0,0,1,.08.63.46.46,0,0,1-.35.17A.42.42,0,0,1,132.33,141.38Zm-72.51-1.24a.45.45,0,0,1,.17-.61l1.92-1.11a.45.45,0,1,1,.44.78l-1.92,1.1a.35.35,0,0,1-.22.06A.46.46,0,0,1,59.82,140.14Zm68.78-1L126.68,138a.45.45,0,0,1,.44-.78l1.93,1.11a.45.45,0,0,1,.16.61.43.43,0,0,1-.39.23A.46.46,0,0,1,128.6,139.12Zm-64.94-1.2a.45.45,0,0,1,.17-.61l1.92-1.11a.45.45,0,1,1,.44.78l-1.92,1.11a.43.43,0,0,1-.22.06A.46.46,0,0,1,63.66,137.92Zm61.1-1-1.92-1.11a.45.45,0,0,1,.44-.78l1.92,1.11a.45.45,0,0,1,.17.61.43.43,0,0,1-.39.23A.43.43,0,0,1,124.76,136.9ZM67.5,135.71a.46.46,0,0,1,.17-.62l1.92-1.1a.44.44,0,1,1,.44.77l-1.92,1.11a.43.43,0,0,1-.22.06A.47.47,0,0,1,67.5,135.71Zm53.42-1L119,133.57a.44.44,0,1,1,.44-.77l1.92,1.11a.44.44,0,0,1,.17.61.47.47,0,0,1-.39.22A.43.43,0,0,1,120.92,134.68Zm-49.58-1.19a.44.44,0,0,1,.17-.61l1.92-1.11a.44.44,0,0,1,.61.16.45.45,0,0,1-.16.61L72,133.65a.43.43,0,0,1-.22.06A.47.47,0,0,1,71.34,133.49Zm45.74-1-1.92-1.11a.44.44,0,1,1,.44-.77l1.92,1.11a.45.45,0,0,1,.17.61.47.47,0,0,1-.39.22A.35.35,0,0,1,117.08,132.46Zm-41.9-1.19a.45.45,0,0,1,.17-.61l1.92-1.11a.45.45,0,0,1,.61.16.46.46,0,0,1-.16.62l-1.92,1.11a.46.46,0,0,1-.23.06A.46.46,0,0,1,75.18,131.27Zm38.05-1-1.92-1.11a.45.45,0,0,1-.16-.61.45.45,0,0,1,.61-.17l1.92,1.11a.45.45,0,0,1,.17.61.46.46,0,0,1-.39.23A.49.49,0,0,1,113.23,130.25ZM79,129.05a.44.44,0,0,1,.16-.61l1.92-1.11a.45.45,0,0,1,.61.17.45.45,0,0,1-.16.61l-1.92,1.11a.46.46,0,0,1-.23.06A.43.43,0,0,1,79,129.05Zm30.36-1-1.92-1.11a.45.45,0,0,1-.16-.61.43.43,0,0,1,.61-.16l1.92,1.1a.46.46,0,0,1,.17.62.47.47,0,0,1-.39.22A.49.49,0,0,1,109.39,128Zm-26.52-1.19a.45.45,0,0,1,.16-.62l1.92-1.1a.44.44,0,0,1,.61.16.45.45,0,0,1-.16.61L83.48,127a.46.46,0,0,1-.23.06A.44.44,0,0,1,82.87,126.84Zm22.68-1-1.92-1.11a.45.45,0,0,1-.16-.61.44.44,0,0,1,.61-.16L106,125a.44.44,0,0,1,.17.61.47.47,0,0,1-.39.22A.49.49,0,0,1,105.55,125.81Zm-18.84-1.19a.44.44,0,0,1,.16-.61l1.92-1.11.22.39-.22-.39a.43.43,0,0,1,.6.17.46.46,0,0,1-.17.62l-1.9,1.09a.46.46,0,0,1-.23.06A.44.44,0,0,1,86.71,124.62Zm15-.94a15,15,0,0,0-2-.72.45.45,0,0,1-.31-.55.44.44,0,0,1,.55-.31,14.76,14.76,0,0,1,2.15.76.45.45,0,0,1,.22.59.43.43,0,0,1-.41.27A.39.39,0,0,1,101.72,123.68Zm-11.1-1.12a.45.45,0,0,1,.31-.56,15,15,0,0,1,2.24-.45.46.46,0,0,1,.5.39.45.45,0,0,1-.39.5,13.23,13.23,0,0,0-2.1.42.27.27,0,0,1-.13,0A.46.46,0,0,1,90.62,122.56Zm7,0a17.15,17.15,0,0,0-2.15-.17.45.45,0,0,1-.44-.46.44.44,0,0,1,.46-.44,19.13,19.13,0,0,1,2.26.19.45.45,0,0,1-.06.89Z"/><path class="cls-55" d="M39.81,200.55a19.3,19.3,0,0,1-2.27-.19.44.44,0,1,1,.13-.88,17.45,17.45,0,0,0,2.15.17.45.45,0,0,1,0,.9Zm1.78-.5a.44.44,0,0,1,.39-.5,12.4,12.4,0,0,0,2.1-.41.44.44,0,0,1,.55.3.44.44,0,0,1-.3.55,13,13,0,0,1-2.25.45h0A.44.44,0,0,1,41.59,200.05Zm-6.27-.16a15.58,15.58,0,0,1-2.15-.77.45.45,0,0,1,.37-.82,15,15,0,0,0,2,.73.45.45,0,0,1-.12.88Zm10.56-1a.45.45,0,0,1,.18-.62L48,197.2a.44.44,0,0,1,.61.16.45.45,0,0,1-.16.61l-2,1.13a.42.42,0,0,1-.21.06A.45.45,0,0,1,45.88,198.93Zm-14.7-.88-1.92-1.11a.44.44,0,1,1,.44-.77l1.92,1.11a.44.44,0,0,1,.17.61.46.46,0,0,1-.39.22A.43.43,0,0,1,31.18,198.05Zm18.56-1.35a.43.43,0,0,1,.16-.61L51.82,195a.45.45,0,0,1,.61.16.46.46,0,0,1-.16.62l-1.92,1.1a.38.38,0,0,1-.23.06A.44.44,0,0,1,49.74,196.7Zm-22.4-.86-1.92-1.11a.45.45,0,0,1,.44-.78l1.92,1.11a.45.45,0,0,1-.22.84A.43.43,0,0,1,27.34,195.84Zm26.24-1.36a.44.44,0,0,1,.16-.61l1.92-1.11a.45.45,0,0,1,.61.17.45.45,0,0,1-.16.61l-1.92,1.11a.46.46,0,0,1-.23.06A.43.43,0,0,1,53.58,194.48Zm-30.08-.86-1.92-1.11a.45.45,0,0,1,.44-.78l1.92,1.11a.45.45,0,0,1,.17.61.46.46,0,0,1-.39.23A.43.43,0,0,1,23.5,193.62Zm33.92-1.35a.45.45,0,0,1,.16-.62l1.92-1.1a.43.43,0,0,1,.61.16.44.44,0,0,1-.16.61L58,192.43a.46.46,0,0,1-.23.06A.44.44,0,0,1,57.42,192.27Zm-37.76-.87-1.92-1.11a.44.44,0,1,1,.44-.77l1.92,1.11a.44.44,0,0,1,.17.61.46.46,0,0,1-.39.22A.43.43,0,0,1,19.66,191.4Zm41.6-1.35a.44.44,0,0,1,.16-.61l1.92-1.11a.45.45,0,0,1,.61.16.44.44,0,0,1-.16.61l-1.92,1.11a.46.46,0,0,1-.23.06A.44.44,0,0,1,61.26,190.05Zm-45.44-.87-1.92-1.11a.44.44,0,1,1,.44-.77l1.92,1.11a.45.45,0,0,1,.17.61.47.47,0,0,1-.39.22A.35.35,0,0,1,15.82,189.18Zm49.28-1.35a.44.44,0,0,1,.16-.61l1.92-1.11a.45.45,0,0,1,.45.78L65.71,188a.46.46,0,0,1-.23.06A.43.43,0,0,1,65.1,187.83ZM12,187l-1.92-1.11a.45.45,0,0,1-.16-.61.45.45,0,0,1,.61-.17l1.92,1.11a.45.45,0,0,1,.17.61.46.46,0,0,1-.39.23A.49.49,0,0,1,12,187Zm57-1.36a.45.45,0,0,1,.16-.61L71,183.89a.45.45,0,0,1,.61.17.44.44,0,0,1-.16.61l-1.92,1.11a.46.46,0,0,1-.22.06A.43.43,0,0,1,68.94,185.61Zm-60.81-.86-1.92-1.11a.45.45,0,0,1-.16-.61.43.43,0,0,1,.61-.16L8.58,184a.46.46,0,0,1,.17.62.47.47,0,0,1-.39.22A.46.46,0,0,1,8.13,184.75Zm64.65-1.35a.44.44,0,0,1,.16-.61l1.92-1.11a.45.45,0,1,1,.45.77l-1.92,1.11a.46.46,0,0,1-.22.06A.44.44,0,0,1,72.78,183.4Zm-68.49-.87-.61-.35a10.92,10.92,0,0,1-1.3-.88.45.45,0,1,1,.55-.7,10,10,0,0,0,1.2.8l.61.36a.44.44,0,0,1,.17.61.47.47,0,0,1-.39.22A.46.46,0,0,1,4.29,182.53Zm72.33-1.34a.45.45,0,0,1,.15-.62,5,5,0,0,0,1.51-1.35.44.44,0,0,1,.62-.1.45.45,0,0,1,.11.62,5.88,5.88,0,0,1-1.77,1.6.49.49,0,0,1-.23.06A.45.45,0,0,1,76.62,181.19ZM.77,179.58A4.42,4.42,0,0,1,0,177.27a.44.44,0,0,1,.44-.45.45.45,0,0,1,.46.43,3.46,3.46,0,0,0,.62,1.84.46.46,0,0,1-.13.62.46.46,0,0,1-.25.08A.45.45,0,0,1,.77,179.58Zm78.07-2.16a3.57,3.57,0,0,0-.63-1.84.45.45,0,0,1,.75-.49,4.49,4.49,0,0,1,.78,2.3.45.45,0,0,1-.44.46h0A.45.45,0,0,1,78.84,177.42Zm-78-1.86a.46.46,0,0,1-.11-.63,6,6,0,0,1,1.78-1.59.44.44,0,0,1,.61.15.45.45,0,0,1-.15.62,4.94,4.94,0,0,0-1.5,1.34.47.47,0,0,1-.37.19A.5.5,0,0,1,.85,175.56Zm75.94-1.48a8.66,8.66,0,0,0-1.18-.79l-.63-.37a.45.45,0,1,1,.45-.77l.63.36a9.55,9.55,0,0,1,1.28.87.45.45,0,0,1-.27.8A.48.48,0,0,1,76.79,174.08ZM4.28,172.84a.44.44,0,0,1,.17-.61l1.92-1.11a.44.44,0,1,1,.44.77L4.89,173a.43.43,0,0,1-.22.06A.47.47,0,0,1,4.28,172.84Zm68.78-1-1.92-1.11a.44.44,0,0,1-.17-.61.45.45,0,0,1,.62-.16L73.51,171a.45.45,0,0,1,.16.61.44.44,0,0,1-.39.22A.46.46,0,0,1,73.06,171.81ZM8.12,170.62a.45.45,0,0,1,.17-.61l1.92-1.11a.45.45,0,0,1,.61.16.45.45,0,0,1-.16.61l-1.92,1.11a.49.49,0,0,1-.23.06A.47.47,0,0,1,8.12,170.62Zm61.1-1-1.92-1.1a.45.45,0,0,1-.17-.61.44.44,0,0,1,.61-.17l1.93,1.11a.45.45,0,0,1-.23.84A.38.38,0,0,1,69.22,169.59ZM12,168.4a.45.45,0,0,1,.17-.61l1.92-1.11a.45.45,0,0,1,.61.17.45.45,0,0,1-.16.61l-1.92,1.11a.49.49,0,0,1-.23.06A.46.46,0,0,1,12,168.4Zm53.42-1-1.92-1.11a.45.45,0,1,1,.44-.78l1.92,1.11a.45.45,0,0,1,.17.61.43.43,0,0,1-.39.23A.43.43,0,0,1,65.38,167.38Zm-49.58-1.2a.45.45,0,0,1,.17-.61l1.92-1.1a.43.43,0,0,1,.61.16.45.45,0,0,1-.16.61l-1.92,1.11a.49.49,0,0,1-.23.06A.46.46,0,0,1,15.8,166.18Zm45.74-1-1.92-1.11a.45.45,0,0,1-.17-.61.44.44,0,0,1,.61-.16L62,164.39a.44.44,0,0,1,.17.61.47.47,0,0,1-.39.22A.43.43,0,0,1,61.54,165.16ZM19.65,164a.43.43,0,0,1,.16-.61l1.92-1.11a.44.44,0,0,1,.61.16.45.45,0,0,1-.16.61l-1.92,1.11a.46.46,0,0,1-.23.06A.44.44,0,0,1,19.65,164Zm38.05-1-1.92-1.11a.44.44,0,0,1-.17-.61.45.45,0,0,1,.61-.16l1.92,1.11a.45.45,0,0,1,.17.61.47.47,0,0,1-.39.22A.43.43,0,0,1,57.7,162.94Zm-34.21-1.19a.44.44,0,0,1,.16-.61L25.57,160a.45.45,0,0,1,.45.78l-1.92,1.1a.38.38,0,0,1-.23.06A.44.44,0,0,1,23.49,161.75Zm30.37-1-1.92-1.11a.45.45,0,0,1,.44-.78L54.3,160a.45.45,0,0,1,.17.61.46.46,0,0,1-.39.23A.43.43,0,0,1,53.86,160.73Zm-26.53-1.2a.44.44,0,0,1,.16-.61l1.92-1.11a.45.45,0,0,1,.45.78l-1.92,1.11a.46.46,0,0,1-.23.06A.43.43,0,0,1,27.33,159.53Zm22.68-1-1.92-1.11a.45.45,0,0,1,.45-.78l1.92,1.11a.45.45,0,0,1,.17.61.46.46,0,0,1-.39.23A.49.49,0,0,1,50,158.51Zm-18.84-1.19a.45.45,0,0,1,.16-.62l1.92-1.1.22.38-.22-.39a.44.44,0,0,1,.6.18.45.45,0,0,1-.17.61l-1.9,1.1a.46.46,0,0,1-.23.06A.44.44,0,0,1,31.17,157.32Zm15-.94a13.77,13.77,0,0,0-2-.73.45.45,0,0,1,.24-.86,16.07,16.07,0,0,1,2.15.77.45.45,0,0,1,.22.59.43.43,0,0,1-.41.27A.58.58,0,0,1,46.18,156.38Zm-11.09-1.12a.45.45,0,0,1,.3-.56,12.87,12.87,0,0,1,2.24-.45.44.44,0,0,1,.5.39.45.45,0,0,1-.39.5,13.23,13.23,0,0,0-2.1.42l-.12,0A.44.44,0,0,1,35.09,155.26Zm6.95,0a19.28,19.28,0,0,0-2.15-.18.45.45,0,0,1-.44-.45.43.43,0,0,1,.46-.44,19.11,19.11,0,0,1,2.26.18.45.45,0,0,1,.38.51.44.44,0,0,1-.44.38Z"/><path class="cls-55" d="M44.91,168.38l2.48,1.44-12.67,7.31a10.87,10.87,0,0,1-5.25,1.47,9.22,9.22,0,0,1-4.9-1.16c-1.52-.88-2.28-1.82-2.3-2.84s.85-2,2.57-3l.11,0L27.34,173q-1.68,1-1.86,1.83c-.12.58.2,1.08,1,1.52a4.25,4.25,0,0,0,2.61.42,7.84,7.84,0,0,0,3.19-1.07Z"/><path class="cls-55" d="M45.68,184.16c.84-.48,1.29-1,1.35-1.6A3.39,3.39,0,0,0,46,180.31,6.23,6.23,0,0,1,44,176.89c-.08-1,.55-1.89,1.91-2.67a9.13,9.13,0,0,1,5-1.12,11.12,11.12,0,0,1,5.24,1.48c1.65.95,2.46,2,2.44,3.2s-.79,2.19-2.29,3l-.09,0-2.4-1.38a3.09,3.09,0,0,0,1.73-1.92c.11-.69-.32-1.31-1.3-1.87a5.5,5.5,0,0,0-3-.77,5.71,5.71,0,0,0-2.82.76,1.77,1.77,0,0,0-1.1,1.57,4.37,4.37,0,0,0,1.27,2.35,5.14,5.14,0,0,1,1.65,3.34c0,1-.72,1.89-2.1,2.69a8.91,8.91,0,0,1-5,1.13A11.35,11.35,0,0,1,38,185.17,5.08,5.08,0,0,1,35.2,182q-.39-1.84,2.24-3.29l.1,0L39.93,180c-1.22.71-1.79,1.41-1.73,2.12s.61,1.36,1.64,2a6,6,0,0,0,3,.82A5.57,5.57,0,0,0,45.68,184.16Z"/><path class="cls-55" d="M88.62,142.72l0,.05A8.85,8.85,0,0,1,84.22,144a8.29,8.29,0,0,1-4.3-1.15c-1.38-.8-2-1.7-1.92-2.71s1-2,2.63-2.95l3.88-2.24a10.84,10.84,0,0,1,5.1-1.53,8.41,8.41,0,0,1,4.66,1.08c1.38.8,2.07,1.63,2.06,2.49s-.72,1.71-2.15,2.56H94.1l-1.86-1.07c1-.6,1.56-1.16,1.65-1.66s-.27-1-1.1-1.48a4.68,4.68,0,0,0-2.85-.52A8.94,8.94,0,0,0,86.5,136l-3.92,2.26c-1.22.71-1.93,1.38-2.12,2s.12,1.19,1,1.67a4.44,4.44,0,0,0,2.49.62,7,7,0,0,0,2.85-1Z"/><path class="cls-55" d="M98.48,144.72l3.3,1.91-1.67,1-3.31-1.91-4.36,2.52-1.92-1.11,4.37-2.52-3.31-1.91,1.67-1,3.31,1.91,4.15-2.4,1.92,1.11Z"/><path class="cls-55" d="M108.38,150.44l3.3,1.91-1.67,1-3.31-1.91-4.36,2.51-1.92-1.1,4.37-2.52-3.31-1.91,1.67-1,3.31,1.91,4.15-2.4,1.92,1.11Z"/><path class="cls-55" d="M186.53,295.15l0,.06a11.25,11.25,0,0,1-5.54,1.56,10.58,10.58,0,0,1-5.44-1.46c-1.76-1-2.57-2.16-2.45-3.44s1.24-2.53,3.33-3.74l4.93-2.84a13.85,13.85,0,0,1,6.47-1.94,10.7,10.7,0,0,1,5.91,1.37q2.63,1.51,2.61,3.15c0,1.09-.92,2.17-2.72,3.24l-.11,0-2.36-1.37q1.92-1.14,2.1-2.1c.12-.64-.34-1.26-1.4-1.87a5.8,5.8,0,0,0-3.61-.66,11.17,11.17,0,0,0-4.37,1.54l-5,2.87c-1.55.89-2.44,1.74-2.69,2.55s.16,1.52,1.2,2.12a5.48,5.48,0,0,0,3.16.79,8.73,8.73,0,0,0,3.62-1.23Z"/><path class="cls-55" d="M194.33,300.1,192,298.74l-5.78,2.43-1.71-1,5.79-2.44-2.42-1.39,1.59-.92L192.1,297l5.22-2.19-2.59-1.5,1.59-.91,2.83,1.63,5.88-2.46,1.7,1L200.86,295l2.35,1.36,5.89-2.46,1.69,1-5.87,2.47,2.2,1.27-1.59.92-2.45-1.42-5.22,2.2,2.39,1.37-1.59.92L196,301.08l-5.79,2.44-1.7-1ZM193.8,298l2.36,1.36,5.22-2.2L199,295.76Z"/><path class="cls-55" d="M119.13,253.93l-5.62,3.25-2-1.15,14.21-8.21,4.7,2.71c1.34.77,2,1.6,2,2.5s-.68,1.71-2,2.46a8.64,8.64,0,0,1-4.26,1.14,8.36,8.36,0,0,1-4.32-1.14Zm1.51-.87,2.7,1.57a4.21,4.21,0,0,0,2.5.53,6.19,6.19,0,0,0,2.57-.81,2.8,2.8,0,0,0,1.43-1.5c.15-.53-.15-1-.91-1.45l-2.71-1.56Z"/><path class="cls-55" d="M132.1,267.91l-2-1.14,6.28-3.63L130.91,260l-6.28,3.62-2-1.15,14.22-8.21,2,1.15-6.43,3.72,5.48,3.17,6.44-3.72,2,1.15Z"/><path class="cls-55" d="M142.5,267.43l-5.62,3.24-2-1.15,14.21-8.21,4.7,2.71c1.34.77,2,1.61,2,2.5s-.68,1.72-2,2.46a8.64,8.64,0,0,1-4.26,1.14,8.35,8.35,0,0,1-4.32-1.13Zm1.51-.87,2.7,1.56a4.19,4.19,0,0,0,2.5.53,6.11,6.11,0,0,0,2.56-.81,2.82,2.82,0,0,0,1.44-1.5c.15-.53-.15-1-.91-1.45l-2.71-1.56Z"/><path class="cls-55" d="M294.77,291.06l0,.05a9.26,9.26,0,0,1-4.61,1.29,8.69,8.69,0,0,1-4.52-1.21c-1.46-.84-2.14-1.79-2-2.86s1-2.1,2.76-3.1l4.1-2.37a11.45,11.45,0,0,1,5.38-1.61,8.93,8.93,0,0,1,4.91,1.14c1.45.84,2.18,1.71,2.17,2.62s-.77,1.8-2.27,2.69l-.09,0-2-1.13c1.06-.63,1.64-1.22,1.74-1.75s-.29-1-1.16-1.55a4.82,4.82,0,0,0-3-.55,9.29,9.29,0,0,0-3.63,1.28l-4.13,2.38c-1.28.75-2,1.45-2.23,2.13s.13,1.25,1,1.76a4.57,4.57,0,0,0,2.62.65,7,7,0,0,0,3-1Z"/><path class="cls-55" d="M303.07,296.73c.7-.4,1.07-.84,1.12-1.33a2.74,2.74,0,0,0-.89-1.87,5.17,5.17,0,0,1-1.59-2.84c-.07-.83.46-1.57,1.59-2.23a7.59,7.59,0,0,1,4.12-.92,9.17,9.17,0,0,1,4.35,1.22c1.38.8,2.05,1.68,2,2.67a3,3,0,0,1-1.9,2.5l-.08,0-2-1.14a2.55,2.55,0,0,0,1.43-1.6c.1-.57-.26-1.09-1.07-1.56a4.73,4.73,0,0,0-2.45-.64,4.88,4.88,0,0,0-2.35.63,1.48,1.48,0,0,0-.91,1.31,3.66,3.66,0,0,0,1,2,4.21,4.21,0,0,1,1.38,2.77c0,.83-.6,1.57-1.75,2.24a7.42,7.42,0,0,1-4.14.94,9.43,9.43,0,0,1-4.36-1.29,4.25,4.25,0,0,1-2.3-2.68c-.21-1,.41-1.93,1.87-2.73l.08,0,2,1.15c-1,.59-1.48,1.17-1.44,1.76s.51,1.13,1.37,1.63a5,5,0,0,0,2.47.68A4.65,4.65,0,0,0,303.07,296.73Z"/><path class="cls-55" d="M314.16,303.13c.69-.4,1.07-.84,1.12-1.33a2.83,2.83,0,0,0-.89-1.87,5.14,5.14,0,0,1-1.59-2.84q-.1-1.24,1.59-2.22a7.49,7.49,0,0,1,4.11-.93,9.18,9.18,0,0,1,4.36,1.23c1.37.79,2.05,1.68,2,2.66a3,3,0,0,1-1.9,2.5l-.08,0-2-1.14c.86-.5,1.34-1,1.43-1.6s-.26-1.09-1.07-1.56a4.88,4.88,0,0,0-4.8,0,1.46,1.46,0,0,0-.91,1.3,3.66,3.66,0,0,0,1.05,2,4.3,4.3,0,0,1,1.38,2.77c0,.83-.6,1.57-1.75,2.24a7.44,7.44,0,0,1-4.14.94,9.4,9.4,0,0,1-4.36-1.29,4.19,4.19,0,0,1-2.3-2.68q-.31-1.53,1.86-2.73l.08,0,2,1.14c-1,.59-1.49,1.17-1.44,1.76s.51,1.13,1.37,1.63a4.86,4.86,0,0,0,2.46.68A4.56,4.56,0,0,0,314.16,303.13Z"/><path class="cls-55" d="M345.74,252.63,341,255.37l-1.54-.89,11-6.37,3.45,2c1,.61,1.6,1.23,1.63,1.87s-.45,1.26-1.46,1.84a5,5,0,0,1-1.91.64,6.33,6.33,0,0,1-2.16-.08,1.06,1.06,0,0,1,.25,1.24,3.12,3.12,0,0,1-1.29,1.17l-1,.56a4.13,4.13,0,0,0-.84.6.87.87,0,0,0-.33.6l-.18.1-1.59-.92a.88.88,0,0,1,.42-.63,8.25,8.25,0,0,1,1-.65l.93-.54c.62-.36,1-.72,1-1.09s-.13-.7-.62-1Zm1.17-.68,1.83,1.06a3.4,3.4,0,0,0,1.89.5,4,4,0,0,0,1.87-.56c.64-.37,1-.74,1-1.11s-.2-.72-.79-1.06l-1.91-1.1Z"/><path class="cls-55" d="M366.22,257.2l-7.65,4.42a6.75,6.75,0,0,1-3.61.94,7,7,0,0,1-3.5-1c-1-.6-1.59-1.27-1.62-2s.52-1.42,1.66-2.08l7.64-4.41,1.54.88L353,258.42c-.79.45-1.2.9-1.25,1.33s.24.83.85,1.18a4,4,0,0,0,2.06.53,5,5,0,0,0,2.34-.73l7.65-4.42Z"/><path class="cls-55" d="M357.14,264.7l11-6.37,3.09,1.79c1.05.6,1.62,1.22,1.71,1.84s-.35,1.22-1.34,1.79a4.61,4.61,0,0,1-1.79.58,5.63,5.63,0,0,1-2-.14,1.18,1.18,0,0,1,.45,1.34,2.54,2.54,0,0,1-1.25,1.28,5.89,5.89,0,0,1-3.18.84,6.59,6.59,0,0,1-3.19-.91Zm6.69-2.08-4,2.3,2,1.14a3.14,3.14,0,0,0,1.77.44,4,4,0,0,0,1.89-.57,2.26,2.26,0,0,0,1.1-1.08q.16-.54-.63-1Zm1.11-.64,1.7,1a3.06,3.06,0,0,0,1.65.43,3.58,3.58,0,0,0,1.77-.52c.6-.35.91-.7.91-1.05s-.29-.69-.87-1l-1.55-.89Z"/><path class="cls-55" d="M374,267.91l0,0,7.63-1.78,1.71,1-10.32,2.19-4,2.3-1.54-.89,4.07-2.35,3.73-5.88,1.74,1Z"/></g><g class="cls-56"><path class="cls-57" d="M310.08,37.64A10.94,10.94,0,0,1,307.3,34a9.28,9.28,0,0,1-.82-3.82V27.88a4.54,4.54,0,0,0-.44-2,3.31,3.31,0,0,0-1.33-1.4V22.15c.6.35,1,.4,1.33.15a2,2,0,0,0,.44-1.54V18.43a4.11,4.11,0,0,1,.82-2.85c.55-.6,1.48-.74,2.78-.4l.56,2.12a1,1,0,0,0-1.2.58,4.84,4.84,0,0,0-.35,2.06v2.33a3.28,3.28,0,0,1-.45,1.86,1.48,1.48,0,0,1-1.34.67A7.33,7.33,0,0,1,308.64,27a6.57,6.57,0,0,1,.45,2.35v2.33a8.28,8.28,0,0,0,.35,2.47,4.6,4.6,0,0,0,1.2,2Z"/><path class="cls-57" d="M361.1,63.17a1,1,0,0,0,1.2-.58,4.71,4.71,0,0,0,.35-2.07V58.19a3.2,3.2,0,0,1,.46-1.84,1.54,1.54,0,0,1,1.4-.63,7.71,7.71,0,0,1-1.4-2.25,6.71,6.71,0,0,1-.46-2.39V48.74a8.06,8.06,0,0,0-.35-2.47,4.72,4.72,0,0,0-1.2-2l.56-1.48a10.9,10.9,0,0,1,2.77,3.61,9.09,9.09,0,0,1,.83,3.81v2.33a4.68,4.68,0,0,0,.43,2A3.3,3.3,0,0,0,367,56v2.31q-.92-.53-1.35-.15a2.06,2.06,0,0,0-.43,1.52V62a4.07,4.07,0,0,1-.83,2.86c-.55.6-1.47.74-2.77.41Z"/></g><g class="cls-58"><path class="cls-59" d="M243.22,294.07a26.75,26.75,0,0,1-13.37-3.22L88.21,209.08c-4.88-2.82-7.68-7.28-7.68-12.23,0-5.43,3.37-10.49,9.25-13.88l80.38-46.41a33,33,0,0,1,16.24-4.12,26.78,26.78,0,0,1,13.37,3.22l141.64,81.77c4.88,2.82,7.67,7.28,7.67,12.23,0,5.43-3.36,10.49-9.24,13.88L259.46,290A33,33,0,0,1,243.22,294.07Z"/><path class="cls-60" d="M170.51,137.18a32.13,32.13,0,0,1,16.2-4,29.86,29.86,0,0,1,6.63.81,26.27,26.27,0,0,1,6.62,2.61l141.1,81.46c4.85,2.8,7.38,7.24,7.09,12.07a14.26,14.26,0,0,1-.85,3.9c-1.23,3.45-4.72,7.12-8.69,9.41l-79.24,45.75a32.5,32.5,0,0,1-3.45,1.7,33.6,33.6,0,0,1-12.53,2.48,26.22,26.22,0,0,1-13.19-3.12L88.56,208.46c-4.86-2.81-7.38-7.26-7.06-12.09a14,14,0,0,1,.67-3.37c1.13-3.65,4.75-7.56,8.91-10Z"/><path class="cls-61" d="M170.87,137.79a31.46,31.46,0,0,1,16.14-3.9,30.89,30.89,0,0,1,6.58.93,30.2,30.2,0,0,1,6.55,2.69L340.7,218.66c4.83,2.79,7.1,7.21,6.51,11.91a15.17,15.17,0,0,1-1,3.73c-1.2,3.06-5.22,7-8.79,9l-78.1,45.09a34.36,34.36,0,0,1-3.38,1.69,33,33,0,0,1-12.33,2.53,25.58,25.58,0,0,1-13-3L88.92,207.85c-4.86-2.8-7.1-7.25-6.46-12a17,17,0,0,1,.86-3.21c1.13-3.25,5.32-7.41,9.07-9.57Z"/><path class="cls-62" d="M171.22,138.41a30,30,0,0,1,22.63-2.75,36.74,36.74,0,0,1,6.48,2.77l140,80.85c4.81,2.77,6.82,7.17,5.92,11.75a17.36,17.36,0,0,1-1.24,3.54c-1.16,2.69-5.72,6.82-8.9,8.65l-76.95,44.44c-.81.46-2.44,1.31-3.33,1.68a32.53,32.53,0,0,1-12.12,2.59A25.06,25.06,0,0,1,230.91,289L89.27,207.23c-4.84-2.79-6.82-7.23-5.84-11.83a20.46,20.46,0,0,1,1-3.06c1.1-2.85,5.89-7.25,9.22-9.17Z"/><path class="cls-63" d="M171.57,139a29,29,0,0,1,22.53-2.51,41.49,41.49,0,0,1,6.41,2.85L340,219.89c4.79,2.76,6.56,7.13,5.35,11.6a21.17,21.17,0,0,1-1.45,3.36c-1.09,2.32-6.21,6.66-9,8.27l-75.82,43.77c-.7.41-2.49,1.35-3.27,1.69a32.21,32.21,0,0,1-11.9,2.63,24.42,24.42,0,0,1-12.65-2.82L89.63,206.62c-4.83-2.79-6.56-7.21-5.24-11.7a26.48,26.48,0,0,1,1.23-2.9c1-2.46,6.46-7.11,9.38-8.79Z"/><path class="cls-64" d="M171.93,139.63a29.61,29.61,0,0,1,16-3.55,29.93,29.93,0,0,1,6.42,1.27,51.78,51.78,0,0,1,6.34,2.93L339.64,220.5c4.76,2.75,6.3,7.1,4.76,11.45a28.36,28.36,0,0,1-1.64,3.18c-1,2-6.72,6.51-9.1,7.88L259,286.13c-.61.35-2.55,1.39-3.21,1.68a31.81,31.81,0,0,1-11.7,2.69,23.91,23.91,0,0,1-12.46-2.72L90,206c-4.82-2.79-6.3-7.19-4.63-11.57.36-.94,1-1.78,1.42-2.75,1-2.08,7-6.95,9.53-8.39Z"/><path class="cls-65" d="M172.28,140.25a27.16,27.16,0,0,1,22.33-2.06,66,66,0,0,1,6.27,3l138.41,79.91c4.73,2.73,6,7,4.17,11.29a12,12,0,0,1-1.84,3c-.56,1.74-7.21,6.36-9.2,7.51l-73.53,42.45c-.5.3-2.6,1.43-3.15,1.68a31.36,31.36,0,0,1-11.49,2.75A23.39,23.39,0,0,1,232,287.17L90.33,205.39c-4.8-2.77-6-7.17-4-11.44a12.11,12.11,0,0,1,1.6-2.59c.51-1.84,7.61-6.8,9.69-8Z"/><path class="cls-66" d="M172.64,140.86A26.22,26.22,0,0,1,194.86,139c.87.28,5.49,2.68,6.2,3.09l137.87,79.6c4.72,2.72,5.82,7,3.6,11.14a12.44,12.44,0,0,1-2,2.81c-.46,1.39-7.71,6.21-9.3,7.13L258.8,284.6c-.41.23-2.65,1.47-3.09,1.67a30.81,30.81,0,0,1-11.29,2.8,22.7,22.7,0,0,1-12.09-2.52L90.69,204.78c-4.79-2.77-5.82-7.16-3.41-11.31A12.8,12.8,0,0,1,89.07,191c.41-1.47,8.18-6.64,9.84-7.6Z"/><path class="cls-67" d="M173,141.47a27.7,27.7,0,0,1,15.87-3.2,28.1,28.1,0,0,1,6.26,1.61c.65.22,5.59,2.87,6.13,3.18l137.33,79.28c4.69,2.71,5.59,7,3,11a12.58,12.58,0,0,1-2.24,2.64c-.34,1-8.21,6-9.4,6.74L258.7,283.84c-.3.17-2.7,1.51-3,1.66a30.32,30.32,0,0,1-11.08,2.86,22.17,22.17,0,0,1-11.91-2.42L91,204.16c-4.78-2.76-5.59-7.15-2.8-11.17a12.93,12.93,0,0,1,2-2.28c.31-1.11,8.75-6.5,10-7.22Z"/><path class="cls-68" d="M173.35,142.09A27,27,0,0,1,189.17,139a27.94,27.94,0,0,1,6.2,1.72c.43.16,5.7,3.06,6.06,3.26l136.79,79c4.67,2.7,5.37,7,2.43,10.82a13.06,13.06,0,0,1-2.43,2.45c-.23.7-8.71,5.91-9.5,6.37L258.6,283.08c-.2.11-2.75,1.55-3,1.65a29.79,29.79,0,0,1-10.88,2.91A21.66,21.66,0,0,1,233,285.33L91.4,203.55c-4.77-2.75-5.38-7.16-2.19-11.05a13.6,13.6,0,0,1,2.16-2.12c.21-.74,9.32-6.35,10.16-6.83Z"/><path class="cls-69" d="M173.7,142.7a26.47,26.47,0,0,1,15.77-3,27.18,27.18,0,0,1,6.15,1.84c.22.08,5.82,3.24,6,3.34l136.25,78.66c4.64,2.69,5.15,7,1.85,10.67a14,14,0,0,1-2.64,2.27c-.11.35-9.2,5.75-9.6,6l-69,39.82c-.1.06-2.8,1.6-2.91,1.65a29.36,29.36,0,0,1-10.67,3c-4.29.26-8.5-.46-11.54-2.22L91.75,202.94c-4.76-2.75-5.17-7.19-1.58-10.92a14.73,14.73,0,0,1,2.35-2c.1-.37,9.9-6.19,10.31-6.43Z"/><path d="M233.74,284.1,92.11,202.32c-5.6-3.23-4.9-8.87,1.56-12.59l80.38-46.41c6.46-3.73,16.23-4.14,21.83-.91l141.63,81.78c5.6,3.23,4.89,8.87-1.56,12.59l-80.39,46.41C249.11,286.92,239.34,287.33,233.74,284.1Z"/></g><path class="cls-70" d="M233.74,284,92.11,202.19c-2.5-1.44-3.74-3.35-3.78-5.37v-7c0-2.45,1.85,1.8,5.34-.21l80.38-46.41c6.46-3.73,16.23-4.14,21.83-.91l141.63,81.78c1.87,1.07,3.22-3.5,3.71-2.05.16.49.06,6.91.07,7.41,0,2.51-1.76,5.17-5.34,7.23l-80.39,46.41C249.11,286.79,239.34,287.2,233.74,284Z"/><path class="cls-71" d="M233.74,277.08,92.11,195.31c-5.6-3.23-4.9-8.87,1.56-12.6l80.38-46.41c6.46-3.73,16.23-4.13,21.83-.9l141.63,81.77c5.6,3.23,4.89,8.87-1.56,12.6l-80.39,46.41C249.11,279.91,239.34,280.31,233.74,277.08Z"/><path class="cls-72" d="M341.28,233.19c0,2.47-1.8,5.09-5.33,7.13l-80.38,46.4c-6.46,3.73-16.23,4.14-21.83.91L92.11,205.85c-2.71-1.56-3.93-3.68-3.75-5.88a2,2,0,0,0,0,.38v7c0,2,1.28,3.93,3.78,5.37l141.63,81.77c5.6,3.23,15.37,2.83,21.83-.9L336,247.2c3.58-2.07,5.39-4.73,5.34-7.23C341.28,239.54,341.35,234.92,341.28,233.19Z"/><path class="cls-73" d="M243.22,276.43a16.52,16.52,0,0,1-8.06-1.8L93.52,192.86c-.88-.51-2.36-1.58-2.36-3s1.47-3.26,3.93-4.68l80.38-46.41A22.49,22.49,0,0,1,186.4,136a16.4,16.4,0,0,1,8.06,1.81L336.1,219.62c.88.51,2.36,1.58,2.36,3s-1.47,3.26-3.93,4.68l-80.38,46.41A22.48,22.48,0,0,1,243.22,276.43Z"/><path class="cls-74" d="M336,228.6,255.56,275c-6.45,3.73-16.22,4.13-21.82.9L92.11,194.14c-2.32-1.34-3.55-3.1-3.74-5-.29,2.29.93,4.51,3.74,6.13l141.63,81.77c5.6,3.23,15.37,2.83,21.82-.9L336,229.77c3.78-2.18,5.57-5,5.3-7.64C341,224.4,339.17,226.74,336,228.6Z"/><ellipse class="cls-75" cx="244.77" cy="276.72" rx="12.2" ry="8.24" transform="translate(-86.81 113.81) rotate(-22.34)"/><ellipse class="cls-76" cx="193.86" cy="172.21" rx="35.36" ry="20.88" transform="translate(-45.47 72.42) rotate(-18.98)"/><path class="cls-77" d="M199.58,243.62l-43.72-25.18c-2-1.15-1.75-3.16.55-4.49l22.16-12.88c2.3-1.33,5.78-1.47,7.78-.32l43.72,25.17c2,1.15,1.75,3.17-.56,4.5l-22.15,12.87C205.06,244.62,201.57,244.77,199.58,243.62Z"/><path class="cls-78" d="M335.27,216.08,198.8,137.25c-5.28-3.05-9.57-11.24-9.57-18.28V11.91c0-7,4.29-10.28,9.57-7.23L335.27,83.52c5.28,3,9.57,11.23,9.57,18.27V208.85C344.84,215.9,340.55,219.13,335.27,216.08Z"/><path class="cls-79" d="M339.07,215.12a5.62,5.62,0,0,1-2.74-.87L199.86,135.42c-4.62-2.67-8.51-10.2-8.51-16.45V11.91c0-2.89,1-6.26,3.65-6.26a5.6,5.6,0,0,1,2.74.86L334.21,85.35c4.61,2.66,8.51,10.19,8.51,16.44V208.85C342.72,211.74,341.76,215.12,339.07,215.12Z"/><path class="cls-80" d="M336.5,210.58l-135-78c-4.25-2.7-6.88-8.1-6.88-13.62V11.39a1.69,1.69,0,0,1,2.55-1.46l.3.18L332.58,88.17c5.06,2.92,6.88,8.1,6.88,13.63V209.12a1.84,1.84,0,0,1-2.74,1.59Z"/><path class="cls-81" d="M332.58,88.17,197.46,10.11l-.3-.18a1.69,1.69,0,0,0-2.55,1.46V119c0,5.52,2.63,10.92,6.88,13.62l135,78,.22.13a1.84,1.84,0,0,0,2.74-1.59V101.8C339.46,96.27,337.64,91.09,332.58,88.17Zm5.81,121a.76.76,0,0,1-.76.76.79.79,0,0,1-.37-.1L202,131.66c-3.84-2.44-6.35-7.43-6.35-12.69V11.39a.63.63,0,0,1,.63-.62.61.61,0,0,1,.31.09L332,89.1c5.25,3,6.35,8.57,6.35,12.69Z"/><path class="cls-82" d="M338,82.08,201.51,3.24a6.45,6.45,0,0,0-5.6-.82c-.2.08-2.86,1.49-3,1.6h0c1.63-.79,3.7-.64,6,.66L335.27,83.52c5.28,3,9.57,11.23,9.57,18.27V208.85c0,4.4-1.67,7.31-4.21,8.14a1.59,1.59,0,0,0,.84-.29c.12-.07,3-1.7,3.13-1.78,1.82-1.27,2.95-3.89,2.95-7.51V100.35C347.55,93.31,343.26,85.13,338,82.08Z"/><path class="cls-83" d="M335.73,83.29,199.26,4.45C197.09,3.2,195.1,3,193.5,3.71a7.13,7.13,0,0,1,4.61,1.08L334.58,83.63c5.28,3.05,9.57,11.23,9.57,18.28V209c0,4.15-1.5,7-3.81,8,3-.46,5-3.5,5-8.31v-107C345.29,94.52,341,86.34,335.73,83.29Z"/><ellipse class="cls-84" cx="338.25" cy="94.42" rx="6.84" ry="10.31" transform="translate(-10.5 135.66) rotate(-22.34)"/><ellipse class="cls-85" cx="199.14" cy="15" rx="8.69" ry="8.25"/><path class="cls-86" d="M249,224.72l-69.39-40c-2.29-1.33-2-3.65.65-5.18l23-13.57c2.65-1.53,6.67-1.7,9-.37L282,205.4c2.3,1.33,2,3.65-.64,5.18l-23.44,13.77C255.26,225.88,251.25,226.05,249,224.72Z"/><path class="cls-87" d="M219.73,172.5l-.88-2.47h0a2.43,2.43,0,0,0-1.31-1.58l-6.38-3.69a7.22,7.22,0,0,0-6.53,0l-6.34,3.66a3,3,0,0,0-1.33,1.77l-.86,2.28a2.28,2.28,0,0,0,1.14,3.22l7.09,4.09a8,8,0,0,0,7.26,0l7-4.07A2.2,2.2,0,0,0,219.73,172.5Z"/><path class="cls-88" d="M198.65,172.12l6.15,3.54a6.91,6.91,0,0,0,6.29,0l6.11-3.52c1.73-1,1.72-2.63,0-3.64L211,165a7,7,0,0,0-6.3,0l-6.11,3.52C196.9,169.48,196.91,171.11,198.65,172.12Z"/><path class="cls-89" d="M235.26,181.07l-.88-2.46h0a2.47,2.47,0,0,0-1.32-1.59l-6.37-3.68a7.21,7.21,0,0,0-6.54,0L213.81,177a2.93,2.93,0,0,0-1.32,1.78l-.87,2.27a2.29,2.29,0,0,0,1.14,3.23l7.09,4.09a8,8,0,0,0,7.27,0l7-4.07A2.2,2.2,0,0,0,235.26,181.07Z"/><path class="cls-88" d="M214.19,180.69l6.14,3.55a7,7,0,0,0,6.3,0l6.1-3.53c1.73-1,1.72-2.62,0-3.63l-6.14-3.55a7,7,0,0,0-6.3,0l-6.1,3.52C212.43,178.06,212.44,179.68,214.19,180.69Z"/><path class="cls-90" d="M250.79,189.65l-.87-2.47h0a2.5,2.5,0,0,0-1.31-1.59l-6.38-3.68a7.21,7.21,0,0,0-6.54,0l-6.34,3.66a2.91,2.91,0,0,0-1.32,1.77l-.87,2.28a2.29,2.29,0,0,0,1.14,3.22l7.09,4.09a8,8,0,0,0,7.27,0l7-4.06A2.2,2.2,0,0,0,250.79,189.65Z"/><path class="cls-88" d="M229.72,189.26l6.14,3.55a7,7,0,0,0,6.3,0l6.1-3.52c1.74-1,1.73-2.63,0-3.64l-6.14-3.54a7,7,0,0,0-6.3,0l-6.1,3.53C228,186.63,228,188.26,229.72,189.26Z"/><path class="cls-91" d="M266.33,198.22l-.88-2.47h0a2.46,2.46,0,0,0-1.31-1.58l-6.38-3.69a7.24,7.24,0,0,0-6.54,0l-6.33,3.66a2.93,2.93,0,0,0-1.33,1.77l-.86,2.28a2.27,2.27,0,0,0,1.14,3.22l7.08,4.09a8,8,0,0,0,7.27,0l7-4.07C266.73,200.57,266.92,199.6,266.33,198.22Z"/><path class="cls-88" d="M245.25,197.84l6.14,3.54a6.93,6.93,0,0,0,6.3,0l6.11-3.52c1.73-1,1.72-2.63,0-3.64l-6.15-3.54a6.94,6.94,0,0,0-6.29,0l-6.11,3.52C243.5,195.2,243.51,196.83,245.25,197.84Z"/><path class="cls-92" d="M206.07,169.22l-.19-.07,0,0,.13.11,3,3.85-2,1.16-3.91-5.83,1.62-.94,10.1,2.26-2,1.16Z"/><path class="cls-92" d="M225.64,181a6.78,6.78,0,0,1-3.11,1,4.92,4.92,0,0,1-2.75-.64c-.82-.47-1.19-1-1.12-1.6s.63-1.19,1.67-1.79l1.84-1.06a6.71,6.71,0,0,1,3.1-1,5,5,0,0,1,2.77.64c.81.47,1.18,1,1.11,1.6s-.63,1.19-1.67,1.79Zm.69-2c.66-.38,1-.72,1.13-1s-.07-.59-.5-.84a2.26,2.26,0,0,0-1.44-.28,4.45,4.45,0,0,0-1.79.65l-2.24,1.29c-.66.38-1,.73-1.13,1s.07.59.5.84a2.32,2.32,0,0,0,1.44.28,4.53,4.53,0,0,0,1.8-.66Z"/><path class="cls-92" d="M236,190.29l-1.35-.78,6.76-3.9-1.64-1,1-.57,3.27,1.56Z"/><path class="cls-92" d="M253.48,193.33l2-1.14,4.14,6-1.62.93-10.33-2.39,2-1.14,7,1.83.17.08.06,0-.13-.11Z"/><path class="cls-80" d="M249.69,206.89l-.88-2.47h0a2.48,2.48,0,0,0-1.32-1.58l-51-29.5a7.21,7.21,0,0,0-6.54,0L183.65,177a2.93,2.93,0,0,0-1.32,1.78l-.87,2.27a2.3,2.3,0,0,0,1.14,3.23l51.68,29.9a8,8,0,0,0,7.26,0l7.05-4.07A2.2,2.2,0,0,0,249.69,206.89Z"/><path class="cls-80" d="M184,180.69l50.73,29.36a6.93,6.93,0,0,0,6.3,0l6.1-3.52c1.73-1,1.72-2.63,0-3.64l-50.73-29.36a7,7,0,0,0-6.3,0l-6.1,3.52C182.27,178.06,182.28,179.68,184,180.69Z"/><path class="cls-93" d="M281.86,206.69l-.88-2.47h0a2.51,2.51,0,0,0-1.32-1.58L273.29,199a7.24,7.24,0,0,0-6.54,0l-22.67,12.95a3,3,0,0,0-1.33,1.77l-.86,2.28a2.28,2.28,0,0,0,1.14,3.22l7.09,4.09a8,8,0,0,0,7.26,0l23.38-13.36A2.2,2.2,0,0,0,281.86,206.69Z"/><path class="cls-94" d="M244.46,215.6l6.14,3.54a7,7,0,0,0,6.3,0l22.43-12.82c1.73-1,1.72-2.63,0-3.63l-6.14-3.55a7,7,0,0,0-6.3,0L244.44,212C242.7,213,242.71,214.59,244.46,215.6Z"/><path class="cls-92" d="M258.84,207.42l-1.25-.72-.9.51,1.45.84-.38.22-1.93-1.11,2.85-1.64,1.91,1.1-.38.22-1.44-.83-.8.47,1.25.72Z"/><path class="cls-92" d="M260.65,207.5l-.28.19a1.81,1.81,0,0,1,.52,0,1.1,1.1,0,0,1,.44.15c.23.13.33.26.32.41s-.15.31-.44.47l-1.32.77-.48-.28,1.32-.76c.16-.09.24-.18.24-.25s-.06-.16-.2-.24a1,1,0,0,0-.31-.11,1.37,1.37,0,0,0-.35,0l-1.53.88-.48-.27,2.11-1.22Z"/><path class="cls-92" d="M263.6,208.61l-.51.3.38.22-.35.2-.38-.22-1.17.67c-.09.05-.13.1-.13.14s0,.09.1.12l.08.05.09,0-.3.23a.84.84,0,0,1-.2-.05l-.19-.09c-.17-.1-.26-.21-.26-.33s.12-.24.33-.36l1.17-.68-.32-.18.35-.2.32.18.52-.29Z"/><path class="cls-92" d="M262.65,211.14c-.3-.17-.44-.37-.43-.58a.83.83,0,0,1,.49-.6l.08,0a2.24,2.24,0,0,1,1-.29,1.86,1.86,0,0,1,1,.21c.29.17.42.35.4.53s-.17.37-.47.54l-.27.16-1.33-.77h0a.5.5,0,0,0-.27.32c0,.11.06.22.22.31a1.72,1.72,0,0,0,.38.16,2.36,2.36,0,0,0,.4.08l-.16.27a3.11,3.11,0,0,1-.49-.08A2.31,2.31,0,0,1,262.65,211.14Zm1.76-1.08A.83.83,0,0,0,264,210a1.46,1.46,0,0,0-.5.12h0l.84.48.05,0c.13-.08.21-.16.22-.25S264.55,210.14,264.41,210.06Z"/><path class="cls-92" d="M266.65,211.46l-.19-.12a.67.67,0,0,0-.29-.1.8.8,0,0,0-.31,0l-1.47.85-.48-.28L266,210.6l.44.25-.28.2a1.84,1.84,0,0,1,.46,0,.94.94,0,0,1,.39.12.18.18,0,0,1,.07.05.12.12,0,0,1,0,.05Z"/><polygon class="cls-95" points="323.29 169.59 285.62 147.84 285.62 127.86 323.29 149.61 323.29 169.59"/><polygon class="cls-96" points="233.36 118 195.69 96.25 195.69 76.27 233.36 98.02 233.36 118"/><path class="cls-94" d="M282.22,81.06l-31-17.92c-2.65-1.53-4.79-5.63-4.79-9.16h0c0-3.53,2.14-5.15,4.79-3.62l31,17.92c2.65,1.53,4.79,5.63,4.79,9.16h0C287,81,284.87,82.59,282.22,81.06Z"/><path class="cls-94" d="M280.6,170.67l-31-17.92c-2.65-1.53-4.79-5.63-4.79-9.16h0c0-3.53,2.14-5.15,4.79-3.62l31,17.92c2.65,1.52,4.79,5.63,4.79,9.16h0C285.39,170.58,283.25,172.2,280.6,170.67Z"/><polygon class="cls-97" points="306.57 133.93 306.57 123.44 284.49 110.86 284 111.73 305.57 124.03 305.57 133.35 303.42 132.1 305.84 138.35 308.27 134.91 306.57 133.93"/><polygon class="cls-97" points="266.12 84.21 268.55 80.76 266.64 79.66 266.64 73.81 265.64 73.51 265.64 79.09 263.69 77.96 266.12 84.21"/><polygon class="cls-97" points="227.64 93.62 230.07 90.18 228.33 89.17 228.33 79.61 246.12 89.87 246.62 89 227.33 77.88 227.33 88.6 225.21 87.37 227.64 93.62"/><polygon class="cls-97" points="303.07 162.08 225.64 117.44 225.64 114 224.64 113.7 224.64 118.02 265.64 141.66 265.64 143.88 263.69 142.75 266.12 149 268.55 145.56 266.64 144.46 266.64 142.23 303.32 163.38 304.07 163.81 304.07 159.04 303.07 158.74 303.07 162.08"/><polygon class="cls-94" points="266 116.26 246.93 89.52 266 84.78 285.06 111.53 266 116.26"/><polygon class="cls-98" points="285.62 127.86 285.62 128.65 322.79 150.11 322.79 169.31 323.29 169.59 323.29 149.61 285.62 127.86"/><polygon class="cls-99" points="195.69 76.27 195.69 77.06 232.86 98.52 232.86 117.72 233.36 118 233.36 98.02 195.69 76.27"/><path class="cls-100" d="M282.22,68.28l-31-17.92c-1.6-.93-3-.69-3.88.41a3,3,0,0,1,3.38.09l31,17.92c2.65,1.53,4.79,5.63,4.79,9.16a5.13,5.13,0,0,1-.91,3.21A4.49,4.49,0,0,0,287,77.44C287,73.91,284.87,69.81,282.22,68.28Z"/><path class="cls-101" d="M280.6,157.89l-31-17.92c-1.6-.93-3-.7-3.88.4a3,3,0,0,1,3.38.1l31,17.92c2.65,1.52,4.79,5.63,4.79,9.16a5.15,5.15,0,0,1-.91,3.21,4.49,4.49,0,0,0,1.41-3.71C285.39,163.52,283.25,159.41,280.6,157.89Z"/><polygon class="cls-102" points="265.5 85.28 284.33 111.71 285.06 111.53 266 84.78 246.93 89.52 247.16 89.83 265.5 85.28"/><g class="cls-6"><polygon class="cls-103" points="215.55 93.51 219.83 95.96 219.83 94.69 215.55 92.25 215.55 93.51"/><polygon class="cls-103" points="217.34 103.87 213.08 101.41 213.08 102.68 217.34 105.14 217.34 103.87"/><polygon class="cls-103" points="217.11 97.13 217.11 95.86 212.35 93.17 212.35 94.43 217.11 97.13"/><polygon class="cls-103" points="212.11 98.17 212.11 99.43 214.53 100.83 214.53 99.56 212.11 98.17"/><polygon class="cls-103" points="208.46 100.05 208.46 98.79 204.53 96.56 204.53 97.83 208.46 100.05"/><polygon class="cls-103" points="219.16 102.23 215.79 100.29 215.79 101.55 219.16 103.5 219.16 102.23"/><polygon class="cls-103" points="214.32 96.88 214.32 98.15 216.32 99.28 216.32 98.02 214.32 96.88"/><polygon class="cls-103" points="221.09 95.42 221.09 96.68 222.18 97.31 222.18 96.05 221.09 95.42"/><polygon class="cls-103" points="213.06 97.43 213.06 96.16 208.99 93.84 208.99 95.11 213.06 97.43"/><polygon class="cls-103" points="218.37 96.59 218.37 97.85 224.37 101.28 224.37 100.02 218.37 96.59"/><polygon class="cls-103" points="210.87 98.71 210.87 97.45 205.76 94.59 205.76 95.85 210.87 98.71"/><polygon class="cls-103" points="206.99 87.34 206.99 88.61 210.99 90.9 210.99 89.63 206.99 87.34"/><polygon class="cls-103" points="214.28 91.52 212.25 90.36 212.25 91.62 214.28 92.79 214.28 91.52"/><polygon class="cls-103" points="211.84 100.69 209.72 99.5 209.72 100.77 211.84 101.96 211.84 100.69"/><polygon class="cls-103" points="223.25 105.86 228.7 109.03 228.7 107.77 223.25 104.6 223.25 105.86"/><polygon class="cls-103" points="203.27 95.85 201.34 94.74 201.34 96 203.27 97.11 203.27 95.85"/><polygon class="cls-103" points="197.39 82.04 197.39 83.3 205.97 88.19 205.97 86.92 197.39 82.04"/><polygon class="cls-103" points="224.51 103.96 226.53 105.14 226.53 103.87 224.51 102.7 224.51 103.96"/><polygon class="cls-103" points="225.63 102.01 231.43 105.42 231.43 104.15 225.63 100.74 225.63 102.01"/><polygon class="cls-103" points="217.58 100 223.26 103.24 223.26 101.98 217.58 98.74 217.58 100"/><polygon class="cls-103" points="223.44 96.77 223.44 98.04 227.97 100.63 227.97 99.36 223.44 96.77"/><polygon class="cls-103" points="204.5 93.88 201.34 92.11 201.34 93.38 204.5 95.14 204.5 93.88"/><polygon class="cls-103" points="222 103.88 220.42 102.96 220.42 104.23 222 105.14 222 103.88"/><polygon class="cls-103" points="207.72 93.13 201.34 89.49 201.34 90.75 207.72 94.39 207.72 93.13"/><polygon class="cls-103" points="211.09 92.44 201.34 86.86 201.34 88.13 211.09 93.71 211.09 92.44"/></g><g class="cls-104"><path class="cls-92" d="M264.18,95.15l-1.52-.88V92.75l1.52.87Zm0,9.66-1.52-.87V96.17l1.52.88Z"/><path class="cls-92" d="M266.37,106.08V99.61l-1-.6V97.72l1,.6v-.91c0-.85.21-1.39.61-1.62s1-.14,1.71.29a3.79,3.79,0,0,1,.45.29c.15.12.32.25.5.41L269.49,98l-.28-.22-.33-.21c-.33-.19-.58-.22-.74-.1s-.25.38-.25.78v.91l1.38.79v1.29l-1.38-.79V107Z"/></g><path class="cls-105" d="M355,182.9l3.31,1.92v-7.61L355,175.29Zm5.25,3,3.31,1.91V173.9L360.2,172Zm5.25-17.27V189l3.31,1.91V170.59Z"/><path class="cls-105" d="M184.13,21.44a7.11,7.11,0,0,0-.07-.91l1.54-.2a13.66,13.66,0,0,0-.7-2.32l-1.74-.53a12.49,12.49,0,0,0-1.09-1.87l.42-1.76a14.83,14.83,0,0,0-1.67-1.77l-.94,1.22a8.68,8.68,0,0,0-.77-.52,6,6,0,0,0-.77-.37l-.94-2.3a5,5,0,0,0-1.67-.17l.42,2.25a2.38,2.38,0,0,0-1.09.62l-1.75-1.49a4.52,4.52,0,0,0-.69,1.52l1.53,2a5.77,5.77,0,0,0-.06.85,7.07,7.07,0,0,0,.06.91l-1.53.2a13.61,13.61,0,0,0,.69,2.32l1.75.53a11.69,11.69,0,0,0,1.09,1.87l-.42,1.76A14.07,14.07,0,0,0,177.4,25l.94-1.22a7.43,7.43,0,0,0,.77.52,5.4,5.4,0,0,0,.77.37l.94,2.3a4.68,4.68,0,0,0,1.67.17l-.42-2.25a2.43,2.43,0,0,0,1.09-.62l1.74,1.49a4.53,4.53,0,0,0,.7-1.52l-1.54-2A5.62,5.62,0,0,0,184.13,21.44Zm-5-.58a4.43,4.43,0,0,1-2-3.48c0-1.28.9-1.79,2-1.15a4.44,4.44,0,0,1,2,3.48C181.12,21,180.22,21.5,179.11,20.86Z"/><g class="cls-56"><path class="cls-57" d="M159.14,112.09a.55.55,0,0,1-.2-.2.48.48,0,0,1-.08-.28v-1.25a.34.34,0,0,1,.08-.27.52.52,0,0,1,.27-.11l3.39-.65-3.39-4.56a3.09,3.09,0,0,1-.27-.42.79.79,0,0,1-.08-.38v-1.24c0-.1,0-.17.07-.2s.12,0,.21,0a1.19,1.19,0,0,1,.28.3l4.75,6.46a2.9,2.9,0,0,1,.31.52,1.12,1.12,0,0,1,.09.44v.39a.45.45,0,0,1-.09.32.6.6,0,0,1-.31.15l-4.75,1A.31.31,0,0,1,159.14,112.09Z"/><path class="cls-57" d="M157,113.08l-.91-.52a.84.84,0,0,1-.29-.27,1.3,1.3,0,0,1-.15-.32l-4.79-15.91a.63.63,0,0,1,0-.19.19.19,0,0,1,.09-.19s.12,0,.21,0l.91.53a.86.86,0,0,1,.28.26,2.62,2.62,0,0,1,.17.33l4.76,15.89a.69.69,0,0,1,0,.2.2.2,0,0,1-.09.19A.17.17,0,0,1,157,113.08Z"/><path class="cls-57" d="M149,106.21a.87.87,0,0,1-.28-.29l-4.75-6.47a2.75,2.75,0,0,1-.31-.5,1,1,0,0,1-.1-.45v-.38a.5.5,0,0,1,.09-.33.51.51,0,0,1,.32-.16l4.75-1a.31.31,0,0,1,.28,0,.64.64,0,0,1,.28.49v1.24c0,.14,0,.24-.09.28a.57.57,0,0,1-.26.12l-3.39.64,3.39,4.57a2.1,2.1,0,0,1,.26.42.74.74,0,0,1,.09.36v1.25a.19.19,0,0,1-.09.19A.23.23,0,0,1,149,106.21Z"/></g><polygon class="cls-105" points="130.04 98.67 130.04 86.37 136.68 96.35 130.04 98.67 130.04 98.67"/><polygon class="cls-106" points="121.01 93.5 121.01 81.2 127.64 91.18 121.01 93.5 121.01 93.5"/><polygon class="cls-107" points="111.97 88.33 111.97 76.03 118.61 86.01 111.97 88.33 111.97 88.33"/><polygon class="cls-108" points="102.93 83.16 102.93 70.86 109.57 80.84 102.93 83.16 102.93 83.16"/><polygon class="cls-109" points="93.89 77.99 93.89 65.69 100.53 75.67 93.89 77.99 93.89 77.99"/><polygon class="cls-105" points="320.37 25.41 320.37 37.7 313.73 27.73 320.37 25.41 320.37 25.41"/><polygon class="cls-106" points="329.4 30.58 329.4 42.87 322.77 32.9 329.4 30.58 329.4 30.58"/><polygon class="cls-107" points="338.44 35.75 338.44 48.04 331.81 38.06 338.44 35.75 338.44 35.75"/><polygon class="cls-108" points="347.48 40.92 347.48 53.21 340.84 43.23 347.48 40.92 347.48 40.92"/><polygon class="cls-109" points="356.52 46.09 356.52 58.38 349.88 48.4 356.52 46.09 356.52 46.09"/><g class="cls-56"><polygon class="cls-106" points="64.46 227.51 68.93 230.09 71.09 228.84 66.62 226.26 64.46 227.51"/><polygon class="cls-105" points="67.8 225.58 72.26 228.16 74.66 226.78 70.19 224.2 67.8 225.58"/><polygon class="cls-110" points="57.79 231.36 62.26 233.94 63.94 232.97 59.47 230.39 57.79 231.36"/><polygon class="cls-109" points="55.52 232.69 59.99 235.27 60.86 234.84 56.39 232.25 55.52 232.69"/><polygon class="cls-111" points="61.12 229.44 65.59 232.02 67.52 230.91 63.05 228.32 61.12 229.44"/><polygon class="cls-112" points="67.45 221.27 79.58 228.28 81.87 219.95 67.45 221.27"/></g><polygon class="cls-113" points="375.22 120.39 412.11 141.69 412.11 161.26 375.22 139.97 375.22 120.39"/><polygon class="cls-114" points="375.71 140.39 363.62 123.43 375.71 120.43 387.8 137.39 375.71 140.39"/><polygon class="cls-115" points="406.61 115.73 369.72 94.43 369.72 85.64 406.61 106.94 406.61 115.73"/><path class="cls-114" d="M374,96.78,353,84.64a7.77,7.77,0,0,1-3.24-6.2h0c0-2.39,1.45-3.49,3.24-2.46l21,12.14a7.78,7.78,0,0,1,3.24,6.2h0C377.25,96.72,375.8,97.81,374,96.78Z"/></g></g></svg>