<svg id="Слой_1" data-name="Слой 1" xmlns="http://www.w3.org/2000/svg" xmlns:xlink="http://www.w3.org/1999/xlink" viewBox="0 0 1798.11 1455.22"><defs><style>.cls-1,.cls-15,.cls-3,.cls-53,.cls-6{opacity:0.95;}.cls-1{fill:url(#linear-gradient);}.cls-2{fill:#96bfe6;}.cls-3{fill:url(#linear-gradient-2);}.cls-4{fill:#4598e6;}.cls-5{fill:url(#linear-gradient-3);}.cls-6{fill:url(#linear-gradient-4);}.cls-7{fill:url(#linear-gradient-5);}.cls-8{fill:url(#linear-gradient-6);}.cls-9{fill:url(#linear-gradient-7);}.cls-10{fill:url(#linear-gradient-8);}.cls-11{fill:url(#linear-gradient-9);}.cls-12{fill:#fff;}.cls-13{fill:url(#linear-gradient-10);}.cls-14{fill:url(#linear-gradient-11);}.cls-15{fill:url(#linear-gradient-12);}.cls-16{fill:#0d0035;}.cls-17{fill:#eea987;}.cls-18{fill:#d98b52;}.cls-19{fill:#080211;}.cls-20{fill:#c78d71;}.cls-21{fill:#eea886;}.cls-22{fill:#16202e;}.cls-23{fill:#7e1d5b;}.cls-24{fill:#8e4f3a;}.cls-25{fill:#633029;}.cls-26{fill:#323657;}.cls-27{fill:#fccca2;}.cls-28{fill:#d14053;}.cls-29{fill:#e55353;}.cls-30{fill:#a77860;}.cls-31{fill:#ebeeff;}.cls-32{fill:#353a3d;}.cls-33{fill:#81807e;}.cls-34{fill:#2d3133;}.cls-35{fill:#decbc4;}.cls-36{fill:#495055;}.cls-37{fill:#252e3b;}.cls-38{fill:#3c4145;}.cls-39{fill:#b3a5a0;}.cls-40{fill:#51565c;}.cls-41{fill:#f5e2d9;}.cls-42{fill:#d44040;}.cls-43{fill:#ad9f99;}.cls-44{fill:#69737a;}.cls-45{fill:#181929;}.cls-46{fill:#22243b;}.cls-47{fill:#292c47;}.cls-48{fill:#cfbeb6;}.cls-49{fill:#3a3f47;}.cls-50{fill:#23263d;}.cls-51{fill:#000455;}.cls-52{fill:#eddad3;}.cls-54{fill:#9e4c9d;}</style><linearGradient id="linear-gradient" x1="910.92" y1="1045.52" x2="875.67" y2="406.67" gradientUnits="userSpaceOnUse"><stop offset="0" stop-color="#d1d7e0"/><stop offset="1" stop-color="#ebebff"/></linearGradient><linearGradient id="linear-gradient-2" x1="1488.65" y1="1225.07" x2="1488.65" y2="566.11" xlink:href="#linear-gradient"/><linearGradient id="linear-gradient-3" y1="1415.47" x2="1698.81" y2="1415.47" gradientUnits="userSpaceOnUse"><stop offset="0.01" stop-color="#1a2257"/><stop offset="1" stop-color="#5e60f2"/></linearGradient><linearGradient id="linear-gradient-4" x1="878.68" y1="818.15" x2="878.68" y2="336.32" xlink:href="#linear-gradient"/><linearGradient id="linear-gradient-5" x1="-4327.48" y1="1094.07" x2="-4218.26" y2="1094.07" gradientTransform="matrix(-1, 0, 0, 1, -3942.38, 0)" xlink:href="#linear-gradient-3"/><linearGradient id="linear-gradient-6" x1="-4242.62" y1="1184.23" x2="-4044.07" y2="1184.23" gradientTransform="matrix(-1, 0, 0, 1, -3942.38, 0)" xlink:href="#linear-gradient-3"/><linearGradient id="linear-gradient-7" x1="-4225.65" y1="1213.1" x2="-4076.62" y2="1213.1" gradientTransform="matrix(-1, 0, 0, 1, -3942.38, 0)" xlink:href="#linear-gradient-3"/><linearGradient id="linear-gradient-8" x1="-4405.79" y1="1061.71" x2="-4182" y2="1061.71" gradientTransform="matrix(-1, 0, 0, 1, -3942.38, 0)" xlink:href="#linear-gradient-3"/><linearGradient id="linear-gradient-9" x1="330.16" y1="1306" x2="199.87" y2="915.1" xlink:href="#linear-gradient-3"/><linearGradient id="linear-gradient-10" x1="229.35" y1="1561.28" x2="294.5" y2="1280.44" gradientUnits="userSpaceOnUse"><stop offset="0" stop-color="#c9c4c1"/><stop offset="1" stop-color="#fff6de"/></linearGradient><linearGradient id="linear-gradient-11" x1="197.22" y1="1342.12" x2="357.38" y2="1342.12" gradientTransform="translate(19.53)" xlink:href="#linear-gradient-10"/><linearGradient id="linear-gradient-12" x1="1315.34" y1="410.8" x2="1315.34" y2="139.37" xlink:href="#linear-gradient"/></defs><title>Staffing banner</title><rect class="cls-1" x="652.57" y="235.1" width="452.22" height="452.22" rx="58.67"/><rect class="cls-2" x="773.99" y="584.36" width="209.37" height="10.34"/><rect class="cls-2" x="803.65" y="616.96" width="150.06" height="10.34"/><rect class="cls-3" x="1179.19" y="391.94" width="618.92" height="726.47" rx="69.12"/><rect class="cls-4" x="1459.81" y="820.51" width="49.09" height="9.09"/><rect class="cls-2" x="1273.45" y="903.82" width="285.64" height="17.6"/><rect class="cls-2" x="1273.45" y="988.33" width="230.98" height="17.6"/><rect class="cls-2" x="1273.45" y="946.07" width="135.41" height="17.6"/><path class="cls-4" d="M1633.81,464.39v8.89h52.35V522.4h8.89v-58Zm-355.45,58h8.89V473.28h52.35v-8.89h-61.24Zm407.8,253.48V825h-52.35v8.89h61.24v-58Zm-398.91,0h-8.89v58h61.24V825h-52.35Z"/><path class="cls-4" d="M1667.33,1007.22a52.35,52.35,0,1,1,52.35-52.35A52.4,52.4,0,0,1,1667.33,1007.22Zm0-94.56a42.22,42.22,0,1,0,42.22,42.21A42.26,42.26,0,0,0,1667.33,912.66Z"/><polygon class="cls-4" points="1663.99 975.48 1640.21 951.69 1647.38 944.53 1663.99 961.15 1687.29 937.85 1694.45 945.02 1663.99 975.48"/><path class="cls-5" d="M1698.81,1415.47c0,22-380.29,39.75-849.4,39.75S0,1437.43,0,1415.47s380.29-39.76,849.41-39.76S1698.81,1393.51,1698.81,1415.47Z"/><rect class="cls-6" x="726.27" y="252.01" width="304.81" height="261.53"/><path class="cls-7" d="M278.3,1299.58c25.37-17.85,55.08-142.23,56.85-216.31.9-38,12.12-53.75,22-67.7,9.46-13.34,17.63-24.85,12.87-51.29-9.1-50.53,14.82-72.34,15.06-72.55l-2.77-3.16c-1.06.93-26,23.43-16.42,76.45,4.45,24.71-2.88,35-12.16,48.12-9.74,13.72-21.86,30.8-22.8,70-1.9,79.5-32.27,196.94-55.07,213Z"/><path class="cls-8" d="M225.1,1263.3c-2.39-5.43-4.87-11-7.68-17-14.49-30.6-27.34-35.64-48.61-44-5.2-2-11.1-4.36-17.56-7.26-30.48-13.7-24.58-33.88-19.37-51.69.72-2.49,1.45-5,2.08-7.44,2.68-10.47-2.47-15.72-10.26-23.68-5.8-5.91-13-13.27-18.57-24.89-6.08-12.71-3-19.53.69-23,7.74-7.33,25.56-6,42.39,3.21,5.23,2.85,9.54,7.36,14.1,12.13,10.73,11.24,24.08,25.22,57.85,25.38,19.26.09,29.81,2.75,35.27,8.89,6.2,7,5,17.39,3.42,31.83-.56,5-1.2,10.65-1.58,16.77-2.3,36.47,19.24,62.79,19.45,63.05,12.86,15.32,28.71,47.1,21.87,66.66-2.86,8.2-9.28,13.36-19.06,15.34a54.16,54.16,0,0,1-10.73,1.17C245.18,1308.8,236.53,1289.2,225.1,1263.3Zm-78.9-192c-15-8.2-31.15-9.86-37.49-3.85-4.82,4.57-2.55,12.4.21,18.16,5.26,11,11.91,17.78,17.77,23.76,8.16,8.33,14.6,14.9,11.34,27.67-.64,2.5-1.38,5-2.13,7.56-5.18,17.74-10.08,34.49,17.07,46.69,6.37,2.86,12.21,5.16,17.37,7.18,21.48,8.43,35.67,14,50.88,46.1,2.83,6,5.31,11.62,7.72,17.07,13.13,29.76,21.05,47.72,49.76,41.92,8.23-1.66,13.59-5.91,15.93-12.61,6-17.24-8.39-47.43-21.13-62.59-.93-1.12-22.83-27.81-20.42-66,.39-6.21,1-11.93,1.6-17,1.49-13.35,2.57-23-2.38-28.57-4.53-5.09-14.45-7.4-32.16-7.48-35.55-.17-49.59-14.87-60.87-26.68-4.51-4.72-8.41-8.81-13.07-11.35Z"/><path class="cls-9" d="M279.08,1333l4.19-.23c-.21-3.93-5.49-96.75-42.76-123.92-40.89-29.8-53.78-61.83-59.92-83.33-7.23-25.33-44.05-32.1-45.62-32.37l-.73,4.13c.36.06,35.8,6.6,42.31,29.4,6.31,22.09,19.55,55,61.48,85.56C273.7,1238.28,279,1332.08,279.08,1333Z"/><path class="cls-10" d="M272,1353.9c-8.77-4.37-8.45-21.93-8-48.5.61-33.59,1.44-79.58-16.14-121.89-18.67-44.94-2-58.08,14.09-70.78,18-14.23,35.08-27.67,2.38-88.32-15-27.86-19.79-46.7-15-59.3s18-17.31,32-22.44c24.23-8.87,51.69-18.92,48.14-70.21-1.08-15.72.77-25.39,5.82-30.43,5.5-5.47,13.59-4.88,23-4.19,14.16,1,30.21,2.21,44.18-16,1.45-4.56,14.81-45.22,30.79-52.19a11.32,11.32,0,0,1,9.78.06h0c11,5.28,17.43,11.53,19.57,19.13,3.72,13.22-6,28.12-17.17,45.38-17.61,27.12-37.58,57.86-16.87,94.44,27.38,48.37,12.92,65.3-7.1,88.72C410,1030.78,397,1046,388.32,1070.81c-7,20,4.93,39,16.45,57.38,14.46,23.08,29.41,47-2.07,67.66-52,34.24-103.44,146-104,147.14l-.21.47-.4.31c-9.59,7.52-16.57,11.1-21.82,11.1A9.53,9.53,0,0,1,272,1353.9ZM400.4,1192.34c28.05-18.45,15.43-38.59.82-61.92-11.5-18.34-24.52-39.14-16.87-61,8.95-25.55,22.22-41.08,33.92-54.78,19.61-23,32.57-38.12,6.64-83.93-22-38.8-.36-72.07,17-98.8,10.66-16.4,19.86-30.57,16.65-41.95-1.79-6.37-7.46-11.76-17.34-16.48h0a7.19,7.19,0,0,0-6.29,0c-14.83,6.46-28.44,49.51-28.58,49.94l-.11.35-.22.29c-15.4,20.35-33.5,19-48,18-8.7-.64-15.56-1.14-19.7,3s-5.57,13-4.59,27.17c3.77,54.43-26.54,65.52-50.89,74.44-13.68,5-25.5,9.33-29.54,20-4.32,11.37.37,29.11,14.77,55.82,34.38,63.76,15.14,78.93-3.47,93.61-15.56,12.27-30.27,23.86-12.81,65.87,17.92,43.12,17.07,89.62,16.46,123.57-.42,23.18-.75,41.49,5.65,44.67,3.74,1.87,10.9-1.28,21.28-9.36C299.3,1331.74,348.53,1226.47,400.4,1192.34Z"/><path class="cls-11" d="M189.83,866.72c26.49-9.08,21,42,32.18,79.74S346.53,962.94,299,1057.53s60.16,31.64,28,114.18-2.8,170.83-37.78,148.37-19.65-126.4-56-138.75-42.31-26.76-6.3-60.33-94.37-66.92-62.19-134.72S159.23,877.21,189.83,866.72Z"/><path class="cls-12" d="M277,1314.66c3.33-14.13,31.78-138.49,5.24-153.52-23.4-13.25-22.82-64.78-19.17-113.44,3.23-43.07-52.09-63.2-54.45-64l-1.4,4c.55.19,54.65,19.9,51.66,59.77-3.75,50-4.15,103,21.29,117.4,20.15,11.42,1.6,111.36-7.25,148.91Z"/><polygon class="cls-13" points="376.91 1270.38 339.09 1413.86 254.58 1413.86 216.76 1270.38 376.91 1270.38"/><path class="cls-14" d="M376.91,1270.38s-83.25,15.63-83.25,143.48H254.58l-37.82-143.48Z"/><rect class="cls-15" x="1149.21" y="67.63" width="332.25" height="299.23" rx="48.23"/><rect class="cls-4" x="1300.9" y="310.27" width="26.35" height="4.88"/><path class="cls-4" d="M1394.31,121.78v4.78h28.1v26.37h4.77V121.78ZM1203.5,152.93h4.77V126.56h28.1v-4.78H1203.5ZM1422.41,289v26.38h-28.1v4.77h32.87V289Zm-214.14,0h-4.77v31.15h32.87v-4.77h-28.1Z"/><rect class="cls-4" x="861.08" y="533.84" width="35.2" height="6.52"/><path class="cls-4" d="M984.16,282.07v6.38h37.53v35.22h6.38v-41.6Zm-254.87,41.6h6.38V288.45H773.2v-6.38H729.29Zm292.4,181.76v35.24H984.16V547h43.91V505.43Zm-286,0h-6.38V547H773.2v-6.37H735.67Z"/><path class="cls-16" d="M1675.55,739.32h-58.71c-3.86-28.11-8.61-60.2-8.61-60.2s-2.38,26.48-5.26,60.2H1368c-2.14-30.32-4.72-53-5.65-53.48-1.35-.67-9.73,26.23-16.69,53.48h-63.6c16.36-70.47,46.87-183.52,64.51-190.29,25.11-9.66,127.51-41.22,127.51-41.22h58.43s103.84,29.63,113.5,61.84C1653.7,595.32,1670.64,680,1675.55,739.32Z"/><path class="cls-17" d="M1506,318.24s54.57,8.6,46.26,94-56.47,78.37-59.69,78.29-48.34,1.55-51.86-102.68C1440.7,387.82,1439.16,310.74,1506,318.24Z"/><path class="cls-17" d="M1531.46,465.35s-1.49,35.11,1.9,42.72-45,32-74.56,4.81c0,0,7.13-38.17,5.15-51.69S1531.46,465.35,1531.46,465.35Z"/><path class="cls-17" d="M1553.09,388.09s6-6.38,8.17.08-9.27,35.33-8.52,36.63c0,0-1.09,2.5-2.53,1.12S1553.09,388.09,1553.09,388.09Z"/><path class="cls-17" d="M1441.32,387s-5.86-6.49-8.17-.08,8.58,35.51,7.81,36.79c0,0,1,2.52,2.5,1.17S1441.32,387,1441.32,387Z"/><path class="cls-18" d="M1553.07,401.19l-7.82,10.44s.23-22.89-1-26.48-3.17-14.56-4.22-17.15-46.85-15.42-87.32,3.75c0,0,1.78,16.46-2.1,17.93s-2,26.81-2,26.81l-6.42-7.24s-9.84-65.68-7.41-72.53,10.17-48,93.18-23.57c0,0,25.88-5.48,31.07,12.38S1553.07,401.19,1553.07,401.19Z"/><path class="cls-17" d="M1533.36,508.07s12.31,2.62-39.2,52c0,0-36.54-40.42-35.36-47.18S1533.36,508.07,1533.36,508.07Z"/><polygon class="cls-19" points="1494.16 560.06 1508.22 584.11 1549.92 513.29 1531.86 500.7 1494.16 560.06"/><polygon class="cls-19" points="1494.16 560.06 1460.04 505.78 1440.7 518.21 1475.38 584.11 1494.16 560.06"/><path class="cls-19" d="M1483.58,710.47c.42,8,.61,17.82.63,28.85h-1.93c0-11-.21-20.78-.63-28.76-3.16-60.23,11.43-133.51,11.52-150.69l1.89.37C1495,577.42,1480.42,650.49,1483.58,710.47Z"/><path class="cls-20" d="M1469,480.45s13,13.7,31.28,10.05,26.44-12,26.44-12-7.23,18.13-28.4,19.79S1469,480.45,1469,480.45Z"/><path class="cls-21" d="M836.8,284.49h-.12c-1.24-.3-3.18-6.21-3.56-7.39-.09-.32-.28-.91-.55-1.73-1.53-4.73-5.11-15.79-3.71-20,.44-1.34,1.12-2.11,2-2.3,2-.41,4.2,2.08,4.29,2.18l0,.06v.07c.5,4.65,3,27.93,1.92,29A.52.52,0,0,1,836.8,284.49Zm-5.45-31.06a1.47,1.47,0,0,0-.36,0c-.75.15-1.32.82-1.71,2-1.34,4.1,2.33,15.47,3.72,19.75.26.82.46,1.42.55,1.75.9,2.82,2.51,6.89,3.23,7.07a.06.06,0,0,0,.07,0c.68-.92-.89-18-2-28.55C834.5,255.14,832.83,253.43,831.35,253.43Z"/><path class="cls-22" d="M877.36,191.71s30-3.15,40.86,25.86,21,38.5,22.29,53.74c5.16,61.63,33.94,47.69,25.84,83.21s-13.69,40.91-13.69,40.91l-68.81-13.49-69.71.22s27.27-13.62,21.2-42.63S814.14,263,822.69,230.61,859.41,194.18,877.36,191.71Z"/><path class="cls-21" d="M914.05,284.49a.5.5,0,0,1-.37-.16c-1.07-1.06,1.41-24.34,1.92-29v-.07l0-.06c.09-.1,2.33-2.59,4.29-2.18.91.19,1.6,1,2,2.3,1.39,4.24-2.18,15.3-3.71,20-.27.82-.46,1.41-.55,1.73-.38,1.18-2.33,7.09-3.56,7.39Zm2-29c-1.15,10.58-2.72,27.63-2,28.56a.06.06,0,0,0,.06,0c.73-.18,2.33-4.25,3.24-7.08.09-.32.28-.92.55-1.74,1.38-4.28,5.06-15.65,3.71-19.75-.38-1.18-1-1.85-1.7-2C918.3,253.14,916.37,255.11,916,255.46Z"/><path class="cls-23" d="M1018.59,468.82H975.71c-8.89-16.2-16.11-28.88-16.11-28.88s-5.78,10.55-10.26,28.88H805a124.94,124.94,0,0,1-1.87-30.2s-7.72,13.94-16.67,30.2H738c12.87-24.1,37-68,42.46-73.69,6.88-7.21,46.76-34.77,75.24-43.77s44.68-.31,44.68-.31,29.25,5.27,56.29,16C967.27,371.26,996.64,425.5,1018.59,468.82Z"/><path class="cls-24" d="M881.32,208.67s39.78,5.74,34,64.47-40.93,54.06-43.28,54-35.22,1.22-38.06-70.43C833.94,256.72,832.61,203.73,881.32,208.67Z"/><path class="cls-24" d="M899,316.73s-2.46,30.55,3.42,39.7-5,21.57-27.52,17.32-21.18-17-21.18-17,6.3-18.85,4.45-33.94S899,316.73,899,316.73Z"/><path class="cls-22" d="M876.77,230S895.36,249.5,904,259.39s9.63,29,9.63,29,14.54-17.77,8.46-38.45-20.47-60.94-56.9-48.57-37.77,66.78-33.5,93.76C831.68,295.14,848,235.58,876.77,230Z"/><path class="cls-24" d="M913,353.73s-27.58,69.87-44.35,82c0,0-22-71.27-20.48-81.7C848.13,354.05,881.35,341,913,353.73Z"/><path class="cls-22" d="M854.67,336.84s-49.18,43.75-36.42,71.05c10.9,23.3,49.52,9,43.15-15.4S854.67,336.84,854.67,336.84Z"/><path class="cls-25" d="M861.1,324.49s16.95,8,33.44-3.82a21.5,21.5,0,0,1-16.72,10.8C865.68,332.82,861.1,324.49,861.1,324.49Z"/><path class="cls-26" d="M1297.58,162.86s-16.31,61.38-19.71,75.21c-1,4.17-4.28,11.37-8.43,19.58a1.3,1.3,0,0,1-.11.19,15.64,15.64,0,0,0-1.52,5c-.66,5.12,1.3,9.15-2.1,15.22l-.61,2.55h-32.29c3.77-11.19,8.55-25.43,12.38-36.9,3.21-9.68,5.75-17.38,6.43-19.61,2-6.66,9.31-28.22,15.53-42.53,2.17-5,10.53-9.92,17.94-13.48C1291.72,164.93,1297.58,162.86,1297.58,162.86Z"/><path class="cls-27" d="M1276,75.18s-10.3-66.57,44.84-65.34,54.4,34.14,53.42,66.81-22.11,30.22,1.72,75.67-20.64,45.44-20.64,45.44l-34.5-47.41Z"/><path class="cls-21" d="M1314.8,16.22s-37.34,5.9-38.81,59,10.07,64.36,42.74,53.31,43-66.58,43.73-75.17S1365.16,9.84,1314.8,16.22Z"/><path class="cls-28" d="M1380.38,200.79c.13,18.26-20.86,61.94-24.1,75.43-.38,1.57-.79,3-1.2,4.38H1253.17c-.53-6.29-1-11.67-1.28-14.71-.8-10-10.91-31.46-10.57-41.46.35-10.19,5.35-19,12.35-29.88,2.17-3.37,4.46-6.8,6.73-10.15,7.42-10.88,14.83-20.76,18.47-24.17a58.53,58.53,0,0,1,7.43-5.92l0,0a34.16,34.16,0,0,1,7.65-4l32.1-5.13s20,7.24,31.51,9.93C1357.58,155.06,1380,158.34,1380.38,200.79Z"/><path class="cls-29" d="M1286.32,154.29l-18.6,29.32-17.17,27.06c0-.15,1.19-4.24,3.13-16.11.36-2.25.76-4.78,1.18-7.62a21.86,21.86,0,0,1,.54-2.5h0c7.35-16.94,30.07-29.71,30.9-30.14C1286.32,154.3,1286.32,154.29,1286.32,154.29Z"/><path class="cls-21" d="M1339.74,104.59c-3.24,6.11-6.66,44-6.66,44s-45.67,17.26-41,7.5c2.12-4.43,2.74-10.18,2.78-15.14a72.8,72.8,0,0,0-.51-9.22c-.11-1-.21-1.57-.21-1.57S1343,98.47,1339.74,104.59Z"/><path class="cls-27" d="M1299.57,54.3s19.16,31.2,36.6,43.48,8.6,22.11,8.6,22.11,45.51-95.81,2.24-102.44-69.8-7.12-71,57.73C1276,75.18,1295.64,53.81,1299.57,54.3Z"/><path class="cls-30" d="M1320.4,127.87c-7,10.34-25.53,13.13-25.53,13.13h0a72.8,72.8,0,0,0-.51-9.22C1306.26,134.08,1320.4,127.87,1320.4,127.87Z"/><path class="cls-31" d="M1255.48,184.24h0s-1,2.06-1.8,10.32l6.72-10.15s12-17.23,16.13-21.71a69.12,69.12,0,0,1,9.77-8.4S1262.67,165.66,1255.48,184.24Z"/><path class="cls-29" d="M1346.36,209.93s29.31-11.5,38-12.17c0,0-5.9-47.07-34.69-42.08S1346.36,209.93,1346.36,209.93Z"/><path class="cls-21" d="M1294,150.26s-21.52,33.09-14.23,36,46.71-3.86,63.48-35.29C1343.22,151,1318.15,138.1,1294,150.26Z"/><path class="cls-26" d="M1384.35,197.77c-1.49,25.94-8.86,50.55-14.93,73.14-.88,3.27-1.73,6.51-2.52,9.69h-59.68c-.15-8.94-.12-16.83.16-23.42,3-72,25.83-109.88,25.83-109.88s7.29,2.45,28.26,8.39c14.37,4.06,19.8,22.35,21.78,33.44a.42.42,0,0,1,0,.13A79.07,79.07,0,0,1,1384.35,197.77Z"/><path class="cls-26" d="M1294,150.27a171.62,171.62,0,0,0-8.87,17.81c-7.07,16.21-15.9,41.87-16.65,70.15-.24,9.08-2,23.79-4.78,42.37h-11.91a188.81,188.81,0,0,0-6.56-36.9c-1.63-5.79-3.12-10.12-3.93-12.86-3.8-12.92,8.35-30.13,12.41-36.29S1267.49,160.13,1294,150.27Z"/><path class="cls-26" d="M1403.36,280.6h-32a42.66,42.66,0,0,0-1.89-9.69c-5.82-20.7-23.06-61-23.06-61s-25.78-42.13-1.34-52.87,35,19.27,38.23,32.08a.42.42,0,0,1,0,.13C1384.09,192.32,1398.64,247.79,1403.36,280.6Z"/><path class="cls-21" d="M880.7,881.4s11.2-.15,15.19-4.47,11-8.18,13.28-9.28c3-1.47,11.38-9.59,12.43-5.63s-13.31,14-16,16.75,11.93,3.9,14.08,6.54-5.33,30.37-15.1,28.22-17.76-12-19.61-12a52.09,52.09,0,0,1-7.21-1.23Z"/><path class="cls-21" d="M917.56,884.18s29.15,8.9,30.35,11.42.39,4.37-2.39,3.67S917,891.64,917,891.64s31.86,17.42,33.3,19.16c.84,1-.56,4.66-2.1,4.45S913.84,900,913.84,900s29.71,16.33,30.45,18.27c.64,1.69-1.35,4.82-3.65,3.8S909.7,907.8,909.7,907.8s20.7,13.56,20.38,15.79c-.2,1.37-1.28,4.55-6.49.85S905,913.61,905,913.61Z"/><path class="cls-32" d="M819.38,1373.17s9.35,14,22.47,17,26,7.83,26.14,16.11-37.93,13.21-52.94,4.87c-22.41-12.46-24.69-8.7-27.17-14.93s3-22.87,2.82-24.85C790.5,1368.94,819.38,1373.17,819.38,1373.17Z"/><path class="cls-33" d="M817.92,1366.27s1.71,6.76,1.46,6.9-29.56,3.64-28.68-1.78c.72-4.4,1.75-9.18,1.75-9.18Z"/><path class="cls-32" d="M635.34,1372.25s6.68,13.38,18.07,17.94c12.19,4.87,22,10.47,21.73,18.54s-29.78,16.24-51.28.76c-13.59-9.78-17.9-9.83-20.08-16s3.79-22.16,3.71-24.1C607.39,1367,635.34,1372.25,635.34,1372.25Z"/><path class="cls-33" d="M635.68,1365.3s-.08,6.82-.34,7-28.57,2.46-27.85-2.85a43.66,43.66,0,0,1,2.75-9.31Z"/><path class="cls-34" d="M739.53,956.45S776.74,1099,790.9,1131.93c13.13,30.53,17.46,73.22,19.26,94.67,2.28,27,15.8,132,17.4,139.88s-43.77,4.36-43.77,4.36-31.27-181.59-44.26-208.1c-8.66-17.68-58.93-144.5-64.69-137.2S662,1159.92,657.7,1181s-17.34,187.77-17.34,187.77-29.25,4.31-37.06-2.3c0,0-3.55-142.32-.84-181.87,1-15.07-17.66-180.71,6.31-247.39C621.44,902,739.53,956.45,739.53,956.45Z"/><path class="cls-35" d="M532.31,854.25c0,1.63,3.08,8.15,8,17.53,7.19-14.38,12.83-26.18,14.68-30.52,6-14.3,37.26-47.08,37.26-47.08a.32.32,0,0,0,0,.07.06.06,0,0,0,0,0s0,0,0,0l0,.13c0,.08.05.17.08.28s0,.12,0,.18l0,.13c1.7,6.33,12.13,45.89,12.52,65.37.42,21.22,6,60.46,6,60.46h0l6.51.91,14.42,2,1.73.24,4.19.59L676,930,689.6,932l1.83.26,7.75,1.09,21.4,3,5.45.76h.05l4.09.58,5.65.79h0c.15-.21,5.5-7.52,4.67-23.76-.52-10.49-1.79-30.19-1.26-48.47,0-.09,0-.19,0-.28s0-.46,0-.69,0-.16,0-.23v0c.33-10,1.22-19.56,3.09-26.79A111.32,111.32,0,0,0,745,823.89c0-.23.05-.44.08-.66.1-.85.19-1.68.26-2.5a125.73,125.73,0,0,0,.2-22.9l0,0c.38.84,3.17,11.07,6.83,23.69,6.18,21.34,14.84,49.54,18.52,50.89,5.36,2,92.22,27.7,111,30.33,2.17.31,3.43.3,3.55-.08s.17-.55.26-.85c2.28-7.51,5.41-20.28,5.91-22.34.05-.19.07-.29.07-.29l-3.36-1-94.5-28.32-43.2-124.58c-.9-.72-11.51-5.86-19.26-9.54s-17.43-9.29-26-14c-4.4-2.4-8.56-4.6-12.16-6.25l-.55-.25h0l-9.9-4.52h0l-2.58-.24c-8.3-.79-34.08-3.21-42.72-3.72-.72,0-1.31-.07-1.77-.08a8.11,8.11,0,0,0-.87,0c-1.1.06-6.41,1.92-13.4,4.57h0l-.8.31-1,.37-1.85.72c-1.25.48-2.53,1-3.83,1.5l-1.37.54c-14,5.55-30,12.4-33.8,15.14-2.51,1.8-10.34,16.56-19.42,34.81-11.7,37.46-26.52,94.81-27,109C532.32,853.83,532.31,854.05,532.31,854.25Z"/><path class="cls-36" d="M735.83,938.44s2.87,3.44,3.7,18c0,0-118.25-13.79-130.76-19.23,0,0-.49-16.06,2.17-16.33C613.85,920.58,735.83,938.44,735.83,938.44Z"/><path class="cls-21" d="M635,682.68c.36,18.56,36.3,28.72,36.3,28.72s15-18.85,11.44-20.65c-1.41-.71-2-3.52-2.16-6.68a65,65,0,0,1,.21-8.42c.1-1.31.21-2.15.21-2.15s-5.14-5.42-11.67-11.87c-11.41-11.29-27.11-25.75-27.13-20a5.24,5.24,0,0,0,.13,1.09C645.07,655.67,635,682.68,635,682.68Z"/><path class="cls-32" d="M638,923.73s-2.58,16.28-2.81,20.52l-5.47-1.09s1.51-17.22,2.4-20.11Z"/><path class="cls-32" d="M726,936.54s2.07,14.8,2.12,20.39l-5.79-.75s-1.18-18.48-1.84-20.41Z"/><path class="cls-30" d="M648.82,655.49h0c.07.11,1.59,2.39,4.2,5.67,5.51,6.93,15.88,18.33,27.54,22.91a65,65,0,0,1,.21-8.42,18.9,18.9,0,0,0,3.57-.42,110.58,110.58,0,0,0-7.82-11.45l-7.21-2.15Z"/><path class="cls-21" d="M641.92,641.89c3.11,6.76,6.06,11.66,6.9,13.6h0a23.87,23.87,0,0,0,4.2,5.67c5.92,6.38,16.93,14.79,27.75,14.49a18.9,18.9,0,0,0,3.57-.42c4.37-1,9.53-3,12.36-8.55,22.42-43.89,6.19-79.78,6.19-79.78S641.59,569.56,632,588C625.27,601,634.62,626,641.92,641.89Z"/><path class="cls-37" d="M702.89,586.9s5.7-.32,7.1-11.11-1.42-13.62-1.42-13.62-25.31-10.6-34.39-12-31.44-2.7-36.68,3.29c0,0-12.72-3-16.19,18.17-5.5,33.51,18.74,66.06,18.74,66.06s-.2-21.9,4.63-24.8,9,4,9,4l9.88,1.77s-15-32.4,3-33.6S692.59,588.77,702.89,586.9Z"/><path class="cls-21" d="M653.4,608.19c-.94-9.65-18.38-13.33-17.21-3.22s9.75,19.83,13.72,19.48S654.12,615.54,653.4,608.19Z"/><path class="cls-38" d="M540.3,871.78c7.6,14.49,19.59,35.82,31.43,56.51-1.55,2.91-3.08,5.79-4.54,8.64a172.67,172.67,0,0,0-9,20c-2.7,7.55-6.45,26.92.73,30.51l37.83,20.88s.26-.74.77-2.1c1.25-3.4,4-10.67,7.73-20.08.12-.31.5-1.2,1.06-2.53.75-1.77,1.84-4.3,3.08-7.2l1.74-4.07c.69-1.6,1.4-3.25,2.1-4.9l3-7,4.59-10.69.39-.83c1.23-2.66,2.49-5.33,3.78-8,2-4.13,4-8.24,6.12-12.25.21-.41.42-.82.64-1.22.37-.71.75-1.42,1.12-2.11.23-.43.46-.86.7-1.29l.15-.28c.1-.17.19-.34.28-.51,10.94-19.95,23.26-36.63,27.19-61.09q.57-3.54,1.08-7,.85-5.83,1.57-11.48c.18-1.42.36-2.82.53-4.22,2-16.32,3.14-30.86,4.09-41,3-31.56-16.37-65.73-31.21-86.83a232.1,232.1,0,0,0-15.87-20.28l-.07-.08-.8.31-1,.37-1.85.72c-1.25.48-2.53,1-3.83,1.5l-1.37.54c-14.37,5.63-44.63,14-48.44,16.69-2.19,1.57-7.11,16-12.79,34.16-11.69,37.46-18.63,93.94-19,108.05,0,.22,0,.44,0,.64C532.31,855.88,535.39,862.4,540.3,871.78Zm57.49-7c0,7-2.29,15.1-5.81,23.69l-.27.64c-2.42-5.17-4.71-10.13-6.76-14.72v0c-5.63-12.6-9.5-22.43-9.71-26.32-1.4-25,17-53.75,17-53.75a.06.06,0,0,0,0,0s0,0,0,0l0,.13c0,.1.06.19.08.28s0,.12,0,.18l0,.13C596.23,809.9,597.79,864.73,597.79,864.73Z"/><path class="cls-39" d="M669.64,958.88l-107.83,48a12.09,12.09,0,0,1-16-6.13l-29.52-66.32a12.09,12.09,0,0,1,6.13-16l107.83-48a12.09,12.09,0,0,1,16,6.13l29.52,66.33A12.09,12.09,0,0,1,669.64,958.88Z"/><path class="cls-38" d="M692.9,695.74s5.05,16.84,11.59,58.86v0c.22,1.41.44,2.85.66,4.31,0,.17.05.34.08.51.15,1,.3,2,.44,3l.06.35c.1.67.2,1.34.29,2,.25,1.66.5,3.35.74,5.07,2.92,20.46,7,55.27,11,90.41v0c3.11,27.7,10.19,56.12,12.44,77.33,0,0,0,0,0,0a148.75,148.75,0,0,0,2.94,15.94c.16.71.33,1.43.5,2.15,6.34,26.77,18.64,64.67,18.64,64.67l3.59-3.31,10.61-9.79a8.6,8.6,0,0,0,2.38-8.88c-5.88-19-25.89-86.19-29.55-133.43a.09.09,0,0,1,0,0c1.8-16.6,6.4-38.87,5.71-42.08,0,.12.09.23.13.35,2.11,5.86,4.44,12.22,6.79,18.42h0c6.32,16.65,12.78,32.08,15.47,33.06,6,2.2,113.5,33.92,114.28,29.5.08-.45.17-.93.27-1.43l.32-1.55c1.33-6.06,3.74-14.75,5.42-20.62l.69-2.39c.71-2.43,1.17-4,1.17-4L798.6,844.41l-45.88-120c-.9-.71-12.61-7-20.36-10.7-8.07-3.85-18.28-8.59-27.34-12.77-4.32-2-8.4-3.87-11.84-5.45Z"/><path class="cls-40" d="M631.34,737.33l17.48,9.86-7.47,7.62,19.89,107.38c4-25.17,5.9-49.07,7.27-63.73,4.57-48.78-44.12-103.82-47.15-107.19-2.34.89-4.87,1.87-7.48,2.9Z"/><path class="cls-40" d="M692.63,695.27s6.53,21.33,14.14,74.58c2.92,20.46,7,55.27,11,90.41l4.07-100.56-8.33-9,7.41-9.25L705,701c-4.32-2-8.4-3.87-11.84-5.45Z"/><path class="cls-41" d="M620.38,691.64l14.6-9s.4,8,36.3,28.72l-10.19,28.71Z"/><path class="cls-41" d="M680.83,686.69s-.57,8.58-9.55,24.71l19.9,25.93,1.45-42.06Z"/><path class="cls-42" d="M671.23,711.4s-3.86,15.42-2.47,19.74c0,0,8.48,3.08,14.57-.77C683.33,730.37,679,719.57,671.23,711.4Z"/><path class="cls-43" d="M691.16,933.83c2.16-10.88.1-43.49,0-44.87l-1.84.12c0,.33,2.12,33.75,0,44.39Z"/><path class="cls-44" d="M676.06,928.81s17.4,2.08,23.16,3.52l-.76,19.5-22.78-2.43Z"/><path class="cls-42" d="M679.87,729s19.41,49,16.24,103.87c-3.28,56.87-8.66,77.5-8.66,77.5l-12,15-5.28-18.44s16.06-72.51,5.69-143.07c-1.87-12.79-4.66-37-4.66-37Z"/><path class="cls-21" d="M621.55,960.43s4.17,8.33,8.33,9.72,10.24,8.15,10.24,8.15L610.8,993.75s-7.81-15.27-8.16-25S621.55,960.43,621.55,960.43Z"/><path class="cls-35" d="M624.34,961.21l1.94,3.91s-18.62,13.62-23.64,14.49l-1.73-5.21Z"/><path class="cls-38" d="M626.28,961.38s-14,11.55-25.72,16.87l-52.68-92.38,33.63-18.39S625.35,954.44,626.28,961.38Z"/><path class="cls-34" d="M744.43,798c.65,13.16.55,24.85.55,24.85h0c0,.06,0,.42,0,1,0-.23.05-.44.08-.66,2.11,5.86,4.44,12.22,6.79,18.42a196.52,196.52,0,0,0,.53-20.08c-.94-36.9-12.55-56.25-12.55-56.25C742.54,771.75,743.82,785.55,744.43,798Z"/><path class="cls-21" d="M1202.24,676.36s-.55-6.78.25-10c1.38-5.46-.65-14.32,6.22-18.61s26.64,13.69,28.19,18.71-5.83,13.59-21.28,20.79S1202.24,676.36,1202.24,676.36Z"/><path class="cls-21" d="M1206.61,649.58a233.66,233.66,0,0,1,15.48-20.3c7.73-9,18.57-19.09,20.86-17.17,3.48,2.91-6.36,10.16-13.42,19.6-6.49,8.69-3.74,8.08-3.74,8.08s-.79.13,8.15-7.95c9.62-8.69,20.31-17.63,22.21-16.09,2.36,1.9,2.5,2.33-.47,6.06,2.17-1.77,3-1.42,3.81-.58,4.33,4.34-7.78,19.33-12.59,25.28,3.72-4.55,6.95-7.48,7.88-3.11,1.06,5-17,25.41-22.8,33.34C1225.69,685.4,1206.61,649.58,1206.61,649.58Z"/><path class="cls-45" d="M975.43,1370.63s18.81,11.12,27.32,15.25,41.61,5.32,44.88,8.43,2.07,13-3.41,14-45.7,4.64-59.12,1.5-38.52,2.15-44.08.26-2-31.85.18-38.57S975.43,1370.63,975.43,1370.63Z"/><path class="cls-46" d="M977,1358.38l-1.57,12.25s-25.14,4.7-32.76.83l1.89-12.73Z"/><path class="cls-47" d="M1077.87,939.94c-.27,8.48-1.81,26.89-3.61,46.22-.4,4.29-.83,8.64-1.24,12.92-2.51,26-5,50.07-5,50.07-3.18,20.71-9.73,56.66-17,83.84h0c-2.11,7.84-4.29,15-6.47,20.76-2.12,5.65-4.25,10.06-6.31,12.71-15.59,19.9-51.31,196.36-51.31,196.36l-48.77-.37s10.72-119.49,21.5-149.78c12-33.82,32.93-79.41,27.74-112-3.25-20.47-7.44-85.64-7.44-85.64S975.8,941.77,995,888.14C999.73,874.74,1077.87,939.94,1077.87,939.94Z"/><path class="cls-45" d="M1112.48,1375.22s18.68,11.34,27.14,15.57,41.54,5.82,44.77,9,1.92,13-3.58,14-45.75,4.1-59.13.8-38.54,1.68-44.07-.27-1.6-31.87.63-38.57S1112.48,1375.22,1112.48,1375.22Z"/><path class="cls-46" d="M1114.2,1363l-1.72,12.23s-25.2,4.4-32.77.43l2-12.7Z"/><path class="cls-47" d="M1055.9,1188c-1.27-39-4.72-65-14.76-87.5-8.43-18.94-15.65-78.4-15.65-78.4s-22.86-69.68-18.23-126.45c1.16-14.18,89.51,21.47,89.51,21.47,1.93,8.26,7.84,34.27,9.94,53.57,12,110.22,7.48,182,7.48,182-6.83,24.34,10.43,215.84,10.43,215.84H1074.9s-13-68.12-14.41-110.49C1060.49,1258.07,1055.41,1194.75,1055.9,1188Z"/><path class="cls-48" d="M1054.79,683s23.17,38,29.94,59.17,1.32,82.82,2.51,95.21c3.71,38.43,9.12,80.73,9.12,80.73l-77.67,49.61A769.53,769.53,0,0,1,992.6,894.6c-12.16-40.54-13.14-77-13-101.44.35-76.51,41.71-119.71,41.71-119.71Z"/><path class="cls-21" d="M1083.33,581.11s15.93,17,11.43,21.52c-3.71,3.71,10.93,20.69,13,23.55s-6.5,7.58-7.92,10.14-.58,29.3-7.95,32-44.59-.16-56.41-7.38-30.9-48.83-29.53-68.86S1055.32,551.39,1083.33,581.11Z"/><path class="cls-21" d="M1068.27,662.59s-.27,2.27-.63,5.79c-.14,1.48-.32,3.16-.48,5-.09,1.09-.18,2.25-.3,3.43,0,.32-.06.64-.09,1,0,.54-.09,1.09-.13,1.65-.18,2.57-.37,5.23-.5,7.86-.34,6.79-.39,13.29.34,16.9,2,9.91-40.71-31.89-40.71-31.89a488.41,488.41,0,0,0,1.86-68.85C1025.86,567,1068.27,662.59,1068.27,662.59Z"/><path class="cls-49" d="M1086.6,584.85s7.53-17.77-15.7-30.11c-27.35-14.53-56.35,21.94-60.2,24.09s-21.34,21.83-4.22,47.92c21.59,32.91,20.45,31.81,20.45,31.81s2.17-24.28,2-29c-.26-8.56,22.2-9.58,22.2-9.58s-9.22-12.28,1-17.79S1074.45,583.65,1086.6,584.85Z"/><path class="cls-21" d="M1039.37,616.9c-1.64-2.29-7.64-12.44-15.36-3.53s13,25.57,14.69,25.4S1053.13,636.24,1039.37,616.9Z"/><path class="cls-50" d="M1100.6,934.47s-3.86-18.17-4.61-20.89l-113.58,18.9,1.16,14.68S1065.41,942.26,1100.6,934.47Z"/><path class="cls-51" d="M972.3,854.42s17.45,75.36-9.88,163.27c-3.34,10.73,75.64-1.67,75.64-1.67Z"/><path class="cls-51" d="M1072.63,1010.5s-56.1,12.31-71.86,6.74c0,0-22.93-83.4-30.93-168.06-.62-6.54-1.14-13.09-1.56-19.59v0c-4.47-68.87,13.06-138.74,53-156.11,1.13.76,57.38,50.35,56.32,95.75-.08,3.07-.12,6.16-.14,9.24,0,5.58,0,11.18.12,16.76h0c.36,17.27,1.43,34.49,3,51.22.16,1.74.32,3.49.49,5.21q.42,4.23.86,8.38.6,5.55,1.25,11C1092.22,946.79,1072.63,1010.5,1072.63,1010.5Z"/><path class="cls-42" d="M1070.32,716.16a624.06,624.06,0,0,1,14.6,94.48c3.37,44,7.87,75.19,7.87,75.19l6.74,21.81,2.78-21s-2.48-56.84-5.78-80c-3.32-23.31-4.77-52.91-23.41-91.3Z"/><path class="cls-42" d="M1069.14,716.19a6.3,6.3,0,0,0,3.08,1.49c1.8.27,4.38-2.62-4.83-14.78Z"/><path class="cls-52" d="M1026.27,667.17s26.12,24.6,41.67,30l3,23.56-49.61-47.31Z"/><path class="cls-51" d="M1043.8,762.41c-10.29-3.66-53.08-24.43-41.7-48.68s40.72-11.35,62.8-1.49c23.11,10.32,77.66,42,82,39.09s23.18-30,26.59-36,24-44.48,26-47.38,31.81,22.3,31.81,22.3-53.72,95.4-68.17,110.59S1043.8,762.41,1043.8,762.41Z"/><path class="cls-45" d="M1050.93,1133h0c-2.11,7.84-4.29,15-6.47,20.76h0l-17-101.47C1031.75,1061.91,1050.93,1133,1050.93,1133Z"/><path class="cls-51" d="M1077.58,795.21,1028.36,755c13,7,45.08,21.62,49.1,23.44C1077.42,784,1077.46,789.63,1077.58,795.21Z"/><path class="cls-30" d="M1067.64,668.38c-.14,1.48-.32,3.16-.48,5-.09,1.09-.18,2.25-.3,3.43-16.31-1.09-28.91-14.08-29.68-14.88C1043.81,667.2,1067.64,668.38,1067.64,668.38Z"/><g class="cls-53"><polygon class="cls-54" points="1706.84 294.48 1732.68 294.48 1724.77 278.07 1698.93 278.07 1706.84 294.48"/><polygon class="cls-54" points="1694.74 294.48 1700.9 294.48 1692.99 278.07 1686.84 278.07 1694.74 294.48"/><polygon class="cls-54" points="1605.46 274.94 1710.1 274.94 1706.63 266.73 1601.99 266.73 1605.46 274.94"/></g><rect class="cls-54" x="1001.55" width="44.34" height="13.36" rx="2.42"/><rect class="cls-54" x="1001.55" y="32.04" width="44.34" height="13.36" rx="2.42"/><rect class="cls-54" x="1001.55" y="64.09" width="44.34" height="13.36" rx="2.42"/><rect class="cls-54" x="1064.21" width="12.62" height="13.36" rx="2.42"/><rect class="cls-54" x="1064.21" y="32.04" width="12.62" height="13.36" rx="2.42"/><rect class="cls-54" x="1064.21" y="64.09" width="12.62" height="13.36" rx="2.42"/><polygon class="cls-54" points="875.26 771.15 921.65 771.15 907.46 741.71 861.07 741.71 875.26 771.15"/><polygon class="cls-54" points="853.56 771.15 864.61 771.15 850.41 741.71 839.36 741.71 853.56 771.15"/></svg>