<svg xmlns="http://www.w3.org/2000/svg" xmlns:xlink="http://www.w3.org/1999/xlink" viewBox="0 0 468.1 410.67"><defs><style>.cls-1,.cls-18,.cls-20,.cls-32,.cls-34{fill:none;}.cls-2{isolation:isolate;}.cls-3{fill:#3662a3;opacity:0.29;mix-blend-mode:multiply;}.cls-4{fill:#4d8c5f;}.cls-5{fill:#55c670;}.cls-6{fill:#58a86e;}.cls-7{fill:#a0b1ea;}.cls-8{fill:#8b9fd8;}.cls-9{fill:#51608e;}.cls-10,.cls-14{fill:#6270a8;}.cls-11{fill:#8a223d;}.cls-12{fill:#7688c4;}.cls-13{fill:url(#Degradado_sin_nombre_6);}.cls-14,.cls-27{opacity:0.5;}.cls-15{fill:#adc1f7;}.cls-16{fill:#f6f4ff;}.cls-17{clip-path:url(#clip-path);}.cls-18,.cls-20{stroke:#6270a8;}.cls-18,.cls-20,.cls-32,.cls-34{stroke-miterlimit:10;}.cls-18,.cls-32{stroke-width:2px;}.cls-19{fill:#ffad1d;}.cls-21{fill:#b5c7f7;}.cls-22{fill:#c7d8ff;}.cls-23{clip-path:url(#clip-path-2);}.cls-24{fill:#a12747;}.cls-25{clip-path:url(#clip-path-3);}.cls-26{clip-path:url(#clip-path-4);}.cls-27,.cls-33{fill:#8d9ace;}.cls-28{fill:#e4eff9;}.cls-29{fill:#d7e7f2;}.cls-30{fill:#f3faff;opacity:0.86;}.cls-31{clip-path:url(#clip-path-5);}.cls-32,.cls-34{stroke:#8d9ace;}.cls-35{fill:#383854;}.cls-36{fill:#4e4e72;}.cls-37{fill:#363651;}.cls-38{fill:#3e3d5e;}.cls-39{fill:#e8e7f7;}.cls-40{fill:#edb29a;}.cls-41{fill:#d88d87;}.cls-42{fill:#34344f;}.cls-43{fill:#fbf2eb;}.cls-44{fill:#daceea;}.cls-45{fill:#e84242;}.cls-46{fill:#b73074;}.cls-47{fill:#d3ebf2;}.cls-48{fill:#8fb4bc;}.cls-49{fill:#749ea5;}.cls-50{fill:#fcfcfc;opacity:0.35;mix-blend-mode:color-dodge;}.cls-51{fill:#9d9dc6;}.cls-52{fill:#936355;}.cls-53{fill:#7f4f44;}.cls-54{fill:#50005f;}.cls-55{fill:#7f007d;}</style><linearGradient id="Degradado_sin_nombre_6" x1="234.25" y1="161.11" x2="232.45" y2="370.9" gradientUnits="userSpaceOnUse"><stop offset="0.18" stop-color="#fff" stop-opacity="0"/><stop offset="0.34" stop-color="#fff" stop-opacity="0.01"/><stop offset="0.45" stop-color="#fefeff" stop-opacity="0.05"/><stop offset="0.54" stop-color="#fcfdfe" stop-opacity="0.11"/><stop offset="0.63" stop-color="#fafcfe" stop-opacity="0.2"/><stop offset="0.71" stop-color="#f7fafd" stop-opacity="0.31"/><stop offset="0.79" stop-color="#f3f8fc" stop-opacity="0.45"/><stop offset="0.87" stop-color="#eef5fb" stop-opacity="0.62"/><stop offset="0.94" stop-color="#e9f2fa" stop-opacity="0.81"/><stop offset="1" stop-color="#e4eff9"/></linearGradient><clipPath id="clip-path"><circle class="cls-1" cx="100.43" cy="64.2" r="37.96" transform="translate(-6.59 116.7) rotate(-58.72)"/></clipPath><clipPath id="clip-path-2"><circle class="cls-1" cx="164.62" cy="81.55" r="39.87" transform="translate(-1.12 2.3) rotate(-0.8)"/></clipPath><clipPath id="clip-path-3"><circle class="cls-1" cx="372.09" cy="64.2" r="37.96" transform="translate(121.85 346.97) rotate(-58.28)"/></clipPath><clipPath id="clip-path-4"><circle class="cls-1" cx="308.59" cy="81.55" r="39.87"/></clipPath><clipPath id="clip-path-5"><circle class="cls-1" cx="239.31" cy="76.42" r="49.66" transform="translate(110.33 292) rotate(-76.82)"/></clipPath></defs><title>Staffing solution image</title><g class="cls-2"><g id="OBJECTS"><ellipse class="cls-3" cx="234.05" cy="378.88" rx="234.05" ry="31.79"/><path class="cls-4" d="M351.63,296.78c0-17.22-26-16.18-32.65,7.42Z"/><path class="cls-4" d="M349.93,296.78c0-17.22,26-16.18,32.65,7.42Z"/><path class="cls-5" d="M351.63,296.78c0-24.27-17-31.84-34.14-27.83l24.94,28.5Z"/><path class="cls-6" d="M347.48,296.78c0-24.27,17-31.84,34.14-27.83l-24.94,28.5Z"/><path class="cls-7" d="M358.62,306.82v-3.14l5.75-5.75v-2.35H336.66v2.35l5.76,5.75v3.14s-9.68,4.71-9.42,18.3,6.83,32.78,6.83,32.78H361.2s6.57-19.18,6.83-32.78S358.62,306.82,358.62,306.82Z"/><path class="cls-8" d="M364.37,297.93H351.5s-.88,6.34-5.1,8.79c0,0,10.82,0,14.9,13.24,5.3,17.16-3.72,33.33-18.37,37.94H361.2s6.57-19.18,6.83-32.78-9.41-18.3-9.41-18.3v-3.14Z"/><path class="cls-4" d="M119.66,296.78c0-17.22-26-16.18-32.66,7.42Z"/><path class="cls-4" d="M118,296.78c0-17.22,26-16.18,32.66,7.42Z"/><path class="cls-5" d="M119.66,296.78c0-24.27-17-31.84-34.14-27.83l24.94,28.5Z"/><path class="cls-6" d="M115.5,296.78c0-24.27,17-31.84,34.15-27.83l-24.94,28.5Z"/><path class="cls-7" d="M126.65,306.82v-3.14l5.75-5.75v-2.35H104.69v2.35l5.75,5.75v3.14s-9.67,4.71-9.41,18.3,6.83,32.78,6.83,32.78h21.37s6.57-19.18,6.83-32.78S126.65,306.82,126.65,306.82Z"/><path class="cls-8" d="M132.4,297.93H119.53s-.89,6.34-5.1,8.79c0,0,10.82,0,14.9,13.24,5.3,17.16-3.72,33.33-18.37,37.94h18.27s6.57-19.18,6.83-32.78-9.41-18.3-9.41-18.3v-3.14Z"/><ellipse class="cls-9" cx="234.05" cy="368.57" rx="42.44" ry="13.89"/><ellipse class="cls-10" cx="234.05" cy="365.43" rx="41.22" ry="11.18"/><ellipse class="cls-11" cx="234.05" cy="361.7" rx="29.33" ry="6.14"/><path class="cls-12" d="M202.51,360.9s-7.82,8.11,27.85,9a60.46,60.46,0,0,1-22.66.21C195.35,367.84,197.25,362.36,202.51,360.9Z"/><path class="cls-13" d="M398.93,184.47H69.17L207.81,361c1.49,2.73,12.67,4.86,26.26,4.86s24.63-2.11,26.22-4.82h0Z"/><polygon class="cls-14" points="58.44 9.6 58.44 9.6 37.54 9.6 37.54 41.08 37.54 41.08 37.54 77.04 37.54 77.04 37.54 191.01 37.54 191.01 154.49 191.01 154.49 145.43 154.49 100.16 154.49 74.93 154.49 9.6 58.44 9.6"/><rect class="cls-7" x="41.96" y="5.8" width="116.95" height="181.41"/><path class="cls-8" d="M158.91,141.63C115.75,140,72.51,92,42,73.24v114h117Z"/><path class="cls-15" d="M42,37.28c41.9,45.74,86.53,57.43,117,59.08V71.13c-28.76-2.72-67.33-16.65-96-65.33H42Z"/><circle class="cls-16" cx="100.43" cy="64.2" r="37.96" transform="translate(-6.59 116.7) rotate(-58.72)"/><g class="cls-17"><path class="cls-10" d="M117,62.18c0,11-7.42,19.85-16.59,19.85S83.84,73.14,83.84,62.18s7.43-17.75,16.59-17.75S117,51.21,117,62.18Z"/><path class="cls-10" d="M119.37,106.61H81.49l1.72-14.43a8,8,0,0,1,7.94-7.06h18.56a8,8,0,0,1,8,7.06Z"/><polygon class="cls-10" points="107.35 89.73 93.52 89.73 95.37 73.47 105.5 73.47 107.35 89.73"/><path class="cls-10" d="M82.8,59.86c-1.89.31-3,3.06-2.5,6.12s2.47,5.29,4.37,5,3-3.06,2.5-6.12S84.7,59.54,82.8,59.86Z"/><path class="cls-10" d="M118.56,59.86c-1.9-.32-3.85,1.9-4.37,5s.61,5.8,2.5,6.12,3.85-1.91,4.37-5S120.45,60.17,118.56,59.86Z"/></g><circle class="cls-18" cx="100.43" cy="64.2" r="37.96" transform="translate(-6.59 116.7) rotate(-58.72)"/><path class="cls-10" d="M133,120.68h-65a5.7,5.7,0,0,1-5.71-5.7h0a5.71,5.71,0,0,1,5.71-5.71h65a5.71,5.71,0,0,1,5.71,5.71h0A5.71,5.71,0,0,1,133,120.68Z"/><rect class="cls-10" x="68.51" y="124.53" width="63.85" height="3.57"/><rect class="cls-10" x="64.5" y="153.97" width="28.42" height="2.25"/><rect class="cls-10" x="64.5" y="157.88" width="16.51" height="2.25"/><circle class="cls-19" cx="58.87" cy="157.36" r="3.58"/><rect class="cls-10" x="64.5" y="168.42" width="28.42" height="2.25"/><rect class="cls-10" x="64.5" y="172.33" width="16.51" height="2.25"/><path class="cls-19" d="M62.45,171.81a3.58,3.58,0,1,1-3.58-3.58A3.58,3.58,0,0,1,62.45,171.81Z"/><rect class="cls-10" x="117.15" y="153.97" width="28.42" height="2.25"/><rect class="cls-10" x="117.15" y="157.88" width="16.51" height="2.25"/><path class="cls-19" d="M115.1,157.36a3.58,3.58,0,1,1-3.58-3.58A3.58,3.58,0,0,1,115.1,157.36Z"/><rect class="cls-10" x="117.15" y="168.42" width="28.42" height="2.25"/><rect class="cls-10" x="117.15" y="172.33" width="16.51" height="2.25"/><path class="cls-19" d="M115.1,171.81a3.58,3.58,0,1,1-3.58-3.58A3.58,3.58,0,0,1,115.1,171.81Z"/><polygon class="cls-11" points="69.57 136.72 67.63 133.9 65.69 136.72 62.41 137.69 64.5 140.41 64.4 143.83 67.63 142.68 70.86 143.83 70.76 140.41 72.85 137.69 69.57 136.72"/><polygon class="cls-11" points="84.03 133.9 82.1 136.72 78.81 137.69 80.9 140.41 80.81 143.83 84.03 142.68 84.05 142.69 84.05 133.92 84.03 133.9"/><polygon class="cls-10" points="87.17 140.41 89.25 137.69 85.97 136.72 84.05 133.92 84.05 142.69 87.26 143.83 87.17 140.41"/><polygon class="cls-10" points="102.37 136.72 100.43 133.9 98.5 136.72 95.21 137.69 97.3 140.41 97.21 143.83 100.43 142.68 103.66 143.83 103.57 140.41 105.66 137.69 102.37 136.72"/><polygon class="cls-10" points="118.77 136.72 116.83 133.9 114.9 136.72 111.61 137.69 113.7 140.41 113.61 143.83 116.83 142.68 120.06 143.83 119.97 140.41 122.06 137.69 118.77 136.72"/><polygon class="cls-10" points="138.46 137.69 135.17 136.72 133.24 133.9 131.3 136.72 128.01 137.69 130.1 140.41 130.01 143.83 133.24 142.68 136.46 143.83 136.37 140.41 138.46 137.69"/><polygon class="cls-20" points="69.57 136.72 67.63 133.9 65.69 136.72 62.41 137.69 64.5 140.41 64.4 143.83 67.63 142.68 70.86 143.83 70.76 140.41 72.85 137.69 69.57 136.72"/><polygon class="cls-20" points="85.97 136.72 84.03 133.9 82.1 136.72 78.81 137.69 80.9 140.41 80.81 143.83 84.03 142.68 87.26 143.83 87.17 140.41 89.25 137.69 85.97 136.72"/><polygon class="cls-20" points="102.37 136.72 100.43 133.9 98.5 136.72 95.21 137.69 97.3 140.41 97.21 143.83 100.43 142.68 103.66 143.83 103.57 140.41 105.66 137.69 102.37 136.72"/><polygon class="cls-20" points="118.77 136.72 116.83 133.9 114.9 136.72 111.61 137.69 113.7 140.41 113.61 143.83 116.83 142.68 120.06 143.83 119.97 140.41 122.06 137.69 118.77 136.72"/><polygon class="cls-20" points="138.46 137.69 135.17 136.72 133.24 133.9 131.3 136.72 128.01 137.69 130.1 140.41 130.01 143.83 133.24 142.68 136.46 143.83 136.37 140.41 138.46 137.69"/><polygon class="cls-14" points="120.51 24.19 120.51 24.19 98.56 24.19 98.56 57.26 98.56 57.26 98.56 95.02 98.56 95.02 98.56 214.74 98.56 214.74 221.4 214.74 221.4 166.86 221.4 119.31 221.4 92.82 221.4 24.19 120.51 24.19"/><rect class="cls-21" x="103.2" y="20.2" width="122.84" height="190.55"/><path class="cls-7" d="M226,162.87c-45.33-1.76-90.75-52.1-122.84-71.84V210.75H226Z"/><path class="cls-22" d="M103.2,53.26c44,48.05,90.89,60.32,122.84,62.06V88.82C195.83,86,155.32,71.33,125.15,20.2h-22Z"/><circle class="cls-16" cx="164.62" cy="81.55" r="39.87" transform="translate(-1.12 2.3) rotate(-0.8)"/><g class="cls-23"><path class="cls-7" d="M182,79.42c0,11.51-7.8,20.85-17.42,20.85s-17.43-9.34-17.43-20.85S155,60.77,164.62,60.77,182,67.9,182,79.42Z"/><path class="cls-7" d="M184.51,126.09H144.72l1.8-15.16a8.42,8.42,0,0,1,8.35-7.42h19.5a8.4,8.4,0,0,1,8.34,7.42Z"/><polygon class="cls-7" points="171.88 108.36 157.35 108.36 159.3 91.28 169.94 91.28 171.88 108.36"/><path class="cls-7" d="M146.1,77c-2,.33-3.17,3.21-2.63,6.43s2.6,5.56,4.59,5.22,3.17-3.21,2.63-6.43S148.09,76.64,146.1,77Z"/><path class="cls-7" d="M183.65,77c-2-.34-4,2-4.58,5.22s.64,6.1,2.63,6.43,4-2,4.58-5.22S185.64,77.31,183.65,77Z"/></g><circle class="cls-18" cx="164.62" cy="81.55" r="39.87" transform="translate(-1.12 2.3) rotate(-0.8)"/><path class="cls-10" d="M198.77,140.87H130.46a6,6,0,0,1-6-6h0a6,6,0,0,1,6-6h68.31a6,6,0,0,1,6,6h0A6,6,0,0,1,198.77,140.87Z"/><rect class="cls-10" x="131.09" y="144.91" width="67.07" height="3.75"/><rect class="cls-10" x="126.88" y="175.83" width="29.85" height="2.36"/><rect class="cls-10" x="126.88" y="179.94" width="17.34" height="2.36"/><circle class="cls-24" cx="120.97" cy="179.39" r="3.76"/><rect class="cls-10" x="126.88" y="191.01" width="29.85" height="2.36"/><rect class="cls-10" x="126.88" y="195.11" width="17.34" height="2.36"/><path class="cls-24" d="M124.72,194.57a3.76,3.76,0,1,1-3.75-3.76A3.76,3.76,0,0,1,124.72,194.57Z"/><rect class="cls-10" x="182.17" y="175.83" width="29.85" height="2.36"/><rect class="cls-10" x="182.17" y="179.94" width="17.34" height="2.36"/><path class="cls-24" d="M180,179.39a3.76,3.76,0,1,1-3.76-3.75A3.76,3.76,0,0,1,180,179.39Z"/><rect class="cls-10" x="182.17" y="191.01" width="29.85" height="2.36"/><rect class="cls-10" x="182.17" y="195.11" width="17.34" height="2.36"/><path class="cls-24" d="M180,194.57a3.76,3.76,0,1,1-3.76-3.76A3.76,3.76,0,0,1,180,194.57Z"/><polygon class="cls-11" points="132.2 157.72 130.16 154.75 128.13 157.72 124.68 158.73 126.87 161.58 126.78 165.18 130.16 163.97 133.55 165.18 133.46 161.58 135.65 158.73 132.2 157.72"/><polygon class="cls-11" points="147.39 154.75 145.36 157.72 141.91 158.73 144.1 161.58 144 165.18 147.39 163.97 147.41 163.98 147.41 154.77 147.39 154.75"/><polygon class="cls-11" points="150.68 161.58 152.88 158.73 149.43 157.72 147.41 154.77 147.41 163.98 150.78 165.18 150.68 161.58"/><polygon class="cls-10" points="166.65 157.72 164.62 154.75 162.59 157.72 159.13 158.73 161.33 161.58 161.23 165.18 164.62 163.97 168.01 165.18 167.91 161.58 170.1 158.73 166.65 157.72"/><polygon class="cls-10" points="183.88 157.72 181.85 154.75 179.81 157.72 176.36 158.73 178.56 161.58 178.46 165.18 181.85 163.97 185.24 165.18 185.14 161.58 187.33 158.73 183.88 157.72"/><polygon class="cls-10" points="204.56 158.73 201.11 157.72 199.07 154.75 197.04 157.72 193.59 158.73 195.78 161.58 195.68 165.18 199.07 163.97 202.46 165.18 202.36 161.58 204.56 158.73"/><polygon class="cls-20" points="132.2 157.72 130.16 154.75 128.13 157.72 124.68 158.73 126.87 161.58 126.78 165.18 130.16 163.97 133.55 165.18 133.46 161.58 135.65 158.73 132.2 157.72"/><polygon class="cls-20" points="149.43 157.72 147.39 154.75 145.36 157.72 141.91 158.73 144.1 161.58 144 165.18 147.39 163.97 150.78 165.18 150.68 161.58 152.88 158.73 149.43 157.72"/><polygon class="cls-20" points="166.65 157.72 164.62 154.75 162.59 157.72 159.13 158.73 161.33 161.58 161.23 165.18 164.62 163.97 168.01 165.18 167.91 161.58 170.1 158.73 166.65 157.72"/><polygon class="cls-20" points="183.88 157.72 181.85 154.75 179.81 157.72 176.36 158.73 178.56 161.58 178.46 165.18 181.85 163.97 185.24 165.18 185.14 161.58 187.33 158.73 183.88 157.72"/><polygon class="cls-20" points="204.56 158.73 201.11 157.72 199.07 154.75 197.04 157.72 193.59 158.73 195.78 161.58 195.68 165.18 199.07 163.97 202.46 165.18 202.36 161.58 204.56 158.73"/><polygon class="cls-14" points="330.1 9.6 330.1 9.6 309.19 9.6 309.19 41.08 309.19 41.08 309.19 77.04 309.19 77.04 309.19 191.01 309.19 191.01 426.14 191.01 426.14 145.43 426.14 100.16 426.14 74.93 426.14 9.6 330.1 9.6"/><rect class="cls-7" x="313.61" y="5.8" width="116.95" height="181.41"/><path class="cls-8" d="M430.56,141.63C387.41,140,344.16,92,313.61,73.24v114h117Z"/><path class="cls-15" d="M313.61,37.28c41.91,45.74,86.54,57.43,117,59.08V71.13C401.8,68.41,363.24,54.48,334.51,5.8h-20.9Z"/><circle class="cls-16" cx="372.09" cy="64.2" r="37.96" transform="translate(121.85 346.97) rotate(-58.28)"/><g class="cls-25"><path class="cls-10" d="M388.68,62.18c0,11-7.43,19.85-16.59,19.85S355.5,73.14,355.5,62.18s7.42-17.75,16.59-17.75S388.68,51.21,388.68,62.18Z"/><path class="cls-10" d="M391,106.61H353.14l1.72-14.43a8,8,0,0,1,7.94-7.06h18.57a8,8,0,0,1,7.94,7.06Z"/><polygon class="cls-10" points="379 89.73 365.17 89.73 367.02 73.47 377.15 73.47 379 89.73"/><path class="cls-10" d="M354.46,59.86c-1.9.31-3,3.06-2.5,6.12s2.46,5.29,4.36,5,3-3.06,2.5-6.12S356.35,59.54,354.46,59.86Z"/><path class="cls-10" d="M390.21,59.86c-1.9-.32-3.85,1.9-4.37,5s.61,5.8,2.51,6.12,3.85-1.91,4.36-5S392.1,60.17,390.21,59.86Z"/></g><circle class="cls-18" cx="372.09" cy="64.2" r="37.96" transform="translate(121.85 346.97) rotate(-58.28)"/><path class="cls-10" d="M404.6,120.68h-65a5.71,5.71,0,0,1-5.71-5.7h0a5.71,5.71,0,0,1,5.71-5.71h65a5.71,5.71,0,0,1,5.71,5.71h0A5.71,5.71,0,0,1,404.6,120.68Z"/><rect class="cls-10" x="340.16" y="124.53" width="63.85" height="3.57"/><rect class="cls-10" x="336.15" y="153.97" width="28.42" height="2.25"/><rect class="cls-10" x="336.15" y="157.88" width="16.51" height="2.25"/><path class="cls-19" d="M334.1,157.36a3.58,3.58,0,1,1-3.57-3.58A3.57,3.57,0,0,1,334.1,157.36Z"/><rect class="cls-10" x="336.15" y="168.42" width="28.42" height="2.25"/><rect class="cls-10" x="336.15" y="172.33" width="16.51" height="2.25"/><path class="cls-19" d="M334.1,171.81a3.58,3.58,0,1,1-3.57-3.58A3.57,3.57,0,0,1,334.1,171.81Z"/><rect class="cls-10" x="388.8" y="153.97" width="28.42" height="2.25"/><rect class="cls-10" x="388.8" y="157.88" width="16.51" height="2.25"/><circle class="cls-19" cx="383.17" cy="157.36" r="3.58"/><rect class="cls-10" x="388.8" y="168.42" width="28.42" height="2.25"/><rect class="cls-10" x="388.8" y="172.33" width="16.51" height="2.25"/><path class="cls-19" d="M386.75,171.81a3.58,3.58,0,1,1-3.58-3.58A3.58,3.58,0,0,1,386.75,171.81Z"/><polygon class="cls-11" points="341.22 136.72 339.28 133.9 337.35 136.72 334.06 137.69 336.15 140.41 336.06 143.83 339.28 142.68 342.51 143.83 342.42 140.41 344.5 137.69 341.22 136.72"/><polygon class="cls-11" points="355.69 133.9 353.75 136.72 350.46 137.69 352.55 140.41 352.46 143.83 355.69 142.68 355.7 142.69 355.7 133.92 355.69 133.9"/><polygon class="cls-11" points="358.82 140.41 360.91 137.69 357.62 136.72 355.7 133.92 355.7 142.69 358.91 143.83 358.82 140.41"/><polygon class="cls-11" points="374.02 136.72 372.09 133.9 370.15 136.72 366.87 137.69 368.95 140.41 368.86 143.83 372.09 142.68 375.31 143.83 375.22 140.41 377.31 137.69 374.02 136.72"/><polygon class="cls-11" points="390.42 136.72 388.49 133.9 386.55 136.72 383.27 137.69 385.36 140.41 385.26 143.83 388.49 142.68 391.71 143.83 391.62 140.41 393.71 137.69 390.42 136.72"/><polygon class="cls-10" points="410.11 137.69 406.83 136.72 404.89 133.9 402.95 136.72 399.67 137.69 401.76 140.41 401.66 143.83 404.89 142.68 408.12 143.83 408.02 140.41 410.11 137.69"/><polygon class="cls-20" points="341.22 136.72 339.28 133.9 337.35 136.72 334.06 137.69 336.15 140.41 336.06 143.83 339.28 142.68 342.51 143.83 342.42 140.41 344.5 137.69 341.22 136.72"/><polygon class="cls-20" points="357.62 136.72 355.69 133.9 353.75 136.72 350.46 137.69 352.55 140.41 352.46 143.83 355.69 142.68 358.91 143.83 358.82 140.41 360.91 137.69 357.62 136.72"/><polygon class="cls-20" points="374.02 136.72 372.09 133.9 370.15 136.72 366.87 137.69 368.95 140.41 368.86 143.83 372.09 142.68 375.31 143.83 375.22 140.41 377.31 137.69 374.02 136.72"/><polygon class="cls-20" points="390.42 136.72 388.49 133.9 386.55 136.72 383.27 137.69 385.36 140.41 385.26 143.83 388.49 142.68 391.71 143.83 391.62 140.41 393.71 137.69 390.42 136.72"/><polygon class="cls-20" points="410.11 137.69 406.83 136.72 404.89 133.9 402.95 136.72 399.67 137.69 401.76 140.41 401.66 143.83 404.89 142.68 408.12 143.83 408.02 140.41 410.11 137.69"/><polygon class="cls-14" points="264.48 24.19 264.48 24.19 242.53 24.19 242.53 57.26 242.53 57.26 242.53 95.02 242.53 95.02 242.53 214.74 242.53 214.74 365.37 214.74 365.37 166.86 365.37 119.31 365.37 92.82 365.37 24.19 264.48 24.19"/><rect class="cls-21" x="247.17" y="20.2" width="122.84" height="190.55"/><path class="cls-7" d="M370,162.87c-45.32-1.76-90.74-52.1-122.83-71.84V210.75H370Z"/><path class="cls-22" d="M247.17,53.26c44,48.05,90.89,60.32,122.83,62.06V88.82C339.8,86,299.29,71.33,269.12,20.2h-22Z"/><circle class="cls-16" cx="308.59" cy="81.55" r="39.87"/><g class="cls-26"><path class="cls-7" d="M326,79.42c0,11.51-7.8,20.85-17.42,20.85s-17.43-9.34-17.43-20.85,7.8-18.65,17.43-18.65S326,67.9,326,79.42Z"/><path class="cls-7" d="M328.48,126.09H288.69l1.8-15.16a8.41,8.41,0,0,1,8.35-7.42h19.5a8.41,8.41,0,0,1,8.34,7.42Z"/><polygon class="cls-7" points="315.85 108.36 301.32 108.36 303.27 91.28 313.9 91.28 315.85 108.36"/><path class="cls-7" d="M290.07,77c-2,.33-3.17,3.21-2.63,6.43S290,89,292,88.63s3.16-3.21,2.62-6.43S292.06,76.64,290.07,77Z"/><path class="cls-7" d="M327.62,77c-2-.34-4,2-4.58,5.22s.63,6.1,2.62,6.43,4-2,4.59-5.22S329.61,77.31,327.62,77Z"/></g><circle class="cls-18" cx="308.59" cy="81.55" r="39.87"/><path class="cls-10" d="M342.74,140.87H274.43a6,6,0,0,1-6-6h0a6,6,0,0,1,6-6h68.31a6,6,0,0,1,6,6h0A6,6,0,0,1,342.74,140.87Z"/><rect class="cls-10" x="275.05" y="144.91" width="67.07" height="3.75"/><rect class="cls-10" x="270.85" y="175.83" width="29.85" height="2.36"/><rect class="cls-10" x="270.85" y="179.94" width="17.34" height="2.36"/><circle class="cls-19" cx="264.93" cy="179.39" r="3.76"/><rect class="cls-10" x="270.85" y="191.01" width="29.85" height="2.36"/><rect class="cls-10" x="270.85" y="195.11" width="17.34" height="2.36"/><path class="cls-19" d="M268.69,194.57a3.76,3.76,0,1,1-3.76-3.76A3.76,3.76,0,0,1,268.69,194.57Z"/><rect class="cls-10" x="326.14" y="175.83" width="29.85" height="2.36"/><rect class="cls-10" x="326.14" y="179.94" width="17.34" height="2.36"/><path class="cls-19" d="M324,179.39a3.76,3.76,0,1,1-3.76-3.75A3.76,3.76,0,0,1,324,179.39Z"/><rect class="cls-10" x="326.14" y="191.01" width="29.85" height="2.36"/><rect class="cls-10" x="326.14" y="195.11" width="17.34" height="2.36"/><path class="cls-24" d="M324,194.57a3.76,3.76,0,1,1-3.76-3.76A3.76,3.76,0,0,1,324,194.57Z"/><polygon class="cls-19" points="276.17 157.72 274.13 154.75 272.1 157.72 268.65 158.73 270.84 161.58 270.74 165.18 274.13 163.97 277.52 165.18 277.42 161.58 279.62 158.73 276.17 157.72"/><polygon class="cls-19" points="291.36 154.75 289.33 157.72 285.88 158.73 288.07 161.58 287.97 165.18 291.36 163.97 291.37 163.98 291.37 154.77 291.36 154.75"/><polygon class="cls-19" points="294.65 161.58 296.84 158.73 293.39 157.72 291.37 154.77 291.37 163.98 294.75 165.18 294.65 161.58"/><polygon class="cls-10" points="310.62 157.72 308.59 154.75 306.55 157.72 303.1 158.73 305.3 161.58 305.2 165.18 308.59 163.97 311.98 165.18 311.88 161.58 314.07 158.73 310.62 157.72"/><polygon class="cls-10" points="327.85 157.72 325.81 154.75 323.78 157.72 320.33 158.73 322.52 161.58 322.42 165.18 325.81 163.97 329.2 165.18 329.1 161.58 331.3 158.73 327.85 157.72"/><polygon class="cls-10" points="348.52 158.73 345.07 157.72 343.04 154.75 341.01 157.72 337.56 158.73 339.75 161.58 339.65 165.18 343.04 163.97 346.43 165.18 346.33 161.58 348.52 158.73"/><polygon class="cls-20" points="276.17 157.72 274.13 154.75 272.1 157.72 268.65 158.73 270.84 161.58 270.74 165.18 274.13 163.97 277.52 165.18 277.42 161.58 279.62 158.73 276.17 157.72"/><polygon class="cls-20" points="293.39 157.72 291.36 154.75 289.33 157.72 285.88 158.73 288.07 161.58 287.97 165.18 291.36 163.97 294.75 165.18 294.65 161.58 296.84 158.73 293.39 157.72"/><polygon class="cls-20" points="310.62 157.72 308.59 154.75 306.55 157.72 303.1 158.73 305.3 161.58 305.2 165.18 308.59 163.97 311.98 165.18 311.88 161.58 314.07 158.73 310.62 157.72"/><polygon class="cls-20" points="327.85 157.72 325.81 154.75 323.78 157.72 320.33 158.73 322.52 161.58 322.42 165.18 325.81 163.97 329.2 165.18 329.1 161.58 331.3 158.73 327.85 157.72"/><polygon class="cls-20" points="348.52 158.73 345.07 157.72 343.04 154.75 341.01 157.72 337.56 158.73 339.75 161.58 339.65 165.18 343.04 163.97 346.43 165.18 346.33 161.58 348.52 158.73"/><polygon class="cls-27" points="184.37 4.97 184.37 4.97 157.02 4.97 157.02 46.16 157.02 46.16 157.02 93.21 157.02 93.21 157.02 242.34 157.02 242.34 310.04 242.34 310.04 182.69 310.04 123.47 310.04 90.46 310.04 4.97 184.37 4.97"/><rect class="cls-28" x="162.8" width="153.02" height="237.37"/><path class="cls-29" d="M315.82,177.72c-56.46-2.19-113-64.9-153-89.48V237.37h153Z"/><path class="cls-30" d="M162.8,41.19c54.83,59.85,113.23,75.14,153,77.3v-33C278.19,81.92,227.73,63.69,190.15,0H162.8Z"/><circle class="cls-24" cx="239.31" cy="76.42" r="49.66" transform="translate(110.33 292) rotate(-76.82)"/><g class="cls-31"><path class="cls-16" d="M261,73.77c0,14.34-9.72,26-21.71,26s-21.7-11.64-21.7-26,9.71-23.23,21.7-23.23S261,59.42,261,73.77Z"/><path class="cls-16" d="M264.09,131.91H214.53L216.77,113a10.47,10.47,0,0,1,10.4-9.23h24.29A10.46,10.46,0,0,1,261.85,113Z"/><polygon class="cls-16" points="248.36 109.82 230.26 109.82 232.69 88.55 245.94 88.55 248.36 109.82"/><path class="cls-16" d="M216.24,70.73c-2.48.42-3.94,4-3.27,8s3.23,6.93,5.71,6.51,3.95-4,3.27-8S218.73,70.31,216.24,70.73Z"/><path class="cls-16" d="M263,70.73c-2.48-.42-5,2.5-5.71,6.51s.79,7.59,3.27,8,5-2.5,5.71-6.51S265.5,71.15,263,70.73Z"/></g><circle class="cls-32" cx="239.31" cy="76.42" r="49.66" transform="translate(110.33 292) rotate(-76.82)"/><path class="cls-33" d="M281.86,150.32h-85.1a7.47,7.47,0,0,1-7.46-7.47h0a7.46,7.46,0,0,1,7.46-7.46h85.1a7.46,7.46,0,0,1,7.46,7.46h0A7.47,7.47,0,0,1,281.86,150.32Z"/><rect class="cls-7" x="197.54" y="155.35" width="83.55" height="4.67"/><rect class="cls-7" x="192.3" y="193.87" width="37.19" height="2.94"/><rect class="cls-7" x="192.3" y="198.99" width="21.6" height="2.94"/><path class="cls-24" d="M189.61,198.31a4.68,4.68,0,1,1-4.68-4.68A4.68,4.68,0,0,1,189.61,198.31Z"/><rect class="cls-7" x="192.3" y="212.78" width="37.19" height="2.94"/><rect class="cls-7" x="192.3" y="217.89" width="21.6" height="2.94"/><path class="cls-24" d="M189.61,217.21a4.68,4.68,0,1,1-4.68-4.68A4.67,4.67,0,0,1,189.61,217.21Z"/><rect class="cls-7" x="261.18" y="193.87" width="37.19" height="2.94"/><rect class="cls-7" x="261.18" y="198.99" width="21.6" height="2.94"/><path class="cls-24" d="M258.5,198.31a4.68,4.68,0,1,1-4.68-4.68A4.69,4.69,0,0,1,258.5,198.31Z"/><rect class="cls-7" x="261.18" y="212.78" width="37.19" height="2.94"/><rect class="cls-7" x="261.18" y="217.89" width="21.6" height="2.94"/><path class="cls-24" d="M258.5,217.21a4.68,4.68,0,1,1-4.68-4.68A4.68,4.68,0,0,1,258.5,217.21Z"/><polygon class="cls-11" points="198.93 171.31 196.39 167.61 193.86 171.31 189.56 172.57 192.29 176.12 192.17 180.6 196.39 179.1 200.61 180.6 200.49 176.12 203.22 172.57 198.93 171.31"/><polygon class="cls-11" points="220.38 171.31 217.85 167.61 215.32 171.31 211.02 172.57 213.75 176.12 213.63 180.6 217.85 179.1 222.07 180.6 221.95 176.12 224.68 172.57 220.38 171.31"/><polygon class="cls-11" points="241.84 171.31 239.31 167.61 236.78 171.31 232.48 172.57 235.21 176.12 235.09 180.6 239.31 179.1 243.53 180.6 243.41 176.12 246.14 172.57 241.84 171.31"/><polygon class="cls-11" points="263.3 171.31 260.77 167.61 258.24 171.31 253.94 172.57 256.67 176.12 256.55 180.6 260.77 179.1 264.99 180.6 264.87 176.12 267.6 172.57 263.3 171.31"/><polygon class="cls-11" points="289.06 172.57 284.76 171.31 282.23 167.61 279.7 171.31 275.4 172.57 278.13 176.12 278.01 180.6 282.23 179.1 286.45 180.6 286.33 176.12 289.06 172.57"/><polygon class="cls-34" points="198.93 171.31 196.39 167.61 193.86 171.31 189.56 172.57 192.29 176.12 192.17 180.6 196.39 179.1 200.61 180.6 200.49 176.12 203.22 172.57 198.93 171.31"/><polygon class="cls-34" points="220.38 171.31 217.85 167.61 215.32 171.31 211.02 172.57 213.75 176.12 213.63 180.6 217.85 179.1 222.07 180.6 221.95 176.12 224.68 172.57 220.38 171.31"/><polygon class="cls-34" points="241.84 171.31 239.31 167.61 236.78 171.31 232.48 172.57 235.21 176.12 235.09 180.6 239.31 179.1 243.53 180.6 243.41 176.12 246.14 172.57 241.84 171.31"/><polygon class="cls-34" points="263.3 171.31 260.77 167.61 258.24 171.31 253.94 172.57 256.67 176.12 256.55 180.6 260.77 179.1 264.99 180.6 264.87 176.12 267.6 172.57 263.3 171.31"/><polygon class="cls-34" points="289.06 172.57 284.76 171.31 282.23 167.61 279.7 171.31 275.4 172.57 278.13 176.12 278.01 180.6 282.23 179.1 286.45 180.6 286.33 176.12 289.06 172.57"/><path class="cls-35" d="M72.86,208.88s.33,27.31,1.14,27.76,34,13.6,34,13.6l-6.24,12.88L52.93,245.36l9.4-40Z"/><rect class="cls-36" x="52.99" y="273.18" width="12.35" height="98.47" transform="translate(118.33 644.83) rotate(180)"/><path class="cls-37" d="M52.15,369.92H76.86a0,0,0,0,1,0,0v8.27a3.48,3.48,0,0,1-3.48,3.48H60.74a8.59,8.59,0,0,1-8.59-8.59v-3.16A0,0,0,0,1,52.15,369.92Z" transform="translate(129.01 751.58) rotate(-180)"/><path class="cls-38" d="M52.44,383.18H76.51a1.32,1.32,0,0,0,1.32-1.32h0a1.32,1.32,0,0,0-1.32-1.31H52.44a1.32,1.32,0,0,0-1.32,1.31h0A1.32,1.32,0,0,0,52.44,383.18Z"/><path class="cls-36" d="M56.47,255.25H41.23c-7.4,0-13.45,5.13-13.45,11.39h0c0,6.26,6,11.38,13.45,11.38H56.47c7.39,0,13.44-5.12,13.44-11.38h0C69.91,260.38,63.86,255.25,56.47,255.25Z"/><rect class="cls-36" x="32.38" y="273.18" width="12.35" height="98.47" transform="translate(77.11 644.83) rotate(180)"/><path class="cls-38" d="M31.54,369.92H56.25a0,0,0,0,1,0,0v8.27a3.48,3.48,0,0,1-3.48,3.48H40.13a8.59,8.59,0,0,1-8.59-8.59v-3.16a0,0,0,0,1,0,0Z" transform="translate(87.79 751.58) rotate(-180)"/><path class="cls-36" d="M31.83,383.18H55.9a1.32,1.32,0,0,0,1.32-1.32h0a1.32,1.32,0,0,0-1.32-1.31H31.83a1.32,1.32,0,0,0-1.32,1.31h0A1.32,1.32,0,0,0,31.83,383.18Z"/><polygon class="cls-39" points="67.05 257.98 30.69 257.98 30.69 208.03 37.78 203.98 61.07 203.98 67.05 208.03 67.05 257.98"/><path class="cls-40" d="M63.21,180.18c-.58,3.59.89,6.87,3.28,7.33s4.82-2.08,5.41-5.67S71,175,68.62,174.51,63.8,176.59,63.21,180.18Z"/><path class="cls-41" d="M65.75,180.54a2,2,0,0,0-1.09.1l0-.18c.38-2.37,2-4,3.57-3.74s2.55,2.47,2.16,4.84a4.52,4.52,0,0,1-2.48,3.65C68.25,182.91,67.29,180.84,65.75,180.54Z"/><path class="cls-40" d="M39.46,207.42c0,3.18,4.54,6,10.41,6s10.85-2.84,10.85-6S56,201.67,50.1,201.67,39.46,204.24,39.46,207.42Z"/><path class="cls-40" d="M57.88,195.24v8A7.86,7.86,0,0,1,50,211.06h0a7.87,7.87,0,0,1-7.87-7.87v-8Z"/><path class="cls-41" d="M57.87,198.56c-5.62,4.9-10.88,6.92-15.17,7.56a7.69,7.69,0,0,1-.57-2.93v-8H57.88Z"/><path class="cls-40" d="M32,177.07c0,13.05,7.57,23.64,18.41,23.64s18.43-10.56,18.44-23.62-7.58-18.83-18.42-18.83S32,164,32,177.07Z"/><path class="cls-41" d="M34.47,166.19c17.13,9.43,27.27,8.15,33.28,3.4-2.42-7.78-8.88-11.33-17.36-11.33C43.26,158.25,37.56,160.77,34.47,166.19Z"/><path class="cls-38" d="M32.16,180.43c7.32.39,5.75-14.65,5.75-14.65S60.28,168,65.78,165s4.71-13.73,1.57-14.91S54,145.76,53.74,155.57c0,0-26-2.48-23,20Z"/><path class="cls-42" d="M58.33,178.62a2.33,2.33,0,1,0,2.33-2.32A2.32,2.32,0,0,0,58.33,178.62Z"/><path class="cls-42" d="M44.4,178.61a2.33,2.33,0,1,0,2.32-2.32A2.32,2.32,0,0,0,44.4,178.61Z"/><path class="cls-41" d="M52.31,175.82l1.8,5.92,3.65-.26s0,3.54-3.18,4.28l1.59-2.93-3.23.5Z"/><path class="cls-40" d="M36,180.16c.58,3.59-.89,6.87-3.29,7.32s-4.81-2.08-5.4-5.67.89-6.87,3.29-7.32S35.44,176.57,36,180.16Z"/><path class="cls-41" d="M33.48,180.52a2,2,0,0,1,1.09.1c0-.06,0-.12,0-.18-.39-2.37-2-4.05-3.57-3.75s-2.56,2.47-2.17,4.84a4.52,4.52,0,0,0,2.48,3.65C31,182.88,31.94,180.82,33.48,180.52Z"/><path class="cls-42" d="M47.47,186.33a26.29,26.29,0,0,0,11.87,1.25,6.34,6.34,0,0,1-6.79,3.95A5.3,5.3,0,0,1,47.47,186.33Z"/><path class="cls-43" d="M58.3,189.3l-.24-.72.55-.92A27,27,0,0,1,48,186.51l.54,1.35-.49.71a5.28,5.28,0,0,0,4.53,3A6.11,6.11,0,0,0,58.3,189.3Z"/><path class="cls-44" d="M48.31,188.15a10.93,10.93,0,0,0,4.3,1.28c3.32.41,4.93-.24,5.54-.59l-.09-.26c-4.15,1.42-9.55-.72-9.55-.72Z"/><path class="cls-38" d="M64.24,164s3.63,7.36,4.71,13.74C69,177.78,72.68,161.89,64.24,164Z"/><path class="cls-38" d="M41.9,174.41s2.78-2.09,7.2-.23C49.1,174.18,44.81,169,41.9,174.41Z"/><path class="cls-38" d="M64.27,174.35s-2.78-2.1-7.19-.23C57.08,174.12,61.36,169,64.27,174.35Z"/><path class="cls-36" d="M37.39,158.91a15.19,15.19,0,0,0-3.15,2.59C38,163,44,164.38,53.74,164.24c7.88-.11,12.78-2.45,15.84-5.32a13.44,13.44,0,0,0-.29-6.15C65.3,159.22,52.12,165.82,37.39,158.91Z"/><polygon class="cls-45" points="48.62 217.22 46.54 254.48 49.95 259.82 53.79 254.48 51.21 217.14 48.62 217.22"/><path class="cls-46" d="M47.5,212.84h1.37a3.56,3.56,0,0,1,3.56,3.56v1.37a0,0,0,0,1,0,0H49.66a2.16,2.16,0,0,1-2.16-2.16v-2.77A0,0,0,0,1,47.5,212.84Z" transform="translate(-137.61 98.39) rotate(-45)"/><polygon class="cls-38" points="39.32 203.39 43.93 226.94 40.2 275.4 26.66 275.4 28.43 240.08 25.29 208.69 39.32 203.39"/><polygon class="cls-38" points="58.74 203.39 54.13 226.94 57.86 275.4 71.4 275.4 69.64 240.08 72.77 208.69 58.74 203.39"/><polygon class="cls-16" points="35.81 206.83 39.7 203.05 41.72 203.26 49.88 213.47 58.05 203.27 60.07 203.06 63.95 206.84 57.43 220.8 49.88 214.96 42.31 220.79 35.81 206.83"/><path class="cls-47" d="M177.28,190.14l-48.79,48.73a3.44,3.44,0,0,1-4.83,0l-9.46-9.46a3.44,3.44,0,0,1,0-4.83L163,175.86a3.42,3.42,0,0,1,4.83,0l9.46,9.46A3.43,3.43,0,0,1,177.28,190.14Z"/><path class="cls-48" d="M128.49,238.87l48.79-48.73a3.43,3.43,0,0,0,0-4.82L173.91,182a3.42,3.42,0,0,0-4.83,0l-48.79,48.72a3.44,3.44,0,0,0,0,4.83l3.37,3.37A3.44,3.44,0,0,0,128.49,238.87Z"/><path class="cls-49" d="M128.49,238.87l48.79-48.73a2.53,2.53,0,1,0-3.43-3.43l-48.79,48.72a3.41,3.41,0,0,0-.58,4A3.42,3.42,0,0,0,128.49,238.87Z"/><path class="cls-49" d="M162.71,181a3.42,3.42,0,0,0-4.83,0l-8.61,8.6q3.16,3.84,6.76,7.43c2.42,2.43,4.94,4.71,7.53,6.85l8.61-8.6a3.43,3.43,0,0,0,0-4.82Z"/><path class="cls-24" d="M140.55,243.6,34.74,349.27a7.41,7.41,0,0,1-10.46,0L3.76,328.76a7.42,7.42,0,0,1,0-10.47L109.57,212.62a7.41,7.41,0,0,1,10.46,0l20.52,20.52A7.41,7.41,0,0,1,140.55,243.6Z"/><path class="cls-11" d="M78.05,262.16l-15.47-2.61-15,15C60.75,277.42,82.15,274.68,78.05,262.16Z"/><path class="cls-48" d="M318.39,34.64a112.4,112.4,0,1,0,0,159A112.41,112.41,0,0,0,318.39,34.64ZM238.91,208.22a94.1,94.1,0,1,1,94.1-94.1A94.1,94.1,0,0,1,238.91,208.22Z"/><path class="cls-49" d="M238.91,13.09a101,101,0,1,0,101,101A101,101,0,0,0,238.91,13.09Zm0,195a94,94,0,1,1,94-94A94,94,0,0,1,238.91,208.11Z"/><path class="cls-50" d="M189.56,60.23a103.31,103.31,0,0,0-21.18,2.18A87.46,87.46,0,0,0,290.63,184.66,103.36,103.36,0,0,0,189.56,60.23Z"/><path class="cls-11" d="M52.18,269.93,3.76,318.29a7.42,7.42,0,0,0,0,10.47l20.52,20.51a7.41,7.41,0,0,0,10.46,0l77.79-77.68C88.7,282,72.37,271.56,52.18,269.93Z"/><path class="cls-40" d="M59.12,268.68c9.76,2.92,15.79,1.5,18.38-1.94s.12-8.63-4.21-7.74-5.14,1.42-5.14,1.42l2.63-2.59s-3.16-2.67-6.4,1.42L62,258.72Z"/><polygon class="cls-16" points="57.22 256.03 63.9 257.48 60.56 269.82 53.96 268.54 57.22 256.03"/><path class="cls-38" d="M38.65,228.9S36.83,250.68,37.7,251s23.46,5,23.46,5l-3.72,13.82-39.69-9,7.54-52.08Z"/><path class="cls-36" d="M38.65,228.9l-.57,11.52c-.08,1.92-.18,3.84-.22,5.76,0,1,0,1.91,0,2.86a12.51,12.51,0,0,0,.09,1.4,1.2,1.2,0,0,0,0,.26c0,.07,0,0-.14-.1l.16,0,.68.15c3.75.81,7.53,1.56,11.29,2.33s7.54,1.53,11.29,2.34h0l.52.1-.13.52-3.73,13.81-.13.46-.47-.1-39.68-9-.45-.11.07-.45,7.53-52.09,1,.15-7.53,52.08-.39-.56,39.69,9-.6.36,3.73-13.82.38.62h0q-5.66-1.12-11.29-2.36c-3.76-.82-7.51-1.63-11.27-2.49l-.72-.17-.19,0a.6.6,0,0,1-.35-.39,2.07,2.07,0,0,1-.09-.43,12.63,12.63,0,0,1-.06-1.49c0-1,0-1.93.09-2.9q.14-2.88.37-5.76C37.85,236.55,38.22,232.73,38.65,228.9Z"/><path class="cls-51" d="M398.63,204.38,382.48,222l-23.77-4.31s-5.2,6.52-2.21,11.06,26.31,7.3,26.31,7.3L407,218.65S409.13,205.38,398.63,204.38Z"/><path class="cls-52" d="M388,204h0a5.74,5.74,0,0,0,5.73-5.72v-5.43a4.23,4.23,0,0,0-4.21-4.21h-3a4.22,4.22,0,0,0-4.2,4.21v5.43A5.73,5.73,0,0,0,388,204Z"/><path class="cls-52" d="M392,158H383.8c-8.29,0-13.27,3.92-13.27,12.21V176c0,.74,0,1.46.11,2.17-4.63,6.42.44,15.4,14.33,16a17.41,17.41,0,0,0,2.06.12h1.73A18.36,18.36,0,0,0,407.07,176v-3.78C407.07,163.87,400.28,158,392,158Z"/><path class="cls-52" d="M384.51,206.8h7.32a4.64,4.64,0,0,0,4.63-4.63h0a4.65,4.65,0,0,0-4.63-4.64h-7.32a4.66,4.66,0,0,0-4.64,4.64h0A4.65,4.65,0,0,0,384.51,206.8Z"/><path class="cls-38" d="M388.35,191.94c-5.37-2.75-6.75-6.95-6.61-16.53,0,0-9.76-1.25-8.69-11.35l-1.37,0s-2.65-7.3,6.19-12.61,28.64-4.2,33.07,7.41c1.88,5,.32,11.34.22,17.69C411,189.07,399.52,197.67,388.35,191.94Z"/><path class="cls-52" d="M386.77,175.5a5,5,0,1,1-5-5A5,5,0,0,1,386.77,175.5Z"/><path class="cls-53" d="M383.63,176.09a2.59,2.59,0,1,1-2.59-2.6A2.59,2.59,0,0,1,383.63,176.09Z"/><path class="cls-36" d="M411.36,160.22a14,14,0,0,0-.42-1.4c-.11-.29-.24-.56-.37-.84-3.77,1.79-9.16,2.42-15.7-2.14,0,0-4.43-4.65-7.8-1.33,0,0-1.71-1.16-2.71-.39a12.15,12.15,0,0,0-6.57-2.65c-3.73,2.26-5.39,4.87-6.06,7.13,6-7.13,11.08-1.22,11.08-1.22s2.77-1.32,3.76.89c0,0,3.54-2.82,5.42-.25C392,158,402.51,163.41,411.36,160.22Z"/><rect class="cls-36" x="392.1" y="272.23" width="12.46" height="99.33"/><path class="cls-37" d="M389.07,369.8h12.85a3.48,3.48,0,0,1,3.48,3.48v8.37a0,0,0,0,1,0,0H380.48a0,0,0,0,1,0,0V378.4A8.59,8.59,0,0,1,389.07,369.8Z"/><path class="cls-38" d="M405.11,383.18H380.83a1.34,1.34,0,0,1-1.33-1.33h0a1.34,1.34,0,0,1,1.33-1.33h24.28a1.33,1.33,0,0,1,1.33,1.33h0A1.33,1.33,0,0,1,405.11,383.18Z"/><path class="cls-36" d="M381.43,254.14h13.64c6.62,0,12,5.17,12,11.48h0c0,6.32-5.41,11.48-12,11.48H381.43c-6.62,0-12-5.16-12-11.48h0C369.4,259.31,374.81,254.14,381.43,254.14Z"/><rect class="cls-36" x="373.52" y="272.23" width="12.46" height="99.33"/><path class="cls-38" d="M370.5,369.8h12.85a3.48,3.48,0,0,1,3.48,3.48v8.37a0,0,0,0,1,0,0H361.91a0,0,0,0,1,0,0V378.4A8.59,8.59,0,0,1,370.5,369.8Z"/><path class="cls-36" d="M386.54,383.18H362.26a1.34,1.34,0,0,1-1.33-1.33h0a1.34,1.34,0,0,1,1.33-1.33h24.28a1.34,1.34,0,0,1,1.33,1.33h0A1.34,1.34,0,0,1,386.54,383.18Z"/><polygon class="cls-16" points="374.04 203.05 379.71 197.39 397.93 197.39 398.87 202.56 374.04 203.05"/><path class="cls-39" d="M368.93,261.11h38.73V210.92a9.54,9.54,0,0,0-4.6-8.2l-.8-.47a9,9,0,0,0-4.66-1.3H378.19a9.11,9.11,0,0,0-5.27,1.69h0a9.56,9.56,0,0,0-4,7.81Z"/><polygon class="cls-54" points="365.78 237.41 330.39 237.41 319.48 194.65 354.87 194.65 365.78 237.41"/><polygon class="cls-16" points="359.99 232.5 335.31 232.5 326.15 198.02 350.83 198.02 359.99 232.5"/><path class="cls-55" d="M329.55,195.49l1.59,4.57a1.22,1.22,0,0,0,1.15.82H347.5a1.22,1.22,0,0,0,1.17-1.55l-1.33-4.61a1.21,1.21,0,0,0-1.17-.88h-3.26a1.23,1.23,0,0,1-1.18-.92l-.34-1.36a1.23,1.23,0,0,0-1.19-.92l-5.13.05a1.21,1.21,0,0,0-1.14,1.59h0a1.22,1.22,0,0,1-1.16,1.6H330.7A1.22,1.22,0,0,0,329.55,195.49Z"/><path class="cls-52" d="M339.7,223c-5.29-7-6.78-9.44-6.61-11.38s3.35-5.64,4.76-6.08,5.47.79,6.35,1.59,1.15,1.41,1.06,1.85a8.91,8.91,0,0,0-.05,1.45s1.63-.39,2.21.89a10,10,0,0,1,.66,1.72l-.71,3.08,1.46,3.62A11.06,11.06,0,0,1,339.7,223Z"/><path class="cls-16" d="M377,202.69s9.44,1,8.09,16.85-14.83,32.87-21.58,32c-4.92-.62-17.59-15.09-24.06-22.85a6.07,6.07,0,0,1,1.59-9.13,19.54,19.54,0,0,1,3.87-1.75,7.41,7.41,0,0,1,7.76,2.1c3.93,4.35,11.2,12.27,11.69,11.91C365,231.34,365.78,202.5,377,202.69Z"/><path class="cls-21" d="M385.1,219.54a36.46,36.46,0,0,1-4.5,16.56,52.17,52.17,0,0,1-4.63,7.32,34.62,34.62,0,0,1-6.05,6.29,14,14,0,0,1-3.91,2.21,6,6,0,0,1-2.37.34,5.89,5.89,0,0,1-2.28-.74,36.19,36.19,0,0,1-6.89-5.36c-4.19-4-8-8.21-11.8-12.53l-2.77-3.27c-.46-.57-.91-1.05-1.39-1.73a7.47,7.47,0,0,1-1-2.18,6.89,6.89,0,0,1,.53-4.64,7.1,7.1,0,0,1,1.42-1.9,9.17,9.17,0,0,1,1.91-1.29,16.56,16.56,0,0,1,4.16-1.61,8,8,0,0,1,4.57.42,8.35,8.35,0,0,1,2,1.16,13.14,13.14,0,0,1,1.58,1.59l2.87,3.17c1.93,2.1,3.86,4.21,5.86,6.21.5.5,1,1,1.53,1.43l.37.29s.11.05,0,0a.39.39,0,0,0-.33.08.4.4,0,0,0-.13.13c0,.08,0,0,0,0a7.72,7.72,0,0,0,.16-1l.54-4.25a76.29,76.29,0,0,1,1.52-8.47,36.62,36.62,0,0,1,2.89-8.09,84.9,84.9,0,0,0-3.38,16.69l-.5,4.26a10.91,10.91,0,0,1-.18,1.13,1.28,1.28,0,0,1-.09.24,1,1,0,0,1-.2.24.7.7,0,0,1-.47.1,1.41,1.41,0,0,1-.45-.19c-.18-.12-.33-.24-.48-.36-.58-.48-1.09-1-1.61-1.48-2.05-2-4-4.11-5.95-6.2l-2.9-3.16a10.81,10.81,0,0,0-1.45-1.43,6.78,6.78,0,0,0-5.54-1.3,15.9,15.9,0,0,0-3.79,1.52,7.54,7.54,0,0,0-1.62,1.1,5.59,5.59,0,0,0-1.12,1.53,5.43,5.43,0,0,0-.39,3.7,5.62,5.62,0,0,0,.77,1.71c.35.49.87,1.07,1.31,1.6l2.79,3.25c3.73,4.3,7.54,8.54,11.65,12.45a34.78,34.78,0,0,0,6.57,5.16c2.25,1.49,4.95,0,7.1-1.65a33.5,33.5,0,0,0,5.81-6,50,50,0,0,0,4.54-7.13A56,56,0,0,0,385.1,219.54Z"/><path class="cls-38" d="M344.11,209.05l3.32-7.93a1.71,1.71,0,0,1,2.21-.75,1.43,1.43,0,0,1,.75,2c-.17.2-4,8.32-4,8.32S343.81,211.6,344.11,209.05Z"/></g></g></svg>