<svg xmlns="http://www.w3.org/2000/svg" viewBox="0 0 685.65 384.97"><defs><style>.cls-1{fill:#fff;}.cls-2{fill:#e0e0e0;}.cls-3{fill:#f5f5f5;}.cls-4{fill:#ebebeb;}.cls-5{fill:#263238;}.cls-6{fill:#455a64;}.cls-7{fill:#e8505b;}.cls-14,.cls-8{opacity:0.3;}.cls-10,.cls-9{opacity:0.4;}.cls-11{opacity:0.2;}.cls-12{fill:#ffbe9d;}.cls-13{fill:#eb996e;}.cls-15{fill:#fafafa;}</style></defs><title>STORAGE BANNER</title><g id="Cloud"><rect class="cls-1" x="18.17" y="76.21" width="77.88" height="106.58" transform="translate(-45.86 32.4) rotate(-22.88)"/><path class="cls-2" d="M113.71,163.45l-.22-.48-.61-1.38-2.3-5.35c-2-4.69-4.92-11.51-8.6-20.13-7.34-17.27-17.74-41.75-30-70.72l.46.19L.67,95.9h0l.21-.51C16.32,132.08,30.63,166,42.25,193.61l-.42-.17L94,171.6l14.53-6c1.66-.69,2.94-1.22,3.84-1.58s1.34-.53,1.34-.53l-1.25.56-3.76,1.63L94.3,171.8,42.08,194l-.29.12-.13-.29C30,166.31,15.66,132.36.15,95.7L0,95.34l.36-.15h0L72.13,64.93l.32-.13.14.32c12.21,29.11,22.53,53.71,29.8,71.06l8.4,20.13c.95,2.31,1.69,4.09,2.2,5.32.23.59.42,1,.55,1.36A4.08,4.08,0,0,1,113.71,163.45Z"/><path class="cls-2" d="M52.72,96.76c.09.19-7.65,3.65-17.28,7.71s-17.5,7.2-17.59,7,7.66-3.66,17.29-7.72S52.64,96.56,52.72,96.76Z"/><path class="cls-2" d="M75.18,97.33c.09.2-11.88,5.43-26.71,11.7s-26.93,11.18-27,11,11.88-5.44,26.72-11.7S75.1,97.13,75.18,97.33Z"/><path class="cls-2" d="M78.94,106.23c.08.2-11.88,5.43-26.71,11.7s-26.94,11.18-27,11,11.88-5.44,26.72-11.7S78.86,106,78.94,106.23Z"/><path class="cls-2" d="M82.7,115.13c.08.2-11.88,5.44-26.72,11.7s-26.93,11.18-27,11,11.87-5.43,26.71-11.7S82.61,114.93,82.7,115.13Z"/><path class="cls-2" d="M86.45,124c.09.2-11.87,5.44-26.71,11.7s-26.93,11.18-27,11S44.6,141.28,59.44,135,86.37,123.83,86.45,124Z"/><path class="cls-2" d="M90.21,132.93c.08.2-11.88,5.44-26.71,11.7s-26.93,11.18-27,11,11.88-5.43,26.72-11.7S90.13,132.73,90.21,132.93Z"/><path class="cls-2" d="M94,141.83c.08.2-11.88,5.44-26.71,11.7s-26.94,11.18-27,11,11.87-5.43,26.71-11.7S93.88,141.64,94,141.83Z"/><path class="cls-2" d="M72.88,161.22c.08.2-6.32,3.09-14.29,6.46S44.08,173.61,44,173.41s6.31-3.08,14.29-6.45S72.79,161,72.88,161.22Z"/><rect class="cls-3" x="258.45" y="1.93" width="78.44" height="98.11" transform="translate(178.66 328.56) rotate(-76.51)"/><rect class="cls-4" x="263.32" y="5.36" width="68.56" height="91.22" transform="translate(178.63 328.49) rotate(-76.51)"/><polygon class="cls-2" points="245.26 73.67 286.18 39.66 299.15 70.19 315.49 59.45 333.96 94.95 245.26 73.67"/><path class="cls-2" d="M314.74,41.14a7.18,7.18,0,1,1-5.31-8.66A7.18,7.18,0,0,1,314.74,41.14Z"/><path class="cls-4" d="M537.67,71.59c4.69-11,1.84-22.37-5.86-31.45a33,33,0,0,0-32.28-10.47A36.09,36.09,0,0,0,428,34.32,27,27,0,0,0,407.33,71Z"/><path class="cls-2" d="M139.13,37.94a5.74,5.74,0,1,1-7.21-3.74A5.74,5.74,0,0,1,139.13,37.94Z"/><circle class="cls-2" cx="152.22" cy="33.79" r="5.74" transform="translate(90.91 177.15) rotate(-79.36)"/><path class="cls-2" d="M157.81,32.06a2,2,0,0,1-.19-.4c-.14-.32-.3-.71-.5-1.19-.44-1-1.08-2.55-2-4.41s-2-4.07-3.46-6.51-3.05-5.15-4.79-8.08l.33.09a60.75,60.75,0,0,1-10.55,4.5A61.66,61.66,0,0,1,127,18.3l.09-.47a24.6,24.6,0,0,1,7.34,6.77,25.24,25.24,0,0,1,3.56,7,23.21,23.21,0,0,1,1,5.07c.06.6.05,1.07.06,1.39a1.86,1.86,0,0,1,0,.48s-.07-.66-.21-1.85a25.76,25.76,0,0,0-1.16-5A25.38,25.38,0,0,0,134,24.85a24.37,24.37,0,0,0-7.25-6.59l-.6-.35.69-.11a62.79,62.79,0,0,0,9.64-2.24A62.17,62.17,0,0,0,147,11.13l.21-.12.12.21c1.72,2.93,3.35,5.65,4.73,8.12s2.51,4.71,3.36,6.59,1.45,3.43,1.85,4.48l.42,1.22C157.79,31.91,157.83,32.05,157.81,32.06Z"/><path class="cls-2" d="M151.57,18.6a77.9,77.9,0,0,1-8.62,3,79.51,79.51,0,0,1-8.79,2.52,78.57,78.57,0,0,1,8.63-3A82.48,82.48,0,0,1,151.57,18.6Z"/><path class="cls-5" d="M644.51,379.46c0,.14-131.56.26-293.81.26s-293.84-.12-293.84-.26,131.53-.26,293.84-.26S644.51,379.31,644.51,379.46Z"/><path class="cls-5" d="M414.58,78.75H74.15A10.63,10.63,0,0,0,63.52,89.38V329.83a10.63,10.63,0,0,0,10.63,10.63H204.8s8.31,25.7-17.45,39H309.52s-29.09-10-21.61-39H414.58a10.63,10.63,0,0,0,10.62-10.63V89.38A10.63,10.63,0,0,0,414.58,78.75Z"/><path class="cls-6" d="M248.91,315.17c4.63,6.62-2.62,13.87-9.24,9.24a2.37,2.37,0,0,1-.57-.57c-4.62-6.62,2.62-13.86,9.24-9.24A2.37,2.37,0,0,1,248.91,315.17Z"/><path class="cls-1" d="M79.08,83.16H409.64a9.7,9.7,0,0,1,9.7,9.7V296.47a0,0,0,0,1,0,0h-350a0,0,0,0,1,0,0V92.86A9.7,9.7,0,0,1,79.08,83.16Z"/><rect class="cls-7" x="306.06" y="157.43" width="61.29" height="90.93" transform="translate(75.18 496.39) rotate(-79.37)"/><rect class="cls-8" x="306.06" y="157.43" width="61.29" height="90.93" transform="translate(75.18 496.39) rotate(-79.37)"/><path class="cls-5" d="M387,181.16a5.69,5.69,0,0,1-1,.65l-2.9,1.71-10.74,6.18-35.67,20.14-.3.17-.22-.26-.53-.62-27-31.52L300.56,168c-.9-1.1-1.63-2-2.18-2.64a6.13,6.13,0,0,1-.71-1,7,7,0,0,1,.84.85l2.29,2.54,8.32,9.44,27.2,31.37.54.62-.52-.09,35.8-19.93L383,183.25l3-1.58A6.76,6.76,0,0,1,387,181.16Z"/><path class="cls-5" d="M286.36,224.63c-.14-.18,8.13-7.17,18.47-15.62s18.85-15.17,19-15-8.13,7.17-18.47,15.63S286.51,224.81,286.36,224.63Z"/><path class="cls-5" d="M353.68,198.84c.2-.1,5.3,9.34,11.39,21.09s10.87,21.37,10.66,21.47-5.3-9.33-11.39-21.09S353.47,199,353.68,198.84Z"/><path class="cls-5" d="M183.74,253.87a2.49,2.49,0,0,1-.05-.35c0-.27,0-.61-.07-1.05,0-.23,0-.48-.05-.76s-.1-.59-.15-.92a15.78,15.78,0,0,0-.47-2.26,21.09,21.09,0,0,0-2.44-5.81,21.78,21.78,0,0,0-26.16-9.27,22.78,22.78,0,0,0-2.83,1.25,24.58,24.58,0,0,0-2.67,1.71,25.53,25.53,0,0,0-2.46,2.1,24.65,24.65,0,0,0-2.13,2.52,21.11,21.11,0,0,0-3.1,6,21.54,21.54,0,0,0,0,13.71,21,21,0,0,0,3.1,6,24.65,24.65,0,0,0,2.13,2.52,25.53,25.53,0,0,0,2.46,2.1,24.58,24.58,0,0,0,2.67,1.71,22.78,22.78,0,0,0,2.83,1.25A21.82,21.82,0,0,0,180.51,265a21,21,0,0,0,2.44-5.81,15.78,15.78,0,0,0,.47-2.26c.05-.33.11-.63.15-.91l.05-.77c0-.44.06-.78.07-1a2.52,2.52,0,0,1,.05-.36,2,2,0,0,1,0,.36q0,.39,0,1.05c0,.23,0,.49,0,.77s-.07.59-.12.92a15.42,15.42,0,0,1-.42,2.29,20.78,20.78,0,0,1-2.39,5.91,22.08,22.08,0,0,1-5.59,6.32,21.82,21.82,0,0,1-9.31,4.18,22.12,22.12,0,0,1-11.67-.93,23.18,23.18,0,0,1-2.9-1.27,22.47,22.47,0,0,1-2.73-1.74,25.57,25.57,0,0,1-2.53-2.14,25.83,25.83,0,0,1-2.18-2.58,21.33,21.33,0,0,1-3.18-6.12,22,22,0,0,1,0-14,21.59,21.59,0,0,1,3.18-6.12,25.83,25.83,0,0,1,2.18-2.58,25.57,25.57,0,0,1,2.53-2.14,23.75,23.75,0,0,1,2.73-1.74,23.18,23.18,0,0,1,2.9-1.27,22.19,22.19,0,0,1,11.66-.93,22.11,22.11,0,0,1,14.91,10.5,21.08,21.08,0,0,1,2.39,5.91,15.42,15.42,0,0,1,.42,2.29c.05.33.1.64.12.92s0,.54,0,.78c0,.44,0,.78,0,1A2,2,0,0,1,183.74,253.87Z"/><path class="cls-5" d="M156.92,253.87a2.39,2.39,0,0,1,0,.58c0,.45,0,1,0,1.67,0,1.52-.09,3.58-.14,6.09l-.29-.17,14.72-7.86c0-.1,0,.85,0,.45h0l0,0-.07,0-.12-.08-.26-.16-.5-.32-1-.63-2-1.24-3.73-2.35-6.38-4.07.29-.16c-.12,2.51-.23,4.58-.31,6.1,0,.66-.08,1.21-.11,1.65a2.1,2.1,0,0,1-.08.58,2.17,2.17,0,0,1,0-.58c0-.44,0-1,0-1.66,0-1.52.08-3.59.14-6.1v-.34l.29.18,6.44,4,3.74,2.34,2,1.23,1,.63.51.32.25.16.13.08.06,0,0,0h0c0-.4,0,.55,0,.46l-14.78,7.74-.3.16,0-.34c.13-2.51.23-4.57.31-6.09.05-.67.08-1.22.11-1.66A2.73,2.73,0,0,1,156.92,253.87Z"/><rect class="cls-3" x="104.67" y="123.58" width="118.63" height="94.84" transform="translate(-45.15 59.67) rotate(-18.17)"/><path class="cls-5" d="M205.55,107.45l-.54.19-1.57.53-6.11,2-23,7.63L92.92,144.66l.14-.29c8.81,26.82,18.92,57.56,29.6,90.09h0l-.33-.17,112.72-37-.14.27c-8.86-27.16-16.21-49.67-21.35-65.4l-5.94-18.28c-.68-2.1-1.2-3.72-1.55-4.82s-.53-1.67-.53-1.67.2.54.56,1.61.89,2.69,1.59,4.77l6,18.19c5.2,15.75,12.63,38.28,21.6,65.47l.07.21-.2.06-112.7,37-.25.08-.08-.25h0c-10.67-32.53-20.75-63.28-29.55-90.1l-.07-.23.22-.07,81.59-26.65,23-7.5,6.08-2,1.56-.49Z"/><rect class="cls-7" x="108.77" y="129.58" width="110.29" height="82.9" transform="translate(-45.16 59.65) rotate(-18.17)"/><polygon class="cls-9" points="124.44 227.6 144.97 166.63 177.7 189.82 187.7 168.4 229.23 193.21 124.44 227.6"/><g class="cls-10"><path d="M175.3,150a8.68,8.68,0,1,1-11-5.54A8.67,8.67,0,0,1,175.3,150Z"/></g><path class="cls-7" d="M197.12,191.77l3.06,56.3a3.8,3.8,0,0,0,3.77,3.59l101.3.74a3.8,3.8,0,0,0,3.83-3.77l.32-43.82a3.8,3.8,0,0,0-3.8-3.83l-62.3,0a3.88,3.88,0,0,1-2.69-1.12l-10.75-10.74a3.73,3.73,0,0,0-2.65-1.11l-26.27-.2A3.8,3.8,0,0,0,197.12,191.77Z"/><g class="cls-11"><path d="M197.12,191.77l3.06,56.3a3.8,3.8,0,0,0,3.77,3.59l101.3.74a3.8,3.8,0,0,0,3.83-3.77l.32-43.82a3.8,3.8,0,0,0-3.8-3.83l-62.3,0a3.88,3.88,0,0,1-2.69-1.12l-10.75-10.74a3.73,3.73,0,0,0-2.65-1.11l-26.27-.2A3.8,3.8,0,0,0,197.12,191.77Z"/></g><rect class="cls-1" x="208.12" y="149.19" width="75" height="102.63" transform="translate(-61.07 120.04) rotate(-24.52)"/><path class="cls-5" d="M301,231.63l-.22-.45c-.15-.32-.36-.75-.62-1.32l-2.37-5.08L289,205.63c-7.54-16.41-18.22-39.69-30.87-67.24l.45.17-68.21,31.16h0l.19-.5,42.54,93.4-.41-.15L282.29,240l13.82-6.22,3.65-1.63c.82-.36,1.27-.54,1.27-.54l-1.19.58-3.56,1.66-13.7,6.34L232.93,263l-.28.12-.13-.27c-12-26.2-26.73-58.48-42.66-93.35l-.16-.34.34-.15h0L258.29,138l.31-.15.14.31,30.65,67.58c3.7,8.2,6.62,14.69,8.64,19.15q1.47,3.3,2.26,5.06c.24.56.43,1,.57,1.3A3,3,0,0,1,301,231.63Z"/><path class="cls-5" d="M240.49,169.11c.09.19-7.27,3.73-16.42,7.91s-16.65,7.41-16.74,7.22,7.27-3.72,16.43-7.9S240.4,168.93,240.49,169.11Z"/><path class="cls-5" d="M262.13,169c.08.19-11.29,5.56-25.39,12s-25.62,11.5-25.71,11.32,11.28-5.56,25.4-12S262,168.86,262.13,169Z"/><path class="cls-5" d="M266,177.51c.08.19-11.29,5.56-25.39,12S215,201,214.89,200.82s11.29-5.56,25.4-12S265.9,177.32,266,177.51Z"/><path class="cls-5" d="M269.85,186c.09.19-11.28,5.56-25.39,12s-25.62,11.5-25.7,11.31,11.28-5.55,25.39-12S269.76,185.79,269.85,186Z"/><path class="cls-5" d="M273.71,194.44c.09.19-11.28,5.56-25.39,12s-25.62,11.51-25.7,11.32,11.28-5.56,25.39-12S273.63,194.25,273.71,194.44Z"/><path class="cls-5" d="M277.57,202.9c.09.19-11.28,5.56-25.39,12s-25.61,11.5-25.7,11.31,11.28-5.55,25.39-12S277.49,202.71,277.57,202.9Z"/><path class="cls-5" d="M281.44,211.37c.08.18-11.29,5.56-25.39,12s-25.62,11.51-25.71,11.32,11.28-5.56,25.39-12S281.35,211.18,281.44,211.37Z"/><path class="cls-5" d="M261.67,230.61c.08.19-6,3.15-13.58,6.61s-13.8,6.11-13.89,5.92,6-3.14,13.58-6.6S261.58,230.42,261.67,230.61Z"/><rect class="cls-1" x="220.8" y="139.09" width="77.88" height="106.58" transform="translate(-38.72 68.29) rotate(-13.95)"/><path class="cls-5" d="M310.38,234.71l-.14-.5c-.1-.35-.22-.84-.39-1.46-.33-1.31-.81-3.2-1.44-5.64L303,205.88c-4.56-18.19-11-44-18.69-74.52l.43.26-75.57,18.81h0l.28-.47L235.1,253.41l-.38-.23,54.93-13.47L304.94,236l4-1c.92-.22,1.41-.32,1.41-.32l-1.32.37-4,1L289.91,240l-55,13.84-.3.08-.08-.31L208.73,150.15l-.1-.38.38-.1h0l75.59-18.73.34-.09.08.34c7.54,30.66,13.92,56.56,18.41,74.83,2.21,9.08,4,16.25,5.17,21.19l1.34,5.6c.15.61.26,1.08.34,1.43A3.32,3.32,0,0,1,310.38,234.71Z"/><path class="cls-5" d="M260.49,159.36c.06.21-8.13,2.42-18.27,4.94s-18.41,4.39-18.46,4.18,8.13-2.42,18.28-4.94S260.44,159.15,260.49,159.36Z"/><path class="cls-5" d="M282.59,163.41c.05.21-12.57,3.53-28.2,7.41s-28.34,6.86-28.4,6.65,12.58-3.52,28.21-7.41S282.54,163.2,282.59,163.41Z"/><path class="cls-5" d="M284.92,172.79c.05.21-12.58,3.52-28.2,7.4s-28.34,6.87-28.4,6.66,12.58-3.53,28.21-7.41S284.87,172.58,284.92,172.79Z"/><path class="cls-5" d="M287.25,182.17c.05.2-12.58,3.52-28.2,7.4s-28.35,6.86-28.4,6.65,12.58-3.52,28.21-7.4S287.2,182,287.25,182.17Z"/><path class="cls-5" d="M289.58,191.54c.05.21-12.58,3.53-28.2,7.41S233,205.81,233,205.6s12.58-3.52,28.21-7.41S289.53,191.33,289.58,191.54Z"/><path class="cls-5" d="M291.91,200.92c0,.21-12.58,3.52-28.21,7.4s-28.34,6.87-28.39,6.66,12.58-3.53,28.21-7.41S291.86,200.71,291.91,200.92Z"/><path class="cls-5" d="M294.24,210.29c.05.21-12.58,3.53-28.21,7.41s-28.34,6.86-28.39,6.65,12.57-3.52,28.21-7.4S294.19,210.09,294.24,210.29Z"/><path class="cls-5" d="M270.39,226.17c.05.21-6.72,2.07-15.12,4.16s-15.25,3.61-15.3,3.4,6.71-2.07,15.12-4.16S270.34,226,270.39,226.17Z"/><path class="cls-7" d="M189.94,199.42l7.95,69a2.44,2.44,0,0,0,2.41,2.17l107.87.79a2.45,2.45,0,0,0,2.45-2.24l5.94-68.93a2.45,2.45,0,0,0-2.42-2.65l-121.75-.9A2.45,2.45,0,0,0,189.94,199.42Z"/><path class="cls-5" d="M317.4,136.38s.34-.54.73-1.6a7.2,7.2,0,0,0,.05-4.65,7.08,7.08,0,0,0-1.68-2.74,7,7,0,0,0-3.18-1.82,6.83,6.83,0,0,0-4,.14,7,7,0,0,0-3.45,2.58,7,7,0,0,0-1.25,4.13,7,7,0,0,0,4,6.19,7.11,7.11,0,0,0,7.5-1c.86-.72,1.21-1.27,1.25-1.23s-.07.15-.24.4a5.65,5.65,0,0,1-.88,1,7.16,7.16,0,0,1-4.47,1.84,7.37,7.37,0,0,1-7.72-7.18,7.36,7.36,0,0,1,5-7.2,7.36,7.36,0,0,1,9.4,4.79,7.21,7.21,0,0,1-.21,4.83,5.38,5.38,0,0,1-.63,1.17C317.51,136.27,317.42,136.39,317.4,136.38Z"/><path class="cls-5" d="M337.35,150.35c-.05,0,.35-.55.73-1.6a7.14,7.14,0,0,0,.05-4.65,7,7,0,0,0-1.68-2.74,7.08,7.08,0,0,0-3.18-1.83,6.84,6.84,0,0,0-4,.15,6.91,6.91,0,0,0-4.7,6.7,6.86,6.86,0,0,0,1.25,3.83,7,7,0,0,0,2.8,2.36,6.9,6.9,0,0,0,3.15.64,7.14,7.14,0,0,0,4.35-1.63c.86-.73,1.21-1.27,1.25-1.23s-.06.14-.24.39a5.26,5.26,0,0,1-.88,1,7.08,7.08,0,0,1-4.46,1.85,7.18,7.18,0,0,1-3.35-.62,7.37,7.37,0,0,1-4.38-6.57,7.37,7.37,0,0,1,5-7.2,7.31,7.31,0,0,1,4.31-.12,7.38,7.38,0,0,1,3.36,2,7.28,7.28,0,0,1,1.72,2.93,7.21,7.21,0,0,1-.21,4.83,5.92,5.92,0,0,1-.63,1.17C337.47,150.23,337.37,150.36,337.35,150.35Z"/><path class="cls-5" d="M337.43,150.47a3.19,3.19,0,0,1,.26-.5c.21-.35.47-.81.81-1.39.7-1.22,1.72-3,2.9-5.3s2.5-5.11,3.86-8.37,2.8-6.94,4.4-10.9l.12.32a76,76,0,0,1-22.07-15l.42-.21a31.32,31.32,0,0,1-5.41,21.29,29.61,29.61,0,0,1-4.24,4.89c-.55.52-1,.86-1.32,1.12a2.66,2.66,0,0,1-.48.35,4.21,4.21,0,0,1,.42-.42c.28-.27.74-.63,1.26-1.17a30.87,30.87,0,0,0,4.1-4.95,31.51,31.51,0,0,0,4.13-8.82,30.71,30.71,0,0,0,1.05-12.23l-.09-.69.51.48A77.25,77.25,0,0,0,350,123.88l.22.1-.09.22c-1.61,3.94-3.06,7.62-4.47,10.87s-2.75,6.07-4,8.35-2.29,4.05-3,5.24l-.88,1.36A2.11,2.11,0,0,1,337.43,150.47Z"/><path class="cls-5" d="M346.06,134.05c-.08.12-4.34-2.72-9.51-6.33s-9.29-6.65-9.21-6.77,4.34,2.72,9.51,6.34S346.14,133.93,346.06,134.05Z"/><path class="cls-1" d="M268.4,235c-.23,0-.11-2.07-1.36-5a14.6,14.6,0,0,0-3.1-4.56,14.32,14.32,0,0,0-5.73-3.43,14.07,14.07,0,0,0-11.79,1.68c-2.67,1.76-3.76,3.53-3.93,3.4s.14-.52.69-1.27A12.61,12.61,0,0,1,246,223a14,14,0,0,1,5.37-2.42,14.85,14.85,0,0,1,7.21.31,14.59,14.59,0,0,1,6.15,3.78,14.24,14.24,0,0,1,3.1,5,13,13,0,0,1,.76,3.87C268.53,234.49,268.48,235,268.4,235Z"/><path class="cls-1" d="M261.64,230c.19-.26,3.32,1.81,7,4.6l.2.16L268,235c1.49-4.24,2.92-7.56,3.21-7.46s-.66,3.59-2.13,7.84l-.26.74-.63-.47-.2-.16C264.27,232.7,261.45,230.23,261.64,230Z"/><path class="cls-1" d="M241.72,232.65c.23,0-.14,2,.7,5a14.54,14.54,0,0,0,2.38,4.79,14.27,14.27,0,0,0,6.58,4.8,16.05,16.05,0,0,0,1.61.44,13.75,13.75,0,0,0,3.14.33,14.12,14.12,0,0,0,5.24-1.06,16.4,16.4,0,0,0,3.21-1.77c.73-.5,1.11-.81,1.17-.75s-.23.47-.88,1.09a12.23,12.23,0,0,1-3.17,2.16,13.8,13.8,0,0,1-5.55,1.38,14.2,14.2,0,0,1-3.39-.28c-.58-.11-1.16-.3-1.75-.46a17,17,0,0,1-1.72-.72,14.1,14.1,0,0,1-5.34-4.54,13.88,13.88,0,0,1-2.31-5.22,14.75,14.75,0,0,1-.29-2.18c0-.64,0-1.19.05-1.64C241.53,233.12,241.64,232.64,241.72,232.65Z"/><path class="cls-1" d="M247.81,238.46c-.22.23-3.07-2.2-6.38-5.43l-.18-.18.91-.15c-2,4-3.82,7.15-4.1,7s1.09-3.48,3.07-7.52l.35-.7.56.55.19.18C245.53,235.44,248,238.24,247.81,238.46Z"/><rect class="cls-6" x="506.99" y="275.06" width="127.17" height="34.44"/><rect class="cls-5" x="510.41" y="279.39" width="6.85" height="26.36"/><path class="cls-1" d="M525.33,284.94a2.18,2.18,0,1,1-2.18-2.18A2.18,2.18,0,0,1,525.33,284.94Z"/><path class="cls-1" d="M525.33,294.25a2.18,2.18,0,1,1-2.18-2.18A2.19,2.19,0,0,1,525.33,294.25Z"/><rect class="cls-5" x="534.03" y="282.76" width="6.73" height="20.25"/><rect class="cls-5" x="543.76" y="282.76" width="6.73" height="20.25"/><rect class="cls-5" x="553.48" y="282.76" width="6.73" height="20.25"/><rect class="cls-5" x="563.2" y="282.76" width="6.73" height="20.25"/><rect class="cls-5" x="572.93" y="282.76" width="6.73" height="20.25"/><rect class="cls-5" x="582.65" y="282.76" width="6.73" height="20.25"/><rect class="cls-5" x="592.38" y="282.76" width="6.73" height="20.25"/><rect class="cls-5" x="602.1" y="282.76" width="6.73" height="20.25"/><rect class="cls-5" x="611.83" y="282.76" width="6.73" height="20.25"/><rect class="cls-5" x="621.55" y="282.76" width="6.73" height="20.25"/><rect class="cls-5" x="634.16" y="275.06" width="22.72" height="34.44"/><rect class="cls-6" x="506.99" y="313.06" width="127.17" height="34.44"/><rect class="cls-5" x="510.41" y="317.39" width="6.85" height="26.36"/><path class="cls-1" d="M525.33,322.93a2.18,2.18,0,1,1-2.18-2.18A2.19,2.19,0,0,1,525.33,322.93Z"/><path class="cls-1" d="M525.33,332.25a2.18,2.18,0,1,1-2.18-2.18A2.18,2.18,0,0,1,525.33,332.25Z"/><rect class="cls-5" x="534.03" y="320.75" width="6.73" height="20.25"/><rect class="cls-5" x="543.76" y="320.75" width="6.73" height="20.25"/><rect class="cls-5" x="553.48" y="320.75" width="6.73" height="20.25"/><rect class="cls-5" x="563.2" y="320.75" width="6.73" height="20.25"/><rect class="cls-5" x="572.93" y="320.75" width="6.73" height="20.25"/><rect class="cls-5" x="582.65" y="320.75" width="6.73" height="20.25"/><rect class="cls-5" x="592.38" y="320.75" width="6.73" height="20.25"/><rect class="cls-5" x="602.1" y="320.75" width="6.73" height="20.25"/><rect class="cls-5" x="611.83" y="320.75" width="6.73" height="20.25"/><rect class="cls-5" x="621.55" y="320.75" width="6.73" height="20.25"/><rect class="cls-5" x="634.16" y="313.06" width="22.72" height="34.44"/><rect class="cls-6" x="506.99" y="350.53" width="127.17" height="34.44"/><rect class="cls-5" x="510.41" y="354.86" width="6.85" height="26.36"/><path class="cls-1" d="M525.33,360.4a2.18,2.18,0,1,1-2.18-2.18A2.19,2.19,0,0,1,525.33,360.4Z"/><path class="cls-1" d="M525.33,369.72a2.18,2.18,0,1,1-2.18-2.18A2.18,2.18,0,0,1,525.33,369.72Z"/><rect class="cls-5" x="534.03" y="358.22" width="6.73" height="20.25"/><rect class="cls-5" x="543.76" y="358.22" width="6.73" height="20.25"/><rect class="cls-5" x="553.48" y="358.22" width="6.73" height="20.25"/><rect class="cls-5" x="563.2" y="358.22" width="6.73" height="20.25"/><rect class="cls-5" x="572.93" y="358.22" width="6.73" height="20.25"/><rect class="cls-5" x="582.65" y="358.22" width="6.73" height="20.25"/><rect class="cls-5" x="592.38" y="358.22" width="6.73" height="20.25"/><rect class="cls-5" x="602.1" y="358.22" width="6.73" height="20.25"/><rect class="cls-5" x="611.83" y="358.22" width="6.73" height="20.25"/><rect class="cls-5" x="621.55" y="358.22" width="6.73" height="20.25"/><rect class="cls-5" x="634.16" y="350.53" width="22.72" height="34.44"/><rect class="cls-5" x="656.88" y="292.07" width="8.67" height="6.02"/><path class="cls-5" d="M552.79,129.78V123.3a.92.92,0,0,1,.92-.91h6a.92.92,0,0,1,.92.91v6.48a3.93,3.93,0,0,1-3.93,3.93h0A3.93,3.93,0,0,1,552.79,129.78Z"/><rect class="cls-5" x="656.88" y="328.58" width="8.67" height="6.02"/><rect class="cls-5" x="656.88" y="363.66" width="8.67" height="6.02"/><rect class="cls-5" x="497.73" y="363.66" width="8.67" height="6.02"/><path class="cls-5" d="M685.44,312.36a5.1,5.1,0,0,1,0,1.23,8.64,8.64,0,0,1-.09,1.44,14.07,14.07,0,0,1-.31,1.9,16.34,16.34,0,0,1-.63,2.24c-.15.4-.27.82-.46,1.22l-.59,1.25a20.8,20.8,0,0,1-3.6,5,21,21,0,0,1-5,3.61l-1.25.59c-.41.19-.83.3-1.22.45a16.17,16.17,0,0,1-2.25.64,13.8,13.8,0,0,1-1.89.3,8.89,8.89,0,0,1-1.45.1,5.93,5.93,0,0,1-1.23,0c0-.13,1.76-.06,4.49-.72a17.33,17.33,0,0,0,2.18-.68c.38-.16.79-.28,1.18-.47l1.22-.6a19.91,19.91,0,0,0,8.36-8.36l.59-1.21A12.58,12.58,0,0,0,684,319a16.26,16.26,0,0,0,.68-2.18C685.38,314.12,685.32,312.35,685.44,312.36Z"/><path class="cls-5" d="M685.44,274.53a5.1,5.1,0,0,1,0,1.23,8.75,8.75,0,0,1-.09,1.45,13.94,13.94,0,0,1-.31,1.89,16.86,16.86,0,0,1-.63,2.25c-.15.39-.27.81-.46,1.22l-.59,1.24a20.84,20.84,0,0,1-3.6,5,21.28,21.28,0,0,1-5,3.6l-1.25.59c-.41.19-.83.31-1.22.45a14.91,14.91,0,0,1-2.25.64,15.71,15.71,0,0,1-1.89.31,8.75,8.75,0,0,1-1.45.09,5.16,5.16,0,0,1-1.23,0c0-.12,1.76-.06,4.49-.72a17.33,17.33,0,0,0,2.18-.68c.38-.16.79-.28,1.18-.47l1.22-.6a19.91,19.91,0,0,0,8.36-8.36c.2-.41.4-.81.59-1.21a12.58,12.58,0,0,0,.47-1.18,16.26,16.26,0,0,0,.68-2.18C685.38,276.29,685.32,274.52,685.44,274.53Z"/><path class="cls-5" d="M502.07,366.67l-.46,0-1.35,0-5.17,0-19,.09-62.77.07h-26.4c-2.79,0-5.49.08-8.18-.13a27,27,0,0,1-7.58-1.82,17.82,17.82,0,0,1-1.72-.79,12.86,12.86,0,0,1-1.64-.87l-1.56-1-1.44-1.08a13.54,13.54,0,0,1-1.35-1.14c-.42-.4-.88-.77-1.26-1.19a25,25,0,0,1-2.19-2.58,26.07,26.07,0,0,1-5.31-16.09c0-3.18,0-5.93,0-8.18s0-4,.05-5.18c0-.57,0-1,0-1.34s0-.46,0-.46,0,.16,0,.46,0,.77,0,1.34c0,1.21,0,2.95,0,5.18s0,5,.05,8.18a26.5,26.5,0,0,0,7.5,18.37c.39.42.84.78,1.26,1.17a11.09,11.09,0,0,0,1.33,1.12l1.42,1.06,1.54.93a11.82,11.82,0,0,0,1.61.86,17.09,17.09,0,0,0,1.69.76,26.87,26.87,0,0,0,7.46,1.78c2.61.19,5.35.07,8.13.1h26.4l62.77.08,19,.08,5.17.05,1.35,0A4.13,4.13,0,0,1,502.07,366.67Z"/><path class="cls-5" d="M556.72,132.05s0,.31,0,.92,0,1.51,0,2.68V146c0,9-.06,22-.1,38,0,8-.06,16.8-.1,26.23,0,2.36,0,4.75,0,7.19,0,1.22,0,2.44,0,3.68s.12,2.46.18,3.71a33.81,33.81,0,0,0,5,14.39,33.15,33.15,0,0,0,11.53,11.09c.29.17.58.37.88.53l.94.45,1.87.9,2,.72a13.7,13.7,0,0,0,2,.64l2,.53c.69.16,1.4.22,2.09.35a31.8,31.8,0,0,0,4.26.37c11.52.06,23.47,0,35.7,0h44.29a16.47,16.47,0,0,1,16.36,15.75c0,21.2,0,40.3,0,56.34q0,6,0,11.44c0,1.8,0,3.55,0,5.26a32,32,0,0,1-.25,4.94,21.21,21.21,0,0,1-8.1,13.82,20.81,20.81,0,0,1-9.41,4.08c-.58.08-1.1.17-1.54.21l-1.13,0-.92,0,.92-.07,1.12-.07c.44,0,1-.15,1.54-.24a20.91,20.91,0,0,0,9.3-4.13,21.38,21.38,0,0,0,4.94-5.48,20.93,20.93,0,0,0,3-8.22,31.33,31.33,0,0,0,.23-4.9c0-1.71,0-3.46,0-5.26q0-5.43,0-11.44c0-16-.06-35.12-.09-56.32a16,16,0,0,0-8-13.13,16.25,16.25,0,0,0-7.9-2.14H625c-12.24,0-24.17,0-35.71,0a31.09,31.09,0,0,1-4.32-.38c-.71-.13-1.43-.19-2.12-.36l-2.08-.53a15.49,15.49,0,0,1-2-.65l-2-.74-1.91-.92-.94-.45c-.31-.17-.6-.36-.9-.54a33.75,33.75,0,0,1-11.69-11.26,34.24,34.24,0,0,1-5.07-14.6c-.07-1.26-.15-2.52-.18-3.76s0-2.47,0-3.68c0-2.44,0-4.84,0-7.19.06-9.43.11-18.21.16-26.23.12-16,.21-29,.27-38,0-4.48.08-7.95.1-10.33,0-1.17,0-2.06,0-2.68S556.72,132.05,556.72,132.05Z"/><path class="cls-5" d="M521,138.27c-2.22-.5-2.71-3.11-2.91-4.58a5,5,0,0,1,1.33-4.09c2-2.06,5.32-2,8-1.16a40.19,40.19,0,0,0,6.5,1.88c2.18.37,5.11-.52,8.2,1,2.35,1.14,2,3.26,3.21,4s1.84,1.44,3,2.21c1.52,1,1.63,3.18,1.31,5s-.88,3.68-.17,5.35c.49,1.17,1.55,2,2,3.22a3.72,3.72,0,0,1-1.64,4.47,6.31,6.31,0,0,0-1.57.87,5.58,5.58,0,0,0-.93,2.36,4.2,4.2,0,0,1-3.69,2.85,3.78,3.78,0,0,1-3.72-2.69,8.2,8.2,0,0,1,.48-4.1,26,26,0,0,0,.5-11.14"/><path class="cls-12" d="M540.77,173.1l-14.54-1.16c-.09-1.7,0-8.27,0-8.27s-6-.94-6.12-7,1-19.94,1-19.94h0a21,21,0,0,1,21.12,2.66l.9.69Z"/><path class="cls-5" d="M522.7,147.61a.87.87,0,0,0,.06-1.24.88.88,0,1,0-.06,1.24Z"/><path class="cls-5" d="M521,145.77c.09.1.69-.36,1.52-.36s1.44.43,1.53.32-.05-.24-.31-.44a2,2,0,0,0-1.23-.38,2,2,0,0,0-1.21.41C521.08,145.53,521,145.72,521,145.77Z"/><path class="cls-5" d="M530.66,146.4a.87.87,0,0,0-.29,1.21.88.88,0,1,0,1.49-.92A.88.88,0,0,0,530.66,146.4Z"/><path class="cls-5" d="M530.11,146.12c.09.11.69-.35,1.52-.35s1.44.42,1.53.32,0-.24-.31-.44a2.09,2.09,0,0,0-1.23-.39,2,2,0,0,0-1.21.42C530.15,145.89,530.06,146.08,530.11,146.12Z"/><path class="cls-5" d="M526.75,153.37a4.18,4.18,0,0,0-1.35-.28c-.22,0-.39-.08-.41-.2a1.3,1.3,0,0,1,.16-.62c.22-.55.43-1.11.66-1.69a23.47,23.47,0,0,0,1.43-4.45,22.42,22.42,0,0,0-1.87,4.28c-.22.59-.42,1.15-.63,1.71a1.39,1.39,0,0,0-.12.9.57.57,0,0,0,.38.35,1.9,1.9,0,0,0,.37,0A3.91,3.91,0,0,0,526.75,153.37Z"/><path class="cls-13" d="M526.25,163.59a14.09,14.09,0,0,0,7.89-2.24s-1.87,4.35-7.9,3.8Z"/><path class="cls-5" d="M521,138.27a10.08,10.08,0,0,0,8.49,0c3.25-1.33,7-1.82,7.72-1.13s.69,3.93,3.72,5.1c0,0-.67,6.15,1.81,6.11s1.64-9.7,1.64-9.7l-5.79-3.38-6.47-1.72-6.24.41-4.88,1Z"/><path class="cls-12" d="M542.38,146.36c.11,0,4.16-1.23,4,2.91s-4.26,3.15-4.26,3S542.38,146.36,542.38,146.36Z"/><path class="cls-13" d="M543.46,150.77s.07,0,.19.11a.69.69,0,0,0,.54,0,1.79,1.79,0,0,0,.88-1.57,2.47,2.47,0,0,0-.17-1,.87.87,0,0,0-.53-.57.37.37,0,0,0-.43.19c-.06.11,0,.19-.06.2s-.08-.07,0-.24a.49.49,0,0,1,.17-.26.58.58,0,0,1,.4-.09,1,1,0,0,1,.73.67,2.41,2.41,0,0,1,.21,1.16,1.87,1.87,0,0,1-1.1,1.75.8.8,0,0,1-.66-.13C543.47,150.87,543.45,150.78,543.46,150.77Z"/><path class="cls-5" d="M524.57,144.61c-.14.25-.93,0-1.88,0s-1.75.07-1.86-.18.7-.85,1.91-.79S524.71,144.4,524.57,144.61Z"/><path class="cls-5" d="M534.21,144.79c-.13.24-.92,0-1.87,0s-1.75.07-1.87-.18.71-.85,1.91-.79S534.36,144.57,534.21,144.79Z"/><path class="cls-5" d="M534,136.23a8.7,8.7,0,0,0,9.18,8.21,16.07,16.07,0,0,0-2.54-6.58c-1.45-1.87-4-3.11-6.23-2.34"/><path class="cls-5" d="M530,153.2c.05,0,.1.25,0,.65a2.6,2.6,0,0,1-2.27,1.94c-.41,0-.65,0-.64-.1a5.94,5.94,0,0,0,1.81-.83C529.79,154.15,529.92,153.18,530,153.2Z"/><path class="cls-5" d="M530.57,153.63c-.05,0-.29-.21-.68-.25s-.68.12-.72.07.26-.34.75-.28S530.62,153.61,530.57,153.63Z"/><path class="cls-6" d="M545.09,152a1.07,1.07,0,0,1,.18,1,1.43,1.43,0,0,1-.64.91,1.51,1.51,0,0,1-1.35.07,1.35,1.35,0,0,1-.81-1.07,1.41,1.41,0,0,1,.25-1.08c.41-.54.92-.43.88-.41a1.1,1.1,0,0,0-.76.5,1.3,1.3,0,0,0-.18,1,1.16,1.16,0,0,0,.7.91,1.35,1.35,0,0,0,1.18,0,1.31,1.31,0,0,0,.58-.78A1.72,1.72,0,0,0,545.09,152Z"/><path class="cls-6" d="M519.07,130a5.83,5.83,0,0,0,.16.92,3.81,3.81,0,0,0,1.51,2,7.44,7.44,0,0,0,3.53,1.1,11.64,11.64,0,0,0,4.53-.5c1.56-.46,2.84-1.48,4.3-1.72a4.14,4.14,0,0,1,4.77,3.33,2.93,2.93,0,0,1,0,.94,8,8,0,0,0-.13-.92,4.07,4.07,0,0,0-4.66-3.16c-1.39.23-2.67,1.25-4.27,1.73a11.65,11.65,0,0,1-4.61.49,7.56,7.56,0,0,1-3.6-1.17,3.86,3.86,0,0,1-1.5-2.05A2.33,2.33,0,0,1,519.07,130Z"/><path class="cls-6" d="M537.81,135.88a2.46,2.46,0,0,1,.78-.76,3.2,3.2,0,0,1,2.9-.33,3.39,3.39,0,0,1,1.59,1.32,4.14,4.14,0,0,1,.54,2.31,20.17,20.17,0,0,0,0,2.58,2.84,2.84,0,0,0,1.43,2.18,9.78,9.78,0,0,1,2.31,1.59,4.59,4.59,0,0,1,.95,2.45c.17,1.67-.08,3.17.16,4.39a3.84,3.84,0,0,0,1.42,2.48,2.85,2.85,0,0,0,1,.45,1.88,1.88,0,0,1-1-.38,3.87,3.87,0,0,1-1.51-2.52c-.27-1.25,0-2.77-.21-4.4a4.49,4.49,0,0,0-.92-2.33,9.57,9.57,0,0,0-2.27-1.56,3.42,3.42,0,0,1-1-1,3.08,3.08,0,0,1-.47-1.33,18.75,18.75,0,0,1,0-2.61,4.12,4.12,0,0,0-.49-2.22,3.21,3.21,0,0,0-1.51-1.27,3.11,3.11,0,0,0-2.79.26A4.22,4.22,0,0,0,537.81,135.88Z"/><path class="cls-6" d="M549.5,139.53a.72.72,0,0,0-.07-.55,1.22,1.22,0,0,0-1.38-.43,6,6,0,0,1-1.12.15,1.74,1.74,0,0,1-1.18-.57c-.68-.69-.82-1.75-1.42-2.56a3.91,3.91,0,0,0-2.34-1.51,3.81,3.81,0,0,0-2.29.23,4.81,4.81,0,0,0-1.7,1.33,2.29,2.29,0,0,1,.34-.49,3.92,3.92,0,0,1,3.69-1.26,4.07,4.07,0,0,1,2.47,1.58c.63.87.77,1.92,1.39,2.54a1.51,1.51,0,0,0,1.05.53,6.29,6.29,0,0,0,1.09-.11,1.94,1.94,0,0,1,.94.06,1,1,0,0,1,.53.47C549.68,139.32,549.5,139.55,549.5,139.53Z"/><path class="cls-6" d="M536.27,130.42s.09,0,.27-.06a1.73,1.73,0,0,1,.76.14,2.5,2.5,0,0,1,1.44,2,5,5,0,0,1-.33,2.47,3.71,3.71,0,0,1-.42.94,6.87,6.87,0,0,1,.28-1,5.63,5.63,0,0,0,.27-2.4,2.45,2.45,0,0,0-1.3-1.89A2.52,2.52,0,0,0,536.27,130.42Z"/><path class="cls-6" d="M522.18,138.64a11.83,11.83,0,0,0,2.45.5,8.74,8.74,0,0,0,5.67-1.57c1-.68,1.68-1.58,2.55-2.16a3.34,3.34,0,0,1,2.66-.59,6,6,0,0,1,1.71.7l.43.27c.09.07.14.1.13.11l-.6-.31a6.2,6.2,0,0,0-1.7-.62,3.21,3.21,0,0,0-2.52.59c-.84.58-1.56,1.47-2.53,2.18a8.72,8.72,0,0,1-5.81,1.55A6.76,6.76,0,0,1,522.18,138.64Z"/><polygon class="cls-2" points="488.82 346.94 490.15 361.51 505.23 363.13 505.23 345.25 488.82 346.94"/><polygon class="cls-6" points="489.41 353.32 505.23 353.32 505.23 355.06 489.6 355.45 489.41 353.32"/><polygon class="cls-6" points="489.72 356.71 489.89 358.65 505.23 358.57 505.23 356.62 489.72 356.71"/><polygon class="cls-6" points="490.15 361.51 490.05 360.38 505.23 360.11 505.21 361.21 490.15 361.51"/><path class="cls-7" d="M490.17,363.07l-.05-1.63,15.3-.57.24,5.35-1,.1c-4.19.4-21.35,1.74-24.19,1C477.35,366.49,490.17,363.07,490.17,363.07Z"/><g class="cls-14"><path class="cls-1" d="M500.13,366.32a5.32,5.32,0,0,1,1.81-3.32,5.18,5.18,0,0,1,3.52-1.25l.17,4.26Z"/></g><g class="cls-14"><path class="cls-1" d="M483.92,365s-4.49,1.48-3.89,2.21,18,0,25.63-1l0-.34-20.28,1S484.81,365,483.92,365Z"/></g><path class="cls-5" d="M505.86,365.87l-.26,0-.75.08-2.77.23c-2.33.18-5.56.38-9.13.53s-6.81.21-9.15.22H481l-.75,0a.8.8,0,0,1-.27,0l.27,0,.75,0,2.77-.05c2.34-.05,5.57-.13,9.14-.28s6.8-.33,9.13-.47l2.77-.17.75,0Z"/><path class="cls-5" d="M485.36,367.11a6.82,6.82,0,0,0-.57-1.3,6.46,6.46,0,0,0-1-1,2,2,0,0,1,1.14.92A2.12,2.12,0,0,1,485.36,367.11Z"/><path class="cls-5" d="M489.76,364.65s-.27-.23-.51-.57-.39-.64-.35-.67.27.23.51.57S489.8,364.62,489.76,364.65Z"/><path class="cls-5" d="M491,364s-.27-.11-.55-.34-.46-.44-.43-.48.28.11.55.34S491,363.91,491,364Z"/><path class="cls-5" d="M491.69,362.48a1.8,1.8,0,0,1-.79.13,1.86,1.86,0,0,1-.8-.05,1.76,1.76,0,0,1,.79-.13A1.72,1.72,0,0,1,491.69,362.48Z"/><path class="cls-5" d="M491.91,361.45a1.48,1.48,0,0,1-.87.3,1.5,1.5,0,0,1-.92-.09,5.19,5.19,0,0,1,.9-.1A5.42,5.42,0,0,1,491.91,361.45Z"/><path class="cls-5" d="M489.19,363.34a2.86,2.86,0,0,1-1,0,5.93,5.93,0,0,1-1-.18,2.7,2.7,0,0,1-.61-.23.49.49,0,0,1-.25-.29.38.38,0,0,1,.13-.4,1.83,1.83,0,0,1,2.59,1.08.58.58,0,0,1,0,.26,2.65,2.65,0,0,0-.48-.81,1.67,1.67,0,0,0-.86-.51,1.52,1.52,0,0,0-1.16.12c-.15.12-.08.3.1.4a2.49,2.49,0,0,0,.56.21,5.81,5.81,0,0,0,1,.22C488.81,363.32,489.19,363.31,489.19,363.34Z"/><path class="cls-5" d="M488.94,363.4a.92.92,0,0,1-.14-.68A1.58,1.58,0,0,1,489,362a1,1,0,0,1,.8-.53.39.39,0,0,1,.32.44,1,1,0,0,1-.15.44,2.83,2.83,0,0,1-.44.61,1.41,1.41,0,0,1-.54.42s.19-.18.44-.5a3.39,3.39,0,0,0,.39-.61c.13-.21.2-.58,0-.62s-.49.24-.63.44a1.56,1.56,0,0,0-.25.65A3.26,3.26,0,0,0,488.94,363.4Z"/><path class="cls-5" d="M505.38,361.71s-.44,0-1.13.09a4.78,4.78,0,0,0-3.86,3.34c-.2.66-.21,1.1-.24,1.09a.89.89,0,0,1,0-.3,3.45,3.45,0,0,1,.13-.83,4.63,4.63,0,0,1,4-3.43,4.11,4.11,0,0,1,.84,0A.9.9,0,0,1,505.38,361.71Z"/><path class="cls-5" d="M498.15,364.91a8,8,0,0,1-2.21.31,9,9,0,0,1-2.24-.08c0-.06,1,0,2.23-.1S498.14,364.86,498.15,364.91Z"/><path class="cls-5" d="M501.14,364.79s-.08.21-.17.45-.14.43-.19.43-.09-.24,0-.5S501.1,364.76,501.14,364.79Z"/><path class="cls-5" d="M502.21,363.35s-.06.19-.21.36-.3.27-.34.24,0-.2.2-.37S502.17,363.31,502.21,363.35Z"/><path class="cls-5" d="M503.79,362.64c0,.05-.21.06-.43.15s-.38.21-.42.18.08-.25.35-.36S503.8,362.59,503.79,362.64Z"/><path class="cls-5" d="M504.92,362.29s-.06.13-.19.19-.24.06-.26,0,.07-.13.19-.18S504.9,362.25,504.92,362.29Z"/><polygon class="cls-6" points="489.2 351.02 489.28 351.9 505.23 351.68 505.23 350.63 489.2 351.02"/><polygon class="cls-2" points="450.68 311.83 445.26 325.41 457.96 333.69 466.07 317.76 450.68 311.83"/><polygon class="cls-6" points="448.31 317.77 462.41 324.95 461.62 326.5 447.51 319.76 448.31 317.77"/><polygon class="cls-6" points="447.05 320.94 446.32 322.75 460.02 329.63 460.91 327.89 447.05 320.94"/><polygon class="cls-6" points="445.26 325.41 445.68 324.36 459.32 331.01 458.81 331.97 445.26 325.41"/><path class="cls-7" d="M444.57,326.81l.69-1.47,13.89,6.43-2.22,4.88-.88-.34c-3.92-1.55-19.81-8.14-22-10.09C431.59,324.05,444.57,326.81,444.57,326.81Z"/><g class="cls-14"><path class="cls-1" d="M452,334.23a5.26,5.26,0,0,1,3.13-2.14,5.12,5.12,0,0,1,3.7.48L457,336.44Z"/></g><g class="cls-14"><path class="cls-1" d="M438.13,325.67s-4.67-.71-4.47.2,16,8.18,23.27,10.78l.12-.32L438.54,328S438.92,326.07,438.13,325.67Z"/></g><path class="cls-5" d="M457.28,336.42l-.25-.08-.71-.28L453.76,335c-2.16-.9-5.13-2.18-8.38-3.67s-6.16-2.9-8.25-3.95l-2.47-1.26-.67-.36c-.15-.08-.23-.12-.22-.13l.24.1.68.33,2.49,1.2c2.11,1,5,2.42,8.28,3.9s6.2,2.79,8.35,3.72l2.54,1.11.69.3Z"/><path class="cls-5" d="M438.44,328.23a5.55,5.55,0,0,0,.08-1.42,6.17,6.17,0,0,0-.41-1.36,2.11,2.11,0,0,1,.6,1.34A2,2,0,0,1,438.44,328.23Z"/><path class="cls-5" d="M443.48,328c-.05,0-.14-.32-.19-.73a.38.38,0,1,1,.18,0A1.52,1.52,0,0,1,443.48,328Z"/><path class="cls-5" d="M444.88,328c-.05,0-.2-.22-.34-.55s-.22-.6-.17-.62.2.23.34.55S444.92,327.93,444.88,328Z"/><path class="cls-5" d="M446.18,327s-.36-.06-.76-.24-.71-.36-.69-.41a2.17,2.17,0,0,1,.77.24C445.9,326.74,446.21,326.93,446.18,327Z"/><path class="cls-5" d="M446.85,326.16a2.17,2.17,0,0,1-1.69-.63,5.26,5.26,0,0,1,.84.32A5.88,5.88,0,0,1,446.85,326.16Z"/><path class="cls-5" d="M443.57,326.61a2.85,2.85,0,0,1-.89-.42,5.24,5.24,0,0,1-.85-.64,2.49,2.49,0,0,1-.44-.47.59.59,0,0,1-.1-.38.39.39,0,0,1,.3-.29,1.79,1.79,0,0,1,1.8,1.4,1.83,1.83,0,0,1,0,.73.48.48,0,0,1-.09.25,2.69,2.69,0,0,0-.05-1,1.75,1.75,0,0,0-.54-.84,1.51,1.51,0,0,0-1.09-.42c-.19,0-.21.24-.1.4a3.39,3.39,0,0,0,.4.45,6.57,6.57,0,0,0,.81.65C443.24,326.42,443.58,326.58,443.57,326.61Z"/><path class="cls-5" d="M443.32,326.55a.92.92,0,0,1,.18-.67,1.63,1.63,0,0,1,.54-.54,1,1,0,0,1,.95-.11.39.39,0,0,1,.08.54.91.91,0,0,1-.33.32,2.55,2.55,0,0,1-.67.35,1.53,1.53,0,0,1-.67.13s.25-.08.62-.25a3.76,3.76,0,0,0,.62-.36c.21-.14.45-.44.24-.58a.91.91,0,0,0-.76.11,1.65,1.65,0,0,0-.51.46A2.65,2.65,0,0,0,443.32,326.55Z"/><path class="cls-5" d="M458.73,332.5s-.38-.22-1-.43a4.77,4.77,0,0,0-5,1.22c-.48.5-.69.89-.72.87a.78.78,0,0,1,.13-.28,4.89,4.89,0,0,1,.49-.68,4.65,4.65,0,0,1,5.1-1.26,4.34,4.34,0,0,1,.75.37C458.66,332.42,458.74,332.49,458.73,332.5Z"/><path class="cls-5" d="M450.84,332.08a9,9,0,0,1-2.11-.73,8.87,8.87,0,0,1-2-1.09c0-.05.9.42,2,.92S450.86,332,450.84,332.08Z"/><path class="cls-5" d="M453.56,333.32c0,.05-.16.16-.35.32s-.32.33-.37.3,0-.25.25-.44S453.54,333.27,453.56,333.32Z"/><path class="cls-5" d="M455.17,332.52s-.14.15-.35.23-.4.1-.41.05.13-.15.34-.23S455.15,332.47,455.17,332.52Z"/><path class="cls-5" d="M456.9,332.61s-.22-.05-.45-.07-.44,0-.46,0,.18-.18.48-.15S456.93,332.57,456.9,332.61Z"/><path class="cls-5" d="M458.07,332.81c0,.05-.12.09-.26.08s-.24-.06-.24-.11.12-.08.26-.07S458.07,332.76,458.07,332.81Z"/><polygon class="cls-6" points="449.16 315.63 448.84 316.45 463.15 323.49 463.63 322.55 449.16 315.63"/><path class="cls-5" d="M555.74,248.38S489,229.55,482.48,232.16s-40.92,80.1-40.92,80.1l22.92,10.87L496,257s44.69,24.65,53.47,17.32C560.14,265.42,555.89,245.35,555.74,248.38Z"/><path class="cls-5" d="M548.2,249.37c-1,.27-55.08,0-64.14,10.69-3.65,4.31-1.23,91.12-1.23,91.12l23.69-.59.65-75,38.55,0a3.64,3.64,0,0,0,3.64-3.84Z"/><path class="cls-6" d="M548,271.76a2.58,2.58,0,0,1-.56-.09l-1.6-.37-5.83-1.43c-4.92-1.25-11.73-3-19.12-5.3-3.7-1.17-7.18-2.41-10.31-3.63-7-2.78-.24.31-8.19-3.57-2.28-1.11-4.1-2.06-5.33-2.78l-1.41-.82a2.07,2.07,0,0,1-.48-.32,2.53,2.53,0,0,1,.53.23l1.45.74c1.26.66,3.1,1.56,5.4,2.63s5.08,2.24,8.2,3.45,6.61,2.42,10.29,3.59c7.38,2.32,14.16,4.1,19.06,5.43l5.79,1.59,1.57.46A2.18,2.18,0,0,1,548,271.76Z"/><path class="cls-6" d="M502.15,273a7.91,7.91,0,0,1,2.58,1,7.64,7.64,0,0,1,2.35,1.49,7.91,7.91,0,0,1-2.58-1A7.49,7.49,0,0,1,502.15,273Z"/><path class="cls-6" d="M504.17,270.89a28.39,28.39,0,0,1,1.57,2.52,27.18,27.18,0,0,1,1.71,2.41,5.54,5.54,0,0,1-2.14-2.13A5.44,5.44,0,0,1,504.17,270.89Z"/><path class="cls-6" d="M495,253.25a13.31,13.31,0,0,1-1.58.06,18.77,18.77,0,0,0-4.26.45,7.32,7.32,0,0,0-4.91,3.51c-1.13,2.09-1.2,4.8-1.23,7.56-.08,5.57-.18,10.61-.28,14.26-.06,1.76-.1,3.21-.14,4.33a8.76,8.76,0,0,1-.13,1.58,10,10,0,0,1-.07-1.59c0-1.11,0-2.57,0-4.32,0-3.65.05-8.7.13-14.27,0-2.76.1-5.56,1.33-7.78a6.71,6.71,0,0,1,2.42-2.53,9,9,0,0,1,2.83-1.11,17,17,0,0,1,4.34-.29A7.19,7.19,0,0,1,495,253.25Z"/><path class="cls-6" d="M488,153.78c.28.4,10.55,29.16,10.55,29.16l-16.63,3.33-9.19-23.43Z"/><polygon class="cls-5" points="498.51 182.94 499.97 182.05 489.36 152.92 487.79 153.88 498.51 182.94"/><path class="cls-5" d="M481.42,162a.71.71,0,0,1-.49.88.72.72,0,0,1-.88-.5.71.71,0,1,1,1.37-.38Z"/><path class="cls-12" d="M506.94,188.29l-15.89,15.59L481.28,180h0l-.23-1.27,6.24-5-3.72-4.58a4.74,4.74,0,0,0-7-.32l-1.9,1.89a6.73,6.73,0,0,0-2,5.1c.17,3.3.5,6.8.48,6.5h0l5.6,32.93a11.85,11.85,0,0,0,7.41,10.31c5.64,2.34,11.76-5.06,15-7.88l20.9-19Z"/><path class="cls-7" d="M571.46,205.14l-20.12,3.13-.48-1.21,6.38,43.16L508.07,236l1.43-25.29-16.75-12.08L505.56,179a22.63,22.63,0,0,1,15.13-9c1.77-.24,3.12-.36,4-.47a25.7,25.7,0,0,0,15.5,0h0a22.6,22.6,0,0,1,6.42,1.23c1.53.52,3,.92,4.38,1.33a17.77,17.77,0,0,1,11.51,10.49Z"/><path class="cls-12" d="M511.46,254c-.17-2,8.14-3.12,8.84-3.27s.51-1.15-.12-1c-.89.24-10.34,2.51-10.53.54-.1-1.09,1.87-1.09,1.87-1.09s9-1.47,8.89-2.4-5.44-.25-7.21.11-2.64-.34-2.15-1.25c.33-.62,5.74-1.84,7.51-2.15s6.61-1.09,3.91-2.65-4.19-3.79-4.17-4.67a1,1,0,0,1,1.81-.39,11.52,11.52,0,0,0,2.37,2.07,7.38,7.38,0,0,0,2.28,1.09c1,.27,1.77.45,2.47.6C532,238,545.1,233.36,554.4,225c1.68-1.51-2.74-17-2.74-17l17.93-2.36,2.57,15.26c3.49,20.76-43,31.19-43,31.19l0,0a92.07,92.07,0,0,1-9.3,3.83c-4.45,1.35-4.57.95-4.64.41-.19-1.46,7.73-2.67,5.88-3.4S511.59,255.49,511.46,254Z"/><path class="cls-15" d="M560.39,179.37a3.17,3.17,0,0,1-.43.38,13.33,13.33,0,0,1-1.36.94A16.59,16.59,0,0,1,544,181.77c-1.58-.63-3.16-1.44-4.87-2.09a14,14,0,0,0-5.47-1c-3.86.07-7.42,1.3-10.69,2.15a23.65,23.65,0,0,1-8.94,1,11.52,11.52,0,0,1-5.66-2.17,6,6,0,0,1-1.55-1.6,18.94,18.94,0,0,0,1.67,1.44,11.68,11.68,0,0,0,5.58,2,24,24,0,0,0,8.78-1.11c3.24-.86,6.82-2.13,10.8-2.21a14.64,14.64,0,0,1,5.67,1c1.73.67,3.31,1.5,4.86,2.12a16.26,16.26,0,0,0,8.69,1.07,16.88,16.88,0,0,0,5.66-1.88C559.74,179.82,560.36,179.33,560.39,179.37Z"/><path class="cls-15" d="M568.44,198.23l-.12.15a4.54,4.54,0,0,1-.4.42,9,9,0,0,1-1.79,1.29,13.61,13.61,0,0,1-7.93,1.42,28.5,28.5,0,0,1-5.5-1.13c-1.94-.56-4-1.27-6.13-1.88a24.3,24.3,0,0,0-6.91-1.06,25.93,25.93,0,0,0-7.36,1.44c-2.48.78-4.88,1.67-7.3,2.22a18.25,18.25,0,0,1-7.13.42,14.74,14.74,0,0,1-5.92-2.58c-1.67-1.14-3.09-2.36-4.45-3.39a17.15,17.15,0,0,0-7.09-3.6,11.46,11.46,0,0,0-2.93-.12s.06,0,.19-.05.31-.07.56-.1a8.68,8.68,0,0,1,2.22.07,16.8,16.8,0,0,1,7.27,3.51c1.38,1,2.82,2.21,4.48,3.33a14.41,14.41,0,0,0,5.75,2.46,18.06,18.06,0,0,0,6.93-.44c2.38-.55,4.76-1.44,7.26-2.23a26.55,26.55,0,0,1,7.51-1.45A24.26,24.26,0,0,1,546.7,198c2.18.63,4.2,1.36,6.12,1.93a29.91,29.91,0,0,0,5.41,1.18,13.76,13.76,0,0,0,7.8-1.23A14.13,14.13,0,0,0,568.44,198.23Z"/><path class="cls-15" d="M551.61,213.45a16.34,16.34,0,0,0-1.71,0,14.4,14.4,0,0,0-4.41,1.47,29.53,29.53,0,0,1-3,1.26,14.12,14.12,0,0,1-3.73.65,26.85,26.85,0,0,1-8.51-1.27c-2.93-.84-5.67-1.79-8.23-2.33a19.67,19.67,0,0,0-6.87-.39,12.46,12.46,0,0,0-4.42,1.4c-1,.53-1.44.94-1.47.9s.1-.13.32-.32a7.66,7.66,0,0,1,1.05-.76,12.07,12.07,0,0,1,4.46-1.59,19.62,19.62,0,0,1,7,.29c2.61.52,5.36,1.47,8.27,2.3a27.07,27.07,0,0,0,8.35,1.29,14.13,14.13,0,0,0,3.62-.59,31,31,0,0,0,3-1.18,13.3,13.3,0,0,1,4.54-1.33,5.08,5.08,0,0,1,1.3.09A1.53,1.53,0,0,1,551.61,213.45Z"/><path class="cls-15" d="M551.05,227.74a12.31,12.31,0,0,0-1.69,0,13.08,13.08,0,0,0-4.28,1.66,15.74,15.74,0,0,1-3,1.26,14.41,14.41,0,0,1-3.7.55,28.2,28.2,0,0,1-8.4-1.34c-2.9-.85-5.6-1.78-8.13-2.3a19.92,19.92,0,0,0-6.8-.35,12.41,12.41,0,0,0-4.37,1.4c-.95.53-1.42.93-1.45.89s.1-.12.32-.32a8.23,8.23,0,0,1,1-.75,12,12,0,0,1,4.41-1.58,19.29,19.29,0,0,1,7,.24c2.58.5,5.31,1.43,8.18,2.27a28.55,28.55,0,0,0,8.25,1.36,14.17,14.17,0,0,0,3.6-.49,16.19,16.19,0,0,0,2.95-1.17,12.47,12.47,0,0,1,4.42-1.54,4.91,4.91,0,0,1,1.28.09C550.91,227.68,551.06,227.72,551.05,227.74Z"/><path class="cls-15" d="M539.55,204s.19-.1.55-.09a2.45,2.45,0,0,1,1.42.61,2.3,2.3,0,0,1,.74,2.18,2.51,2.51,0,0,1-2,2,2.47,2.47,0,0,1-2.47-1.34,2.1,2.1,0,0,1,.24-2.28,2.13,2.13,0,0,1,1.29-.84c.37-.06.57,0,.56,0s-.19.05-.5.17a2.18,2.18,0,0,0-1,.85,1.76,1.76,0,0,0-.11,1.85,2,2,0,0,0,2,1.05,2.07,2.07,0,0,0,1.62-1.56,1.91,1.91,0,0,0-.53-1.8A3.2,3.2,0,0,0,539.55,204Z"/><path class="cls-15" d="M518.6,217.61s.19-.11.56-.09a2.3,2.3,0,0,1,1.41.61,2.25,2.25,0,0,1,.74,2.17,2.37,2.37,0,0,1-4.48.62,2.14,2.14,0,0,1,.24-2.28,2.23,2.23,0,0,1,1.3-.84c.36-.06.56,0,.56,0s-.2,0-.51.17a2.22,2.22,0,0,0-1,.85,1.76,1.76,0,0,0-.11,1.85,2,2,0,0,0,2,1.05,2.08,2.08,0,0,0,1.61-1.55,1.92,1.92,0,0,0-.52-1.81A3.06,3.06,0,0,0,518.6,217.61Z"/><path class="cls-15" d="M519.24,190.26s.19-.11.55-.09a2.38,2.38,0,0,1,1.42.61A2.27,2.27,0,0,1,522,193a2.53,2.53,0,0,1-2,2,2.47,2.47,0,0,1-2.47-1.35,2.11,2.11,0,0,1,.24-2.28,2.18,2.18,0,0,1,1.29-.83c.37-.07.57,0,.56,0s-.19.05-.5.17a2.15,2.15,0,0,0-1,.86,1.75,1.75,0,0,0-.11,1.84,2,2,0,0,0,2,1.05,2.06,2.06,0,0,0,1.62-1.55,1.91,1.91,0,0,0-.53-1.8A3,3,0,0,0,519.24,190.26Z"/><path class="cls-15" d="M553.92,188.75s.18-.11.55-.09a2.28,2.28,0,0,1,1.41.61,2.25,2.25,0,0,1,.75,2.17,2.51,2.51,0,0,1-2,2,2.47,2.47,0,0,1-2.47-1.34,2.1,2.1,0,0,1,.24-2.28,2.18,2.18,0,0,1,1.29-.84c.37-.06.56,0,.56,0s-.19.05-.5.17a2.14,2.14,0,0,0-1,.85,1.76,1.76,0,0,0-.12,1.85,2,2,0,0,0,2,1,2.09,2.09,0,0,0,1.62-1.56,1.91,1.91,0,0,0-.53-1.8A3,3,0,0,0,553.92,188.75Z"/><path class="cls-15" d="M540.34,172a.94.94,0,0,1,.55-.09,2.42,2.42,0,0,1,1.42.61,2.27,2.27,0,0,1,.74,2.18,2.52,2.52,0,0,1-2,2,2.48,2.48,0,0,1-2.47-1.34,2.12,2.12,0,0,1,.24-2.28,2.16,2.16,0,0,1,1.29-.84c.37-.06.57,0,.57,0s-.2.05-.51.17a2.18,2.18,0,0,0-1,.85,1.76,1.76,0,0,0-.11,1.85,2,2,0,0,0,2,1.05,2.08,2.08,0,0,0,1.61-1.56,1.89,1.89,0,0,0-.53-1.8A3.11,3.11,0,0,0,540.34,172Z"/><path class="cls-5" d="M509.23,212.47a17.55,17.55,0,0,1-.16-3.15c0-1.95,0-4.65.11-7.62s.19-5.5.26-7.6a18.75,18.75,0,0,1,.21-3.15,17.55,17.55,0,0,1,.16,3.15c0,2,0,4.65-.11,7.62s-.19,5.5-.26,7.6A18.75,18.75,0,0,1,509.23,212.47Z"/><path class="cls-5" d="M571.46,205.14a2.71,2.71,0,0,1-.47.11l-1.35.24-5.07.8-7.67,1.15c-1.46.21-3,.46-4.62.67l-5,.59-.26,0,0-.26c-.26-2.24-.46-4.6-.79-7-.56-4.33-1.08-8.44-1.56-12.2a26.64,26.64,0,0,1,.11-10.05c.74-2.77,1.79-4.95,3-6.07a4.59,4.59,0,0,1,1.55-1,2.56,2.56,0,0,1,.63-.15,5.5,5.5,0,0,0-2,1.31,13.41,13.41,0,0,0-2.78,6,26.94,26.94,0,0,0,0,9.91c.49,3.75,1,7.86,1.59,12.17.33,2.42.54,4.82.79,7.07l-.28-.23,5-.57,4.63-.63,7.68-1,5.09-.65,1.36-.15A1.6,1.6,0,0,1,571.46,205.14Z"/><path class="cls-8" d="M544.4,184s-2.25,27.17,0,27.71,4.28.79,4.28.79,4.32,13.4,4.28,13-1.62-17.23-1.62-17.23l-4.13.18Z"/><polygon class="cls-8" points="509.23 193.49 505.29 207.72 509.5 210.75 509.23 193.49"/><path class="cls-7" d="M666.27,123.59c7.26-17,2.86-34.66-9.08-48.74a51.12,51.12,0,0,0-50-16.22,55.92,55.92,0,0,0-110.92,7.21,41.86,41.86,0,0,0-32,56.8Z"/><path class="cls-1" d="M582,80.23c-.37,0-.17-3.38-2.22-8.19a23.94,23.94,0,0,0-5.06-7.44,23.44,23.44,0,0,0-9.37-5.6,23.73,23.73,0,0,0-10.9-.6,23.31,23.31,0,0,0-8.35,3.34c-4.36,2.87-6.15,5.78-6.42,5.56-.09-.06.23-.85,1.12-2.08a20.69,20.69,0,0,1,4.55-4.56,22.7,22.7,0,0,1,8.76-3.94,24.17,24.17,0,0,1,11.79.5,23.92,23.92,0,0,1,10,6.17A23.19,23.19,0,0,1,581,71.56a21.1,21.1,0,0,1,1.24,6.32C582.25,79.41,582.17,80.23,582,80.23Z"/><path class="cls-1" d="M571,72c.31-.41,5.43,3,11.43,7.52l.33.25-1.44.44c2.44-6.94,4.77-12.35,5.24-12.19s-1.07,5.86-3.48,12.8l-.42,1.22-1-.78L581.3,81C575.3,76.47,570.68,72.44,571,72Z"/><path class="cls-1" d="M538.46,76.39c.38,0-.23,3.29,1.15,8.17a23.61,23.61,0,0,0,3.87,7.83,22.57,22.57,0,0,0,8.17,6.75,27.25,27.25,0,0,0,2.58,1.09c.89.25,1.76.55,2.63.72a23.11,23.11,0,0,0,13.7-1.2,26.47,26.47,0,0,0,5.25-2.89c1.18-.81,1.8-1.32,1.9-1.21s-.37.76-1.45,1.77A20,20,0,0,1,571.1,101,22.5,22.5,0,0,1,562,103.2a23.12,23.12,0,0,1-5.55-.46c-1-.17-1.89-.48-2.85-.75a24.29,24.29,0,0,1-2.81-1.18,23.08,23.08,0,0,1-8.73-7.4,22.85,22.85,0,0,1-4.24-12.09c0-1,0-2,.07-2.69C538.15,77.16,538.33,76.38,538.46,76.39Z"/><path class="cls-1" d="M548.41,85.89c-.36.37-5-3.6-10.42-8.87l-.3-.29,1.48-.26c-3.27,6.59-6.24,11.68-6.69,11.46s1.78-5.68,5-12.28l.57-1.15.92.89.3.3C544.69,81,548.77,85.52,548.41,85.89Z"/></g></svg>