<svg xmlns="http://www.w3.org/2000/svg" xmlns:xlink="http://www.w3.org/1999/xlink" viewBox="0 0 459.95 423.59"><defs><style>.cls-1,.cls-2,.cls-3,.cls-4,.cls-47,.cls-5,.cls-50,.cls-6,.cls-7{fill:none;}.cls-2,.cls-3,.cls-4,.cls-5,.cls-50,.cls-6,.cls-7{stroke-linecap:round;stroke-linejoin:round;}.cls-2,.cls-3{stroke-width:15px;}.cls-2{stroke:url(#linear-gradient);}.cls-3{stroke:url(#linear-gradient-2);}.cls-4{stroke-width:11px;stroke:url(#linear-gradient-3);}.cls-5{stroke-width:25px;stroke:url(#linear-gradient-4);}.cls-6{stroke-width:35px;stroke:url(#linear-gradient-5);}.cls-7{stroke:#1363d6;}.cls-8{fill:url(#linear-gradient-6);}.cls-9{fill:url(#linear-gradient-7);}.cls-10{fill:url(#linear-gradient-8);}.cls-11{fill:url(#linear-gradient-9);}.cls-12{fill:url(#linear-gradient-10);}.cls-13{fill:#2f29aa;}.cls-14{fill:#1849d3;}.cls-15{fill:#18187c;}.cls-16{fill:#2f76f4;}.cls-17{fill:#1a5fe8;}.cls-18{fill:#251e8c;}.cls-19{fill:#1b1b7a;}.cls-20{fill:#13135e;}.cls-21{fill:#252589;}.cls-22{fill:#2f2fa3;}.cls-23{fill:url(#linear-gradient-11);}.cls-24{fill:#265edb;}.cls-25{fill:#c3c8f4;}.cls-26{fill:#1a1aa0;}.cls-27{fill:#2727c9;}.cls-28{fill:#151575;}.cls-29{fill:url(#linear-gradient-12);}.cls-30{fill:url(#linear-gradient-13);}.cls-31{clip-path:url(#clip-path);}.cls-32{fill:url(#linear-gradient-14);}.cls-33{fill:url(#linear-gradient-15);}.cls-34{fill:url(#linear-gradient-16);}.cls-35{clip-path:url(#clip-path-2);}.cls-36{fill:url(#linear-gradient-17);}.cls-37{fill:url(#linear-gradient-18);}.cls-38,.cls-39,.cls-40,.cls-41{fill:#a8455e;}.cls-38{opacity:0.11;}.cls-39{opacity:0.15;}.cls-40{opacity:0.25;}.cls-42{fill:#4b72e0;}.cls-43{fill:#271a87;}.cls-44{fill:#2a2ab7;}.cls-45{fill:#8fc1f9;}.cls-46{fill:#76b5f4;}.cls-47{stroke:#89b2ef;stroke-miterlimit:10;}.cls-48{fill:#5e94ea;}.cls-49{fill:#377de2;}.cls-50{stroke:#8af7f5;}.cls-51{fill:url(#linear-gradient-19);}.cls-52{fill:url(#linear-gradient-20);}.cls-53{fill:url(#linear-gradient-21);}</style><linearGradient id="linear-gradient" y1="357.87" x2="220.04" y2="357.87" gradientUnits="userSpaceOnUse"><stop offset="0.1" stop-color="#1363d6" stop-opacity="0"/><stop offset="0.62" stop-color="#1363d6" stop-opacity="0.2"/><stop offset="0.9" stop-color="#1363d6" stop-opacity="0"/></linearGradient><linearGradient id="linear-gradient-2" x1="89.28" y1="314.89" x2="451.08" y2="314.89" xlink:href="#linear-gradient"/><linearGradient id="linear-gradient-3" x1="203.58" y1="280.55" x2="449.85" y2="280.55" xlink:href="#linear-gradient"/><linearGradient id="linear-gradient-4" x1="215.92" y1="225.04" x2="459.95" y2="225.04" xlink:href="#linear-gradient"/><linearGradient id="linear-gradient-5" x1="25.15" y1="324.74" x2="329.24" y2="324.74" xlink:href="#linear-gradient"/><linearGradient id="linear-gradient-6" x1="114.55" y1="293.61" x2="147.44" y2="236.63" gradientUnits="userSpaceOnUse"><stop offset="0" stop-color="#8c1b3d"/><stop offset="0.23" stop-color="#8d1e3f"/><stop offset="0.4" stop-color="#8e2747"/><stop offset="0.54" stop-color="#913753"/><stop offset="0.68" stop-color="#954d64"/><stop offset="0.8" stop-color="#9b6a7b"/><stop offset="0.92" stop-color="#a18d96"/><stop offset="1" stop-color="#a6a8ab"/></linearGradient><linearGradient id="linear-gradient-7" x1="129.59" y1="393.98" x2="156.83" y2="346.79" xlink:href="#linear-gradient-6"/><linearGradient id="linear-gradient-8" x1="236.86" y1="354.1" x2="287.32" y2="266.71" gradientUnits="userSpaceOnUse"><stop offset="0" stop-color="#1363d6" stop-opacity="0.2"/><stop offset="1" stop-color="#1363d6"/></linearGradient><linearGradient id="linear-gradient-9" x1="343.45" y1="268.65" x2="366.64" y2="228.48" xlink:href="#linear-gradient-6"/><linearGradient id="linear-gradient-10" x1="298.94" y1="352.17" x2="377.68" y2="352.17" xlink:href="#linear-gradient-6"/><linearGradient id="linear-gradient-11" x1="136.4" y1="183.44" x2="191.38" y2="183.44" gradientUnits="userSpaceOnUse"><stop offset="0" stop-color="#4851ff"/><stop offset="1" stop-color="#4851ff" stop-opacity="0.2"/></linearGradient><linearGradient id="linear-gradient-12" x1="331.85" y1="250.53" x2="331.85" y2="130.65" gradientUnits="userSpaceOnUse"><stop offset="0" stop-color="#2e52e8" stop-opacity="0.4"/><stop offset="1" stop-color="#fff" stop-opacity="0"/></linearGradient><linearGradient id="linear-gradient-13" x1="378.24" y1="250.53" x2="378.24" y2="130.65" gradientUnits="userSpaceOnUse"><stop offset="0" stop-color="#2e52e8" stop-opacity="0.5"/><stop offset="1" stop-color="#fff" stop-opacity="0"/></linearGradient><clipPath id="clip-path"><polygon class="cls-1" points="355.05 157.43 355.05 250.53 401.43 223.75 401.43 130.65 355.05 157.43"/></clipPath><linearGradient id="linear-gradient-14" x1="365.58" y1="127.99" x2="365.58" y2="257.05" gradientUnits="userSpaceOnUse"><stop offset="0" stop-color="aqua" stop-opacity="0.3"/><stop offset="1" stop-color="#fff" stop-opacity="0"/></linearGradient><linearGradient id="linear-gradient-15" x1="377.95" y1="123.56" x2="377.95" y2="252.62" xlink:href="#linear-gradient-14"/><linearGradient id="linear-gradient-16" x1="388.82" y1="120.18" x2="388.82" y2="249.23" xlink:href="#linear-gradient-14"/><clipPath id="clip-path-2"><polygon class="cls-1" points="355.05 157.43 355.05 250.53 308.66 223.75 308.66 130.65 355.05 157.43"/></clipPath><linearGradient id="linear-gradient-17" x1="331.85" y1="127.99" x2="331.85" y2="257.05" xlink:href="#linear-gradient-14"/><linearGradient id="linear-gradient-18" x1="347.6" y1="130.01" x2="347.6" y2="259.07" xlink:href="#linear-gradient-14"/><linearGradient id="linear-gradient-19" x1="154.88" y1="44.99" x2="170.74" y2="17.52" xlink:href="#linear-gradient-6"/><linearGradient id="linear-gradient-20" x1="107.87" y1="83.08" x2="120.87" y2="60.55" xlink:href="#linear-gradient-6"/><linearGradient id="linear-gradient-21" x1="127.06" y1="65.11" x2="152.6" y2="20.86" xlink:href="#linear-gradient-6"/></defs><title>System Infrastructure</title><g id="OBJECTS"><line class="cls-2" x1="7.5" y1="299.65" x2="212.54" y2="416.09"/><line class="cls-3" x1="96.78" y1="216.42" x2="443.58" y2="413.36"/><line class="cls-4" x1="209.08" y1="213.74" x2="444.35" y2="347.35"/><line class="cls-5" x1="228.42" y1="162.85" x2="447.45" y2="287.23"/><line class="cls-6" x1="42.65" y1="248.33" x2="311.74" y2="401.15"/><polygon class="cls-7" points="54.95 265.12 130.99 221.22 207.03 265.12 130.99 309.02 54.95 265.12"/><polygon class="cls-8" points="196.78 265.12 130.99 227.13 65.2 265.12 130.99 303.1 196.78 265.12"/><path class="cls-9" d="M127.85,334.75,81.52,361.5a2.73,2.73,0,0,0,0,4.73l68.53,39.57a8.16,8.16,0,0,0,8.09,0l46.74-26.55a2.73,2.73,0,0,0,0-4.74L136,334.75A8.14,8.14,0,0,0,127.85,334.75Z"/><path class="cls-7" d="M71.62,361.3,127.52,329a8.79,8.79,0,0,1,8.79,0l78.55,45.35a3,3,0,0,1,0,5.13l-56.4,32a8.78,8.78,0,0,1-8.73,0L71.62,366.43A3,3,0,0,1,71.62,361.3Z"/><path class="cls-10" d="M276.75,261.26,176.4,319.19,246.52,359a5.27,5.27,0,0,0,5.2,0l93.8-54.16a2.62,2.62,0,0,0,0-4.54Z"/><path class="cls-7" d="M166.09,319.23l110.64-63.88,78.89,44.8a2.74,2.74,0,0,1,0,4.76L252.73,364.33a7.24,7.24,0,0,1-7.18,0Z"/><polygon class="cls-7" points="298.41 248.57 355.05 215.87 411.68 248.57 355.05 281.26 298.41 248.57"/><polygon class="cls-11" points="401.43 248.57 355.05 221.79 308.66 248.57 355.05 275.35 401.43 248.57"/><path class="cls-12" d="M376.83,342.69l-22.48-12.77a4.69,4.69,0,0,0-4.67,0l-49.9,28.81a1.67,1.67,0,0,0,0,2.9l22.48,12.77a4.72,4.72,0,0,0,4.67,0l49.9-28.81A1.67,1.67,0,0,0,376.83,342.69Z"/><path class="cls-7" d="M289.14,359l59.39-34.28a7,7,0,0,1,6.94,0l32,18.17a1.46,1.46,0,0,1,0,2.54l-59.38,34.28a7,7,0,0,1-6.94,0l-32-18.18A1.46,1.46,0,0,1,289.14,359Z"/><line class="cls-7" x1="195.91" y1="336.17" x2="172.33" y2="349.78"/><line class="cls-7" x1="322.89" y1="262.86" x2="306.56" y2="272.29"/><line class="cls-7" x1="310.77" y1="330.98" x2="333.65" y2="344.19"/><line class="cls-7" x1="164.28" y1="290.03" x2="187.54" y2="303.46"/><polygon class="cls-13" points="130.99 284.93 196.78 246.94 196.78 81.95 130.99 119.94 130.99 284.93"/><polygon class="cls-14" points="196.78 81.95 130.99 43.97 65.2 81.95 130.99 119.94 196.78 81.95"/><polygon class="cls-15" points="172.53 81.95 89.46 78.2 89.46 81.95 130.99 105.93 172.53 81.95"/><polygon class="cls-13" points="172.53 81.95 172.53 78.2 130.99 102.18 130.99 105.93 172.53 81.95"/><polygon class="cls-16" points="172.53 78.2 130.99 54.22 89.46 78.2 130.99 102.18 172.53 78.2"/><polygon class="cls-17" points="108.84 73.17 107.8 73.77 138.67 91.6 139.72 90.99 108.84 73.17"/><polygon class="cls-17" points="131.43 95.78 132.48 95.17 101.6 77.34 100.56 77.95 131.43 95.78"/><polygon class="cls-17" points="105.22 75.26 104.17 75.86 135.05 93.69 136.1 93.08 105.22 75.26"/><polygon class="cls-17" points="112.46 71.08 111.41 71.68 142.29 89.51 143.34 88.9 112.46 71.08"/><polygon class="cls-17" points="130.55 60.63 129.51 61.23 160.39 79.06 161.43 78.46 130.55 60.63"/><polygon class="cls-17" points="123.31 64.81 122.27 65.41 153.15 83.24 154.19 82.64 123.31 64.81"/><polygon class="cls-17" points="116.08 68.99 115.03 69.59 145.91 87.42 146.95 86.81 116.08 68.99"/><polygon class="cls-17" points="126.93 62.72 125.89 63.32 156.77 81.15 157.81 80.55 126.93 62.72"/><polygon class="cls-17" points="119.69 66.9 118.65 67.5 149.53 85.33 150.57 84.72 119.69 66.9"/><polygon class="cls-18" points="66.7 246.08 66.7 84.55 129.49 120.8 129.49 282.33 66.7 246.08"/><path class="cls-15" d="M68.2,87.15,128,121.67V279.73L68.2,245.21V87.15m-3-5.2v165l65.79,38v-165L65.2,82Z"/><path class="cls-19" d="M123,144.65v6.64l-5.08-2.93v-6.64Zm-15.65-9L73.23,115.94v6.64l34.08,19.68Zm2.71,1.56v6.64l5.15,3v-6.64Z"/><path class="cls-20" d="M123,150.52v.77l-5.08-2.93v-6.64l.72.41V148Zm-49-28.3v-5.86l-.72-.42v6.64l34.08,19.68v-.78Zm36.79,21.24V137.6l-.72-.42v6.64l5.15,3V146Z"/><path class="cls-21" d="M119.88,146a2.42,2.42,0,0,0,1.81,1.5c.64,0,.85-.67.49-1.5a2.42,2.42,0,0,0-1.81-1.5C119.73,144.48,119.52,145.15,119.88,146Z"/><path class="cls-20" d="M122.13,147.25a2.44,2.44,0,0,1-1.81-1.5,1.3,1.3,0,0,1,0-1.26c-.57,0-.76.7-.41,1.49a2.42,2.42,0,0,0,1.81,1.5.62.62,0,0,0,.52-.24Z"/><path class="cls-19" d="M123,158.52v6.64l-5.08-2.94v-6.64Zm-15.65-9L73.23,129.8v6.64l34.08,19.68ZM110,151v6.64l5.15,3V154Z"/><path class="cls-20" d="M123,164.38v.78l-5.08-2.94v-6.64l.72.42v5.86Zm-49-28.3v-5.86l-.72-.42v6.64l34.08,19.68v-.78Zm36.79,21.24v-5.86L110,151v6.64l5.15,3v-.78Z"/><path class="cls-21" d="M119.88,159.84a2.42,2.42,0,0,0,1.81,1.5c.64,0,.85-.67.49-1.5a2.42,2.42,0,0,0-1.81-1.5C119.73,158.34,119.52,159,119.88,159.84Z"/><path class="cls-20" d="M122.13,161.11a2.42,2.42,0,0,1-1.81-1.5,1.3,1.3,0,0,1,0-1.26c-.57.06-.76.7-.41,1.49a2.42,2.42,0,0,0,1.81,1.5.62.62,0,0,0,.52-.24Z"/><path class="cls-19" d="M123,172.38V179l-5.08-2.94v-6.64Zm-15.65-9L73.23,143.67v6.64L107.31,170Zm2.71,1.57v6.64l5.15,3v-6.64Z"/><path class="cls-20" d="M123,178.24V179l-5.08-2.94v-6.64l.72.42v5.86ZM74,150v-5.87l-.72-.41v6.64L107.31,170v-.77Zm36.79,21.24v-5.87l-.72-.41v6.64l5.15,3v-.78Z"/><path class="cls-21" d="M119.88,173.71a2.42,2.42,0,0,0,1.81,1.5c.64,0,.85-.67.49-1.5a2.43,2.43,0,0,0-1.81-1.51C119.73,172.2,119.52,172.88,119.88,173.71Z"/><path class="cls-20" d="M122.13,175a2.42,2.42,0,0,1-1.81-1.5,1.3,1.3,0,0,1,0-1.26c-.57.06-.76.7-.41,1.5a2.42,2.42,0,0,0,1.81,1.5.6.6,0,0,0,.52-.25Z"/><path class="cls-19" d="M123,186.24v6.64L117.88,190v-6.64Zm-15.65-9L73.23,157.53v6.64l34.08,19.68Zm2.71,1.56v6.64l5.15,3v-6.64Z"/><path class="cls-20" d="M123,192.11v.77L117.88,190v-6.64l.72.41v5.87Zm-49-28.3V158l-.72-.42v6.64l34.08,19.68v-.78Zm36.79,21.24v-5.86l-.72-.42v6.64l5.15,3v-.77Z"/><path class="cls-21" d="M119.88,187.57a2.42,2.42,0,0,0,1.81,1.5c.64,0,.85-.67.49-1.5a2.42,2.42,0,0,0-1.81-1.5C119.73,186.07,119.52,186.74,119.88,187.57Z"/><path class="cls-20" d="M122.13,188.84a2.42,2.42,0,0,1-1.81-1.5,1.3,1.3,0,0,1,0-1.26c-.57,0-.76.7-.41,1.49a2.42,2.42,0,0,0,1.81,1.5.62.62,0,0,0,.52-.24Z"/><path class="cls-19" d="M123,200.11v6.64l-5.08-2.94v-6.64Zm-15.65-9L73.23,171.39V178l34.08,19.68Zm2.71,1.56v6.64l5.15,3v-6.64Z"/><path class="cls-20" d="M123,206v.78l-5.08-2.94v-6.64l.72.42v5.86Zm-49-28.3v-5.86l-.72-.42V178l34.08,19.68v-.78Zm36.79,21.24v-5.86l-.72-.42v6.64l5.15,3v-.78Z"/><path class="cls-21" d="M119.88,201.43a2.42,2.42,0,0,0,1.81,1.5c.64,0,.85-.67.49-1.5a2.42,2.42,0,0,0-1.81-1.5C119.73,199.93,119.52,200.6,119.88,201.43Z"/><path class="cls-20" d="M122.13,202.7a2.42,2.42,0,0,1-1.81-1.5,1.3,1.3,0,0,1,0-1.26c-.57.06-.76.7-.41,1.49a2.42,2.42,0,0,0,1.81,1.5.62.62,0,0,0,.52-.24Z"/><path class="cls-19" d="M123,214v6.64l-5.08-2.94V211Zm-15.65-9L73.23,185.26v6.64l34.08,19.67ZM110,206.5v6.64l5.15,3v-6.64Z"/><path class="cls-20" d="M123,219.83v.78l-5.08-2.94V211l.72.42v5.86ZM74,191.54v-5.87l-.72-.41v6.64l34.08,19.67v-.77Zm36.79,21.24v-5.87l-.72-.41v6.64l5.15,3v-.78Z"/><path class="cls-21" d="M119.88,215.3a2.42,2.42,0,0,0,1.81,1.5c.64,0,.85-.67.49-1.5a2.43,2.43,0,0,0-1.81-1.51C119.73,213.79,119.52,214.47,119.88,215.3Z"/><path class="cls-20" d="M122.13,216.56a2.42,2.42,0,0,1-1.81-1.5,1.28,1.28,0,0,1,0-1.25c-.57.05-.76.69-.41,1.49a2.42,2.42,0,0,0,1.81,1.5.6.6,0,0,0,.52-.25Z"/><path class="cls-19" d="M123,227.84v6.63l-5.08-2.93V224.9Zm-15.65-9L73.23,199.12v6.64l34.08,19.68Zm2.71,1.56V227l5.15,3v-6.63Z"/><path class="cls-20" d="M123,233.7v.77l-5.08-2.93V224.9l.72.41v5.87ZM74,205.4v-5.86l-.72-.42v6.64l34.08,19.68v-.78Zm36.79,21.24v-5.86l-.72-.42V227l5.15,3v-.77Z"/><path class="cls-21" d="M119.88,229.16a2.42,2.42,0,0,0,1.81,1.5c.64,0,.85-.67.49-1.5a2.42,2.42,0,0,0-1.81-1.5C119.73,227.66,119.52,228.33,119.88,229.16Z"/><path class="cls-20" d="M122.13,230.43a2.42,2.42,0,0,1-1.81-1.5,1.3,1.3,0,0,1,0-1.26c-.57.05-.76.7-.41,1.49a2.42,2.42,0,0,0,1.81,1.5.62.62,0,0,0,.52-.24Z"/><polygon class="cls-22" points="76.48 239.91 73.23 238.03 73.23 211.6 76.48 213.48 76.48 239.91"/><polygon class="cls-22" points="83.12 243.71 79.87 241.83 79.87 215.4 83.12 217.27 83.12 243.71"/><polygon class="cls-22" points="89.76 247.5 86.51 245.62 86.51 219.19 89.76 221.07 89.76 247.5"/><polygon class="cls-22" points="96.4 251.29 93.15 249.42 93.15 222.99 96.4 224.86 96.4 251.29"/><polygon class="cls-22" points="103.04 255.09 99.79 253.21 99.79 226.78 103.04 228.66 103.04 255.09"/><polygon class="cls-22" points="109.68 258.88 106.43 257.01 106.43 230.58 109.68 232.45 109.68 258.88"/><polygon class="cls-22" points="116.32 262.68 113.08 260.8 113.08 234.37 116.32 236.25 116.32 262.68"/><polygon class="cls-22" points="122.97 266.47 119.72 264.6 119.72 238.17 122.97 240.04 122.97 266.47"/><polygon class="cls-22" points="109.68 131.3 109.68 117.39 106.43 115.51 106.43 129.43 109.68 131.3"/><polygon class="cls-22" points="103.04 127.47 103.04 113.59 99.79 111.72 99.79 125.59 103.04 127.47"/><polygon class="cls-22" points="122.97 138.97 122.97 124.97 119.72 123.1 119.72 137.09 122.97 138.97"/><polygon class="cls-22" points="116.32 135.13 116.32 121.18 113.08 119.3 113.08 133.26 116.32 135.13"/><polygon class="cls-22" points="76.48 112.13 76.48 98.41 73.23 96.54 73.23 110.25 76.48 112.13"/><polygon class="cls-22" points="96.4 123.63 96.4 109.8 93.15 107.92 93.15 121.76 96.4 123.63"/><polygon class="cls-22" points="83.12 115.97 83.12 102.21 79.87 100.33 79.87 114.09 83.12 115.97"/><polygon class="cls-22" points="89.76 119.8 89.76 106 86.51 104.13 86.51 117.92 89.76 119.8"/><path class="cls-23" d="M144.8,130.44v6.64L139.72,140v-6.64Zm10.57.54,34.08-19.68v-6.64l-34.08,19.68Zm-7.86-2.1v6.64l5.15-3V125.9Zm-2.71,11.93v6.64l-5.08,2.94v-6.64Zm10.57.54,34.08-19.67V115l-34.08,19.67Zm-7.86-2.1v6.64l5.15-3v-6.63Zm-2.71,11.93v6.64l-5.08,2.94v-6.64Zm10.57.54,34.08-19.67v-6.64l-34.08,19.68Zm-7.86-2.1v6.64l5.15-3v-6.64ZM136.4,168.39V128.78l.24-.14L191.38,97v39.62l-.25.14Zm1-39v37.35l53-30.61V98.73Zm7.42,51.83v6.64l-5.08,2.93V184.1Zm10.57.54L189.45,162v-6.64l-34.08,19.68Zm-7.86-2.11v6.64l5.15-3v-6.64Zm-2.71,11.94v6.64l-5.08,2.94v-6.64Zm10.57.54,34.08-19.68v-6.64l-34.08,19.68Zm-7.86-2.1v6.64l5.15-3V187Zm-2.71,11.93v6.64l-5.08,2.94v-6.64Zm10.57.54,34.08-19.68v-6.63l-34.08,19.67Zm-7.86-2.1V207l5.15-3v-6.64ZM136.4,219.12V179.5l.24-.14,54.74-31.6v39.62l-.25.14Zm1-39.05v37.35l53-30.61V149.46Zm7.42,51.82v6.64l-5.08,2.94v-6.64Zm10.57.55,34.08-19.68v-6.64L155.37,225.8Zm-7.86-2.11V237l5.15-3v-6.64Zm-2.71,11.94v6.64l-5.08,2.93V245.2Zm10.57.54,34.08-19.68v-6.64l-34.08,19.68Zm-7.86-2.11v6.64l5.15-3v-6.64Zm-2.71,11.94v6.64l-5.08,2.94v-6.64Zm10.57.54,34.08-19.68v-6.64l-34.08,19.68Zm-7.86-2.1v6.64l5.15-3V248.1ZM136.4,269.85V230.23l.24-.14,54.74-31.6V238.1l-.25.14Zm1-39.05v37.35l53-30.61V200.19Z"/><polygon class="cls-15" points="355.05 250.53 308.66 223.75 308.66 230.28 355.05 257.06 355.05 250.53"/><polygon class="cls-14" points="312.66 223.75 355.05 199.28 397.43 223.75 355.05 248.22 312.66 223.75"/><path class="cls-24" d="M355.05,201.59l38.38,22.16-38.38,22.16-38.39-22.16,38.39-22.16m0-4.62-46.39,26.78,46.39,26.78,46.38-26.78L355.05,197Z"/><polygon class="cls-13" points="401.43 230.28 401.43 223.75 355.05 250.53 355.05 257.06 401.43 230.28"/><polygon class="cls-25" points="388.82 222.66 355.05 203.16 321.27 222.66 355.05 242.16 388.82 222.66"/><polygon class="cls-25" points="401.43 124.12 355.05 97.34 308.66 124.12 355.05 150.9 401.43 124.12"/><polygon class="cls-15" points="355.05 150.9 308.66 124.12 308.66 130.65 355.05 157.43 355.05 150.9"/><polygon class="cls-13" points="401.43 130.65 401.43 124.12 355.05 150.9 355.05 157.43 401.43 130.65"/><polygon class="cls-14" points="312.66 124.12 355.05 99.65 397.43 124.12 355.05 148.59 312.66 124.12"/><path class="cls-24" d="M355.05,102l38.38,22.16-38.38,22.17-38.39-22.17L355.05,102m0-4.62-46.39,26.78,46.39,26.78,46.38-26.78L355.05,97.34Z"/><polygon class="cls-24" points="373.96 119.82 374.86 120.34 348.49 135.56 347.6 135.05 373.96 119.82"/><polygon class="cls-24" points="354.67 139.13 353.78 138.62 380.14 123.39 381.04 123.91 354.67 139.13"/><polygon class="cls-24" points="377.06 121.61 377.95 122.12 351.58 137.34 350.69 136.83 377.06 121.61"/><polygon class="cls-24" points="370.87 118.04 371.76 118.55 345.4 133.78 344.51 133.26 370.87 118.04"/><polygon class="cls-24" points="355.42 109.12 356.31 109.63 329.95 124.86 329.06 124.34 355.42 109.12"/><polygon class="cls-24" points="361.6 112.69 362.49 113.2 336.13 128.42 335.24 127.91 361.6 112.69"/><polygon class="cls-24" points="367.78 116.25 368.68 116.77 342.31 131.99 341.42 131.48 367.78 116.25"/><polygon class="cls-24" points="358.51 110.9 359.4 111.42 333.04 126.64 332.15 126.13 358.51 110.9"/><polygon class="cls-24" points="364.69 114.47 365.58 114.99 339.22 130.21 338.33 129.69 364.69 114.47"/><polygon class="cls-26" points="355.05 242.16 321.27 222.66 321.27 137.93 355.05 157.43 355.05 242.16"/><polygon class="cls-27" points="355.05 242.16 388.82 222.66 388.82 137.93 355.05 157.43 355.05 242.16"/><polygon class="cls-26" points="362.57 155.73 359.27 157.63 359.27 159.56 362.57 157.65 362.57 155.73"/><polygon class="cls-26" points="362.57 161.49 359.27 163.39 359.27 165.31 362.57 163.41 362.57 161.49"/><polygon class="cls-26" points="363.59 155.14 363.59 157.06 382.19 146.32 382.19 144.4 363.59 155.14"/><polygon class="cls-26" points="363.59 172.41 363.59 174.33 382.19 163.59 382.19 161.67 363.59 172.41"/><polygon class="cls-26" points="363.59 166.65 363.59 168.57 382.19 157.84 382.19 155.91 363.59 166.65"/><polygon class="cls-26" points="363.59 160.9 363.59 162.82 382.19 152.08 382.19 150.16 363.59 160.9"/><polygon class="cls-26" points="362.57 184.52 359.27 186.42 359.27 188.34 362.57 186.44 362.57 184.52"/><polygon class="cls-26" points="362.57 178.76 359.27 180.66 359.27 182.58 362.57 180.68 362.57 178.76"/><polygon class="cls-26" points="362.57 173 359.27 174.91 359.27 176.83 362.57 174.92 362.57 173"/><polygon class="cls-26" points="362.57 167.25 359.27 169.15 359.27 171.07 362.57 169.17 362.57 167.25"/><polygon class="cls-26" points="363.59 212.71 363.59 214.63 382.19 203.89 382.19 201.97 363.59 212.71"/><polygon class="cls-26" points="363.59 218.47 363.59 220.39 382.19 209.65 382.19 207.73 363.59 218.47"/><polygon class="cls-26" points="362.57 190.27 359.27 192.18 359.27 194.1 362.57 192.19 362.57 190.27"/><polygon class="cls-26" points="363.59 206.95 363.59 208.87 382.19 198.14 382.19 196.21 363.59 206.95"/><polygon class="cls-26" points="363.59 224.22 363.59 226.15 382.19 215.41 382.19 213.49 363.59 224.22"/><polygon class="cls-26" points="382.19 221.16 382.19 219.24 363.59 229.98 363.59 231.9 382.19 221.16"/><polygon class="cls-26" points="363.59 183.93 363.59 185.85 382.19 175.11 382.19 173.19 363.59 183.93"/><polygon class="cls-26" points="363.59 178.17 363.59 180.09 382.19 169.35 382.19 167.43 363.59 178.17"/><polygon class="cls-26" points="363.59 201.2 363.59 203.12 382.19 192.38 382.19 190.46 363.59 201.2"/><polygon class="cls-26" points="363.59 189.68 363.59 191.6 382.19 180.86 382.19 178.94 363.59 189.68"/><polygon class="cls-26" points="363.59 195.44 363.59 197.36 382.19 186.62 382.19 184.7 363.59 195.44"/><polygon class="cls-26" points="383.22 163 385.91 161.44 385.91 159.52 383.22 161.08 383.22 163"/><polygon class="cls-26" points="383.22 186.03 385.91 184.47 385.91 182.55 383.22 184.11 383.22 186.03"/><polygon class="cls-26" points="383.22 174.52 385.91 172.96 385.91 171.04 383.22 172.59 383.22 174.52"/><polygon class="cls-26" points="383.22 180.27 385.91 178.72 385.91 176.79 383.22 178.35 383.22 180.27"/><polygon class="cls-26" points="383.22 197.54 385.91 195.99 385.91 194.07 383.22 195.62 383.22 197.54"/><polygon class="cls-26" points="383.22 191.79 385.91 190.23 385.91 188.31 383.22 189.87 383.22 191.79"/><polygon class="cls-26" points="383.22 203.3 385.91 201.75 385.91 199.82 383.22 201.38 383.22 203.3"/><polygon class="cls-26" points="383.22 168.76 385.91 167.2 385.91 165.28 383.22 166.84 383.22 168.76"/><polygon class="cls-26" points="383.22 143.81 383.22 145.73 385.91 144.17 385.91 142.25 383.22 143.81"/><polygon class="cls-26" points="383.22 151.49 385.91 149.93 385.91 148.01 383.22 149.57 383.22 151.49"/><polygon class="cls-26" points="383.22 157.25 385.91 155.69 385.91 153.77 383.22 155.32 383.22 157.25"/><polygon class="cls-26" points="362.57 219.06 359.27 220.96 359.27 222.88 362.57 220.98 362.57 219.06"/><polygon class="cls-26" points="362.57 207.54 359.27 209.45 359.27 211.37 362.57 209.47 362.57 207.54"/><polygon class="cls-26" points="362.57 196.03 359.27 197.93 359.27 199.85 362.57 197.95 362.57 196.03"/><polygon class="cls-26" points="362.57 213.3 359.27 215.21 359.27 217.13 362.57 215.22 362.57 213.3"/><polygon class="cls-26" points="362.57 201.79 359.27 203.69 359.27 205.61 362.57 203.71 362.57 201.79"/><polygon class="cls-26" points="362.57 230.57 359.27 232.48 359.27 234.4 362.57 232.49 362.57 230.57"/><polygon class="cls-26" points="383.22 214.81 385.91 213.26 385.91 211.34 383.22 212.89 383.22 214.81"/><polygon class="cls-26" points="362.57 224.82 359.27 226.72 359.27 228.64 362.57 226.74 362.57 224.82"/><polygon class="cls-26" points="383.22 220.57 385.91 219.02 385.91 217.09 383.22 218.65 383.22 220.57"/><polygon class="cls-26" points="383.22 209.06 385.91 207.5 385.91 205.58 383.22 207.14 383.22 209.06"/><polygon class="cls-28" points="344.78 206.06 344.78 207.98 347.26 209.41 347.26 207.49 344.78 206.06"/><polygon class="cls-28" points="344.78 200.3 344.78 202.22 347.26 203.65 347.26 201.73 344.78 200.3"/><polygon class="cls-28" points="344.78 194.54 344.78 196.46 347.26 197.9 347.26 195.97 344.78 194.54"/><polygon class="cls-28" points="344.78 211.81 344.78 213.74 347.26 215.17 347.26 213.25 344.78 211.81"/><polygon class="cls-28" points="344.78 223.33 344.78 225.25 347.26 226.68 347.26 224.76 344.78 223.33"/><polygon class="cls-28" points="344.78 217.57 344.78 219.49 347.26 220.93 347.26 219 344.78 217.57"/><polygon class="cls-28" points="344.78 177.27 344.78 179.19 347.26 180.63 347.26 178.7 344.78 177.27"/><polygon class="cls-28" points="344.78 165.76 344.78 167.68 347.26 169.11 347.26 167.19 344.78 165.76"/><polygon class="cls-28" points="344.78 160 344.78 161.92 347.26 163.35 347.26 161.43 344.78 160"/><polygon class="cls-28" points="344.78 171.51 344.78 173.44 347.26 174.87 347.26 172.95 344.78 171.51"/><polygon class="cls-28" points="344.78 188.78 344.78 190.71 347.26 192.14 347.26 190.22 344.78 188.78"/><polygon class="cls-28" points="347.26 230.52 344.78 229.09 344.78 231.01 347.26 232.44 347.26 230.52"/><polygon class="cls-28" points="344.78 183.03 344.78 184.95 347.26 186.38 347.26 184.46 344.78 183.03"/><polygon class="cls-28" points="343.75 213.14 343.75 211.22 341.27 209.79 341.27 211.71 343.75 213.14"/><polygon class="cls-28" points="343.75 190.12 343.75 188.19 341.27 186.76 341.27 188.68 343.75 190.12"/><polygon class="cls-28" points="343.75 167.09 343.75 165.16 341.27 163.73 341.27 165.65 343.75 167.09"/><polygon class="cls-28" points="343.75 184.36 343.75 182.44 341.27 181 341.27 182.93 343.75 184.36"/><polygon class="cls-28" points="343.75 172.84 343.75 170.92 341.27 169.49 341.27 171.41 343.75 172.84"/><polygon class="cls-28" points="341.27 152.22 341.27 154.14 343.75 155.57 343.75 153.65 341.27 152.22"/><polygon class="cls-28" points="343.75 161.33 343.75 159.41 341.27 157.97 341.27 159.9 343.75 161.33"/><polygon class="cls-28" points="343.75 201.63 343.75 199.71 341.27 198.28 341.27 200.2 343.75 201.63"/><polygon class="cls-28" points="343.75 218.9 343.75 216.98 341.27 215.55 341.27 217.47 343.75 218.9"/><polygon class="cls-28" points="343.75 224.66 343.75 222.74 341.27 221.3 341.27 223.22 343.75 224.66"/><polygon class="cls-28" points="344.78 154.24 344.78 156.16 347.26 157.6 347.26 155.68 344.78 154.24"/><polygon class="cls-28" points="343.75 207.39 343.75 205.47 341.27 204.03 341.27 205.95 343.75 207.39"/><polygon class="cls-28" points="343.75 195.87 343.75 193.95 341.27 192.52 341.27 194.44 343.75 195.87"/><polygon class="cls-28" points="343.75 230.41 343.75 228.49 341.27 227.06 341.27 228.98 343.75 230.41"/><polygon class="cls-28" points="343.75 178.6 343.75 176.68 341.27 175.25 341.27 177.17 343.75 178.6"/><polygon class="cls-28" points="348.29 210 350.65 211.37 350.65 209.45 348.29 208.08 348.29 210"/><polygon class="cls-28" points="348.29 192.73 350.65 194.1 350.65 192.18 348.29 190.81 348.29 192.73"/><polygon class="cls-28" points="340.25 151.63 324.01 142.25 324.01 144.17 340.25 153.55 340.25 151.63"/><polygon class="cls-28" points="348.29 204.25 350.65 205.61 350.65 203.69 348.29 202.32 348.29 204.25"/><polygon class="cls-28" points="348.29 227.27 350.65 228.64 350.65 226.72 348.29 225.35 348.29 227.27"/><polygon class="cls-28" points="348.29 233.03 350.65 234.4 350.65 232.48 348.29 231.11 348.29 233.03"/><polygon class="cls-28" points="348.29 215.76 350.65 217.13 350.65 215.21 348.29 213.84 348.29 215.76"/><polygon class="cls-28" points="348.29 221.52 350.65 222.88 350.65 220.96 348.29 219.59 348.29 221.52"/><polygon class="cls-28" points="348.29 163.95 350.65 165.31 350.65 163.39 348.29 162.03 348.29 163.95"/><polygon class="cls-28" points="348.29 186.97 350.65 188.34 350.65 186.42 348.29 185.05 348.29 186.97"/><polygon class="cls-28" points="348.29 156.27 348.29 158.19 350.65 159.56 350.65 157.63 348.29 156.27"/><polygon class="cls-28" points="348.29 169.7 350.65 171.07 350.65 169.15 348.29 167.78 348.29 169.7"/><polygon class="cls-28" points="348.29 181.22 350.65 182.58 350.65 180.66 348.29 179.3 348.29 181.22"/><polygon class="cls-28" points="348.29 175.46 350.65 176.83 350.65 174.91 348.29 173.54 348.29 175.46"/><polygon class="cls-28" points="348.29 198.49 350.65 199.85 350.65 197.93 348.29 196.57 348.29 198.49"/><polygon class="cls-28" points="340.25 168.9 324.01 159.52 324.01 161.44 340.25 170.82 340.25 168.9"/><polygon class="cls-28" points="340.25 174.66 324.01 165.28 324.01 167.2 340.25 176.58 340.25 174.66"/><polygon class="cls-28" points="340.25 180.41 324.01 171.04 324.01 172.96 340.25 182.33 340.25 180.41"/><polygon class="cls-28" points="340.25 163.14 324.01 153.77 324.01 155.69 340.25 165.06 340.25 163.14"/><polygon class="cls-28" points="340.25 186.17 324.01 176.79 324.01 178.72 340.25 188.09 340.25 186.17"/><polygon class="cls-28" points="340.25 157.38 324.01 148.01 324.01 149.93 340.25 159.31 340.25 157.38"/><polygon class="cls-28" points="340.25 197.68 324.01 188.31 324.01 190.23 340.25 199.6 340.25 197.68"/><polygon class="cls-28" points="340.25 191.93 324.01 182.55 324.01 184.47 340.25 193.85 340.25 191.93"/><polygon class="cls-28" points="340.25 214.95 324.01 205.58 324.01 207.5 340.25 216.88 340.25 214.95"/><polygon class="cls-28" points="340.25 220.71 324.01 211.34 324.01 213.26 340.25 222.63 340.25 220.71"/><polygon class="cls-28" points="340.25 209.2 324.01 199.82 324.01 201.75 340.25 211.12 340.25 209.2"/><polygon class="cls-28" points="340.25 226.47 324.01 217.09 324.01 219.02 340.25 228.39 340.25 226.47"/><polygon class="cls-28" points="340.25 203.44 324.01 194.07 324.01 195.99 340.25 205.36 340.25 203.44"/><polygon class="cls-29" points="355.05 157.43 355.05 250.53 308.66 223.75 308.66 130.65 355.05 157.43"/><polygon class="cls-30" points="355.05 157.43 355.05 250.53 401.43 223.75 401.43 130.65 355.05 157.43"/><g class="cls-31"><rect class="cls-32" x="360.87" y="127.99" width="9.43" height="129.06"/><rect class="cls-33" x="376.14" y="123.56" width="3.62" height="129.06"/><rect class="cls-34" x="384.54" y="120.18" width="8.57" height="129.06"/></g><g class="cls-35"><rect class="cls-36" x="327.29" y="127.99" width="9.12" height="129.06"/><rect class="cls-37" x="345.03" y="130.01" width="5.13" height="129.06"/></g><ellipse class="cls-38" cx="355.05" cy="120.29" rx="18.09" ry="10.24" transform="matrix(0.99, -0.14, 0.14, 0.99, -13.35, 50.91)"/><ellipse class="cls-39" cx="355.05" cy="120.29" rx="12.16" ry="6.88" transform="translate(-13.35 50.91) rotate(-8.05)"/><path class="cls-40" d="M359.1,116.24c-3.53-.95-8.21.1-10.45,2.34s-1.19,4.82,2.34,5.76,8.21-.1,10.45-2.34S362.63,117.18,359.1,116.24Z"/><path class="cls-41" d="M356.79,118.55a5.1,5.1,0,0,0-4.49,1c-1,1-.51,2.07,1,2.48a5.06,5.06,0,0,0,4.48-1C358.75,120.06,358.3,119,356.79,118.55Z"/><path class="cls-42" d="M174.05,228.14v75l2.35,1.31,98-59.25,1.29-75.08s-1.61-.88-2.2-1.22a1.94,1.94,0,0,0-2,0l-94.83,54.75A5.21,5.21,0,0,0,174.05,228.14Z"/><path class="cls-43" d="M176.4,229.45v75l100.35-57.94V171.85a1.94,1.94,0,0,0-2.91-1.68L179,224.92A5.25,5.25,0,0,0,176.4,229.45Z"/><polygon class="cls-44" points="181.28 228.23 181.28 296.75 273.85 243.43 273.85 174.91 181.28 228.23"/><path class="cls-42" d="M276.75,249.39,176.4,304.46v2.87l70.12,39.82a5.22,5.22,0,0,0,5.2,0L345.52,293a2.59,2.59,0,0,0,1.3-2.25c0-.9,0-2.9,0-2.9Z"/><path class="cls-45" d="M276.75,246.52,176.4,304.46l70.12,39.82a5.24,5.24,0,0,0,5.2,0l93.8-54.16a2.62,2.62,0,0,0,0-4.54Z"/><polygon class="cls-46" points="312.61 276.88 274.71 255.35 191.81 303.22 229.71 324.74 312.61 276.88"/><polygon class="cls-13" points="279.26 259.41 275.11 257.06 196.08 302.68 200.23 305.04 279.26 259.41"/><polygon class="cls-13" points="285.07 262.72 280.93 260.37 201.9 306 206.04 308.35 285.07 262.72"/><polygon class="cls-13" points="290.89 266.04 286.75 263.68 207.72 309.31 211.86 311.67 290.89 266.04"/><polygon class="cls-13" points="296.71 269.35 292.56 267 213.53 312.62 217.68 314.98 296.71 269.35"/><polygon class="cls-13" points="302.52 272.66 298.38 270.31 219.35 315.94 223.49 318.29 302.52 272.66"/><polygon class="cls-13" points="308.34 275.98 304.19 273.62 225.16 319.25 229.31 321.6 308.34 275.98"/><line class="cls-47" x1="201.9" y1="298.87" x2="212.77" y2="305.04"/><line class="cls-47" x1="206.91" y1="295.97" x2="212.34" y2="299.06"/><line class="cls-47" x1="216.63" y1="303.5" x2="222.07" y2="306.58"/><line class="cls-47" x1="225.68" y1="305.04" x2="231.11" y2="308.12"/><line class="cls-47" x1="228.4" y1="309.69" x2="233.83" y2="312.77"/><line class="cls-47" x1="232.24" y1="314.98" x2="237.67" y2="318.06"/><line class="cls-47" x1="236.3" y1="311.66" x2="241.73" y2="314.75"/><line class="cls-47" x1="271.87" y1="291.86" x2="277.3" y2="294.94"/><line class="cls-47" x1="276.54" y1="288.95" x2="281.98" y2="292.04"/><line class="cls-47" x1="281.21" y1="286.05" x2="286.65" y2="289.13"/><line class="cls-47" x1="285.88" y1="283.14" x2="291.32" y2="286.22"/><line class="cls-47" x1="299.81" y1="275.4" x2="305.24" y2="278.49"/><line class="cls-47" x1="241.51" y1="308.93" x2="246.94" y2="312.02"/><line class="cls-47" x1="211.35" y1="293.4" x2="216.79" y2="296.49"/><line class="cls-47" x1="215.8" y1="290.83" x2="221.23" y2="293.92"/><line class="cls-47" x1="220.24" y1="288.26" x2="225.68" y2="291.35"/><line class="cls-47" x1="224.69" y1="285.69" x2="230.12" y2="288.77"/><line class="cls-47" x1="229.14" y1="283.12" x2="234.57" y2="286.2"/><line class="cls-47" x1="233.58" y1="280.55" x2="239.02" y2="283.63"/><line class="cls-47" x1="238.03" y1="277.97" x2="243.46" y2="281.06"/><line class="cls-47" x1="242.48" y1="275.4" x2="247.91" y2="278.49"/><line class="cls-47" x1="246.92" y1="272.83" x2="252.36" y2="275.92"/><line class="cls-47" x1="251.37" y1="270.26" x2="256.8" y2="273.35"/><line class="cls-47" x1="255.81" y1="267.69" x2="261.25" y2="270.77"/><line class="cls-47" x1="260.26" y1="265.12" x2="265.69" y2="268.2"/><line class="cls-47" x1="264.71" y1="262.55" x2="270.14" y2="265.63"/><line class="cls-47" x1="269.15" y1="259.97" x2="274.59" y2="263.06"/><path class="cls-48" d="M275.82,303.13l-26.51,15.31a.72.72,0,0,0,0,1.25L264,328a2.15,2.15,0,0,0,2.15,0l26.52-15.31a.71.71,0,0,0,0-1.24L278,303.13A2.17,2.17,0,0,0,275.82,303.13Z"/><path class="cls-49" d="M249.31,319l26.51-15.31a2.15,2.15,0,0,1,2.15,0L292.68,312a.74.74,0,0,1,.31.37.7.7,0,0,0-.31-.88L278,303.13a2.17,2.17,0,0,0-2.15,0l-26.51,15.31a.71.71,0,0,0-.31.88A.64.64,0,0,1,249.31,319Z"/><path class="cls-41" d="M216,236.88V231l29.31-16.79v5.85Zm.52-5.55V236l28.28-16.2v-4.66ZM216,245.71v-5.85l29.31-16.79v5.85Zm.52-5.56v4.67l28.28-16.2V224Z"/><path class="cls-41" d="M220.18,241.06a2,2,0,0,1-1.49.95c-.53,0-.71-.43-.4-.95a2,2,0,0,1,1.49-.95C220.31,240.11,220.49,240.54,220.18,241.06Zm3-2.85a2,2,0,0,0-1.49.95c-.31.53-.13,1,.4,1a1.94,1.94,0,0,0,1.49-1C223.87,238.64,223.69,238.21,223.16,238.21Zm3.38-1.89a2,2,0,0,0-1.49.94c-.31.53-.13,1,.4,1a1.94,1.94,0,0,0,1.49-1C227.25,236.74,227.07,236.32,226.54,236.32Zm3.38-1.9a2,2,0,0,0-1.5,1c-.3.52-.12.95.41.95a2,2,0,0,0,1.49-.95C230.63,234.84,230.45,234.42,229.92,234.42Zm3.38-1.9a2,2,0,0,0-1.5.95c-.3.52-.12.95.41.95a2,2,0,0,0,1.49-.95C234,232.94,233.83,232.52,233.3,232.52Z"/><polygon class="cls-41" points="233.24 240.16 233.1 240.65 233.76 240.83 231.11 242.34 231.37 242.79 233.92 241.32 233.68 241.98 234.16 242.15 234.74 240.56 233.24 240.16"/><path class="cls-38" d="M272.41,310.14c-4.58-1.23-10.64.13-13.54,3s-1.54,6.24,3,7.47,10.63-.13,13.53-3S277,311.36,272.41,310.14Z"/><path class="cls-39" d="M270.69,311.86c-3.08-.83-7.15.09-9.1,2s-1,4.19,2,5,7.14-.09,9.09-2S273.76,312.68,270.69,311.86Z"/><path class="cls-40" d="M269.37,313.18a6.47,6.47,0,0,0-5.7,1.27c-1.22,1.22-.65,2.63,1.28,3.15a6.49,6.49,0,0,0,5.69-1.28C271.87,315.1,271.29,313.69,269.37,313.18Z"/><path class="cls-41" d="M268.11,314.44a2.77,2.77,0,0,0-2.45.55c-.53.52-.28,1.13.55,1.35a2.79,2.79,0,0,0,2.44-.55C269.18,315.26,268.93,314.66,268.11,314.44Z"/><path class="cls-42" d="M127.84,322.35,80.15,349.59v1.87a2.72,2.72,0,0,0,1.37,2.37l68.53,39.56a8.1,8.1,0,0,0,8.08,0l46.74-26.54a2.73,2.73,0,0,0,1.39-2.31c0-.94,0-1.92,0-1.92L136,322.35A8.16,8.16,0,0,0,127.84,322.35Z"/><path class="cls-43" d="M127.85,320.48,81.52,347.22a2.74,2.74,0,0,0,0,4.74l68.53,39.56a8.14,8.14,0,0,0,8.09,0L204.88,365a2.74,2.74,0,0,0,0-4.75L136,320.48A8.09,8.09,0,0,0,127.85,320.48Z"/><polygon class="cls-44" points="133.4 324.34 88.72 350.14 151.58 386.43 196.63 360.85 133.4 324.34"/><path class="cls-13" d="M181.27,373.43a3.83,3.83,0,0,0-3.37.75c-.72.73-.38,1.56.76,1.86a3.83,3.83,0,0,0,3.37-.75C182.75,374.57,182.41,373.73,181.27,373.43Z"/><ellipse class="cls-38" cx="143.24" cy="356.62" rx="20.17" ry="11.41" transform="translate(-48.54 23.58) rotate(-8.05)"/><ellipse class="cls-39" cx="143.24" cy="356.62" rx="13.55" ry="7.67" transform="translate(-48.54 23.58) rotate(-8.05)"/><ellipse class="cls-40" cx="143.24" cy="356.62" rx="8.49" ry="4.8" transform="translate(-48.53 23.57) rotate(-8.05)"/><path class="cls-41" d="M145.18,354.68a5.7,5.7,0,0,0-5,1.12c-1.07,1.08-.57,2.31,1.12,2.76a5.64,5.64,0,0,0,5-1.12C147.37,356.37,146.87,355.14,145.18,354.68Z"/><path class="cls-42" d="M377.67,329.76l-23.32-12.71a4.69,4.69,0,0,0-4.67,0L299,346a7.63,7.63,0,0,1,0,1.19,1.67,1.67,0,0,0,.84,1.63l22.48,12.76a4.69,4.69,0,0,0,4.67,0l49.9-28.81a1.64,1.64,0,0,0,.8-1.12A8.12,8.12,0,0,0,377.67,329.76Z"/><path class="cls-43" d="M376.83,328.26,354.35,315.5a4.69,4.69,0,0,0-4.67,0l-49.9,28.81a1.67,1.67,0,0,0,0,2.9L322.27,360a4.72,4.72,0,0,0,4.67,0l49.9-28.81A1.68,1.68,0,0,0,376.83,328.26Z"/><polygon class="cls-44" points="373.45 330.87 350.04 317.57 303.17 344.63 326.58 357.92 373.45 330.87"/><path class="cls-38" d="M344.54,328.63c-5.41-1.45-12.58.16-16,3.59s-1.82,7.39,3.59,8.85,12.59-.16,16-3.59S350,330.08,344.54,328.63Z"/><ellipse class="cls-39" cx="338.33" cy="334.85" rx="7.77" ry="4.4" transform="matrix(0.99, -0.14, 0.14, 0.99, -43.56, 50.69)"/><path class="cls-40" d="M340.54,332.64a6.47,6.47,0,0,0-5.7,1.27c-1.22,1.23-.65,2.63,1.28,3.15a6.46,6.46,0,0,0,5.7-1.28C343,334.56,342.46,333.15,340.54,332.64Z"/><path class="cls-41" d="M339.28,333.9a2.77,2.77,0,0,0-2.45.55c-.53.52-.28,1.13.55,1.35a2.78,2.78,0,0,0,2.45-.55C340.35,334.73,340.11,334.12,339.28,333.9Z"/><path class="cls-50" d="M142.82,64.71l116.1,67a16.3,16.3,0,0,1,8.15,14.11v168.9"/><path class="cls-50" d="M267.16,218.22l63,36.38a16.33,16.33,0,0,1,8.15,14.12v66"/><path class="cls-50" d="M151.26,58l-101,58.3a4.83,4.83,0,0,0,0,8.37L135,173.61a16.28,16.28,0,0,1,8.15,14.11v168.9"/><path class="cls-50" d="M355.05,120.52V65.67a16.3,16.3,0,0,0-8.15-14.11L261.75,2.4a14.18,14.18,0,0,0-14.17,0L163.89,50.72"/><path class="cls-51" d="M163.72,18.67a15.55,15.55,0,0,0-6,5.38c-1.15-.71-3.24-2-5.26-3.27V43.57h16c7-6.14,14.62-18.93,14.62-18.93s-6.26-3.17-9.12-5S167.77,16.59,163.72,18.67Z"/><path class="cls-52" d="M116.31,58.89c-1.75-1.48-7.2-1.59-10.65.4-5.27,3-8.61,10-7.53,15.15a6.79,6.79,0,0,0,3.37,5c1.9,1,10.93,6.32,10.93,6.32L133.9,69.54S119.23,58.13,116.31,58.89Z"/><path class="cls-53" d="M163.57,42.59,162,27.72l-2.28-2.25L157.63,24c-1.17-.71-3.24-2-5.24-3.25-4.74-3-9.91-4-17.23.19-11.11,6.41-20.11,20.62-20.11,31.72a14.5,14.5,0,0,0,1.26,6.22l11.4,6.59Z"/><path class="cls-41" d="M117.39,65.43c3.09-1.79,8.42-2.11,10.32,0a14.5,14.5,0,0,1-1.26-6.22c0-11.1,9-25.31,20.12-31.72,10.92-6.31,19.79-2.71,20.08,8,1.41-3.5,3.26-7.57,8.48-10.26,6.55-3.38,12.58.48,12.58,7,0,7.56-3.23,15.76-10.8,20.13L120.14,85.13c-5.26,3-9.52,1-10.61-4.1S112.13,68.46,117.39,65.43Z"/></g></svg>