<svg id="Ñëîé_1" data-name="Ñëîé 1" xmlns="http://www.w3.org/2000/svg" viewBox="0 0 306 340.31"><defs><style>.cls-1{fill:#fff;}.cls-18,.cls-2{fill:#d4ecff;}.cls-3{fill:#721bd5;}.cls-4{fill:#b45ef4;}.cls-5{fill:#8a2ae3;}.cls-6{fill:#95d359;}.cls-7{fill:#c13d1a;}.cls-8{fill:#db5126;}.cls-9{fill:#ef602e;}.cls-10{fill:#791a30;}.cls-11{fill:#921161;}.cls-12{fill:#73287c;}.cls-13{fill:#994299;}.cls-14{fill:#5793ce;}.cls-15{fill:#396caa;}.cls-16{fill:#fafdff;}.cls-17{fill:#173d7a;}.cls-18{opacity:0.4;}.cls-19{fill:#274f89;}.cls-20{fill:#d3008d;}.cls-21{fill:#983be9;}</style></defs><title>System infrastructure</title><path class="cls-1" d="M1.81,135.67l1.86-.51a4.47,4.47,0,0,1-2.18,1.74c-1.29.36-1.49-.73-1.49-.73Z"/><polygon class="cls-2" points="306 229.31 293.76 222.25 281.52 229.31 293.76 236.38 306 229.31"/><polygon class="cls-2" points="293.76 222.25 281.52 215.18 269.27 222.25 281.52 229.31 293.76 222.25"/><polygon class="cls-3" points="295.6 216.24 295.6 195.07 306 189.07 306 210.24 295.6 216.24"/><polygon class="cls-4" points="295.6 195.07 285.2 189.07 285.2 210.24 295.6 216.24 295.6 195.07"/><polygon class="cls-5" points="306 189.07 295.6 183.06 285.2 189.07 295.6 195.07 306 189.07"/><polygon class="cls-6" points="306 218.24 295.6 212.24 295.6 216.24 306 222.25 306 218.24"/><polygon class="cls-7" points="285.2 222.25 285.2 190.22 295.6 184.22 295.6 216.24 285.2 222.25"/><polygon class="cls-8" points="285.2 190.22 274.81 184.22 274.81 216.24 285.2 222.25 285.2 190.22"/><polygon class="cls-9" points="295.6 184.22 285.2 178.22 274.81 184.22 285.2 190.22 295.6 184.22"/><polygon class="cls-10" points="285.2 222.25 285.2 190.22 295.6 184.22 295.6 216.24 285.2 222.25"/><polygon class="cls-10" points="285.2 190.22 274.81 184.22 274.81 216.24 285.2 222.25 285.2 190.22"/><polygon class="cls-11" points="295.6 184.22 285.2 178.22 274.81 184.22 285.2 190.22 295.6 184.22"/><polygon class="cls-12" points="295.6 228.25 295.6 210.24 306 204.23 306 222.25 295.6 228.25"/><polygon class="cls-12" points="295.6 210.24 285.2 204.23 285.2 222.25 295.6 228.25 295.6 210.24"/><polygon class="cls-13" points="306 204.23 295.6 198.23 285.2 204.23 295.6 210.24 306 204.23"/><path class="cls-14" d="M199.34,112.52a.83.83,0,0,1-.84-.84V77.07a.84.84,0,0,1,1.68,0v34.61A.84.84,0,0,1,199.34,112.52Z"/><rect class="cls-14" x="196.33" y="74.89" width="6.01" height="12.98"/><path class="cls-14" d="M201.46,89.1a4.74,4.74,0,0,1-4.25,0,1.3,1.3,0,0,1,0-2.46,4.68,4.68,0,0,1,4.25,0A1.3,1.3,0,0,1,201.46,89.1Z"/><rect class="cls-14" x="194.46" y="56.81" width="9.74" height="20.35"/><path class="cls-15" d="M196.33,77v4.39a7.83,7.83,0,0,0,6,0V77A7.74,7.74,0,0,0,196.33,77Z"/><path class="cls-14" d="M202.78,79.15a7.61,7.61,0,0,1-6.89,0c-1.9-1.1-1.9-2.88,0-4a7.61,7.61,0,0,1,6.89,0C204.69,76.27,204.69,78.05,202.78,79.15Z"/><path class="cls-14" d="M233.09,131.52a.85.85,0,0,1-.84-.84V96.06a.84.84,0,1,1,1.68,0v34.62A.84.84,0,0,1,233.09,131.52Z"/><rect class="cls-14" x="230.09" y="93.89" width="6.01" height="12.98"/><path class="cls-14" d="M235.22,108.09a4.68,4.68,0,0,1-4.25,0,1.3,1.3,0,0,1,0-2.46,4.74,4.74,0,0,1,4.25,0A1.3,1.3,0,0,1,235.22,108.09Z"/><rect class="cls-14" x="228.22" y="75.8" width="9.74" height="20.35"/><path class="cls-15" d="M230.09,96v4.39a7.74,7.74,0,0,0,6,0V96A7.74,7.74,0,0,0,230.09,96Z"/><path class="cls-14" d="M236.54,98.14a7.61,7.61,0,0,1-6.89,0c-1.91-1.1-1.91-2.88,0-4a7.61,7.61,0,0,1,6.89,0C238.44,95.26,238.44,97,236.54,98.14Z"/><polygon class="cls-14" points="265.9 109.57 278.97 101.88 266.53 86.34 263.26 91.69 265.9 109.57"/><path class="cls-14" d="M171,24.34l20.85-12s-.79,12-.79,12-12,3.71-12,3.71Z"/><path class="cls-14" d="M269.54,70.52A13.08,13.08,0,0,0,265,68.85c-2.1-11-9.79-22.79-18.95-28.08a18.71,18.71,0,0,0-7.76-2.63C237.06,24.75,227.74,9.53,216.44,3c-5.91-3.41-11.27-3.81-15.22-1.72h0l-.2.11-.3.17L188.43,8.81,192.51,12c-3.66,1.6-6,5.72-6,11.8,0,11.21,7.87,24.84,17.58,30.45L269.54,101c7.29,4.21,13.2.8,13.2-7.62S276.83,74.73,269.54,70.52Z"/><path class="cls-14" d="M187.13,18.9,215.36,2.41c-5.48-2.86-10.43-3.09-14.14-1.13h0l-.2.11-.3.17L188.43,8.81,192.51,12C190,13.16,188.05,15.51,187.13,18.9Z"/><path class="cls-14" d="M239.25,67.41l20.6-12.09c-3.54-6.11-8.4-11.44-13.78-14.55-.72-.41-1.42-.77-2.11-1.09L217.77,55Z"/><path class="cls-2" d="M194.23,10.16l9.18,5.3,16.8-9.9A35.8,35.8,0,0,0,216.44,3,23.77,23.77,0,0,0,210.56.54Z"/><path class="cls-2" d="M257.57,51.77l-16.43,9.68,5.72,6.38L261.77,59A46.34,46.34,0,0,0,257.57,51.77Z"/><path class="cls-2" d="M256.63,78.12a13.29,13.29,0,0,0-4.52-1.67c-2.1-11-9.79-22.78-19-28.08a18.54,18.54,0,0,0-7.76-2.62c-1.25-13.39-10.56-28.61-21.87-35.14-12.16-7-22-1.33-22,12.71q0,.72,0,1.44c-8.89-4.13-15.84.52-15.84,11.06,0,11.21,7.87,24.84,17.59,30.45l73.34,42.34c7.29,4.21,13.2.8,13.2-7.62S263.92,82.33,256.63,78.12Z"/><path class="cls-1" d="M181.54,24.76q0-.72,0-1.44v-.06c-4.91-1.91-9.14-1.08-11.79,2C172.6,22.88,176.79,22.55,181.54,24.76Z"/><path class="cls-1" d="M257.7,77.08a13.08,13.08,0,0,0-4.51-1.68c-2.1-11.05-9.79-22.78-19-28.07a18.57,18.57,0,0,0-7.76-2.63c-1.25-13.39-10.56-28.61-21.87-35.14-7.58-4.37-14.26-3.81-18.22.63,4-3.45,10.22-3.58,17.15.42,11.31,6.53,20.62,21.75,21.87,35.14a18.54,18.54,0,0,1,7.76,2.62c9.16,5.3,16.85,17,19,28.08a13.29,13.29,0,0,1,4.52,1.67c7.29,4.21,13.2,14.45,13.2,22.87a10.84,10.84,0,0,1-2.11,7c2-1.52,3.18-4.28,3.18-8.07C270.9,91.52,265,81.29,257.7,77.08Z"/><path class="cls-15" d="M180,28.1l5.52,2.56-.28-6.07c0-.43,0-.85,0-1.27,0-5.42,1.64-9.35,4.61-11.06s7.19-1.17,11.88,1.54c10.1,5.83,18.9,20,20,32.29l.29,3.1,3.1.23a14.87,14.87,0,0,1,6.19,2.15c8,4.62,15.25,15.38,17.18,25.57l.49,2.55,2.56.4a9.41,9.41,0,0,1,3.24,1.22c6.16,3.56,11.36,12.57,11.36,19.68,0,2.66-.73,4.61-2,5.36s-3.35.4-5.65-.93L185.13,63.08c-8.53-4.93-15.74-17.41-15.74-27.26,0-3.87,1.14-6.82,3.13-8.09a5.33,5.33,0,0,1,2.92-.78A11.09,11.09,0,0,1,180,28.1Z"/><polygon class="cls-14" points="216.6 74.07 218.53 73.1 216.63 71.65 216.6 74.07"/><polygon class="cls-14" points="210.79 47.93 212.66 46.98 212.7 47.97 210.79 47.93"/><polygon class="cls-14" points="222.12 67.96 224.08 66.97 220.3 63.38 222.12 67.96"/><path class="cls-14" d="M218,73l-9.15-5.4A1.91,1.91,0,0,1,208,66.1l0-10.6,10.84,6.38,0,10.61C218.81,73.06,218.43,73.31,218,73Z"/><path class="cls-14" d="M212.64,47l-9.89,6.36c-.42.27-.08,1.28.56,1.65l10.1,6,10.11,6c.63.37,1-.23.56-1l-9.82-18C213.83,47.17,213.07,46.72,212.64,47Z"/><path class="cls-2" d="M216,74l-9.16-5.39a2,2,0,0,1-.84-1.54l0-10.61,10.85,6.39,0,10.61C216.84,74.05,216.47,74.3,216,74Z"/><path class="cls-2" d="M210.68,48l-9.89,6.37c-.42.27-.08,1.28.55,1.65l10.11,6,10.1,6c.64.38,1-.22.57-1l-9.83-18C211.87,48.16,211.11,47.71,210.68,48Z"/><path class="cls-2" d="M198.41,85.62c0,.6-.42.84-.93.54a2.06,2.06,0,0,1-.94-1.62c0-.6.42-.84.94-.54A2.08,2.08,0,0,1,198.41,85.62Z"/><path class="cls-2" d="M232.25,104.89c0,.6-.42.84-.94.54a2.08,2.08,0,0,1-.93-1.62c0-.6.42-.84.93-.54A2.06,2.06,0,0,1,232.25,104.89Z"/><path class="cls-2" d="M171.79,235.75l-42.86-24.44c-1.57-.9-1.37-2.48.44-3.53L154,193.55a6.81,6.81,0,0,1,6.12-.26L203,217.73c1.57.91,1.37,2.49-.44,3.53L177.91,235.5A6.77,6.77,0,0,1,171.79,235.75Z"/><path class="cls-15" d="M206.83,209.5h0V109.44L167.05,99l-7.33-4.23a7.3,7.3,0,0,0-6.56.27l-6.83,4H125.11l6.28,96.59a1.89,1.89,0,0,0,1.13,1.76l39.7,29.95a7.27,7.27,0,0,0,6.56-.27l26.45-15.27A2.62,2.62,0,0,0,206.83,209.5Z"/><path class="cls-2" d="M156.68,94.15a7.62,7.62,0,0,0-3.52.92l-6.83,4H125.11V199.34a1.9,1.9,0,0,0,1.13,1.76l46,26.21a5.94,5.94,0,0,0,3,.66l.47-101Z"/><path class="cls-14" d="M172.64,227.52a7.45,7.45,0,0,0,5.24-.06V125.82h-5.24Z"/><path class="cls-2" d="M172.22,127l-46-26.22c-1.68-1-1.47-2.66.47-3.79l26.45-15.27a7.3,7.3,0,0,1,6.56-.27l46,26.22c1.68,1,1.47,2.66-.47,3.78l-26.45,15.28A7.3,7.3,0,0,1,172.22,127Z"/><path class="cls-16" d="M205.23,109.61l-26.45,15.28a7.3,7.3,0,0,1-6.56.27l-46-26.22a2.47,2.47,0,0,1-.84-.74,1.75,1.75,0,0,0,.84,2.6l46,26.22a7.3,7.3,0,0,0,6.56-.27l26.45-15.28c1.51-.87,2-2.08,1.31-3A3.56,3.56,0,0,1,205.23,109.61Z"/><path class="cls-17" d="M173.52,116.39,142.9,98.65c-.78-.45-.68-1.25.23-1.77l12.37-7.15a3.44,3.44,0,0,1,3.07-.13l30.62,17.75c.78.45.68,1.25-.22,1.77l-12.38,7.15A3.41,3.41,0,0,1,173.52,116.39Z"/><path class="cls-11" d="M157,99.45l-1.77-1c-.11-.06-.1-.17,0-.24l1.71-1a.48.48,0,0,1,.42,0l1.78,1c.11.06.09.17,0,.24l-1.72,1A.48.48,0,0,1,157,99.45Z"/><path class="cls-11" d="M162.92,102.85l-1.78-1c-.11-.06-.09-.17,0-.25l1.72-1a.45.45,0,0,1,.42,0l1.77,1c.11.07.1.18,0,.25l-1.71,1A.45.45,0,0,1,162.92,102.85Z"/><path class="cls-11" d="M168.84,106.26l-1.77-1c-.11-.07-.1-.17,0-.25l1.71-1a.47.47,0,0,1,.43,0l1.77,1c.11.06.1.17,0,.25l-1.71,1A.47.47,0,0,1,168.84,106.26Z"/><path class="cls-11" d="M174.77,109.67l-1.78-1c-.1-.07-.09-.18,0-.25l1.71-1a.48.48,0,0,1,.42,0l1.78,1c.11.06.09.17,0,.24l-1.72,1A.48.48,0,0,1,174.77,109.67Z"/><path class="cls-14" d="M142.9,98.65l0,0,.19-.13L155.5,91.4a3.41,3.41,0,0,1,3.07-.13L189.15,109c.73-.52.76-1.22,0-1.64L158.57,89.6a3.44,3.44,0,0,0-3.07.13l-12.37,7.15C142.22,97.4,142.12,98.2,142.9,98.65Z"/><path class="cls-17" d="M183.94,146.84l17.41-10a4.25,4.25,0,0,0,1.77-3.39v-6.22c0-1.31-.79-1.91-1.77-1.34l-17.41,10a4.25,4.25,0,0,0-1.77,3.39v6.22C182.17,146.81,183,147.41,183.94,146.84Z"/><path class="cls-1" d="M202.21,125.74a1.75,1.75,0,0,1,.44,1.29v6.23a4.26,4.26,0,0,1-1.77,3.39l-17.4,10a1.34,1.34,0,0,1-.87.19,1.05,1.05,0,0,0,1.33,0l17.41-10a4.25,4.25,0,0,0,1.77-3.39v-6.22C203.12,126.38,202.75,125.83,202.21,125.74Z"/><path class="cls-15" d="M189.18,140.08l1.59-.92a.9.9,0,0,0,.39-.74v-1.7c0-.29-.17-.42-.39-.29l-1.59.92a.9.9,0,0,0-.39.74v1.7C188.79,140.08,189,140.21,189.18,140.08Z"/><path class="cls-1" d="M194.52,137l1.59-.92a.9.9,0,0,0,.39-.74v-1.7c0-.29-.17-.42-.39-.3l-1.59.92a.93.93,0,0,0-.39.74v1.71C194.13,137,194.3,137.12,194.52,137Z"/><path class="cls-17" d="M183.94,191.82l17.41-10a4.26,4.26,0,0,0,1.77-3.39v-6.23c0-1.3-.79-1.9-1.77-1.34l-17.41,10a4.23,4.23,0,0,0-1.77,3.39v6.22C182.17,191.79,183,192.39,183.94,191.82Z"/><path class="cls-1" d="M202.21,170.72a1.72,1.72,0,0,1,.44,1.29v6.22a4.23,4.23,0,0,1-1.77,3.39l-17.4,10a1.34,1.34,0,0,1-.87.19,1.07,1.07,0,0,0,1.33,0l17.41-10a4.26,4.26,0,0,0,1.77-3.39v-6.23C203.12,171.36,202.75,170.81,202.21,170.72Z"/><path class="cls-15" d="M189.18,185.06l1.59-.92a.92.92,0,0,0,.39-.74v-1.71c0-.28-.17-.41-.39-.29l-1.59.92a.93.93,0,0,0-.39.74v1.71C188.79,185.05,189,185.18,189.18,185.06Z"/><path class="cls-1" d="M194.52,182l1.59-.92a.93.93,0,0,0,.39-.74v-1.71c0-.28-.17-.41-.39-.29l-1.59.92a.93.93,0,0,0-.39.74v1.71C194.13,182,194.3,182.1,194.52,182Z"/><path class="cls-17" d="M183.94,214.31l17.41-10a4.26,4.26,0,0,0,1.77-3.39v-6.23c0-1.3-.79-1.9-1.77-1.34l-17.41,10a4.23,4.23,0,0,0-1.77,3.39V213C182.17,214.28,183,214.88,183.94,214.31Z"/><path class="cls-1" d="M202.21,193.2a1.76,1.76,0,0,1,.44,1.3v6.22a4.23,4.23,0,0,1-1.77,3.39l-17.4,10a1.27,1.27,0,0,1-.87.18,1.05,1.05,0,0,0,1.33.05l17.41-10a4.26,4.26,0,0,0,1.77-3.39v-6.23C203.12,193.85,202.75,193.3,202.21,193.2Z"/><path class="cls-15" d="M189.18,207.55l1.59-.92a.93.93,0,0,0,.39-.74v-1.71c0-.28-.17-.41-.39-.29l-1.59.92a.93.93,0,0,0-.39.74v1.71C188.79,207.54,189,207.67,189.18,207.55Z"/><path class="cls-1" d="M194.52,204.47l1.59-.93a.9.9,0,0,0,.39-.73V201.1c0-.28-.17-.41-.39-.29l-1.59.92a.9.9,0,0,0-.39.74v1.7C194.13,204.46,194.3,204.59,194.52,204.47Z"/><path class="cls-17" d="M183.94,169.33l17.41-10a4.25,4.25,0,0,0,1.77-3.39v-6.22c0-1.31-.79-1.91-1.77-1.35l-17.41,10a4.25,4.25,0,0,0-1.77,3.39V168C182.17,169.3,183,169.9,183.94,169.33Z"/><path class="cls-1" d="M202.21,148.23a1.72,1.72,0,0,1,.44,1.29v6.23a4.23,4.23,0,0,1-1.77,3.38l-17.4,10a1.34,1.34,0,0,1-.87.19,1.07,1.07,0,0,0,1.33,0l17.41-10a4.25,4.25,0,0,0,1.77-3.39v-6.22C203.12,148.87,202.75,148.32,202.21,148.23Z"/><path class="cls-15" d="M189.18,162.57l1.59-.92a.9.9,0,0,0,.39-.74v-1.7c0-.29-.17-.42-.39-.3l-1.59.93a.9.9,0,0,0-.39.73v1.71C188.79,162.56,189,162.7,189.18,162.57Z"/><path class="cls-1" d="M194.52,159.49l1.59-.92a.93.93,0,0,0,.39-.74v-1.71c0-.28-.17-.41-.39-.29l-1.59.92a.93.93,0,0,0-.39.74v1.71C194.13,159.48,194.3,159.61,194.52,159.49Z"/><path class="cls-14" d="M168.87,140.47l-40.16-23.18a3.9,3.9,0,0,1-1.63-3.11v-7.66c0-1.19.73-1.75,1.63-1.23l40.16,23.19a3.89,3.89,0,0,1,1.62,3.11v7.65C170.49,140.44,169.77,141,168.87,140.47Z"/><path class="cls-18" d="M167.71,137.79l-37.85-21.85a2,2,0,0,1-.82-1.58V108.6c0-.61.37-.89.82-.62l37.85,21.85a2,2,0,0,1,.83,1.58v5.75C168.54,137.77,168.17,138.05,167.71,137.79Z"/><path class="cls-2" d="M137.75,117.58l-5.65-3.26a1.93,1.93,0,0,1-.8-1.53h0c0-.59.36-.86.8-.61l5.65,3.26a1.9,1.9,0,0,1,.8,1.53h0C138.55,117.56,138.2,117.84,137.75,117.58Z"/><path class="cls-17" d="M142.57,119.29c0,.59-.42.83-.93.53a2,2,0,0,1-.93-1.6c0-.59.42-.83.93-.53A2,2,0,0,1,142.57,119.29Z"/><path class="cls-17" d="M145.83,121.18c0,.59-.41.83-.92.53a2,2,0,0,1-.93-1.6c0-.59.41-.83.93-.54A2.06,2.06,0,0,1,145.83,121.18Z"/><path class="cls-2" d="M149.1,123.06c0,.59-.42.83-.93.54a2.06,2.06,0,0,1-.92-1.61c0-.59.41-.83.92-.53A2,2,0,0,1,149.1,123.06Z"/><path class="cls-17" d="M152.36,125c0,.59-.41.83-.92.53a2,2,0,0,1-.93-1.6c0-.59.42-.83.93-.54A2.06,2.06,0,0,1,152.36,125Z"/><path class="cls-17" d="M166.12,134.58l-1.9-1.1a1.23,1.23,0,0,1-.51-1v-2c0-.38.23-.55.51-.39l1.9,1.1a1.21,1.21,0,0,1,.52,1v2C166.64,134.57,166.41,134.75,166.12,134.58Z"/><path class="cls-14" d="M168.87,154l-40.16-23.19a3.9,3.9,0,0,1-1.63-3.11V120c0-1.2.73-1.75,1.63-1.23L168.87,142a3.89,3.89,0,0,1,1.62,3.11v7.66C170.49,153.94,169.77,154.49,168.87,154Z"/><path class="cls-18" d="M167.71,151.29l-37.85-21.85a2,2,0,0,1-.82-1.58V122.1c0-.6.37-.88.82-.62l37.85,21.85a2,2,0,0,1,.83,1.58v5.76C168.54,151.27,168.17,151.55,167.71,151.29Z"/><path class="cls-2" d="M137.75,131.08l-5.65-3.26a1.91,1.91,0,0,1-.8-1.53h0c0-.59.36-.86.8-.61l5.65,3.26a1.92,1.92,0,0,1,.8,1.54h0C138.55,131.07,138.2,131.34,137.75,131.08Z"/><path class="cls-1" d="M142.57,132.79c0,.59-.42.83-.93.54a2.07,2.07,0,0,1-.93-1.61c0-.59.42-.83.93-.53A2,2,0,0,1,142.57,132.79Z"/><path class="cls-17" d="M145.83,134.68c0,.59-.41.83-.92.53a2,2,0,0,1-.93-1.6c0-.59.41-.83.93-.54A2.06,2.06,0,0,1,145.83,134.68Z"/><path class="cls-2" d="M149.1,136.56c0,.59-.42.83-.93.54a2.06,2.06,0,0,1-.92-1.61c0-.59.41-.83.92-.53A2.06,2.06,0,0,1,149.1,136.56Z"/><path class="cls-17" d="M152.36,138.45c0,.59-.41.83-.92.53a2,2,0,0,1-.93-1.6c0-.59.42-.83.93-.53A2,2,0,0,1,152.36,138.45Z"/><path class="cls-17" d="M166.12,148.08l-1.9-1.09a1.26,1.26,0,0,1-.51-1v-2c0-.38.23-.55.51-.39l1.9,1.1a1.21,1.21,0,0,1,.52,1v2C166.64,148.07,166.41,148.25,166.12,148.08Z"/><path class="cls-14" d="M168.87,167.48l-40.16-23.19a3.88,3.88,0,0,1-1.63-3.11v-7.65c0-1.2.73-1.75,1.63-1.23l40.16,23.18a3.89,3.89,0,0,1,1.62,3.11v7.66C170.49,167.45,169.77,168,168.87,167.48Z"/><path class="cls-18" d="M167.71,164.79l-37.85-21.85a2,2,0,0,1-.82-1.58v-5.75c0-.61.37-.89.82-.63l37.85,21.85a2,2,0,0,1,.83,1.58v5.76C168.54,164.78,168.17,165.06,167.71,164.79Z"/><path class="cls-2" d="M137.75,144.58l-5.65-3.26a1.91,1.91,0,0,1-.8-1.53h0c0-.59.36-.86.8-.6l5.65,3.26a1.89,1.89,0,0,1,.8,1.53h0C138.55,144.57,138.2,144.84,137.75,144.58Z"/><path class="cls-1" d="M142.57,146.29c0,.59-.42.83-.93.54a2.06,2.06,0,0,1-.93-1.6c0-.6.42-.83.93-.54A2.06,2.06,0,0,1,142.57,146.29Z"/><path class="cls-17" d="M145.83,148.18c0,.59-.41.83-.92.53a2,2,0,0,1-.93-1.6c0-.59.41-.83.93-.53A2,2,0,0,1,145.83,148.18Z"/><path class="cls-2" d="M149.1,150.07c0,.59-.42.83-.93.53a2,2,0,0,1-.92-1.6c0-.59.41-.83.92-.54A2.07,2.07,0,0,1,149.1,150.07Z"/><path class="cls-17" d="M152.36,152c0,.59-.41.83-.92.54a2.07,2.07,0,0,1-.93-1.61c0-.59.42-.83.93-.53A2,2,0,0,1,152.36,152Z"/><path class="cls-11" d="M166.12,161.59l-1.9-1.1a1.26,1.26,0,0,1-.51-1v-2c0-.38.23-.55.51-.39l1.9,1.1a1.24,1.24,0,0,1,.52,1v2C166.64,161.58,166.41,161.75,166.12,161.59Z"/><path class="cls-14" d="M168.87,181,128.71,157.8a3.9,3.9,0,0,1-1.63-3.11V147c0-1.2.73-1.75,1.63-1.23L168.87,169a3.89,3.89,0,0,1,1.62,3.11v7.66C170.49,181,169.77,181.5,168.87,181Z"/><path class="cls-18" d="M167.71,178.29l-37.85-21.85a2,2,0,0,1-.82-1.58v-5.75c0-.61.37-.89.82-.63l37.85,21.86a2,2,0,0,1,.83,1.57v5.76C168.54,178.28,168.17,178.56,167.71,178.29Z"/><path class="cls-2" d="M137.75,158.09l-5.65-3.26a2,2,0,0,1-.8-1.54h0c0-.59.36-.86.8-.6l5.65,3.26a1.89,1.89,0,0,1,.8,1.53h0C138.55,158.07,138.2,158.34,137.75,158.09Z"/><path class="cls-17" d="M142.57,159.8c0,.59-.42.83-.93.53a2,2,0,0,1-.93-1.6c0-.59.42-.83.93-.54A2.07,2.07,0,0,1,142.57,159.8Z"/><path class="cls-17" d="M145.83,161.68c0,.59-.41.83-.92.54a2,2,0,0,1-.93-1.61c0-.59.41-.83.93-.53A2,2,0,0,1,145.83,161.68Z"/><path class="cls-2" d="M149.1,163.57c0,.59-.42.83-.93.53a2,2,0,0,1-.92-1.6c0-.59.41-.83.92-.54A2.07,2.07,0,0,1,149.1,163.57Z"/><path class="cls-17" d="M152.36,165.45c0,.59-.41.83-.92.54a2.07,2.07,0,0,1-.93-1.61c0-.59.42-.83.93-.53A2,2,0,0,1,152.36,165.45Z"/><path class="cls-2" d="M166.12,175.09l-1.9-1.1a1.23,1.23,0,0,1-.51-1v-2c0-.37.23-.55.51-.38l1.9,1.09a1.24,1.24,0,0,1,.52,1v2C166.64,175.08,166.41,175.25,166.12,175.09Z"/><path class="cls-14" d="M168.87,194.48,128.71,171.3a3.9,3.9,0,0,1-1.63-3.11v-7.66c0-1.2.73-1.75,1.63-1.23l40.16,23.19a3.87,3.87,0,0,1,1.62,3.1v7.66C170.49,194.45,169.77,195,168.87,194.48Z"/><path class="cls-18" d="M167.71,191.8l-37.85-21.86a2,2,0,0,1-.82-1.57v-5.76c0-.61.37-.89.82-.62l37.85,21.85a2,2,0,0,1,.83,1.58v5.75C168.54,191.78,168.17,192.06,167.71,191.8Z"/><path class="cls-2" d="M137.75,171.59l-5.65-3.26a1.93,1.93,0,0,1-.8-1.53h0c0-.59.36-.87.8-.61l5.65,3.26a1.9,1.9,0,0,1,.8,1.53h0C138.55,171.57,138.2,171.84,137.75,171.59Z"/><path class="cls-17" d="M142.57,173.3c0,.59-.42.83-.93.53a2,2,0,0,1-.93-1.6c0-.59.42-.83.93-.53A2,2,0,0,1,142.57,173.3Z"/><path class="cls-1" d="M145.83,175.18c0,.59-.41.83-.92.54a2,2,0,0,1-.93-1.6c0-.6.41-.83.93-.54A2,2,0,0,1,145.83,175.18Z"/><path class="cls-2" d="M149.1,177.07c0,.59-.42.83-.93.53a2,2,0,0,1-.92-1.6c0-.59.41-.83.92-.53A2,2,0,0,1,149.1,177.07Z"/><path class="cls-1" d="M152.36,179c0,.59-.41.83-.92.53a2.06,2.06,0,0,1-.93-1.6c0-.59.42-.83.93-.54A2.06,2.06,0,0,1,152.36,179Z"/><path class="cls-2" d="M166.12,188.59l-1.9-1.1a1.23,1.23,0,0,1-.51-1v-2c0-.38.23-.56.51-.39l1.9,1.1a1.21,1.21,0,0,1,.52,1v2C166.64,188.58,166.41,188.76,166.12,188.59Z"/><path class="cls-14" d="M168.87,208,128.71,184.8a3.9,3.9,0,0,1-1.63-3.11V174c0-1.19.73-1.74,1.63-1.23L168.87,196a3.89,3.89,0,0,1,1.62,3.11v7.65C170.49,208,169.77,208.5,168.87,208Z"/><path class="cls-18" d="M167.71,205.3l-37.85-21.85a2,2,0,0,1-.82-1.58v-5.76c0-.61.37-.88.82-.62l37.85,21.85a2,2,0,0,1,.83,1.58v5.76C168.54,205.28,168.17,205.56,167.71,205.3Z"/><path class="cls-2" d="M137.75,185.09l-5.65-3.26a1.93,1.93,0,0,1-.8-1.53h0c0-.59.36-.86.8-.61l5.65,3.26a1.9,1.9,0,0,1,.8,1.53h0C138.55,185.08,138.2,185.35,137.75,185.09Z"/><path class="cls-17" d="M142.57,186.8c0,.59-.42.83-.93.54a2.07,2.07,0,0,1-.93-1.61c0-.59.42-.83.93-.53A2,2,0,0,1,142.57,186.8Z"/><path class="cls-17" d="M145.83,188.69c0,.59-.41.83-.92.53a2,2,0,0,1-.93-1.6c0-.59.41-.83.93-.54A2.06,2.06,0,0,1,145.83,188.69Z"/><path class="cls-2" d="M149.1,190.57c0,.59-.42.83-.93.54a2.06,2.06,0,0,1-.92-1.61c0-.59.41-.83.92-.53A2,2,0,0,1,149.1,190.57Z"/><path class="cls-17" d="M152.36,192.46c0,.59-.41.83-.92.53a2,2,0,0,1-.93-1.6c0-.59.42-.83.93-.54A2.06,2.06,0,0,1,152.36,192.46Z"/><path class="cls-17" d="M166.12,202.09l-1.9-1.09a1.26,1.26,0,0,1-.51-1v-2c0-.38.23-.55.51-.39l1.9,1.1a1.21,1.21,0,0,1,.52,1v2C166.64,202.08,166.41,202.26,166.12,202.09Z"/><path class="cls-14" d="M168.87,221.49,128.71,198.3a3.9,3.9,0,0,1-1.63-3.11v-7.65c0-1.2.73-1.75,1.63-1.23l40.16,23.18a3.89,3.89,0,0,1,1.62,3.11v7.66C170.49,221.45,169.77,222,168.87,221.49Z"/><path class="cls-18" d="M167.71,218.8,129.86,197a2,2,0,0,1-.82-1.58v-5.75c0-.61.37-.89.82-.63l37.85,21.85a2,2,0,0,1,.83,1.58v5.76C168.54,218.79,168.17,219.06,167.71,218.8Z"/><path class="cls-2" d="M137.75,198.59l-5.65-3.26a1.91,1.91,0,0,1-.8-1.53h0c0-.59.36-.86.8-.61l5.65,3.26a1.92,1.92,0,0,1,.8,1.54h0C138.55,198.58,138.2,198.85,137.75,198.59Z"/><path class="cls-1" d="M163.71,212.76c0,1.12-.79,1.57-1.75,1a3.85,3.85,0,0,1-1.75-3c0-1.11.78-1.56,1.75-1A3.9,3.9,0,0,1,163.71,212.76Z"/><path class="cls-17" d="M142.57,200.47c0,.59-.42.83-.93.54a2.07,2.07,0,0,1-.93-1.61c0-.59.42-.83.93-.53A2,2,0,0,1,142.57,200.47Z"/><path class="cls-2" d="M145.83,202.36c0,.59-.41.83-.92.53a2,2,0,0,1-.93-1.6c0-.59.41-.83.93-.54A2.06,2.06,0,0,1,145.83,202.36Z"/><path class="cls-17" d="M149.1,204.24c0,.59-.42.83-.93.54a2.06,2.06,0,0,1-.92-1.61c0-.59.41-.83.92-.53A2,2,0,0,1,149.1,204.24Z"/><path class="cls-2" d="M228.76,268.4,185.9,244c-1.57-.9-1.38-2.48.43-3.53L211,226.19a6.82,6.82,0,0,1,6.11-.25L260,250.38c1.57.91,1.37,2.49-.44,3.53l-24.66,14.24A6.79,6.79,0,0,1,228.76,268.4Z"/><path class="cls-15" d="M263.79,242.15h0V142.09L224,131.68l-7.32-4.23a7.3,7.3,0,0,0-6.56.27l-6.84,3.95H182.07l6.29,96.59a1.91,1.91,0,0,0,1.12,1.76L229.18,260a7.3,7.3,0,0,0,6.56-.27l26.46-15.27C263.32,243.77,263.86,242.93,263.79,242.15Z"/><path class="cls-2" d="M213.64,126.8a7.57,7.57,0,0,0-3.51.92l-6.84,3.95H182.07V232a1.93,1.93,0,0,0,1.13,1.76l46,26.21a5.89,5.89,0,0,0,3,.65l.48-101Z"/><path class="cls-14" d="M229.6,260.17a7.48,7.48,0,0,0,5.25-.06V158.46H229.6Z"/><path class="cls-2" d="M229.18,159.67l-46-26.22c-1.68-1-1.47-2.67.47-3.79l26.46-15.27a7.3,7.3,0,0,1,6.56-.27l46,26.22c1.68,1,1.47,2.66-.47,3.78L235.74,159.4A7.3,7.3,0,0,1,229.18,159.67Z"/><path class="cls-16" d="M262.2,142.26l-26.46,15.28a7.3,7.3,0,0,1-6.56.27l-46-26.22a2.69,2.69,0,0,1-.84-.74,1.76,1.76,0,0,0,.84,2.6l46,26.22a7.3,7.3,0,0,0,6.56-.27l26.46-15.28c1.5-.87,2-2.08,1.31-3A3.82,3.82,0,0,1,262.2,142.26Z"/><path class="cls-17" d="M230.48,149,199.87,131.3c-.79-.46-.69-1.25.22-1.77l12.38-7.15a3.41,3.41,0,0,1,3.07-.13L246.15,140c.79.45.69,1.24-.22,1.77l-12.38,7.15A3.41,3.41,0,0,1,230.48,149Z"/><path class="cls-11" d="M214,132.1l-1.77-1c-.11-.06-.1-.17,0-.24l1.71-1a.47.47,0,0,1,.43,0l1.77,1c.11.07.1.18,0,.25l-1.71,1A.5.5,0,0,1,214,132.1Z"/><path class="cls-11" d="M219.88,135.5l-1.77-1c-.11-.06-.1-.17,0-.25l1.71-1a.45.45,0,0,1,.42,0l1.78,1c.11.06.09.17,0,.25l-1.72,1A.45.45,0,0,1,219.88,135.5Z"/><path class="cls-11" d="M225.81,138.91l-1.78-1c-.11-.07-.09-.18,0-.25l1.72-1a.48.48,0,0,1,.42,0l1.77,1c.11.06.1.17,0,.24l-1.71,1A.45.45,0,0,1,225.81,138.91Z"/><path class="cls-11" d="M231.73,142.32l-1.77-1c-.11-.06-.1-.17,0-.24l1.71-1a.5.5,0,0,1,.43,0l1.77,1c.11.06.1.17,0,.24l-1.71,1A.5.5,0,0,1,231.73,142.32Z"/><path class="cls-14" d="M199.87,131.3l0,0,.19-.13,12.38-7.14a3.38,3.38,0,0,1,3.07-.13l30.57,17.72c.73-.52.77-1.22,0-1.64l-30.61-17.75a3.41,3.41,0,0,0-3.07.13l-12.38,7.15C199.18,130.05,199.08,130.84,199.87,131.3Z"/><path class="cls-17" d="M240.91,179.49l17.4-10a4.25,4.25,0,0,0,1.77-3.39v-6.22c0-1.31-.79-1.91-1.77-1.35l-17.4,10a4.25,4.25,0,0,0-1.78,3.39v6.22C239.13,179.46,239.93,180.06,240.91,179.49Z"/><path class="cls-1" d="M259.17,158.39a1.72,1.72,0,0,1,.45,1.29v6.23a4.24,4.24,0,0,1-1.78,3.38l-17.4,10a1.32,1.32,0,0,1-.86.19,1.06,1.06,0,0,0,1.33,0l17.4-10a4.25,4.25,0,0,0,1.77-3.39v-6.22C260.08,159,259.71,158.48,259.17,158.39Z"/><path class="cls-15" d="M246.14,172.73l1.6-.92a.92.92,0,0,0,.38-.74v-1.7c0-.29-.17-.42-.38-.3l-1.6.93a.92.92,0,0,0-.39.73v1.71C245.75,172.72,245.93,172.86,246.14,172.73Z"/><path class="cls-1" d="M251.48,169.65l1.6-.92a1,1,0,0,0,.38-.74v-1.71c0-.28-.17-.41-.38-.29l-1.6.92a1,1,0,0,0-.39.74v1.71C251.09,169.64,251.27,169.77,251.48,169.65Z"/><path class="cls-17" d="M240.91,224.47l17.4-10a4.26,4.26,0,0,0,1.77-3.39v-6.23c0-1.3-.79-1.9-1.77-1.34l-17.4,10a4.24,4.24,0,0,0-1.78,3.39v6.22C239.13,224.44,239.93,225,240.91,224.47Z"/><path class="cls-1" d="M259.17,203.36a1.72,1.72,0,0,1,.45,1.3v6.22a4.24,4.24,0,0,1-1.78,3.39l-17.4,10a1.25,1.25,0,0,1-.86.18,1,1,0,0,0,1.33.05l17.4-10a4.26,4.26,0,0,0,1.77-3.39v-6.23C260.08,204,259.71,203.46,259.17,203.36Z"/><path class="cls-15" d="M246.14,217.71l1.6-.92a1,1,0,0,0,.38-.74v-1.71c0-.28-.17-.41-.38-.29l-1.6.92a1,1,0,0,0-.39.74v1.71C245.75,217.7,245.93,217.83,246.14,217.71Z"/><path class="cls-1" d="M251.48,214.63l1.6-.93a.92.92,0,0,0,.38-.73v-1.71c0-.28-.17-.41-.38-.29l-1.6.92a.93.93,0,0,0-.39.74v1.7C251.09,214.62,251.27,214.75,251.48,214.63Z"/><path class="cls-17" d="M240.91,247l17.4-10a4.23,4.23,0,0,0,1.77-3.38v-6.23c0-1.3-.79-1.91-1.77-1.34l-17.4,10a4.24,4.24,0,0,0-1.78,3.38v6.23C239.13,246.92,239.93,247.52,240.91,247Z"/><path class="cls-1" d="M259.17,225.85a1.72,1.72,0,0,1,.45,1.3v6.22a4.25,4.25,0,0,1-1.78,3.39l-17.4,10a1.25,1.25,0,0,1-.86.18,1,1,0,0,0,1.33.05l17.4-10a4.23,4.23,0,0,0,1.77-3.38v-6.23C260.08,226.49,259.71,225.94,259.17,225.85Z"/><path class="cls-15" d="M246.14,240.2l1.6-.92a1,1,0,0,0,.38-.74v-1.71c0-.28-.17-.41-.38-.29l-1.6.92a.94.94,0,0,0-.39.74v1.71C245.75,240.19,245.93,240.32,246.14,240.2Z"/><path class="cls-1" d="M251.48,237.12l1.6-.93a.92.92,0,0,0,.38-.74v-1.7c0-.29-.17-.42-.38-.29l-1.6.92a.93.93,0,0,0-.39.74v1.7C251.09,237.11,251.27,237.24,251.48,237.12Z"/><path class="cls-17" d="M240.91,202l17.4-10a4.26,4.26,0,0,0,1.77-3.39V182.4c0-1.3-.79-1.9-1.77-1.34l-17.4,10a4.24,4.24,0,0,0-1.78,3.39v6.22C239.13,202,239.93,202.55,240.91,202Z"/><path class="cls-1" d="M259.17,180.88a1.68,1.68,0,0,1,.45,1.29v6.22a4.24,4.24,0,0,1-1.78,3.39l-17.4,10a1.32,1.32,0,0,1-.86.19,1.06,1.06,0,0,0,1.33,0l17.4-10a4.26,4.26,0,0,0,1.77-3.39V182.4C260.08,181.52,259.71,181,259.17,180.88Z"/><path class="cls-15" d="M246.14,195.22l1.6-.92a.93.93,0,0,0,.38-.74v-1.71c0-.28-.17-.41-.38-.29l-1.6.92a1,1,0,0,0-.39.74v1.71C245.75,195.21,245.93,195.34,246.14,195.22Z"/><path class="cls-1" d="M251.48,192.14l1.6-.92a1,1,0,0,0,.38-.74v-1.71c0-.28-.17-.41-.38-.29l-1.6.92a1,1,0,0,0-.39.74v1.71C251.09,192.13,251.27,192.26,251.48,192.14Z"/><path class="cls-14" d="M225.83,173.12l-40.15-23.18a3.9,3.9,0,0,1-1.63-3.11v-7.66c0-1.2.73-1.75,1.63-1.23l40.15,23.19a3.88,3.88,0,0,1,1.63,3.1v7.66C227.46,173.09,226.73,173.64,225.83,173.12Z"/><path class="cls-18" d="M224.68,170.44l-37.85-21.86A2,2,0,0,1,186,147v-5.76c0-.61.37-.89.83-.62l37.85,21.85a2,2,0,0,1,.82,1.58v5.75C225.5,170.42,225.13,170.7,224.68,170.44Z"/><path class="cls-2" d="M194.72,150.23,189.07,147a1.9,1.9,0,0,1-.8-1.53h0c0-.59.35-.87.8-.61l5.65,3.26a1.93,1.93,0,0,1,.8,1.53h0C195.52,150.21,195.16,150.48,194.72,150.23Z"/><path class="cls-17" d="M199.53,151.94c0,.59-.41.83-.93.53a2,2,0,0,1-.92-1.6c0-.59.41-.83.92-.53A2,2,0,0,1,199.53,151.94Z"/><path class="cls-17" d="M202.8,153.82c0,.59-.42.83-.93.54a2.06,2.06,0,0,1-.93-1.6c0-.6.42-.83.93-.54A2.06,2.06,0,0,1,202.8,153.82Z"/><path class="cls-2" d="M206.06,155.71c0,.59-.41.83-.92.53a2,2,0,0,1-.93-1.6c0-.59.41-.83.93-.53A2,2,0,0,1,206.06,155.71Z"/><path class="cls-17" d="M209.33,157.6c0,.59-.42.83-.93.53a2,2,0,0,1-.92-1.6c0-.59.41-.83.92-.54A2.07,2.07,0,0,1,209.33,157.6Z"/><path class="cls-17" d="M223.09,167.23l-1.91-1.1a1.23,1.23,0,0,1-.51-1v-2c0-.38.23-.56.51-.39l1.91,1.1a1.23,1.23,0,0,1,.51,1v2C223.6,167.22,223.37,167.4,223.09,167.23Z"/><path class="cls-14" d="M225.83,186.62l-40.15-23.18a3.9,3.9,0,0,1-1.63-3.11v-7.66c0-1.19.73-1.74,1.63-1.23l40.15,23.19a3.9,3.9,0,0,1,1.63,3.11v7.65C227.46,186.59,226.73,187.14,225.83,186.62Z"/><path class="cls-18" d="M224.68,183.94l-37.85-21.85a2,2,0,0,1-.83-1.58v-5.76c0-.61.37-.88.83-.62L224.68,176a2,2,0,0,1,.82,1.58v5.76C225.5,183.92,225.13,184.2,224.68,183.94Z"/><path class="cls-2" d="M194.72,163.73l-5.65-3.26a1.9,1.9,0,0,1-.8-1.53h0c0-.59.35-.86.8-.61l5.65,3.26a1.93,1.93,0,0,1,.8,1.53h0C195.52,163.72,195.16,164,194.72,163.73Z"/><path class="cls-1" d="M199.53,165.44c0,.59-.41.83-.93.54a2.06,2.06,0,0,1-.92-1.61c0-.59.41-.83.92-.53A2,2,0,0,1,199.53,165.44Z"/><path class="cls-17" d="M202.8,167.33c0,.59-.42.83-.93.53a2,2,0,0,1-.93-1.6c0-.59.42-.83.93-.54A2.07,2.07,0,0,1,202.8,167.33Z"/><path class="cls-2" d="M206.06,169.21c0,.59-.41.83-.92.54a2,2,0,0,1-.93-1.61c0-.59.41-.83.93-.53A2,2,0,0,1,206.06,169.21Z"/><path class="cls-17" d="M209.33,171.1c0,.59-.42.83-.93.53a2,2,0,0,1-.92-1.6c0-.59.41-.83.92-.54A2.07,2.07,0,0,1,209.33,171.1Z"/><path class="cls-17" d="M223.09,180.73l-1.91-1.09a1.26,1.26,0,0,1-.51-1v-2c0-.38.23-.55.51-.39l1.91,1.1a1.23,1.23,0,0,1,.51,1v2C223.6,180.72,223.37,180.9,223.09,180.73Z"/><path class="cls-14" d="M225.83,200.13l-40.15-23.19a3.9,3.9,0,0,1-1.63-3.11v-7.65c0-1.2.73-1.75,1.63-1.23l40.15,23.18a3.9,3.9,0,0,1,1.63,3.11v7.66C227.46,200.09,226.73,200.65,225.83,200.13Z"/><path class="cls-18" d="M224.68,197.44l-37.85-21.85A2,2,0,0,1,186,174v-5.75c0-.61.37-.89.83-.63l37.85,21.85a2,2,0,0,1,.82,1.58v5.76C225.5,197.43,225.13,197.7,224.68,197.44Z"/><path class="cls-2" d="M194.72,177.23,189.07,174a1.89,1.89,0,0,1-.8-1.53h0c0-.59.35-.86.8-.61l5.65,3.26a2,2,0,0,1,.8,1.54h0C195.52,177.22,195.16,177.49,194.72,177.23Z"/><path class="cls-1" d="M199.53,178.94c0,.59-.41.83-.93.54a2.06,2.06,0,0,1-.92-1.61c0-.59.41-.83.92-.53A2,2,0,0,1,199.53,178.94Z"/><path class="cls-17" d="M202.8,180.83c0,.59-.42.83-.93.53a2,2,0,0,1-.93-1.6c0-.59.42-.83.93-.53A2,2,0,0,1,202.8,180.83Z"/><path class="cls-2" d="M206.06,182.71c0,.59-.41.83-.92.54a2,2,0,0,1-.93-1.6c0-.6.41-.83.93-.54A2,2,0,0,1,206.06,182.71Z"/><path class="cls-17" d="M209.33,184.6c0,.59-.42.83-.93.53a2,2,0,0,1-.92-1.6c0-.59.41-.83.92-.53A2,2,0,0,1,209.33,184.6Z"/><path class="cls-17" d="M223.09,194.24l-1.91-1.1a1.26,1.26,0,0,1-.51-1v-2c0-.38.23-.55.51-.39l1.91,1.1a1.23,1.23,0,0,1,.51,1v2C223.6,194.23,223.37,194.4,223.09,194.24Z"/><path class="cls-14" d="M225.83,213.63l-40.15-23.19a3.88,3.88,0,0,1-1.63-3.1v-7.66c0-1.2.73-1.75,1.63-1.23l40.15,23.18a3.9,3.9,0,0,1,1.63,3.11v7.66C227.46,213.6,226.73,214.15,225.83,213.63Z"/><path class="cls-18" d="M224.68,210.94l-37.85-21.85a2,2,0,0,1-.83-1.58v-5.75c0-.61.37-.89.83-.63L224.68,203a2,2,0,0,1,.82,1.57v5.76C225.5,210.93,225.13,211.21,224.68,210.94Z"/><path class="cls-2" d="M194.72,190.74l-5.65-3.27a1.89,1.89,0,0,1-.8-1.53h0c0-.59.35-.86.8-.6l5.65,3.26a1.91,1.91,0,0,1,.8,1.53h0C195.52,190.72,195.16,191,194.72,190.74Z"/><path class="cls-17" d="M199.53,192.45c0,.59-.41.82-.93.53a2,2,0,0,1-.92-1.6c0-.59.41-.83.92-.54A2,2,0,0,1,199.53,192.45Z"/><path class="cls-17" d="M202.8,194.33c0,.59-.42.83-.93.54a2.07,2.07,0,0,1-.93-1.61c0-.59.42-.83.93-.53A2,2,0,0,1,202.8,194.33Z"/><path class="cls-2" d="M206.06,196.22c0,.59-.41.83-.92.53a2,2,0,0,1-.93-1.6c0-.59.41-.83.93-.54A2.06,2.06,0,0,1,206.06,196.22Z"/><path class="cls-17" d="M209.33,198.1c0,.59-.42.83-.93.54a2.06,2.06,0,0,1-.92-1.61c0-.59.41-.83.92-.53A2,2,0,0,1,209.33,198.1Z"/><path class="cls-2" d="M223.09,207.74l-1.91-1.1a1.23,1.23,0,0,1-.51-1v-2c0-.38.23-.55.51-.39l1.91,1.1a1.26,1.26,0,0,1,.51,1v2C223.6,207.73,223.37,207.9,223.09,207.74Z"/><path class="cls-14" d="M225.83,227.13,185.68,204a3.9,3.9,0,0,1-1.63-3.11v-7.66c0-1.2.73-1.75,1.63-1.23l40.15,23.18a3.91,3.91,0,0,1,1.63,3.11v7.66C227.46,227.1,226.73,227.65,225.83,227.13Z"/><path class="cls-18" d="M224.68,224.45l-37.85-21.86A2,2,0,0,1,186,201v-5.76c0-.61.37-.89.83-.62l37.85,21.85a2,2,0,0,1,.82,1.58v5.75C225.5,224.43,225.13,224.71,224.68,224.45Z"/><path class="cls-2" d="M194.72,204.24,189.07,201a1.92,1.92,0,0,1-.8-1.54h0c0-.59.35-.86.8-.6l5.65,3.26a1.91,1.91,0,0,1,.8,1.53h0C195.52,204.22,195.16,204.49,194.72,204.24Z"/><path class="cls-17" d="M199.53,206c0,.59-.41.83-.93.53a2,2,0,0,1-.92-1.6c0-.59.41-.83.92-.54A2,2,0,0,1,199.53,206Z"/><path class="cls-1" d="M202.8,207.83c0,.59-.42.83-.93.54a2.07,2.07,0,0,1-.93-1.61c0-.59.42-.83.93-.53A2,2,0,0,1,202.8,207.83Z"/><path class="cls-2" d="M206.06,209.72c0,.59-.41.83-.92.53a2,2,0,0,1-.93-1.6c0-.59.41-.83.93-.53A2,2,0,0,1,206.06,209.72Z"/><path class="cls-1" d="M209.33,211.6c0,.59-.42.83-.93.54a2,2,0,0,1-.92-1.6c0-.6.41-.83.92-.54A2.06,2.06,0,0,1,209.33,211.6Z"/><path class="cls-2" d="M223.09,221.24l-1.91-1.1a1.23,1.23,0,0,1-.51-1v-2c0-.38.23-.56.51-.39l1.91,1.1a1.23,1.23,0,0,1,.51,1v2C223.6,221.23,223.37,221.4,223.09,221.24Z"/><path class="cls-14" d="M225.83,240.63l-40.15-23.18a3.9,3.9,0,0,1-1.63-3.11v-7.66c0-1.2.73-1.75,1.63-1.23l40.15,23.19a3.9,3.9,0,0,1,1.63,3.11v7.65C227.46,240.6,226.73,241.15,225.83,240.63Z"/><path class="cls-18" d="M224.68,238,186.83,216.1a2,2,0,0,1-.83-1.58v-5.76c0-.61.37-.89.83-.62L224.68,230a2,2,0,0,1,.82,1.58v5.75C225.5,237.93,225.13,238.21,224.68,238Z"/><path class="cls-2" d="M194.72,217.74l-5.65-3.26a1.9,1.9,0,0,1-.8-1.53h0c0-.59.35-.87.8-.61l5.65,3.26a1.93,1.93,0,0,1,.8,1.53h0C195.52,217.72,195.16,218,194.72,217.74Z"/><path class="cls-17" d="M199.53,219.45c0,.59-.41.83-.93.53a2,2,0,0,1-.92-1.6c0-.59.41-.83.92-.53A2,2,0,0,1,199.53,219.45Z"/><path class="cls-17" d="M202.8,221.34c0,.59-.42.82-.93.53a2.06,2.06,0,0,1-.93-1.6c0-.59.42-.83.93-.54A2.06,2.06,0,0,1,202.8,221.34Z"/><path class="cls-2" d="M206.06,223.22c0,.59-.41.83-.92.54a2,2,0,0,1-.93-1.61c0-.59.41-.83.93-.53A2,2,0,0,1,206.06,223.22Z"/><path class="cls-17" d="M209.33,225.11c0,.59-.42.83-.93.53a2,2,0,0,1-.92-1.6c0-.59.41-.83.92-.54A2.07,2.07,0,0,1,209.33,225.11Z"/><path class="cls-11" d="M223.09,234.74l-1.91-1.1a1.23,1.23,0,0,1-.51-1v-2c0-.38.23-.56.51-.39l1.91,1.1a1.23,1.23,0,0,1,.51,1v2C223.6,234.73,223.37,234.91,223.09,234.74Z"/><path class="cls-14" d="M225.83,254.13,185.68,231a3.9,3.9,0,0,1-1.63-3.11v-7.65c0-1.2.73-1.75,1.63-1.24l40.15,23.19a3.9,3.9,0,0,1,1.63,3.11v7.65C227.46,254.1,226.73,254.65,225.83,254.13Z"/><path class="cls-18" d="M224.68,251.45,186.83,229.6A2,2,0,0,1,186,228v-5.76c0-.6.37-.88.83-.62l37.85,21.85a2,2,0,0,1,.82,1.58v5.76C225.5,251.43,225.13,251.71,224.68,251.45Z"/><path class="cls-2" d="M194.72,231.24,189.07,228a1.9,1.9,0,0,1-.8-1.53h0c0-.59.35-.86.8-.61l5.65,3.26a2,2,0,0,1,.8,1.54h0C195.52,231.23,195.16,231.5,194.72,231.24Z"/><path class="cls-1" d="M200.56,233.68c0,1.12-.78,1.57-1.75,1a3.88,3.88,0,0,1-1.75-3c0-1.11.79-1.56,1.75-1A3.87,3.87,0,0,1,200.56,233.68Z"/><path class="cls-17" d="M207.33,237.64c0,.59-.42.83-.93.54a2.06,2.06,0,0,1-.92-1.61c0-.59.41-.83.92-.53A2,2,0,0,1,207.33,237.64Z"/><path class="cls-2" d="M210.59,239.53c0,.59-.41.83-.92.53a2,2,0,0,1-.93-1.6c0-.59.42-.83.93-.54A2.06,2.06,0,0,1,210.59,239.53Z"/><path class="cls-17" d="M213.86,241.41c0,.59-.42.83-.93.54a2.06,2.06,0,0,1-.92-1.61c0-.59.41-.83.92-.53A2,2,0,0,1,213.86,241.41Z"/><path class="cls-2" d="M223.09,248.24l-1.91-1.09a1.26,1.26,0,0,1-.51-1v-2c0-.38.23-.55.51-.39l1.91,1.1a1.23,1.23,0,0,1,.51,1v2C223.6,248.23,223.37,248.41,223.09,248.24Z"/><path class="cls-14" d="M159,243.15a.61.61,0,0,1-.51-.29.59.59,0,0,1,.22-.8l7.92-4.58a2.94,2.94,0,0,0,1.45-2.53v-4.19a.59.59,0,0,1,.59-.58.58.58,0,0,1,.58.58V235a4.09,4.09,0,0,1-2,3.54l-7.92,4.58A.6.6,0,0,1,159,243.15Z"/><rect class="cls-14" x="152.93" y="239.47" width="4.82" height="10.4" transform="translate(290.32 -11.8) rotate(60.17)"/><path class="cls-14" d="M161.55,243.07a3.75,3.75,0,0,0-1.69-3c-.94-.54-1.71-.1-1.71,1a3.79,3.79,0,0,0,1.7,3C160.79,244.6,161.55,244.16,161.55,243.07Z"/><rect class="cls-14" x="141.42" y="242.25" width="7.81" height="16.32" transform="translate(290.27 -0.22) rotate(60.17)"/><path class="cls-15" d="M151.11,244.32l3.06-1.76a6.31,6.31,0,0,1,2.4,4.19l-3.06,1.75A6.31,6.31,0,0,1,151.11,244.32Z"/><path class="cls-14" d="M155.16,248a6.1,6.1,0,0,0-2.75-4.8c-1.52-.88-2.76-.17-2.76,1.59a6.08,6.08,0,0,0,2.74,4.79C153.92,250.43,155.16,249.72,155.16,248Z"/><path class="cls-2" d="M158.71,242a.49.49,0,0,0,0-.93,1.77,1.77,0,0,0-1.6,0c-.44.25-.44.66,0,.92A1.77,1.77,0,0,0,158.71,242Z"/><path class="cls-2" d="M121.34,339.21,21.68,281.67c-2.82-1.63-2.46-4.47.79-6.35l67.86-39.16c3.26-1.88,8.18-2.09,11-.46L201,293.24c2.82,1.63,2.46,4.47-.79,6.35l-67.86,39.16C129.08,340.63,124.16,340.84,121.34,339.21Z"/><path class="cls-14" d="M145.4,336.48a.64.64,0,0,1-.3-.08L126,325.1a.58.58,0,1,1,.6-1l19.07,11.29a.59.59,0,0,1,.2.8A.57.57,0,0,1,145.4,336.48Z"/><path class="cls-17" d="M202.89,282.49l-13.62-1.8-87.94-50.77c-2.82-1.62-7.74-1.42-11,.46L28,266.34l-8.24-1.08v4.67h0a3.22,3.22,0,0,0,1.89,2.89l99.66,57.53c2.82,1.63,7.74,1.43,11-.45l67.86-39.17c1.83-1.05,2.74-2.42,2.69-3.7h0Z"/><path class="cls-15" d="M136.82,250.41l-6.25-3.6H61.88L28,266.34l-8.24-1.08v4.67h0a3.22,3.22,0,0,0,1.89,2.89l99.66,57.53a10.31,10.31,0,0,0,5.67,1.07Z"/><path class="cls-14" d="M23.44,265.74l-3.66-.48v4.67h0a3.22,3.22,0,0,0,1.89,2.89l1.76,1Z"/><path class="cls-19" d="M122.34,330.82a12.81,12.81,0,0,0,9.35-.58V319.82h-9.35Z"/><path class="cls-2" d="M121.34,325.69,21.68,268.15c-2.82-1.63-2.46-4.47.79-6.35l67.86-39.17c3.26-1.88,8.18-2.08,11-.45L201,279.71c2.82,1.63,2.46,4.48-.79,6.35l-67.86,39.17C129.08,327.11,124.16,327.31,121.34,325.69Z"/><path class="cls-1" d="M200.2,284.36l-67.86,39.16c-3.26,1.88-8.18,2.09-11,.46L21.68,266.44a3.7,3.7,0,0,1-1.75-1.92c-.44,1.34.12,2.69,1.75,3.63l99.66,57.54c2.82,1.62,7.74,1.42,11-.46l67.86-39.17c2.18-1.26,3.06-3,2.54-4.43A5.3,5.3,0,0,1,200.2,284.36Z"/><path class="cls-17" d="M64.07,249.1l-4.51-2.6c-.36-.21-.32-.58.1-.82L65,242.61a1.57,1.57,0,0,1,1.41-.06l4.51,2.6c.36.21.32.58-.1.82L65.48,249A1.57,1.57,0,0,1,64.07,249.1Z"/><path class="cls-17" d="M71,253.12l-4.51-2.6c-.36-.21-.32-.58.1-.82l5.32-3.07a1.59,1.59,0,0,1,1.42-.06l4.51,2.6c.36.21.31.58-.11.82l-5.32,3.07A1.57,1.57,0,0,1,71,253.12Z"/><path class="cls-17" d="M78,257.14l-4.51-2.6c-.36-.21-.31-.58.11-.82l5.32-3.07a1.57,1.57,0,0,1,1.41-.06l4.51,2.6c.36.21.32.58-.1.82l-5.32,3.07A1.59,1.59,0,0,1,78,257.14Z"/><path class="cls-17" d="M87.62,253.82l-4.5-2.6c-.37-.21-.32-.58.1-.82l4.46-2.58a1.62,1.62,0,0,1,1.42-.06l4.51,2.61c.36.21.31.57-.11.81L89,253.76A1.59,1.59,0,0,1,87.62,253.82Z"/><path class="cls-17" d="M94.59,257.84l-4.51-2.6c-.36-.21-.32-.58.1-.82l4.47-2.58a1.6,1.6,0,0,1,1.41-.06l4.51,2.61c.36.21.32.57-.1.81L96,257.78A1.57,1.57,0,0,1,94.59,257.84Z"/><path class="cls-17" d="M101.55,261.86,97,259.26c-.36-.21-.31-.58.1-.82l4.47-2.58a1.6,1.6,0,0,1,1.41-.06l4.51,2.61c.36.21.32.57-.1.81L103,261.8A1.57,1.57,0,0,1,101.55,261.86Z"/><path class="cls-17" d="M108.51,265.88l-4.5-2.6c-.37-.21-.32-.58.1-.82l4.46-2.58a1.59,1.59,0,0,1,1.42-.05l4.51,2.6c.36.21.31.57-.11.81l-4.46,2.58A1.59,1.59,0,0,1,108.51,265.88Z"/><path class="cls-17" d="M115.48,269.9,111,267.3c-.36-.21-.32-.58.1-.82l4.47-2.58a1.56,1.56,0,0,1,1.41,0l4.51,2.6c.36.21.32.57-.1.81l-4.47,2.58A1.54,1.54,0,0,1,115.48,269.9Z"/><path class="cls-17" d="M122.44,273.92l-4.51-2.6c-.36-.21-.31-.57.1-.82l4.47-2.58a1.56,1.56,0,0,1,1.41-.05l4.51,2.6c.37.21.32.57-.1.81l-4.47,2.58A1.54,1.54,0,0,1,122.44,273.92Z"/><path class="cls-17" d="M129.4,277.94l-4.5-2.6c-.37-.21-.32-.57.1-.82l4.46-2.58a1.59,1.59,0,0,1,1.42-.05l4.51,2.6c.36.21.31.57-.1.82l-4.47,2.57A1.56,1.56,0,0,1,129.4,277.94Z"/><path class="cls-17" d="M136.37,282l-4.51-2.6c-.36-.21-.32-.57.1-.82l4.47-2.57a1.54,1.54,0,0,1,1.41-.06l4.51,2.6c.36.21.32.57-.1.82l-4.47,2.57A1.54,1.54,0,0,1,136.37,282Z"/><path class="cls-17" d="M143.33,286l-4.51-2.6c-.36-.21-.31-.57.1-.82l4.47-2.57a1.54,1.54,0,0,1,1.41-.06l4.51,2.6c.37.21.32.57-.1.82l-4.47,2.58A1.56,1.56,0,0,1,143.33,286Z"/><path class="cls-17" d="M150.3,290l-4.51-2.6c-.37-.21-.32-.57.1-.81l4.47-2.58a1.54,1.54,0,0,1,1.41-.06l4.51,2.6c.36.21.31.57-.1.82L151.71,290A1.56,1.56,0,0,1,150.3,290Z"/><path class="cls-15" d="M97.88,251.92l-4.5-2.61c-.37-.2-.32-.57.1-.81l4.46-2.58a1.59,1.59,0,0,1,1.42-.06l4.51,2.6c.36.21.31.58-.11.82l-4.46,2.58A1.59,1.59,0,0,1,97.88,251.92Z"/><path class="cls-15" d="M90.82,247.84l-4.51-2.61c-.36-.2-.32-.57.1-.81l4.47-2.58a1.57,1.57,0,0,1,1.41-.06l4.51,2.6c.36.21.32.58-.1.82l-4.47,2.58A1.57,1.57,0,0,1,90.82,247.84Z"/><path class="cls-17" d="M83.74,243.75,74,238.14c-.37-.21-.32-.57.1-.81l4.47-2.58a1.57,1.57,0,0,1,1.41-.06l9.71,5.61c.36.21.32.57-.1.81l-4.47,2.58A1.57,1.57,0,0,1,83.74,243.75Z"/><path class="cls-17" d="M88.69,238.78l-7.88-4.55c-.37-.21-.32-.57.1-.82l4.46-2.58a1.58,1.58,0,0,1,1.42-.05l7.88,4.55c.36.21.31.57-.1.81l-4.47,2.58A1.57,1.57,0,0,1,88.69,238.78Z"/><path class="cls-15" d="M104.85,255.94l-4.51-2.61c-.36-.2-.32-.57.1-.81l4.47-2.58a1.57,1.57,0,0,1,1.41-.06l4.51,2.6c.36.21.32.58-.1.82l-4.47,2.58A1.57,1.57,0,0,1,104.85,255.94Z"/><path class="cls-17" d="M111.81,260l-4.51-2.6c-.36-.21-.31-.58.1-.82l4.47-2.58a1.57,1.57,0,0,1,1.41-.06l4.51,2.6c.36.21.32.58-.1.82l-4.47,2.58A1.57,1.57,0,0,1,111.81,260Z"/><path class="cls-17" d="M118.77,264l-4.5-2.6c-.37-.21-.32-.58.1-.82l4.46-2.58a1.59,1.59,0,0,1,1.42-.06l4.51,2.61c.36.2.31.57-.11.81l-4.46,2.58A1.59,1.59,0,0,1,118.77,264Z"/><path class="cls-17" d="M125.74,268l-4.51-2.6c-.36-.21-.32-.58.1-.82L125.8,262a1.57,1.57,0,0,1,1.41-.06l4.51,2.61c.36.2.32.57-.1.81l-4.47,2.58A1.57,1.57,0,0,1,125.74,268Z"/><path class="cls-17" d="M132.7,272l-4.51-2.6c-.36-.21-.31-.58.1-.82l4.47-2.58a1.57,1.57,0,0,1,1.41-.06l4.51,2.61c.37.2.32.57-.1.81L134.11,272A1.57,1.57,0,0,1,132.7,272Z"/><path class="cls-17" d="M139.66,276l-4.5-2.6c-.37-.21-.32-.58.1-.82l4.47-2.58a1.57,1.57,0,0,1,1.41-.06l4.51,2.61c.36.21.31.57-.1.81L141.08,276A1.59,1.59,0,0,1,139.66,276Z"/><path class="cls-17" d="M146.63,280.06l-4.51-2.6c-.36-.21-.32-.58.1-.82l4.47-2.58a1.57,1.57,0,0,1,1.41-.06l4.51,2.61c.36.21.32.57-.1.81L148,280A1.57,1.57,0,0,1,146.63,280.06Z"/><path class="cls-17" d="M153.59,284.08l-4.51-2.6c-.36-.21-.31-.58.1-.82l4.47-2.58a1.57,1.57,0,0,1,1.41-.06l4.51,2.61c.37.21.32.57-.1.81L155,284A1.57,1.57,0,0,1,153.59,284.08Z"/><path class="cls-17" d="M160.56,288.1l-4.51-2.6c-.37-.21-.32-.58.1-.82l4.47-2.58A1.57,1.57,0,0,1,162,282l4.51,2.61c.36.21.31.57-.1.81L162,288A1.57,1.57,0,0,1,160.56,288.1Z"/><path class="cls-17" d="M172.93,295.25l-9.83-5.68c-.37-.21-.32-.58.1-.82l4.47-2.58a1.6,1.6,0,0,1,1.41-.06l9.84,5.68c.36.21.31.58-.11.82l-4.46,2.58A1.59,1.59,0,0,1,172.93,295.25Z"/><path class="cls-17" d="M186.49,287.42l-8.3-4.79c-.36-.21-.32-.58.1-.82l4.47-2.58a1.57,1.57,0,0,1,1.41-.06l8.3,4.8c.37.21.32.57-.1.81l-4.47,2.58A1.57,1.57,0,0,1,186.49,287.42Z"/><path class="cls-17" d="M117,255.15l-4.51-2.6c-.36-.21-.31-.58.1-.82l4.47-2.58a1.6,1.6,0,0,1,1.41-.06L123,251.7c.37.21.32.57-.1.81l-4.47,2.58A1.57,1.57,0,0,1,117,255.15Z"/><path class="cls-17" d="M109.91,251l-4.51-2.6c-.37-.21-.32-.58.1-.82L110,245a1.6,1.6,0,0,1,1.41-.06l4.51,2.61c.36.21.31.57-.1.81L111.32,251A1.57,1.57,0,0,1,109.91,251Z"/><path class="cls-15" d="M102.77,246.91l-4.51-2.6c-.36-.21-.32-.58.1-.82l4.47-2.58a1.57,1.57,0,0,1,1.41-.06l4.51,2.61c.36.21.32.57-.1.81l-4.47,2.58A1.57,1.57,0,0,1,102.77,246.91Z"/><path class="cls-17" d="M95.63,242.79l-4.51-2.6c-.36-.21-.31-.58.1-.82l4.47-2.58a1.57,1.57,0,0,1,1.41-.06l4.51,2.61c.37.21.32.57-.1.81L97,242.73A1.57,1.57,0,0,1,95.63,242.79Z"/><path class="cls-17" d="M124,259.17l-4.51-2.6c-.37-.21-.32-.58.1-.82l4.47-2.58a1.6,1.6,0,0,1,1.41-.06l4.51,2.61c.36.21.31.57-.1.81l-4.47,2.58A1.57,1.57,0,0,1,124,259.17Z"/><path class="cls-17" d="M131,263.19l-4.51-2.6c-.36-.21-.32-.58.1-.82l4.47-2.58a1.56,1.56,0,0,1,1.41-.05l4.51,2.6c.36.21.32.57-.1.81l-4.47,2.58A1.57,1.57,0,0,1,131,263.19Z"/><path class="cls-17" d="M137.93,267.21l-4.51-2.6c-.36-.21-.31-.58.1-.82l4.47-2.58a1.58,1.58,0,0,1,1.42,0l4.5,2.6c.37.21.32.57-.1.81l-4.46,2.58A1.56,1.56,0,0,1,137.93,267.21Z"/><path class="cls-17" d="M144.9,271.23l-4.51-2.6c-.37-.21-.32-.57.1-.82l4.47-2.58a1.56,1.56,0,0,1,1.41-.05l4.51,2.6c.36.21.31.57-.1.81l-4.47,2.58A1.54,1.54,0,0,1,144.9,271.23Z"/><path class="cls-17" d="M151.86,275.25l-4.51-2.6c-.36-.21-.32-.57.1-.82l4.47-2.58a1.56,1.56,0,0,1,1.41-.05l4.51,2.6c.36.21.32.57-.1.82l-4.47,2.57A1.54,1.54,0,0,1,151.86,275.25Z"/><path class="cls-17" d="M158.82,279.27l-4.51-2.6c-.36-.21-.31-.57.11-.82l4.46-2.57a1.56,1.56,0,0,1,1.42-.06l4.5,2.6c.37.21.32.57-.1.82l-4.46,2.57A1.56,1.56,0,0,1,158.82,279.27Z"/><path class="cls-17" d="M165.79,283.29l-4.51-2.6c-.36-.21-.32-.57.1-.82l4.47-2.57a1.54,1.54,0,0,1,1.41-.06l4.51,2.6c.36.21.31.57-.1.82l-4.47,2.58A1.56,1.56,0,0,1,165.79,283.29Z"/><path class="cls-17" d="M172.75,287.31l-4.51-2.6c-.36-.21-.32-.57.1-.81l4.47-2.58a1.54,1.54,0,0,1,1.41-.06l4.51,2.6c.36.21.32.57-.1.82l-4.47,2.58A1.56,1.56,0,0,1,172.75,287.31Z"/><path class="cls-17" d="M179.71,291.33l-4.51-2.6c-.36-.21-.31-.57.11-.81l4.46-2.58a1.56,1.56,0,0,1,1.42-.06l4.5,2.6c.37.21.32.58-.1.82l-4.46,2.58A1.58,1.58,0,0,1,179.71,291.33Z"/><path class="cls-17" d="M113.38,245.21l-4.51-2.61c-.37-.2-.32-.57.1-.81l4.47-2.58a1.57,1.57,0,0,1,1.41-.06l4.51,2.6c.36.21.31.58-.1.82l-4.47,2.58A1.57,1.57,0,0,1,113.38,245.21Z"/><path class="cls-17" d="M106.45,241.21l-4.51-2.61c-.36-.21-.32-.57.1-.81l4.47-2.58a1.57,1.57,0,0,1,1.41-.06l4.51,2.6c.36.21.32.58-.1.82l-4.47,2.58A1.57,1.57,0,0,1,106.45,241.21Z"/><path class="cls-17" d="M99.52,237.21,95,234.6c-.36-.21-.32-.57.1-.81l4.47-2.58a1.57,1.57,0,0,1,1.41-.06l4.51,2.6c.36.21.32.58-.1.82l-4.47,2.58A1.57,1.57,0,0,1,99.52,237.21Z"/><path class="cls-17" d="M92.59,233.21l-4.51-2.61c-.36-.21-.32-.57.1-.81l4.47-2.58a1.57,1.57,0,0,1,1.41-.06l4.51,2.6c.36.21.32.58-.1.82L94,233.15A1.57,1.57,0,0,1,92.59,233.21Z"/><path class="cls-17" d="M99.71,229.09l-4.5-2.6c-.37-.21-.32-.57.1-.82l1.47-.85a1.59,1.59,0,0,1,1.42-.06l4.51,2.61c.36.21.31.57-.11.81l-1.47.85A1.56,1.56,0,0,1,99.71,229.09Z"/><path class="cls-17" d="M108.76,234.31l-4.51-2.6c-.36-.21-.32-.57.1-.82l1.48-.85a1.57,1.57,0,0,1,1.41-.06l4.51,2.61c.36.21.31.57-.1.81l-1.48.85A1.54,1.54,0,0,1,108.76,234.31Z"/><path class="cls-17" d="M115.66,238.3l-4.51-2.61c-.37-.21-.32-.57.1-.81l1.48-.85a1.54,1.54,0,0,1,1.41-.06l4.51,2.6c.36.21.31.57-.1.82l-1.48.85A1.57,1.57,0,0,1,115.66,238.3Z"/><path class="cls-17" d="M122.56,242.28l-4.51-2.6c-.37-.21-.32-.58.1-.82l1.48-.85A1.57,1.57,0,0,1,121,238l4.51,2.6c.36.21.31.58-.1.82l-1.48.85A1.57,1.57,0,0,1,122.56,242.28Z"/><path class="cls-17" d="M129.46,246.26l-4.51-2.6c-.37-.21-.32-.57.1-.81l1.48-.86a1.6,1.6,0,0,1,1.41-.06l4.51,2.61c.36.21.31.57-.1.81l-1.48.86A1.56,1.56,0,0,1,129.46,246.26Z"/><path class="cls-17" d="M168,268.5l-4.51-2.6c-.36-.21-.32-.57.1-.81l1.48-.86a1.6,1.6,0,0,1,1.41-.06l4.51,2.61c.36.21.31.57-.1.81l-1.48.86A1.56,1.56,0,0,1,168,268.5Z"/><path class="cls-17" d="M174.88,272.49l-4.51-2.61c-.36-.2-.32-.57.1-.81l1.48-.85a1.57,1.57,0,0,1,1.41-.06l4.51,2.6c.36.21.31.58-.1.82l-1.48.85A1.57,1.57,0,0,1,174.88,272.49Z"/><path class="cls-17" d="M181.78,276.47l-4.51-2.6c-.36-.21-.32-.58.1-.82l1.48-.85a1.57,1.57,0,0,1,1.41-.06l4.51,2.6c.36.21.31.58-.1.82l-1.48.85A1.57,1.57,0,0,1,181.78,276.47Z"/><path class="cls-17" d="M188.68,280.46l-4.51-2.61c-.36-.21-.32-.57.1-.81l1.48-.86a1.56,1.56,0,0,1,1.41-.05l4.51,2.6c.36.21.31.57-.1.81l-1.48.86A1.6,1.6,0,0,1,188.68,280.46Z"/><path class="cls-17" d="M120.34,249.23l-4.51-2.61c-.36-.2-.32-.57.1-.81l4.47-2.58a1.57,1.57,0,0,1,1.41-.06l4.51,2.6c.36.21.32.58-.1.82l-4.47,2.58A1.57,1.57,0,0,1,120.34,249.23Z"/><path class="cls-17" d="M127.3,253.25l-4.51-2.61c-.36-.2-.31-.57.1-.81l4.47-2.58a1.59,1.59,0,0,1,1.42-.06l4.5,2.6c.37.21.32.58-.1.82l-4.46,2.58A1.59,1.59,0,0,1,127.3,253.25Z"/><path class="cls-17" d="M134.27,257.27l-4.51-2.6c-.37-.21-.32-.58.1-.82l4.47-2.58a1.57,1.57,0,0,1,1.41-.06l4.51,2.6c.36.21.31.58-.1.82l-4.47,2.58A1.57,1.57,0,0,1,134.27,257.27Z"/><path class="cls-17" d="M141.23,261.29l-4.51-2.6c-.36-.21-.32-.58.1-.82l4.47-2.58a1.57,1.57,0,0,1,1.41-.06l4.51,2.61c.36.2.32.57-.1.81l-4.47,2.58A1.57,1.57,0,0,1,141.23,261.29Z"/><path class="cls-17" d="M148.19,265.31l-4.51-2.6c-.36-.21-.31-.58.11-.82l4.46-2.58a1.59,1.59,0,0,1,1.42-.06l4.5,2.61c.37.2.32.57-.1.81l-4.46,2.58A1.59,1.59,0,0,1,148.19,265.31Z"/><path class="cls-17" d="M155.16,269.33l-4.51-2.6c-.36-.21-.32-.58.1-.82l4.47-2.58a1.57,1.57,0,0,1,1.41-.06l4.51,2.61c.36.2.31.57-.1.81l-4.47,2.58A1.57,1.57,0,0,1,155.16,269.33Z"/><path class="cls-17" d="M162.12,273.35l-4.51-2.6c-.36-.21-.32-.58.1-.82l4.47-2.58a1.57,1.57,0,0,1,1.41-.06l4.51,2.61c.36.21.32.57-.1.81l-4.47,2.58A1.57,1.57,0,0,1,162.12,273.35Z"/><path class="cls-17" d="M169.08,277.37l-4.51-2.6c-.36-.21-.31-.58.11-.82l4.46-2.58a1.59,1.59,0,0,1,1.42-.06l4.5,2.61c.37.21.32.57-.1.81l-4.46,2.58A1.59,1.59,0,0,1,169.08,277.37Z"/><path class="cls-17" d="M176.05,281.39l-4.51-2.6c-.36-.21-.32-.58.1-.82l4.47-2.58a1.57,1.57,0,0,1,1.41-.06l4.51,2.61c.36.21.31.57-.1.81l-4.47,2.58A1.57,1.57,0,0,1,176.05,281.39Z"/><path class="cls-17" d="M80.53,249.72l-13.28-7.66c-.36-.21-.32-.58.1-.82l4.47-2.58a1.57,1.57,0,0,1,1.41-.06l13.28,7.67c.36.21.32.57-.1.82l-4.47,2.58A1.56,1.56,0,0,1,80.53,249.72Z"/><path class="cls-17" d="M166.08,299.11l-13.28-7.66c-.37-.21-.32-.58.1-.82l4.46-2.58a1.62,1.62,0,0,1,1.42-.06l13.28,7.67c.36.21.31.58-.1.82l-4.47,2.58A1.56,1.56,0,0,1,166.08,299.11Z"/><path class="cls-17" d="M138.23,291.92l-4.51-2.61c-.36-.2-.32-.57.1-.81l5.32-3.07a1.54,1.54,0,0,1,1.41-.06l4.51,2.6c.37.21.32.57-.1.82l-5.32,3.07A1.57,1.57,0,0,1,138.23,291.92Z"/><path class="cls-17" d="M87.66,262.72l-7.21-4.16c-.36-.21-.32-.58.1-.82l5.32-3.07a1.57,1.57,0,0,1,1.41-.06l7.22,4.16c.36.21.31.58-.11.82l-5.32,3.07A1.57,1.57,0,0,1,87.66,262.72Z"/><path class="cls-17" d="M131.52,288l-7.21-4.16c-.37-.21-.32-.57.1-.82l5.32-3.07a1.57,1.57,0,0,1,1.41-.06l7.21,4.17c.37.21.32.57-.1.81L132.93,288A1.56,1.56,0,0,1,131.52,288Z"/><path class="cls-17" d="M97.71,268.52l-7.22-4.16c-.36-.21-.31-.58.11-.82l5.32-3.07a1.57,1.57,0,0,1,1.41-.06l7.21,4.17c.36.2.32.57-.1.81l-5.32,3.07A1.57,1.57,0,0,1,97.71,268.52Z"/><path class="cls-17" d="M97.38,260.44l31.35,18.1c.39.23.39.59,0,.81l-5.42,3.14a1.59,1.59,0,0,1-1.41,0l-31.36-18.1Z"/><path class="cls-17" d="M157.69,299.21l5,2.9c.3.17.26.47-.08.67L160.45,304a1.29,1.29,0,0,1-1.16.05l-5-2.9c-.3-.17-.26-.47.08-.67l2.18-1.26A1.32,1.32,0,0,1,157.69,299.21Z"/><path class="cls-17" d="M150.67,295.15l5,2.9c.3.17.26.47-.08.67L153.43,300a1.29,1.29,0,0,1-1.16,0l-5-2.9c-.3-.17-.26-.47.08-.67l2.18-1.26A1.29,1.29,0,0,1,150.67,295.15Z"/><path class="cls-17" d="M143.7,291.13l5,2.9c.29.17.26.47-.09.67L146.47,296a1.29,1.29,0,0,1-1.16.05l-5-2.9c-.3-.18-.26-.47.08-.67l2.18-1.26A1.27,1.27,0,0,1,143.7,291.13Z"/><path class="cls-17" d="M154.51,292.93l5,2.9c.29.17.26.47-.09.67l-2.17,1.26a1.29,1.29,0,0,1-1.16.05l-5-2.9c-.3-.17-.26-.47.08-.67l2.18-1.26A1.27,1.27,0,0,1,154.51,292.93Z"/><path class="cls-14" d="M95.42,304a4.29,4.29,0,0,1-2.1-.49h0l-34.8-20.09a1.8,1.8,0,0,1-1-1.53,2.25,2.25,0,0,1,1.3-1.84l23-13.3a5.18,5.18,0,0,1,4.74-.18l34.81,20.1a1.77,1.77,0,0,1,1,1.52,2.24,2.24,0,0,1-1.3,1.84l-23,13.31A5.45,5.45,0,0,1,95.42,304Zm-1.55-1.43a4.14,4.14,0,0,0,3.65-.18l23-13.3c.48-.27.76-.61.76-.9s-.28-.48-.45-.58L86.06,267.55a4.11,4.11,0,0,0-3.65.17l-23,13.3c-.47.28-.75.61-.75.9s.28.49.45.59L93.87,302.6Z"/><path class="cls-1" d="M87.38,282.14l3.42-1.91a1.38,1.38,0,0,1,1.23.06h0c.37.21.41.52.09.7l-3.41,1.91a1.4,1.4,0,0,1-1.24-.06h0C87.11,282.63,87.07,282.32,87.38,282.14Z"/><path class="cls-1" d="M80.14,286.2l5-2.82a1.4,1.4,0,0,1,1.24.06h0c.36.21.4.52.09.7l-5,2.82a1.4,1.4,0,0,1-1.24-.06h0C79.86,286.69,79.82,286.38,80.14,286.2Z"/><path class="cls-1" d="M98.67,288.41l6.51-3.65a1.4,1.4,0,0,1,1.24.06h0c.37.21.41.52.09.7L100,289.17a1.43,1.43,0,0,1-1.24-.06h0C98.4,288.9,98.36,288.58,98.67,288.41Z"/><path class="cls-1" d="M97.5,282.77l2.13-1.19a1.4,1.4,0,0,1,1.24.05h0c.36.21.4.53.08.71l-2.13,1.19a1.38,1.38,0,0,1-1.23-.06h0C97.22,283.26,97.18,283,97.5,282.77Z"/><path class="cls-1" d="M92.71,279.16l1.36-.77a1.43,1.43,0,0,1,1.24.06h0c.37.21.41.52.09.7l-1.37.77a1.38,1.38,0,0,1-1.23-.06h0C92.43,279.65,92.39,279.34,92.71,279.16Z"/><path class="cls-1" d="M86.82,276.16l1.7-1a1.38,1.38,0,0,1,1.23.06h0c.37.21.41.52.09.7l-1.7.95a1.38,1.38,0,0,1-1.23-.06h0C86.54,276.65,86.5,276.34,86.82,276.16Z"/><path class="cls-1" d="M80.21,279.86l4.48-2.51a1.41,1.41,0,0,1,1.23.06h0c.37.21.41.53.09.7l-4.47,2.51a1.4,1.4,0,0,1-1.24-.06h0C79.93,280.35,79.89,280,80.21,279.86Z"/><path class="cls-1" d="M82.52,275.42l3.22-1.8a1.4,1.4,0,0,1,1.24.06h0c.36.21.4.52.09.7l-3.23,1.8a1.38,1.38,0,0,1-1.23-.06h0C82.24,275.91,82.2,275.6,82.52,275.42Z"/><path class="cls-1" d="M89.57,287.21,95.26,284a1.4,1.4,0,0,1,1.24.06h0c.36.21.4.52.09.7L90.9,288a1.4,1.4,0,0,1-1.24-.06h0C89.29,287.7,89.25,287.39,89.57,287.21Z"/><path class="cls-1" d="M92.49,288.73l9.92-5.56a1.38,1.38,0,0,1,1.23.06h0c.37.21.41.52.09.7l-9.92,5.56a1.41,1.41,0,0,1-1.23-.06h0C92.21,289.22,92.17,288.9,92.49,288.73Z"/><path class="cls-1" d="M91.16,283.17,96.85,280a1.43,1.43,0,0,1,1.24.06h0c.36.21.4.53.09.7l-5.7,3.19a1.38,1.38,0,0,1-1.23-.06h0C90.88,283.66,90.84,283.35,91.16,283.17Z"/><path class="cls-1" d="M85.25,289.63l2.07-1.16a1.4,1.4,0,0,1,1.24.06h0c.36.21.4.52.09.7l-2.07,1.16a1.4,1.4,0,0,1-1.24-.06h0C85,290.12,84.94,289.81,85.25,289.63Z"/><path class="cls-1" d="M84.45,280.63l6.85-3.83a1.38,1.38,0,0,1,1.23.06h0c.37.21.41.52.09.7l-6.84,3.83a1.43,1.43,0,0,1-1.24-.05h0C84.18,281.13,84.14,280.81,84.45,280.63Z"/><path class="cls-14" d="M186,240.6a4.39,4.39,0,0,1-2.21-.59l-30.7-17.77a3.07,3.07,0,0,1-1.54-2.65,3,3,0,0,1,1.49-2.68l8.49-5.15a.59.59,0,0,1,.8.2.58.58,0,0,1-.19.8l-8.5,5.15a1.93,1.93,0,0,0,0,3.32L184.41,239a3.24,3.24,0,0,0,3.32,0l10.57-6.46a.58.58,0,0,1,.8.19.59.59,0,0,1-.19.81L188.34,240A4.45,4.45,0,0,1,186,240.6Z"/><polygon class="cls-2" points="107.2 205.7 94.97 198.63 82.73 205.7 94.97 212.76 107.2 205.7"/><polygon class="cls-3" points="98.52 196.32 98.52 152.31 108.92 146.31 108.92 190.32 98.52 196.32"/><polygon class="cls-4" points="98.52 152.31 88.13 146.31 88.13 190.32 98.52 196.32 98.52 152.31"/><polygon class="cls-5" points="108.92 146.31 98.52 140.31 88.13 146.31 98.52 152.31 108.92 146.31"/><polygon class="cls-6" points="108.92 198.32 98.52 192.32 98.52 196.32 108.92 202.32 108.92 198.32"/><polygon class="cls-7" points="88.13 202.32 88.13 170.31 98.52 164.31 98.52 196.32 88.13 202.32"/><polygon class="cls-8" points="88.13 170.31 77.73 164.31 77.73 196.32 88.13 202.32 88.13 170.31"/><polygon class="cls-9" points="98.52 164.31 88.13 158.31 77.73 164.31 88.13 170.31 98.52 164.31"/><polygon class="cls-10" points="88.13 202.32 88.13 170.31 98.52 164.31 98.52 196.32 88.13 202.32"/><polygon class="cls-10" points="88.13 170.31 77.73 164.31 77.73 196.32 88.13 202.32 88.13 170.31"/><polygon class="cls-11" points="98.52 164.31 88.13 158.31 77.73 164.31 88.13 170.31 98.52 164.31"/><polygon class="cls-12" points="98.52 208.33 98.52 190.32 108.92 184.32 108.92 202.32 98.52 208.33"/><polygon class="cls-12" points="98.52 190.32 88.13 184.32 88.13 202.32 98.52 208.33 98.52 190.32"/><polygon class="cls-13" points="108.92 184.32 98.52 178.32 88.13 184.32 98.52 190.32 108.92 184.32"/><path class="cls-2" d="M38.38,243.35,20.82,233.21c-1.08-.63-.94-1.71.3-2.43l17-9.79a4.67,4.67,0,0,1,4.2-.18L59.85,231c1.07.63.94,1.71-.31,2.43l-16.95,9.79A4.69,4.69,0,0,1,38.38,243.35Z"/><path class="cls-15" d="M65.67,223.23h0v-7.59h-17l-5.88-3.39a5.86,5.86,0,0,0-5.27.22L32,215.62H15v7.81a1.56,1.56,0,0,0,.91,1.41l22,12.7a5.89,5.89,0,0,0,5.27-.22l21.23-12.26A2.08,2.08,0,0,0,65.67,223.23Z"/><path class="cls-15" d="M40.33,211.71a6.14,6.14,0,0,0-2.82.75L32,215.62H15v7.81a1.56,1.56,0,0,0,.91,1.41l22,12.7a4.83,4.83,0,0,0,2.44.52Z"/><path class="cls-14" d="M16.92,215.61H15v7.81a1.56,1.56,0,0,0,.91,1.41l1,.59Z"/><path class="cls-14" d="M38.23,237.69a6,6,0,0,0,4.21-.05v-8.86H38.23Z"/><path class="cls-2" d="M37.89,229.75l-22-12.7c-1.35-.78-1.18-2.14.38-3l21.23-12.26a5.89,5.89,0,0,1,5.27-.22l22,12.7c1.35.78,1.18,2.14-.38,3L43.16,229.53A5.86,5.86,0,0,1,37.89,229.75Z"/><path class="cls-14" d="M38.29,227.46,19.86,216.82c-1.13-.65-1-1.79.31-2.54L38,204a4.92,4.92,0,0,1,4.41-.18l18.43,10.64c1.13.65,1,1.79-.32,2.55L42.7,227.28A4.86,4.86,0,0,1,38.29,227.46Z"/><path class="cls-2" d="M57.58,225.23a2,2,0,0,1-.88,1.54c-.5.28-.89,0-.89-.51a1.93,1.93,0,0,1,.89-1.54C57.19,224.44,57.58,224.67,57.58,225.23Z"/><path class="cls-2" d="M60.44,223.58a2,2,0,0,1-.89,1.54c-.49.28-.89,0-.89-.51a2,2,0,0,1,.89-1.54C60,222.79,60.44,223,60.44,223.58Z"/><path class="cls-2" d="M63.3,221.93a2,2,0,0,1-.89,1.54c-.49.28-.89.05-.89-.51a2,2,0,0,1,.89-1.54C62.9,221.14,63.3,221.37,63.3,221.93Z"/><path class="cls-15" d="M65.67,211.1h0v-7.58h-17l-5.88-3.4a5.86,5.86,0,0,0-5.27.22L32,203.5H15v7.8a1.54,1.54,0,0,0,.91,1.41l22,12.7a5.86,5.86,0,0,0,5.27-.22l21.23-12.26A2.08,2.08,0,0,0,65.67,211.1Z"/><path class="cls-15" d="M40.33,199.59a6,6,0,0,0-2.82.74L32,203.5H15v7.8a1.54,1.54,0,0,0,.91,1.41l22,12.7a4.83,4.83,0,0,0,2.44.52Z"/><path class="cls-14" d="M16.92,203.49H15v7.8a1.54,1.54,0,0,0,.91,1.41l1,.59Z"/><path class="cls-14" d="M38.23,225.57a6,6,0,0,0,4.21,0v-8.86H38.23Z"/><path class="cls-2" d="M37.89,217.62l-22-12.69c-1.35-.78-1.18-2.14.38-3l21.23-12.26a5.86,5.86,0,0,1,5.27-.22l22,12.7c1.35.77,1.18,2.14-.38,3L43.16,217.41A5.86,5.86,0,0,1,37.89,217.62Z"/><path class="cls-14" d="M38.29,215.34,19.86,204.7c-1.13-.65-1-1.8.31-2.55L38,191.88a4.89,4.89,0,0,1,4.41-.19l18.43,10.64c1.13.66,1,1.8-.32,2.55L42.7,215.16A4.92,4.92,0,0,1,38.29,215.34Z"/><path class="cls-2" d="M57.58,213.11a2,2,0,0,1-.88,1.53c-.5.29-.89.06-.89-.51a2,2,0,0,1,.89-1.54C57.19,212.31,57.58,212.54,57.58,213.11Z"/><path class="cls-2" d="M60.44,211.46a2,2,0,0,1-.89,1.53c-.49.29-.89.06-.89-.51a2,2,0,0,1,.89-1.54C60,210.66,60.44,210.89,60.44,211.46Z"/><path class="cls-2" d="M63.3,209.81a2,2,0,0,1-.89,1.53c-.49.29-.89.06-.89-.51a2,2,0,0,1,.89-1.54C62.9,209,63.3,209.24,63.3,209.81Z"/><path class="cls-15" d="M65.67,199h0v-7.59h-17L42.78,188a5.89,5.89,0,0,0-5.27.22L32,191.37H15v7.81a1.56,1.56,0,0,0,.91,1.41l22,12.69a5.86,5.86,0,0,0,5.27-.22l21.23-12.26A2.07,2.07,0,0,0,65.67,199Z"/><path class="cls-15" d="M40.33,187.46a6.26,6.26,0,0,0-2.82.74L32,191.37H15v7.81a1.56,1.56,0,0,0,.91,1.41l22,12.69a4.73,4.73,0,0,0,2.44.53Z"/><path class="cls-14" d="M16.92,191.36H15v7.81a1.56,1.56,0,0,0,.91,1.41l1,.59Z"/><path class="cls-14" d="M38.23,213.44a6,6,0,0,0,4.21-.05v-8.86H38.23Z"/><path class="cls-2" d="M37.89,205.5l-22-12.7c-1.35-.78-1.18-2.14.38-3L37.51,177.5a5.86,5.86,0,0,1,5.27-.22l22,12.7c1.35.78,1.18,2.14-.38,3L43.16,205.28A5.86,5.86,0,0,1,37.89,205.5Z"/><path class="cls-14" d="M38.29,203.21,19.86,192.57c-1.13-.65-1-1.79.31-2.55L38,179.75a4.89,4.89,0,0,1,4.41-.18l18.43,10.64c1.13.65,1,1.79-.32,2.55L42.7,203A4.89,4.89,0,0,1,38.29,203.21Z"/><path class="cls-2" d="M57.58,201a2,2,0,0,1-.88,1.54c-.5.28-.89,0-.89-.51a1.93,1.93,0,0,1,.89-1.54C57.19,200.18,57.58,200.41,57.58,201Z"/><path class="cls-2" d="M60.44,199.33a2,2,0,0,1-.89,1.54c-.49.28-.89,0-.89-.51a2,2,0,0,1,.89-1.54C60,198.53,60.44,198.76,60.44,199.33Z"/><path class="cls-2" d="M63.3,197.68a2,2,0,0,1-.89,1.54c-.49.28-.89.05-.89-.51a2,2,0,0,1,.89-1.54C62.9,196.88,63.3,197.11,63.3,197.68Z"/><path class="cls-15" d="M65.67,186.85h0v-7.59h-17l-5.88-3.39a5.86,5.86,0,0,0-5.27.22L32,179.24H15V187a1.54,1.54,0,0,0,.91,1.41l22,12.7a5.86,5.86,0,0,0,5.27-.22l21.23-12.26A2.08,2.08,0,0,0,65.67,186.85Z"/><path class="cls-15" d="M40.33,175.34a6,6,0,0,0-2.82.74L32,179.24H15V187a1.54,1.54,0,0,0,.91,1.41l22,12.7a4.83,4.83,0,0,0,2.44.52Z"/><path class="cls-14" d="M16.92,179.24H15V187a1.54,1.54,0,0,0,.91,1.41l1,.59Z"/><path class="cls-14" d="M38.23,201.31a6,6,0,0,0,4.21-.05V192.4H38.23Z"/><path class="cls-2" d="M37.89,193.37l-22-12.7c-1.35-.77-1.18-2.14.38-3l21.23-12.26a5.86,5.86,0,0,1,5.27-.21l22,12.69c1.35.78,1.18,2.14-.38,3L43.16,193.15A5.86,5.86,0,0,1,37.89,193.37Z"/><path class="cls-14" d="M38.29,191.09,19.86,180.45c-1.13-.66-1-1.8.31-2.55L38,167.62a4.92,4.92,0,0,1,4.41-.18l18.43,10.64c1.13.65,1,1.8-.32,2.55L42.7,190.9A4.89,4.89,0,0,1,38.29,191.09Z"/><path class="cls-2" d="M57.58,188.85a2,2,0,0,1-.88,1.54c-.5.29-.89.06-.89-.51a1.93,1.93,0,0,1,.89-1.54C57.19,188.06,57.58,188.29,57.58,188.85Z"/><path class="cls-2" d="M60.44,187.2a2,2,0,0,1-.89,1.54c-.49.29-.89.06-.89-.51a2,2,0,0,1,.89-1.54C60,186.41,60.44,186.64,60.44,187.2Z"/><path class="cls-2" d="M63.3,185.55a2,2,0,0,1-.89,1.54c-.49.29-.89.06-.89-.51a2,2,0,0,1,.89-1.54C62.9,184.76,63.3,185,63.3,185.55Z"/><path class="cls-15" d="M65.67,174.73h0v-7.59h-17l-5.88-3.4a5.86,5.86,0,0,0-5.27.22L32,167.12H15v7.8a1.54,1.54,0,0,0,.91,1.41l22,12.7a5.86,5.86,0,0,0,5.27-.22l21.23-12.26C65.29,176,65.72,175.35,65.67,174.73Z"/><path class="cls-15" d="M40.33,163.21a6,6,0,0,0-2.82.74L32,167.12H15v7.8a1.54,1.54,0,0,0,.91,1.41l22,12.7a4.63,4.63,0,0,0,2.44.52Z"/><path class="cls-14" d="M16.92,167.11H15v7.8a1.54,1.54,0,0,0,.91,1.41l1,.59Z"/><path class="cls-14" d="M38.23,189.19a6,6,0,0,0,4.21-.05v-8.86H38.23Z"/><path class="cls-2" d="M37.89,181.25l-22-12.7c-1.35-.78-1.18-2.14.38-3l21.23-12.26a5.86,5.86,0,0,1,5.27-.22l22,12.7c1.35.78,1.18,2.14-.38,3L43.16,181A5.89,5.89,0,0,1,37.89,181.25Z"/><path class="cls-14" d="M38.29,179,19.86,168.32c-1.13-.65-1-1.79.31-2.55L38,155.5a4.86,4.86,0,0,1,4.41-.18L60.81,166c1.13.65,1,1.79-.32,2.54L42.7,178.78A4.92,4.92,0,0,1,38.29,179Z"/><rect class="cls-1" x="47.26" y="179.7" width="10.19" height="0.36" transform="translate(-82.75 50.09) rotate(-29.92)"/><path class="cls-2" d="M57.58,176.73a2,2,0,0,1-.88,1.54c-.5.28-.89,0-.89-.52a1.93,1.93,0,0,1,.89-1.53C57.19,175.93,57.58,176.16,57.58,176.73Z"/><path class="cls-2" d="M60.44,175.08a2,2,0,0,1-.89,1.54c-.49.28-.89,0-.89-.52a2,2,0,0,1,.89-1.53C60,174.28,60.44,174.51,60.44,175.08Z"/><path class="cls-2" d="M63.3,173.43a2,2,0,0,1-.89,1.54c-.49.28-.89.05-.89-.52a2,2,0,0,1,.89-1.53C62.9,172.63,63.3,172.86,63.3,173.43Z"/><path class="cls-15" d="M65.67,162.52h0v-7.59h-17l-5.88-3.4a5.86,5.86,0,0,0-5.27.22L32,154.91H15v7.8a1.54,1.54,0,0,0,.91,1.41l22,12.7a5.86,5.86,0,0,0,5.27-.22l21.23-12.26C65.29,163.81,65.72,163.14,65.67,162.52Z"/><path class="cls-15" d="M40.33,151a6.13,6.13,0,0,0-2.82.74L32,154.91H15v7.8a1.54,1.54,0,0,0,.91,1.41l22,12.7a4.63,4.63,0,0,0,2.44.52Z"/><path class="cls-14" d="M16.92,154.9H15v7.8a1.54,1.54,0,0,0,.91,1.41l1,.6Z"/><path class="cls-14" d="M38.23,177a6,6,0,0,0,4.21,0v-8.86H38.23Z"/><path class="cls-2" d="M37.89,169l-22-12.7c-1.35-.78-1.18-2.14.38-3L37.51,141a5.86,5.86,0,0,1,5.27-.22l22,12.7c1.35.78,1.18,2.14-.38,3L43.16,168.82A5.86,5.86,0,0,1,37.89,169Z"/><path class="cls-1" d="M64.39,155.06,43.16,167.32a5.86,5.86,0,0,1-5.27.22l-22-12.69a2.25,2.25,0,0,1-.68-.6,1.42,1.42,0,0,0,.68,2.09l22,12.7a5.86,5.86,0,0,0,5.27-.22l21.23-12.26c1.21-.7,1.58-1.68,1-2.44A2.88,2.88,0,0,1,64.39,155.06Z"/><path class="cls-2" d="M57.58,164.52a2,2,0,0,1-.88,1.54c-.5.28-.89.05-.89-.52A1.93,1.93,0,0,1,56.7,164C57.19,163.72,57.58,164,57.58,164.52Z"/><path class="cls-2" d="M48.83,169.33a2,2,0,0,1-.89,1.54c-.49.28-.89,0-.89-.51a2,2,0,0,1,.89-1.54C48.43,168.53,48.83,168.76,48.83,169.33Z"/><path class="cls-1" d="M48.83,181.91a2,2,0,0,1-.89,1.54c-.49.28-.89.05-.89-.51a2,2,0,0,1,.89-1.54C48.43,181.12,48.83,181.35,48.83,181.91Z"/><path class="cls-2" d="M60.44,162.87a2,2,0,0,1-.89,1.54c-.49.28-.89.05-.89-.52a2,2,0,0,1,.89-1.53C60,162.07,60.44,162.3,60.44,162.87Z"/><path class="cls-2" d="M63.3,161.22a2,2,0,0,1-.89,1.54c-.49.28-.89.05-.89-.52a2,2,0,0,1,.89-1.53C62.9,160.42,63.3,160.65,63.3,161.22Z"/><path class="cls-14" d="M39.19,161.16,28.9,155.22c-.63-.36-.55-1,.18-1.42L39,148.06a2.77,2.77,0,0,1,2.47-.1l10.29,5.94c.63.37.55,1-.18,1.42l-9.94,5.74A2.72,2.72,0,0,1,39.19,161.16Z"/><path class="cls-2" d="M40.18,156.19l-1.43-.82c-.09-.05-.08-.14,0-.2l1.37-.79a.37.37,0,0,1,.34,0l1.43.82c.08.06.07.14,0,.2l-1.37.8A.41.41,0,0,1,40.18,156.19Z"/><path class="cls-15" d="M28.9,155.22l0,0c.05,0,.09-.07.15-.1L39,149.4a2.74,2.74,0,0,1,2.47-.1l10.26,5.92c.58-.41.61-1,0-1.32L41.48,148a2.77,2.77,0,0,0-2.47.1l-9.93,5.74C28.35,154.22,28.27,154.86,28.9,155.22Z"/><path class="cls-2" d="M37,170.84c0,.59-.42.83-.94.54a2.08,2.08,0,0,1-.94-1.63c0-.59.42-.83.94-.54A2.08,2.08,0,0,1,37,170.84Z"/><path class="cls-14" d="M34.13,169.17c0,.6-.42.84-.93.54a2.06,2.06,0,0,1-.94-1.62c0-.6.42-.84.94-.54A2.08,2.08,0,0,1,34.13,169.17Z"/><path class="cls-2" d="M37,174.34c0,.6-.42.84-.94.54a2.06,2.06,0,0,1-.94-1.62c0-.6.42-.84.94-.54A2.06,2.06,0,0,1,37,174.34Z"/><path class="cls-2" d="M34.13,172.67c0,.6-.42.84-.93.54a2,2,0,0,1-.94-1.62c0-.59.42-.84.94-.54A2.09,2.09,0,0,1,34.13,172.67Z"/><path class="cls-2" d="M37,182.88c0,.6-.42.84-.94.54a2.06,2.06,0,0,1-.94-1.62c0-.6.42-.84.94-.54A2.06,2.06,0,0,1,37,182.88Z"/><path class="cls-2" d="M34.13,181.22c0,.59-.42.83-.93.54a2.08,2.08,0,0,1-.94-1.63c0-.59.42-.83.94-.54A2.1,2.1,0,0,1,34.13,181.22Z"/><path class="cls-14" d="M37,186.39c0,.59-.42.83-.94.54a2.08,2.08,0,0,1-.94-1.63c0-.59.42-.83.94-.54A2.08,2.08,0,0,1,37,186.39Z"/><path class="cls-2" d="M34.13,184.72c0,.6-.42.84-.93.54a2.06,2.06,0,0,1-.94-1.62c0-.6.42-.84.94-.54A2.08,2.08,0,0,1,34.13,184.72Z"/><path class="cls-2" d="M37,194.94c0,.6-.42.84-.94.54a2.06,2.06,0,0,1-.94-1.62c0-.6.42-.84.94-.54A2.06,2.06,0,0,1,37,194.94Z"/><path class="cls-14" d="M34.13,193.28c0,.59-.42.83-.93.54a2.08,2.08,0,0,1-.94-1.62c0-.6.42-.84.94-.55A2.1,2.1,0,0,1,34.13,193.28Z"/><path class="cls-2" d="M37,198.45c0,.59-.42.83-.94.54a2.08,2.08,0,0,1-.94-1.63c0-.59.42-.83.94-.54A2.08,2.08,0,0,1,37,198.45Z"/><path class="cls-14" d="M34.13,196.78c0,.6-.42.84-.93.54a2.06,2.06,0,0,1-.94-1.62c0-.6.42-.84.94-.54A2.08,2.08,0,0,1,34.13,196.78Z"/><path class="cls-14" d="M37,207.12c0,.6-.42.84-.94.54a2.06,2.06,0,0,1-.94-1.62c0-.6.42-.84.94-.54A2.06,2.06,0,0,1,37,207.12Z"/><path class="cls-2" d="M34.13,205.45c0,.6-.42.84-.93.54a2,2,0,0,1-.94-1.62c0-.59.42-.84.94-.54A2.09,2.09,0,0,1,34.13,205.45Z"/><path class="cls-2" d="M37,210.62c0,.6-.42.84-.94.54a2.06,2.06,0,0,1-.94-1.62c0-.59.42-.84.94-.54A2.08,2.08,0,0,1,37,210.62Z"/><path class="cls-14" d="M34.13,209c0,.59-.42.84-.93.54a2.08,2.08,0,0,1-.94-1.62c0-.6.42-.84.94-.54A2.08,2.08,0,0,1,34.13,209Z"/><path class="cls-14" d="M37,219.18c0,.6-.42.84-.94.54a2.06,2.06,0,0,1-.94-1.62c0-.6.42-.84.94-.54A2.06,2.06,0,0,1,37,219.18Z"/><path class="cls-2" d="M34.13,217.51c0,.6-.42.84-.93.54a2,2,0,0,1-.94-1.62c0-.59.42-.84.94-.54A2.09,2.09,0,0,1,34.13,217.51Z"/><path class="cls-14" d="M37,222.68c0,.6-.42.84-.94.54a2.06,2.06,0,0,1-.94-1.62c0-.59.42-.84.94-.54A2.08,2.08,0,0,1,37,222.68Z"/><path class="cls-2" d="M34.13,221c0,.59-.42.84-.93.54a2.08,2.08,0,0,1-.94-1.62c0-.6.42-.84.94-.54A2.06,2.06,0,0,1,34.13,221Z"/><path class="cls-2" d="M37,231.39c0,.6-.42.84-.94.54a2.06,2.06,0,0,1-.94-1.62c0-.6.42-.84.94-.54A2.06,2.06,0,0,1,37,231.39Z"/><path class="cls-14" d="M34.13,229.72c0,.6-.42.84-.93.54a2,2,0,0,1-.94-1.62c0-.59.42-.84.94-.54A2.09,2.09,0,0,1,34.13,229.72Z"/><path class="cls-2" d="M37,234.89c0,.6-.42.84-.94.54a2,2,0,0,1-.94-1.62c0-.59.42-.84.94-.54A2.08,2.08,0,0,1,37,234.89Z"/><path class="cls-2" d="M34.13,233.23c0,.59-.42.84-.93.54a2.08,2.08,0,0,1-.94-1.62c0-.6.42-.84.94-.54A2.08,2.08,0,0,1,34.13,233.23Z"/><path class="cls-2" d="M278.56,285.07c-8.15-4.7-21.36-4.7-29.51,0s-8.15,12.34,0,17,21.36,4.71,29.51,0S286.7,289.78,278.56,285.07Zm-8,12.44a15,15,0,0,1-13.56,0c-3.75-2.16-3.75-5.67,0-7.83a15,15,0,0,1,13.56,0C274.33,291.84,274.33,295.35,270.58,297.51Z"/><path class="cls-13" d="M246,278.61l7.44.12a8,8,0,0,1,2.35-2c4.1-2.36,10.53-2.54,15-.55l4.42-4.16,6.81.11c-.33-.22-.68-.44-1-.65-9.47-5.46-24.81-5.47-34.27,0a17.7,17.7,0,0,0-4.26,3.32Z"/><polygon class="cls-13" points="281.98 261.34 281.98 272.15 275.17 272.04 275.17 261.23 281.98 261.34"/><polygon class="cls-13" points="270.75 265.39 270.75 276.2 275.17 272.04 275.17 261.23 270.75 265.39"/><path class="cls-13" d="M253.41,267.92v10.81l9.79-8,7.55,5.45V265.39L263.8,262s-9.57,2.93-10.06,3.05S253.41,267.92,253.41,267.92Z"/><polygon class="cls-13" points="245.97 267.8 245.97 278.61 253.41 278.73 253.41 267.92 245.97 267.8"/><polygon class="cls-13" points="242.41 264.01 242.41 274.82 245.97 278.61 245.97 267.8 242.41 264.01"/><path class="cls-12" d="M246,267.8l7.44.12a8,8,0,0,1,2.35-2c4.1-2.36,10.53-2.54,15-.55l4.42-4.16,6.81.11c-.33-.22-.68-.44-1-.65-9.47-5.46-24.81-5.46-34.27,0a18.21,18.21,0,0,0-4.26,3.32Z"/><path class="cls-20" d="M273,266.72v9.94l6.45-1.55s-.38-5.81-.52-6S273,266.72,273,266.72Z"/><path class="cls-20" d="M268.12,276.66v10.81l.69.74,4.55-2.62s-.71-8.25-.79-8.42A44.64,44.64,0,0,0,268.12,276.66Z"/><path class="cls-10" d="M276.89,273.87l-3.9,3.66c3.25,2.57,2.86,6.19-1.15,8.5a13.71,13.71,0,0,1-3.72,1.44l4,4.28-3.56,3.36a32.46,32.46,0,0,0,12.36-3.82c8.13-4.7,9.27-11.91,3.42-17.31Z"/><polygon class="cls-10" points="268.58 284.3 268.58 295.11 277.41 291.7 288.03 281.56 287.99 270.09 276.75 279 268.58 284.3"/><path class="cls-11" d="M276.89,263.06l-3.9,3.66c3.25,2.57,2.86,6.19-1.15,8.51a14,14,0,0,1-3.72,1.43l4,4.29-3.56,3.35a32.46,32.46,0,0,0,12.36-3.82c8.13-4.7,9.27-11.9,3.42-17.31Z"/><path class="cls-4" d="M268.55,291.7,265,287.92a17,17,0,0,1-9.24-1.89c-2.6-1.5-3.68-3.56-3.22-5.52l-8.45-.13-3.25-3.46c-2.84,4.88-.9,10.48,5.83,14.37,4.94,2.85,11.49,4.21,18,4.08Z"/><polygon class="cls-4" points="264.64 284.56 264.64 295.37 239.57 281.48 239.57 270.67 243.23 272.15 264.64 284.56"/><polygon class="cls-21" points="268.55 280.89 268.55 291.7 264.64 295.37 264.64 284.56 268.55 280.89"/><path class="cls-5" d="M268.55,280.89,265,277.11a17,17,0,0,1-9.24-1.89c-2.6-1.5-3.68-3.56-3.22-5.51l-8.45-.14-3.25-3.46c-2.84,4.88-.9,10.48,5.83,14.37,4.94,2.85,11.49,4.21,18,4.08Z"/><path class="cls-11" d="M65.63,126.09,46.49,115a1,1,0,0,0-1-.08h0L43.65,116l1.3.47v13.94a3.67,3.67,0,0,0,1.54,2.94l18.29,10.56v1.64l1.88-1.08h0a1.37,1.37,0,0,0,.52-1.23V129A3.67,3.67,0,0,0,65.63,126.09Z"/><path class="cls-10" d="M63.74,145.51l-19.14-11a3.69,3.69,0,0,1-1.54-2.94V117.29c0-1.13.69-1.65,1.54-1.16l19.14,11.05a3.67,3.67,0,0,1,1.54,2.94v14.23C65.28,145.48,64.59,146,63.74,145.51Z"/><path class="cls-1" d="M51,129.56c0,.82-.58,1.16-1.29.74a2.83,2.83,0,0,1-1.29-2.23c0-.83.57-1.16,1.29-.75A2.87,2.87,0,0,1,51,129.56Z"/><path class="cls-1" d="M55,131.82c0,.82-.58,1.15-1.29.74a2.85,2.85,0,0,1-1.29-2.23c0-.83.58-1.16,1.29-.75A2.85,2.85,0,0,1,55,131.82Z"/><path class="cls-1" d="M58.86,134.08c0,.82-.58,1.15-1.29.74a2.85,2.85,0,0,1-1.29-2.24c0-.82.58-1.15,1.29-.74A2.85,2.85,0,0,1,58.86,134.08Z"/><path class="cls-14" d="M54.74,108.19l-19.14-11a1,1,0,0,0-1-.08v0l-1.85,1.08,1.3.47v13.94a3.69,3.69,0,0,0,1.54,2.94L53.89,126v1.64l1.88-1.08h0a1.34,1.34,0,0,0,.52-1.22V111.14A3.71,3.71,0,0,0,54.74,108.19Z"/><path class="cls-2" d="M52.85,127.62,33.71,116.57a3.69,3.69,0,0,1-1.54-2.94V99.4c0-1.14.69-1.66,1.54-1.17l19.14,11a3.69,3.69,0,0,1,1.54,3v14.23C54.39,127.59,53.7,128.11,52.85,127.62Z"/><path class="cls-1" d="M40.15,111.67c0,.82-.58,1.15-1.29.74a2.84,2.84,0,0,1-1.3-2.23c0-.83.58-1.16,1.3-.75A2.85,2.85,0,0,1,40.15,111.67Z"/><path class="cls-1" d="M44.06,113.93c0,.82-.58,1.15-1.29.74a2.83,2.83,0,0,1-1.29-2.24c0-.82.57-1.15,1.29-.74A2.85,2.85,0,0,1,44.06,113.93Z"/><path class="cls-1" d="M48,116.18c0,.83-.58,1.16-1.29.75a2.85,2.85,0,0,1-1.29-2.24c0-.82.58-1.15,1.29-.74A2.85,2.85,0,0,1,48,116.18Z"/><rect class="cls-14" x="222.49" y="259.02" width="4.82" height="10.4" transform="translate(571.8 256.93) rotate(129.2)"/><path class="cls-14" d="M228.62,269.46a3.77,3.77,0,0,0,2.15-2.65c.17-1.07-.51-1.63-1.52-1.24a3.77,3.77,0,0,0-2.16,2.64C226.92,269.29,227.6,269.84,228.62,269.46Z"/><rect class="cls-14" x="214.25" y="253.41" width="7.81" height="10.63" transform="translate(556.54 253.19) rotate(129.2)"/><path class="cls-15" d="M223.72,260.15l2.73,2.23a6.26,6.26,0,0,1-3,3.73l-2.73-2.22A6.21,6.21,0,0,1,223.72,260.15Z"/><path class="cls-14" d="M221.77,265.24a6.14,6.14,0,0,0,3.49-4.29c.28-1.74-.83-2.64-2.47-2a6.11,6.11,0,0,0-3.5,4.28C219,265,220.12,265.86,221.77,265.24Z"/><path class="cls-14" d="M213.53,258.52a6.14,6.14,0,0,0,3.49-4.29c.28-1.73-.83-2.64-2.47-2a6.08,6.08,0,0,0-3.49,4.28C210.77,258.24,211.88,259.14,213.53,258.52Z"/><path class="cls-2" d="M213.75,257.15a3.47,3.47,0,0,0,2-2.42c.16-1-.46-1.5-1.39-1.14a3.42,3.42,0,0,0-2,2.42C212.19,257,212.82,257.5,213.75,257.15Z"/><path class="cls-2" d="M228.64,266.4c.4.32.78.17.86-.33a1.77,1.77,0,0,0-.56-1.49c-.4-.33-.79-.18-.87.32A1.76,1.76,0,0,0,228.64,266.4Z"/><path class="cls-14" d="M153,339.92a7.4,7.4,0,0,1-3.82-1.08l-5.17-3.07a.59.59,0,0,1-.21-.8.59.59,0,0,1,.8-.2l5.18,3.06a6.23,6.23,0,0,0,9.43-5.77l-.11-1.56c-1.82-25.54-5.2-73.08,14.83-78.21,6.9-1.77,11.63-3.46,15.08-4.69,10.28-3.68,11-3.48,25.16,7.23a.57.57,0,0,1,.11.81.58.58,0,0,1-.81.12c-14.08-10.64-14.27-10.57-24.07-7.06a157.52,157.52,0,0,1-15.18,4.72c-19.09,4.89-15.75,51.79-14,77l.11,1.56a7.27,7.27,0,0,1-3.51,6.83A7.4,7.4,0,0,1,153,339.92Z"/></svg>