<?xml version="1.0" encoding="utf-8"?>
<svg width="308px" height="308px" viewBox="0 0 308 308" version="1.1" xmlns:xlink="http://www.w3.org/1999/xlink" xmlns="http://www.w3.org/2000/svg">
  <desc>Created with Lunacy</desc>
  <defs>
    <linearGradient x1="1.3438334" y1="-0.09434223" x2="1.3438334" y2="2.8764472" id="gradient_1">
      <stop offset="0" stop-color="#2D4787" />
      <stop offset="1" stop-color="#2D4787" />
    </linearGradient>
    <linearGradient x1="0.5" y1="0" x2="0.5" y2="1" id="gradient_2">
      <stop offset="0" stop-color="#8D1B3D" />
      <stop offset="0.45698926" stop-color="#6F1287" />
      <stop offset="1" stop-color="#0511F2" />
    </linearGradient>
    <linearGradient x1="0.5" y1="0" x2="0.5" y2="1" id="gradient_3">
      <stop offset="0" stop-color="#880808" />
      <stop offset="0.45698926" stop-color="#6F1287" />
      <stop offset="1" stop-color="#0511F2" />
    </linearGradient>
  </defs>
  <g id="c-deliver">
    <g id="Group">
      <path d="M0 308L0 0L308 0L308 308L0 308Z" id="Shape" fill="none" stroke="none" />
      <path d="M0 0L10.7442 0L10.7442 34.0233L0 34.0233L0 0Z" transform="matrix(2.6875 0 0 2.6875 38.5 149.1875)" id="Shape" fill="url(#gradient_1)" stroke="none" />
      <path d="M57.75 28.875C57.75 44.7997 44.7997 57.75 28.875 57.75C12.9503 57.75 0 44.7997 0 28.875C0 12.9503 12.9503 0 28.875 0C44.7997 0 57.75 12.9503 57.75 28.875ZM48.125 28.875C48.125 18.258 39.4921 9.625 28.875 9.625C18.258 9.625 9.625 18.258 9.625 28.875C9.625 39.4921 18.258 48.125 28.875 48.125C39.4921 48.125 48.125 39.4921 48.125 28.875Z" transform="translate(173.25 77)" id="Shape" fill="url(#gradient_2)" fill-rule="evenodd" stroke="none" />
      <path d="M226.149 44.5884C232.151 42.9284 238.17 43.9008 242.681 47.235C247.492 50.8164 250.25 56.2637 250.25 62.1873L250.25 63.6951C250.229 70.24 246.823 76.3081 241.246 79.7344L153.789 133.158C146.785 137.436 138.869 139.563 130.968 139.563C122.264 139.574 113.757 136.976 106.545 132.103L48.125 92.6328L48.125 96.25C48.125 104.215 41.648 110.688 33.6866 110.688L14.4366 110.688C6.47695 110.688 0 104.211 0 96.2518L0 14.4384C0 6.47874 6.47695 0 14.4366 0L33.6866 0C41.648 0 48.125 6.47875 48.125 14.4384L48.125 19.25L67.375 19.25C78.2553 19.25 86.4191 33.6884 89.6244 38.5L134.75 38.5C145.367 38.5 154 47.1151 154 57.707C153.994 60.1847 153.508 62.6379 152.569 64.9307L226.149 44.5884ZM38.5 96.2518C38.4968 98.909 36.3431 101.062 33.6862 101.063L28.875 101.063L28.875 81.8134L19.25 81.8134L19.25 101.063L14.4366 101.063C11.7798 101.06 9.62697 98.9069 9.625 96.25L9.625 14.4384C9.62725 11.7804 11.7813 9.62671 14.4389 9.625L33.6884 9.625C36.3437 9.63092 38.4943 11.7831 38.4982 14.4384L38.5 96.2518ZM236.231 71.5241C238.942 69.8695 240.625 66.87 240.625 63.6951L240.625 62.1873C240.625 59.3383 239.284 56.706 236.938 54.969C234.87 53.4201 231.793 53.01 228.71 53.8678L144.375 77L86.625 77L86.625 67.375L134.75 67.375C140.059 67.375 144.375 63.0343 144.375 57.7034C144.375 52.4227 140.058 48.125 134.75 48.125L83.5163 48.125L82.236 45.2814C79.2563 38.6647 72.4713 28.875 67.375 28.875L48.125 28.875L48.125 81.0201L111.938 124.129C122.935 131.575 137.391 131.887 148.773 124.942L236.231 71.5241Z" transform="translate(28.875 139.56165)" id="Shape" fill="url(#gradient_3)" fill-rule="evenodd" stroke="none" />
      <path d="M19.25 86.625L20.9046 86.625L19.7353 87.7943C16.1111 91.3941 14.0796 96.2955 14.0946 101.404C14.0946 106.543 16.0984 111.376 19.7353 115.013C23.3361 118.636 28.2368 120.667 33.3446 120.654C38.491 120.654 43.3223 118.652 46.9539 115.013L48.125 113.845L48.125 115.5C48.125 126.117 56.7579 134.75 67.375 134.75C77.992 134.75 86.625 126.117 86.625 115.5L86.625 113.845L87.7943 115.015C91.3941 118.639 96.2955 120.67 101.404 120.655C106.543 120.655 111.376 118.652 115.013 115.015C118.636 111.414 120.667 106.513 120.654 101.405C120.654 96.2589 118.652 91.4276 115.013 87.7961L113.844 86.625L115.5 86.625C126.117 86.625 134.75 77.992 134.75 67.375C134.75 56.7579 126.117 48.125 115.5 48.125L113.844 48.125L115.015 46.9557C118.639 43.3558 120.67 38.4545 120.655 33.3464C120.655 28.2071 118.652 23.374 115.015 19.7371C107.732 12.4543 95.0556 12.465 87.7962 19.7371L86.625 20.9046L86.625 19.25C86.625 8.63295 77.9921 0 67.375 0C56.758 0 48.125 8.63295 48.125 19.25L48.125 20.9046L46.9557 19.7353C39.6926 12.465 27.0073 12.4543 19.7371 19.7353C16.1145 23.3361 14.0833 28.2368 14.0964 33.3446C14.0964 38.491 16.0984 43.3223 19.7371 46.9539L20.9046 48.125L19.25 48.125C8.63295 48.125 0 56.7579 0 67.375C0 77.992 8.63295 86.625 19.25 86.625ZM30.1066 57.75L19.3748 57.75C14.0612 57.755 9.75485 62.0615 9.75 67.375C9.75493 72.6887 14.0613 76.9951 19.375 77L30.1066 77L31.2419 80.2143C35.0953 91.1685 57.875 104.768 57.875 104.768L57.875 115.5C57.8799 120.814 62.1864 125.12 67.5001 125.125C72.8138 125.12 77.1201 120.814 77.125 115.5L77.125 104.768L80.3393 103.633C91.2935 99.7797 99.9083 91.165 103.762 80.2107L104.893 77L115.625 77C120.939 76.995 125.245 72.6885 125.25 67.375C125.245 62.0613 120.939 57.7549 115.625 57.75L104.893 57.75L103.758 54.5357C99.9047 43.5815 91.2899 34.9667 80.3357 31.1134L77.125 29.9817L77.125 19.25C77.12 13.9362 72.8136 9.62985 67.4998 9.625C62.1862 9.63002 57.8798 13.9365 57.875 19.25L57.875 29.9817L54.6607 31.117C43.7064 34.9703 35.0917 43.585 31.2384 54.5393L30.1066 57.75ZM26.0417 26.5417C29.6786 22.903 36.0123 22.903 39.651 26.5417L40.378 27.267C34.9647 30.8324 30.3342 35.463 26.7687 40.8763L26.0417 40.151C24.2303 38.3507 23.2147 35.9003 23.2213 33.3464C23.2213 30.7767 24.2223 28.3593 26.0417 26.5417ZM107.708 26.5417C104.071 22.903 97.7376 22.903 94.0989 26.5417L93.3737 27.2688C98.787 30.8342 103.418 35.4648 106.983 40.8781L107.708 40.1509C109.52 38.3505 110.535 35.9001 110.529 33.3464C110.535 30.7925 109.52 28.3421 107.708 26.5417ZM26.0417 108.208C29.6786 111.847 36.0123 111.847 39.651 108.208L40.3762 107.481C34.9629 103.916 30.3324 99.2853 26.7669 93.8719L26.0417 94.599C24.2223 96.4183 23.2213 98.834 23.2213 101.404C23.2147 103.958 24.2303 106.408 26.0417 108.208ZM107.708 108.208C104.071 111.847 97.7377 111.847 94.099 108.208L93.3719 107.483C98.7853 103.918 103.416 99.287 106.981 93.8737L107.708 94.599C109.52 96.3993 110.535 98.8497 110.529 101.404C110.535 103.957 109.52 106.408 107.708 108.208L107.708 108.208Z" transform="translate(135.25 38.5)" id="Shape" fill="url(#gradient_3)" fill-rule="evenodd" stroke="none" />
      <path d="M68.7682 28.875L69.7799 28.875L69.7799 28.8732C73.7749 28.8732 76.9982 32.0983 76.9982 36.0915L76.9982 40.9067C76.9982 44.9017 73.7732 48.125 69.7799 48.125L68.7682 48.125C66.1698 48.125 64.8716 51.2534 66.6999 53.0817L67.4216 53.8033C70.2616 56.6434 70.2616 61.215 67.4216 64.0067L64.0049 67.4234C61.215 70.2634 56.6416 70.2634 53.8015 67.4234L53.0799 66.7017C51.2516 64.8734 48.1232 66.1734 48.1232 68.77L48.1232 69.7817C48.1232 73.7768 44.8982 77 40.9049 77L36.0915 77C32.0965 77 28.8732 73.775 28.8732 69.7817L28.8732 68.77C28.8732 66.1717 25.7449 64.8734 23.9165 66.7017L23.1949 67.4234C20.3549 70.2634 15.785 70.2634 12.9915 67.4234L9.57486 64.0067C6.7366 61.215 6.7366 56.6434 9.57486 53.8033L10.2965 53.0817C12.1266 51.2534 10.8248 48.125 8.22825 48.125L7.21651 48.125C3.22325 48.125 0 44.8999 0 40.9067L0 36.0933C0 32.0983 3.22326 28.875 7.21651 28.875L8.22825 28.875C10.8266 28.875 12.1266 25.7467 10.2965 23.9184L9.57486 23.1967C6.7366 20.3567 6.7366 15.785 9.57486 12.9933L12.9915 9.57665C15.7832 6.7384 20.3549 6.7384 23.1949 9.57665L23.9148 10.2983C25.7449 12.1284 28.875 10.8266 28.875 8.23005L28.875 7.2183C28.875 3.22325 32.0982 0 36.0915 0L40.9049 0C44.9 0 48.1232 3.22505 48.1232 7.2183L48.1232 8.23005C48.1232 10.8284 51.2516 12.1284 53.0799 10.2983L53.8015 9.57665C56.6416 6.7384 61.2132 6.7384 64.0049 9.57665L67.4215 12.9933C70.2616 15.785 70.2616 20.3567 67.4215 23.1967L66.6999 23.9184C64.8716 25.7467 66.1716 28.875 68.7682 28.875ZM28.2841 48.7146C30.9925 51.4234 34.6676 52.9431 38.4982 52.9384L38.4984 52.9384C42.3293 52.9436 46.0048 51.424 48.7136 48.7151C51.4224 46.0062 52.9419 42.3307 52.9366 38.5C52.9418 34.669 51.4223 30.9935 48.7134 28.2846C46.0045 25.5758 42.3289 24.0563 38.498 24.0616C34.6674 24.0569 30.9924 25.5766 28.2839 28.2855C25.5755 30.9943 24.0563 34.6696 24.0616 38.5C24.0563 42.3306 25.5756 46.0058 28.2841 48.7146Z" transform="translate(52.838104 28.875)" id="Shape" fill="url(#gradient_3)" fill-rule="evenodd" stroke="none" />
    </g>
  </g>
</svg>