<svg xmlns="http://www.w3.org/2000/svg" viewBox="0 0 3276.12 1679.42"><defs><style>.cls-1{fill:#fbecdb;}.cls-2{fill:#a8d29f;}.cls-3{fill:#4a75cb;}.cls-4{fill:#699dee;}.cls-5{fill:#7f334c;}.cls-6{fill:#a8445e;}.cls-7{fill:#82b378;}.cls-8{fill:#d86713;}.cls-9{fill:#ed975d;}.cls-10{fill:#2b478b;}.cls-11{fill:#233862;}.cls-12{fill:#1e3d70;}.cls-13{fill:#ffb27d;}.cls-14{fill:#2c3a64;}.cls-15{fill:#4a82d3;}.cls-16{fill:#a9453d;}.cls-17{fill:#2a4e96;}.cls-18{fill:#35488b;}.cls-19{fill:#2e3552;}.cls-20{fill:#4271bc;}</style></defs><title>Careers</title><g id="_Layer_" data-name="&lt;Layer&gt;"><path class="cls-1" d="M163.65,1678.92S-188.29,929.47,505.33,929.47c366.48,0,215.51-205.63,464.67-443.6S2090.53,57.78,2276,517.31s-272.89,808.42,170,748.57c532.22-71.92,742.47,413,742.47,413Z"/><path class="cls-2" d="M3013.94,1583.82c-32.84-24-99.94-7.79-149.48,9.54a226.38,226.38,0,0,0-27.22-31.59c106.7-68.73,254.06-215.31,176-227.72-67.9-10.79-159.53,121.15-208.5,201.47-50.85-34.21-128.78-59.36-247.75-50.64-308.76,22.64-550-176.52-727.76-110.1-141.37,52.82-270.92,82.4-395.87,72.3,5.38-91.28,6.55-270.49-65.12-289.08-72.77-18.87-1.4,184.65,38.27,286.27q-14-1.79-27.85-4.26c-25.69-50.65-68-116.93-114.5-119.2-43.77-2.13,10.25,57.46,63.42,107.94-152.8-32.08-334,92.13-337.06,239H2898.05s-3.38-21.44-18.35-49.7C2953.43,1616.59,3049.62,1609.89,3013.94,1583.82Z"/><rect class="cls-3" x="903.83" y="1554.23" width="502.76" height="113.53"/><rect class="cls-4" x="748.8" y="1554.23" width="502.76" height="113.53"/><rect class="cls-5" x="1604.37" y="1144.47" width="374.36" height="523.26" transform="translate(3583.11 2812.2) rotate(180)"/><rect class="cls-6" x="1488.94" y="1144.47" width="374.36" height="523.26" transform="translate(3352.25 2812.2) rotate(180)"/><polygon class="cls-5" points="1863.31 1144.47 1978.73 1223.04 1978.73 1144.47 1863.31 1144.47"/><path class="cls-7" d="M707.68,1260.38s-70,52.06-83.67,48.9,51.17-56.2,51.17-56.2c-24.39-11.73-100.21-4.37-100.21-4.37s-25.25,81.44-37.71,75,26-71,26-71c-27.16-1.64-60.48,18.53-60.48,18.53-45.61,36,3,92.73,3,92.73s-9.37,28-38.17,53.57c0,0-41.14,30.42-44,84.78l7.47.67s11.84-50.63,33.35-74.58c.83-.86,2-2.11,3.55-3.62,3.5-3.25,6-5.68,7.61-7.49,10.7-10.29,25.5-23.39,32.63-24.66a13.75,13.75,0,0,1-.31-3.59c.1,1.15.2,2.33.31,3.59,2.44,28.66,58,53.69,92.25,58.84s23.64-8.92,11.85-29.77-49.09-30.18-57.6-39.78,9.08-9.62,29.7-.21,23.43,34.52,56.5,50.35,82.81-39,82.81-39c-26.35-1.34-64-30-62.62-38.71s63.88,15.1,74.56,16.25,35-12.15,38.77-55.2S707.68,1260.38,707.68,1260.38Z"/><path class="cls-2" d="M335.86,1292.7s77.32-43.3,41.24-102.07c0,0-28.87-36.09-59.8-45.37,0,0,16.49,87.64,0,89.7S306,1136,306,1136s-81.45-39.18-113.42-36.09c0,0,50.52,85.58,34,83.51s-73.2-88.66-73.2-88.66-83.52-15.47-96.92,34S64.7,1203,77.07,1206.1s91.76,2.06,89.7,12.37-55.68,26.81-85.58,17.53c0,0,33,81.45,76.3,77.32s56.71-30.93,83.51-33,46.4,5.15,33,12.37-58.76,2.37-80.41,20.77-39.18,29.75,1,38,112.38,3.09,126.81-27.84Z"/><path class="cls-7" d="M356.48,1368c-21.66-40.21-20.62-75.27-20.62-75.27C311.11,1214.34,94.6,1144.23,94.6,1144.23c275.28,111.36,226.82,179.4,226.82,179.4,7.42,4.33,18.54,25,26.26,40.8,1.1,2.69,2.84,6.42,5.43,11.48h0c1.05,2.29,1.89,4.16,2.47,5.47,14.17,35.46,6.66,96.71,6.66,96.71l8.59,2.3C389.87,1418.67,356.48,1368,356.48,1368Z"/><path class="cls-2" d="M458.88,1233S357,1175.9,404.51,1098.43c0,0,38.06-47.57,78.83-59.8,0,0-21.75,115.52,0,118.24s15-130.47,15-130.47,107.37-51.65,149.5-47.57c0,0-66.6,112.81-44.85,110.09S699.43,972,699.43,972s110.09-20.39,127.76,44.85-10.88,97.85-27.18,101.93-121,2.72-118.24,16.31,73.39,35.33,112.8,23.1c0,0-43.49,107.37-100.57,101.93s-74.75-40.77-110.09-43.49-61.16,6.8-43.49,16.31,77.47,3.12,106,27.38,51.65,39.22-1.36,50.09-148.14,4.08-167.17-36.7Z"/><path class="cls-7" d="M776.9,1037.27s-285.4,92.42-318,195.71c0,0,1.36,46.21-27.19,99.21,0,0-44,66.84-18.92,148.2l11.33-3s-9.9-80.73,8.78-127.47c.77-1.73,1.87-4.2,3.25-7.21h0c3.41-6.68,5.71-11.59,7.16-15.14,10.17-20.87,24.84-48.07,34.61-53.78C477.9,1273.75,414,1184.05,776.9,1037.27Z"/><path class="cls-6" d="M455.44,1656.83c110.28,0,199.67-89.4,199.67-199.67H255.78C255.78,1567.43,345.17,1656.83,455.44,1656.83Z"/><path class="cls-5" d="M504.57,1655.3a200.89,200.89,0,0,1-24.8,1.53c-110.27,0-199.66-89.4-199.66-199.67h49.6C329.71,1559,406,1643.08,504.57,1655.3Z"/><path class="cls-6" d="M633.23,1643.1H277.65A24.63,24.63,0,0,0,253,1667.73H657.87A24.64,24.64,0,0,0,633.23,1643.1Z"/><path class="cls-8" d="M656.59,1457.16H252.27a3.06,3.06,0,0,0,0,6.12H656.59a3.06,3.06,0,0,0,0-6.12Z"/><path class="cls-9" d="M2197.33,405.73c-5.79-.87-23.23,15.25-23.23,15.25h0c-37.24,4.3-91.68,14.19-111.28,18-13.9,2.68-51.26-10.06-87.76-24.69-43.41-17.4-85.59-37.47-85.59-37.47-24.09-1.23-51.44,42.71-2.59,70.65,7.45,4.27,35.47,11.55,67.74,18.2h0c44.51,9.17,97.09,17.13,115,14.34,20.79-3.26,79.64-24.78,114.65-41.27h0l.09,0,.38-.19c2.11-1,10.67-4.79,16.39-4.46,6.56.39,21.17-11.61,21.61-14.81S2203.12,406.61,2197.33,405.73Z"/><path class="cls-10" d="M2151.86,959.34l-20.5,4.17s-93.83-105.43-108.31-149.79c-7.75-23.71-57.28-34-109-47.33-45.06-11.65-91.81-25.69-114.13-53.08-48-58.84,30.13-131.14,30.13-131.14s83.07,49.37,154.73,100.37c50.09,35.65,94.61,72.09,101.32,93C2102.34,826.5,2136.88,923.3,2151.86,959.34Z"/><path class="cls-11" d="M2124.42,994.12H2136c3.86-.61,6.72-1.73,10.68-2.24,6-.79,8.79,1.67,9.34,2.24l.11.12h49c1.23-1.76,0-5.84-1.11-8.84a6.94,6.94,0,0,0-4.59-4.19c-5.19-1.51-15.44-2.85-24.82-11.34-5.27-4.77-25.48-17.53-25.48-17.53l-.11,0c-.44,0-2.55.66-11.74,8.42-4.75,4-12.85-5.66-12.85-5.66a11.63,11.63,0,0,0-2.66,3.6,12.25,12.25,0,0,0-1.05,7.53c.73,4.41-1.63,12.61-3.51,18.16-1.14,3.37-2.1,5.75-2.1,5.75S2114.5,992.88,2124.42,994.12Z"/><path class="cls-12" d="M1984.73,682.54,1914,766.39c-45.06-11.65-91.81-25.69-114.13-53.08-48-58.84,30.13-131.14,30.13-131.14S1913.07,631.54,1984.73,682.54Z"/><path class="cls-10" d="M1920.46,638.75s-5.71,18-15,45c-11.74,34.2-29.22,82.91-48.19,128.08-4.16,9.92-8.41,19.68-12.67,29.08-15.77,34.75-31.92,64.55-46.14,79.69-25.54,27.22-87.63,202.22-87.63,202.22l-15.47-4.28s-21.57-149.43,54.84-234.46a5.42,5.42,0,0,0,1.55-3.18,0,0,0,0,0,0,0c1-12.59,4.65-68.95,12.57-126.07,1.94-14,4.14-28.06,6.62-41.52.15-.86.32-1.72.47-2.57,11.63-62.24,22.76-89.93,37.12-103.85L1914.2,637Z"/><path class="cls-11" d="M1693.64,1144.35h11.54c3.86-.61,6.71-1.72,10.67-2.24,6-.79,8.79,1.68,9.34,2.24l.11.12h49c1.24-1.76,0-5.84-1.11-8.84a7,7,0,0,0-4.59-4.19c-5.19-1.51-15.43-2.85-24.81-11.34-5.28-4.76-25.49-17.53-25.49-17.53l-.1,0c-.45,0-2.56.66-11.75,8.42-4.75,4-12.85-5.65-12.85-5.65a11.37,11.37,0,0,0-2.65,3.6,12.16,12.16,0,0,0-1,7.52c.73,4.41-1.63,12.62-3.51,18.17-1.15,3.36-2.11,5.74-2.11,5.74S1683.72,1143.11,1693.64,1144.35Z"/><path class="cls-13" d="M1716.3,435.52s-17.67,43.25-38,85.34c-17.15,35.39-36.2,70-48.27,77.34-17,10.4-64,39.75-94.38,61.64,0,0-23.75-.18-27.44,4.36s-12.2,25-9.72,27,21.37,1.11,26-3.59c4-4.1,12.91-7,15.12-7.73l.41-.13.1,0h0c37-11.37,95-35.08,112.54-46.67,15.12-10,48.64-51.26,75.37-88h0c19.38-26.64,35.2-50.88,37.84-59.06C1783.1,432.48,1733.29,418.4,1716.3,435.52Z"/><path class="cls-14" d="M1808.75,266a90.8,90.8,0,0,0-6.33-8.19,19.78,19.78,0,0,0,7.8-1.17c6.2-2.56,9-22.26,8.1-28.1s-9.55-22.74-20.18-24.43-21.61,10.12-21.61,10.12c2-8.52,20-13.43,20-13.43-37,6.83-35.15,31.53-34.9,33.81-33.91-12.07-53.81,51.78-53.81,51.78l87.83,51.75s.23-14.1,8.61-13.19C1817.28,326.32,1828.15,294.23,1808.75,266Z"/><path class="cls-13" d="M1814.35,399.92c-20.16,9.5-46.9-4.18-46.76-4.32,1.73-1.73,1.12-6.91-.46-13.67-1.58-7.05-5.33-16.7-12.23-28.21-1.44-2.45-2.88-4.9-4.61-7.49l2.3-.86,39.16-15.69s6.33,11.37,13,21.73c5.61,8.64,11.51,16.41,14.11,16.12C1819,367.39,1844.86,385.24,1814.35,399.92Z"/><path class="cls-9" d="M1791.75,333.56c-1,14-5.76,39.15-24.62,48.37-1.58-7.05-5.33-16.7-12.23-28.21Z"/><path class="cls-13" d="M1752.6,369.61s51-20.1,38-51.65-15.18-55.39-48.28-43.89-34.41,26.12-32.63,37.7S1739,374,1752.6,369.61Z"/><path class="cls-14" d="M1771.62,310.77c23.53-3.32,30.4-12.84,30.4-12.84s-21.67-6.22-34.41-27.44c0,0-26.45-8.93-46.06,6a13.2,13.2,0,0,0-2.48,5.53c-4.49-1.48-11.25-1.09-15.15,11.61-5.85,19.07,15,39.9,15,39.9,5.06-1.43-.64-18.43-1.44-27.5-.58-6.68,3-15.22,5-19.28,2.5,3.24,27.33,34.44,57.64,35.69A127.93,127.93,0,0,1,1749.47,306C1756.72,309.56,1764.43,311.78,1771.62,310.77Z"/><path class="cls-4" d="M1911.39,464.93c-.43-1.53-.89-3.1-1.38-4.73a119.48,119.48,0,0,0,12.87-38.54c3.45-23.32-2.45-37.72-2.45-37.72s-35.36-18.75-51-21.13l-.19-.06a5.63,5.63,0,0,0-.63-.06c-15.76-2.17-49.88,4.79-49.88,4.79s6.58,17.52-12,29.2-38.4-3-38.4-3c-.6.4-1.24.85-1.89,1.31h0s-48.86,32.23-53.24,39.6-23.18,43.84-23.18,43.84,6,30.62,72,33.18c5.42,13.16,9.58,26,10.93,36.7,5.24,41.56-.85,74.35,5.26,98.61s116.23,10.43,136.17,5.76,15.46-26,17-46.65C1933.31,580.05,1917.89,487.86,1911.39,464.93Z"/><path class="cls-15" d="M1922.88,421.66a119.83,119.83,0,0,1-13,38.72c-1.72-7.63-8.78-35.56-20.15-48.23C1889.77,412.15,1908.91,413.88,1922.88,421.66Z"/><path class="cls-9" d="M1474.51,694.06s20.52-24.86,24.93-27.8,23.8-8.09,24.9-7,1.16,2.54-1.24,4.66-11.56,7.47-10.26,8.07,29-13.16,33-8.53-2.26,23.74-12.91,32.9-42.46,13.07-44.46,14.34C1471.46,721.5,1474.51,694.06,1474.51,694.06Z"/><path class="cls-13" d="M1113.32,636.66s29.47,35,67,20.34c0,0,8.08-19.53,8.19-33.93,0-1.77,0-3.49.06-5.12.2-16.21.75-25.31.75-25.31h0c-1.71-.72-57.38-23.57-57.33-21.67C1132.91,614.81,1113.32,636.66,1113.32,636.66Z"/><path class="cls-9" d="M1137.54,581.42c5.37,10,23.79,29.42,51,36.53.2-16.21.75-25.31.75-25.31h0C1187.74,592.22,1135.94,578.49,1137.54,581.42Z"/><path class="cls-13" d="M1201,591s-62.61,14.72-71.17-24.41S1107.39,503,1147,491.92s50.67,2.17,56.71,14.54S1217,586.12,1201,591Z"/><path class="cls-16" d="M1132,577.21c-.86.55-14.33,4.69-39.84-46.14-4-8-6.73-25.23,2.6-40.48s42.44-27.24,69.94-32.46,34.1,10.26,40.58,25.81c6.8,16.33,26.43,29.77,26.43,29.77-23.71,13.25-52.28-5.7-62.17-2.59s-13.39,18.72-14.13,23.72-1.89,9.15-14.33,4.68-5.63,17.64-3.64,21.86C1137.39,561.38,1139.09,572.64,1132,577.21Z"/><path class="cls-14" d="M970.68,1554.23H932.77c-7.95,0-16.78-8.06-19-22.83s-18.54-22.82-22.08-34.9,14.58-29.1,14.58-29.1l3-4,3.15-4.11,30,7.16s.74,7.25,1.21,16.48c.32,6.66.49,14.37.12,21.12-.88,16.12,4.45,33.46,18.58,36.6S970.68,1554.23,970.68,1554.23Z"/><path class="cls-14" d="M1234.58,1554.6H1134.09a9,9,0,0,1-2.13-.64c-6.71-3.46-4.61-29.91-3.8-38.08.15-1.51.26-2.4.26-2.4s35.33-29.09,40.2-6.81c.15.69.33,1.37.52,2h0c6.13,20.84,33.55,30.31,49.39,33C1230.63,1543.71,1233.77,1551,1234.58,1554.6Z"/><path class="cls-6" d="M1214.32,973.52s-5.36,67-11.67,147.43c-8.57,109.32-18.88,243.61-19.9,269-1.76,44.17-8.84,114.83-8.84,114.83s-16.77,16.79-50.35,9.71c0,0-29.92-100.87-38.46-207.59-.14-1.75-.27-3.51-.4-5.28-8-108.64-20.31-337.43-20.31-337.43Z"/><path class="cls-5" d="M1214.32,973.52s-5.36,67-11.67,147.43L1085.1,1307c-.14-1.75-.27-3.51-.4-5.28-8-108.64-20.31-337.43-20.31-337.43Z"/><path class="cls-6" d="M1189.82,981.47s-96.73,242.47-160.32,356.42S946,1483.63,946,1483.63s-36.43-14.57-39.75-24.51c0,0,24.32-220,66.91-273.61,24.07-30.3,52.34-121.23,53.67-153s8.61-94.74,8.61-94.74Z"/><path class="cls-9" d="M968.36,941.09S965.86,971.37,964,976,950,995.08,948.54,994.88s-2.26-1.35-1.54-4.28,4.93-12,3.59-11.77-15.33,25.77-20.9,24.33-11-19.59-7.71-32.41,25.83-33,26.69-35C956,918.21,968.36,941.09,968.36,941.09Z"/><path class="cls-12" d="M958,948.77c10.71,3.44,12.42,2.66,12.42,2.66s52.11-94.87,57.39-103.55,110.63-106.39,110.63-106.39l-27.07-101S991.52,795.7,978.58,818c-21.38,36.79-33.91,122.25-33.91,122.25A31.27,31.27,0,0,0,958,948.77Z"/><path class="cls-17" d="M1234.74,781.13c-.37,20.74-1.58,44-3.2,67.72l-.3,4.21c-1,14.66-2.17,29.36-3.46,43.7-.52,5.74-1.07,11.42-1.65,17l-.09.76c0,2.09-.3,4.35-.53,6.42-5.28,53.69-10.82,96.11-11.84,96.76a6.06,6.06,0,0,1-4.13,1c-14.08-1.77-56.09,1.42-90.48-6.06-29-6.12-54-17.73-80.49-33.38-3.52-2.07-11.53-7.58-10.88-11.69.65-4.52,1.83-11,3.33-19.26,5.22-28.56,14.23-77.69,17.3-135.18q.89-16.06,2.59-31.68a482.5,482.5,0,0,1,14-75.68c11.79-42.46,29.12-75,50.86-87.69,2.84-1.59,18.13,8.13,32.16,17.14,13,8.31,26.62,10.61,39.89,9.45l11.68,12.92c14.15,16.44,29.21,38.34,33.32,69.46.31,2.3.58,4.74.8,7.34C1234.79,747.11,1235.06,763.16,1234.74,781.13Z"/><path class="cls-12" d="M1234.74,781.13c-.37,20.74-1.58,44-3.2,67.72l-.3,4.21c-80.43-50.34-92.82-142.46-92.82-142.46,39.57,1.73,71,10.83,95.23,23.84C1234.79,747.11,1235.06,763.16,1234.74,781.13Z"/><path class="cls-17" d="M1486.71,696.55c-4.14-11.22-10.59-10.49-10.59-10.49s-119.58,29.8-130.31,31.08S1217,671.05,1217,671.05s-46.46-20.85-68.22-1.81c-18.91,16.55-19.77,37.5-15.35,55.1A52.63,52.63,0,0,0,1178,763.55c48.15,6.13,144.23,17.67,164.37,14.87,44.82-6.24,146.38-64.86,146.38-64.86A37.67,37.67,0,0,0,1486.71,696.55Z"/><g id="man"><path class="cls-14" d="M2665.84,915.73s16.61,15.4,13.37,26.34S2661,960.3,2659,973.67s-10.13,20.67-17.43,20.67h-34.77s-5.37-9.41,7.6-12.25,17.86-18.55,17-33.14,1.22-34,1.22-34l27.55-6.49Z"/><path class="cls-14" d="M2458.78,992.52c-1.69.84-7.61,1.42-15.74,1.82h-78.63c.26-2.34,2.09-10.68,15-12.75,14.53-2.37,39.69-10.81,45.3-29.39.19-.59.35-1.21.49-1.82,4.45-19.85,36.87,6.07,36.87,6.07s.09.8.23,2.15C2463,965.9,2464.93,989.45,2458.78,992.52Z"/><path class="cls-18" d="M2383.21,461.46s4.93,61.42,10.71,135.26c7.87,100.3,17.33,223.5,18.26,246.84,1.62,40.53,8.11,105.36,8.11,105.36s15.39,15.4,46.19,8.91c0,0,27.45-92.55,35.29-190.46l.36-4.84c7.3-99.68,18.64-309.58,18.64-309.58Z"/><path class="cls-14" d="M2383.21,461.46s4.93,61.42,10.71,135.26l107.85,170.65.36-4.84c7.3-99.68,18.64-309.58,18.64-309.58Z"/><path class="cls-18" d="M2405.7,468.75s88.73,222.46,147.08,327,76.59,133.72,76.59,133.72,33.43-13.37,36.47-22.49c0,0-22.32-201.83-61.39-251-22.08-27.8-48-111.23-49.23-140.41s-7.91-86.91-7.91-86.91Z"/><path class="cls-13" d="M2132,348.1s-24.07-5.5-28.12-5.23-18.23,6.21-18.41,7.36.48,2.08,2.92,2.25,10.51-.87,10,.1-23.72,5.54-24,10.22,12.46,13.35,23.21,13.93,31.88-11.9,33.69-12.06C2146.66,363.33,2132,348.1,2132,348.1Z"/><path class="cls-5" d="M2121.68,354.21c-3.45-11-2.64-12.74-2.64-12.74s97.57-52.76,106.5-58.11S2335.31,170.7,2335.31,170.7l103.28,28.43S2278.76,320.88,2255.86,334c-37.85,21.67-125.51,33.93-125.51,33.93A32.12,32.12,0,0,1,2121.68,354.21Z"/><path class="cls-13" d="M2366.6,118.54s-36.2,63.71-71.59,72c0,0,1.47-21.39,10.09-36-3.53-4.16-6.63-8-9.31-11.4a214.59,214.59,0,0,1-13.15-18.41l12-32.29,8.15-21.9a105.48,105.48,0,0,0,12.74,18.34C2338.73,115.53,2366.6,118.54,2366.6,118.54Z"/><path class="cls-9" d="M2315.54,88.86s4.32,31.93-19.75,54.26a214.59,214.59,0,0,1-13.15-18.41l12-32.29C2307.53,88.5,2315.54,88.86,2315.54,88.86Z"/><path class="cls-13" d="M2273.1,129.42s54.1-21.09,40.45-54.58-15.87-58.76-51-46.71S2226,55.68,2227.83,68,2258.68,134,2273.1,129.42Z"/><path class="cls-6" d="M2552.56,445.45c-21.83,31.38-185,73.3-183,51.58a236.52,236.52,0,0,0,0-42.83q-.61-7-1.74-14.8c-4.14-28.54-14-65.23-35.95-107.71-1.65-3.18-3.36-6.38-5.14-9.63A331.27,331.27,0,0,1,2304,271.23c-11.31-32.67-15.86-63.93-10.16-84.36a1.61,1.61,0,0,1,.09-.29c34.1-15.77,47.32-76.93,47.32-76.93s116.36,20.89,181.54,176C2522.83,285.64,2571.55,418.14,2552.56,445.45Z"/><path class="cls-5" d="M2369.49,454.2q-.61-7-1.74-14.8c-4.14-28.54-14-65.23-35.95-107.71,3.77-22.85,9-41.86,14.69-50.42,23.21-34.78,36.72-40.21,36.72-40.21S2418,387.83,2369.49,454.2Z"/><path class="cls-13" d="M2186.06,419.27s-32.19,1.69-37.18,3.49-20.66,14.31-20.49,15.82,1.36,2.44,4.49,1.77,12.88-4.85,12.59-3.44-27.81,15.44-26.47,21.39,20.43,12.32,34.13,9.21,35.77-26.34,38-27.18C2209.93,433.16,2186.06,419.27,2186.06,419.27Z"/><path class="cls-6" d="M2180,431.48c-6.45-10.42-1.8-15.17-1.8-15.17s99.44-77.85,107.23-85.72,43.9-133.11,43.9-133.11,12.43-50.68,41.53-56.27c25.29-4.86,42.77,7.65,54.2,22.32a53.93,53.93,0,0,1,3.66,60.65c-25.39,42.78-76.61,127.7-91.57,142.21-33.28,32.28-144.65,77.41-144.65,77.41A38.64,38.64,0,0,1,2180,431.48Z"/><path class="cls-10" d="M2321.31,12.64c.38-.75,1.48-1.55,4.17-2.37a11.2,11.2,0,0,0-5.45-.2c-1.52-3.71-5.21-10-12.13-10.07a8.51,8.51,0,0,1,5.43,5c-9.49-6-27.08-7.76-71,6.86-57.87,19.28-29,52.87-20.18,55.57s24.92-14.6,39.44-16.95S2284,68.36,2289.51,70s2.39-2.92,8.19-7.53,9.12,6.23,9,13.85,11.18,14.84,11.18,14.84L2324.51,79c6.63-12.16,4.82-56.31-1.51-64.25Z"/></g><rect class="cls-19" y="1667.73" width="3276.12" height="11.69" rx="3.46"/><polygon class="cls-20" points="1406.59 1552.95 1406.59 1618.44 1251.56 1552.95 1406.59 1552.95"/><rect class="cls-3" x="2220.61" y="994.33" width="512.69" height="673.39"/><rect class="cls-4" x="2062.52" y="994.34" width="512.7" height="673.4"/><polygon class="cls-20" points="2733.3 994.34 2733.3 1095.03 2575.22 994.34 2733.3 994.34"/></g></svg>