<?xml version="1.0" encoding="utf-8"?>
<svg width="210px" height="210px" viewBox="0 0 210 210" version="1.1" xmlns:xlink="http://www.w3.org/1999/xlink" xmlns="http://www.w3.org/2000/svg">
  <desc>Created with Lunacy</desc>
  <defs>
    <linearGradient x1="0.5" y1="0" x2="0.5" y2="1" id="gradient_1">
      <stop offset="0" stop-color="#2CD8D5" />
      <stop offset="0.5" stop-color="#6B8DD6" />
      <stop offset="1" stop-color="#8E37D7" />
    </linearGradient>
    <linearGradient x1="0.5" y1="0" x2="0.5" y2="1" id="gradient_2">
      <stop offset="0" stop-color="#8D1B3D" />
      <stop offset="0.45698926" stop-color="#6F1287" />
      <stop offset="1" stop-color="#0511F2" />
    </linearGradient>
    <path d="M0 0L210 0L210 210L0 210L0 0Z" id="path_1" />
    <clipPath id="mask_1">
      <use xlink:href="#path_1" />
    </clipPath>
  </defs>
  <g id="focus">
    <path d="M0 0L210 0L210 210L0 210L0 0Z" id="Background" fill="none" stroke="none" />
    <g clip-path="url(#mask_1)">
      <g id="Group" transform="translate(41.015625 42.65625)">
        <path d="M9.94215 0L0 0C0.0656263 1.08282 0.0984332 2.16562 0.0984332 3.28124C0.0984332 4.39687 0.0656263 5.47967 0 6.56248L9.94215 6.56248C11.7543 6.56248 13.2234 5.09342 13.2234 3.28124C13.2234 1.46906 11.7543 0 9.94215 0L9.94215 0Z" transform="translate(150.83917 78.75003)" id="Shape" fill="#C4A2FC" stroke="none" />
        <path d="M13.2234 0L3.28125 0C1.46906 0 0 1.46906 0 3.28124C0 5.09342 1.46906 6.56248 3.28125 6.56248L13.2234 6.56248C13.1578 5.47967 13.125 4.39687 13.125 3.28124C13.125 2.16562 13.1578 1.08282 13.2234 0L13.2234 0Z" transform="translate(0 78.75003)" id="Shape" fill="#C4A2FC" stroke="none" />
        <path d="M6.5625 13.2234L6.5625 3.28125C6.5625 1.46906 5.09343 0 3.28125 0C1.46907 0 0 1.46906 0 3.28125L0 13.2234C1.08282 13.1578 2.16562 13.125 3.28125 13.125C4.39688 13.125 5.47968 13.1578 6.5625 13.2234L6.5625 13.2234Z" transform="translate(78.75006 0)" id="Shape" fill="#C4A2FC" stroke="none" />
        <path d="M0 0L0 9.94214C0 11.7543 1.46907 13.2234 3.28125 13.2234C5.09343 13.2234 6.5625 11.7543 6.5625 9.94214L6.5625 0C5.47968 0.0656262 4.39688 0.098433 3.28125 0.098433C2.16562 0.098433 1.08282 0.0656262 0 0L0 0Z" transform="translate(78.75006 150.83911)" id="Shape" fill="#C4A2FC" stroke="none" />
        <path d="M121.308 65.5266C119.496 65.5266 118.027 66.9957 118.027 68.8079C118.027 70.6201 119.496 72.0891 121.308 72.0891L137.616 72.0891C135.915 107.55 107.55 135.915 72.0891 137.616L72.0891 121.308C72.0891 119.496 70.6201 118.027 68.8079 118.027C66.9957 118.027 65.5266 119.496 65.5266 121.308L65.5267 137.616C30.0656 135.915 1.70055 107.55 6.25849e-06 72.0891L16.3078 72.0891C18.12 72.0891 19.5891 70.6201 19.5891 68.8079C19.5891 66.9957 18.12 65.5266 16.3078 65.5266L0 65.5266C1.70053 30.0655 30.0655 1.70054 65.5266 1.2517e-05L65.5266 16.3078C65.5266 18.12 66.9957 19.5891 68.8079 19.5891C70.6201 19.5891 72.0891 18.12 72.0891 16.3078L72.0891 0C107.55 1.70051 135.915 30.0655 137.616 65.5266L121.308 65.5266ZM72.0892 72.0891L81.9329 72.0891C83.7451 72.0891 85.2141 70.62 85.2141 68.8079C85.2141 66.9957 83.7451 65.5266 81.9329 65.5266L72.0892 65.5266L72.0892 55.6829C72.0892 53.8707 70.6201 52.4016 68.8079 52.4016C66.9957 52.4016 65.5267 53.8707 65.5267 55.6829L65.5267 65.5266L55.6829 65.5266C53.8708 65.5266 52.4017 66.9957 52.4017 68.8079C52.4017 70.62 53.8708 72.0891 55.6829 72.0891L65.5267 72.0891L65.5267 81.9328C65.5267 83.745 66.9957 85.2141 68.8079 85.2141C70.6201 85.2141 72.0892 83.745 72.0892 81.9328L72.0892 72.0891Z" transform="translate(13.223419 13.223419)" id="Shape" fill="url(#gradient_1)" fill-rule="evenodd" stroke="none" />
      </g>
      <path d="M3.28125 32.8125C5.09344 32.8125 6.56251 31.3434 6.56251 29.5312L6.56251 9.84375C6.56251 8.03156 8.03157 6.5625 9.84376 6.5625L29.5313 6.5625C31.3435 6.5625 32.8125 5.09343 32.8125 3.28125C32.8125 1.46907 31.3435 0 29.5313 0L9.84376 0C4.4072 0 0 4.4072 0 9.84375L0 29.5312C0 31.3434 1.46907 32.8125 3.28125 32.8125L3.28125 32.8125Z" transform="translate(4.9218745 3.28125)" id="Shape" fill="#151A6A" stroke="none" />
      <path d="M22.9688 0L3.28125 0C1.46907 0 0 1.46907 0 3.28125C0 5.09344 1.46907 6.5625 3.28125 6.5625L22.9688 6.5625C24.7809 6.5625 26.25 8.03157 26.25 9.84375L26.25 29.5313C26.25 31.3434 27.7191 32.8125 29.5313 32.8125C31.3434 32.8125 32.8125 31.3434 32.8125 29.5313L32.8125 9.84375C32.8125 4.4072 28.4053 0 22.9688 0L22.9688 0Z" transform="translate(136.17188 3.28125)" id="Shape" fill="#151A6A" stroke="none" />
      <path d="M29.5313 26.25L9.84375 26.25C8.03157 26.25 6.5625 24.7809 6.5625 22.9688L6.5625 3.28125C6.5625 1.46907 5.09344 0 3.28125 0C1.46907 0 0 1.46907 0 3.28125L0 22.9688C0 28.4053 4.4072 32.8125 9.84375 32.8125L29.5313 32.8125C31.3434 32.8125 32.8125 31.3434 32.8125 29.5313C32.8125 27.7191 31.3434 26.25 29.5313 26.25L29.5313 26.25Z" transform="translate(4.921875 134.53125)" id="Shape" fill="#151A6A" stroke="none" />
      <path d="M29.5313 0C27.7191 0 26.25 1.46907 26.25 3.28125L26.25 22.9688C26.25 24.7809 24.7809 26.25 22.9688 26.25L3.28125 26.25C1.46907 26.25 0 27.7191 0 29.5313C0 31.3434 1.46907 32.8125 3.28125 32.8125L22.9688 32.8125C28.4053 32.8125 32.8125 28.4053 32.8125 22.9688L32.8125 3.28125C32.8125 1.46907 31.3434 0 29.5313 0L29.5313 0Z" transform="translate(136.17188 134.53125)" id="Shape" fill="#151A6A" stroke="none" />
      <path d="M137.645 78.7501L160.781 78.7501C162.594 78.7501 164.063 80.2191 164.063 82.0313C164.063 83.8435 162.594 85.3126 160.781 85.3126L137.645 85.3126C135.96 113.488 113.488 135.96 85.3126 137.645L85.3126 160.781C85.3126 162.594 83.8435 164.063 82.0313 164.063C80.2191 164.063 78.7501 162.594 78.7501 160.781L78.75 137.645C50.575 135.96 28.1026 113.488 26.4174 85.3126L3.28125 85.3126C1.46907 85.3126 0 83.8435 0 82.0313C0 80.2191 1.46907 78.7501 3.28125 78.7501L26.4174 78.7501C28.1026 50.5751 50.5751 28.1026 78.7501 26.4174L78.7501 3.28125C78.7501 1.46907 80.2191 0 82.0313 0C83.8435 0 85.3126 1.46907 85.3126 3.28125L85.3126 26.4174C113.488 28.1027 135.96 50.5751 137.645 78.7501ZM78.75 78.7501L78.75 32.9798C54.1958 34.6476 34.6477 54.1958 32.9799 78.7501L78.75 78.7501ZM131.083 78.7501L85.3126 78.7501L85.3126 32.9799C109.867 34.6477 129.415 54.1958 131.083 78.7501ZM32.9799 85.3126L78.7501 85.3126L78.7501 131.083C54.1959 129.415 34.6477 109.867 32.9799 85.3126ZM85.3126 85.3126L85.3126 131.083C109.867 129.415 129.415 109.867 131.083 85.3126L85.3126 85.3126Z" transform="translate(4.9218745 3.28125)" id="Shape" fill="url(#gradient_2)" fill-rule="evenodd" stroke="none" />
    </g>
  </g>
</svg>