<svg xmlns="http://www.w3.org/2000/svg" viewBox="0 0 48 48" width="48" height="48" preserveAspectRatio="xMidYMid meet" style="width: 100%; height: 100%; transform: translate3d(0px, 0px, 0px);"><defs><clipPath id="__lottie_element_2"><rect width="48" height="48" x="0" y="0"></rect></clipPath></defs><g clip-path="url(#__lottie_element_2)"><g transform="matrix(0.9634944796562195,0.2677282989025116,-0.2677282989025116,0.9634944796562195,9.43250846862793,-3.0771446228027344)" opacity="1" style="display: block;"><g opacity="1" transform="matrix(1,0,0,1,16,33.04999923706055)"><path fill="rgb(230,81,0)" fill-opacity="1" d=" M12.432000160217285,3.367000102996826 C12.432000160217285,3.367000102996826 9.857999801635742,1.562000036239624 9.857999801635742,1.562000036239624 C9.942999839782715,1.0360000133514404 10,0.5 10,-0.05000000074505806 C10,-0.5690000057220459 9.947999954223633,-1.0740000009536743 9.871999740600586,-1.5709999799728394 C9.871999740600586,-1.5709999799728394 12.432000160217285,-3.367000102996826 12.432000160217285,-3.367000102996826 C12.690999984741211,-3.5169999599456787 12.802000045776367,-3.927000045776367 12.651000022888184,-4.186999797821045 C12.651000022888184,-4.186999797821045 9.951000213623047,-8.86299991607666 9.951000213623047,-8.86299991607666 C9.802000045776367,-9.123000144958496 9.392000198364258,-9.232999801635742 9.131999969482422,-9.083000183105469 C9.131999969482422,-9.083000183105469 6.339000225067139,-7.7820000648498535 6.339000225067139,-7.7820000648498535 C5.517000198364258,-8.458000183105469 4.580999851226807,-8.994999885559082 3.571000099182129,-9.381999969482422 C3.571000099182129,-9.381999969482422 3.299999952316284,-12.449999809265137 3.299999952316284,-12.449999809265137 C3.299999952316284,-12.75 3,-13.050000190734863 2.700000047683716,-13.050000190734863 C2.700000047683716,-13.050000190734863 -2.700000047683716,-13.050000190734863 -2.700000047683716,-13.050000190734863 C-3,-13.050000190734863 -3.299999952316284,-12.75 -3.299999952316284,-12.449999809265137 C-3.299999952316284,-12.449999809265137 -3.571000099182129,-9.381999969482422 -3.571000099182129,-9.381999969482422 C-4.580999851226807,-8.994999885559082 -5.517000198364258,-8.458000183105469 -6.339000225067139,-7.7820000648498535 C-6.339000225067139,-7.7820000648498535 -9.131999969482422,-9.083000183105469 -9.131999969482422,-9.083000183105469 C-9.392000198364258,-9.232999801635742 -9.802000045776367,-9.123000144958496 -9.95199966430664,-8.86299991607666 C-9.95199966430664,-8.86299991607666 -12.651000022888184,-4.186999797821045 -12.651000022888184,-4.186999797821045 C-12.802000045776367,-3.927000045776367 -12.692000389099121,-3.5169999599456787 -12.432000160217285,-3.367000102996826 C-12.432000160217285,-3.367000102996826 -9.871999740600586,-1.5709999799728394 -9.871999740600586,-1.5709999799728394 C-9.947999954223633,-1.0740000009536743 -10,-0.5690000057220459 -10,-0.05000000074505806 C-10,0.5 -9.944000244140625,1.0360000133514404 -9.857999801635742,1.562000036239624 C-9.857999801635742,1.562000036239624 -12.432000160217285,3.367000102996826 -12.432000160217285,3.367000102996826 C-12.692000389099121,3.5169999599456787 -12.802000045776367,3.927000045776367 -12.651000022888184,4.185999870300293 C-12.651000022888184,4.185999870300293 -9.95199966430664,8.86299991607666 -9.95199966430664,8.86299991607666 C-9.802000045776367,9.123000144958496 -9.392000198364258,9.232999801635742 -9.131999969482422,9.083000183105469 C-9.131999969482422,9.083000183105469 -6.25600004196167,7.744999885559082 -6.25600004196167,7.744999885559082 C-5.456999778747559,8.387999534606934 -4.553999900817871,8.904000282287598 -3.5799999237060547,9.277999877929688 C-3.5799999237060547,9.277999877929688 -3.299999952316284,12.449999809265137 -3.299999952316284,12.449999809265137 C-3.299999952316284,12.75 -3,13.050000190734863 -2.700000047683716,13.050000190734863 C-2.700000047683716,13.050000190734863 2.700000047683716,13.050000190734863 2.700000047683716,13.050000190734863 C3,13.050000190734863 3.299999952316284,12.75 3.299999952316284,12.449999809265137 C3.299999952316284,12.449999809265137 3.5799999237060547,9.277999877929688 3.5799999237060547,9.277999877929688 C4.553999900817871,8.904000282287598 5.456999778747559,8.387999534606934 6.25600004196167,7.744999885559082 C6.25600004196167,7.744999885559082 9.131999969482422,9.083000183105469 9.131999969482422,9.083000183105469 C9.392000198364258,9.232999801635742 9.802000045776367,9.123000144958496 9.951000213623047,8.86299991607666 C9.951000213623047,8.86299991607666 12.651000022888184,4.185999870300293 12.651000022888184,4.185999870300293 C12.802000045776367,3.927000045776367 12.690999984741211,3.5169999599456787 12.432000160217285,3.367000102996826z M0,4.949999809265137 C-2.760999917984009,4.949999809265137 -5,2.7119998931884766 -5,-0.05000000074505806 C-5,-2.812000036239624 -2.760999917984009,-5.050000190734863 0,-5.050000190734863 C2.760999917984009,-5.050000190734863 5,-2.812000036239624 5,-0.05000000074505806 C5,2.7119998931884766 2.760999917984009,4.949999809265137 0,4.949999809265137z"></path></g></g><g transform="matrix(0.9634944796562195,-0.2677282989025116,0.2677282989025116,0.9634944796562195,-2.5435142517089844,9.346111297607422)" opacity="1" style="display: block;"><g opacity="1" transform="matrix(1,0,0,1,33,14)"><path fill="rgb(255,159,0)" fill-opacity="1" d=" M11.409000396728516,3.23799991607666 C11.409000396728516,3.23799991607666 8.869999885559082,1.4670000076293945 8.869999885559082,1.4670000076293945 C8.949000358581543,0.9890000224113464 9,0.5009999871253967 9,0 C9,-0.5009999871253967 8.949000358581543,-0.9890000224113464 8.869999885559082,-1.4670000076293945 C8.869999885559082,-1.4670000076293945 11.409000396728516,-3.23799991607666 11.409000396728516,-3.23799991607666 C11.668999671936035,-3.3889999389648438 11.692000389099121,-3.749000072479248 11.541999816894531,-4.007999897003174 C11.541999816894531,-4.007999897003174 9.241999626159668,-7.992000102996826 9.241999626159668,-7.992000102996826 C9.093000411987305,-8.25100040435791 8.770000457763672,-8.411999702453613 8.510000228881836,-8.26200008392334 C8.510000228881836,-8.26200008392334 5.715000152587891,-6.952000141143799 5.715000152587891,-6.952000141143799 C4.959000110626221,-7.573999881744385 4.0970001220703125,-8.065999984741211 3.1640000343322754,-8.416999816894531 C3.1640000343322754,-8.416999816894531 2.9000000953674316,-11.5 2.9000000953674316,-11.5 C2.9000000953674316,-11.800000190734863 2.5999999046325684,-12 2.299999952316284,-12 C2.299999952316284,-12 -2.299999952316284,-12 -2.299999952316284,-12 C-2.5999999046325684,-12 -2.9000000953674316,-11.800000190734863 -2.9000000953674316,-11.5 C-2.9000000953674316,-11.5 -3.1640000343322754,-8.416999816894531 -3.1640000343322754,-8.416999816894531 C-4.0970001220703125,-8.065999984741211 -4.959000110626221,-7.573999881744385 -5.715000152587891,-6.952000141143799 C-5.715000152587891,-6.952000141143799 -8.508999824523926,-8.26200008392334 -8.508999824523926,-8.26200008392334 C-8.769000053405762,-8.411999702453613 -9.092000007629395,-8.25100040435791 -9.241999626159668,-7.992000102996826 C-9.241999626159668,-7.992000102996826 -11.541999816894531,-4.007999897003174 -11.541999816894531,-4.007999897003174 C-11.692000389099121,-3.749000072479248 -11.668999671936035,-3.3889999389648438 -11.409000396728516,-3.23799991607666 C-11.409000396728516,-3.23799991607666 -8.869999885559082,-1.4670000076293945 -8.869999885559082,-1.4670000076293945 C-8.949000358581543,-0.9890000224113464 -9,-0.5009999871253967 -9,0 C-9,0.5009999871253967 -8.949000358581543,0.9890000224113464 -8.869999885559082,1.4670000076293945 C-8.869999885559082,1.4670000076293945 -11.409000396728516,3.23799991607666 -11.409000396728516,3.23799991607666 C-11.668999671936035,3.3889999389648438 -11.692000389099121,3.749000072479248 -11.541999816894531,4.007999897003174 C-11.541999816894531,4.007999897003174 -9.241999626159668,7.992000102996826 -9.241999626159668,7.992000102996826 C-9.092000007629395,8.25100040435791 -8.769000053405762,8.411999702453613 -8.508999824523926,8.26200008392334 C-8.508999824523926,8.26200008392334 -5.715000152587891,6.952000141143799 -5.715000152587891,6.952000141143799 C-4.959000110626221,7.573999881744385 -4.0970001220703125,8.065999984741211 -3.1640000343322754,8.416999816894531 C-3.1640000343322754,8.416999816894531 -2.9000000953674316,11.5 -2.9000000953674316,11.5 C-2.9000000953674316,11.800000190734863 -2.5999999046325684,12 -2.299999952316284,12 C-2.299999952316284,12 2.299999952316284,12 2.299999952316284,12 C2.5999999046325684,12 2.9000000953674316,11.800000190734863 2.9000000953674316,11.5 C2.9000000953674316,11.5 3.1640000343322754,8.416999816894531 3.1640000343322754,8.416999816894531 C4.0970001220703125,8.065999984741211 4.959000110626221,7.573999881744385 5.715000152587891,6.952000141143799 C5.715000152587891,6.952000141143799 8.510000228881836,8.26200008392334 8.510000228881836,8.26200008392334 C8.770000457763672,8.411999702453613 9.093000411987305,8.25100040435791 9.241999626159668,7.992000102996826 C9.241999626159668,7.992000102996826 11.541999816894531,4.007999897003174 11.541999816894531,4.007999897003174 C11.692000389099121,3.749000072479248 11.668999671936035,3.3889999389648438 11.409000396728516,3.23799991607666z M0,5 C-2.76200008392334,5 -5,2.760999917984009 -5,0 C-5,-2.760999917984009 -2.76200008392334,-5 0,-5 C2.76200008392334,-5 5,-2.760999917984009 5,0 C5,2.760999917984009 2.76200008392334,5 0,5z"></path></g></g></g></svg>