<svg id="OBJECTS" xmlns="http://www.w3.org/2000/svg" viewBox="0 0 750 500"><defs><style>.cls-1{fill:#307f99;}.cls-2{fill:#e2cdbc;}.cls-3{fill:#f9efe8;}.cls-4{fill:#fff;}.cls-5{fill:#f7e6df;}.cls-6{fill:#4b284c;}.cls-7{fill:#ffb9a9;}.cls-8{fill:#f28e81;}.cls-9{fill:#ffe3de;}.cls-10{fill:#edcbc3;}.cls-11{fill:#e07c68;}.cls-12{fill:#d85b6b;}.cls-13{fill:#457399;}.cls-14{fill:#dbb3a7;}.cls-15{fill:#f29a25;}.cls-16{fill:#e8d7cf;}.cls-17{fill:#e0bdaf;}.cls-18{fill:#c43b52;}.cls-19{fill:#eedecf;}.cls-20{fill:#7c5161;}.cls-21{fill:#633545;}.cls-22{fill:#f9ede4;}.cls-23{fill:#19132a;}.cls-24{fill:#e2612d;}.cls-25{fill:#f99819;}.cls-26{fill:#e27d69;}.cls-27{fill:#7e334b;}</style></defs><title>Job description</title><path class="cls-1" d="M748,43.47C678,31.18,605.31,38.68,534.91,46,476.25,52,415.59,58.29,356.43,53.21c-6.27-.54-14.07-3-17.34-7.16a6.89,6.89,0,0,1-1.38-6.11,14.92,14.92,0,0,1,2.59-4.83c1.21-1.74,2.47-3.53,2.75-5.62a6.73,6.73,0,0,0-1.71-5.5c-3.2-3.67-9.94-5.4-15.18-5.8-78-5.91-156,10.2-231.39,25.77C63.84,50.35,32.29,56.85.53,61.9v.51c31.81-5.06,63.39-11.57,94.35-18,75.4-15.57,153.36-31.67,231.23-25.76,5.13.38,11.72,2.07,14.81,5.61a6.25,6.25,0,0,1,1.6,5.13c-.27,2-1.43,3.64-2.67,5.41a15.43,15.43,0,0,0-2.66,5,7.38,7.38,0,0,0,1.46,6.52c3.6,4.62,11.8,6.85,17.73,7.36,59.21,5.08,119.9-1.2,178.59-7.26C605.36,39.17,678,31.67,748,44Z"/><path class="cls-1" d="M350.49,102.31c-13.38-14.67-39.13-15.15-57.93-15.5l-1.34,0c-25.17-.48-49.72,1.37-76.91,3.65-28.47,2.39-57.21,5.9-85.42,10.43A1133.4,1133.4,0,0,0,.53,129.17v.52A1135,1135,0,0,1,129,101.35c28.2-4.53,56.93-8,85.38-10.42,27.17-2.28,51.7-4.13,76.84-3.65l1.35,0c18.7.35,44.31.83,57.53,15.33,2.21,2.42,4.53,6.19,3.09,10.4-.83,2.39-2.54,4.65-5.41,7.12-8.1,7-18.71,10.63-29,14.19l-3.84,1.34c-12.48,4.4-26,8.5-40.13,12.18-52.19,13.56-109.87,20.26-171.47,19.91-.75,0-1.77,0-3,0-9.81.14-32.78.47-37.51-7.09-1.4-2.23-1.06-5,1-8.35C68,145.65,76.16,141,80.63,138.81A398.5,398.5,0,0,1,236.38,99.29c2.15-.1,4.34-.22,6.66-.36,10-.58,21.3-1.24,30.65.92,5,1.16,8.39,3.88,9.51,7.65,1.22,4.15-.48,8.89-4.56,12.67-3.85,3.57-8.94,5.84-13.41,7.59-33.06,12.93-69.38,20.17-114.3,22.78-6.37.37-14.27-.36-15.69-6-1.28-5.08,4.47-9.36,8-11.46a120,120,0,0,1,40.69-14.84l-.09-.49A120.37,120.37,0,0,0,143,132.69c-3.67,2.17-9.61,6.62-8.25,12,1.2,4.71,6.81,6.9,16.24,6.36,45-2.62,81.36-9.87,114.48-22.82,4.52-1.77,9.66-4.06,13.58-7.7,4.22-3.91,6-8.83,4.69-13.15-1.17-4-4.69-6.8-9.89-8-9.43-2.19-20.79-1.52-30.81-.94-2.32.14-4.51.27-6.65.36a399.32,399.32,0,0,0-156,39.58c-4.52,2.21-12.74,6.92-17,13.73-2.18,3.48-2.52,6.46-1,8.86,4.13,6.6,21.38,7.38,32.58,7.38,2,0,3.88,0,5.4-.05l3,0c61.62.36,119.38-6.35,171.61-19.92,14.17-3.68,27.69-7.79,40.18-12.2l3.84-1.33c10.31-3.58,21-7.27,29.15-14.3,2.94-2.52,4.7-4.85,5.55-7.32C355.2,108.76,352.78,104.83,350.49,102.31Z"/><path class="cls-1" d="M486.88,331.13a153.64,153.64,0,0,1,40.71-10.56l-.07-.49a154,154,0,0,0-40.86,10.59c-3.68,1.56-9.66,4.74-8.27,8.64,1.22,3.42,6.67,4.95,16.23,4.55,45-1.86,81.34-7,114.45-16.22,4.52-1.25,9.66-2.88,13.57-5.46s5.69-5.71,5-8.65c-.78-3.22-4.48-5.61-10.17-6.54-9.41-1.55-20.77-1.08-30.79-.66-2.28.09-4.5.18-6.65.25-53.78,1.69-107.7,11.42-155.95,28.13-4.52,1.57-12.75,4.92-17,9.77-1.87,2.13-2.4,4-1.59,5.6,2.81,5.46,21.19,6.08,33.08,6.08,2.05,0,3.9,0,5.45,0l3,0c61.65.26,119.36-4.52,171.59-14.16,14.16-2.62,27.68-5.54,40.18-8.67l3.83-.95c10.31-2.54,21-5.17,29.15-10.16,2.94-1.8,4.71-3.46,5.57-5.24,1.56-3.21-.88-6-3.2-7.85-13.38-10.43-39.12-10.77-57.91-11l-1.34,0c-25.17-.34-49.71,1-76.89,2.6-28.48,1.7-57.21,4.19-85.42,7.41a1525.66,1525.66,0,0,0-166.75,28.36l.13.48a1526.55,1526.55,0,0,1,166.69-28.35c28.19-3.22,56.92-5.71,85.38-7.41,27.17-1.62,51.7-2.93,76.85-2.59l1.34,0c18.72.24,44.34.58,57.57,10.9,2.18,1.7,4.48,4.34,3.07,7.27-.82,1.68-2.53,3.28-5.39,5-8.1,4.95-18.72,7.57-29,10.1l-3.83.95c-12.49,3.13-26,6.05-40.15,8.66C566.29,351.1,508.62,355.87,447,355.61l-3,0c-9.55.1-34.9.35-38-5.77-.73-1.4-.21-3.1,1.51-5.06,4.19-4.76,12.31-8.07,16.79-9.62,48.19-16.7,102.06-26.41,155.78-28.1q3.23-.1,6.65-.26c10-.41,21.32-.88,30.67.66,5.47.9,9,3.14,9.75,6.15.65,2.74-1.09,5.71-4.78,8.14-3.85,2.54-8.94,4.15-13.41,5.4-33.07,9.19-69.39,14.34-114.33,16.2-9.15.38-14.58-1.08-15.69-4.21C477.64,335.63,483.36,332.61,486.88,331.13Z"/><path class="cls-1" d="M747.47,204.7c-48.84,4.68-97.66,14.75-145,24.52C527.05,244.79,449.1,260.89,371.22,255c-5.13-.39-11.72-2.07-14.81-5.62a6.24,6.24,0,0,1-1.6-5.12c.27-2,1.43-3.65,2.67-5.42a15.24,15.24,0,0,0,2.66-5,7.39,7.39,0,0,0,0-3.71q24-9.91,47.14-21.36c15.61-7.73,31.18-16.11,46.23-24.22,24.41-13.14,49.64-26.72,75.68-37.85,26.51-11.34,50.93-18.81,74.62-22.84l.2,0c40.61-6.9,64.59-6.15,67.53,2.11.74,2.06,3,8.33-12.61,16.3-14.27,7.32-30.65,11.11-46.49,14.78l-.54.12c-2.93.68-6.15,1.26-9.56,1.87-13.75,2.45-29.33,5.23-35.73,16.3a7.78,7.78,0,0,0-.67,7.21,8.59,8.59,0,0,0,4.71,4c11.81,4.7,29.15,2.51,43.08.75,3.37-.42,6.55-.82,9.47-1.11a450.13,450.13,0,0,0,54.13-8.58,392.33,392.33,0,0,0,70.17-22.67v-.55a390.27,390.27,0,0,1-70.29,22.73,449.13,449.13,0,0,1-54.07,8.58c-2.92.28-6.11.69-9.48,1.11-13.87,1.75-31.12,3.93-42.8-.71a8.11,8.11,0,0,1-4.43-3.71,7.31,7.31,0,0,1,.64-6.78c6.29-10.85,21.74-13.61,35.37-16,3.42-.61,6.65-1.18,9.59-1.86l.53-.13c15.88-3.68,32.29-7.48,46.63-14.82,4-2,16-8.18,12.86-16.9s-26.64-9.49-68.13-2.44l-.2,0c-23.74,4-48.2,11.52-74.76,22.87-26,11.15-51.3,24.74-75.71,37.88-15.06,8.11-30.62,16.48-46.22,24.21q-23,11.4-47,21.32a8.16,8.16,0,0,0-1.29-2.33c-3.6-4.61-11.8-6.85-17.73-7.36-59.21-5.08-119.9,1.2-178.59,7.26C109,232.74,54.35,238.38.53,235.43v.5c53.85,2.95,108.51-2.69,161.89-8.21,58.66-6.07,119.32-12.34,178.48-7.26,6.28.54,14.08,3,17.35,7.16a7.65,7.65,0,0,1,1.22,2.23,782.63,782.63,0,0,1-81.27,28.4A793.53,793.53,0,0,1,141.69,285c-3.33.35-6.68.68-10,1-21.6,2.14-43.92,4.36-64.26,12-7.24,2.74-16.77,8.88-19.81,17.18a11.1,11.1,0,0,0,1.28,10.92c4.31,5.94,14.44,9,22,9.41,7.88.38,15.68-1,23.22-2.33,4-.7,8.13-1.43,12.22-1.89,12.25-1.37,31.31,1.87,33.61,16.39,1.89,11.94-11.85,16.71-20.21,18.5-19.23,4.1-39.28,4-58.67,4-3.7,0-7.53,0-11.28,0-16.16.07-32.72.13-49.27-.4v.5c10.9.35,21.81.44,32.6.44,5.59,0,11.16,0,16.68-.05,3.74,0,7.57,0,11.26,0,19.42.07,39.51.14,58.8-4,8.54-1.82,22.57-6.72,20.62-19.05-2.36-14.88-21.75-18.21-34.2-16.81C102.18,331.27,98,332,94,332.7,86.52,334,78.75,335.4,70.94,335c-7.47-.36-17.42-3.39-21.63-9.19a10.67,10.67,0,0,1-1.22-10.48c3-8.14,12.38-14.18,19.51-16.88,20.27-7.65,42.56-9.87,64.11-12,3.36-.33,6.71-.66,10-1a793.55,793.55,0,0,0,136.61-26.72,783,783,0,0,0,81.25-28.38,6.94,6.94,0,0,1,0,3.39,15.08,15.08,0,0,1-2.58,4.83c-1.22,1.74-2.48,3.53-2.76,5.62a6.7,6.7,0,0,0,1.72,5.5c3.19,3.67,9.93,5.4,15.18,5.8,11.3.86,22.59,1.25,33.89,1.25,66.61,0,133-13.7,197.49-27,47.33-9.77,96.12-19.83,144.91-24.51Z"/><path class="cls-1" d="M416.61,399.5c-5.34-7.6-14.25-13.7-25.11-17.15-11.35-3.61-23.39-4.17-35.76-4.46-46.23-1.09-88,1.12-127.62,6.77-35.42,5-70.78,13.18-105,21L.53,433.92v.51l122.75-28.24c34.18-7.86,69.52-16,104.92-21,39.61-5.64,81.33-7.86,127.53-6.76,12.32.29,24.32.85,35.59,4.43,10.75,3.42,19.57,9.44,24.85,17,6.06,8.65,7.31,19.3,3.25,27.79-3.07,6.41-10.18,15.63-36.5,21.71C332,461.05,278.82,460.41,227.37,459.8c-15.94-.19-32.42-.39-48.49-2.48-5.73-.75-13.65-2.4-16.35-8.15-2.33-5,.54-10.6,4.19-13.74,3.94-3.38,9.21-5.14,14.71-6.8a573.91,573.91,0,0,1,128.64-22.95c12.9-.81,23.67-1,34.36.76,7.81,1.28,17,5.39,17.09,12.74.14,9.08-13.26,12.68-19,13.8a789,789,0,0,1-129.25,14.19v.49a789.14,789.14,0,0,0,129.35-14.19c5.89-1.15,19.59-4.84,19.44-14.3-.12-7.66-9.52-11.9-17.53-13.22-10.74-1.75-21.55-1.57-34.48-.77a573.84,573.84,0,0,0-128.77,23c-5.56,1.67-10.89,3.45-14.91,6.91-3.78,3.25-6.75,9.11-4.32,14.3,2.8,6,10.91,7.68,16.77,8.44,16.1,2.1,32.6,2.3,48.56,2.49,11.52.13,23.13.27,34.78.27,40.41,0,81.33-1.66,120.9-10.81,12.71-2.93,30.36-8.41,36.85-22C424,419.13,422.78,408.29,416.61,399.5Z"/><path class="cls-1" d="M747.47,395.53c-26.78,17.92-54.55,36.06-87.1,41.45-10.84,1.8-23.57-.28-25.89-9.09-2-7.75,5.91-14.43,8.4-16.3,1.64-1.23,3.42-2.4,5.14-3.52,3.92-2.57,8-5.22,10.79-8.9a14.28,14.28,0,0,0,2.65-11.51,8.78,8.78,0,0,0-4.5-6,16.86,16.86,0,0,0-6.92-1.47c-19-1-39.13,5.38-59.94,18.88-11,7.15-21.24,15.57-31.13,23.71-5.92,4.88-12,9.92-18.26,14.63-36,27.26-77.7,45.78-120.47,61.35h1.46c42.36-15.49,83.63-33.93,119.34-61,6.24-4.72,12.36-9.77,18.29-14.64,9.88-8.14,20.09-16.55,31.08-23.68,20.7-13.44,40.75-19.76,59.6-18.8a16.17,16.17,0,0,1,6.68,1.42,8.29,8.29,0,0,1,4.25,5.61,13.82,13.82,0,0,1-2.56,11.12c-2.77,3.61-6.78,6.24-10.66,8.78-1.73,1.13-3.52,2.3-5.18,3.55-6.8,5.1-10,11.38-8.58,16.8,2.41,9.12,15.43,11.3,26.51,9.46,32.53-5.39,60.27-23.45,87-41.33Z"/><polygon class="cls-2" points="750 0 659.23 0 603.56 308.24 750 334.17 750 0"/><polygon class="cls-3" points="750 0 648.51 0 628.79 322.35 750 329.63 750 0"/><polygon class="cls-4" points="750 0 667.11 0 619.73 300.45 750 320.6 750 0"/><polygon class="cls-5" points="750 0 690.41 0 687.55 18.09 750 27.74 750 0"/><polygon class="cls-5" points="750 38.68 685.87 28.76 672.41 114.07 740.69 124.63 750 65.59 750 38.68"/><path class="cls-6" d="M733.13,99.08c5.33-6,7.78-14.11.52-29.47,1.59-10.1-5.7-19.61-16.29-21.25h0c-10.59-1.63-20.47,5.22-22.06,15.32C684,78.26,683.65,84.42,686.72,91.9Z"/><polygon class="cls-7" points="715.81 120.78 721.39 85.41 702.12 82.44 696.54 117.8 715.81 120.78"/><path class="cls-4" d="M735.47,123.82c-.16-6.41-.58-12.9-.58-12.9-1.61-3.87-8-7.72-15.86-10.64-6.79,3.1-13.78,2.23-19.26-3-8.43.4-15.61,2.15-18.33,5.36,0,0-2.15,6.08-4.06,12.18Z"/><path class="cls-8" d="M719.7,96.09c-13.93,1-18.55-7.5-18.55-7.5l1-6.16,19.27,3Z"/><polygon class="cls-4" points="700.4 92.57 697.05 97.45 704.21 106.5 708.93 101.91 700.4 92.57"/><polygon class="cls-4" points="719.93 95.59 721.62 101.25 712.02 107.71 708.93 101.91 719.93 95.59"/><polygon class="cls-9" points="707.9 119.56 710.24 104.7 708.93 101.91 706.83 104.16 704.48 119.03 707.9 119.56"/><polygon class="cls-10" points="711.93 108.07 708.87 102.32 704.18 106.87 696.85 97.61 697.25 97.3 704.23 106.13 709 101.49 712.11 107.34 721.48 101.05 721.76 101.46 711.93 108.07"/><path class="cls-4" d="M692.56,117.19l1.3-18.68c-7.59.47-12.6,2.3-15.53,8.51l-4.45,7.28Z"/><path class="cls-4" d="M738.76,124.33l-2-8.28c-.87-6.8-5.08-10-12.17-12.78l-4.51,18.17Z"/><path class="cls-7" d="M710.46,92.16h0a14.79,14.79,0,0,1-12.4-16.82l1.52-9.61a14.88,14.88,0,0,1,17-12.27h0A14.79,14.79,0,0,1,729,70.28l-1.51,9.61A14.9,14.9,0,0,1,710.46,92.16Z"/><path class="cls-6" d="M699.29,67.54c1.27-4.33,4.81-8.17,8.63-9.16,5,7.66,12.77,10.71,22.28,11.82,0,0,4.62-19.65-20-18.14C696.19,55,699.29,67.54,699.29,67.54Z"/><path class="cls-7" d="M700.12,71.63s-1.11-5.07-4.44-3.35-1.53,9.74,2.39,11.1S700.12,71.63,700.12,71.63Z"/><path class="cls-7" d="M726.63,75.73s2.62-4.49,5.26-1.85-1.55,9.74-5.7,9.85S726.63,75.73,726.63,75.73Z"/><path class="cls-4" d="M697.23,78.45a1.07,1.07,0,0,1-1.21.9,1,1,0,0,1-.87-1.22,1.05,1.05,0,1,1,2.08.32Z"/><path class="cls-4" d="M729.36,83.42a1.06,1.06,0,0,1-1.2.9,1,1,0,0,1-.87-1.22,1.06,1.06,0,0,1,1.2-.9A1,1,0,0,1,729.36,83.42Z"/><path class="cls-11" d="M696.81,75.72c-1.28-1.28-2-3.74-1.15-5.1a1.37,1.37,0,0,1,1.17-.65,2.27,2.27,0,0,1,1.72,1.32l-.43.25c-.4-.66-.87-1.05-1.31-1.07a1,1,0,0,0-.73.42c-.75,1.15,0,3.36,1.08,4.48Z"/><path class="cls-11" d="M728.53,80.63l-.24-.45c1.42-.73,2.78-2.61,2.41-3.94a.88.88,0,0,0-.56-.62,1.92,1.92,0,0,0-1.58.63l-.33-.37a2.28,2.28,0,0,1,2-.74,1.37,1.37,0,0,1,.92,1C731.62,77.68,730.14,79.79,728.53,80.63Z"/><path class="cls-6" d="M708,73.07a.94.94,0,0,1-1.06.77.93.93,0,1,1,1.06-.77Z"/><path class="cls-6" d="M709.23,70.84a5.23,5.23,0,0,0-4.1-.64l-.09-.49a5.69,5.69,0,0,1,4.48.72Z"/><path class="cls-6" d="M721.85,75.26a.9.9,0,1,1-1.78-.28.9.9,0,1,1,1.78.28Z"/><path class="cls-6" d="M723.33,73.07a5.17,5.17,0,0,0-4.09-.63l-.09-.5a5.67,5.67,0,0,1,4.47.73Z"/><path class="cls-11" d="M713.78,83.05a8.81,8.81,0,0,1-5.14-1.79l.3-.41a7.62,7.62,0,0,0,7.51,1.2l.18.47A8,8,0,0,1,713.78,83.05Z"/><path class="cls-11" d="M712.14,78.64l0-.5c1.42-.14,3-.57,3-1,0-.6-1.58-3.07-2.59-4.49l.41-.29c.46.63,2.72,3.86,2.69,4.8S713,78.56,712.14,78.64Z"/><polygon class="cls-5" points="750 63.97 740.48 124.34 672.7 113.86 686.08 29.05 750 38.93 750 38.42 685.66 28.47 672.16 114.03 672.13 114.28 740.9 124.92 750 67.21 750 63.97"/><path class="cls-12" d="M688.9,142.84a2,2,0,0,1-.35,0l-17.77-2.74a2.24,2.24,0,0,1-1.88-2.55l.35-2.23a2.21,2.21,0,0,1,.9-1.46,2.28,2.28,0,0,1,1.68-.4l17.76,2.75a2.24,2.24,0,0,1,1.88,2.55l-.35,2.22a2.19,2.19,0,0,1-.9,1.46A2.26,2.26,0,0,1,688.9,142.84Zm-17.42-8.94a1.74,1.74,0,0,0-1,.34,1.69,1.69,0,0,0-.7,1.13l-.35,2.22a1.73,1.73,0,0,0,1.46,2l17.76,2.75a1.77,1.77,0,0,0,1.3-.31,1.73,1.73,0,0,0,.7-1.13l.35-2.23a1.7,1.7,0,0,0-.31-1.29,1.78,1.78,0,0,0-1.14-.69l-17.77-2.75Z"/><path class="cls-12" d="M686.17,160.11a2.07,2.07,0,0,1-.35,0h0l-17.77-2.74a2.23,2.23,0,0,1-1.87-2.55l.35-2.23a2.24,2.24,0,0,1,2.57-1.86l17.77,2.75a2.22,2.22,0,0,1,1.47.89,2.19,2.19,0,0,1,.41,1.66l-.35,2.22a2.27,2.27,0,0,1-.9,1.46A2.29,2.29,0,0,1,686.17,160.11Zm-.27-.52a1.75,1.75,0,0,0,2-1.44l.35-2.23a1.71,1.71,0,0,0-.32-1.29,1.73,1.73,0,0,0-1.14-.69L669,151.19a1.74,1.74,0,0,0-2,1.45l-.36,2.22a1.74,1.74,0,0,0,1.46,2l17.77,2.75Z"/><path class="cls-13" d="M750,296l-100.23-15.5a2.86,2.86,0,0,1-1.89-1.14,2.83,2.83,0,0,1-.52-2.12,2.86,2.86,0,0,1,1.15-1.87,2.94,2.94,0,0,1,2.15-.52L750,290.2v-.51l-99.27-15.35a3.39,3.39,0,0,0-2.52.61,3.34,3.34,0,0,0-.74,4.69,3.44,3.44,0,0,0,2.22,1.34L750,296.49Z"/><polygon class="cls-14" points="748.3 152.06 699.9 144.57 699.98 144.08 748.38 151.56 748.3 152.06"/><polygon class="cls-14" points="750 169.5 732.31 166.77 732.23 167.26 750 170.01 750 169.5"/><polygon class="cls-14" points="721.38 165.58 697.18 161.84 697.25 161.35 721.46 165.09 721.38 165.58"/><path class="cls-12" d="M679,205.54l-.35,0-17.77-2.75a2.24,2.24,0,0,1-1.88-2.55l.35-2.23a2.26,2.26,0,0,1,2.58-1.86l17.76,2.75a2.21,2.21,0,0,1,1.47.89,2.15,2.15,0,0,1,.41,1.66l-.35,2.23a2.26,2.26,0,0,1-2.22,1.88Zm-17.42-8.94a1.75,1.75,0,0,0-1.73,1.47l-.35,2.23a1.72,1.72,0,0,0,1.46,2L678.73,205a1.76,1.76,0,0,0,1.3-.31,1.73,1.73,0,0,0,.7-1.13l.35-2.23a1.71,1.71,0,0,0-.31-1.29,1.78,1.78,0,0,0-1.15-.69l-17.76-2.74Z"/><polygon class="cls-14" points="750 216.04 725.14 212.2 725.07 212.69 750 216.55 750 216.04"/><polygon class="cls-14" points="714.21 211.01 690.01 207.27 690.09 206.78 714.29 210.52 714.21 211.01"/><path class="cls-12" d="M676.14,223.71l-.35,0L658,220.93a2.23,2.23,0,0,1-1.87-2.55l.35-2.22a2.27,2.27,0,0,1,2.57-1.87L676.84,217a2.24,2.24,0,0,1,1.88,2.55l-.35,2.23A2.26,2.26,0,0,1,676.14,223.71Zm-.27-.52a1.75,1.75,0,0,0,2-1.45l.35-2.23a1.74,1.74,0,0,0-1.46-2L659,214.79a1.74,1.74,0,0,0-2,1.44l-.36,2.23a1.75,1.75,0,0,0,1.46,2l17.77,2.75Z"/><polygon class="cls-14" points="750 234.65 687.22 224.94 687.15 225.44 750 235.16 750 234.65"/><polygon class="cls-14" points="750 274.83 650.12 259.38 650.04 259.88 750 275.33 750 274.83"/><path class="cls-13" d="M714.93,188.08a3.64,3.64,0,0,1-.57,0l-48.51-7.5a3.67,3.67,0,0,1-3.08-4.18,3.62,3.62,0,0,1,1.48-2.38,3.66,3.66,0,0,1,2.74-.66l48.51,7.5a3.65,3.65,0,0,1,2.4,1.46,3.56,3.56,0,0,1,.67,2.71,3.63,3.63,0,0,1-1.47,2.39A3.69,3.69,0,0,1,714.93,188.08Zm-48.51-14.31a3.22,3.22,0,0,0-1.88.61,3.15,3.15,0,0,0,1.39,5.66l48.51,7.51a3.22,3.22,0,0,0,2.36-.58,3.13,3.13,0,0,0,.7-4.4,3.19,3.19,0,0,0-2.08-1.26l-48.51-7.5A4.22,4.22,0,0,0,666.42,173.77Z"/><polygon class="cls-14" points="750 258.34 652.05 243.19 651.97 243.68 750 258.84 750 258.34"/><path class="cls-6" d="M577.41,242.27l-.51,5.6a1.69,1.69,0,0,1-1.84,1.53h0a1.69,1.69,0,0,1-1.53-1.84L574,242a1.7,1.7,0,0,1,1.84-1.53h0A1.69,1.69,0,0,1,577.41,242.27Z"/><rect class="cls-12" x="585.56" y="16.6" width="20.2" height="14.95" rx="4.98" transform="translate(517.45 615.07) rotate(-84.78)"/><rect class="cls-12" x="481.86" y="122.38" width="208.25" height="14.95" transform="translate(403.32 701.58) rotate(-84.78)"/><rect class="cls-15" x="478.27" y="129.02" width="208.25" height="1" transform="translate(400.54 697.75) rotate(-84.79)"/><rect class="cls-15" x="485.44" y="129.68" width="208.25" height="1" transform="translate(406.35 705.48) rotate(-84.79)"/><rect class="cls-4" x="590.04" y="22.74" width="10.13" height="14.96" transform="translate(510.82 620.1) rotate(-84.78)"/><rect class="cls-16" x="594.35" y="25.56" width="1" height="14.96" transform="translate(507.76 622.41) rotate(-84.77)"/><rect class="cls-16" x="594.86" y="19.92" width="1" height="14.96" transform="translate(513.87 617.8) rotate(-84.78)"/><polygon class="cls-17" points="573.7 244.03 577.37 244.37 583.95 234.23 569.07 232.87 573.7 244.03"/><path class="cls-1" d="M126.78,231.51l-.55-.51,21.71-23.5a6.51,6.51,0,0,0-.36-9.19,6.51,6.51,0,0,0-9.19.36l-14.71,15.92-.55-.5,14.71-15.93A7.26,7.26,0,0,1,148.5,208Z"/><path class="cls-1" d="M114,239.19a6.15,6.15,0,0,1-4.52-10.34l16.19-17.53.55.51L110,229.36A5.41,5.41,0,1,0,118,236.7l16.19-17.53.55.51-16.19,17.53A6.17,6.17,0,0,1,114,239.19Z"/><path class="cls-1" d="M125.23,230l-.55-.51,13.15-14.23a4.29,4.29,0,0,0-.24-6l-.12-.1a4.21,4.21,0,0,0-3.06-1.13,4.26,4.26,0,0,0-3,1.36l-13.2,14.3-.55-.51,13.2-14.29a5,5,0,0,1,7.09-.28l.12.1a5,5,0,0,1,.28,7.09Z"/><path class="cls-1" d="M87,283.92a7.34,7.34,0,0,1-6.07-3.24L63.2,254l.62-.41,17.71,26.65a6.51,6.51,0,0,0,10.84-7.2L80.37,255l.62-.41,12,18.06a7.25,7.25,0,0,1-2,10A7.17,7.17,0,0,1,87,283.92Z"/><path class="cls-1" d="M72.82,264.55,59.61,244.67a6.18,6.18,0,0,1,1.72-8.54,6.17,6.17,0,0,1,8.54,1.72l13.21,19.88-.63.42L69.24,238.27a5.41,5.41,0,0,0-9,6l13.21,19.88Z"/><path class="cls-1" d="M80,271.27A5,5,0,0,1,75.79,269L65.07,252.89l.62-.41,10.73,16.13a4.26,4.26,0,0,0,5.91,1.19l.13-.08A4.26,4.26,0,0,0,84.28,267a4.2,4.2,0,0,0-.62-3.2L72.89,247.59l.62-.41,10.77,16.21a5,5,0,0,1-1.4,6.95l-.13.09A5,5,0,0,1,80,271.27Z"/><path class="cls-18" d="M657.68,411.26a7.42,7.42,0,0,1-1.86-.24A7.24,7.24,0,0,1,654,397.75l27.61-16.17.38.64-27.61,16.17a6.51,6.51,0,0,0,6.57,11.23l18.71-11,.38.65-18.71,11A7.24,7.24,0,0,1,657.68,411.26Z"/><path class="cls-18" d="M676.78,401.21l-.38-.64L697,388.51a5.41,5.41,0,0,0-5.47-9.34l-20.6,12.06-.38-.65,20.6-12.06a6.15,6.15,0,0,1,9.06,6.87,6.07,6.07,0,0,1-2.84,3.76Z"/><path class="cls-18" d="M668.55,402.78a4.64,4.64,0,0,1-1.28-.17,5,5,0,0,1-3.07-2.31l-.08-.14a5,5,0,0,1,1.8-6.86l16.71-9.79.38.65L666.29,394a4.26,4.26,0,0,0-1.52,5.83l.08.14a4.28,4.28,0,0,0,5.84,1.53l16.79-9.83.38.64-16.79,9.84A5,5,0,0,1,668.55,402.78Z"/><path class="cls-4" d="M74.23,124.68l-15.47,10.5A6.3,6.3,0,0,1,50,133.51h0a6.29,6.29,0,0,1,1.68-8.74l15.47-10.49A6.3,6.3,0,0,1,75.91,116h0A6.28,6.28,0,0,1,74.23,124.68Z"/><circle class="cls-4" cx="114.79" cy="89.58" r="57.16" transform="translate(-15.27 155.05) rotate(-64.69)"/><path class="cls-14" d="M114.77,147a57.48,57.48,0,0,1-56-44.67l.49-.11a57,57,0,0,0,58.05,44.23l0,.5C116.5,147,115.63,147,114.77,147Z"/><circle class="cls-19" cx="114.79" cy="89.58" r="51.67"/><path class="cls-14" d="M114.8,141.46a51.83,51.83,0,0,1-33.53-12.22l.32-.38a51.42,51.42,0,0,0,75.75-68.14,50.93,50.93,0,0,0-14.85-14.47l.27-.43a51.9,51.9,0,0,1-28,95.64Z"/><circle class="cls-20" cx="114.79" cy="89.58" r="43.02" transform="translate(-3.29 4.38) rotate(-2.15)"/><path class="cls-21" d="M124.85,126.31c7.14-1.64,14-5.48,18.2-11.47s5.51-14.25,2.3-20.84c-2.8-5.76-8.63-9.87-10.43-16-1-3.27-.86-7.21-3.47-9.41-3.15-2.65-7.93-.9-12-1.47-5-.7-8.76-4.92-13.42-6.9a18.2,18.2,0,0,0-15.9,1.28c-7.24,4.16-11.85,12.79-13.2,20.84A39.54,39.54,0,0,0,88.5,117.1C97.87,126,112.23,129.22,124.85,126.31Z"/><path class="cls-21" d="M115.88,58a3.27,3.27,0,1,1,2-4.17A3.28,3.28,0,0,1,115.88,58Z"/><path class="cls-21" d="M107.3,55.94a1.78,1.78,0,1,1,1.11-2.27A1.78,1.78,0,0,1,107.3,55.94Z"/><path class="cls-21" d="M113,61.9a1.78,1.78,0,1,1,1.1-2.26A1.78,1.78,0,0,1,113,61.9Z"/><path class="cls-21" d="M119.58,51.4a1.78,1.78,0,1,1,1.1-2.26A1.79,1.79,0,0,1,119.58,51.4Z"/><path class="cls-21" d="M127.94,54.85a1.78,1.78,0,1,1,1.1-2.27A1.78,1.78,0,0,1,127.94,54.85Z"/><path class="cls-21" d="M140.92,65.18a1.78,1.78,0,1,1,1.1-2.27A1.79,1.79,0,0,1,140.92,65.18Z"/><path class="cls-21" d="M147.18,83.28a1.78,1.78,0,1,1,1.1-2.26A1.78,1.78,0,0,1,147.18,83.28Z"/><path class="cls-21" d="M152.74,85.48a1.78,1.78,0,1,1,1.1-2.27A1.79,1.79,0,0,1,152.74,85.48Z"/><path class="cls-21" d="M150.56,90.08a1.27,1.27,0,1,1,.78-1.61A1.27,1.27,0,0,1,150.56,90.08Z"/><path class="cls-21" d="M144.68,72a1.77,1.77,0,0,1-2.26-1.1,1.78,1.78,0,1,1,2.26,1.1Z"/><path class="cls-21" d="M135.85,70.9A1.78,1.78,0,1,1,137,68.64,1.77,1.77,0,0,1,135.85,70.9Z"/><path class="cls-21" d="M134.23,65a2.51,2.51,0,1,1,1.55-3.2A2.52,2.52,0,0,1,134.23,65Z"/><path class="cls-21" d="M140,76.2a1.56,1.56,0,1,1,1-2A1.56,1.56,0,0,1,140,76.2Z"/><path class="cls-21" d="M117.69,61.66a1,1,0,1,1,.65-1.33A1,1,0,0,1,117.69,61.66Z"/><path class="cls-21" d="M144.81,88.21a1,1,0,1,1,.65-1.32A1,1,0,0,1,144.81,88.21Z"/><path class="cls-21" d="M122.62,52.92a.67.67,0,0,1-.85-.41.67.67,0,0,1,1.26-.44A.68.68,0,0,1,122.62,52.92Z"/><path class="cls-21" d="M122.82,57.37a.66.66,0,1,1-.43-1.25.66.66,0,0,1,.43,1.25Z"/><path class="cls-21" d="M121.81,60.55a.66.66,0,1,1-.44-1.25.65.65,0,0,1,.84.41A.66.66,0,0,1,121.81,60.55Z"/><path class="cls-21" d="M125.47,63.19a.66.66,0,0,1-.84-.41.66.66,0,1,1,1.25-.43A.67.67,0,0,1,125.47,63.19Z"/><path class="cls-21" d="M138.53,59.64a.66.66,0,1,1-.44-1.25.65.65,0,0,1,.84.41A.66.66,0,0,1,138.53,59.64Z"/><path class="cls-21" d="M139.69,70.65a.66.66,0,1,1,.41-.84A.67.67,0,0,1,139.69,70.65Z"/><path class="cls-21" d="M145.09,65.39a.66.66,0,1,1,.41-.84A.66.66,0,0,1,145.09,65.39Z"/><path class="cls-21" d="M148.86,75.72a.67.67,0,0,1-.85-.41.67.67,0,1,1,.85.41Z"/><path class="cls-21" d="M151.59,77.24a.66.66,0,0,1-.84-.41A.66.66,0,1,1,152,76.4.67.67,0,0,1,151.59,77.24Z"/><path class="cls-21" d="M147.67,78.59a.65.65,0,0,1-.84-.4.66.66,0,1,1,.84.4Z"/><path class="cls-21" d="M139.17,80.38a.66.66,0,0,1-.43-1.25.66.66,0,0,1,.43,1.25Z"/><path class="cls-21" d="M144.12,77.85a.68.68,0,0,1-.84-.41.67.67,0,0,1,.41-.85.68.68,0,0,1,.84.41A.67.67,0,0,1,144.12,77.85Z"/><path class="cls-21" d="M143.54,81.75a.66.66,0,0,1-.84-.41.67.67,0,0,1,.41-.84.66.66,0,1,1,.43,1.25Z"/><path class="cls-21" d="M152.87,94.94a.67.67,0,0,1-.84-.41.66.66,0,1,1,.84.41Z"/><path class="cls-21" d="M149.94,96.2a.66.66,0,0,1-.43-1.25.67.67,0,0,1,.84.41A.65.65,0,0,1,149.94,96.2Z"/><path class="cls-21" d="M154.64,90.44a.67.67,0,0,1-.85-.41.66.66,0,0,1,.41-.84.65.65,0,0,1,.84.41A.66.66,0,0,1,154.64,90.44Z"/><path class="cls-21" d="M146,90.78a.66.66,0,0,1-.84-.4.67.67,0,0,1,.41-.85.66.66,0,0,1,.84.41A.65.65,0,0,1,146,90.78Z"/><path class="cls-21" d="M151.72,98.44a.67.67,0,0,1-.84-.41.66.66,0,1,1,.84.41Z"/><path class="cls-21" d="M128.81,60.48a.66.66,0,1,1,.41-.84A.66.66,0,0,1,128.81,60.48Z"/><path class="cls-21" d="M112.45,50.24a.59.59,0,0,1-.74-.36.58.58,0,1,1,1.1-.38A.59.59,0,0,1,112.45,50.24Z"/><path class="cls-21" d="M103.26,54.18a.59.59,0,0,1-.74-.36.58.58,0,0,1,.36-.74.58.58,0,0,1,.74.36A.59.59,0,0,1,103.26,54.18Z"/><path class="cls-21" d="M109.71,56.47a.58.58,0,0,1-.62,1,.59.59,0,0,1-.18-.81A.58.58,0,0,1,109.71,56.47Z"/><rect class="cls-4" x="77.07" y="334.1" width="78.5" height="42.08" rx="7.49" transform="translate(-125.97 70.62) rotate(-22.28)"/><path class="cls-22" d="M139.91,323.1l-.09.32a.83.83,0,0,0,0,.35,3.12,3.12,0,0,0,.15.43,5.05,5.05,0,0,0,.27.74,3,3,0,0,0,2,1.55,11.31,11.31,0,0,1,2.41.85,4.64,4.64,0,0,1,.69.5,1.18,1.18,0,0,1,.3.33.35.35,0,0,1,0,.39c-.48.71.17,1.63.83,2a4.19,4.19,0,0,1,1,.63,2.28,2.28,0,0,1,.6,1.07,4,4,0,0,1-.33,2.31A6.26,6.26,0,0,0,147,337a2.07,2.07,0,0,0,1.21,2c.67.31,1.42.4,2.11.64a3.11,3.11,0,0,1,.91.5,3.14,3.14,0,0,1,.68.9,11,11,0,0,1,.61,1.42,8.32,8.32,0,0,1,.37,1.2,6.91,6.91,0,0,1,0,1.76,6.75,6.75,0,0,0,0,1.68c.1.57.74.95,1,1.43a2,2,0,0,1,.12,1.28c-.14.75-.64,1.39-.6,2.17a3.2,3.2,0,0,0,.6,1.59,7.54,7.54,0,0,1,.71,1.06,3.13,3.13,0,0,1,.17,1.55,5.6,5.6,0,0,1-.39,1.7c-.21.59-.46,1.17-.69,1.75a8.06,8.06,0,0,0-.49,1.35,1.22,1.22,0,0,0,.19,1,2.38,2.38,0,0,0,.48.47,7.51,7.51,0,0,0,3.71-9.6l-10.28-25.07A7.49,7.49,0,0,0,139.91,323.1Z"/><rect class="cls-12" x="95.41" y="332.69" width="43.87" height="44.05" transform="translate(-125.73 70.98) rotate(-22.28)"/><path class="cls-18" d="M126.71,336.5a2.47,2.47,0,0,1-2.29-3.43,2.47,2.47,0,1,1,3.22,3.24A2.35,2.35,0,0,1,126.71,336.5Zm0-4.2a1.64,1.64,0,0,0-.65.13,1.68,1.68,0,0,0-.94.93,1.73,1.73,0,1,0,3.19,0h0A1.72,1.72,0,0,0,126.7,332.3Z"/><rect class="cls-18" x="106.19" y="377.15" width="14.21" height="0.75" transform="translate(-134.57 71.06) rotate(-22.26)"/><path class="cls-18" d="M105.14,361.23a5.67,5.67,0,0,1-2.21-.45,5.69,5.69,0,0,1,0-10.51l21.51-8.82A5.7,5.7,0,0,1,128.8,352l-.14-.35.14.35-21.52,8.81A5.53,5.53,0,0,1,105.14,361.23Zm21.49-19.45a4.82,4.82,0,0,0-1.86.37L103.25,351a4.94,4.94,0,0,0,3.75,9.15l21.51-8.82a4.93,4.93,0,0,0,0-9.12A5,5,0,0,0,126.63,341.78Z"/><rect class="cls-18" x="108.81" y="360.13" width="21.83" height="0.75" transform="translate(-127.63 72.21) rotate(-22.26)"/><rect class="cls-18" x="115.64" y="363.92" width="11.27" height="0.75" transform="translate(-128.95 73.08) rotate(-22.26)"/><rect class="cls-18" x="135.93" y="324.92" width="0.75" height="44.05" transform="translate(-121.37 77.59) rotate(-22.28)"/><rect class="cls-4" x="218.76" y="47.86" width="248.93" height="338.88" transform="translate(-27.39 50.96) rotate(-8.17)"/><rect class="cls-5" x="222.54" y="71.25" width="202.52" height="27.88" transform="matrix(0.99, -0.14, 0.14, 0.99, -8.82, 46.86)"/><path class="cls-23" d="M323.57,92.84a11,11,0,0,1-4,1.26c-6.06.87-9.27-2.55-9.89-6.84-.82-5.72,2.94-9.23,7.77-9.92a9.72,9.72,0,0,1,4.17.14L321.28,81a8,8,0,0,0-3.09-.15c-2.5.36-4.45,2.14-4,5.45.43,3,2.45,4.53,5.43,4.1a9,9,0,0,0,2.84-.9Z"/><path class="cls-23" d="M330.1,92.32l-7.47-15.45,4.76-.69L330,82.3a53.53,53.53,0,0,1,2.16,5.48h.05c.12-2,.31-4,.54-5.79l.83-6.69,4.62-.66-3,17Z"/><rect class="cls-5" x="232.82" y="120.38" width="68.42" height="78.12" transform="translate(-19.94 39.55) rotate(-8.17)"/><rect class="cls-7" x="260.91" y="156.93" width="17.03" height="32.61" transform="translate(-21.88 40.03) rotate(-8.17)"/><path class="cls-8" d="M277.29,168.08c-7.28,1.75-13.26,1.77-17.28-.53l-1.33-9.24,16.86-2.42Z"/><path class="cls-4" d="M304.83,180.7c-5.51-7.33-27.06-9.25-27.06-9.25a16.28,16.28,0,0,1-16.85,2.42s-22.7,8.9-23.76,18.07c0,.42-.09.86-.14,1.32l1.45,10,68.2-9.79Z"/><path class="cls-17" d="M265.15,181.19l3.28-6a37.06,37.06,0,0,1-7.31-1.31l-3.36,1.86Z"/><path class="cls-17" d="M275.79,179.66,271,174.79a36.71,36.71,0,0,0,6.64-3.31l3.75.84Z"/><path class="cls-6" d="M237.16,191.94c0,.42-.09.86-.14,1.32l1.45,10,24.22-3.47-3.62-25.16C253.64,177,238,184.37,237.16,191.94Z"/><path class="cls-6" d="M304.83,180.7c-4.49-6-19.65-8.35-25.09-9l3.62,25.17,23.31-3.35Z"/><polygon class="cls-4" points="260.55 171.29 258.43 174.92 264.96 180.48 268.43 175.15 260.55 171.29"/><polygon class="cls-4" points="277.4 168.88 280.47 171.76 275.78 178.93 270.95 174.79 277.4 168.88"/><path class="cls-12" d="M268.31,178l2,20.7,5.51-.79-3.93-20.42a2.37,2.37,0,0,0,1-1.09l-1.9-1.62-1.37.26-1.14.1-1.36,2.09A2.43,2.43,0,0,0,268.31,178Z"/><rect class="cls-24" x="268.29" y="177.63" width="3.59" height="0.25" transform="matrix(0.99, -0.14, 0.14, 0.99, -22.39, 39.92)"/><path class="cls-7" d="M253.33,150.91s-2.48-4.14-5-1.67,1.47,9,5.41,9.09S253.33,150.91,253.33,150.91Z"/><path class="cls-11" d="M250.55,155c-.87-.92-1.91-2.83-1.37-4,.2-.42.68-.92,1.89-.87l0,.5c-.76,0-1.22.17-1.41.58-.39.84.36,2.49,1.27,3.45Z"/><path class="cls-7" d="M278.5,146.87s1.06-4.71,4.22-3.15,1.44,9-2.29,10.32S278.5,146.87,278.5,146.87Z"/><path class="cls-11" d="M282.71,149.86l-.45-.21c.57-1.2.76-3,.13-3.68-.31-.34-.82-.37-1.52-.11l-.18-.46c1.14-.43,1.75-.11,2.07.23C283.64,146.58,283.25,148.72,282.71,149.86Z"/><rect class="cls-7" x="251.59" y="128.08" width="28.31" height="39.58" rx="13.56" transform="translate(-20.09 44.01) rotate(-9.12)"/><path class="cls-6" d="M253.08,155.17c-.23-2.83-.56-6.69-3.06-6.74l-1.45-4.6c-.87-2.05-.27-3.57.54-4.06,0,0-1.75-10.68,12.85-12.81s16.32,5.06,17.29,8c1.52,0,2,2.17,2,3.2l.25,5.25c-2.85.27-2.46,3.42-1.64,7.49-1.89.31-2.51-5.57-2.51-5.57L276,136.64a40.11,40.11,0,0,1-22.94,3.69l1.06,8.73S255.16,154.83,253.08,155.17Z"/><path class="cls-11" d="M266.78,153.85l-.21-.45c.52-.25,2-1.12,1.82-1.82s-2.4-3.68-3.24-4.71l.39-.32c.32.39,3.08,3.85,3.34,4.92S267,153.73,266.78,153.85Z"/><path class="cls-6" d="M260.75,150.7a.85.85,0,1,1-1-.71A.85.85,0,0,1,260.75,150.7Z"/><path class="cls-6" d="M257.42,149l-.24-.44a5.17,5.17,0,0,1,4.13-.63l-.15.47A4.74,4.74,0,0,0,257.42,149Z"/><path class="cls-6" d="M273.46,148.71a.82.82,0,0,1-.69,1,.84.84,0,0,1-.26-1.66A.83.83,0,0,1,273.46,148.71Z"/><path class="cls-6" d="M270.38,147l-.24-.44a5.17,5.17,0,0,1,4.13-.63l-.15.47A4.74,4.74,0,0,0,270.38,147Z"/><path class="cls-11" d="M267.32,157.84a6.57,6.57,0,0,1-2.53-.55l.19-.46a4.73,4.73,0,0,0,5.55-.86l.35.36A5,5,0,0,1,267.32,157.84Z"/><rect class="cls-11" x="268.27" y="161.28" width="0.5" height="1.52" transform="translate(-22.35 44.76) rotate(-9.15)"/><path class="cls-6" d="M273.77,155.81a3.47,3.47,0,0,0-3.95-2.84l-5.44.85a3.47,3.47,0,0,0-2.9,3.9Z"/><path class="cls-5" d="M238.17,203.58l-11.23-78.1,68.61-9.85,11.24,78.1ZM227.5,125.9,238.59,203l67.63-9.7L295.13,116.2Z"/><path class="cls-13" d="M321.29,119.14a3.36,3.36,0,0,1-.48-6.68l104.47-15a3.37,3.37,0,0,1,3.8,2.85,3.3,3.3,0,0,1-.64,2.48,3.35,3.35,0,0,1-2.21,1.32l-104.46,15Zm104.47-21.2a2.83,2.83,0,0,0-.41,0L320.88,113a2.85,2.85,0,1,0,.81,5.65l104.47-15A2.81,2.81,0,0,0,428,102.5a2.85,2.85,0,0,0-2.28-4.56Z"/><path class="cls-13" d="M323.17,132.23a3.35,3.35,0,0,1-2-.67,3.3,3.3,0,0,1-1.31-2.2,3.35,3.35,0,0,1,.63-2.49,3.32,3.32,0,0,1,2.21-1.31l46.86-6.73a3.38,3.38,0,0,1,2.49.64,3.36,3.36,0,0,1-1.54,6l-46.85,6.72A3.87,3.87,0,0,1,323.17,132.23ZM370,119.3a2.73,2.73,0,0,0-.41,0l-46.86,6.72a2.86,2.86,0,0,0,.82,5.66L370.43,125a2.85,2.85,0,0,0,2.42-3.23,2.82,2.82,0,0,0-1.11-1.88A2.9,2.9,0,0,0,370,119.3Z"/><path class="cls-12" d="M245.12,234.75a2.23,2.23,0,0,1-2.2-1.91l-.32-2.23A2.2,2.2,0,0,1,243,229a2.27,2.27,0,0,1,1.47-.87l17.62-2.53a2.25,2.25,0,0,1,1.66.43,2.2,2.2,0,0,1,.87,1.46l.32,2.23a2.24,2.24,0,0,1-1.89,2.53l-17.63,2.53ZM262.43,226l-.25,0-17.62,2.53a1.69,1.69,0,0,0-1.14.67,1.71,1.71,0,0,0-.33,1.29l.32,2.22a1.73,1.73,0,0,0,2,1.47L263,231.7a1.69,1.69,0,0,0,1.14-.68,1.77,1.77,0,0,0,.33-1.28l-.33-2.23a1.69,1.69,0,0,0-.67-1.13A1.74,1.74,0,0,0,262.43,226Z"/><path class="cls-12" d="M247.61,252a2.24,2.24,0,0,1-2.21-1.91l-.32-2.23a2.22,2.22,0,0,1,.43-1.65,2.17,2.17,0,0,1,1.46-.87l17.63-2.53a2.17,2.17,0,0,1,1.65.42,2.25,2.25,0,0,1,.88,1.47l.32,2.22a2.25,2.25,0,0,1-1.9,2.53L247.93,252Zm17.31-8.72-.25,0L247,245.86a1.73,1.73,0,0,0-1.46,2l.32,2.23a1.72,1.72,0,0,0,2,1.46L265.48,249A1.72,1.72,0,0,0,267,247l-.32-2.23a1.74,1.74,0,0,0-.68-1.14A1.69,1.69,0,0,0,264.92,243.31Z"/><path class="cls-12" d="M250.09,269.31a2.23,2.23,0,0,1-1.33-.44,2.19,2.19,0,0,1-.87-1.47l-.32-2.23a2.22,2.22,0,0,1,1.89-2.52l17.62-2.53a2.23,2.23,0,0,1,2.53,1.89l.32,2.23a2.22,2.22,0,0,1-1.89,2.52l-17.63,2.53A1.67,1.67,0,0,1,250.09,269.31Zm17.31-8.71h-.24l-17.63,2.53a1.74,1.74,0,0,0-1.47,2l.32,2.23a1.77,1.77,0,0,0,.68,1.14,1.73,1.73,0,0,0,1.28.33L268,266.27a1.77,1.77,0,0,0,1.14-.68,1.73,1.73,0,0,0,.33-1.28l-.32-2.23A1.74,1.74,0,0,0,267.4,260.6Z"/><path class="cls-12" d="M265.38,375.59a2.16,2.16,0,0,1-1.33-.45,2.2,2.2,0,0,1-.88-1.46l-.32-2.23a2.22,2.22,0,0,1,.43-1.65,2.2,2.2,0,0,1,1.46-.87l17.63-2.53a2.16,2.16,0,0,1,1.65.42,2.25,2.25,0,0,1,.88,1.47l.32,2.22a2.25,2.25,0,0,1-1.89,2.53l-17.63,2.53Zm17.31-8.72-.25,0-17.62,2.53a1.73,1.73,0,0,0-1.47,2l.32,2.23a1.65,1.65,0,0,0,.68,1.13,1.68,1.68,0,0,0,1.28.33l17.62-2.53a1.72,1.72,0,0,0,1.47-2l-.32-2.23a1.67,1.67,0,0,0-.68-1.14A1.69,1.69,0,0,0,282.69,366.87Z"/><path class="cls-12" d="M295.71,371.23a3.36,3.36,0,0,1-2-.68,3.31,3.31,0,0,1-1.31-2.2,3.36,3.36,0,0,1,2.85-3.8l93.63-13.44a3.37,3.37,0,0,1,2.49.64,3.3,3.3,0,0,1,1.31,2.21,3.36,3.36,0,0,1-2.84,3.8l-93.64,13.43A2.59,2.59,0,0,1,295.71,371.23Zm93.64-19.65-.41,0L295.31,365a2.86,2.86,0,0,0-2.42,3.24,2.78,2.78,0,0,0,1.11,1.87,2.85,2.85,0,0,0,2.12.55l93.64-13.44a2.88,2.88,0,0,0,2.42-3.23,2.87,2.87,0,0,0-2.83-2.45Z"/><rect class="cls-14" x="353.98" y="140.99" width="79.77" height="0.5" transform="translate(-16.12 57.65) rotate(-8.2)"/><rect class="cls-14" x="323.45" y="149.58" width="21.11" height="0.5" transform="translate(-17.96 49.19) rotate(-8.2)"/><polygon class="cls-14" points="414.75 151.74 414.68 151.24 435.18 148.3 435.25 148.79 414.75 151.74"/><rect class="cls-14" x="325.03" y="158.58" width="77.1" height="0.5" transform="translate(-18.94 53.51) rotate(-8.2)"/><polygon class="cls-14" points="387.3 168.92 387.23 168.42 437.05 161.27 437.12 161.77 387.3 168.92"/><rect class="cls-14" x="361.22" y="170.78" width="19.17" height="0.5" transform="translate(-20.61 54.67) rotate(-8.2)"/><rect class="cls-14" x="327.15" y="175.13" width="26.78" height="0.5" transform="translate(-21.54 50.38) rotate(-8.2)"/><polygon class="cls-14" points="401.13 180.18 401.06 179.68 438.91 174.25 438.98 174.74 401.13 180.18"/><rect class="cls-14" x="328.86" y="185.94" width="57.19" height="0.5" transform="translate(-22.91 52.91) rotate(-8.2)"/><polygon class="cls-14" points="407.52 211.47 407.45 210.97 440.73 206.2 440.8 206.69 407.52 211.47"/><rect class="cls-14" x="343.41" y="216.54" width="50.51" height="0.5" transform="translate(-27.16 54.82) rotate(-8.2)"/><rect class="cls-14" x="274.05" y="226.64" width="48.51" height="0.5" transform="translate(-29.33 44.9) rotate(-8.21)"/><polygon class="cls-14" points="384.99 232.34 384.92 231.84 443.21 223.48 443.28 223.97 384.99 232.34"/><rect class="cls-14" x="311.22" y="237.69" width="65.97" height="0.5" transform="translate(-30.43 51.55) rotate(-8.2)"/><rect class="cls-14" x="276.66" y="245.64" width="24.26" height="0.5" transform="translate(-32.14 43.73) rotate(-8.2)"/><polygon class="cls-14" points="427.99 243.81 427.92 243.31 445.7 240.76 445.77 241.26 427.99 243.81"/><rect class="cls-14" x="368.24" y="248.51" width="46.98" height="0.5" transform="translate(-31.49 58.44) rotate(-8.2)"/><rect class="cls-14" x="278.87" y="259.01" width="79.4" height="0.5" transform="translate(-33.73 48.11) rotate(-8.2)"/><rect class="cls-14" x="258.83" y="344.25" width="149.25" height="0.5" transform="translate(-45.76 51.12) rotate(-8.21)"/><path class="cls-13" d="M255.33,297.14a3.65,3.65,0,0,1-.52-7.27l48.12-6.9a3.65,3.65,0,1,1,1,7.22l-48.12,6.91A4.55,4.55,0,0,1,255.33,297.14Zm48.13-13.71-.46,0-48.12,6.91a3.16,3.16,0,0,0-2.67,3.56,3.16,3.16,0,0,0,3.57,2.67l48.12-6.9a3.15,3.15,0,0,0-.44-6.27Z"/><path class="cls-13" d="M321,287.72a3.65,3.65,0,0,1-.52-7.27l86-12.34a3.68,3.68,0,0,1,4.14,3.1,3.67,3.67,0,0,1-3.1,4.13l-86,12.34A3.12,3.12,0,0,1,321,287.72Zm86-19.14a3.4,3.4,0,0,0-.45,0l-86,12.34a3.15,3.15,0,0,0-1.44,5.64,3.17,3.17,0,0,0,2.34.6l86-12.34a3.17,3.17,0,0,0,2.67-3.57A3.14,3.14,0,0,0,407,268.58Z"/><path class="cls-13" d="M258.23,317.35a3.62,3.62,0,0,1-2.18-.73,3.65,3.65,0,0,1,1.67-6.54l73.56-10.55a3.65,3.65,0,0,1,3.45,5.8,3.61,3.61,0,0,1-2.41,1.42l-73.56,10.56A3.15,3.15,0,0,1,258.23,317.35ZM331.81,300l-.46,0-73.56,10.56a3.16,3.16,0,0,0-2.67,3.57,3.08,3.08,0,0,0,1.23,2.07,3.17,3.17,0,0,0,2.34.6l73.56-10.56a3.18,3.18,0,0,0,2.08-1.23,3.21,3.21,0,0,0,.6-2.34A3.16,3.16,0,0,0,331.81,300Z"/><rect class="cls-14" x="256.96" y="324.19" width="203.36" height="0.5" transform="translate(-42.63 54.49) rotate(-8.2)"/><rect class="cls-3" x="276.61" y="95.27" width="248.93" height="338.87" transform="translate(-14.21 22.91) rotate(-3.21)"/><rect class="cls-4" x="286.89" y="108.07" width="248.94" height="338.87"/><rect class="cls-5" x="309.68" y="130.04" width="202.52" height="27.88"/><path class="cls-23" d="M409.57,151.51a10.88,10.88,0,0,1-4.13.68c-6.12,0-8.81-3.83-8.81-8.17,0-5.78,4.22-8.71,9.1-8.71a10,10,0,0,1,4.11.72l-.85,3.45a8.06,8.06,0,0,0-3-.58c-2.52,0-4.71,1.48-4.71,4.83,0,3,1.77,4.82,4.79,4.82a8.91,8.91,0,0,0,2.93-.48Z"/><path class="cls-23" d="M416.11,151.93l-5.2-16.36h4.81l1.73,6.43a56.88,56.88,0,0,1,1.36,5.73h.05c.41-2,.87-3.91,1.36-5.65l1.77-6.51h4.66l-5.37,16.36Z"/><rect class="cls-5" x="309.97" y="170.35" width="68.43" height="78.12"/><rect class="cls-7" x="333.45" y="212.52" width="20.57" height="35.95"/><path class="cls-8" d="M354,221.3c-8.7,1.69-15.92.84-20.57-4.39v-4.39H354Z"/><path class="cls-4" d="M313.38,248.47h62l1.29-14.26c.35-4.24-2.1-6.58-6.5-7.48l-16-2.36c-5.2,3.68-15.09,3.85-20.9,0l-14.7,2.36c-4.4.9-6.85,3.24-6.5,7.48Z"/><path class="cls-4" d="M310,248.47h11.15l-1.88-21.88c-3.94.87-7,2-9.27,4Z"/><path class="cls-4" d="M378.37,230.41a18.11,18.11,0,0,0-9-3.82l-1.89,21.88h10.92Z"/><polygon class="cls-12" points="340.74 248.47 346.74 248.47 346.06 232.36 348.95 229.12 346.45 227.08 343.74 227.19 341.02 227.08 338.52 229.12 341.41 232.36 340.74 248.47"/><polygon class="cls-4" points="333.45 219.64 329.99 224.9 337.96 232.03 341.57 227.08 333.45 219.64"/><polygon class="cls-4" points="353.94 219.64 357.41 224.9 349.44 232.03 345.83 227.08 353.94 219.64"/><rect class="cls-7" x="329.58" y="180.58" width="28.31" height="39.58" rx="13.56"/><path class="cls-7" d="M331,201.4s-1.79-4.48-4.66-2.43,0,9.13,3.89,9.82S331,201.4,331,201.4Z"/><path class="cls-7" d="M356.48,201.4s1.8-4.48,4.67-2.43,0,9.13-3.89,9.82S356.48,201.4,356.48,201.4Z"/><path class="cls-11" d="M327.6,205c-.72-1.05-1.44-3.09-.72-4.17.26-.39.81-.8,2-.56l-.1.49c-.73-.15-1.23,0-1.48.35-.51.76,0,2.51.71,3.61Z"/><path class="cls-11" d="M360.17,205l-.41-.28c.75-1.1,1.22-2.85.71-3.61-.25-.38-.75-.5-1.48-.35l-.1-.49c1.18-.24,1.74.17,2,.56C361.61,201.94,360.89,204,360.17,205Z"/><path class="cls-11" d="M343.81,206.44l-.14-.48c.56-.16,2.14-.79,2.09-1.5s-1.79-4-2.45-5.17l.43-.25c.25.44,2.43,4.28,2.52,5.38S344.07,206.36,343.81,206.44Z"/><path class="cls-6" d="M338.29,203.21a.85.85,0,1,1-.84-.86A.86.86,0,0,1,338.29,203.21Z"/><path class="cls-25" d="M335.35,201.25l-.33-.94a5.41,5.41,0,0,1,4.37,0l-.44.9A4.48,4.48,0,0,0,335.35,201.25Z"/><path class="cls-6" d="M351.16,203.26a.83.83,0,1,1-1.66,0,.82.82,0,0,1,.83-.83A.84.84,0,0,1,351.16,203.26Z"/><path class="cls-25" d="M348.47,201.3l-.33-.94a5.41,5.41,0,0,1,4.37,0l-.44.9A4.48,4.48,0,0,0,348.47,201.3Z"/><path class="cls-11" d="M344.37,211.45a8.57,8.57,0,0,1-3.87-1l.23-.44a6.94,6.94,0,0,0,7,0l.25.43A7.21,7.21,0,0,1,344.37,211.45Z"/><rect class="cls-11" x="343.97" y="214.05" width="0.5" height="1.52"/><path class="cls-23" d="M330.06,205.57c.23-2.83.52-6.69-1.94-7.14l-.7-4.77c-.53-2.17.3-3.56,1.17-3.93,0,0-4.31-3.86-2.22-7.85s6.89-2.13,6.89-2.13-.26-3.16,4-4.21,17.37,6.83,17.37,6.83c3.18,1.88,4,4.34,4.47,7.36,1.5.27,1.62,2.46,1.49,3.48l-.59,5.22c-2.85-.19-3,3-2.8,7.14-1.92,0-1.6-5.9-1.6-5.9v-8.76H332.4l-.34,8.79S332.17,205.57,330.06,205.57Z"/><polygon class="cls-10" points="338 232.4 329.82 225.09 330.15 224.72 337.92 231.66 339.04 230.12 339.45 230.41 338 232.4"/><polygon class="cls-10" points="349.4 232.4 347.85 230.28 348.25 229.98 349.48 231.66 357.43 224.72 357.76 225.09 349.4 232.4"/><path class="cls-5" d="M378.65,248.72H309.72V170.1h68.93Zm-68.43-.5h67.93V170.6H310.22Z"/><path class="cls-13" d="M509.64,177.26H404.1a3.36,3.36,0,1,1,0-6.71H509.64a3.36,3.36,0,1,1,0,6.71ZM404.1,171.05a2.86,2.86,0,1,0,0,5.71H509.64a2.86,2.86,0,1,0,0-5.71Z"/><path class="cls-13" d="M451.43,190.49H404.1a3.36,3.36,0,1,1,0-6.71h47.33a3.36,3.36,0,1,1,0,6.71Zm-47.33-6.21a2.86,2.86,0,1,0,0,5.71h47.33a2.86,2.86,0,1,0,0-5.71Z"/><path class="cls-12" d="M329.9,280.87H312.09a2.23,2.23,0,0,1-2.23-2.23v-2.26a2.24,2.24,0,0,1,2.23-2.23H329.9a2.24,2.24,0,0,1,2.23,2.23v2.26A2.23,2.23,0,0,1,329.9,280.87Zm-17.81-6.22a1.74,1.74,0,0,0-1.73,1.73v2.26a1.74,1.74,0,0,0,1.73,1.73H329.9a1.74,1.74,0,0,0,1.73-1.73v-2.26a1.74,1.74,0,0,0-1.73-1.73Z"/><path class="cls-12" d="M329.9,298.33H312.09a2.23,2.23,0,0,1-2.23-2.23v-2.26a2.23,2.23,0,0,1,2.23-2.23H329.9a2.23,2.23,0,0,1,2.23,2.23v2.26A2.23,2.23,0,0,1,329.9,298.33Zm-17.81-6.22a1.74,1.74,0,0,0-1.73,1.73v2.26a1.74,1.74,0,0,0,1.73,1.73H329.9a1.74,1.74,0,0,0,1.73-1.73v-2.26a1.74,1.74,0,0,0-1.73-1.73Z"/><path class="cls-12" d="M329.9,315.79H312.09a2.23,2.23,0,0,1-2.23-2.23V311.3a2.23,2.23,0,0,1,2.23-2.23H329.9a2.23,2.23,0,0,1,2.23,2.23v2.26A2.23,2.23,0,0,1,329.9,315.79Zm-17.81-6.22a1.74,1.74,0,0,0-1.73,1.73v2.26a1.74,1.74,0,0,0,1.73,1.73H329.9a1.74,1.74,0,0,0,1.73-1.73V311.3a1.74,1.74,0,0,0-1.73-1.73Z"/><path class="cls-12" d="M329.9,423.15H312.09a2.23,2.23,0,0,1-2.23-2.23v-2.25a2.23,2.23,0,0,1,2.23-2.23H329.9a2.23,2.23,0,0,1,2.23,2.23v2.25A2.23,2.23,0,0,1,329.9,423.15Zm-17.81-6.21a1.74,1.74,0,0,0-1.73,1.73v2.25a1.73,1.73,0,0,0,1.73,1.73H329.9a1.73,1.73,0,0,0,1.73-1.73v-2.25a1.74,1.74,0,0,0-1.73-1.73Z"/><path class="cls-12" d="M437.49,423.15H342.9a3.36,3.36,0,1,1,0-6.71h94.59a3.36,3.36,0,1,1,0,6.71Zm-94.59-6.21a2.86,2.86,0,1,0,0,5.71h94.59a2.86,2.86,0,1,0,0-5.71Z"/><rect class="cls-14" x="432.43" y="209.16" width="79.77" height="0.5"/><rect class="cls-14" x="401.28" y="209.16" width="21.11" height="0.5"/><rect class="cls-14" x="491.49" y="222.27" width="20.71" height="0.5"/><rect class="cls-14" x="401.28" y="222.27" width="77.11" height="0.5"/><rect class="cls-14" x="461.88" y="235.38" width="50.33" height="0.5"/><rect class="cls-14" x="435.66" y="235.38" width="19.17" height="0.5"/><rect class="cls-14" x="401.28" y="235.38" width="26.78" height="0.5"/><rect class="cls-14" x="473.96" y="248.49" width="38.24" height="0.5"/><rect class="cls-14" x="401.28" y="248.49" width="57.19" height="0.5"/><rect class="cls-14" x="475.83" y="280.37" width="33.62" height="0.5"/><rect class="cls-14" x="411.36" y="280.37" width="50.51" height="0.5"/><rect class="cls-14" x="341.28" y="280.37" width="48.51" height="0.5"/><rect class="cls-14" x="450.56" y="297.83" width="58.9" height="0.5"/><rect class="cls-14" x="376.41" y="297.83" width="65.97" height="0.5"/><rect class="cls-14" x="341.28" y="297.83" width="24.26" height="0.5"/><rect class="cls-14" x="491.49" y="315.29" width="17.96" height="0.5"/><rect class="cls-14" x="431.41" y="315.29" width="46.98" height="0.5"/><rect class="cls-14" x="341.28" y="315.29" width="79.41" height="0.5"/><rect class="cls-14" x="308.96" y="401.78" width="149.26" height="0.5"/><path class="cls-13" d="M362.13,344.08H313.52a3.65,3.65,0,1,1,0-7.3h48.61a3.65,3.65,0,1,1,0,7.3Zm-48.61-6.8a3.15,3.15,0,1,0,0,6.3h48.61a3.15,3.15,0,1,0,0-6.3Z"/><path class="cls-13" d="M466.69,344.08H379.82a3.65,3.65,0,1,1,0-7.3h86.87a3.65,3.65,0,1,1,0,7.3Zm-86.87-6.8a3.15,3.15,0,1,0,0,6.3h86.87a3.15,3.15,0,1,0,0-6.3Z"/><path class="cls-13" d="M387.84,364.5H313.52a3.65,3.65,0,1,1,0-7.3h74.32a3.65,3.65,0,1,1,0,7.3Zm-74.32-6.8a3.15,3.15,0,1,0,0,6.3h74.32a3.15,3.15,0,0,0,0-6.3Z"/><rect class="cls-14" x="309.68" y="385.5" width="203.36" height="0.5"/><path class="cls-7" d="M256.21,434.4,190.6,398S209,370,209.7,347.64c1-11.44-9.18-73.35-4.93-82.49s54.38-40,59.26-42a35.66,35.66,0,0,1,9.86-2.28l2.71,43.69,33.11-33.51c17.06-18.36,37.41-1.71,18.78,19,0,0-26.68,29.77-30.21,38.5s-4.43,24.14-5.95,32.38-11,27-11,27L283,380.63C276.58,406.28,263.51,404.26,256.21,434.4Z"/><path class="cls-26" d="M258.21,278.59c-8.59,0-24.91-13.45-25.64-14l.32-.39c.19.16,18.62,15.34,26.5,13.84s16.92-13.43,17-13.55l.4.3c-.37.49-9.22,12.19-17.32,13.74A7.41,7.41,0,0,1,258.21,278.59Z"/><path class="cls-26" d="M267.77,274c-6.23-1.45-8.61-9.77-8.79-10.44-3.37-5.93-11.74-10.19-11.82-10.24l.22-.44c.09,0,8.62,4.39,12.05,10.46l0,.06c0,.09,2.37,8.7,8.43,10.11Z"/><polygon class="cls-26" points="259.51 262.88 259.19 262.5 275.45 248.55 275.78 248.92 259.51 262.88"/><path class="cls-26" d="M258.9,278.54c-5.72-.73-12.13-8.83-12.4-9.17l.39-.31c.07.08,6.56,8.28,12.08,9Z"/><rect class="cls-26" x="263.04" y="357.48" width="23.44" height="0.5" transform="translate(-175.53 384.29) rotate(-55.85)"/><polygon class="cls-26" points="312.35 258.39 300.72 248.66 301.04 248.27 312.67 258.01 312.35 258.39"/><rect class="cls-26" x="308.49" y="246.95" width="0.5" height="7.24" transform="matrix(0.67, -0.74, 0.74, 0.67, -84.13, 311.88)"/><rect class="cls-26" x="303.64" y="252.43" width="0.5" height="7.24" transform="translate(-89.8 310.11) rotate(-47.94)"/><path class="cls-26" d="M324.84,245c-3.54,0-10-5.94-11.46-9.26s7.84-10.32,8.24-10.61l.3.4c-2.62,1.93-9.17,7.5-8.08,10,1.38,3.18,7.91,9.15,11.16,8.95s9-9.15,9-9.24l.42.26c-.24.38-5.93,9.26-9.43,9.48Z"/><rect class="cls-4" x="185.97" y="387.5" width="80.99" height="36.44" transform="translate(223.62 -58.92) rotate(28.82)"/><polygon class="cls-27" points="229.05 500 256.3 440.13 181.41 398.93 108.65 500 229.05 500"/><path class="cls-14" d="M250.52,423.87a6,6,0,1,1,0-12h0a6,6,0,0,1,6,6h0a5.92,5.92,0,0,1-1.74,4.23,6,6,0,0,1-4.23,1.76Zm0-11.46h0a5.48,5.48,0,0,0,0,11h0a5.47,5.47,0,0,0,3.87-1.62,5.41,5.41,0,0,0,1.6-3.87h0a5.48,5.48,0,0,0-5.48-5.47Z"/><path class="cls-26" d="M274.16,229.78a12.63,12.63,0,0,0-4.53-4.1l.19-.46a12.69,12.69,0,0,1,4.74,4.27Z"/><path class="cls-7" d="M566.3,478.78l63.29-40.29s-20.06-26.74-22.11-49c-1.64-11.34,4.74-73.68-.05-82.54s-56.7-36.61-61.69-38.28a35.73,35.73,0,0,0-10-1.68l-.07,43.72-35.07-31.41c-18.14-17.28-37.44.54-17.6,20.07,0,0,28.43,28.09,32.48,36.58s5.88,23.8,7.9,31.92S536,394.1,536,394.1v31.62C543.92,450.91,557.19,449.16,566.3,478.78Z"/><path class="cls-26" d="M554.43,323.56a7,7,0,0,1-.81-.05c-8.18-1.05-17.72-12.18-18.12-12.66l.38-.32c.1.11,9.81,11.46,17.8,12.48s25.44-15.22,25.61-15.38l.35.36C578.94,308.65,562.9,323.56,554.43,323.56Z"/><path class="cls-26" d="M545.07,319.52l-.14-.48c6-1.77,7.79-10.5,7.81-10.58l0-.06c3.06-6.27,11.31-11.11,11.39-11.16l.25.43c-.08.05-8.18,4.8-11.18,10.92C553.08,309.27,551.2,317.7,545.07,319.52Z"/><polygon class="cls-26" points="552.65 307.96 535.57 295.02 535.87 294.63 552.95 307.57 552.65 307.96"/><path class="cls-26" d="M554.2,323.54l-.09-.49c5.47-1,11.45-9.6,11.51-9.69l.41.29C565.78,314,559.87,322.47,554.2,323.54Z"/><polygon class="cls-26" points="550.12 412.87 535.79 394.33 536.19 394.03 550.52 412.57 550.12 412.87"/><polygon class="cls-26" points="499.63 306.66 499.29 306.3 510.31 295.9 510.65 296.26 499.63 306.66"/><polygon class="cls-26" points="500.41 301.4 500.06 301.05 505.13 295.89 505.48 296.24 500.41 301.4"/><polygon class="cls-26" points="505.58 306.57 505.22 306.22 510.29 301.07 510.65 301.42 505.58 306.57"/><path class="cls-26" d="M486.18,294.07h0c-3.51,0-9.72-8.51-10-8.88l.4-.29c.06.09,6.33,8.67,9.58,8.68h0c3.27,0,9.4-6.34,10.59-9.6.93-2.57-5.94-7.72-8.67-9.5l.27-.41c.42.27,10.13,6.62,8.87,10.08S489.68,294.07,486.18,294.07Z"/><polygon class="cls-4" points="569.76 485.37 638.23 442.17 618.75 411.42 550.27 454.61 569.76 485.37"/><polygon class="cls-27" points="688.72 500 638.82 438.91 566.55 484.5 574.78 500 688.72 500"/><path class="cls-14" d="M571,467.94a6,6,0,1,1,6-6.32,6,6,0,0,1-5.63,6.31Zm0-11.44h-.33a5.47,5.47,0,0,0-5.15,5.78h0a5.49,5.49,0,0,0,9.57,3.32A5.47,5.47,0,0,0,571,456.5Z"/><path class="cls-26" d="M536,275.84l-.42-.27a12.79,12.79,0,0,1,4.48-4.54l.21.45A12.57,12.57,0,0,0,536,275.84Z"/></svg>