<?xml version="1.0" encoding="utf-8"?>
<!DOCTYPE svg PUBLIC "-//W3C//DTD SVG 1.1//EN" "http://www.w3.org/Graphics/SVG/1.1/DTD/svg11.dtd">
<svg xmlns="http://www.w3.org/2000/svg" xmlns:xlink="http://www.w3.org/1999/xlink" version="1.1" baseProfile="full" width="666.667" height="666.667" viewBox="0 0 666.67 666.67" enable-background="new 0 0 666.67 666.67" xml:space="preserve">
	<path fill="none" stroke-width="1.39408" stroke-linejoin="round" stroke="#FEFEFE" stroke-opacity="1" d="M 324.144,194.765C 324.9,189.651 325.655,184.536 326.409,179.421"/>
	<path fill="none" stroke-width="1.39408" stroke-linejoin="round" stroke="#FEFEFE" stroke-opacity="1" d="M 306.036,179.9C 301.079,179.888 296.123,179.876 291.165,179.864"/>
	<path fill="none" stroke-width="1.39408" stroke-linejoin="round" stroke="#FEFEFE" stroke-opacity="1" d="M 285.995,163.593C 284.619,160.093 283.243,156.592 281.867,153.092"/>
	<path fill="none" stroke-width="1.18062" stroke-linejoin="round" stroke="#FEFEFE" stroke-opacity="1" d="M 210.232,493.636C 210.379,501.999 220.756,506.531 223.295,514.5C 224.56,518.475 223.712,522.885 224.965,526.864C 226.169,530.685 229.145,533.636 231.376,536.964C 236.532,544.656 237.612,554.923 234.169,563.521"/>
	<path fill="none" stroke-width="1.39408" stroke-linejoin="round" stroke="#FEFEFE" stroke-opacity="1" d="M 527.875,321.217C 531.092,325.516 533.68,330.285 535.528,335.327"/>
	<path fill="none" stroke-width="1.39408" stroke-linejoin="round" stroke="#FEFEFE" stroke-opacity="1" d="M 489.444,322.989C 505.272,302.157 524.953,284.263 547.193,270.483"/>
	<path fill="none" stroke-width="1.39408" stroke-linejoin="round" stroke="#FEFEFE" stroke-opacity="1" d="M 530.244,281.88C 530.557,278.18 531.537,274.536 533.123,271.177"/>
	<path fill="none" stroke-width="1.39408" stroke-linejoin="round" stroke="#FEFEFE" stroke-opacity="1" d="M 505.163,304.26C 503.723,300.584 503.575,296.417 504.748,292.648"/>
	<path fill="#EE6A5E" fill-opacity="1" stroke-width="1.39408" stroke-linejoin="round" d="M 169.153,561.275L 152.283,452.8L 125.731,452.8L 142.532,560.817L 139.584,561.275L 122.247,449.815L 154.837,449.815L 172.103,560.817L 169.153,561.275 Z "/>
	<rect x="128.238" y="474.32" fill="#EE6A5E" fill-opacity="1" stroke-width="1.39408" stroke-linejoin="round" width="29.1324" height="2.98535"/>
	<rect x="131.464" y="497.08" fill="#EE6A5E" fill-opacity="1" stroke-width="1.39408" stroke-linejoin="round" width="29.2465" height="2.98401"/>
	<rect x="134.973" y="519.84" fill="#EE6A5E" fill-opacity="1" stroke-width="1.39408" stroke-linejoin="round" width="29.2453" height="2.98401"/>
	<rect x="138.567" y="542.599" fill="#EE6A5E" fill-opacity="1" stroke-width="1.39408" stroke-linejoin="round" width="29.1613" height="2.98529"/>
	<path fill="#D7564F" fill-opacity="1" stroke-width="1.39408" stroke-linejoin="round" d="M 93.9589,561.459L 91.0905,560.636L 122.555,450.896L 125.424,451.719L 93.9589,561.459 Z "/>
	<path fill="#D7564F" fill-opacity="1" stroke-width="1.39408" stroke-linejoin="round" d="M 122.665,561.459L 119.797,560.636L 151.261,450.896L 154.131,451.719L 122.665,561.459 Z "/>
	<rect x="119.144" y="467.191" fill="#D7564F" fill-opacity="1" stroke-width="1.39408" stroke-linejoin="round" width="28.5708" height="2.98267"/>
	<rect x="112.305" y="491.595" fill="#D7564F" fill-opacity="1" stroke-width="1.39408" stroke-linejoin="round" width="28.2227" height="2.98529"/>
	<rect x="105.633" y="513.793" fill="#D7564F" fill-opacity="1" stroke-width="1.39408" stroke-linejoin="round" width="28.6605" height="2.98401"/>
	<rect x="98.8132" y="536.803" fill="#D7564F" fill-opacity="1" stroke-width="1.39408" stroke-linejoin="round" width="28.8385" height="2.98401"/>
	<path fill="#7767BA" fill-opacity="1" stroke-width="1.39408" stroke-linejoin="round" d="M 99.4928,331.283C 99.03,331.283 98.5775,331.053 98.3125,330.632C 97.64,329.565 96.9935,328.483 96.3711,327.385C 95.9921,326.715 96.2272,325.864 96.8971,325.485C 97.5671,325.104 98.4167,325.34 98.7968,326.011C 99.3977,327.072 100.022,328.116 100.671,329.144C 101.081,329.795 100.886,330.656 100.236,331.067C 100.004,331.213 99.7468,331.283 99.4928,331.283 Z "/>
	<path fill="#7767BA" fill-opacity="1" stroke-width="1.39408" stroke-linejoin="round" d="M 176.728,211.467C 176.672,211.467 176.617,211.463 176.561,211.456C 174.249,211.183 171.76,211.017 168.953,210.951C 168.184,210.933 167.575,210.295 167.592,209.525C 167.611,208.767 168.231,208.164 169.019,208.165C 171.915,208.232 174.489,208.403 176.889,208.688C 177.655,208.777 178.2,209.472 178.111,210.236C 178.027,210.944 177.424,211.467 176.728,211.467 Z M 149.709,212.604C 149.064,212.604 148.484,212.153 148.347,211.497C 148.188,210.744 148.669,210.004 149.423,209.845C 151.983,209.307 154.605,208.889 157.217,208.604C 157.964,208.519 158.669,209.073 158.755,209.839C 158.837,210.604 158.285,211.292 157.52,211.376C 154.999,211.651 152.468,212.055 149.999,212.575C 149.901,212.595 149.805,212.604 149.709,212.604 Z M 131.424,218.905C 130.909,218.905 130.413,218.619 130.171,218.125C 129.832,217.435 130.117,216.599 130.809,216.26C 133.164,215.104 135.604,214.055 138.059,213.139C 138.777,212.871 139.584,213.236 139.852,213.959C 140.121,214.68 139.753,215.483 139.032,215.751C 136.664,216.635 134.309,217.648 132.036,218.763C 131.839,218.86 131.63,218.905 131.424,218.905 Z M 115.243,229.499C 114.848,229.499 114.454,229.332 114.178,229.005C 113.681,228.417 113.754,227.539 114.341,227.04C 116.343,225.345 118.452,223.731 120.608,222.243C 121.241,221.803 122.11,221.964 122.547,222.597C 122.984,223.231 122.825,224.099 122.191,224.536C 120.111,225.973 118.075,227.531 116.144,229.168C 115.881,229.389 115.562,229.499 115.243,229.499 Z M 102.12,243.715C 101.839,243.715 101.555,243.631 101.309,243.453C 100.684,243.005 100.54,242.135 100.989,241.508C 102.515,239.381 104.168,237.303 105.9,235.329C 106.408,234.752 107.29,234.696 107.869,235.203C 108.446,235.711 108.503,236.592 107.995,237.169C 106.322,239.075 104.727,241.081 103.255,243.133C 102.982,243.513 102.555,243.715 102.12,243.715 Z M 92.8633,260.705C 92.694,260.705 92.5208,260.675 92.3535,260.608C 91.6373,260.327 91.2852,259.517 91.5664,258.8C 92.5273,256.36 93.6211,253.941 94.8191,251.608C 95.1705,250.923 96.0111,250.653 96.6967,251.004C 97.3815,251.356 97.6517,252.196 97.2995,252.881C 96.1439,255.132 95.0879,257.468 94.1615,259.821C 93.9453,260.369 93.4192,260.705 92.8633,260.705 Z M 88.0684,279.452C 88.0091,279.452 87.9499,279.448 87.8907,279.441C 87.1269,279.344 86.5865,278.645 86.6836,277.883C 87.0143,275.28 87.4792,272.667 88.0651,270.112C 88.2376,269.361 88.9883,268.895 89.7357,269.065C 90.4857,269.237 90.9551,269.985 90.7825,270.736C 90.2168,273.2 89.7689,275.723 89.4499,278.233C 89.36,278.939 88.7604,279.452 88.0684,279.452 Z M 87.9844,298.797C 87.2877,298.797 86.6861,298.276 86.6016,297.567C 86.2943,294.972 86.1113,292.324 86.0585,289.693C 86.0436,288.924 86.6549,288.288 87.4245,288.272C 88.2103,288.304 88.8307,288.869 88.8464,289.639C 88.8971,292.176 89.0743,294.733 89.3711,297.239C 89.4616,298.003 88.9147,298.697 88.1504,298.788C 88.0944,298.793 88.0391,298.797 87.9844,298.797 Z M 92.6237,317.581C 92.0637,317.581 91.5352,317.24 91.3223,316.685C 90.3821,314.236 89.5553,311.712 88.8645,309.184C 88.6608,308.441 89.0983,307.675 89.8412,307.472C 90.584,307.267 91.3509,307.705 91.5533,308.448C 92.2207,310.888 93.0189,313.323 93.9251,315.687C 94.2012,316.405 93.8424,317.212 93.1237,317.488C 92.9589,317.551 92.7897,317.581 92.6237,317.581 Z "/>
	<path fill="#7767BA" fill-opacity="1" stroke-width="1.39408" stroke-linejoin="round" d="M 191.68,215.233C 191.513,215.233 191.344,215.204 191.18,215.14C 190.013,214.693 188.856,214.281 187.74,213.919C 187.008,213.68 186.608,212.893 186.847,212.161C 187.084,211.429 187.872,211.028 188.604,211.268C 189.764,211.645 190.967,212.072 192.179,212.537C 192.897,212.813 193.256,213.619 192.981,214.337C 192.769,214.892 192.24,215.233 191.68,215.233 Z "/>
	<path fill="#7767BA" fill-opacity="1" stroke-width="1.39408" stroke-linejoin="round" d="M 400.933,503.864C 400.588,503.864 400.243,503.744 399.965,503.496C 398.005,501.756 396.083,499.928 394.244,498.063C 393.677,497.485 393.687,496.563 394.26,495.996C 394.835,495.429 395.761,495.437 396.327,496.012C 398.119,497.833 399.995,499.616 401.904,501.312C 402.508,501.847 402.563,502.769 402.027,503.373C 401.737,503.697 401.337,503.864 400.933,503.864 Z M 416.528,515.505C 416.265,515.505 415.999,515.433 415.757,515.284C 413.539,513.905 411.332,512.425 409.201,510.892C 408.547,510.419 408.399,509.508 408.869,508.853C 409.343,508.197 410.252,508.052 410.909,508.521C 412.987,510.017 415.139,511.457 417.303,512.804C 417.987,513.229 418.196,514.131 417.771,514.815C 417.493,515.26 417.019,515.505 416.528,515.505 Z M 433.873,524.333C 433.691,524.333 433.504,524.3 433.324,524.225C 430.893,523.24 428.468,522.159 426.113,521.011C 425.389,520.656 425.088,519.783 425.441,519.056C 425.796,518.331 426.665,518.029 427.396,518.385C 429.689,519.504 432.052,520.559 434.421,521.52C 435.169,521.821 435.529,522.675 435.227,523.42C 434.996,523.989 434.451,524.333 433.873,524.333 Z M 452.472,530.076C 452.371,530.076 452.265,530.065 452.161,530.043C 449.592,529.484 447.017,528.833 444.508,528.104C 443.733,527.879 443.287,527.069 443.511,526.295C 443.739,525.519 444.552,525.076 445.321,525.297C 447.768,526.008 450.277,526.643 452.781,527.188C 453.571,527.359 454.071,528.137 453.9,528.925C 453.751,529.609 453.145,530.076 452.472,530.076 Z M 483.455,532.489C 482.685,532.489 482.041,531.889 481.997,531.112C 481.952,530.305 482.567,529.616 483.372,529.571C 485.923,529.424 488.5,529.192 491.035,528.872C 491.86,528.788 492.568,529.343 492.667,530.139C 492.768,530.94 492.2,531.672 491.4,531.772C 488.799,532.097 486.153,532.339 483.455,532.489 Z M 471.709,532.567C 469.087,532.452 466.441,532.247 463.844,531.956C 463.041,531.867 462.465,531.144 462.555,530.343C 462.643,529.541 463.332,528.952 464.168,529.053C 466.699,529.335 469.281,529.535 471.837,529.647C 472.643,529.683 473.268,530.364 473.233,531.171C 473.199,531.955 472.552,532.568 471.775,532.568 Z "/>
	<path fill="#7767BA" fill-opacity="1" stroke-width="1.39408" stroke-linejoin="round" d="M 578.799,385.531C 578.247,385.531 577.723,385.2 577.505,384.656C 576.599,382.404 575.6,380.144 574.533,377.947C 574.197,377.252 574.487,376.419 575.18,376.083C 575.873,375.748 576.708,376.037 577.041,376.729C 578.137,378.985 579.163,381.304 580.091,383.617C 580.379,384.331 580.032,385.143 579.319,385.429C 579.148,385.497 578.972,385.531 578.799,385.531 Z M 584.228,403.285C 583.584,403.285 583.007,402.837 582.865,402.184C 582.355,399.801 581.753,397.405 581.083,395.065C 580.869,394.324 581.299,393.552 582.036,393.34C 582.788,393.127 583.549,393.555 583.761,394.295C 584.452,396.696 585.068,399.153 585.591,401.597C 585.753,402.352 585.275,403.092 584.523,403.253C 584.421,403.275 584.324,403.285 584.228,403.285 Z M 586.559,421.703C 585.815,421.703 585.196,421.117 585.167,420.365C 585.068,417.933 584.883,415.472 584.619,413.047C 584.535,412.283 585.088,411.593 585.853,411.511C 586.628,411.424 587.307,411.979 587.391,412.745C 587.661,415.233 587.851,417.757 587.952,420.252C 587.983,421.021 587.385,421.671 586.559,421.703 Z M 585.764,440.257C 585.705,440.257 585.645,440.253 585.585,440.248C 584.823,440.148 584.283,439.451 584.38,438.688C 584.689,436.277 584.919,433.819 585.065,431.376C 585.109,430.605 585.769,430.027 586.539,430.068C 587.307,430.113 587.893,430.773 587.848,431.541C 587.699,434.047 587.463,436.571 587.145,439.04C 587.057,439.745 586.456,440.257 585.764,440.257 Z "/>
	<path fill="#7767BA" fill-opacity="1" stroke-width="1.39408" stroke-linejoin="round" d="M 454.885,80.0807C 452.387,79.9232 449.845,79.8314 447.347,79.8464C 447.008,79.8464 446.672,79.8489 446.335,79.8523C 445.388,79.8756 444.7,79.14 444.692,78.2422C 444.681,77.3438 445.404,76.6082 446.303,76.5983C 446.701,76.5951 447.107,76.5951 447.501,76.5931C 450.02,76.5931 452.576,76.6739 455.092,76.834C 455.988,76.8914 456.669,77.664 456.612,78.5599C 456.557,79.4219 455.841,80.084 454.989,80.084 Z M 424.769,82.0736C 424.009,82.0736 423.329,81.5377 423.176,80.7638C 423,79.8821 423.573,79.026 424.453,78.851C 427.316,78.2826 430.239,77.8151 433.14,77.4616C 434.039,77.3568 434.843,77.9876 434.952,78.8796C 435.06,79.7715 434.425,80.5827 433.532,80.6908C 430.712,81.0345 427.871,81.4896 425.088,82.0423C 424.98,82.0632 424.875,82.0736 424.769,82.0736 Z M 476.38,83.4727C 476.248,83.4727 476.111,83.4564 475.975,83.4219C 473.231,82.7181 470.419,82.1087 467.617,81.6113C 466.732,81.4537 466.143,80.61 466.301,79.7252C 466.457,78.8417 467.295,78.2559 468.187,78.4076C 471.067,78.9199 473.96,79.5457 476.784,80.2701C 477.653,80.4935 478.177,81.3796 477.955,82.25C 477.767,82.9851 477.105,83.4727 476.38,83.4727 Z M 404.021,88.2753C 403.377,88.2753 402.769,87.8912 402.512,87.2584C 402.176,86.4258 402.577,85.4772 403.411,85.1407C 406.124,84.0416 408.908,83.0359 411.683,82.1498C 412.544,81.8738 413.455,82.3483 413.727,83.2037C 414.001,84.0599 413.528,84.9752 412.673,85.248C 409.975,86.11 407.268,87.0886 404.631,88.1563C 404.429,88.2369 404.224,88.2753 404.021,88.2753 Z M 496.771,90.8085C 496.539,90.8085 496.304,90.7591 496.08,90.6536C 493.509,89.444 490.86,88.3184 488.204,87.3067C 487.365,86.9869 486.944,86.0468 487.264,85.2071C 487.584,84.3666 488.524,83.9472 489.364,84.2663C 492.093,85.3074 494.819,86.4662 497.465,87.7103C 498.277,88.0931 498.627,89.0612 498.244,89.8744C 497.968,90.4635 497.381,90.8085 496.771,90.8085 Z M 384.801,98.248C 384.265,98.248 383.744,97.9851 383.431,97.502C 382.945,96.7473 383.164,95.7403 383.919,95.2539C 386.381,93.6674 388.927,92.1588 391.487,90.7701C 392.275,90.3424 393.265,90.6348 393.693,91.4232C 394.121,92.213 393.828,93.2006 393.039,93.629C 390.552,94.9792 388.076,96.4467 385.681,97.989C 385.409,98.1647 385.103,98.248 384.801,98.248 Z M 515.428,101.824C 515.097,101.824 514.764,101.723 514.475,101.515C 512.171,99.8451 509.777,98.2448 507.363,96.7584C 506.599,96.2864 506.361,95.2845 506.832,94.5195C 507.304,93.7565 508.305,93.5189 509.071,93.9876C 511.552,95.517 514.013,97.1635 516.384,98.879C 517.111,99.4063 517.275,100.423 516.748,101.151C 516.429,101.591 515.932,101.824 515.428,101.824 Z M 367.761,111.623C 367.332,111.623 366.901,111.452 366.583,111.115C 365.964,110.463 365.991,109.433 366.643,108.815C 368.768,106.802 370.991,104.847 373.251,103.006C 373.948,102.437 374.971,102.542 375.537,103.238C 376.105,103.935 376.003,104.96 375.305,105.527C 373.109,107.318 370.948,109.219 368.88,111.177C 368.567,111.475 368.163,111.623 367.761,111.623 Z M 531.716,116.107C 531.285,116.107 530.855,115.936 530.535,115.599C 528.585,113.538 526.529,111.523 524.427,109.608C 523.763,109.003 523.713,107.974 524.319,107.31C 524.924,106.644 525.952,106.597 526.617,107.202C 528.78,109.171 530.893,111.244 532.899,113.362C 533.515,114.015 533.488,115.044 532.835,115.662C 532.52,115.96 532.119,116.107 531.716,116.107 Z M 353.489,127.921C 353.159,127.921 352.827,127.82 352.537,127.612C 351.809,127.085 351.647,126.068 352.173,125.341C 353.888,122.968 355.711,120.636 357.592,118.408C 358.172,117.723 359.195,117.635 359.884,118.214C 360.571,118.794 360.657,119.82 360.079,120.507C 358.251,122.673 356.476,124.94 354.809,127.246C 354.492,127.686 353.993,127.921 353.489,127.921 Z M 545.08,133.153C 544.544,133.153 544.02,132.889 543.709,132.406C 542.173,130.019 540.528,127.659 538.816,125.391C 538.276,124.674 538.419,123.654 539.136,123.113C 539.855,122.571 540.873,122.714 541.415,123.432C 543.173,125.764 544.865,128.19 546.445,130.646C 546.932,131.401 546.712,132.408 545.959,132.894C 545.685,133.069 545.38,133.153 545.08,133.153 Z M 342.491,146.585C 342.259,146.585 342.025,146.536 341.801,146.431C 340.987,146.049 340.639,145.08 341.02,144.267C 342.264,141.615 343.623,138.984 345.056,136.447C 345.496,135.665 346.487,135.389 347.272,135.832C 348.053,136.275 348.331,137.265 347.888,138.048C 346.495,140.513 345.175,143.071 343.965,145.649C 343.688,146.24 343.103,146.585 342.491,146.585 Z M 555.032,152.377C 554.389,152.377 553.78,151.993 553.524,151.359C 552.464,148.733 551.285,146.109 550.027,143.559C 549.628,142.753 549.959,141.777 550.764,141.381C 551.571,140.983 552.544,141.312 552.943,142.117C 554.239,144.74 555.449,147.44 556.54,150.14C 556.876,150.973 556.473,151.921 555.641,152.259C 555.441,152.339 555.235,152.377 555.032,152.377 Z M 561.217,173.133C 560.456,173.133 559.776,172.596 559.623,171.821C 559.072,169.04 558.408,166.24 557.647,163.501C 557.407,162.636 557.915,161.739 558.78,161.499C 559.636,161.26 560.541,161.765 560.781,162.632C 561.564,165.449 562.248,168.328 562.813,171.191C 562.988,172.071 562.417,172.927 561.533,173.101C 561.428,173.123 561.321,173.133 561.217,173.133 Z "/>
	<path fill="#8D1B3D" fill-opacity="1" stroke-width="1.39408" stroke-linejoin="round" d="M 274.203,326.369C 274.203,335.111 275.917,343.447 279.027,351.073L 259.259,359.103L 216.139,376.612C 212.627,367.996 209.992,358.893 208.347,349.469L 192.956,349.469C 187.296,349.469 182.709,344.855 182.709,339.208L 182.709,313.529C 182.709,307.869 187.296,303.283 192.943,303.283L 208.333,303.283C 211.776,283.627 219.5,265.448 230.527,249.749L 219.639,238.863C 215.637,234.848 215.637,228.365 219.639,224.351L 237.804,206.185C 241.805,202.197 248.301,202.197 252.303,206.185L 263.204,217.087C 271.36,211.343 280.197,206.505 289.565,202.7L 306.267,243.797L 315.12,265.573C 291.113,275.332 274.203,298.877 274.203,326.369 Z "/>
	<path fill="#481328" fill-opacity="1" stroke-width="1.39408" stroke-linejoin="round" d="M 274.203,326.369C 274.203,335.111 275.917,343.447 279.027,351.073L 259.259,359.103C 255.369,348.981 253.236,337.996 253.236,326.508C 253.236,289.816 274.971,258.199 306.267,243.797L 315.12,265.573C 291.113,275.332 274.203,298.877 274.203,326.369 Z "/>
	<path fill="#AF9BD4" fill-opacity="1" stroke-width="1.39408" stroke-linejoin="round" d="M 118.054,432.441C 118.054,432.441 115.384,434.488 113.296,436.883C 112.043,438.32 111.984,440.447 113.213,441.904C 115.315,444.396 119.361,448.189 125.737,450.237C 125.941,450.304 126.151,450.352 126.363,450.384C 127.546,450.569 131.633,451.109 135.653,450.509C 138.531,450.08 139.845,446.655 137.915,444.477C 135.872,442.176 132.324,440.179 126.385,441.768C 126.385,441.768 125.027,439.959 125.57,437.603C 125.57,437.603 120.092,435.429 118.054,432.441 Z "/>
	<path fill="#998ECE" fill-opacity="1" stroke-width="1.39408" stroke-linejoin="round" d="M 135.656,450.508C 131.636,451.104 127.546,450.564 126.367,450.38C 126.154,450.352 125.941,450.308 125.743,450.237C 119.366,448.193 115.318,444.401 113.217,441.901C 112.152,440.651 112.052,438.905 112.847,437.528C 112.961,438.095 113.231,438.648 113.628,439.117C 115.73,441.617 119.778,445.409 126.154,447.455C 126.353,447.525 126.566,447.568 126.779,447.596C 127.958,447.781 132.048,448.335 136.067,447.724C 137.247,447.553 138.169,446.871 138.709,445.976C 139.22,447.965 137.913,450.167 135.656,450.508 Z "/>
	<path fill="#4A3987" fill-opacity="1" stroke-width="1.39408" stroke-linejoin="round" d="M 143.853,373.701C 143.853,373.701 145.916,390.147 146.856,400.144C 147.237,404.211 146.231,408.28 143.991,411.693C 140.045,417.704 133.158,431.157 126.501,437.701C 125.966,438.228 125.25,438.511 124.5,438.533C 123.033,438.58 120.543,438.168 117.868,435.579C 116.775,434.521 116.624,432.813 117.531,431.592C 119.894,428.408 124.646,420.197 128.067,413.137C 130.546,408.02 131.325,402.255 130.314,396.66C 129.953,394.657 129.558,392.48 129.179,390.413C 128.508,386.748 127.633,383.127 126.478,379.584C 124.641,373.957 122.182,363.405 127.486,358.489C 127.486,358.489 133.425,367.101 143.853,373.701 Z "/>
	<path fill="#3C377B" fill-opacity="1" stroke-width="1.39408" stroke-linejoin="round" d="M 132.247,414.279C 128.569,421.905 123.442,430.752 120.885,434.191C 120.147,435.197 120.062,436.504 120.587,437.569C 119.721,437.129 118.812,436.491 117.875,435.581C 116.781,434.517 116.625,432.812 117.534,431.591C 119.891,428.409 124.649,420.2 128.072,413.141C 130.543,408.016 131.324,402.249 130.316,396.655C 129.946,394.652 129.563,392.479 129.18,390.407C 128.512,386.755 127.631,383.12 126.481,379.583C 124.635,373.96 122.178,363.408 127.49,358.495C 127.49,358.495 127.93,359.147 128.796,360.212C 127.177,365.936 129.037,373.52 130.543,378.107C 131.792,381.913 132.73,385.832 133.455,389.781C 133.865,392.011 134.292,394.355 134.676,396.512C 135.769,402.548 134.931,408.768 132.247,414.279 Z "/>
	<path fill="#AF9BD4" fill-opacity="1" stroke-width="1.39408" stroke-linejoin="round" d="M 149.86,435.445C 149.86,435.445 147.343,438.803 146.245,444.089C 145.795,446.259 147.048,448.419 149.148,449.131C 153.479,450.597 161.459,452.531 170.021,450.76C 172.857,450.173 173.543,446.409 171.117,444.824C 168.875,443.359 165.604,442.263 161.06,443.001C 161.06,443.001 159.06,440.913 158.437,437.624C 158.437,437.624 152.837,438.761 149.86,435.445 Z "/>
	<path fill="#998ECE" fill-opacity="1" stroke-width="1.39408" stroke-linejoin="round" d="M 170.024,450.763C 161.464,452.533 153.475,450.596 149.153,449.133C 147.049,448.421 145.795,446.26 146.253,444.016C 146.756,444.839 147.551,445.48 148.54,445.813C 152.861,447.292 160.851,449.216 169.409,447.445C 170.623,447.195 171.431,446.372 171.779,445.383C 173.369,447.167 172.56,450.235 170.024,450.763 Z "/>
	<path fill="#4A3987" fill-opacity="1" stroke-width="1.39408" stroke-linejoin="round" d="M 167.371,375.193C 167.371,375.193 170.135,388.064 171.468,399.32C 172.147,405.048 171.468,410.844 169.492,416.263C 167.04,422.991 163.211,433.64 159.325,438.209C 158.941,438.661 158.444,439.004 157.887,439.207C 156.597,439.676 154.068,440.169 150.731,438.735C 148.957,437.972 148.179,435.88 149.017,434.141C 151.139,429.747 155.195,417.552 157.497,410.767C 157.852,409.72 157.821,408.591 157.408,407.567C 155.249,402.229 148.336,384.404 149.237,377.191C 149.237,377.191 157.237,380.929 167.371,375.193 Z "/>
	<path fill="#3C377B" fill-opacity="1" stroke-width="1.39408" stroke-linejoin="round" d="M 152.932,435.568C 152.277,436.933 152.556,438.509 153.531,439.555C 152.681,439.416 151.747,439.164 150.729,438.733C 148.959,437.979 148.177,435.875 149.015,434.145C 151.133,429.741 155.191,417.556 157.491,410.767C 157.853,409.721 157.825,408.592 157.407,407.561C 155.247,402.236 148.332,384.405 149.237,377.184C 149.237,377.184 150.687,377.867 153.127,378.201C 153.656,386.859 159.735,402.515 161.771,407.575C 162.203,408.648 162.244,409.848 161.868,410.948C 159.443,418.1 155.163,430.94 152.932,435.568 Z "/>
	<path fill="#F6CAD9" fill-opacity="1" stroke-width="1.39408" stroke-linejoin="round" d="M 209.091,267.765C 210.271,264.116 212.999,260.997 216.459,259.344C 219.917,257.692 224.059,257.527 227.639,258.901C 228.679,259.301 229.687,259.835 230.477,260.62C 231.56,261.696 232.176,263.229 232.129,264.756C 232.083,266.283 231.373,267.779 230.216,268.776C 229.244,269.615 228.009,270.087 226.772,270.433C 224.524,271.064 222.191,271.332 219.9,271.787C 217.609,272.241 215.309,272.907 213.385,274.229C 210.896,273.064 208.247,270.381 209.091,267.765 Z "/>
	<path fill="#F4BED3" fill-opacity="1" stroke-width="1.39408" stroke-linejoin="round" d="M 232.129,264.751C 232.088,266.284 231.377,267.776 230.22,268.779C 229.244,269.616 228.003,270.089 226.777,270.439C 224.517,271.065 222.191,271.331 219.904,271.791C 217.604,272.237 215.317,272.907 213.379,274.231C 212.139,273.645 210.869,272.697 210.005,271.555C 211.985,270.272 214.328,269.603 216.655,269.141C 219.109,268.655 221.591,268.375 224.001,267.692C 225.312,267.329 226.637,266.828 227.683,265.921C 228.909,264.861 229.676,263.259 229.719,261.628C 229.732,261.028 229.663,260.416 229.495,259.844C 229.843,260.067 230.177,260.317 230.471,260.624C 231.557,261.697 232.171,263.231 232.129,264.751 Z "/>
	<path fill="#1D6DA2" fill-opacity="1" stroke-width="1.39408" stroke-linejoin="round" d="M 158.44,308.655C 162.959,300.231 180.348,271.049 209.231,260.888C 210.803,260.335 212.579,260.831 213.629,262.125C 214.825,263.599 216.273,266.113 217.38,270.327C 217.913,272.355 216.857,274.472 214.893,275.207C 206.475,278.356 183.845,288.932 169.733,315.533C 167.957,318.883 163.5,319.797 160.688,317.255C 159.8,316.451 158.964,315.364 158.279,313.899C 157.496,312.228 157.567,310.28 158.44,308.655 Z "/>
	<path fill="#1E79B6" fill-opacity="1" stroke-width="1.39408" stroke-linejoin="round" d="M 214.899,275.207C 206.479,278.357 183.852,288.939 169.731,315.537C 167.96,318.883 163.499,319.804 160.683,317.252C 160.251,316.861 159.819,316.388 159.428,315.844C 162.077,316.444 165.004,315.203 166.399,312.583C 181.496,284.128 205.697,272.823 214.704,269.448C 215.527,269.141 216.195,268.612 216.669,267.957C 216.92,268.683 217.157,269.463 217.38,270.327C 217.911,272.348 216.864,274.468 214.899,275.207 Z "/>
	<path fill="#1E79B6" fill-opacity="1" stroke-width="1.39408" stroke-linejoin="round" d="M 165.475,298.251C 165.475,298.251 184.088,330.099 176.315,369.352C 175.293,374.509 171.163,378.527 165.984,379.444C 156.335,381.152 139.887,381.187 124.373,367.559C 119.788,363.529 118.759,356.803 121.752,351.481C 123.564,348.261 126.061,344.579 129.399,341.084C 135.271,334.94 139.905,327.695 143.013,319.784C 145.681,312.999 149.676,304.887 155.297,298.251L 165.475,298.251 Z "/>
	<path fill="#1D6DA2" fill-opacity="1" stroke-width="1.39408" stroke-linejoin="round" d="M 176.311,369.349C 175.293,374.507 171.167,378.523 165.98,379.441C 157.029,381.031 142.239,381.171 127.755,370.324C 139.172,375.705 150.004,375.357 157.128,374.103C 162.313,373.183 166.44,369.168 167.457,364.009C 173.341,334.344 164.14,308.901 159.303,298.251L 165.479,298.251C 165.479,298.251 184.089,330.105 176.311,369.349 Z "/>
	<path fill="#F6CAD9" fill-opacity="1" stroke-width="1.39408" stroke-linejoin="round" d="M 205.543,360.291C 207.052,361.497 209.008,361.987 210.921,362.268C 212.833,362.551 214.788,362.66 216.629,363.247C 218.472,363.833 220.245,364.995 221.013,366.769C 221.977,368.991 221.08,371.727 219.28,373.349C 217.481,374.971 214.968,375.608 212.545,375.604C 208.344,375.597 204.176,373.748 201.355,370.635C 204.196,368.043 205.437,364.136 205.543,360.291 Z "/>
	<path fill="#F3CABF" fill-opacity="1" stroke-width="1.39408" stroke-linejoin="round" d="M 219.276,373.351C 217.477,374.968 214.969,375.608 212.543,375.608C 208.347,375.595 204.179,373.753 201.348,370.632C 201.892,370.143 202.365,369.6 202.799,369.028C 205.405,370.993 208.639,372.109 211.901,372.124C 214.328,372.124 216.836,371.481 218.635,369.864C 219.708,368.903 220.461,367.536 220.684,366.129C 220.809,366.337 220.921,366.547 221.019,366.769C 221.98,368.987 221.075,371.733 219.276,373.351 Z "/>
	<path fill="#1E79B6" fill-opacity="1" stroke-width="1.39408" stroke-linejoin="round" d="M 149.949,327.577C 152.621,335.464 163.897,361.512 199.108,373.261C 200.952,373.877 203.007,373.341 204.224,371.824C 205.699,369.987 207.305,366.819 207.565,361.6C 207.652,359.857 206.54,358.263 204.864,357.773C 197.491,355.617 176.704,347.409 164.28,321.091C 161.044,314.232 150.928,315.532 149.569,322.993L 149.565,323.015C 149.288,324.541 149.452,326.108 149.949,327.577 Z "/>
	<path fill="#1E79B6" fill-opacity="1" stroke-width="1.39408" stroke-linejoin="round" d="M 205.433,369.989C 205.068,370.66 204.685,371.231 204.309,371.712C 203.079,373.293 200.992,373.896 199.091,373.261C 164.732,361.788 153.168,336.7 150.155,328.177C 149.76,327.063 149.572,325.887 149.572,324.705L 149.572,322.996C 150.073,320.291 151.732,318.423 153.824,317.475C 153.643,317.921 153.503,318.409 153.405,318.952C 153.127,320.472 153.28,322.048 153.781,323.511C 156.515,331.583 168.252,358.671 205.433,369.989 Z "/>
	<path fill="#F6CAD9" fill-opacity="1" stroke-width="1.39408" stroke-linejoin="round" d="M 160.313,303.636L 160.313,303.636C 157.452,303.636 155.131,301.316 155.131,298.453L 155.131,278.727L 165.497,278.727L 165.497,298.453C 165.497,301.316 163.176,303.636 160.313,303.636 Z "/>
	<path fill="#F6CAD9" fill-opacity="1" stroke-width="1.39408" stroke-linejoin="round" d="M 168.261,289.009L 168.261,289.009C 175.908,289.009 182.108,282.811 182.108,275.165L 182.108,253.889L 154.417,253.889L 154.417,275.165C 154.417,282.811 160.615,289.009 168.261,289.009 Z "/>
	<path fill="#F4BED3" fill-opacity="1" stroke-width="1.39408" stroke-linejoin="round" d="M 182.111,273.937L 182.111,275.165C 182.111,282.817 175.907,289.008 168.267,289.008C 160.613,289.008 154.423,282.817 154.423,275.165L 154.423,274.872C 156.04,280.964 161.575,285.439 168.169,285.439C 175.084,285.439 180.856,280.489 182.111,273.937 Z "/>
	<path fill="#4A3987" fill-opacity="1" stroke-width="1.39408" stroke-linejoin="round" d="M 154.417,256.217C 154.417,256.217 177.813,260.627 186.587,253.536C 190.273,250.559 189.941,244.825 186.199,241.917C 182.985,239.42 177.597,238.341 169.823,246.596C 169.823,246.596 158.851,246.039 151.26,244.816C 149.18,244.481 147.169,245.733 146.573,247.753C 145.575,251.136 144.24,256.483 143.836,262.016C 143.836,262.016 147.84,259.507 154.417,267.568L 154.417,256.217 Z "/>
	<path fill="#3A3575" fill-opacity="1" stroke-width="1.39408" stroke-linejoin="round" d="M 186.584,253.543C 177.816,260.624 154.423,256.219 154.423,256.219L 154.423,267.567C 152.988,265.796 151.663,264.541 150.492,263.664C 151.176,260.233 151.607,256.715 151.757,253.235C 151.812,251.969 152.971,251.067 154.223,251.256C 154.513,251.301 154.804,251.341 155.092,251.381C 158.201,251.785 161.296,252.204 164.405,252.608C 167.653,253.04 170.944,253.472 174.205,253.068C 177.453,252.664 180.716,251.325 182.779,248.775C 184.577,246.557 185.232,243.309 184.145,240.717C 184.912,241.024 185.595,241.441 186.195,241.916C 189.944,244.829 190.279,250.559 186.584,253.543 Z "/>
	<path fill="#F6CAD9" fill-opacity="1" stroke-width="1.39408" stroke-linejoin="round" d="M 154.417,267.568C 154.417,267.568 150.911,262.797 146.643,261.767C 142.467,260.759 138.695,264.973 139.733,269.143C 140.756,273.245 144.044,278.691 154.417,277.424L 154.417,267.568 Z "/>
	<path fill="#F4BED3" fill-opacity="1" stroke-width="1.39408" stroke-linejoin="round" d="M 154.423,275.165L 154.423,277.423C 144.052,278.692 140.761,273.24 139.729,269.141C 139.228,267.107 139.869,265.057 141.165,263.608C 140.859,264.597 140.804,265.685 141.068,266.759C 142.044,270.689 145.097,275.833 154.423,275.165 Z "/>
	<path fill="#1D6DA2" fill-opacity="1" stroke-width="1.39408" stroke-linejoin="round" d="M 479.287,280.755L 441.787,295.992L 416.415,306.308C 406.669,282.316 383.124,265.392 355.632,265.392C 346.891,265.392 338.54,267.107 330.928,270.216L 323.011,250.74L 305.375,207.343C 314.019,203.815 323.093,201.193 332.532,199.549L 332.532,184.159C 332.532,178.499 337.133,173.899 342.779,173.899L 368.457,173.899C 374.117,173.899 378.717,178.499 378.717,184.159L 378.717,199.535C 398.361,202.965 416.553,210.701 432.237,221.729L 443.139,210.841C 447.139,206.84 453.636,206.84 457.637,210.841L 475.803,228.992C 479.804,233.007 479.804,239.489 475.803,243.504L 464.915,254.392C 470.643,262.561 475.495,271.387 479.287,280.755 Z "/>
	<path fill="#1E79B6" fill-opacity="1" stroke-width="1.39408" stroke-linejoin="round" d="M 441.787,295.992L 416.415,306.308C 406.669,282.316 383.124,265.392 355.632,265.392C 346.891,265.392 338.54,267.107 330.928,270.216L 323.011,250.74C 333.66,246.572 345.273,244.285 357.417,244.285C 394.235,244.285 426.131,265.295 441.787,295.992 Z "/>
	<path fill="#F3D7CD" fill-opacity="1" stroke-width="1.39408" stroke-linejoin="round" d="M 485.923,255.629L 489.121,264.051C 489.591,265.289 489.081,266.679 487.921,267.323C 486.172,268.295 483.424,269.496 480.381,269.607C 479.228,269.649 478.205,268.856 477.856,267.755L 475.051,258.953L 485.923,255.629 Z "/>
	<path fill="#4A3987" fill-opacity="1" stroke-width="1.39408" stroke-linejoin="round" d="M 481.349,204.379C 481.349,204.379 473.513,209.863 466.617,214.144C 462.187,216.895 460.028,222.175 461.26,227.241C 463.077,234.703 466.993,248.817 470.701,258.505C 471.051,259.419 471.879,260.057 472.852,260.161C 475.683,260.461 481.84,260.593 487.772,257.259C 488.939,256.601 489.384,255.139 488.837,253.916C 486.375,248.412 478.355,231.52 478.084,225.292C 478.084,225.292 499.211,217.155 506.553,207.616C 506.553,207.616 489.089,211.028 481.349,204.379 Z "/>
	<path fill="#3A3575" fill-opacity="1" stroke-width="1.39408" stroke-linejoin="round" d="M 478.079,225.293C 478.349,231.519 486.377,248.416 488.836,253.916C 489.391,255.137 488.936,256.601 487.771,257.255C 486.791,257.809 485.796,258.277 484.801,258.648L 484.801,258.633C 482.737,254.019 475.26,236.713 472.749,227.588C 472.112,225.276 473.299,222.863 475.496,221.904C 481.008,219.5 491.601,214.425 497.861,208.481C 502.735,208.368 506.557,207.615 506.557,207.615C 499.211,217.151 478.079,225.293 478.079,225.293 Z "/>
	<path fill="#4A3987" fill-opacity="1" stroke-width="1.39408" stroke-linejoin="round" d="M 488.332,261.924L 492.633,275.035C 493.225,276.839 492.376,278.808 490.643,279.58C 485.815,281.725 475.08,285.201 458.216,283.8C 456.289,283.639 454.892,281.913 455.116,279.992C 455.652,275.395 458.352,268.219 470.351,271.099C 470.351,271.099 475.741,270.009 477.36,266.143C 477.36,266.143 484.984,266.951 488.332,261.924 Z "/>
	<path fill="#3A3575" fill-opacity="1" stroke-width="1.39408" stroke-linejoin="round" d="M 490.645,279.581C 485.813,281.727 475.084,285.193 458.215,283.801C 456.609,283.673 455.373,282.451 455.132,280.945C 471.659,282.211 482.204,278.8 486.965,276.681C 488.697,275.915 489.551,273.939 488.969,272.135L 486.297,264.005C 487.064,263.479 487.76,262.783 488.329,261.931L 492.636,275.033C 493.217,276.837 492.379,278.813 490.645,279.581 Z "/>
	<path fill="#F3D7CD" fill-opacity="1" stroke-width="1.39408" stroke-linejoin="round" d="M 561.212,206.107L 569.023,203.195C 570.172,202.767 571.455,203.248 572.043,204.323C 572.933,205.947 574.029,208.497 574.116,211.313C 574.148,212.381 573.409,213.323 572.388,213.64L 564.228,216.187L 561.212,206.107 Z "/>
	<path fill="#4A3987" fill-opacity="1" stroke-width="1.39408" stroke-linejoin="round" d="M 504.599,200.568C 504.599,200.568 507.015,216.723 511.537,229.009C 512.663,232.067 515.804,233.88 519.001,233.253C 528.876,231.317 550.44,226.655 564.609,220.373C 565.909,219.797 566.736,218.489 566.639,217.071C 566.444,214.192 565.693,209.192 562.932,205.156C 562.069,203.892 560.457,203.377 559.016,203.887C 553.452,205.853 538.479,211.028 525.776,214.356C 525.776,214.356 522.832,202.187 521.188,189.308L 504.599,200.568 Z "/>
	<path fill="#3A3575" fill-opacity="1" stroke-width="1.39408" stroke-linejoin="round" d="M 566.643,217.065C 566.728,218.487 565.904,219.795 564.611,220.377C 550.443,226.659 528.869,231.32 519.007,233.252C 515.809,233.877 512.669,232.073 511.531,229.003C 507.013,216.724 504.596,200.567 504.596,200.567L 507.823,198.377C 508.732,203.608 510.92,214.792 514.26,223.859C 515.383,226.915 518.524,228.733 521.721,228.108C 531.413,226.217 552.332,221.684 566.501,215.573C 566.572,216.113 566.615,216.611 566.643,217.065 Z "/>
	<path fill="#4A3987" fill-opacity="1" stroke-width="1.39408" stroke-linejoin="round" d="M 567.664,203.701L 578.5,200.032C 580.237,199.444 582.125,200.296 582.84,201.985C 584.819,206.667 588.089,216.197 586.656,225.384C 586.2,228.304 584.405,230.856 581.803,232.257C 579.98,233.236 577.483,234.193 574.215,234.667C 569.276,235.38 565.528,230.103 567.992,225.763C 569.208,223.623 571.456,221.585 575.456,220.271C 575.456,220.271 575.101,215.795 571.235,214C 571.235,214 571.663,207.376 567.664,203.701 Z "/>
	<path fill="#3A3575" fill-opacity="1" stroke-width="1.39408" stroke-linejoin="round" d="M 586.652,225.379C 586.197,228.307 584.408,230.851 581.805,232.257C 579.987,233.237 577.485,234.191 574.217,234.673C 571.759,235.028 569.613,233.905 568.349,232.159C 568.789,232.187 569.229,232.172 569.697,232.101C 572.968,231.617 575.469,230.665 577.288,229.685C 579.888,228.277 581.679,225.735 582.133,222.807C 583.512,213.996 580.556,204.872 578.567,200.012C 580.3,199.472 582.133,200.325 582.844,201.988C 584.819,206.663 588.087,216.199 586.652,225.379 Z "/>
	<path fill="#8D1B3D" fill-opacity="1" stroke-width="1.39408" stroke-linejoin="round" d="M 463.208,160.959C 466.823,168.544 473.401,184.269 476.153,203.173C 477.004,209.004 482.123,213.239 488.012,213.081C 497.864,212.816 512.197,209.885 521.299,196.681C 523.887,192.925 523.992,187.981 521.62,184.087C 514.684,172.7 497.825,148.693 477.815,146.4C 473.864,145.948 469.904,146.805 466.584,148.997C 466.533,149.031 466.481,149.065 466.431,149.1C 462.564,151.697 461.204,156.753 463.208,160.959 Z "/>
	<path fill="#8D1B3D" fill-opacity="1" stroke-width="1.39408" stroke-linejoin="round" d="M 521.295,196.687C 512.199,209.888 497.861,212.816 488.012,213.087C 482.669,213.228 477.936,209.747 476.501,204.729C 492.659,207.813 504.084,201.22 510.467,195.72C 514.331,192.38 515.241,186.681 512.669,182.248C 499.637,159.836 483.081,149.889 475.548,146.293C 476.303,146.279 477.055,146.321 477.808,146.407C 497.832,148.695 514.687,172.697 521.621,184.081C 523.995,187.975 523.881,192.92 521.295,196.687 Z "/>
	<path fill="#F3D7CD" fill-opacity="1" stroke-width="1.39408" stroke-linejoin="round" d="M 464.215,129.795L 473.337,148.344C 474.181,150.06 474.239,152.1 473.268,153.901C 470.852,158.219 464.473,157.825 462.403,153.333C 460.021,148.167 456.619,140.896 455.028,138.001L 464.215,129.795 Z "/>
	<path fill="#F3D7CD" fill-opacity="1" stroke-width="1.39408" stroke-linejoin="round" d="M 457.191,146.675C 450.327,150.259 441.852,147.584 438.28,140.719L 429.796,124.423L 428.333,121.596L 453.212,108.64L 459.607,120.938L 463.161,127.777C 466.732,134.641 464.068,143.101 457.191,146.675 Z "/>
	<path fill="#F3D7CD" fill-opacity="1" stroke-width="1.39408" stroke-linejoin="round" d="M 464.215,129.795L 463.161,127.777L 459.607,120.938C 459.607,120.938 460.652,115.168 464.001,112.247C 464.848,111.512 465.824,111.094 466.823,110.939C 469.697,110.505 472.783,112.349 473.533,115.487C 474.543,119.652 474.121,126.074 464.215,129.795 Z "/>
	<path fill="#F3CABF" fill-opacity="1" stroke-width="1.39408" stroke-linejoin="round" d="M 464.223,129.794L 463.156,127.776L 463.128,127.719C 471.328,123.939 471.64,118.055 470.689,114.147C 470.376,112.84 469.651,111.76 468.713,110.979C 470.929,111.376 472.948,113.025 473.531,115.483C 474.54,119.647 474.128,126.071 464.223,129.794 Z "/>
	<path fill="#4A3987" fill-opacity="1" stroke-width="1.39408" stroke-linejoin="round" d="M 458.867,96.2057C 457.02,93.6283 453.361,93.3756 451.039,95.5364C 449.048,97.3835 446.599,98.849 444.231,100.204C 440.92,102.113 437.787,104.178 434.473,106.072C 432.783,102.409 428.209,100.734 424.215,101.355C 420.505,101.921 417.067,104.211 415.207,107.48C 413.347,110.736 413.124,114.907 414.723,118.303C 416.063,121.148 418.632,123.4 421.644,124.331C 424.276,125.148 427.092,124.987 429.796,124.423C 430.191,124.34 430.571,124.258 430.948,124.163C 439.717,122 448.177,116.148 453.212,108.64L 459.607,120.938C 459.607,120.938 460.652,115.168 464.001,112.247C 464.848,111.512 465.824,111.094 466.823,110.939C 464.797,105.213 461.521,99.942 458.867,96.2057 Z "/>
	<path fill="#3A3575" fill-opacity="1" stroke-width="1.39408" stroke-linejoin="round" d="M 461.991,114.702C 460.215,117.587 459.604,120.94 459.604,120.94L 453.208,108.633C 448.179,116.151 439.723,122.007 430.953,124.166C 430.571,124.251 430.187,124.337 429.803,124.422C 427.088,124.99 424.275,125.147 421.645,124.337C 418.633,123.399 416.06,121.154 414.724,118.297C 414.44,117.714 414.227,117.104 414.057,116.478C 415.165,117.516 416.429,118.382 417.795,119.064C 422.199,121.267 427.485,121.409 432.204,120.003C 436.936,118.596 441.129,115.739 444.668,112.3C 446.972,110.061 448.999,107.659 450.885,105.126C 452.32,103.2 455.251,103.354 456.477,105.42C 458.315,108.513 460.149,111.604 461.991,114.702 Z "/>
	<path fill="#4A3987" fill-opacity="1" stroke-width="1.39408" stroke-linejoin="round" d="M 459.197,120.15C 459.197,120.15 462.777,127.292 458.412,133.503C 458.412,133.503 445.908,130.376 443.003,141.973C 443.003,141.973 441.012,142.125 438.724,141.495C 438.724,141.495 441.343,148.793 450.057,149.415C 454.805,149.752 459.437,147.745 462.668,144.251C 466.977,139.587 470.513,131.321 459.197,120.15 Z "/>
	<path fill="#3A3575" fill-opacity="1" stroke-width="1.39408" stroke-linejoin="round" d="M 462.673,144.247C 459.433,147.743 454.801,149.747 450.053,149.42C 443.644,148.965 440.547,144.887 439.339,142.769C 441.072,144.716 443.928,146.777 448.405,147.104C 453.152,147.444 457.785,145.441 461.011,141.944C 464.549,138.108 467.577,131.826 462.233,123.499C 469.779,132.977 466.539,140.069 462.673,144.247 Z "/>
	<path fill="#F3D7CD" fill-opacity="1" stroke-width="1.39408" stroke-linejoin="round" d="M 463.896,168.388C 459.987,176.688 447.939,194.08 413.316,204.008C 410.689,204.761 408.527,206.695 407.577,209.257C 406.491,212.189 406.088,215.961 409.571,218.365C 411.796,219.901 414.676,220.107 417.22,219.192C 427.92,215.343 464.669,200.332 474.443,172.684C 475.032,171.019 474.924,169.147 473.891,167.559C 471.419,163.88 465.785,164.379 463.896,168.388 Z "/>
	<path fill="#F3CABF" fill-opacity="1" stroke-width="1.39408" stroke-linejoin="round" d="M 474.44,172.684C 464.663,200.325 427.927,215.345 417.225,219.197C 414.683,220.107 411.797,219.908 409.567,218.359C 407.733,217.093 406.979,215.46 406.837,213.768C 407.051,213.968 407.292,214.152 407.563,214.337C 409.779,215.872 412.664,216.084 415.208,215.161C 425.909,211.309 462.659,196.303 472.436,168.663C 472.707,167.909 472.82,167.112 472.777,166.332C 473.191,166.672 473.559,167.071 473.885,167.553C 473.915,167.596 473.943,167.624 473.957,167.667C 474.923,169.145 475.037,171.021 474.44,172.684 Z "/>
	<path fill="#8D1B3D" fill-opacity="1" stroke-width="1.39408" stroke-linejoin="round" d="M 528.653,328.523L 528.653,354.195C 528.653,359.845 524.063,364.451 518.399,364.451L 502.995,364.451C 499.572,384.105 491.844,402.279 480.827,417.968L 491.721,428.861C 495.715,432.868 495.715,439.361 491.721,443.368L 473.56,461.528C 469.553,465.523 463.061,465.523 459.053,461.528L 448.16,450.636C 439.996,456.367 431.168,461.216 421.795,465.007L 396.245,402.157C 420.233,392.404 437.157,368.852 437.157,341.359C 437.157,332.611 435.447,324.271 432.336,316.651L 495.197,291.101C 498.716,299.74 501.352,308.84 503.009,318.268L 518.399,318.268C 524.063,318.268 528.653,322.859 528.653,328.523 Z "/>
	<path fill="#481328" fill-opacity="1" stroke-width="1.39408" stroke-linejoin="round" d="M 528.652,328.516L 528.652,354.195C 528.652,359.841 524.065,364.456 518.405,364.456L 503,364.456C 499.572,384.097 491.848,402.277 480.82,417.973L 491.723,428.861C 495.709,432.863 495.709,439.36 491.723,443.375L 473.557,461.527C 469.556,465.528 463.06,465.528 459.059,461.527L 448.157,450.639C 440.001,456.367 431.163,461.219 421.795,465.011L 412.831,442.957C 455.113,432.543 486.48,394.359 486.48,348.843C 486.48,331.025 481.685,314.352 473.293,300.007L 495.195,291.099C 498.72,299.743 501.356,308.845 503.015,318.269L 518.405,318.269C 524.065,318.269 528.652,322.856 528.652,328.516 Z "/>
	<path fill="#EE6A5E" fill-opacity="1" stroke-width="1.39408" stroke-linejoin="round" d="M 583.195,536.664L 587.349,544.679C 588.156,546.235 587.548,548.151 585.992,548.959L 566.536,559.06C 563.623,560.573 560.415,557.615 561.687,554.588C 563.512,550.248 567.303,544.713 575.144,539.597L 583.195,536.664 Z "/>
	<path fill="#E65952" fill-opacity="1" stroke-width="1.39408" stroke-linejoin="round" d="M 585.991,548.963L 566.543,559.056C 564.633,560.06 562.584,559.112 561.761,557.495L 561.887,557.439L 581.348,547.345C 582.896,546.537 583.509,544.613 582.7,543.067L 579.981,537.839L 583.189,536.667L 587.343,544.683C 588.151,546.231 587.552,548.153 585.991,548.963 Z "/>
	<path fill="#4A3987" fill-opacity="1" stroke-width="1.39408" stroke-linejoin="round" d="M 549.035,481.553C 549.035,481.553 557.141,518.477 571.131,539.667C 571.965,540.929 573.367,541.689 574.879,541.763C 577.392,541.887 581.231,541.624 583.732,539.312C 585.212,537.943 585.596,535.752 584.771,533.913C 581.42,526.457 570.424,497.048 566.495,475.987L 549.035,481.553 Z "/>
	<path fill="#41367E" fill-opacity="1" stroke-width="1.39408" stroke-linejoin="round" d="M 583.732,539.315C 582.84,540.139 581.78,540.709 580.665,541.073C 581.195,539.791 581.167,538.299 580.581,536.987C 577.124,529.292 566.181,500.115 561.44,477.6L 566.501,475.983C 570.417,497.047 581.417,526.463 584.763,533.907C 585.6,535.748 585.209,537.949 583.732,539.315 Z "/>
	<path fill="#EE6A5E" fill-opacity="1" stroke-width="1.39408" stroke-linejoin="round" d="M 520.336,546.781L 518.651,555.649C 518.324,557.372 516.663,558.504 514.939,558.177L 493.401,554.096C 490.176,553.484 489.48,549.176 492.352,547.584C 496.469,545.299 502.868,543.289 512.195,544.115L 520.336,546.781 Z "/>
	<path fill="#E65952" fill-opacity="1" stroke-width="1.39408" stroke-linejoin="round" d="M 520.343,546.788L 518.656,555.655C 518.321,557.368 516.663,558.499 514.933,558.179L 493.396,554.092C 491.249,553.689 490.231,551.639 490.621,549.856L 511.867,553.884C 513.583,554.204 515.241,553.076 515.576,551.347L 516.676,545.576L 520.343,546.788 Z "/>
	<path fill="#4A3987" fill-opacity="1" stroke-width="1.39408" stroke-linejoin="round" d="M 525.66,480.091C 525.66,480.091 509.787,515.468 507.799,540.779C 507.68,542.288 508.32,543.749 509.468,544.737C 511.373,546.379 514.564,548.529 517.956,548.245C 519.967,548.075 521.615,546.584 522.093,544.624C 524.035,536.684 533.009,505.46 542.853,486.431L 525.66,480.091 Z "/>
	<path fill="#41367E" fill-opacity="1" stroke-width="1.39408" stroke-linejoin="round" d="M 542.857,486.424C 533.016,505.453 524.037,536.681 522.099,544.628C 521.612,546.58 519.967,548.071 517.959,548.239C 517.205,548.307 516.468,548.251 515.756,548.099C 515.799,547.945 515.84,547.792 515.881,547.639C 517.987,539.036 527.383,506.317 537.951,484.612L 542.857,486.424 Z "/>
	<path fill="#7767BA" fill-opacity="1" stroke-width="1.39408" stroke-linejoin="round" d="M 540.212,395.145C 540.212,395.145 522.868,416.563 515.691,467.229C 514.472,475.831 519.151,484.317 527.231,487.511C 535.165,490.644 546.571,492.22 560.973,486.545C 569.485,483.195 574.504,474.344 572.831,465.351C 569.384,446.831 562.076,413.979 550.833,395.145L 540.212,395.145 Z "/>
	<path fill="#635DB3" fill-opacity="1" stroke-width="1.39408" stroke-linejoin="round" d="M 560.98,486.549C 546.565,492.224 535.161,490.648 527.229,487.512C 523.271,485.951 520.12,483.107 518.099,479.607C 525.765,483.204 536.891,485.435 551.404,480.904C 560.131,478.171 565.776,469.709 564.757,460.62C 562.876,443.737 558.695,414.991 550.664,395.139L 550.832,395.139C 562.083,413.973 569.387,446.832 572.831,465.345C 574.503,474.337 569.484,483.191 560.98,486.549 Z "/>
	<path fill="#F3D7CD" fill-opacity="1" stroke-width="1.39408" stroke-linejoin="round" d="M 545.523,402.491L 545.523,402.491C 542.589,402.491 540.212,400.113 540.212,397.18L 540.212,376.968L 550.833,376.968L 550.833,397.18C 550.833,400.113 548.456,402.491 545.523,402.491 Z "/>
	<path fill="#F3D7CD" fill-opacity="1" stroke-width="1.39408" stroke-linejoin="round" d="M 542.507,414.78C 532.884,415.343 500.652,414.981 497.537,385.333C 497.537,385.333 500,377.187 494.325,374.959C 490.308,373.383 485.904,376.345 485.543,380.645C 485.351,382.931 485.512,386.069 486.363,390.372C 486.363,390.372 492.829,427.856 543.128,425.896C 545.367,425.808 547.424,424.44 548.195,422.335C 548.211,422.292 548.227,422.248 548.243,422.204C 549.561,418.432 546.495,414.547 542.507,414.78 Z "/>
	<path fill="#F3CABF" fill-opacity="1" stroke-width="1.39408" stroke-linejoin="round" d="M 547.96,422.896C 547.053,424.68 545.157,425.823 543.123,425.893C 492.824,427.859 486.368,390.371 486.368,390.371C 485.519,386.064 485.352,382.927 485.547,380.64C 485.755,378.117 487.372,376.055 489.477,375.107C 488.933,375.971 488.585,376.961 488.503,378.033C 488.307,380.32 488.473,383.457 489.324,387.764C 489.324,387.764 495.793,425.239 546.091,423.287C 546.733,423.257 547.373,423.119 547.96,422.896 Z "/>
	<path fill="#F3D7CD" fill-opacity="1" stroke-width="1.39408" stroke-linejoin="round" d="M 537.833,387.972L 537.833,387.972C 530.653,387.972 524.835,382.152 524.835,374.972L 524.835,354.997L 550.833,354.997L 550.833,374.972C 550.833,382.152 545.013,387.972 537.833,387.972 Z "/>
	<path fill="#4A3987" fill-opacity="1" stroke-width="1.39408" stroke-linejoin="round" d="M 550.833,369.311C 550.833,369.311 544.544,368.232 545.523,361.376C 545.523,361.376 538.468,365.936 535.403,356.848C 535.403,356.848 525.641,359.893 522.204,353.385C 520.564,350.28 521.336,346.379 523.901,343.98C 526.38,341.663 530.619,340.061 537.199,344.429C 537.199,344.429 539.525,336.713 548.297,340.096C 548.297,340.096 552.525,342.315 551.679,348.656C 551.679,348.656 552.151,348.311 552.996,348.063C 556.977,346.895 560.655,350.52 560.008,354.619C 559.903,355.291 559.732,355.983 559.473,356.663C 559.473,356.663 563.299,361.733 561.983,368.839C 561.983,368.839 559.156,360.724 550.833,369.311 Z "/>
	<path fill="#3A3575" fill-opacity="1" stroke-width="1.39408" stroke-linejoin="round" d="M 555.296,365.744C 554.292,366.469 552.004,368.099 550.833,369.311C 550.833,369.311 544.544,368.233 545.52,361.375C 545.52,361.375 538.467,365.933 535.399,356.844C 535.399,356.844 525.64,359.897 522.211,353.387C 520.719,350.571 521.207,347.113 523.229,344.701C 522.992,346.332 523.256,348.033 524.065,349.553C 527.732,356.495 538.132,353.248 538.132,353.248C 541.408,362.936 548.921,358.071 548.921,358.071C 548.057,364.177 553.791,365.744 555.296,365.744 Z "/>
	<path fill="#F3CABF" fill-opacity="1" stroke-width="1.39408" stroke-linejoin="round" d="M 550.832,372.012L 550.832,374.968C 550.832,382.147 545.019,387.973 537.839,387.973C 530.659,387.973 524.832,382.147 524.832,374.968L 524.832,372.012C 524.832,379.192 530.659,385.004 537.839,385.004C 545.019,385.004 550.832,379.192 550.832,372.012 Z "/>
	<path fill="#F3D7CD" fill-opacity="1" stroke-width="1.39408" stroke-linejoin="round" d="M 550.611,369.583C 550.611,369.583 553.319,366.077 556.585,365.289C 559.784,364.517 562.643,367.596 561.849,370.788C 561.067,373.928 558.549,378.096 550.611,377.127L 550.611,369.583 Z "/>
	<path fill="#1D6DA2" fill-opacity="1" stroke-width="1.39408" stroke-linejoin="round" d="M 405.877,456.592C 397.239,460.109 388.151,462.745 378.711,464.403L 378.711,479.792C 378.711,485.456 374.12,490.047 368.456,490.047L 342.784,490.047C 337.133,490.047 332.528,485.456 332.528,479.792L 332.528,464.389C 312.873,460.967 294.699,453.251 279.011,442.221L 268.117,453.115C 264.111,457.108 257.617,457.108 253.611,453.115L 235.449,434.955C 231.456,430.947 231.456,424.455 235.449,420.447L 246.343,409.553C 240.611,401.391 235.761,392.561 231.959,383.189L 294.835,357.637C 304.575,381.627 328.128,398.551 355.633,398.551C 364.367,398.551 372.707,396.84 380.328,393.743L 405.877,456.592 Z "/>
	<path fill="#1E79B6" fill-opacity="1" stroke-width="1.39408" stroke-linejoin="round" d="M 405.875,456.591C 397.245,460.104 388.156,462.739 378.717,464.397L 378.717,479.788C 378.717,485.463 374.117,490.048 368.457,490.048L 342.779,490.048C 337.133,490.048 332.532,485.463 332.532,479.788L 332.532,464.384C 312.875,460.969 294.696,453.245 279.013,442.217L 268.111,453.12C 264.111,457.107 257.613,457.107 253.612,453.12L 235.448,434.955C 231.46,430.953 231.46,424.457 235.448,420.443L 246.349,409.555C 240.605,401.385 235.768,392.56 231.963,383.193L 247.589,376.835C 266.647,418.42 308.665,447.305 357.417,447.305C 372.068,447.305 386.107,444.699 399.099,439.917L 405.875,456.591 Z "/>
</svg>
