<?xml version="1.0" encoding="utf-8"?>
<svg width="210px" height="210px" viewBox="0 0 210 210" version="1.1" xmlns:xlink="http://www.w3.org/1999/xlink" xmlns="http://www.w3.org/2000/svg">
  <desc>Created with Lunacy</desc>
  <defs>
    <linearGradient x1="0.5" y1="0" x2="0.5" y2="1" id="gradient_1">
      <stop offset="0" stop-color="#8D1B3D" />
      <stop offset="0.45698926" stop-color="#6F1287" />
      <stop offset="1" stop-color="#0511F2" />
    </linearGradient>
    <linearGradient x1="0.5" y1="0" x2="0.5" y2="1" id="gradient_2">
      <stop offset="0" stop-color="#2CD8D5" />
      <stop offset="0.5" stop-color="#6B8DD6" />
      <stop offset="1" stop-color="#8E37D7" />
    </linearGradient>
    <linearGradient x1="0.5" y1="0" x2="0.5" y2="1" id="gradient_3">
      <stop offset="0" stop-color="#880808" />
      <stop offset="0.45698926" stop-color="#6F1287" />
      <stop offset="1" stop-color="#0511F2" />
    </linearGradient>
    <path d="M0 0L210 0L210 210L0 210L0 0Z" id="path_1" />
    <clipPath id="mask_1">
      <use xlink:href="#path_1" />
    </clipPath>
  </defs>
  <g id="mission">
    <path d="M0 0L210 0L210 210L0 210L0 0Z" id="Background" fill="none" stroke="none" />
    <g clip-path="url(#mask_1)">
      <g id="Group" transform="translate(0 0.0002593994)">
        <path d="M0 96.8199C0 43.3477 43.419 0 96.979 0C150.539 0 193.958 43.3477 193.958 96.8199C193.958 150.292 150.539 193.64 96.979 193.64C43.419 193.64 0 150.292 0 96.8199Z" transform="translate(0 16.360214)" id="Circle" fill="url(#gradient_1)" stroke="none" />
        <path d="M0 70.2061C0 31.4323 31.484 0 70.3214 0C109.159 0 140.643 31.4323 140.643 70.2061C140.643 108.98 109.159 140.412 70.3214 140.412C31.484 140.412 0 108.98 0 70.2061Z" transform="translate(26.657867 42.974037)" id="Circle" fill="url(#gradient_2)" stroke="none" />
        <path d="M0 43.5918C0 19.5167 19.5488 0 43.6635 0C67.7782 0 87.327 19.5167 87.327 43.5918C87.327 67.6669 67.7782 87.1837 43.6635 87.1837C19.5488 87.1837 0 67.6669 0 43.5918Z" transform="translate(53.315857 69.58826)" id="Circle" fill="url(#gradient_3)" stroke="none" />
        <path d="M0 16.978C0 7.60132 7.61381 0 17.0059 0C26.398 0 34.0118 7.60132 34.0118 16.978C34.0118 26.3547 26.398 33.956 17.0059 33.956C7.61381 33.956 0 26.3547 0 16.978Z" transform="translate(79.97363 96.20207)" id="Circle" fill="url(#gradient_2)" stroke="none" />
        <path d="M8.39491 3.12925e-06C5.56593 3.12925e-06 2.76736 0.127972 0 0.365042C49.6283 4.61467 88.5841 46.1721 88.5841 96.8199C88.5841 147.468 49.6283 189.026 0 193.275C2.76736 193.512 5.56593 193.64 8.39491 193.64C61.9549 193.64 105.374 150.292 105.374 96.8203C105.374 43.3482 61.9553 0 8.39491 0L8.39491 3.12925e-06Z" transform="translate(88.584045 16.359787)" id="Shape" fill="url(#gradient_1)" stroke="none" />
        <g id="Group" transform="translate(93.80591 0)">
          <path d="M22.5943 0.441632L1.31948 21.6816C0.404963 22.5946 -0.0724169 23.8554 0.00892674 25.1437L1.24101 44.7414L26.3062 19.7173L25.155 1.40796C25.0741 0.119249 23.5088 -0.471376 22.5943 0.441632L22.5943 0.441632Z" transform="translate(70.48389 0)" id="Shape" fill="#0055A3" stroke="none" />
          <path d="M44.3726 3.70576L23.0977 24.9457C22.1832 25.8587 20.9203 26.3353 19.6299 26.2541L0 25.0241L25.0652 0L43.4047 1.14926C44.6951 1.23006 45.2867 2.79317 44.3726 3.70577L44.3726 3.70576Z" transform="translate(71.72492 19.716932)" id="Shape" fill="#0055A3" stroke="none" />
          <g id="Group" transform="translate(0 4.20974)">
            <path d="M3.17327 112.138C2.36146 112.138 1.54925 111.829 0.929304 111.21C-0.309766 109.973 -0.309766 107.967 0.929304 106.73L106.906 0.927775C108.146 -0.309258 110.155 -0.309258 111.394 0.927775C112.633 2.16481 112.633 4.17088 111.394 5.40792L5.41723 111.21C4.7977 111.829 3.98507 112.138 3.17327 112.138L3.17327 112.138Z" id="Shape" fill="#BFBFBF" stroke="none" />
          </g>
        </g>
      </g>
    </g>
  </g>
</svg>