<svg id="Ñëîé_1" data-name="Ñëîé 1" xmlns="http://www.w3.org/2000/svg" viewBox="0 0 319.54 350.97"><defs><style>.cls-1{fill:#5793ce;}.cls-2{fill:#396caa;}.cls-3,.cls-9{fill:#d4ecff;}.cls-4{fill:#b2d3ea;}.cls-5{fill:#fafdff;}.cls-6{fill:#173d7a;}.cls-7{fill:#9d239f;}.cls-8{fill:#fff;}.cls-9{opacity:0.4;}.cls-10{fill:#274f89;}.cls-11{opacity:0.69;}.cls-12{fill:#60239f;}</style></defs><title>Infra</title><path class="cls-1" d="M23.36,264.34a1,1,0,0,1-.46-.11L1.3,253A2.44,2.44,0,0,1,0,250.88a2.4,2.4,0,0,1,1.26-2.14L22.69,237a.43.43,0,0,0,.21-.37.4.4,0,0,0-.21-.37L1.52,224.5a2.41,2.41,0,0,1-.07-4.19l29.79-17.9a7.24,7.24,0,0,1,7.27-.09l16.55,9.38a1,1,0,0,1,.38,1.37,1,1,0,0,1-1.37.37l-16.55-9.38a5.22,5.22,0,0,0-5.25.07L2.48,222a.43.43,0,0,0-.21.37.44.44,0,0,0,.22.36l21.17,11.78a2.42,2.42,0,0,1,0,4.23L2.22,250.49a.42.42,0,0,0-.22.37.39.39,0,0,0,.23.37l21.59,11.23a1,1,0,0,1-.46,1.88Z"/><rect class="cls-1" x="19.39" y="257.56" width="5.36" height="11.57" transform="translate(261.5 375.2) rotate(119.83)"/><path class="cls-1" d="M15.16,261.57A4.18,4.18,0,0,1,17,258.28c1.05-.61,1.9-.12,1.9,1.09a4.18,4.18,0,0,1-1.88,3.29C16,263.26,15.16,262.78,15.16,261.57Z"/><rect class="cls-1" x="28.86" y="260.66" width="8.69" height="18.15" transform="translate(283.71 375.1) rotate(119.83)"/><path class="cls-2" d="M26.77,263,23.37,261a6.92,6.92,0,0,0-2.66,4.65l3.39,2A6.94,6.94,0,0,0,26.77,263Z"/><path class="cls-1" d="M22.27,267a6.77,6.77,0,0,1,3.05-5.33c1.7-1,3.07-.19,3.08,1.76a6.76,6.76,0,0,1-3.06,5.33C23.65,269.75,22.27,269,22.27,267Z"/><ellipse class="cls-3" cx="19.21" cy="259.81" rx="1.26" ry="0.73" transform="translate(-0.78 0.06) rotate(-0.17)"/><path class="cls-4" d="M91.24,191.56l-53-30.22c-1.93-1.12-1.69-3.07.55-4.36l30.49-17.61c2.23-1.29,5.62-1.43,7.56-.31l53,30.22c1.93,1.12,1.69,3.07-.55,4.36l-30.48,17.6C96.57,192.54,93.18,192.68,91.24,191.56Z"/><path class="cls-2" d="M134.56,159.11h0V35.4L85.38,22.53,76.32,17.3c-2.08-1.2-5.71-1.05-8.11.33l-8.45,4.88H33.53L41.3,141.92a2.34,2.34,0,0,0,1.39,2.17l49.08,37c2.08,1.2,5.71,1,8.11-.33l32.71-18.89C134,161.1,134.64,160.07,134.56,159.11Z"/><path class="cls-3" d="M72.56,16.49a9.42,9.42,0,0,0-4.35,1.14l-8.45,4.88H33.53v124a2.35,2.35,0,0,0,1.39,2.17l56.85,32.41a7.36,7.36,0,0,0,3.76.81l.59-124.82Z"/><path class="cls-1" d="M92.29,181.38a9.22,9.22,0,0,0,6.48-.07V55.64H92.29Z"/><path class="cls-3" d="M91.77,57.13,34.92,24.71c-2.08-1.2-1.82-3.29.58-4.68L68.21,1.15c2.4-1.39,6-1.54,8.11-.34l56.85,32.41c2.08,1.2,1.82,3.3-.58,4.69L99.88,56.79C97.48,58.18,93.85,58.33,91.77,57.13Z"/><path class="cls-5" d="M132.59,35.61,99.88,54.49c-2.4,1.39-6,1.54-8.11.34L34.92,22.41a3,3,0,0,1-1-.92c-.72,1.15-.4,2.4,1,3.22L91.77,57.13c2.08,1.2,5.71,1,8.11-.34l32.71-18.88c1.86-1.08,2.43-2.58,1.62-3.77A4.6,4.6,0,0,1,132.59,35.61Z"/><path class="cls-6" d="M93.38,44,55.53,22.05c-1-.56-.85-1.54.27-2.19L71.11,11a4.21,4.21,0,0,1,3.79-.15L112.75,32.8c1,.57.85,1.55-.27,2.2L97.17,43.83A4.21,4.21,0,0,1,93.38,44Z"/><path class="cls-7" d="M72.94,23l-2.19-1.27c-.13-.08-.12-.21,0-.3l2.12-1.22a.6.6,0,0,1,.52,0l2.19,1.27c.14.08.12.21,0,.3L73.47,23A.66.66,0,0,1,72.94,23Z"/><path class="cls-7" d="M80.27,27.25,78.08,26c-.14-.07-.12-.21,0-.3l2.11-1.22a.59.59,0,0,1,.53,0L83,25.7c.14.08.12.22,0,.31L80.8,27.23A.59.59,0,0,1,80.27,27.25Z"/><path class="cls-7" d="M87.6,31.46,85.4,30.2c-.13-.08-.11-.22,0-.31l2.12-1.22a.57.57,0,0,1,.52,0l2.2,1.27c.13.07.12.21,0,.3l-2.12,1.22A.56.56,0,0,1,87.6,31.46Z"/><path class="cls-7" d="M94.92,35.68l-2.19-1.27c-.13-.08-.12-.21,0-.3l2.12-1.23a.56.56,0,0,1,.52,0l2.19,1.27c.14.08.12.21,0,.3l-2.12,1.22A.62.62,0,0,1,94.92,35.68Z"/><path class="cls-1" d="M55.53,22.05l0,0,.23-.16,15.31-8.84a4.24,4.24,0,0,1,3.79-.15l37.8,21.91c.9-.64,1-1.52,0-2L74.9,10.87a4.21,4.21,0,0,0-3.79.15L55.8,19.86C54.68,20.51,54.56,21.49,55.53,22.05Z"/><path class="cls-6" d="M106.27,81.64l21.51-12.32a5.27,5.27,0,0,0,2.2-4.19v-7.7c0-1.61-1-2.35-2.2-1.66L106.27,68.09a5.24,5.24,0,0,0-2.2,4.19V80C104.07,81.59,105.05,82.34,106.27,81.64Z"/><path class="cls-8" d="M128.85,55.54a2.15,2.15,0,0,1,.55,1.6v7.7A5.26,5.26,0,0,1,127.21,69L105.69,81.35a1.64,1.64,0,0,1-1.07.23,1.32,1.32,0,0,0,1.65.06l21.51-12.32a5.27,5.27,0,0,0,2.2-4.19v-7.7C130,56.34,129.52,55.66,128.85,55.54Z"/><path class="cls-2" d="M112.74,73.28l2-1.14a1.13,1.13,0,0,0,.48-.92v-2.1c0-.36-.21-.52-.48-.37l-2,1.14a1.16,1.16,0,0,0-.48.92v2.11C112.26,73.27,112.47,73.43,112.74,73.28Z"/><path class="cls-8" d="M119.34,69.47l2-1.14a1.14,1.14,0,0,0,.48-.92v-2.1c0-.36-.21-.52-.48-.37l-2,1.14a1.14,1.14,0,0,0-.48.92v2.11C118.86,69.46,119.07,69.62,119.34,69.47Z"/><path class="cls-6" d="M106.27,137.24l21.51-12.32a5.25,5.25,0,0,0,2.2-4.19V113c0-1.62-1-2.36-2.2-1.66L106.27,123.7a5.24,5.24,0,0,0-2.2,4.19v7.7C104.07,137.2,105.05,137.94,106.27,137.24Z"/><path class="cls-8" d="M128.85,111.15a2.14,2.14,0,0,1,.55,1.6v7.7a5.23,5.23,0,0,1-2.19,4.18L105.69,137a1.59,1.59,0,0,1-1.07.24,1.32,1.32,0,0,0,1.65.05l21.51-12.32a5.25,5.25,0,0,0,2.2-4.19V113C130,111.94,129.52,111.26,128.85,111.15Z"/><path class="cls-2" d="M112.74,128.88l2-1.14a1.12,1.12,0,0,0,.48-.91v-2.11c0-.35-.21-.51-.48-.36l-2,1.14a1.12,1.12,0,0,0-.48.91v2.11C112.26,128.87,112.47,129,112.74,128.88Z"/><path class="cls-8" d="M119.34,125.07l2-1.14a1.12,1.12,0,0,0,.48-.91v-2.11c0-.35-.21-.51-.48-.36l-2,1.14a1.12,1.12,0,0,0-.48.91v2.11C118.86,125.06,119.07,125.23,119.34,125.07Z"/><path class="cls-6" d="M106.27,165.05l21.51-12.32a5.27,5.27,0,0,0,2.2-4.19v-7.7c0-1.61-1-2.35-2.2-1.66L106.27,151.5a5.24,5.24,0,0,0-2.2,4.19v7.7C104.07,165,105.05,165.75,106.27,165.05Z"/><path class="cls-8" d="M128.85,139a2.15,2.15,0,0,1,.55,1.6v7.7a5.26,5.26,0,0,1-2.19,4.19l-21.52,12.32a1.64,1.64,0,0,1-1.07.23,1.32,1.32,0,0,0,1.65.06l21.51-12.32a5.27,5.27,0,0,0,2.2-4.19v-7.7C130,139.75,129.52,139.07,128.85,139Z"/><path class="cls-2" d="M112.74,156.69l2-1.14a1.13,1.13,0,0,0,.48-.92v-2.1c0-.36-.21-.52-.48-.37l-2,1.14a1.16,1.16,0,0,0-.48.92v2.11C112.26,156.68,112.47,156.84,112.74,156.69Z"/><path class="cls-8" d="M119.34,152.88l2-1.14a1.14,1.14,0,0,0,.48-.92v-2.1c0-.36-.21-.52-.48-.37l-2,1.14a1.14,1.14,0,0,0-.48.92v2.11C118.86,152.87,119.07,153,119.34,152.88Z"/><path class="cls-6" d="M106.27,109.44l21.51-12.32a5.27,5.27,0,0,0,2.2-4.19V85.24c0-1.62-1-2.36-2.2-1.66L106.27,95.9a5.23,5.23,0,0,0-2.2,4.19v7.69C104.07,109.4,105.05,110.14,106.27,109.44Z"/><path class="cls-8" d="M128.85,83.35a2.12,2.12,0,0,1,.55,1.6v7.69a5.25,5.25,0,0,1-2.19,4.19l-21.52,12.32a1.52,1.52,0,0,1-1.07.23,1.32,1.32,0,0,0,1.65.06l21.51-12.32a5.27,5.27,0,0,0,2.2-4.19V85.24C130,84.14,129.52,83.46,128.85,83.35Z"/><path class="cls-2" d="M112.74,101.08l2-1.14a1.12,1.12,0,0,0,.48-.91V96.92c0-.35-.21-.51-.48-.36l-2,1.14a1.12,1.12,0,0,0-.48.91v2.11C112.26,101.07,112.47,101.23,112.74,101.08Z"/><path class="cls-7" d="M119.34,97.27l2-1.14a1.12,1.12,0,0,0,.48-.91V93.11c0-.35-.21-.52-.48-.36l-2,1.14a1.12,1.12,0,0,0-.48.91v2.11C118.86,97.26,119.07,97.42,119.34,97.27Z"/><path class="cls-1" d="M87.63,73.76,38,45.1a4.83,4.83,0,0,1-2-3.85V31.79c0-1.49.9-2.17,2-1.52L87.63,58.93a4.81,4.81,0,0,1,2,3.84v9.47C89.64,73.72,88.74,74.4,87.63,73.76Z"/><path class="cls-9" d="M86.2,70.44l-46.79-27a2.42,2.42,0,0,1-1-2V34.36c0-.76.45-1.1,1-.78l46.79,27a2.44,2.44,0,0,1,1,1.95v7.12C87.22,70.42,86.77,70.77,86.2,70.44Z"/><path class="cls-3" d="M49.16,45.46l-7-4a2.36,2.36,0,0,1-1-1.89h0c0-.73.45-1.07,1-.75l7,4a2.38,2.38,0,0,1,1,1.9h0C50.15,45.44,49.71,45.77,49.16,45.46Z"/><ellipse class="cls-6" cx="53.97" cy="46.91" rx="0.93" ry="1.62" transform="translate(-16.23 33.27) rotate(-30)"/><path class="cls-6" d="M59.15,49.9c0,.73-.51,1-1.15.66a2.52,2.52,0,0,1-1.14-2c0-.73.51-1,1.14-.66A2.5,2.5,0,0,1,59.15,49.9Z"/><path class="cls-3" d="M63.19,52.23c0,.73-.52,1-1.15.66a2.52,2.52,0,0,1-1.14-2c0-.73.51-1,1.14-.66A2.53,2.53,0,0,1,63.19,52.23Z"/><path class="cls-6" d="M67.22,54.56c0,.73-.51,1-1.14.66a2.52,2.52,0,0,1-1.14-2c0-.73.51-1,1.14-.66A2.53,2.53,0,0,1,67.22,54.56Z"/><path class="cls-6" d="M84.23,66.48l-2.35-1.36a1.52,1.52,0,0,1-.63-1.22V61.41c0-.46.28-.68.63-.48l2.35,1.36a1.51,1.51,0,0,1,.64,1.22V66C84.87,66.46,84.59,66.68,84.23,66.48Z"/><path class="cls-1" d="M87.63,90.45,38,61.79A4.81,4.81,0,0,1,36,58V48.48c0-1.48.9-2.16,2-1.52L87.63,75.62a4.82,4.82,0,0,1,2,3.85v9.46C89.64,90.41,88.74,91.09,87.63,90.45Z"/><path class="cls-9" d="M86.2,87.13l-46.79-27a2.44,2.44,0,0,1-1-1.95V51.05c0-.75.45-1.1,1-.77l46.79,27a2.44,2.44,0,0,1,1,1.95v7.12C87.22,87.11,86.77,87.46,86.2,87.13Z"/><path class="cls-3" d="M49.16,62.15l-7-4a2.39,2.39,0,0,1-1-1.9h0c0-.73.45-1.06,1-.75l7,4a2.35,2.35,0,0,1,1,1.89h0C50.15,62.13,49.71,62.46,49.16,62.15Z"/><path class="cls-8" d="M55.11,64.26c0,.73-.51,1-1.14.66a2.5,2.5,0,0,1-1.15-2c0-.73.51-1,1.15-.66A2.53,2.53,0,0,1,55.11,64.26Z"/><path class="cls-6" d="M59.15,66.59c0,.73-.51,1-1.15.67a2.55,2.55,0,0,1-1.14-2c0-.73.51-1,1.14-.66A2.52,2.52,0,0,1,59.15,66.59Z"/><path class="cls-3" d="M63.19,68.93c0,.73-.52,1-1.15.66a2.55,2.55,0,0,1-1.14-2c0-.73.51-1,1.14-.66A2.56,2.56,0,0,1,63.19,68.93Z"/><ellipse class="cls-6" cx="66.08" cy="70.6" rx="0.93" ry="1.62" transform="translate(-26.45 42.5) rotate(-30)"/><path class="cls-6" d="M84.23,83.17l-2.35-1.36a1.52,1.52,0,0,1-.63-1.21V78.11c0-.47.28-.69.63-.48L84.23,79a1.52,1.52,0,0,1,.64,1.22v2.49C84.87,83.16,84.59,83.37,84.23,83.17Z"/><path class="cls-1" d="M87.63,107.15,38,78.48a4.81,4.81,0,0,1-2-3.84V65.17c0-1.48.9-2.16,2-1.52L87.63,92.31a4.85,4.85,0,0,1,2,3.85v9.46C89.64,107.11,88.74,107.79,87.63,107.15Z"/><path class="cls-9" d="M86.2,103.83l-46.79-27a2.44,2.44,0,0,1-1-2V67.74c0-.75.45-1.09,1-.77L86.2,94a2.42,2.42,0,0,1,1,2v7.11C87.22,103.81,86.77,104.15,86.2,103.83Z"/><path class="cls-3" d="M49.16,78.84l-7-4a2.37,2.37,0,0,1-1-1.89h0c0-.73.45-1.07,1-.75l7,4a2.35,2.35,0,0,1,1,1.89h0C50.15,78.82,49.71,79.16,49.16,78.84Z"/><path class="cls-8" d="M55.11,81c0,.73-.51,1-1.14.66a2.54,2.54,0,0,1-1.15-2c0-.73.51-1,1.15-.66A2.55,2.55,0,0,1,55.11,81Z"/><path class="cls-7" d="M59.15,83.29c0,.73-.51,1-1.15.66a2.53,2.53,0,0,1-1.14-2c0-.73.51-1,1.14-.66A2.5,2.5,0,0,1,59.15,83.29Z"/><path class="cls-3" d="M63.19,85.62c0,.73-.52,1-1.15.66a2.53,2.53,0,0,1-1.14-2c0-.73.51-1,1.14-.66A2.53,2.53,0,0,1,63.19,85.62Z"/><path class="cls-6" d="M67.22,88c0,.73-.51,1-1.14.66a2.52,2.52,0,0,1-1.14-2c0-.73.51-1,1.14-.66A2.52,2.52,0,0,1,67.22,88Z"/><path class="cls-6" d="M84.23,99.86l-2.35-1.35a1.54,1.54,0,0,1-.63-1.22V94.8c0-.47.28-.68.63-.48l2.35,1.36a1.5,1.5,0,0,1,.64,1.21v2.49C84.87,99.85,84.59,100.07,84.23,99.86Z"/><path class="cls-1" d="M87.63,123.84,38,95.18a4.85,4.85,0,0,1-2-3.85V81.87c0-1.49.9-2.17,2-1.53L87.63,109a4.81,4.81,0,0,1,2,3.84v9.47C89.64,123.8,88.74,124.48,87.63,123.84Z"/><path class="cls-9" d="M86.2,120.52l-46.79-27a2.42,2.42,0,0,1-1-2V84.44c0-.76.45-1.1,1-.78l46.79,27a2.44,2.44,0,0,1,1,1.95v7.12C87.22,120.5,86.77,120.85,86.2,120.52Z"/><path class="cls-3" d="M49.16,95.54l-7-4a2.36,2.36,0,0,1-1-1.89h0c0-.73.45-1.07,1-.75l7,4a2.38,2.38,0,0,1,1,1.9h0C50.15,95.52,49.71,95.85,49.16,95.54Z"/><path class="cls-6" d="M55.11,97.65c0,.73-.51,1-1.14.66a2.5,2.5,0,0,1-1.15-2c0-.73.51-1,1.15-.66A2.52,2.52,0,0,1,55.11,97.65Z"/><ellipse class="cls-6" cx="58" cy="99.32" rx="0.93" ry="1.62" transform="translate(-41.89 42.31) rotate(-30)"/><path class="cls-3" d="M63.19,102.31c0,.73-.52,1-1.15.66a2.52,2.52,0,0,1-1.14-2c0-.73.51-1,1.14-.66A2.53,2.53,0,0,1,63.19,102.31Z"/><path class="cls-6" d="M67.22,104.64c0,.73-.51,1-1.14.66a2.52,2.52,0,0,1-1.14-2c0-.73.51-1,1.14-.66A2.53,2.53,0,0,1,67.22,104.64Z"/><path class="cls-3" d="M84.23,116.56l-2.35-1.36a1.52,1.52,0,0,1-.63-1.22v-2.49c0-.46.28-.68.63-.48l2.35,1.36a1.51,1.51,0,0,1,.64,1.22v2.49C84.87,116.54,84.59,116.76,84.23,116.56Z"/><path class="cls-1" d="M87.63,140.53,38,111.87A4.81,4.81,0,0,1,36,108V98.56c0-1.48.9-2.16,2-1.52L87.63,125.7a4.81,4.81,0,0,1,2,3.84V139C89.64,140.49,88.74,141.17,87.63,140.53Z"/><path class="cls-9" d="M86.2,137.21l-46.79-27a2.44,2.44,0,0,1-1-2v-7.12c0-.75.45-1.1,1-.77l46.79,27a2.44,2.44,0,0,1,1,1.95v7.12C87.22,137.19,86.77,137.54,86.2,137.21Z"/><path class="cls-3" d="M49.16,112.23l-7-4a2.39,2.39,0,0,1-1-1.9h0c0-.73.45-1.06,1-.75l7,4a2.35,2.35,0,0,1,1,1.89h0C50.15,112.21,49.71,112.54,49.16,112.23Z"/><path class="cls-6" d="M55.11,114.34c0,.73-.51,1-1.14.66a2.5,2.5,0,0,1-1.15-2c0-.73.51-1,1.15-.66A2.53,2.53,0,0,1,55.11,114.34Z"/><path class="cls-8" d="M59.15,116.67c0,.73-.51,1-1.15.66a2.52,2.52,0,0,1-1.14-2c0-.73.51-1,1.14-.66A2.52,2.52,0,0,1,59.15,116.67Z"/><path class="cls-3" d="M63.19,119c0,.73-.52,1-1.15.66a2.55,2.55,0,0,1-1.14-2c0-.73.51-1,1.14-.66A2.56,2.56,0,0,1,63.19,119Z"/><path class="cls-7" d="M67.22,121.34c0,.73-.51,1-1.14.66a2.55,2.55,0,0,1-1.14-2c0-.73.51-1,1.14-.66A2.55,2.55,0,0,1,67.22,121.34Z"/><path class="cls-3" d="M84.23,133.25l-2.35-1.36a1.52,1.52,0,0,1-.63-1.21v-2.49c0-.47.28-.69.63-.48l2.35,1.35a1.52,1.52,0,0,1,.64,1.22v2.49C84.87,133.24,84.59,133.45,84.23,133.25Z"/><path class="cls-1" d="M87.63,157.23,38,128.56a4.81,4.81,0,0,1-2-3.84v-9.47c0-1.48.9-2.16,2-1.52l49.65,28.66a4.85,4.85,0,0,1,2,3.85v9.46C89.64,157.19,88.74,157.87,87.63,157.23Z"/><path class="cls-9" d="M86.2,153.91l-46.79-27a2.44,2.44,0,0,1-1-2v-7.12c0-.75.45-1.1,1-.77l46.79,27a2.42,2.42,0,0,1,1,2v7.11C87.22,153.89,86.77,154.23,86.2,153.91Z"/><path class="cls-3" d="M49.16,128.92l-7-4a2.37,2.37,0,0,1-1-1.89h0c0-.73.45-1.07,1-.75l7,4a2.35,2.35,0,0,1,1,1.89h0C50.15,128.9,49.71,129.24,49.16,128.92Z"/><ellipse class="cls-6" cx="53.97" cy="130.37" rx="0.93" ry="1.62" transform="translate(-57.96 44.46) rotate(-30)"/><path class="cls-6" d="M59.15,133.37c0,.73-.51,1-1.15.66a2.53,2.53,0,0,1-1.14-2c0-.73.51-1,1.14-.67A2.54,2.54,0,0,1,59.15,133.37Z"/><path class="cls-3" d="M63.19,135.7c0,.73-.52,1-1.15.66a2.53,2.53,0,0,1-1.14-2c0-.73.51-1,1.14-.66A2.53,2.53,0,0,1,63.19,135.7Z"/><path class="cls-6" d="M67.22,138c0,.73-.51,1-1.14.66a2.52,2.52,0,0,1-1.14-2c0-.73.51-1,1.14-.66A2.52,2.52,0,0,1,67.22,138Z"/><path class="cls-6" d="M84.23,149.94l-2.35-1.36a1.5,1.5,0,0,1-.63-1.21v-2.49c0-.47.28-.68.63-.48l2.35,1.36a1.49,1.49,0,0,1,.64,1.21v2.49C84.87,149.93,84.59,150.15,84.23,149.94Z"/><path class="cls-1" d="M87.63,173.92,38,145.26a4.85,4.85,0,0,1-2-3.85V132c0-1.49.9-2.17,2-1.53l49.65,28.67a4.81,4.81,0,0,1,2,3.84v9.47C89.64,173.88,88.74,174.56,87.63,173.92Z"/><path class="cls-9" d="M86.2,170.6l-46.79-27a2.42,2.42,0,0,1-1-2v-7.11c0-.76.45-1.1,1-.78l46.79,27a2.44,2.44,0,0,1,1,2v7.12C87.22,170.58,86.77,170.92,86.2,170.6Z"/><path class="cls-3" d="M49.16,145.61l-7-4a2.36,2.36,0,0,1-1-1.89h0c0-.73.45-1.07,1-.75l7,4a2.38,2.38,0,0,1,1,1.9h0C50.15,145.6,49.71,145.93,49.16,145.61Z"/><path class="cls-8" d="M56.39,148.63c0,1.38-1,1.94-2.16,1.25a4.78,4.78,0,0,1-2.17-3.74c0-1.38,1-1.94,2.17-1.25A4.78,4.78,0,0,1,56.39,148.63Z"/><path class="cls-7" d="M64.75,153.53c0,.73-.51,1-1.14.66a2.54,2.54,0,0,1-1.15-2c0-.73.51-1,1.15-.66A2.55,2.55,0,0,1,64.75,153.53Z"/><path class="cls-3" d="M68.79,155.86c0,.73-.51,1-1.15.66a2.53,2.53,0,0,1-1.14-2c0-.73.51-1,1.14-.66A2.5,2.5,0,0,1,68.79,155.86Z"/><path class="cls-6" d="M72.83,158.19c0,.73-.52,1-1.15.66a2.53,2.53,0,0,1-1.14-2c0-.73.51-1,1.14-.66A2.53,2.53,0,0,1,72.83,158.19Z"/><path class="cls-3" d="M84.23,166.64l-2.35-1.36a1.52,1.52,0,0,1-.63-1.22v-2.49c0-.46.28-.68.63-.48l2.35,1.36a1.51,1.51,0,0,1,.64,1.22v2.49C84.87,166.62,84.59,166.84,84.23,166.64Z"/><path class="cls-1" d="M84.33,215.83a1,1,0,0,1-.49-.13L27.4,183.63a2.15,2.15,0,0,1-1.1-1.88,2.18,2.18,0,0,1,1.07-1.91l24.21-14.28A2.84,2.84,0,0,0,53,163.13V147.38a1,1,0,0,1,2,0v15.75a4.84,4.84,0,0,1-2.37,4.15L28.39,181.57a.19.19,0,0,0,0,.32L84.83,214a1,1,0,0,1-.5,1.86Z"/><rect class="cls-1" x="67.22" y="200.95" width="5.36" height="11.57" transform="translate(284.01 248.93) rotate(119.83)"/><path class="cls-1" d="M63,205a4.18,4.18,0,0,1,1.88-3.29c1-.6,1.9-.12,1.9,1.09A4.21,4.21,0,0,1,64.89,206C63.84,206.65,63,206.16,63,205Z"/><rect class="cls-1" x="76.69" y="204.04" width="8.69" height="18.15" transform="translate(306.22 248.83) rotate(119.83)"/><path class="cls-2" d="M74.6,206.34l-3.4-2A7,7,0,0,0,68.53,209l3.4,2A6.94,6.94,0,0,0,74.6,206.34Z"/><path class="cls-1" d="M70.1,210.39a6.77,6.77,0,0,1,3.05-5.33c1.7-1,3.07-.2,3.08,1.76a6.78,6.78,0,0,1-3.06,5.33C71.48,213.13,70.1,212.34,70.1,210.39Z"/><path class="cls-3" d="M66.15,203.71c-.49-.28-.49-.74,0-1a2,2,0,0,1,1.78,0c.49.28.49.74,0,1A2,2,0,0,1,66.15,203.71Z"/><rect class="cls-1" x="55.01" y="208.32" width="5.36" height="11.57" transform="translate(272.13 270.56) rotate(119.83)"/><path class="cls-1" d="M50.78,212.33A4.19,4.19,0,0,1,52.67,209c1-.61,1.89-.12,1.9,1.09a4.19,4.19,0,0,1-1.89,3.29C51.64,214,50.79,213.54,50.78,212.33Z"/><rect class="cls-1" x="64.48" y="211.42" width="8.69" height="18.15" transform="translate(294.34 270.46) rotate(119.83)"/><path class="cls-2" d="M62.39,213.71l-3.39-2a6.94,6.94,0,0,0-2.67,4.66l3.4,1.94A6.94,6.94,0,0,0,62.39,213.71Z"/><path class="cls-1" d="M57.89,217.76A6.8,6.8,0,0,1,61,212.43c1.69-1,3.07-.19,3.07,1.77a6.79,6.79,0,0,1-3,5.33C59.27,220.51,57.9,219.72,57.89,217.76Z"/><path class="cls-3" d="M54,211.09c-.49-.28-.49-.74,0-1a1.94,1.94,0,0,1,1.77,0c.5.28.5.74,0,1A2,2,0,0,1,54,211.09Z"/><path class="cls-1" d="M256.41,126l-.23,0a1,1,0,0,1-.75-1.19l9.76-42.35a1,1,0,0,1,1.2-.75,1,1,0,0,1,.75,1.2l-9.76,42.34A1,1,0,0,1,256.41,126Z"/><path class="cls-1" d="M243.45,123a.9.9,0,0,1-.23,0,1,1,0,0,1-.75-1.2l9.75-42.34a1,1,0,1,1,1.95.45l-9.75,42.34A1,1,0,0,1,243.45,123Z"/><path class="cls-1" d="M230.48,120a.83.83,0,0,1-.22,0,1,1,0,0,1-.75-1.2l9.75-42.34a1,1,0,1,1,2,.45l-9.75,42.34A1,1,0,0,1,230.48,120Z"/><rect class="cls-1" x="233.92" y="87.06" width="5.36" height="11.57" transform="translate(27.43 -51.54) rotate(13.19)"/><path class="cls-1" d="M236.88,100a4.18,4.18,0,0,1-3.69-.87,1.15,1.15,0,0,1,.5-2.13,4.18,4.18,0,0,1,3.69.87A1.15,1.15,0,0,1,236.88,100Z"/><rect class="cls-1" x="235.19" y="71.28" width="8.69" height="18.15" transform="translate(24.66 -52.54) rotate(13.19)"/><path class="cls-2" d="M234.88,88.46,234,92.27a6.92,6.92,0,0,0,5.22,1.22l.89-3.81A6.93,6.93,0,0,0,234.88,88.46Z"/><path class="cls-1" d="M240.05,91.61a6.78,6.78,0,0,1-6-1.4c-1.43-1.34-1.07-2.89.81-3.45a6.78,6.78,0,0,1,6,1.4C242.29,89.5,241.92,91,240.05,91.61Z"/><path class="cls-3" d="M234.78,97.3a.54.54,0,0,1-1,.3,2,2,0,0,1-.51-1.71c.13-.55.57-.68,1-.29A2,2,0,0,1,234.78,97.3Z"/><rect class="cls-1" x="245.94" y="94.22" width="5.36" height="11.57" transform="translate(29.38 -54.1) rotate(13.19)"/><path class="cls-1" d="M248.9,107.13a4.17,4.17,0,0,1-3.69-.86,1.15,1.15,0,0,1,.5-2.13,4.2,4.2,0,0,1,3.69.86C250.28,105.83,250.06,106.79,248.9,107.13Z"/><rect class="cls-1" x="247.21" y="78.43" width="8.69" height="18.15" transform="translate(26.61 -55.1) rotate(13.19)"/><path class="cls-2" d="M246.9,95.61,246,99.43a7,7,0,0,0,5.22,1.22l.89-3.81A6.93,6.93,0,0,0,246.9,95.61Z"/><path class="cls-1" d="M252.07,98.77a6.81,6.81,0,0,1-6-1.4c-1.43-1.34-1.07-2.89.81-3.46a6.81,6.81,0,0,1,6,1.4C254.31,96.66,253.94,98.2,252.07,98.77Z"/><path class="cls-3" d="M246.8,104.46c-.13.55-.57.68-1,.29a2,2,0,0,1-.51-1.7.54.54,0,0,1,1-.3A2,2,0,0,1,246.8,104.46Z"/><rect class="cls-1" x="258.1" y="101.32" width="5.36" height="11.57" transform="translate(31.32 -56.68) rotate(13.19)"/><path class="cls-1" d="M261.05,114.24a4.18,4.18,0,0,1-3.69-.87,1.16,1.16,0,0,1,.5-2.13,4.18,4.18,0,0,1,3.69.87C262.44,112.93,262.21,113.89,261.05,114.24Z"/><rect class="cls-1" x="259.36" y="85.54" width="8.69" height="18.15" transform="translate(28.55 -57.68) rotate(13.19)"/><path class="cls-2" d="M259.05,102.72l-.89,3.81a6.94,6.94,0,0,0,5.22,1.22l.89-3.81A6.92,6.92,0,0,0,259.05,102.72Z"/><path class="cls-1" d="M264.22,105.87a6.78,6.78,0,0,1-6-1.4c-1.43-1.34-1.06-2.89.81-3.46a6.81,6.81,0,0,1,6,1.41C266.46,103.76,266.1,105.3,264.22,105.87Z"/><path class="cls-3" d="M259,111.56c-.13.55-.57.68-1,.3a2,2,0,0,1-.51-1.71c.13-.55.57-.68,1-.29A2,2,0,0,1,259,111.56Z"/><path class="cls-4" d="M176.84,312.64l-116.14-67c-3.29-1.9-2.87-5.21.92-7.4l79.08-45.65c3.8-2.19,9.54-2.43,12.82-.53l116.14,67.06c3.29,1.89,2.88,5.21-.92,7.4l-79.08,45.64C185.87,314.3,180.13,314.54,176.84,312.64Z"/><path class="cls-6" d="M296.87,140.28l-116.15-67a4.7,4.7,0,0,0-3.93-.49h0l-.22.08-.05,0-4.19,1.61,3.76,1.84c0,.07,0,.13,0,.21L157.13,162.6c-.95,4.31,1,9.34,4.24,11.24l113.34,65.44-.4,4.8,4.59-1.78a6.44,6.44,0,0,0,3.28-4.67l18.92-86.11C302.05,147.21,300.15,142.18,296.87,140.28Z"/><path class="cls-2" d="M296.87,140.28l-116.15-67a4.7,4.7,0,0,0-3.93-.49h0l-.22.08-.05,0-4.19,1.61,3.76,1.84c0,.07,0,.13,0,.21l-12.47,56.75,56.83,44.27,80.12-32.6A9,9,0,0,0,296.87,140.28Z"/><path class="cls-10" d="M292.49,153.52l8.84-3.77a11.1,11.1,0,0,0-3.58-8.85l-14,5.89Z"/><path class="cls-3" d="M270.28,243.62,154.13,176.57c-3.28-1.9-5.18-6.93-4.23-11.24l18.92-86.11c.94-4.31,4.37-6.27,7.66-4.37l116.14,67.06c3.29,1.89,5.18,6.92,4.24,11.23l-18.92,86.12C277,243.57,273.56,245.52,270.28,243.62Z"/><path class="cls-8" d="M267.76,237.22l-109.23-63c-3-1.74-4.74-6.34-3.88-10.29L172,85.1c.87-3.94,4-5.73,7-4l109.23,63c3,1.73,4.74,6.34,3.87,10.28l-17.31,78.8C273.9,237.17,270.76,239,267.76,237.22Z"/><path class="cls-8" d="M267.76,237.22l-109.23-63c-3-1.74-4.74-6.34-3.88-10.29L172,85.1c.87-3.94,4-5.73,7-4l109.23,63c3,1.73,4.74,6.34,3.87,10.28l-17.31,78.8C273.9,237.17,270.76,239,267.76,237.22Z"/><path class="cls-6" d="M271.88,246.54,256,244.45,153.52,185.28c-3.28-1.9-9-1.66-12.82.53L68.09,227.72l-9.6-1.27v5.45h0a3.73,3.73,0,0,0,2.2,3.37l116.14,67c3.29,1.9,9,1.66,12.82-.53l79.08-45.64c2.14-1.24,3.2-2.82,3.14-4.31h0Z"/><path class="cls-2" d="M194.88,209.16,187.6,205h-80L68.09,227.72l-9.6-1.27v5.45h0a3.73,3.73,0,0,0,2.2,3.37l116.14,67a12.08,12.08,0,0,0,6.62,1.24Z"/><path class="cls-1" d="M62.75,227l-4.26-.57v5.45h0a3.73,3.73,0,0,0,2.2,3.37l2,1.18Z"/><path class="cls-10" d="M178,302.87a14.88,14.88,0,0,0,10.89-.68V290H178Z"/><path class="cls-3" d="M176.84,296.88l-116.14-67c-3.29-1.9-2.87-5.21.92-7.4l79.08-45.65c3.8-2.19,9.54-2.43,12.82-.53l116.14,67.06c3.29,1.89,2.88,5.21-.92,7.4l-79.08,45.64C185.87,298.54,180.13,298.78,176.84,296.88Z"/><path class="cls-8" d="M268.74,248.72l-79.08,45.64c-3.79,2.19-9.53,2.43-12.82.53l-116.14-67a4.28,4.28,0,0,1-2-2.24c-.52,1.56.14,3.13,2,4.23l116.14,67c3.29,1.9,9,1.66,12.82-.53l79.08-45.64c2.55-1.48,3.57-3.45,3-5.17A6.25,6.25,0,0,1,268.74,248.72Z"/><path class="cls-6" d="M110.1,207.63l-5.26-3c-.42-.24-.37-.66.12-1l6.2-3.58a1.85,1.85,0,0,1,1.65-.07l5.25,3c.42.24.37.67-.12.95l-6.2,3.58A1.83,1.83,0,0,1,110.1,207.63Z"/><path class="cls-6" d="M118.21,212.31l-5.25-3c-.43-.24-.37-.67.11-.95l6.21-3.58a1.83,1.83,0,0,1,1.64-.07l5.26,3c.42.25.37.67-.12.95l-6.2,3.59A1.82,1.82,0,0,1,118.21,212.31Z"/><path class="cls-6" d="M126.33,217l-5.26-3c-.42-.24-.37-.66.12-1l6.2-3.58a1.82,1.82,0,0,1,1.65-.06l5.25,3c.43.24.37.67-.11.95L128,216.93A1.83,1.83,0,0,1,126.33,217Z"/><path class="cls-6" d="M137.55,213.13l-5.25-3c-.43-.25-.37-.67.11-.95l5.21-3a1.85,1.85,0,0,1,1.65-.07l5.25,3c.42.25.37.67-.12,1l-5.2,3A1.85,1.85,0,0,1,137.55,213.13Z"/><path class="cls-6" d="M145.67,217.81l-5.26-3c-.42-.24-.37-.67.12-.95l5.21-3a1.8,1.8,0,0,1,1.64-.06l5.26,3c.42.24.37.67-.12,1l-5.21,3A1.8,1.8,0,0,1,145.67,217.81Z"/><path class="cls-6" d="M153.78,222.5l-5.25-3c-.43-.25-.37-.67.11-.95l5.21-3a1.85,1.85,0,0,1,1.65-.07l5.25,3c.42.24.37.66-.12,1l-5.2,3A1.85,1.85,0,0,1,153.78,222.5Z"/><path class="cls-6" d="M161.9,227.19l-5.26-3c-.42-.24-.37-.67.12-1l5.21-3a1.8,1.8,0,0,1,1.64-.06l5.26,3c.42.24.37.67-.12,1l-5.21,3A1.83,1.83,0,0,1,161.9,227.19Z"/><path class="cls-6" d="M170,231.87l-5.25-3c-.43-.25-.37-.67.11-1l5.21-3a1.85,1.85,0,0,1,1.65-.07l5.25,3c.42.24.37.67-.12,1l-5.2,3A1.85,1.85,0,0,1,170,231.87Z"/><path class="cls-6" d="M178.13,236.56l-5.26-3c-.42-.24-.37-.67.12-1l5.21-3a1.77,1.77,0,0,1,1.64-.07l5.26,3c.42.24.37.67-.12.95l-5.21,3A1.83,1.83,0,0,1,178.13,236.56Z"/><path class="cls-6" d="M186.24,241.24l-5.25-3c-.43-.25-.37-.67.11-1l5.21-3a1.85,1.85,0,0,1,1.65-.07l5.25,3c.42.24.37.67-.12.95l-5.2,3A1.82,1.82,0,0,1,186.24,241.24Z"/><path class="cls-6" d="M194.36,245.93l-5.26-3c-.42-.24-.37-.67.12-.95l5.21-3a1.8,1.8,0,0,1,1.64-.07l5.26,3c.42.25.37.67-.12.95l-5.21,3A1.83,1.83,0,0,1,194.36,245.93Z"/><path class="cls-6" d="M202.47,250.61l-5.25-3c-.42-.25-.37-.67.12-1l5.2-3a1.85,1.85,0,0,1,1.65-.07l5.25,3c.43.24.37.67-.11.95l-5.21,3A1.79,1.79,0,0,1,202.47,250.61Z"/><path class="cls-6" d="M210.59,255.3l-5.26-3c-.42-.24-.37-.67.12-.95l5.21-3a1.83,1.83,0,0,1,1.64-.07l5.26,3c.42.25.37.67-.12.95l-5.21,3A1.83,1.83,0,0,1,210.59,255.3Z"/><path class="cls-2" d="M149.51,210.91l-5.26-3c-.42-.25-.37-.67.12-.95l5.21-3a1.83,1.83,0,0,1,1.64-.07l5.26,3c.42.24.37.67-.12,1l-5.21,3A1.83,1.83,0,0,1,149.51,210.91Z"/><path class="cls-2" d="M141.27,206.16l-5.25-3c-.43-.24-.37-.67.11-1l5.21-3a1.79,1.79,0,0,1,1.65-.07l5.25,3c.42.24.37.67-.12,1l-5.2,3A1.85,1.85,0,0,1,141.27,206.16Z"/><path class="cls-6" d="M133,201.39l-11.32-6.53c-.42-.25-.37-.67.12-1l5.21-3a1.83,1.83,0,0,1,1.64-.07L140,197.37c.42.24.37.67-.12.95l-5.2,3A1.79,1.79,0,0,1,133,201.39Z"/><path class="cls-6" d="M138.79,195.6l-9.19-5.3c-.42-.25-.37-.67.12-1l5.21-3a1.83,1.83,0,0,1,1.64-.07l9.19,5.31c.42.24.37.66-.12.95l-5.21,3A1.83,1.83,0,0,1,138.79,195.6Z"/><path class="cls-2" d="M157.62,215.6l-5.25-3c-.42-.24-.37-.67.12-.95l5.2-3a1.79,1.79,0,0,1,1.65-.07l5.25,3c.43.25.37.67-.11,1l-5.21,3A1.85,1.85,0,0,1,157.62,215.6Z"/><path class="cls-6" d="M165.74,220.28l-5.26-3c-.42-.25-.37-.67.12-.95l5.21-3a1.83,1.83,0,0,1,1.64-.07l5.26,3c.42.24.37.67-.12,1l-5.21,3A1.8,1.8,0,0,1,165.74,220.28Z"/><path class="cls-6" d="M173.85,225l-5.25-3c-.42-.24-.37-.67.12-1l5.2-3a1.82,1.82,0,0,1,1.65-.07l5.25,3c.43.25.37.67-.11.95l-5.21,3A1.85,1.85,0,0,1,173.85,225Z"/><path class="cls-6" d="M182,229.65l-5.26-3c-.42-.24-.37-.67.12-1l5.21-3a1.83,1.83,0,0,1,1.64-.07l5.26,3c.42.24.37.67-.12,1l-5.21,3A1.77,1.77,0,0,1,182,229.65Z"/><path class="cls-6" d="M190.08,234.34l-5.25-3c-.42-.24-.37-.67.12-1l5.2-3a1.85,1.85,0,0,1,1.65-.07l5.25,3c.43.25.37.67-.11.95l-5.21,3A1.85,1.85,0,0,1,190.08,234.34Z"/><path class="cls-6" d="M198.2,239l-5.26-3c-.42-.24-.37-.67.12-1l5.21-3a1.85,1.85,0,0,1,1.65-.07l5.25,3c.42.24.37.67-.12.95l-5.2,3A1.82,1.82,0,0,1,198.2,239Z"/><path class="cls-6" d="M206.31,243.71l-5.25-3c-.42-.24-.37-.66.12-.95l5.2-3a1.85,1.85,0,0,1,1.65-.07l5.26,3c.42.25.36.67-.12.95l-5.21,3A1.85,1.85,0,0,1,206.31,243.71Z"/><path class="cls-6" d="M214.43,248.39l-5.26-3c-.42-.24-.36-.67.12-1l5.21-3a1.82,1.82,0,0,1,1.65-.06l5.25,3c.42.24.37.67-.12.95l-5.2,3A1.82,1.82,0,0,1,214.43,248.39Z"/><path class="cls-6" d="M222.54,253.08l-5.25-3c-.42-.25-.37-.67.12-1l5.2-3a1.85,1.85,0,0,1,1.65-.07l5.26,3c.42.25.36.67-.12.95l-5.21,3A1.85,1.85,0,0,1,222.54,253.08Z"/><path class="cls-6" d="M237,261.41l-11.46-6.62c-.43-.24-.37-.67.11-.95l5.21-3a1.85,1.85,0,0,1,1.65-.07l11.46,6.62c.42.25.37.67-.12.95l-5.2,3A1.85,1.85,0,0,1,237,261.41Z"/><path class="cls-6" d="M252.77,252.29l-9.68-5.59c-.42-.24-.37-.67.12-.95l5.21-3a1.83,1.83,0,0,1,1.64-.07l9.68,5.59c.42.25.37.67-.12,1l-5.2,3A1.85,1.85,0,0,1,252.77,252.29Z"/><path class="cls-6" d="M171.83,214.68l-5.25-3c-.42-.25-.37-.67.12-1l5.2-3a1.85,1.85,0,0,1,1.65-.07l5.26,3c.42.24.36.66-.12,1l-5.21,3A1.85,1.85,0,0,1,171.83,214.68Z"/><path class="cls-6" d="M163.52,209.88l-5.26-3c-.42-.24-.37-.67.12-1l5.21-3a1.83,1.83,0,0,1,1.64-.07l5.26,3c.42.25.37.67-.12,1l-5.21,3A1.83,1.83,0,0,1,163.52,209.88Z"/><path class="cls-2" d="M155.2,205.08,150,202c-.43-.24-.37-.67.11-.95l5.21-3a1.79,1.79,0,0,1,1.65-.07l5.25,3c.42.24.37.67-.12.95l-5.2,3A1.85,1.85,0,0,1,155.2,205.08Z"/><path class="cls-6" d="M146.88,200.27l-5.25-3c-.42-.24-.37-.67.12-1l5.2-3a1.82,1.82,0,0,1,1.65-.06l5.25,3c.43.24.37.67-.11.95l-5.21,3A1.82,1.82,0,0,1,146.88,200.27Z"/><path class="cls-6" d="M180,219.37l-5.26-3c-.42-.24-.36-.67.12-1l5.21-3a1.82,1.82,0,0,1,1.65-.06l5.25,3c.42.24.37.67-.12.95l-5.2,3A1.85,1.85,0,0,1,180,219.37Z"/><path class="cls-6" d="M188.06,224.05l-5.25-3c-.42-.25-.37-.67.12-1l5.2-3a1.85,1.85,0,0,1,1.65-.07l5.26,3c.42.24.36.66-.12.95l-5.21,3A1.85,1.85,0,0,1,188.06,224.05Z"/><path class="cls-6" d="M196.18,228.74l-5.25-3c-.43-.24-.37-.67.11-.95l5.21-3a1.79,1.79,0,0,1,1.65-.07l5.25,3c.42.24.37.67-.12.95l-5.2,3A1.85,1.85,0,0,1,196.18,228.74Z"/><path class="cls-6" d="M204.3,233.42l-5.26-3c-.42-.25-.37-.67.12-.95l5.21-3a1.83,1.83,0,0,1,1.64-.07l5.26,3c.42.24.37.67-.12.95l-5.21,3A1.83,1.83,0,0,1,204.3,233.42Z"/><path class="cls-6" d="M212.41,238.11l-5.25-3c-.43-.24-.37-.67.11-.95l5.21-3a1.79,1.79,0,0,1,1.65-.07l5.25,3c.42.25.37.67-.12.95l-5.2,3A1.85,1.85,0,0,1,212.41,238.11Z"/><path class="cls-6" d="M220.53,242.79l-5.26-3c-.42-.25-.37-.67.12-.95l5.21-3a1.83,1.83,0,0,1,1.64-.07l5.26,3c.42.24.37.67-.12.95l-5.21,3A1.8,1.8,0,0,1,220.53,242.79Z"/><path class="cls-6" d="M228.64,247.48l-5.25-3c-.43-.24-.37-.67.11-.95l5.21-3a1.82,1.82,0,0,1,1.65-.07l5.25,3c.42.25.37.67-.12,1l-5.2,3A1.85,1.85,0,0,1,228.64,247.48Z"/><path class="cls-6" d="M236.76,252.16l-5.26-3c-.42-.25-.37-.67.12-.95l5.21-3a1.83,1.83,0,0,1,1.64-.07l5.26,3c.42.24.37.67-.12,1l-5.21,3A1.77,1.77,0,0,1,236.76,252.16Z"/><path class="cls-6" d="M244.87,256.85l-5.25-3c-.43-.24-.37-.67.11-.95l5.21-3a1.85,1.85,0,0,1,1.65-.07l5.25,3c.42.25.37.67-.12,1l-5.2,3A1.85,1.85,0,0,1,244.87,256.85Z"/><path class="cls-6" d="M167.56,203.09l-5.25-3c-.43-.25-.37-.67.11-.95l5.21-3a1.85,1.85,0,0,1,1.65-.07l5.25,3c.42.24.37.67-.12,1l-5.2,3A1.85,1.85,0,0,1,167.56,203.09Z"/><path class="cls-6" d="M159.49,198.43l-5.26-3c-.42-.24-.37-.66.12-.95l5.21-3a1.83,1.83,0,0,1,1.64-.07l5.26,3c.42.25.37.67-.12.95l-5.21,3A1.83,1.83,0,0,1,159.49,198.43Z"/><path class="cls-6" d="M151.41,193.77l-5.25-3c-.43-.24-.37-.67.11-.95l5.21-3a1.82,1.82,0,0,1,1.65-.07l5.25,3c.42.25.37.67-.12.95l-5.2,3A1.85,1.85,0,0,1,151.41,193.77Z"/><path class="cls-6" d="M143.34,189.1l-5.26-3c-.42-.24-.37-.67.12-.95l5.21-3a1.8,1.8,0,0,1,1.64-.06l5.26,3c.42.24.37.67-.12.95L145,189A1.8,1.8,0,0,1,143.34,189.1Z"/><path class="cls-6" d="M151.64,184.31l-5.26-3c-.42-.25-.36-.67.12-.95l1.72-1a1.85,1.85,0,0,1,1.65-.07l5.26,3c.42.24.36.67-.12.95l-1.72,1A1.85,1.85,0,0,1,151.64,184.31Z"/><path class="cls-6" d="M162.18,190.39l-5.26-3c-.42-.24-.37-.67.12-1l1.72-1a1.82,1.82,0,0,1,1.65-.07l5.25,3c.43.25.37.67-.12,1l-1.72,1A1.8,1.8,0,0,1,162.18,190.39Z"/><path class="cls-6" d="M170.22,195,165,192c-.42-.24-.37-.67.12-.95l1.72-1a1.85,1.85,0,0,1,1.65-.07l5.25,3c.43.24.37.66-.11.95l-1.73,1A1.83,1.83,0,0,1,170.22,195Z"/><path class="cls-6" d="M178.26,199.68l-5.25-3c-.43-.25-.37-.67.11-1l1.72-1a1.85,1.85,0,0,1,1.65-.07l5.26,3c.42.24.36.67-.12,1l-1.72,1A1.85,1.85,0,0,1,178.26,199.68Z"/><path class="cls-6" d="M186.3,204.32l-5.25-3c-.43-.24-.37-.67.11-.95l1.73-1a1.8,1.8,0,0,1,1.64-.06l5.26,3c.42.24.37.67-.12.95l-1.72,1A1.79,1.79,0,0,1,186.3,204.32Z"/><path class="cls-6" d="M231.19,230.24l-5.25-3c-.42-.25-.37-.67.12-1l1.72-1a1.8,1.8,0,0,1,1.64-.06l5.26,3c.42.24.37.67-.12,1l-1.72,1A1.82,1.82,0,0,1,231.19,230.24Z"/><path class="cls-6" d="M239.24,234.88l-5.26-3c-.42-.24-.37-.67.12-.95l1.72-1a1.79,1.79,0,0,1,1.65-.07l5.25,3c.42.25.37.67-.12.95l-1.72,1A1.8,1.8,0,0,1,239.24,234.88Z"/><path class="cls-6" d="M247.28,239.53l-5.26-3c-.42-.24-.37-.67.12-1l1.72-1a1.85,1.85,0,0,1,1.65-.07l5.25,3c.42.25.37.67-.12,1l-1.72,1A1.83,1.83,0,0,1,247.28,239.53Z"/><path class="cls-6" d="M255.32,244.17l-5.26-3c-.42-.25-.37-.67.12-.95l1.72-1a1.85,1.85,0,0,1,1.65-.07l5.25,3c.43.24.37.67-.11,1l-1.73,1A1.83,1.83,0,0,1,255.32,244.17Z"/><path class="cls-6" d="M175.68,207.78l-5.26-3c-.42-.24-.37-.67.12-1l5.21-3a1.77,1.77,0,0,1,1.64-.07l5.26,3c.42.25.37.67-.12.95l-5.21,3A1.83,1.83,0,0,1,175.68,207.78Z"/><path class="cls-6" d="M183.79,212.46l-5.25-3c-.43-.25-.37-.67.11-1l5.21-3a1.85,1.85,0,0,1,1.65-.07l5.25,3c.42.24.37.67-.12.95l-5.2,3A1.82,1.82,0,0,1,183.79,212.46Z"/><path class="cls-6" d="M191.91,217.15l-5.26-3c-.42-.24-.37-.67.12-1l5.21-3a1.8,1.8,0,0,1,1.64-.07l5.26,3c.42.25.37.67-.12.95l-5.21,3A1.83,1.83,0,0,1,191.91,217.15Z"/><path class="cls-6" d="M200,221.83l-5.25-3c-.42-.25-.37-.67.12-1l5.2-3a1.85,1.85,0,0,1,1.65-.07l5.25,3c.43.24.37.67-.12.95l-5.2,3A1.79,1.79,0,0,1,200,221.83Z"/><path class="cls-6" d="M208.14,226.52l-5.26-3c-.42-.24-.37-.67.12-.95l5.21-3a1.83,1.83,0,0,1,1.64-.07l5.26,3c.42.25.37.67-.12.95l-5.21,3A1.83,1.83,0,0,1,208.14,226.52Z"/><path class="cls-6" d="M216.25,231.2l-5.25-3c-.42-.24-.37-.67.12-.95l5.2-3a1.85,1.85,0,0,1,1.65-.07l5.25,3c.43.24.37.67-.11.95l-5.21,3A1.79,1.79,0,0,1,216.25,231.2Z"/><path class="cls-6" d="M224.37,235.89l-5.26-3c-.42-.24-.37-.66.12-.95l5.21-3a1.83,1.83,0,0,1,1.64-.07l5.26,3c.42.25.37.67-.12.95l-5.21,3A1.83,1.83,0,0,1,224.37,235.89Z"/><path class="cls-6" d="M232.48,240.57l-5.25-3c-.42-.24-.37-.67.12-.95l5.2-3a1.85,1.85,0,0,1,1.65-.07l5.25,3c.43.24.37.67-.11.95l-5.21,3A1.82,1.82,0,0,1,232.48,240.57Z"/><path class="cls-6" d="M240.6,245.26l-5.26-3c-.42-.25-.37-.67.12-1l5.21-3a1.83,1.83,0,0,1,1.64-.07l5.26,3c.42.25.37.67-.12,1l-5.21,3A1.83,1.83,0,0,1,240.6,245.26Z"/><path class="cls-6" d="M129.28,208.35l-15.48-8.93c-.42-.24-.37-.67.12-.95l5.21-3a1.83,1.83,0,0,1,1.64-.07l15.48,8.94c.42.24.37.67-.12.95l-5.2,3A1.82,1.82,0,0,1,129.28,208.35Z"/><path class="cls-6" d="M229,265.92,213.5,257c-.42-.24-.37-.67.12-1l5.21-3a1.8,1.8,0,0,1,1.64-.06L236,261.89c.42.24.37.67-.12.95l-5.21,3A1.83,1.83,0,0,1,229,265.92Z"/><path class="cls-6" d="M196.52,257.53l-5.25-3c-.42-.24-.37-.67.12-1l6.2-3.58a1.85,1.85,0,0,1,1.65-.07l5.25,3c.42.24.37.67-.12.95l-6.2,3.58A1.85,1.85,0,0,1,196.52,257.53Z"/><path class="cls-6" d="M137.59,223.5l-8.4-4.85c-.43-.24-.37-.67.11-1l6.21-3.58a1.83,1.83,0,0,1,1.64-.07l8.41,4.85c.42.25.37.67-.12.95l-6.2,3.58A1.79,1.79,0,0,1,137.59,223.5Z"/><path class="cls-6" d="M188.7,253l-8.4-4.85c-.42-.24-.37-.67.12-.95l6.2-3.58a1.85,1.85,0,0,1,1.65-.07l8.4,4.85c.42.25.37.67-.12,1l-6.2,3.58A1.79,1.79,0,0,1,188.7,253Z"/><path class="cls-6" d="M149.3,230.26l-8.4-4.85c-.43-.24-.37-.67.11-.95l6.21-3.58a1.83,1.83,0,0,1,1.64-.07l8.41,4.85c.42.25.37.67-.12,1l-6.2,3.58A1.79,1.79,0,0,1,149.3,230.26Z"/><path class="cls-6" d="M148.92,220.84l36.54,21.1a.5.5,0,0,1,0,.95l-6.33,3.65a1.82,1.82,0,0,1-1.64,0L141,225.44Z"/><path class="cls-6" d="M219.2,266l5.86,3.38c.34.2.3.55-.1.78l-2.54,1.47a1.5,1.5,0,0,1-1.35.05l-5.85-3.38c-.34-.2-.3-.55.1-.78l2.54-1.46A1.48,1.48,0,0,1,219.2,266Z"/><path class="cls-6" d="M211,261.3l5.86,3.38c.34.2.3.55-.1.78l-2.54,1.46a1.5,1.5,0,0,1-1.35.06L207,263.6c-.35-.2-.3-.55.1-.78l2.53-1.47A1.5,1.5,0,0,1,211,261.3Z"/><path class="cls-6" d="M202.91,256.61l5.85,3.38c.35.2.3.55-.1.78l-2.53,1.47a1.5,1.5,0,0,1-1.35.05l-5.86-3.38c-.34-.2-.3-.55.1-.78l2.54-1.46A1.5,1.5,0,0,1,202.91,256.61Z"/><path class="cls-6" d="M215.5,258.71l5.86,3.38c.34.2.3.55-.1.78l-2.54,1.46a1.5,1.5,0,0,1-1.35.06L211.52,261c-.35-.2-.3-.55.1-.78l2.53-1.46A1.5,1.5,0,0,1,215.5,258.71Z"/><g class="cls-11"><path class="cls-12" d="M204.75,115.09,197,110.61a2.22,2.22,0,0,1-1-2.3h0a1.08,1.08,0,0,1,1.66-.8l7.77,4.49a2.2,2.2,0,0,1,.94,2.3h0A1.08,1.08,0,0,1,204.75,115.09Z"/><path class="cls-12" d="M223.25,125.77l-11.45-6.61a2.22,2.22,0,0,1-1-2.3h0a1.08,1.08,0,0,1,1.66-.79L224,122.68a2.21,2.21,0,0,1,.95,2.3h0A1.08,1.08,0,0,1,223.25,125.77Z"/><path class="cls-12" d="M191.21,151.34l-7.76-4.48a2.22,2.22,0,0,1-.95-2.3h0a1.08,1.08,0,0,1,1.66-.8l7.77,4.49a2.23,2.23,0,0,1,.95,2.3h0A1.09,1.09,0,0,1,191.21,151.34Z"/><path class="cls-12" d="M207.7,160.86l-11.45-6.61a2.22,2.22,0,0,1-.94-2.3h0a1.08,1.08,0,0,1,1.66-.79l11.45,6.61a2.23,2.23,0,0,1,1,2.3h0A1.09,1.09,0,0,1,207.7,160.86Z"/><path class="cls-12" d="M181.84,109.21l-4.85-2.8a2.24,2.24,0,0,1-1-2.3h0a1.09,1.09,0,0,1,1.67-.8l4.85,2.81a2.2,2.2,0,0,1,.94,2.3h0A1.08,1.08,0,0,1,181.84,109.21Z"/><path class="cls-12" d="M196.79,125.19,182,116.63a2.24,2.24,0,0,1-.95-2.3h0a1.09,1.09,0,0,1,1.67-.8l14.82,8.56a2.24,2.24,0,0,1,1,2.3h0A1.09,1.09,0,0,1,196.79,125.19Z"/><path class="cls-12" d="M183.83,132.39l-4.85-2.8a2.24,2.24,0,0,1-.95-2.3h0a1.07,1.07,0,0,1,1.66-.79l4.86,2.8a2.2,2.2,0,0,1,.94,2.3h0A1.08,1.08,0,0,1,183.83,132.39Z"/><path class="cls-12" d="M210.2,177l-13-7.48a2.22,2.22,0,0,1-.94-2.3h0a1.07,1.07,0,0,1,1.66-.79l12.95,7.48a2.21,2.21,0,0,1,1,2.3h0A1.08,1.08,0,0,1,210.2,177Z"/><path class="cls-12" d="M179.1,144.35l-3.11-1.8a2.22,2.22,0,0,1-1-2.3h0a1.08,1.08,0,0,1,1.66-.79l3.12,1.79a2.22,2.22,0,0,1,.94,2.3h0A1.08,1.08,0,0,1,179.1,144.35Z"/><path class="cls-12" d="M176.86,157.74,173,155.51a2.22,2.22,0,0,1-.95-2.3h0a1.08,1.08,0,0,1,1.66-.79l3.87,2.23a2.24,2.24,0,0,1,.95,2.3h0A1.09,1.09,0,0,1,176.86,157.74Z"/><path class="cls-12" d="M191.91,166.43l-10.2-5.89a2.23,2.23,0,0,1-1-2.3h0a1.09,1.09,0,0,1,1.67-.79l10.19,5.89a2.21,2.21,0,0,1,.95,2.3h0A1.08,1.08,0,0,1,191.91,166.43Z"/><path class="cls-12" d="M178.83,166.22,171.5,162a2.24,2.24,0,0,1-.95-2.3h0a1.08,1.08,0,0,1,1.66-.79l7.34,4.23a2.22,2.22,0,0,1,.94,2.3h0A1.08,1.08,0,0,1,178.83,166.22Z"/><path class="cls-12" d="M221.32,183.44l-4.71-2.72a2.23,2.23,0,0,1-1-2.3h0a1.08,1.08,0,0,1,1.66-.79l4.71,2.72a2.21,2.21,0,0,1,.95,2.3h0A1.08,1.08,0,0,1,221.32,183.44Z"/><path class="cls-12" d="M201.88,142.81l-13-7.48A2.24,2.24,0,0,1,188,133h0a1.08,1.08,0,0,1,1.66-.8l13,7.48a2.22,2.22,0,0,1,.95,2.3h0A1.08,1.08,0,0,1,201.88,142.81Z"/><path class="cls-12" d="M203.06,136.15l-22.58-13a2.22,2.22,0,0,1-.95-2.3h0a1.08,1.08,0,0,1,1.66-.8l22.58,13a2.22,2.22,0,0,1,.95,2.3h0A1.08,1.08,0,0,1,203.06,136.15Z"/><path class="cls-12" d="M190.44,143.55l-13-7.48a2.22,2.22,0,0,1-.94-2.3h0a1.07,1.07,0,0,1,1.66-.79l13,7.48a2.2,2.2,0,0,1,.94,2.3h0A1.08,1.08,0,0,1,190.44,143.55Z"/><path class="cls-12" d="M211.7,148.48l-4.7-2.72a2.21,2.21,0,0,1-.95-2.3h0a1.08,1.08,0,0,1,1.66-.79l4.71,2.72a2.23,2.23,0,0,1,1,2.3h0A1.09,1.09,0,0,1,211.7,148.48Z"/><path class="cls-12" d="M258.18,145.94l-27.88-16.1a2.22,2.22,0,0,1-1-2.3h0a1.08,1.08,0,0,1,1.66-.79l27.88,16.09a2.24,2.24,0,0,1,.95,2.3h0A1.08,1.08,0,0,1,258.18,145.94Z"/><path class="cls-12" d="M190.07,158l-15.58-9a2.22,2.22,0,0,1-.94-2.3h0a1.08,1.08,0,0,1,1.66-.79l15.57,9a2.22,2.22,0,0,1,.95,2.3h0A1.08,1.08,0,0,1,190.07,158Z"/><path class="cls-12" d="M189.94,106.54l-11.45-6.61a2.22,2.22,0,0,1-1-2.3h0a1.08,1.08,0,0,1,1.66-.8l11.45,6.62a2.21,2.21,0,0,1,.95,2.3h0A1.08,1.08,0,0,1,189.94,106.54Z"/><path class="cls-12" d="M176.79,172.39l-13.26-7.66a2.21,2.21,0,0,1-.95-2.3h0a1.08,1.08,0,0,1,1.66-.79l13.26,7.66a2.19,2.19,0,0,1,.95,2.3h0A1.08,1.08,0,0,1,176.79,172.39Z"/><path class="cls-12" d="M266.54,200.34l-7.76-4.48a2.22,2.22,0,0,1-.95-2.3h0a1.08,1.08,0,0,1,1.66-.8l7.77,4.49a2.2,2.2,0,0,1,.94,2.3h0A1.08,1.08,0,0,1,266.54,200.34Z"/><path class="cls-12" d="M272.12,174.19l-14.82-8.56a2.22,2.22,0,0,1-.95-2.3h0a1.07,1.07,0,0,1,1.66-.79l14.83,8.55a2.22,2.22,0,0,1,.94,2.3h0A1.08,1.08,0,0,1,272.12,174.19Z"/><path class="cls-12" d="M259.16,181.39l-4.85-2.8a2.22,2.22,0,0,1-.95-2.3h0a1.08,1.08,0,0,1,1.66-.79l4.85,2.8a2.21,2.21,0,0,1,.95,2.3h0A1.08,1.08,0,0,1,259.16,181.39Z"/><path class="cls-12" d="M254.43,193.35l-3.11-1.8a2.22,2.22,0,0,1-.95-2.3h0a1.08,1.08,0,0,1,1.66-.79l3.11,1.79a2.22,2.22,0,0,1,.95,2.3h0A1.08,1.08,0,0,1,254.43,193.35Z"/><path class="cls-12" d="M277.2,191.81l-12.95-7.48a2.22,2.22,0,0,1-.95-2.3h0a1.08,1.08,0,0,1,1.66-.8l13,7.49a2.23,2.23,0,0,1,.95,2.3h0A1.09,1.09,0,0,1,277.2,191.81Z"/><path class="cls-12" d="M278.39,185.15l-22.59-13a2.22,2.22,0,0,1-.94-2.3h0a1.07,1.07,0,0,1,1.66-.79l22.58,13a2.22,2.22,0,0,1,.95,2.3h0A1.08,1.08,0,0,1,278.39,185.15Z"/><path class="cls-12" d="M265.77,192.55l-13-7.48a2.24,2.24,0,0,1-.95-2.3h0a1.09,1.09,0,0,1,1.67-.79l13,7.48a2.21,2.21,0,0,1,.95,2.3h0A1.08,1.08,0,0,1,265.77,192.55Z"/><path class="cls-12" d="M265.4,207l-15.58-9a2.24,2.24,0,0,1-.95-2.3h0a1.08,1.08,0,0,1,1.66-.79l15.58,9a2.24,2.24,0,0,1,.95,2.3h0A1.08,1.08,0,0,1,265.4,207Z"/></g><polygon class="cls-1" points="300.26 113.72 312.5 108.85 309.74 90.85 303.8 96.11 300.26 113.72"/><path class="cls-1" d="M218.35,29.78,247.92,18l-5.46,11.82s-15.79,3.65-15.79,3.65Z"/><path class="cls-1" d="M311.07,78.77a13.09,13.09,0,0,0-4.79-1.65c1.63-10.88-3.07-22.37-12.09-27.58a19.64,19.64,0,0,0-8.45-2.65c3.53-13.19-1.93-28.18-13.06-34.61A20.49,20.49,0,0,0,255,10.58h0l-.27.11-.43.17-9.26,3.64,3.69,3.18c-5,1.58-9.34,5.63-11.63,11.62-4.22,11,.11,24.47,9.67,30l56.81,47.89c7.18,4.14,11.53,2.41,14.7-5.88S318.25,82.91,311.07,78.77Z"/><path class="cls-1" d="M239.74,24.42l31.87-12.73A20.39,20.39,0,0,0,255,10.58h0l-.27.11-.43.17-9.26,3.64,3.69,3.18A17.68,17.68,0,0,0,239.74,24.42Z"/><path class="cls-1" d="M284.1,72.2l21-8.4a25.38,25.38,0,0,0-11.08-14.33,21.2,21.2,0,0,0-2.13-1.07L263,60Z"/><path class="cls-3" d="M251.55,15.82l9,5.22,15.67-6.24a24.17,24.17,0,0,0-3.57-2.52,21.84,21.84,0,0,0-6.13-2.43Z"/><path class="cls-3" d="M303.75,60.3l-15.14,6,4.47,6.28,13-5.17A28.84,28.84,0,0,0,303.75,60.3Z"/><path class="cls-3" d="M300.94,82.75a13.09,13.09,0,0,0-4.79-1.65c1.63-10.88-3.19-22.44-12.21-27.65a19.07,19.07,0,0,0-8.33-2.58c3.53-13.19-1.93-28.18-13.06-34.61-12-6.92-26-1.31-31.23,12.52-.18.47-.35.94-.5,1.42-9.14-4.07-19.23.51-23.19,10.88-4.22,11.05.1,24.47,9.66,30l72.18,41.7c7.18,4.14,15.56.78,18.73-7.51S308.12,86.9,300.94,82.75Z"/><path class="cls-8" d="M302.43,81.92a12.91,12.91,0,0,0-4.79-1.65c1.63-10.88-3.19-22.44-12.21-27.65A19.09,19.09,0,0,0,277.1,50c3.53-13.19-1.93-28.18-13.06-34.61a20.38,20.38,0,0,0-21.32.1,20.42,20.42,0,0,1,19.83.74c11.13,6.43,16.59,21.42,13.06,34.61a19.07,19.07,0,0,1,8.33,2.58c9,5.21,13.84,16.77,12.21,27.65a13.09,13.09,0,0,1,4.79,1.65c7.18,4.15,10.43,14.23,7.26,22.52a14.85,14.85,0,0,1-5.64,7.24,14.42,14.42,0,0,0,7.13-8.07C312.86,96.15,309.61,86.06,302.43,81.92Z"/><path class="cls-8" d="M230.82,30.2c.13-.42.28-.83.43-1.24a16,16,0,0,0-14.33,1.46A16.1,16.1,0,0,1,230.82,30.2Z"/><path class="cls-2" d="M222.66,32.36a9.4,9.4,0,0,0-3.81.77c-2.86,1.25-5.34,4.15-6.8,7.95-3.7,9.71.26,22,8.66,26.85l72.18,41.7a7.51,7.51,0,0,0,6.43.92c1.83-.74,3.45-2.66,4.45-5.28,2.68-7-.18-15.88-6.24-19.38a9.44,9.44,0,0,0-3.44-1.2l-2.93-.4.38-2.51c1.51-10-3.13-20.63-11-25.18a15.06,15.06,0,0,0-6.64-2.11l-3.63-.24.82-3c3.24-12.09-2-26.06-11.93-31.8-4.62-2.67-9.49-3.21-13.7-1.52s-7.66,5.56-9.7,10.9c-.15.41-.3.83-.44,1.25l-1.94,6-5.66-2.52A12.37,12.37,0,0,0,222.66,32.36Z"/><polygon class="cls-1" points="258.03 78.74 260.52 77.74 258.58 76.25 258.03 78.74"/><polygon class="cls-1" points="256.79 51.8 259.2 50.82 259.03 51.83 256.79 51.8"/><polygon class="cls-1" points="265.84 72.44 268.36 71.43 264.68 67.73 265.84 72.44"/><path class="cls-1" d="M259.86,77.68l-9.63-5.57a1.56,1.56,0,0,1-.66-1.58l2.31-10.94,11.4,6.59L261,77.11A.73.73,0,0,1,259.86,77.68Z"/><path class="cls-1" d="M259.18,50.83l-13,6.56c-.55.28-.37,1.32.3,1.71l10.63,6.13,10.62,6.14c.67.38,1.21-.24.88-1l-7.72-18.53C260.54,51,259.74,50.55,259.18,50.83Z"/><path class="cls-3" d="M257.34,78.7l-9.64-5.57a1.55,1.55,0,0,1-.65-1.58l2.3-10.94,11.41,6.59-2.31,10.93A.73.73,0,0,1,257.34,78.7Z"/><path class="cls-3" d="M256.65,51.85l-13,6.56c-.55.28-.37,1.32.31,1.71l10.62,6.13,10.63,6.14c.67.38,1.2-.24.87-1l-7.72-18.53C258,52,257.21,51.57,256.65,51.85Z"/><path class="cls-4" d="M13,296.63,51.51,274.5c3-1.74,8.33-1.51,11.83.52l79,45.82c3.5,2,3.87,5.09.83,6.83L104.64,349.8c-3,1.74-8.33,1.51-11.83-.52l-79-45.82C10.34,301.43,10,298.37,13,296.63Z"/><path class="cls-2" d="M106.18,342.48l39.43-22.65a4.57,4.57,0,0,0,2.64-3.71h0l0-6.79L147,311.52a9.58,9.58,0,0,0-2.48-2L65.13,263.45c-4.5-2.61-11.31-2.91-15.22-.66L10.48,285.45a6.86,6.86,0,0,0-1.1.77l-1.52-1.93,0,6.38h0c0,1.75,1.2,3.62,3.72,5.08L91,341.82C95.46,344.43,102.27,344.73,106.18,342.48Z"/><path class="cls-3" d="M10.51,280.4l39.43-22.66c3.91-2.24,10.72-1.94,15.22.67l79.41,46.07c4.5,2.61,5,6.54,1.08,8.79l-39.44,22.66c-3.91,2.24-10.72,1.94-15.22-.67L11.58,289.19C7.08,286.58,6.6,282.65,10.51,280.4Z"/><path class="cls-8" d="M145.65,313.27l-39.44,22.66c-3.91,2.24-10.72,1.94-15.22-.67L11.58,289.19c-2.18-1.26-3.41-2.84-3.66-4.38-.31,1.89.93,4,3.66,5.54L91,336.42c4.5,2.61,11.31,2.91,15.22.67l39.44-22.66c2-1.16,2.85-2.76,2.58-4.41A4.77,4.77,0,0,1,145.65,313.27Z"/><path class="cls-8" d="M13,281.31l38.51-22.12c3-1.75,8.33-1.52,11.83.51l79,45.82c3.5,2,3.87,5.09.83,6.84l-38.51,22.12c-3,1.75-8.33,1.52-11.83-.51l-79-45.82C10.34,286.12,10,283.06,13,281.31Z"/><path class="cls-4" d="M75,289.36l-14.25-8.23c-.53-.3-.47-.84.14-1.19h0a2.3,2.3,0,0,1,2.07-.08l14.25,8.23c.53.3.46.84-.15,1.19h0A2.28,2.28,0,0,1,75,289.36Z"/><path class="cls-4" d="M61.53,286.58l-5.09-2.94c-.53-.31-.46-.84.15-1.19h0a2.31,2.31,0,0,1,2.06-.09l5.09,2.94c.53.3.46.84-.15,1.19h0A2.31,2.31,0,0,1,61.53,286.58Z"/><path class="cls-7" d="M70.06,291.5,65,288.57c-.53-.31-.46-.84.15-1.19h0a2.28,2.28,0,0,1,2.06-.09l5.08,2.94c.53.3.47.83-.14,1.19h0A2.3,2.3,0,0,1,70.06,291.5Z"/><path class="cls-4" d="M87.32,301.47l-13.81-8c-.53-.3-.46-.83.15-1.19h0a2.28,2.28,0,0,1,2.06-.08l13.81,8c.53.3.46.84-.15,1.19h0A2.31,2.31,0,0,1,87.32,301.47Z"/><path class="cls-4" d="M69.91,296.43,52.1,286.15c-.53-.31-.46-.84.15-1.19h0a2.25,2.25,0,0,1,2.06-.09l17.81,10.28c.53.31.47.84-.14,1.19h0A2.3,2.3,0,0,1,69.91,296.43Z"/><path class="cls-7" d="M91.33,313.81,47.76,288.65c-.53-.3-.46-.84.15-1.19h0a2.28,2.28,0,0,1,2.06-.08l43.57,25.16c.53.3.47.84-.14,1.19h0A2.3,2.3,0,0,1,91.33,313.81Z"/><path class="cls-4" d="M104.05,306.11,79,291.64c-.53-.31-.47-.84.14-1.2h0a2.3,2.3,0,0,1,2.07-.08l25.07,14.48c.53.3.46.83-.15,1.19h0A2.28,2.28,0,0,1,104.05,306.11Z"/><path class="cls-3" d="M73.34,329.75l-3.67-2.12a1.56,1.56,0,0,1-.66-1.26h0c0-.49.29-.71.66-.5L73.34,328a1.58,1.58,0,0,1,.66,1.26h0C74,329.74,73.7,330,73.34,329.75Z"/><path class="cls-7" d="M79.11,333.09,75.44,331a1.56,1.56,0,0,1-.66-1.26h0c0-.48.29-.71.66-.5l3.67,2.12a1.58,1.58,0,0,1,.66,1.26h0C79.77,333.08,79.47,333.3,79.11,333.09Z"/></svg>