<svg xmlns="http://www.w3.org/2000/svg" viewBox="0 0 348.86 326.29"><defs><style>.cls-1{isolation:isolate;}.cls-19,.cls-2,.cls-25,.cls-39,.cls-48{opacity:0.5;}.cls-22,.cls-28,.cls-3,.cls-45{opacity:0;}.cls-23,.cls-24,.cls-25,.cls-26,.cls-27,.cls-28,.cls-4{fill:#fdcde7;}.cls-5{opacity:0.17;}.cls-6{opacity:0.33;}.cls-7{opacity:0.67;}.cls-8{opacity:0.83;}.cls-9{opacity:0.7;}.cls-10{opacity:0.17;}.cls-11{opacity:0.33;}.cls-12{opacity:0.67;}.cls-13{opacity:0.83;}.cls-14,.cls-61{opacity:0.8;}.cls-15,.cls-40,.cls-51{mix-blend-mode:overlay;}.cls-16,.cls-17,.cls-18,.cls-19,.cls-20,.cls-21,.cls-22{fill:#f1f5fa;}.cls-17,.cls-50{opacity:0.83;}.cls-18,.cls-49{opacity:0.67;}.cls-20,.cls-47{opacity:0.33;}.cls-21,.cls-46{opacity:0.17;}.cls-23{opacity:0.83;}.cls-24{opacity:0.67;}.cls-26{opacity:0.33;}.cls-27{opacity:0.17;}.cls-29{opacity:0.2;}.cls-30{fill:#8fedff;}.cls-31{fill:#c5f9ff;}.cls-32{fill:#41c0fd;}.cls-33{fill:#2afbfe;}.cls-34{fill:#66d4e2;}.cls-35{fill:#4bbcc4;}.cls-36{fill:#53d5ea;}.cls-37{fill:#6afce5;}.cls-38{opacity:0.1;}.cls-39{fill:#d4fcf4;}.cls-40,.cls-41{fill:#6acef5;}.cls-42{opacity:0.67;}.cls-43{opacity:0.33;}.cls-44{opacity:0.17;}.cls-45{fill:#fff;}.cls-46{fill:#dbfeff;}.cls-47{fill:#b8feff;}.cls-48{fill:#95fdff;}.cls-49{fill:#71fcfe;}.cls-50{fill:#4efcfe;}.cls-51{fill:#0edbfc;}.cls-52{fill:#36e1fc;}.cls-53{fill:#5de6fc;}.cls-54{fill:#85ecfd;}.cls-55{fill:#adf2fd;}.cls-56{fill:#d4f7fd;}.cls-57{fill:#fcfdfd;}.cls-58,.cls-59,.cls-60,.cls-61,.cls-62,.cls-63,.cls-64{fill:#dcdcdc;}.cls-58{opacity:0.6;}.cls-59{opacity:0.67;}.cls-60{opacity:0.73;}.cls-62{opacity:0.87;}.cls-63{opacity:0.93;}</style></defs><title>OCR</title><g class="cls-1"><g id="Layer_1" data-name="Layer 1"><g class="cls-2"><g class="cls-3"><path class="cls-4" d="M331.38,236.37l-4.71,2.74a1,1,0,0,1-1,0L321,236.37a1,1,0,0,1,0-1.66l4.71-2.74a1,1,0,0,1,1,0l4.75,2.74A1,1,0,0,1,331.38,236.37Z"/></g><g class="cls-5"><path class="cls-4" d="M331.38,229.91l-4.71,2.74a1,1,0,0,1-1,0L321,229.91a1,1,0,0,1,0-1.66l4.71-2.74a1,1,0,0,1,1,0l4.75,2.74A1,1,0,0,1,331.38,229.91Z"/></g><g class="cls-6"><path class="cls-4" d="M331.38,223.45l-4.71,2.74a1,1,0,0,1-1,0L321,223.45a1,1,0,0,1,0-1.66l4.71-2.74a1,1,0,0,1,1,0l4.75,2.74A1,1,0,0,1,331.38,223.45Z"/></g><g class="cls-2"><path class="cls-4" d="M331.38,217l-4.71,2.74a1,1,0,0,1-1,0L321,217a1,1,0,0,1,0-1.66l4.71-2.74a1,1,0,0,1,1,0l4.75,2.74A1,1,0,0,1,331.38,217Z"/></g><g class="cls-7"><path class="cls-4" d="M331.38,210.53l-4.71,2.74a1,1,0,0,1-1,0L321,210.53a1,1,0,0,1,0-1.66l4.71-2.74a1,1,0,0,1,1,0l4.75,2.74A1,1,0,0,1,331.38,210.53Z"/></g><g class="cls-8"><path class="cls-4" d="M331.38,204.07l-4.71,2.74a1,1,0,0,1-1,0L321,204.07a1,1,0,0,1,0-1.66l4.71-2.74a1,1,0,0,1,1,0l4.75,2.74A1,1,0,0,1,331.38,204.07Z"/></g><path class="cls-4" d="M331.38,197.61l-4.71,2.74a1,1,0,0,1-1,0L321,197.61a1,1,0,0,1,0-1.66l4.71-2.74a1,1,0,0,1,1,0l4.75,2.74A1,1,0,0,1,331.38,197.61Z"/></g><path class="cls-4" d="M331.38,197.61l-4.71,2.74a1,1,0,0,1-1,0L321,197.61a1,1,0,0,1,0-1.66l4.71-2.74a1,1,0,0,1,1,0l4.75,2.74A1,1,0,0,1,331.38,197.61Z"/><g class="cls-9"><g class="cls-3"><path class="cls-4" d="M348.54,140.78l-3.18,1.91a.63.63,0,0,1-.65,0l-3.26-1.82a.65.65,0,0,1,0-1.13l3.18-1.91a.63.63,0,0,1,.65,0l3.26,1.81A.65.65,0,0,1,348.54,140.78Z"/></g><g class="cls-10"><path class="cls-4" d="M348.47,134.6l-3.18,1.91a.65.65,0,0,1-.66,0l-3.26-1.82a.66.66,0,0,1,0-1.13l3.18-1.91a.67.67,0,0,1,.66,0l3.26,1.82A.65.65,0,0,1,348.47,134.6Z"/></g><g class="cls-11"><path class="cls-4" d="M348.39,128.42l-3.17,1.91a.67.67,0,0,1-.66,0l-3.26-1.82a.65.65,0,0,1,0-1.13l3.18-1.91a.63.63,0,0,1,.65,0l3.27,1.82A.66.66,0,0,1,348.39,128.42Z"/></g><g class="cls-2"><path class="cls-4" d="M348.32,122.23l-3.18,1.91a.63.63,0,0,1-.65,0l-3.26-1.81a.65.65,0,0,1,0-1.13l3.18-1.91a.63.63,0,0,1,.65,0l3.26,1.82A.65.65,0,0,1,348.32,122.23Z"/></g><g class="cls-12"><path class="cls-4" d="M348.25,116.05,345.07,118a.67.67,0,0,1-.66,0l-3.26-1.82a.66.66,0,0,1,0-1.13l3.18-1.91a.67.67,0,0,1,.66,0l3.26,1.82A.65.65,0,0,1,348.25,116.05Z"/></g><g class="cls-13"><path class="cls-4" d="M348.17,109.87,345,111.78a.67.67,0,0,1-.66,0L341.08,110a.65.65,0,0,1,0-1.13l3.18-1.91a.63.63,0,0,1,.65,0l3.27,1.82A.66.66,0,0,1,348.17,109.87Z"/></g><path class="cls-4" d="M348.1,103.68l-3.18,1.91a.63.63,0,0,1-.65,0L341,103.79a.65.65,0,0,1,0-1.13l3.18-1.92a.66.66,0,0,1,.65,0l3.26,1.82A.65.65,0,0,1,348.1,103.68Z"/></g><g class="cls-14"><path class="cls-4" d="M348.1,103.68l-3.18,1.91a.65.65,0,0,1-.66,0L341,103.79a.65.65,0,0,1,0-1.13l3.18-1.92a.67.67,0,0,1,.66,0l3.26,1.82A.66.66,0,0,1,348.1,103.68Z"/></g><g class="cls-15"><path class="cls-16" d="M288.8,109.29l1.7,1a1.66,1.66,0,0,0,1.68,0l1.71-1a1.68,1.68,0,0,0,0-2.91l-1.7-1a1.68,1.68,0,0,0-1.68,0l-1.71,1A1.68,1.68,0,0,0,288.8,109.29Z"/><path class="cls-17" d="M288.85,91.76l1.69,1a1.66,1.66,0,0,0,1.68,0l1.71-1a1.68,1.68,0,0,0,0-2.91l-1.69-1a1.72,1.72,0,0,0-1.69,0l-1.71,1A1.68,1.68,0,0,0,288.85,91.76Z"/><path class="cls-18" d="M288.89,74.23l1.69,1a1.68,1.68,0,0,0,1.69,0l1.71-1a1.68,1.68,0,0,0,0-2.91l-1.69-1a1.68,1.68,0,0,0-1.68,0l-1.71,1A1.68,1.68,0,0,0,288.89,74.23Z"/><path class="cls-19" d="M288.93,56.7l1.7,1a1.68,1.68,0,0,0,1.68,0l1.71-1a1.68,1.68,0,0,0,0-2.91l-1.7-1a1.68,1.68,0,0,0-1.68,0l-1.71,1A1.69,1.69,0,0,0,288.93,56.7Z"/><path class="cls-20" d="M289,39.17l1.69,1a1.68,1.68,0,0,0,1.68,0l1.71-1a1.68,1.68,0,0,0,0-2.91l-1.7-1a1.68,1.68,0,0,0-1.68,0l-1.71,1A1.69,1.69,0,0,0,289,39.17Z"/><path class="cls-21" d="M289,21.64l1.69,1a1.68,1.68,0,0,0,1.68,0l1.71-1a1.68,1.68,0,0,0,0-2.91l-1.7-1a1.68,1.68,0,0,0-1.68,0l-1.7,1A1.69,1.69,0,0,0,289,21.64Z"/><path class="cls-22" d="M289.06,4.11l1.69,1a1.68,1.68,0,0,0,1.68,0l1.71-1a1.69,1.69,0,0,0,0-2.92l-1.69-1a1.68,1.68,0,0,0-1.69,0l-1.7,1A1.69,1.69,0,0,0,289.06,4.11Z"/></g><path class="cls-4" d="M.83,126.47l1.69.59a2.79,2.79,0,0,0,1.69,0l1.71-.58c1.12-.38,1.13-1.35,0-1.74l-1.7-.59a2.68,2.68,0,0,0-1.68,0l-1.71.58C-.28,125.11-.28,126.08.83,126.47Z"/><path class="cls-23" d="M.87,116l1.7.59a2.61,2.61,0,0,0,1.68,0L6,116c1.12-.38,1.14-1.35,0-1.74l-1.7-.59a2.75,2.75,0,0,0-1.68,0l-1.71.58C-.23,114.66-.24,115.62.87,116Z"/><path class="cls-24" d="M.92,105.55l1.69.6a2.68,2.68,0,0,0,1.68,0L6,105.57c1.13-.38,1.14-1.34,0-1.73l-1.69-.6a2.71,2.71,0,0,0-1.69,0l-1.71.58C-.19,104.2-.2,105.16.92,105.55Z"/><path class="cls-25" d="M1,95.1l1.69.59a2.75,2.75,0,0,0,1.68,0L6,95.12c1.13-.38,1.14-1.35,0-1.74l-1.69-.59a2.64,2.64,0,0,0-1.69,0L1,93.36C-.15,93.74-.16,94.71,1,95.1Z"/><path class="cls-26" d="M1,84.64l1.7.59a2.61,2.61,0,0,0,1.68,0l1.71-.58c1.12-.38,1.13-1.35,0-1.74l-1.69-.59a2.75,2.75,0,0,0-1.68,0L1,82.9C-.11,83.29-.11,84.25,1,84.64Z"/><path class="cls-27" d="M1,74.18l1.7.6a2.68,2.68,0,0,0,1.68,0l1.71-.58c1.12-.38,1.14-1.34,0-1.73l-1.7-.6a2.68,2.68,0,0,0-1.68,0l-1.71.58C-.06,72.83-.07,73.79,1,74.18Z"/><path class="cls-28" d="M1.09,63.73l1.69.59a2.68,2.68,0,0,0,1.68,0l1.71-.57c1.12-.39,1.14-1.35,0-1.74l-1.7-.59a2.61,2.61,0,0,0-1.68,0L1.1,62C0,62.37,0,63.34,1.09,63.73Z"/><path class="cls-4" d="M26.39,282.2l1.7,1a1.68,1.68,0,0,0,1.68,0l1.71-1a1.68,1.68,0,0,0,0-2.91l-1.7-1a1.66,1.66,0,0,0-1.68,0l-1.71,1A1.68,1.68,0,0,0,26.39,282.2Z"/><path class="cls-23" d="M26.44,264.67l1.69,1a1.68,1.68,0,0,0,1.68,0l1.71-1a1.68,1.68,0,0,0,0-2.91l-1.69-1a1.68,1.68,0,0,0-1.69,0l-1.71,1A1.68,1.68,0,0,0,26.44,264.67Z"/><path class="cls-24" d="M26.48,247.14l1.69,1a1.68,1.68,0,0,0,1.68,0l1.71-1a1.68,1.68,0,0,0,0-2.91l-1.69-1a1.68,1.68,0,0,0-1.69,0l-1.7,1A1.68,1.68,0,0,0,26.48,247.14Z"/><path class="cls-25" d="M26.52,229.61l1.69,1a1.68,1.68,0,0,0,1.69,0l1.71-1a1.68,1.68,0,0,0,0-2.91l-1.7-1a1.66,1.66,0,0,0-1.68,0l-1.71,1A1.68,1.68,0,0,0,26.52,229.61Z"/><path class="cls-26" d="M26.56,212.08l1.7,1a1.66,1.66,0,0,0,1.68,0l1.71-1a1.68,1.68,0,0,0,0-2.91l-1.7-1a1.68,1.68,0,0,0-1.68,0l-1.71,1A1.69,1.69,0,0,0,26.56,212.08Z"/><path class="cls-27" d="M26.61,194.55l1.69,1a1.66,1.66,0,0,0,1.68,0l1.71-1a1.68,1.68,0,0,0,0-2.91l-1.7-1a1.71,1.71,0,0,0-1.68,0l-1.71,1A1.69,1.69,0,0,0,26.61,194.55Z"/><path class="cls-28" d="M26.65,177l1.69,1A1.66,1.66,0,0,0,30,178l1.71-1a1.68,1.68,0,0,0,0-2.91l-1.69-1a1.7,1.7,0,0,0-1.69,0l-1.7,1A1.69,1.69,0,0,0,26.65,177Z"/><g class="cls-29"><path d="M259,253.48c7.07,4.07,7.11,10.69.09,14.77l-60.2,35c-7,4.08-18.47,4.08-25.53,0L110.66,267c-7.07-4.09-7.11-10.71-.08-14.79l60.19-35c7-4.09,18.46-4.08,25.53,0Z"/></g><path class="cls-30" d="M251.37,237.81a3.44,3.44,0,0,1-.05.45,3.06,3.06,0,0,1-.1.41,2.44,2.44,0,0,1-.13.44c0,.12-.1.24-.15.36s-.14.32-.22.48-.13.22-.2.33a6.18,6.18,0,0,1-.36.53,3.76,3.76,0,0,1-.25.31c-.19.23-.41.46-.63.69l-.26.25c-.14.13-.3.25-.46.38s-.28.23-.43.33-.35.24-.54.37l-.57.37-50.51,29.35c-.46.26-.94.49-1.43.72l-.43.18c-.39.17-.79.32-1.19.45-.15.05-.28.11-.43.15s-.52.16-.79.23l-.59.16-.83.17c-.19,0-.38.09-.58.12-.56.1-1.14.18-1.71.24l-.55.05-1,.06-.65,0h-.84l-.69,0-.77,0-.7-.05-.75-.08-.69-.11c-.26,0-.52-.08-.78-.13l-.64-.13-.93-.23-.53-.14c-.55-.16-1.09-.34-1.62-.55l-.22-.09a16.15,16.15,0,0,1-2.05-1l-52.61-30.38c-3-1.72-4.48-4-4.48-6.25L118,254.74c0,2.26,1.49,4.52,4.47,6.25l52.62,30.38a16.15,16.15,0,0,0,2,1,.45.45,0,0,0,.14.06s0,0,.08,0a16.21,16.21,0,0,0,1.62.55l.13,0,.39.1.93.23.26.06.38.07.81.14.31.05.34,0,.78.09.35,0,.34,0,.77,0,.38,0h1.55l.25,0,1-.06c.13,0,.27,0,.41,0l.13,0c.58-.06,1.15-.14,1.72-.24h.08l.5-.1.83-.19c.2,0,.39-.1.59-.15l.78-.23.17-.05.27-.1c.41-.14.8-.28,1.19-.45l.43-.18a15.72,15.72,0,0,0,1.42-.72L247,262a1.18,1.18,0,0,1,.19-.11l.39-.27a6.33,6.33,0,0,0,.54-.36c.15-.1.28-.22.43-.33s.32-.26.46-.39l.09-.07.16-.16c.22-.23.44-.46.64-.7l.14-.15v0h0v0a1.63,1.63,0,0,0,.11-.17,4,4,0,0,0,.34-.5c.05-.08.12-.16.16-.24l.06-.12a4.69,4.69,0,0,0,.21-.46,1.75,1.75,0,0,0,.13-.28.32.32,0,0,0,0-.09c.05-.15.09-.31.14-.46s.06-.2.08-.3a.22.22,0,0,0,0-.08,4.23,4.23,0,0,0,0-.5,2.89,2.89,0,0,0,0-.29v-.13l0-18.51A3.57,3.57,0,0,1,251.37,237.81Z"/><path class="cls-31" d="M247,231.11c5.93,3.42,6,9,.07,12.4l-50.51,29.35c-5.89,3.42-15.47,3.42-21.41,0l-52.61-30.38c-5.94-3.43-6-9-.09-12.4l50.51-29.36c5.89-3.42,15.48-3.42,21.42,0Z"/><path class="cls-32" d="M229.52,234.57c4.27,2.46,4.3,6.46,0,8.93l-36.38,21.14a17,17,0,0,1-15.43,0l-37.91-21.89c-4.27-2.47-4.3-6.47,0-8.94l36.39-21.14c4.24-2.47,11.15-2.47,15.42,0Z"/><path class="cls-33" d="M220.18,242.05c3.36,1.9,3.38,5,0,6.88l-28.68,16.29a13.68,13.68,0,0,1-12.16,0l-29.87-16.86c-3.37-1.9-3.39-5,0-6.89l28.67-16.28a13.65,13.65,0,0,1,12.16,0Z"/><path class="cls-30" d="M251.46,151.89a3.1,3.1,0,0,1-.05.45c0,.14-.07.27-.1.4s-.08.3-.13.45l-.15.37c-.07.16-.14.31-.22.47s-.14.23-.21.34a5.91,5.91,0,0,1-.35.52l-.25.32c-.2.23-.41.45-.64.68l-.25.25-.46.38-.43.33c-.16.13-.35.24-.52.36l-.6.38-50.5,29.34a13.49,13.49,0,0,1-1.42.72l-.43.19q-.58.24-1.2.45l-.43.15-.78.22-.6.16c-.27.07-.54.12-.82.18l-.59.12c-.57.1-1.14.18-1.72.24l-.55,0c-.33,0-.67.06-1,.07l-.68,0h-.82l-.69,0-.78,0-.69-.05-.75-.09-.69-.1-.81-.13-.61-.13-.95-.23-.51-.14c-.56-.17-1.1-.34-1.62-.55l-.23-.09a16.74,16.74,0,0,1-2-1l-52.62-30.38c-3-1.72-4.48-4-4.47-6.25q-.09,30.85-.18,61.7c0,2.26,1.49,4.53,4.48,6.25L175,248.64a16.15,16.15,0,0,0,2.05,1l.13.06.09,0a16.21,16.21,0,0,0,1.62.55l.13,0,.39.1.93.23.26.06.38.06c.26.06.54.11.81.15l.31,0,.35,0,.76.08a2.2,2.2,0,0,0,.36,0c.11,0,.23,0,.34,0l.77,0h1.93l.24,0c.35,0,.69,0,1-.07.14,0,.28,0,.42,0h.13c.57-.06,1.15-.14,1.72-.24h.08l.48-.11c.29,0,.57-.11.85-.18l.6-.16.77-.22.17,0,.28-.1q.6-.21,1.17-.45l.45-.19a13.49,13.49,0,0,0,1.42-.72l50.5-29.34.18-.11.39-.26c.18-.12.37-.24.54-.37a5.12,5.12,0,0,0,.44-.34c.15-.12.31-.24.45-.37l.1-.08.16-.18a5.88,5.88,0,0,0,.64-.69s.1-.09.14-.14a1.19,1.19,0,0,0,.09-.15c.14-.18.26-.36.38-.55s.1-.13.14-.2a.76.76,0,0,0,0-.11,3.6,3.6,0,0,0,.23-.49c0-.09.1-.17.13-.26l0-.1c.05-.15.09-.31.13-.47s.06-.19.08-.29a.17.17,0,0,0,0-.07,2,2,0,0,0,.05-.48,1.75,1.75,0,0,0,0-.32v-.13l.18-61.7A3.42,3.42,0,0,1,251.46,151.89Z"/><path class="cls-31" d="M247,145.19c5.93,3.42,6,9,.07,12.4l-50.5,29.34c-5.89,3.43-15.49,3.43-21.41,0l-52.62-30.38c-5.93-3.43-6-9-.06-12.41L173,114.8c5.9-3.42,15.48-3.42,21.42,0Z"/><path class="cls-32" d="M229.52,146.77c4.27,2.47,4.3,6.47,0,8.94l-36.38,21.14a17,17,0,0,1-15.43,0L139.85,155c-4.27-2.47-4.3-6.47,0-8.94l36.39-21.15a17,17,0,0,1,15.42,0Z"/><path class="cls-33" d="M220.18,154.26c3.36,1.89,3.38,5,0,6.88l-28.68,16.29a13.68,13.68,0,0,1-12.16,0l-29.87-16.86c-3.37-1.9-3.39-5,0-6.89l28.67-16.29a13.65,13.65,0,0,1,12.16,0Z"/><path class="cls-34" d="M206.55,189.92c1.68-1,3-.19,3,1.74l.1,35.2a6.69,6.69,0,0,1-3,5.25c-1.68,1-3.06.2-3.06-1.74l-.1-35.19A6.68,6.68,0,0,1,206.55,189.92Z"/><path class="cls-34" d="M223.47,181.91c1.69-1,3.05-.19,3.06,1.74l.1,35.2a6.68,6.68,0,0,1-3,5.25c-1.68,1-3.05.19-3.05-1.74l-.1-35.19A6.67,6.67,0,0,1,223.47,181.91Z"/><path class="cls-34" d="M238.67,174.28c1.69-1,3.05-.19,3.06,1.74l.1,35.2a6.65,6.65,0,0,1-3,5.25c-1.68,1-3,.19-3-1.74l-.1-35.2A6.69,6.69,0,0,1,238.67,174.28Z"/><path class="cls-34" d="M206.55,189.92c1.68-1,3-.19,3,1.74l.1,35.2a6.69,6.69,0,0,1-3,5.25c-1.68,1-3.06.2-3.06-1.74l-.1-35.19A6.68,6.68,0,0,1,206.55,189.92Z"/><path class="cls-34" d="M223.47,181.91c1.69-1,3.05-.19,3.06,1.74l.1,35.2a6.68,6.68,0,0,1-3,5.25c-1.68,1-3.05.19-3.05-1.74l-.1-35.19A6.67,6.67,0,0,1,223.47,181.91Z"/><path class="cls-34" d="M238.67,174.28c1.69-1,3.05-.19,3.06,1.74l.1,35.2a6.65,6.65,0,0,1-3,5.25c-1.68,1-3,.19-3-1.74l-.1-35.2A6.69,6.69,0,0,1,238.67,174.28Z"/><path class="cls-34" d="M206.55,189.92c1.68-1,3-.19,3,1.74l.1,35.2a6.69,6.69,0,0,1-3,5.25c-1.68,1-3.06.2-3.06-1.74l-.1-35.19A6.68,6.68,0,0,1,206.55,189.92Z"/><path class="cls-35" d="M203.51,195.18l.1,35.19c0,1.42.75,2.21,1.8,2.15a6.74,6.74,0,0,0,2.06-4.49l-.1-35.19c0-1.42-.75-2.21-1.8-2.15A6.74,6.74,0,0,0,203.51,195.18Z"/><path class="cls-35" d="M220.44,187.17l.1,35.19c0,1.42.74,2.21,1.8,2.15A6.74,6.74,0,0,0,224.4,220l-.1-35.2c0-1.41-.75-2.2-1.8-2.14A6.74,6.74,0,0,0,220.44,187.17Z"/><path class="cls-35" d="M235.64,179.53l.1,35.2c0,1.42.75,2.21,1.81,2.15a6.75,6.75,0,0,0,2-4.49l-.1-35.19c0-1.42-.75-2.22-1.8-2.16A6.78,6.78,0,0,0,235.64,179.53Z"/><path class="cls-34" d="M166.51,189.73c-1.68-1-3-.19-3.06,1.74l-.1,35.2a6.7,6.7,0,0,0,3,5.25c1.68,1,3.05.19,3.05-1.74l.1-35.19A6.67,6.67,0,0,0,166.51,189.73Z"/><path class="cls-34" d="M149.58,181.72c-1.68-1-3.05-.19-3.06,1.74l-.09,35.2a6.67,6.67,0,0,0,3,5.25c1.68,1,3,.19,3.06-1.74l.09-35.19A6.67,6.67,0,0,0,149.58,181.72Z"/><path class="cls-34" d="M134.38,174.09c-1.68-1-3-.19-3,1.74l-.1,35.19a6.68,6.68,0,0,0,3,5.26c1.68,1,3.05.19,3.06-1.74l.09-35.19A6.67,6.67,0,0,0,134.38,174.09Z"/><path class="cls-35" d="M169.44,230.18l.1-35.19a6.61,6.61,0,0,0-1.67-4.08c-1.26-.3-2.18.49-2.19,2.08l-.1,35.19a6.62,6.62,0,0,0,1.68,4.08C168.51,232.56,169.44,231.77,169.44,230.18Z"/><path class="cls-35" d="M152.52,222.17l.09-35.19A6.57,6.57,0,0,0,151,182.9c-1.27-.3-2.19.49-2.2,2.08l-.09,35.19a6.69,6.69,0,0,0,1.67,4.08C151.58,224.55,152.51,223.76,152.52,222.17Z"/><path class="cls-35" d="M137.32,214.54l.09-35.19a6.57,6.57,0,0,0-1.67-4.09c-1.25-.29-2.18.5-2.19,2.08l-.09,35.2a6.67,6.67,0,0,0,1.66,4.08C136.39,216.92,137.31,216.12,137.32,214.54Z"/><path class="cls-36" d="M122.83,83.05c-1.57-25.67,30.61-76.2,85.72-56.91,31.54,11,38.9,28.82,5.41,53.31,0,0,.35,13.69-25.94,11.53,0,0-16.93-.72-28.36,7.92C147.56,108.05,123.53,94.64,122.83,83.05Z"/><path class="cls-37" d="M224.08,39.43c-.09-.09-8.77-8.88-20.61-9.4a114.12,114.12,0,0,0-12.72.5c-9.79.74-21.65,1.14-31.37-3L162,26.41c9.24,3.88,19.09,2.68,28.62,2a113.47,113.47,0,0,1,13-.5c12.72.55,21.7,9.66,22.07,10.05Z"/><path class="cls-37" d="M188.21,29.43l-1.85-.31a6.08,6.08,0,0,0-.12-1.18c-.44-.74-4.08-3.37-13.54-4.87l3.49-.7c8.12,1.29,11,2.39,12.09,4.81A2.42,2.42,0,0,1,188.21,29.43Z"/><path class="cls-37" d="M159.73,45.63l-2.15-1.55c3.37-4.93,12.57-11.95,17.93-14.28,1.1-.48.39-.15,1.53-.67l2.74,1.14c-1.16.53-2.3,1-3.41,1.51C171.08,34.08,162.74,41.21,159.73,45.63Z"/><path class="cls-37" d="M128.72,58.68l1.19-2.29a49.54,49.54,0,0,0,8.69-2.51c2.32-.85,3.72-2.57,5.2-4.38,1.77-2.17,3.78-4.62,7.57-5.65a9.78,9.78,0,0,1,10.92,4L160.45,49a7.62,7.62,0,0,0-8.52-3c-3.12.84-4.74,2.82-6.45,4.93s-3.26,4-6.14,5A59.31,59.31,0,0,1,128.72,58.68Z"/><path class="cls-37" d="M140.34,54.12c-5.5-10.61,10.13-19.14,10.8-19.5l1,1.91c-.14.07-14.42,7.87-9.9,16.59Z"/><path class="cls-37" d="M132.19,96.22c-.45-.4-9.93-8.33-5.69-16.88a30.09,30.09,0,0,1,6.66-8.48c2.3-2.22,4-3.83,3.89-6.08-.09-3.6,3.26-7,6.61-8.59s6.33-1.27,8.43.62l-1.45,1.61c-2-1.83-4.92-.79-6.08-.27-3.05,1.42-5.41,4.3-5.34,6.57.08,3.2-2.07,5.28-4.56,7.7a28.07,28.07,0,0,0-6.23,7.88c-3.51,7.08,7.33,17.81,7.43,17.9Z"/><path class="cls-37" d="M124.33,70.23l.91-3c5.37-4.43,12.51-1.51,12.9-1.35l-.78,2C137.29,67.82,128.13,64.81,124.33,70.23Z"/><path class="cls-37" d="M139,92.23c-9.14-8.49-8.88-17.26-8.85-17.33l2.26-.46h0l-.24,1.23c-.09.23,2.74,9.4,7.89,14Z"/><path class="cls-38" d="M159.66,98.9C171.09,90.26,188,91,188,91,214.31,93.14,214,79.45,214,79.45c21.42-15.67,26.11-28.58,18.47-38.75A75.87,75.87,0,0,0,217,33.57c-55.11-19.29-87.29,31.24-85.72,56.91A12.82,12.82,0,0,0,134,97.16C142.12,102,152.8,104.09,159.66,98.9Z"/><path class="cls-37" d="M139,94.38c-1.56-25.67,24.14-73.84,85.73-56.91,12.92,3.55,38.9,28.81,5.41,53.31,0,0,.35,13.69-25.94,11.52,0,0-16.93-.72-28.36,7.93C163.77,119.38,139.74,106,139,94.38Z"/><path class="cls-36" d="M232.07,89.33l-1.9,1.45c0-.06,2.24-6.43.15-9.76-1.1-1.75-3.55-2.56-7.27-2.43l-1.57.06c-8.76.33-14.54.56-17.4-2.84-1.89-2.23-2.21-5.69-1-11.22,2.13-10,1.62-16.94-1.49-20.5C199.46,41.7,196,40.68,191.37,41c-9.47.72-13,7-14.34,25.83-.28,3.88-3.76,8-8.86,10.62-4,2-12.63,7-26.34-1.71l.73-2.07c12.78,8.1,21,3.68,24.64,1.85,5-2.54,7.49-6.27,7.67-8.85,1.28-17.34,4.26-26.91,16.34-27.83,5.37-.4,9.4.87,12,3.8,3.64,4.15,4.29,11.47,2,22.37-1,4.74-.81,7.72.58,9.38,2.18,2.59,7.83,2.37,15.66,2.07l1.58-.06c4.53-.16,7.64,1,9.18,3.45C234.9,84.26,232.22,89.05,232.07,89.33Z"/><path class="cls-36" d="M197.29,90.85l-2.15-.21c1.44-15,21-14,21.17-14l-.12,2.15C215.47,78.78,198.53,77.94,197.29,90.85Z"/><path class="cls-36" d="M206,60.51l-2.11-.42c0-.18,3.85-18.17,21.06-17.36l-.11,2.16C209.38,44.12,206.1,59.84,206,60.51Z"/><path class="cls-36" d="M226.25,56.28c-2.45-8.32-12.43-8.49-12.53-8.49V45.63c.12,0,11.7.19,14.59,10Z"/><path class="cls-36" d="M161.76,95.34l-.79-2c20.93-8.16,14.38-26.85,14.09-27.64l2-.74C177.17,65.15,184.63,86.41,161.76,95.34Z"/><path class="cls-36" d="M173.45,101.34,172,99.75c6.08-5.59,1.42-14.93,1.37-15l1.93-1C175.5,84.18,180.72,94.65,173.45,101.34Z"/><path class="cls-36" d="M178.11,56.6l-1.76-1.26c.07-.1,7.32-10.1,16.83-6.32l-.79,2C184.43,47.87,178.17,56.51,178.11,56.6Z"/><path class="cls-36" d="M165.18,113.26c-9.83-.9-10.18-8.49-12.31-15.4-.77-2.47-1.26-5-2.45-6.6-3.82-5.26-7.22-5.59-10.94-5.77l.36-2.14a13.08,13.08,0,0,1,12.49,6.89,42,42,0,0,1,2.6,7c2.15,6.94,6.17,15,14.56,15.73Z"/><path class="cls-36" d="M168.67,76.65l-2.15-.19c.72-8.27-13-10.06-13.12-10.08l.27-2.14C154.31,64.32,169.57,66.33,168.67,76.65Z"/><path class="cls-36" d="M164,69.15,162.12,68c3.94-6.39-2.33-14.66-2.39-14.74l1.7-1.32C161.73,52.33,168.67,61.49,164,69.15Z"/><path class="cls-36" d="M227.54,78.18l-1.95-.93c2-4.2,3.15-5,7-7.68.77-.52,1.64-1.14,2.67-1.87,5.34-3.82,1.65-11.16,1.61-11.24l1.92-1c1.6,3.12,3.19,10.06-2.28,14-1,.74-1.91,1.35-2.68,1.89C230.07,74,229.29,74.5,227.54,78.18Z"/><path class="cls-36" d="M241.09,71.36a11.46,11.46,0,0,1-5.84-1.89l1.24-1.78s3,2,5.72,1.39c1.36-.31,3.52-3,4.39-4.49L246.4,68c-1.19,2.08-1.74,2.76-3.73,3.21A7.14,7.14,0,0,1,241.09,71.36Z"/><path class="cls-36" d="M197.58,102c-.24,0-.39-.17-.61-.39-.74-.79.05-1.55.39-1.88l0,0c.47-.41,1.74-1.54,5.12-4.65,1.7-1.57,2.5-3.23,2.36-5-.31-3.86-5-7-5-7L201,81.39c.22.15,5.6,3.76,6,8.65.2,2.41-.83,4.67-3.05,6.71-2.69,2.48-4.22,3.88-5.15,4.61l-.22.22,0,0A1.9,1.9,0,0,1,197.58,102Z"/><path class="cls-36" d="M215.33,94.91a6.7,6.7,0,0,0-4.16-3.29,6.8,6.8,0,0,0-4.7.89l-1.19-1.81a9,9,0,0,1,6.34-1.2,8.82,8.82,0,0,1,5.54,4.25Z"/><path class="cls-36" d="M202.73,69.32s-5.15-5.43-10-5.43h-.05A6,6,0,0,0,188.1,66l-1.6-1.46a8.16,8.16,0,0,1,6.12-2.85c5.78,0,11.45,5.86,11.69,6.11Z"/><path class="cls-36" d="M221.43,64.59c-5.93-5.66-.43-15.47-.2-15.88l1.88,1.07c-.05.09-4.89,8.76-.19,13.24Z"/><path class="cls-36" d="M158.36,107.59l-1.52-1.54a9.83,9.83,0,0,1,11.27-1.34l-1,1.93A7.6,7.6,0,0,0,158.36,107.59Z"/><path class="cls-36" d="M184.06,94.84c-1.92-3.61-7.77-3-7.83-3L176,89.67c.3,0,7.37-.76,10,4.16Z"/><path class="cls-39" d="M139,94.38c.71,11.59,24.74,25,36.84,15.85,11.43-8.65,28.36-7.93,28.36-7.93,26.29,2.17,25.94-11.52,25.94-11.52,21.09-15.42,18.59-31.14,10.63-41.57,5.34,16.73-12.22,31.17-17.69,37.16-6,6.57-13.28,5.14-22.48,4.09s-8.1,4-30.08,10.88c-18.21,5.74-28.49-7.44-31.48-12.12A42.52,42.52,0,0,0,139,94.38Z"/><g class="cls-15"><path class="cls-40" d="M206.43,141.42c12.72,6.46,12.78,16.93.15,23.39s-33.19,6.46-45.91,0-12.79-16.93-.15-23.39S193.71,135,206.43,141.42Z"/><g class="cls-13"><path class="cls-41" d="M212.44,120.16c16.06,7.65,16.14,20,.19,27.69s-41.91,7.64-58,0-16.15-20-.19-27.69S196.38,112.52,212.44,120.16Z"/></g><g class="cls-42"><path class="cls-41" d="M218.45,98.9c19.4,8.83,19.5,23.15.23,32s-50.63,8.83-70,0-19.51-23.16-.23-32S199.05,90.06,218.45,98.9Z"/></g><g class="cls-2"><path class="cls-41" d="M224.46,77.63c22.74,10,22.86,26.27.27,36.29s-59.35,10-82.09,0-22.87-26.27-.27-36.29S201.72,67.61,224.46,77.63Z"/></g><g class="cls-43"><path class="cls-41" d="M230.47,56.37c26.08,11.21,26.22,29.38.31,40.59s-68.07,11.21-94.15,0-26.23-29.38-.31-40.59S204.39,45.16,230.47,56.37Z"/></g><g class="cls-44"><path class="cls-41" d="M236.48,35.1c29.43,12.4,29.58,32.5.35,44.9S160,92.39,130.62,80,101,47.5,130.27,35.1,207.06,22.71,236.48,35.1Z"/></g><g class="cls-3"><path class="cls-41" d="M242.49,13.84c32.77,13.58,32.94,35.61.38,49.19s-85.5,13.58-118.26,0-32.95-35.61-.39-49.19S209.73.26,242.49,13.84Z"/></g></g><path class="cls-33" d="M81.38,281a1.29,1.29,0,0,0,0,2.44,4.68,4.68,0,0,0,4,.12.94.94,0,0,0,.22-.12,1.88,1.88,0,0,0,.6-.49c.52-.64.33-1.42-.58-1.95A4.62,4.62,0,0,0,81.38,281Z"/><path class="cls-33" d="M85.58,283.44a.94.94,0,0,1-.22.12l13.85,8.05.08-.77.5,0L86.18,283A1.88,1.88,0,0,1,85.58,283.44Z"/><path class="cls-33" d="M76.34,270.92a1.29,1.29,0,0,0,0,2.45,4.71,4.71,0,0,0,3.69.24,3.56,3.56,0,0,0,.52-.24,2.41,2.41,0,0,0,.42-.31c.73-.66.6-1.56-.4-2.14A4.68,4.68,0,0,0,76.34,270.92Z"/><polygon class="cls-33" points="99.23 291.62 99.24 291.61 99.21 291.61 99.23 291.62"/><g class="cls-1"><polygon class="cls-33" points="102.82 285.76 103.61 286.22 103.13 286.5 135.57 267.77 134.78 267.31 102.82 285.76"/><path class="cls-33" d="M80,273.61l22.64,13.16.47-.28.48-.27-.79-.45L81,273.06a2.41,2.41,0,0,1-.42.31A3.56,3.56,0,0,1,80,273.61Z"/><polygon class="cls-33" points="99.29 290.84 99.21 291.61 99.24 291.61 112.69 292.05 112.74 292.05 112.82 291.28 112.53 291.27 99.79 290.86 99.29 290.84"/><polygon class="cls-33" points="112.53 291.27 112.82 291.28 112.74 292.05 145.15 273.34 144.37 272.88 112.53 291.27"/><polygon class="cls-33" points="128.8 301.39 128.78 301.4 128.81 301.41 128.8 301.39"/><polygon class="cls-33" points="128.8 301.39 128.81 301.41 129.52 309.21 129.52 309.22 130.85 309.18 130.83 308.89 130.15 301.52 130.14 301.34 128.8 301.39"/><polygon class="cls-33" points="162.01 283.13 161.22 282.67 128.8 301.39 130.14 301.34 130.15 301.52 162.01 283.13"/><path class="cls-33" d="M102.66,306a3,3,0,0,1,.44.21,1.83,1.83,0,0,1,.35.25l49.47-28.57-.79-.45Z"/><polygon class="cls-33" points="138.84 306.7 139.63 307.16 171.59 288.7 170.81 288.24 138.84 306.7"/><path class="cls-33" d="M98.88,306.17a1.29,1.29,0,0,0,0,2.44,4.66,4.66,0,0,0,4.21,0c1-.6,1.17-1.52.38-2.19a1.83,1.83,0,0,0-.35-.25,3,3,0,0,0-.44-.21A4.68,4.68,0,0,0,98.88,306.17Z"/><polygon class="cls-33" points="129.52 309.21 129.5 309.22 129.52 309.22 129.52 309.21"/><path class="cls-33" d="M130.83,308.9l0,.28-1.33,0,13.84,8a2.25,2.25,0,0,1,.42-.3,2.45,2.45,0,0,1,.52-.24Z"/><path class="cls-33" d="M143.78,317a2.25,2.25,0,0,0-.42.3c-.73.66-.6,1.55.41,2.14a4.66,4.66,0,0,0,4.21,0,1.29,1.29,0,0,0,0-2.44,4.65,4.65,0,0,0-3.7-.24A2.45,2.45,0,0,0,143.78,317Z"/><path class="cls-33" d="M137.9,307.24l22.64,13.16a2,2,0,0,1,.42-.3,2.75,2.75,0,0,1,.52-.24l-21.85-12.7-.79-.46Z"/></g><path class="cls-33" d="M161,320.1a2,2,0,0,0-.42.3c-.73.67-.6,1.56.41,2.14a4.66,4.66,0,0,0,4.21,0,1.29,1.29,0,0,0,0-2.44,4.65,4.65,0,0,0-3.7-.24A2.75,2.75,0,0,0,161,320.1Z"/><g class="cls-15"><path class="cls-45" d="M169,320.4a5.89,5.89,0,1,1-5.89-5.89A5.89,5.89,0,0,1,169,320.4Z"/><path class="cls-46" d="M168.23,320.46a5.19,5.19,0,1,1-5.19-5.19A5.19,5.19,0,0,1,168.23,320.46Z"/><path class="cls-47" d="M167.51,320.52A4.49,4.49,0,1,1,163,316,4.48,4.48,0,0,1,167.51,320.52Z"/><path class="cls-48" d="M166.8,320.58a3.79,3.79,0,1,1-3.79-3.79A3.79,3.79,0,0,1,166.8,320.58Z"/><path class="cls-49" d="M166.08,320.63a3.09,3.09,0,1,1-3.08-3.09A3.08,3.08,0,0,1,166.08,320.63Z"/><path class="cls-50" d="M165.36,320.69A2.39,2.39,0,1,1,163,318.3,2.38,2.38,0,0,1,165.36,320.69Z"/><path class="cls-33" d="M164.64,320.75a1.69,1.69,0,0,1-1.68,1.69,1.69,1.69,0,1,1,0-3.38A1.69,1.69,0,0,1,164.64,320.75Z"/></g><g class="cls-15"><path class="cls-45" d="M151.77,317.27a5.89,5.89,0,1,1-5.89-5.89A5.89,5.89,0,0,1,151.77,317.27Z"/><path class="cls-46" d="M151.05,317.33a5.19,5.19,0,1,1-5.19-5.19A5.18,5.18,0,0,1,151.05,317.33Z"/><path class="cls-47" d="M150.33,317.39a4.49,4.49,0,1,1-4.48-4.49A4.48,4.48,0,0,1,150.33,317.39Z"/><path class="cls-48" d="M149.62,317.44a3.79,3.79,0,1,1-3.79-3.79A3.79,3.79,0,0,1,149.62,317.44Z"/><path class="cls-49" d="M148.9,317.5a3.09,3.09,0,1,1-3.08-3.09A3.08,3.08,0,0,1,148.9,317.5Z"/><path class="cls-50" d="M148.18,317.56a2.39,2.39,0,1,1-2.38-2.39A2.38,2.38,0,0,1,148.18,317.56Z"/><path class="cls-33" d="M147.47,317.62a1.7,1.7,0,1,1-1.69-1.7A1.69,1.69,0,0,1,147.47,317.62Z"/></g><g class="cls-15"><path class="cls-45" d="M106.86,307.16a5.89,5.89,0,1,1-5.88-5.89A5.88,5.88,0,0,1,106.86,307.16Z"/><path class="cls-46" d="M106.15,307.21A5.19,5.19,0,1,1,101,302,5.19,5.19,0,0,1,106.15,307.21Z"/><path class="cls-47" d="M105.43,307.27a4.49,4.49,0,1,1-4.48-4.49A4.49,4.49,0,0,1,105.43,307.27Z"/><path class="cls-48" d="M104.71,307.33a3.79,3.79,0,1,1-3.78-3.79A3.79,3.79,0,0,1,104.71,307.33Z"/><path class="cls-49" d="M104,307.39a3.09,3.09,0,1,1-3.09-3.09A3.1,3.1,0,0,1,104,307.39Z"/><path class="cls-50" d="M103.28,307.45a2.39,2.39,0,1,1-2.38-2.39A2.38,2.38,0,0,1,103.28,307.45Z"/><path class="cls-33" d="M102.56,307.51a1.68,1.68,0,0,1-1.68,1.68,1.69,1.69,0,1,1,1.68-1.68Z"/></g><g class="cls-15"><path class="cls-45" d="M89.37,282.22a5.89,5.89,0,1,1-5.89-5.89A5.89,5.89,0,0,1,89.37,282.22Z"/><path class="cls-46" d="M88.65,282.28a5.19,5.19,0,1,1-5.18-5.19A5.19,5.19,0,0,1,88.65,282.28Z"/><path class="cls-47" d="M87.94,282.34a4.49,4.49,0,1,1-4.49-4.49A4.49,4.49,0,0,1,87.94,282.34Z"/><path class="cls-48" d="M87.22,282.39a3.79,3.79,0,1,1-3.79-3.78A3.79,3.79,0,0,1,87.22,282.39Z"/><path class="cls-49" d="M86.5,282.45a3.09,3.09,0,1,1-3.08-3.09A3.08,3.08,0,0,1,86.5,282.45Z"/><path class="cls-50" d="M85.79,282.51a2.4,2.4,0,1,1-2.39-2.39A2.39,2.39,0,0,1,85.79,282.51Z"/><path class="cls-33" d="M85.07,282.57a1.69,1.69,0,1,1-1.69-1.69A1.69,1.69,0,0,1,85.07,282.57Z"/></g><g class="cls-15"><path class="cls-45" d="M84.33,272.15a5.89,5.89,0,1,1-5.89-5.89A5.89,5.89,0,0,1,84.33,272.15Z"/><path class="cls-46" d="M83.61,272.2A5.19,5.19,0,1,1,78.43,267,5.18,5.18,0,0,1,83.61,272.2Z"/><path class="cls-47" d="M82.9,272.26a4.49,4.49,0,1,1-4.49-4.49A4.49,4.49,0,0,1,82.9,272.26Z"/><path class="cls-48" d="M82.18,272.32a3.79,3.79,0,1,1-3.79-3.79A3.79,3.79,0,0,1,82.18,272.32Z"/><path class="cls-49" d="M81.46,272.38a3.09,3.09,0,1,1-3.08-3.09A3.09,3.09,0,0,1,81.46,272.38Z"/><path class="cls-50" d="M80.74,272.44a2.39,2.39,0,0,1-4.78,0,2.39,2.39,0,1,1,4.78,0Z"/><path class="cls-33" d="M80,272.49a1.69,1.69,0,1,1-1.69-1.69A1.69,1.69,0,0,1,80,272.49Z"/></g><path class="cls-33" d="M289.07,278.66a1.29,1.29,0,0,1,0,2.44,4.74,4.74,0,0,1-4,.12l-.23-.12a2.13,2.13,0,0,1-.59-.5c-.52-.63-.32-1.42.58-1.94A4.62,4.62,0,0,1,289.07,278.66Z"/><path class="cls-33" d="M284.86,281.1l.23.12-13.85,8-.08-.77-.5,0,13.61-7.91A2.13,2.13,0,0,0,284.86,281.1Z"/><path class="cls-33" d="M294.11,268.58a1.29,1.29,0,0,1,0,2.44,4.71,4.71,0,0,1-3.69.24,3.56,3.56,0,0,1-.52-.24,2,2,0,0,1-.42-.3c-.73-.67-.6-1.56.4-2.14A4.62,4.62,0,0,1,294.11,268.58Z"/><polygon class="cls-33" points="271.22 289.27 271.21 289.27 271.24 289.26 271.22 289.27"/><polygon class="cls-33" points="267.63 283.42 266.85 283.88 267.32 284.15 234.88 265.42 235.67 264.97 267.63 283.42"/><path class="cls-33" d="M290.43,271.26l-22.64,13.16-.47-.27-.47-.27.78-.46,21.86-12.7a2,2,0,0,0,.42.3A3.56,3.56,0,0,0,290.43,271.26Z"/><polygon class="cls-33" points="271.16 288.49 271.24 289.26 271.21 289.27 257.76 289.7 257.71 289.71 257.63 288.94 257.93 288.93 270.66 288.51 271.16 288.49"/><polygon class="cls-33" points="257.93 288.93 257.63 288.94 257.71 289.71 225.3 270.99 226.08 270.54 257.93 288.93"/><polygon class="cls-33" points="241.65 299.04 241.67 299.06 241.64 299.07 241.65 299.04"/><polygon class="cls-33" points="241.65 299.04 241.64 299.07 240.93 306.86 240.93 306.88 239.59 306.84 239.63 306.55 240.3 299.17 240.32 299 241.65 299.04"/><polygon class="cls-33" points="208.45 280.78 209.23 280.33 241.65 299.04 240.32 299 240.3 299.17 208.45 280.78"/><path class="cls-33" d="M267.79,303.61a2.46,2.46,0,0,0-.43.21,2.53,2.53,0,0,0-.36.25l-49.47-28.56.79-.46Z"/><polygon class="cls-33" points="231.61 304.36 230.83 304.81 198.86 286.36 199.64 285.9 231.61 304.36"/><path class="cls-33" d="M271.58,303.82a1.3,1.3,0,0,1,0,2.45,4.65,4.65,0,0,1-4.22,0c-1-.59-1.16-1.52-.37-2.19a2.53,2.53,0,0,1,.36-.25,2.46,2.46,0,0,1,.43-.21A4.79,4.79,0,0,1,271.58,303.82Z"/><polygon class="cls-33" points="240.93 306.86 240.94 306.87 240.93 306.88 240.93 306.86"/><path class="cls-33" d="M239.62,306.55l0,.29,1.33,0-13.84,8a2.83,2.83,0,0,0-.42-.3,2.75,2.75,0,0,0-.52-.24Z"/><path class="cls-33" d="M226.67,314.62a2.83,2.83,0,0,1,.42.3c.73.67.6,1.56-.4,2.14a4.62,4.62,0,0,1-4.22,0,1.29,1.29,0,0,1,0-2.44,4.73,4.73,0,0,1,3.7-.24A2.75,2.75,0,0,1,226.67,314.62Z"/><path class="cls-33" d="M232.55,304.9l-22.64,13.16a2.31,2.31,0,0,0-.41-.31,4.27,4.27,0,0,0-.53-.24l21.86-12.7.78-.45Z"/><path class="cls-33" d="M209.5,317.75a2.31,2.31,0,0,1,.41.31c.73.66.6,1.55-.4,2.14a4.68,4.68,0,0,1-4.22,0,1.29,1.29,0,0,1,0-2.45,4.71,4.71,0,0,1,3.69-.24A4.27,4.27,0,0,1,209.5,317.75Z"/><g class="cls-15"><path class="cls-45" d="M201.51,318.06a5.89,5.89,0,1,0,5.88-5.89A5.88,5.88,0,0,0,201.51,318.06Z"/><path class="cls-46" d="M202.22,318.12a5.19,5.19,0,1,0,5.19-5.19A5.18,5.18,0,0,0,202.22,318.12Z"/><path class="cls-47" d="M202.94,318.17a4.49,4.49,0,1,0,4.48-4.49A4.49,4.49,0,0,0,202.94,318.17Z"/><path class="cls-48" d="M203.66,318.23a3.79,3.79,0,1,0,3.78-3.79A3.79,3.79,0,0,0,203.66,318.23Z"/><path class="cls-49" d="M204.37,318.29a3.09,3.09,0,1,0,3.09-3.09A3.09,3.09,0,0,0,204.37,318.29Z"/><path class="cls-50" d="M205.09,318.35a2.39,2.39,0,1,0,2.38-2.39A2.38,2.38,0,0,0,205.09,318.35Z"/><path class="cls-33" d="M205.8,318.4a1.7,1.7,0,1,0,1.69-1.69A1.69,1.69,0,0,0,205.8,318.4Z"/></g><g class="cls-15"><path class="cls-45" d="M218.69,314.92a5.89,5.89,0,1,0,5.88-5.88A5.89,5.89,0,0,0,218.69,314.92Z"/><path class="cls-46" d="M219.4,315a5.19,5.19,0,1,0,5.19-5.19A5.19,5.19,0,0,0,219.4,315Z"/><path class="cls-47" d="M220.12,315a4.49,4.49,0,1,0,4.48-4.49A4.49,4.49,0,0,0,220.12,315Z"/><path class="cls-48" d="M220.84,315.1a3.79,3.79,0,1,0,3.78-3.79A3.79,3.79,0,0,0,220.84,315.1Z"/><path class="cls-49" d="M221.55,315.16a3.09,3.09,0,1,0,3.09-3.09A3.08,3.08,0,0,0,221.55,315.16Z"/><path class="cls-50" d="M222.27,315.22a2.39,2.39,0,1,0,2.38-2.4A2.39,2.39,0,0,0,222.27,315.22Z"/><path class="cls-33" d="M223,315.27a1.69,1.69,0,0,0,1.68,1.69,1.69,1.69,0,1,0,0-3.38A1.69,1.69,0,0,0,223,315.27Z"/></g><g class="cls-15"><path class="cls-45" d="M263.59,304.81a5.89,5.89,0,1,0,5.88-5.89A5.89,5.89,0,0,0,263.59,304.81Z"/><path class="cls-46" d="M264.3,304.87a5.19,5.19,0,1,0,5.19-5.19A5.18,5.18,0,0,0,264.3,304.87Z"/><path class="cls-47" d="M265,304.93a4.49,4.49,0,1,0,4.48-4.49A4.49,4.49,0,0,0,265,304.93Z"/><path class="cls-48" d="M265.74,305a3.79,3.79,0,1,0,3.78-3.78A3.78,3.78,0,0,0,265.74,305Z"/><path class="cls-49" d="M266.46,305a3.09,3.09,0,1,0,3.08-3.09A3.08,3.08,0,0,0,266.46,305Z"/><path class="cls-50" d="M267.17,305.1a2.39,2.39,0,1,0,2.39-2.39A2.39,2.39,0,0,0,267.17,305.1Z"/><path class="cls-33" d="M267.89,305.16a1.69,1.69,0,1,0,1.68-1.69A1.69,1.69,0,0,0,267.89,305.16Z"/></g><g class="cls-15"><path class="cls-45" d="M281.08,279.87A5.89,5.89,0,1,0,287,274,5.89,5.89,0,0,0,281.08,279.87Z"/><path class="cls-46" d="M281.8,279.93a5.19,5.19,0,1,0,5.18-5.18A5.18,5.18,0,0,0,281.8,279.93Z"/><path class="cls-47" d="M282.51,280A4.49,4.49,0,1,0,287,275.5,4.49,4.49,0,0,0,282.51,280Z"/><path class="cls-48" d="M283.23,280.05a3.79,3.79,0,1,0,3.79-3.79A3.79,3.79,0,0,0,283.23,280.05Z"/><path class="cls-49" d="M284,280.11A3.09,3.09,0,1,0,287,277,3.09,3.09,0,0,0,284,280.11Z"/><path class="cls-50" d="M284.67,280.17a2.39,2.39,0,1,0,2.38-2.39A2.38,2.38,0,0,0,284.67,280.17Z"/><path class="cls-33" d="M285.38,280.23a1.7,1.7,0,0,0,3.39,0,1.7,1.7,0,1,0-3.39,0Z"/></g><g class="cls-15"><path class="cls-45" d="M286.12,269.8a5.89,5.89,0,1,0,5.89-5.89A5.89,5.89,0,0,0,286.12,269.8Z"/><path class="cls-46" d="M286.84,269.86a5.19,5.19,0,1,0,5.19-5.19A5.18,5.18,0,0,0,286.84,269.86Z"/><path class="cls-47" d="M287.55,269.92a4.49,4.49,0,1,0,4.49-4.49A4.49,4.49,0,0,0,287.55,269.92Z"/><path class="cls-48" d="M288.27,270a3.79,3.79,0,1,0,3.79-3.79A3.79,3.79,0,0,0,288.27,270Z"/><path class="cls-49" d="M289,270a3.09,3.09,0,1,0,3.09-3.09A3.09,3.09,0,0,0,289,270Z"/><path class="cls-50" d="M289.7,270.09a2.4,2.4,0,1,0,2.39-2.39A2.4,2.4,0,0,0,289.7,270.09Z"/><path class="cls-33" d="M290.42,270.15a1.7,1.7,0,1,0,1.69-1.69A1.69,1.69,0,0,0,290.42,270.15Z"/></g><g class="cls-15"><path class="cls-51" d="M213.64,223.1c15.06,8.69,15.14,22.8.17,31.5s-39.32,8.69-54.38,0-15.15-22.81-.18-31.5S198.57,214.4,213.64,223.1Z"/><g class="cls-8"><path class="cls-52" d="M218.05,213c17.27,10,17.36,26.14.2,36.11s-45.08,10-62.35,0S138.54,223,155.7,213,200.78,203,218.05,213Z"/></g><g class="cls-7"><path class="cls-53" d="M222.46,202.94c19.48,11.24,19.58,29.48.23,40.72s-50.84,11.25-70.32,0-19.58-29.48-.23-40.72S203,191.69,222.46,202.94Z"/></g><g class="cls-2"><path class="cls-54" d="M226.87,192.85c21.68,12.53,21.8,32.83.25,45.35s-56.59,12.52-78.28,0-21.8-32.82-.25-45.35S205.18,180.33,226.87,192.85Z"/></g><g class="cls-6"><path class="cls-55" d="M231.28,182.77c23.89,13.8,24,36.16.28,50s-62.35,13.79-86.25,0-24-36.16-.28-50S207.38,169,231.28,182.77Z"/></g><g class="cls-5"><path class="cls-56" d="M235.69,172.69c26.1,15.07,26.24,39.5.31,54.57s-68.11,15.07-94.21,0-26.24-39.5-.31-54.57S209.59,157.62,235.69,172.69Z"/></g><g class="cls-3"><path class="cls-57" d="M240.1,162.61c28.3,16.35,28.45,42.84.33,59.18s-73.87,16.35-102.17,0-28.46-42.83-.34-59.18S211.79,146.27,240.1,162.61Z"/></g></g><path class="cls-58" d="M103.2,239.23a2.33,2.33,0,0,1,0,3.77c-1.28,1-2.25,1.64-3.55.59s-2.92-4.38-1.64-5.41S101.91,238.19,103.2,239.23Z"/><g class="cls-8"><path class="cls-59" d="M103.2,233.83a2.33,2.33,0,0,1,0,3.77c-1.28,1-2.44,1.54-3.74.49S96.82,234,98.1,233,101.91,232.8,103.2,233.83Z"/></g><g class="cls-7"><path class="cls-60" d="M103.2,228.43a2.33,2.33,0,0,1,0,3.77c-1.28,1-2.62,1.44-3.92.4s-2.38-3.83-1.1-4.87S101.91,227.4,103.2,228.43Z"/></g><g class="cls-2"><path class="cls-61" d="M103.2,223a2.33,2.33,0,0,1,0,3.77c-1.28,1-2.81,1.35-4.11.3s-2.11-3.56-.83-4.59S101.91,222,103.2,223Z"/></g><g class="cls-6"><path class="cls-62" d="M103.2,217.63a2.33,2.33,0,0,1,0,3.77,3.33,3.33,0,0,1-4.29.2c-1.29-1-1.84-3.28-.56-4.32S101.91,216.6,103.2,217.63Z"/></g><g class="cls-5"><path class="cls-63" d="M103.2,212.23a2.33,2.33,0,0,1,0,3.77,3.59,3.59,0,0,1-4.48.1,2.61,2.61,0,0,1-.28-4A4,4,0,0,1,103.2,212.23Z"/></g><g class="cls-3"><path class="cls-64" d="M103.2,206.84a2.32,2.32,0,0,1,0,3.76,3.87,3.87,0,0,1-4.67,0,2.32,2.32,0,0,1,0-3.76A3.89,3.89,0,0,1,103.2,206.84Z"/></g><path class="cls-33" d="M100.88,185.65c-1.94-1.12-3.53-.22-3.54,2a7.76,7.76,0,0,0,3.52,6.09c2,1.13,3.53.22,3.54-2A7.72,7.72,0,0,0,100.88,185.65Z"/><path class="cls-33" d="M100.88,237.19c-1.94-1.13-3.53-.23-3.54,2a7.79,7.79,0,0,0,3.52,6.1c2,1.12,3.53.22,3.54-2A7.72,7.72,0,0,0,100.88,237.19Z"/><path class="cls-31" d="M100.59,239V192h0a4.25,4.25,0,0,1-1.94-3.37c0-1.24.87-1.74,1.95-1.12a4.31,4.31,0,0,1,2,3.37c0,1.13-.73,1.64-1.68,1.25v47.11a4.34,4.34,0,0,1,1.68,3.18c0,1.24-.88,1.74-2,1.12a4.28,4.28,0,0,1-1.94-3.37C98.65,238.88,99.52,238.38,100.59,239Z"/><path class="cls-58" d="M69.44,130.43a2.33,2.33,0,0,1,0,3.77c-1.28,1-2.25,1.64-3.55.59s-2.92-4.38-1.64-5.42S68.14,129.39,69.44,130.43Z"/><g class="cls-8"><path class="cls-59" d="M69.44,125a2.33,2.33,0,0,1,0,3.77c-1.28,1-2.44,1.54-3.74.49s-2.64-4.1-1.37-5.14S68.14,124,69.44,125Z"/></g><g class="cls-7"><path class="cls-60" d="M69.44,119.63a2.33,2.33,0,0,1,0,3.77c-1.28,1-2.62,1.44-3.92.39s-2.38-3.82-1.1-4.86S68.14,118.6,69.44,119.63Z"/></g><g class="cls-2"><path class="cls-61" d="M69.44,114.23a2.33,2.33,0,0,1,0,3.77c-1.28,1-2.81,1.34-4.11.3s-2.1-3.56-.83-4.6S68.14,113.2,69.44,114.23Z"/></g><g class="cls-6"><path class="cls-62" d="M69.44,108.83a2.33,2.33,0,0,1,0,3.77,3.33,3.33,0,0,1-4.29.2c-1.29-1-1.84-3.28-.56-4.32S68.14,107.8,69.44,108.83Z"/></g><g class="cls-5"><path class="cls-63" d="M69.44,103.43a2.33,2.33,0,0,1,0,3.77,3.59,3.59,0,0,1-4.48.1,2.62,2.62,0,0,1-.29-4A4,4,0,0,1,69.44,103.43Z"/></g><g class="cls-3"><path class="cls-64" d="M69.44,98a2.33,2.33,0,0,1,0,3.77,3.87,3.87,0,0,1-4.67,0,2.33,2.33,0,0,1,0-3.77A3.92,3.92,0,0,1,69.44,98Z"/></g><path class="cls-33" d="M67.12,76.85c-2-1.12-3.53-.22-3.54,2A7.76,7.76,0,0,0,67.1,85c2,1.13,3.53.22,3.54-2A7.74,7.74,0,0,0,67.12,76.85Z"/><path class="cls-33" d="M67.12,128.39c-2-1.13-3.53-.23-3.54,2a7.79,7.79,0,0,0,3.52,6.1c2,1.12,3.53.22,3.54-2A7.73,7.73,0,0,0,67.12,128.39Z"/><path class="cls-31" d="M66.83,130.2v-47h0a4.29,4.29,0,0,1-2-3.37c0-1.24.89-1.74,2-1.12a4.29,4.29,0,0,1,2,3.37c0,1.13-.73,1.64-1.68,1.25v47.11a4.32,4.32,0,0,1,1.68,3.18c0,1.24-.88,1.74-2,1.12a4.32,4.32,0,0,1-2-3.37C64.88,130.08,65.76,129.58,66.83,130.2Z"/><g class="cls-2"><path class="cls-31" d="M100.09,152c4.78,2.76,8.62,9.42,8.61,14.9s-3.89,7.69-8.67,4.92-8.61-9.4-8.59-14.88S95.32,149.23,100.09,152Z"/></g><g class="cls-2"><path class="cls-31" d="M100.08,155a14.53,14.53,0,0,1,6.61,11.44c0,4.2-3,5.89-6.65,3.77a14.52,14.52,0,0,1-6.59-11.42C93.46,154.59,96.43,152.9,100.08,155Z"/></g><g class="cls-2"><path class="cls-31" d="M100.08,157.45a9.9,9.9,0,0,1,4.49,7.77c0,2.86-2,4-4.52,2.57A9.89,9.89,0,0,1,95.57,160C95.58,157.17,97.6,156,100.08,157.45Z"/></g><g class="cls-2"><path class="cls-31" d="M84.53,130.09a15.74,15.74,0,0,1,7.15,12.38c0,4.54-3.23,6.37-7.19,4.08a15.67,15.67,0,0,1-7.13-12.35C77.37,129.64,80.58,127.81,84.53,130.09Z"/></g><g class="cls-2"><path class="cls-31" d="M84.53,132.62A12,12,0,0,1,90,142.11c0,3.48-2.47,4.88-5.51,3.13A12,12,0,0,1,79,135.76C79,132.27,81.5,130.86,84.53,132.62Z"/></g><g class="cls-2"><path class="cls-31" d="M84.53,134.64a8.19,8.19,0,0,1,3.72,6.45c0,2.37-1.68,3.32-3.75,2.13a8.21,8.21,0,0,1-3.72-6.44C80.79,134.4,82.46,133.45,84.53,134.64Z"/></g><g class="cls-15"><path class="cls-45" d="M113.49,161.89a14.65,14.65,0,1,1-14.65-14.64A14.64,14.64,0,0,1,113.49,161.89Z"/><path class="cls-46" d="M111.71,162A12.91,12.91,0,1,1,98.8,149.13,12.92,12.92,0,0,1,111.71,162Z"/><path class="cls-47" d="M109.92,162.18A11.17,11.17,0,1,1,98.76,151,11.16,11.16,0,0,1,109.92,162.18Z"/><path class="cls-48" d="M108.14,162.33a9.43,9.43,0,1,1-9.42-9.43A9.43,9.43,0,0,1,108.14,162.33Z"/><path class="cls-49" d="M106.35,162.48a7.69,7.69,0,1,1-7.67-7.69A7.67,7.67,0,0,1,106.35,162.48Z"/><path class="cls-50" d="M104.57,162.62a6,6,0,1,1-5.94-6A5.94,5.94,0,0,1,104.57,162.62Z"/><path class="cls-33" d="M102.79,162.77a4.22,4.22,0,1,1-4.2-4.22A4.21,4.21,0,0,1,102.79,162.77Z"/></g><g class="cls-15"><path class="cls-45" d="M98.84,138.76a14.65,14.65,0,1,1-14.65-14.65A14.64,14.64,0,0,1,98.84,138.76Z"/><path class="cls-46" d="M97.06,138.91A12.91,12.91,0,1,1,84.15,126,12.91,12.91,0,0,1,97.06,138.91Z"/><path class="cls-47" d="M95.27,139.05a11.17,11.17,0,1,1-11.16-11.17A11.16,11.16,0,0,1,95.27,139.05Z"/><path class="cls-48" d="M93.49,139.2a9.43,9.43,0,1,1-9.42-9.43A9.42,9.42,0,0,1,93.49,139.2Z"/><path class="cls-49" d="M91.71,139.34A7.7,7.7,0,1,1,84,131.65,7.69,7.69,0,0,1,91.71,139.34Z"/><path class="cls-50" d="M89.92,139.49a6,6,0,1,1-5.94-6A5.94,5.94,0,0,1,89.92,139.49Z"/><path class="cls-33" d="M88.14,139.63a4.22,4.22,0,1,1-4.2-4.21A4.21,4.21,0,0,1,88.14,139.63Z"/></g></g></g></svg>